# 3ds Max Wavefront OBJ Exporter v0.99 - (c)2007 guruware
# File Created: 14.04.2025 23:43:47

mtllib Banca.mtl

#
# object Box003
#

v  3.2601 4.0770 10.1330
v  3.2601 4.0770 9.9975
v  -1.3283 4.0770 9.9975
v  -1.3283 -0.0004 9.9975
v  3.2601 -0.0004 9.9975
v  3.2601 -0.0004 10.1330
v  -1.3283 3.7260 10.1330
v  3.2601 3.7260 10.1330
v  3.2601 3.7260 9.9975
v  3.2601 3.7260 -5.4983
v  -1.3283 3.7260 -5.4983
v  -1.3283 4.0770 -5.4983
v  -1.3283 3.7260 -5.2791
v  -1.3283 4.0770 -5.2791
v  -1.3283 -0.0004 10.1330
v  3.2601 -0.0004 -5.4983
v  -1.3283 -0.0004 -5.4983
v  -1.3283 -0.0004 -5.2791
v  3.2601 4.0770 -5.2791
v  3.2601 3.7260 -5.2791
v  -1.3283 4.0770 10.1330
v  -1.3283 3.7260 9.9975
v  3.2601 4.0770 -5.4983
v  3.2601 -0.0004 -5.2791
v  4.1418 7.9573 10.1271
v  4.1418 7.9573 9.4152
v  3.8811 8.0166 9.4152
v  4.1418 7.9573 -5.1959
v  3.8811 8.0166 -5.1959
v  3.8811 8.0166 -4.2207
v  2.9994 4.1363 -3.6914
v  3.1207 4.6701 -3.6914
v  3.1207 4.6701 -4.2207
v  2.9994 4.1363 -4.2207
v  3.2601 4.0770 -4.2207
v  3.2601 4.0770 -3.6914
v  4.1418 7.9573 -4.2207
v  3.8811 8.0166 -3.6914
v  3.3814 4.6109 -4.2207
v  3.3814 4.6109 -3.6914
v  2.9994 4.1363 8.8703
v  3.2601 4.0770 8.8703
v  3.2601 4.0770 9.4152
v  4.1418 7.9573 8.8703
v  3.8811 8.0166 8.8703
v  3.3814 4.6109 8.8703
v  3.3814 4.6109 9.4152
v  2.9994 4.1363 9.4152
v  3.1207 4.6701 9.4152
v  3.1207 4.6701 8.8703
v  4.1418 7.9573 -3.6914
v  3.8811 8.0166 10.1271
v  3.1207 4.6701 10.1271
v  3.3814 4.6109 10.1271
v  3.3814 4.6109 -5.1959
v  3.1207 4.6701 -5.1959
v  2.2843 7.4581 16.2069
v  1.3039 7.4581 16.7730
v  1.8440 7.4581 16.5764
v  2.6716 7.4581 15.1430
v  2.5718 7.4581 15.7091
v  2.5718 6.0358 15.7091
v  2.2843 6.0358 16.2069
v  1.8440 6.0358 16.5764
v  1.3039 6.0358 16.7730
v  0.7290 7.4581 16.7730
v  0.7290 6.0358 16.7730
v  0.1889 7.4581 16.5764
v  0.1889 6.0358 16.5764
v  -0.2514 7.4581 16.2069
v  -0.2514 6.0358 16.2069
v  -0.5389 7.4581 15.7091
v  -0.5389 6.0358 15.7091
v  -0.6387 7.4581 15.1430
v  -0.6387 6.0358 15.1430
v  -0.5389 7.4581 14.5770
v  -0.5389 6.0358 14.5770
v  -0.2514 7.4581 14.0791
v  -0.2514 6.0358 14.0791
v  0.1889 7.4581 13.7097
v  0.1889 6.0358 13.7097
v  0.7290 7.4581 13.5131
v  0.7290 6.0358 13.5131
v  1.3039 7.4581 13.5131
v  1.3039 6.0358 13.5131
v  1.8440 7.4581 13.7097
v  1.8440 6.0358 13.7097
v  2.2843 7.4581 14.0791
v  2.2843 6.0358 14.0791
v  2.5718 7.4581 14.5770
v  2.5718 6.0358 14.5770
v  2.6716 6.0358 15.1430
v  2.5718 4.6135 15.7091
v  2.2843 4.6135 16.2069
v  1.8440 4.6135 16.5764
v  1.3039 4.6135 16.7730
v  0.7290 4.6135 16.7730
v  0.1889 4.6135 16.5764
v  -0.2514 4.6135 16.2069
v  -0.5389 4.6135 15.7091
v  -0.6387 4.6135 15.1430
v  -0.5389 4.6135 14.5770
v  -0.2514 4.6135 14.0791
v  0.1889 4.6135 13.7097
v  0.7290 4.6135 13.5131
v  1.3039 4.6135 13.5131
v  1.8440 4.6135 13.7097
v  2.2843 4.6135 14.0791
v  2.5718 4.6135 14.5770
v  2.6716 4.6135 15.1430
v  2.5718 3.1912 15.7091
v  2.2843 3.1912 16.2069
v  1.8440 3.1912 16.5764
v  1.3039 3.1912 16.7730
v  0.7290 3.1912 16.7730
v  0.1889 3.1912 16.5764
v  -0.2514 3.1912 16.2069
v  -0.5389 3.1912 15.7091
v  -0.6387 3.1912 15.1430
v  -0.5389 3.1912 14.5770
v  -0.2514 3.1912 14.0791
v  0.1889 3.1912 13.7097
v  0.7290 3.1912 13.5131
v  1.3039 3.1912 13.5131
v  1.8440 3.1912 13.7097
v  2.2843 3.1912 14.0791
v  2.5718 3.1912 14.5770
v  2.6716 3.1912 15.1430
v  2.5718 1.7689 15.7091
v  2.2843 1.7689 16.2069
v  1.8440 1.7689 16.5764
v  1.3039 1.7689 16.7730
v  0.7290 1.7689 16.7730
v  0.1889 1.7689 16.5764
v  -0.2514 1.7689 16.2069
v  -0.5389 1.7689 15.7091
v  -0.6387 1.7689 15.1430
v  -0.5389 1.7689 14.5770
v  -0.2514 1.7689 14.0791
v  0.1889 1.7689 13.7097
v  0.7290 1.7689 13.5131
v  1.3039 1.7689 13.5131
v  1.8440 1.7689 13.7097
v  2.2843 1.7689 14.0791
v  2.5718 1.7689 14.5770
v  2.6716 1.7689 15.1430
v  2.5718 0.3466 15.7091
v  2.2843 0.3466 16.2069
v  1.8440 0.3466 16.5764
v  1.3039 0.3466 16.7730
v  0.7290 0.3466 16.7730
v  0.1889 0.3466 16.5764
v  -0.2514 0.3466 16.2069
v  -0.5389 0.3466 15.7091
v  -0.6387 0.3466 15.1430
v  -0.5389 0.3466 14.5770
v  -0.2514 0.3466 14.0791
v  0.1889 0.3466 13.7097
v  0.7290 0.3466 13.5131
v  1.3039 0.3466 13.5131
v  1.8440 0.3466 13.7097
v  2.2843 0.3466 14.0791
v  2.5718 0.3466 14.5770
v  2.6716 0.3466 15.1430
# 164 vertices

vn 0.0000 1.0000 -0.0000
vn 0.0000 -1.0000 -0.0000
vn 0.0000 0.0000 1.0000
vn 1.0000 0.0000 -0.0000
vn 0.0000 0.0000 -1.0000
vn -1.0000 0.0000 -0.0000
vn -0.0000 -1.0000 0.0000
vn 0.2216 0.9751 -0.0000
vn -0.9751 0.2216 -0.0000
vn -0.2216 -0.9751 -0.0000
vn 0.9751 -0.2216 -0.0000
vn 0.9397 0.0000 0.3420
vn 0.7660 0.0000 0.6428
vn 0.5000 0.0000 0.8660
vn 0.1736 0.0000 0.9848
vn -0.1736 0.0000 0.9848
vn -0.5000 0.0000 0.8660
vn -0.7660 0.0000 0.6428
vn -0.9397 0.0000 0.3420
vn -1.0000 0.0000 0.0000
vn -0.9397 0.0000 -0.3420
vn -0.7660 0.0000 -0.6428
vn -0.5000 0.0000 -0.8660
vn -0.1736 0.0000 -0.9848
vn 0.1736 0.0000 -0.9848
vn 0.5000 0.0000 -0.8660
vn 0.7660 0.0000 -0.6428
vn 0.9397 0.0000 -0.3420
# 28 vertex normals

vt 0.3462 0.7913 0.0000
vt 0.3432 0.7913 0.0000
vt 0.3432 0.6899 0.0000
vt 0.7564 0.6989 0.0000
vt 0.7564 0.8004 0.0000
vt 0.7534 0.8004 0.0000
vt 0.8032 0.2507 0.0000
vt 0.9047 0.2507 0.0000
vt 0.9047 0.2585 0.0000
vt 0.0005 0.9809 0.0000
vt 0.0035 0.9809 0.0000
vt 0.0035 0.9886 0.0000
vt 0.4177 0.9673 0.0000
vt 0.5192 0.9673 0.0000
vt 0.5192 0.9750 0.0000
vt 0.3497 0.9809 0.0000
vt 0.3546 0.9809 0.0000
vt 0.3546 0.9886 0.0000
vt 0.8032 0.1683 0.0000
vt 0.9047 0.1683 0.0000
vt 0.0005 0.8985 0.0000
vt 0.0035 0.8985 0.0000
vt 0.4177 0.8849 0.0000
vt 0.5192 0.8849 0.0000
vt 0.3497 0.8985 0.0000
vt 0.3546 0.8985 0.0000
vt 0.0053 0.7913 0.0000
vt 0.0053 0.6899 0.0000
vt 0.3413 0.9809 0.0000
vt 0.3413 0.9886 0.0000
vt 0.6954 0.9809 0.0000
vt 0.6954 0.9886 0.0000
vt 0.6924 0.9886 0.0000
vt 0.6954 0.8985 0.0000
vt 0.6924 0.9809 0.0000
vt 0.0005 0.7913 0.0000
vt 0.0005 0.6899 0.0000
vt 0.9714 0.0005 0.0000
vt 0.9714 0.1020 0.0000
vt 0.9665 0.1020 0.0000
vt 0.3462 0.9809 0.0000
vt 0.3462 0.9886 0.0000
vt 0.3462 0.8985 0.0000
vt 0.6326 0.9673 0.0000
vt 0.5311 0.9673 0.0000
vt 0.5311 0.8849 0.0000
vt 0.3588 0.8820 0.0000
vt 0.3588 0.7806 0.0000
vt 0.6966 0.7806 0.0000
vt 0.0096 0.9764 0.0000
vt 0.0096 0.8939 0.0000
vt 0.1110 0.8939 0.0000
vt 0.3400 0.9995 0.0000
vt 0.3242 0.9995 0.0000
vt 0.3242 0.9937 0.0000
vt 0.0005 0.9995 0.0000
vt 0.0005 0.9937 0.0000
vt 0.0221 0.9937 0.0000
vt 0.0342 0.7942 0.0000
vt 0.0342 0.8061 0.0000
vt 0.0224 0.8061 0.0000
vt 0.4122 0.9085 0.0000
vt 0.4122 0.9143 0.0000
vt 0.4004 0.9143 0.0000
vt 0.0221 0.9995 0.0000
vt 0.0338 0.9937 0.0000
vt 0.6803 0.6899 0.0000
vt 0.6803 0.7018 0.0000
vt 0.6684 0.7018 0.0000
vt 0.3999 0.9085 0.0000
vt 0.3999 0.9143 0.0000
vt 0.3878 0.9143 0.0000
vt 0.3122 0.9995 0.0000
vt 0.3122 0.9937 0.0000
vt 0.3869 0.6899 0.0000
vt 0.3869 0.7018 0.0000
vt 0.3747 0.7018 0.0000
vt 0.3279 0.7942 0.0000
vt 0.3279 0.8061 0.0000
vt 0.3157 0.8061 0.0000
vt 0.0338 0.9995 0.0000
vt 0.1455 0.9679 0.0000
vt 0.1398 0.9693 0.0000
vt 0.1230 0.8953 0.0000
vt 0.3747 0.7768 0.0000
vt 0.3588 0.7768 0.0000
vt 0.3588 0.7018 0.0000
vt 0.3691 0.9602 0.0000
vt 0.3633 0.9589 0.0000
vt 0.3801 0.8849 0.0000
vt 0.0224 0.8811 0.0000
vt 0.0005 0.8811 0.0000
vt 0.0005 0.8061 0.0000
vt 0.7021 0.7768 0.0000
vt 0.6803 0.7768 0.0000
vt 0.0342 0.8811 0.0000
vt 0.6684 0.7768 0.0000
vt 0.3157 0.8811 0.0000
vt 0.3869 0.7768 0.0000
vt 0.3438 0.8811 0.0000
vt 0.3279 0.8811 0.0000
vt 0.2143 0.9586 0.0000
vt 0.2268 0.9369 0.0000
vt 0.2224 0.9488 0.0000
vt 0.9407 0.1612 0.0000
vt 0.9279 0.1612 0.0000
vt 0.9279 0.1291 0.0000
vt 0.9166 0.1612 0.0000
vt 0.9166 0.1291 0.0000
vt 0.8567 0.1633 0.0000
vt 0.8467 0.1633 0.0000
vt 0.8467 0.1307 0.0000
vt 0.8343 0.1633 0.0000
vt 0.8343 0.1307 0.0000
vt 0.8211 0.1633 0.0000
vt 0.8211 0.1307 0.0000
vt 0.8088 0.1633 0.0000
vt 0.8088 0.1307 0.0000
vt 0.7987 0.1633 0.0000
vt 0.7987 0.1307 0.0000
vt 0.7516 0.8596 0.0000
vt 0.7403 0.8596 0.0000
vt 0.7403 0.8275 0.0000
vt 0.7275 0.8596 0.0000
vt 0.7275 0.8275 0.0000
vt 0.7147 0.8596 0.0000
vt 0.7147 0.8275 0.0000
vt 0.7035 0.8596 0.0000
vt 0.7035 0.8275 0.0000
vt 0.9157 0.1633 0.0000
vt 0.9056 0.1633 0.0000
vt 0.9056 0.1307 0.0000
vt 0.8933 0.1633 0.0000
vt 0.8933 0.1307 0.0000
vt 0.8801 0.1633 0.0000
vt 0.8801 0.1307 0.0000
vt 0.8677 0.1633 0.0000
vt 0.8677 0.1307 0.0000
vt 0.8577 0.1633 0.0000
vt 0.8577 0.1307 0.0000
vt 0.9647 0.1612 0.0000
vt 0.9535 0.1612 0.0000
vt 0.9535 0.1291 0.0000
vt 0.9407 0.1291 0.0000
vt 0.9279 0.0969 0.0000
vt 0.9166 0.0969 0.0000
vt 0.8567 0.1307 0.0000
vt 0.8467 0.0982 0.0000
vt 0.8343 0.0982 0.0000
vt 0.8211 0.0982 0.0000
vt 0.8088 0.0982 0.0000
vt 0.7987 0.0982 0.0000
vt 0.7516 0.8275 0.0000
vt 0.7403 0.7954 0.0000
vt 0.7275 0.7954 0.0000
vt 0.7147 0.7954 0.0000
vt 0.7035 0.7954 0.0000
vt 0.9157 0.1307 0.0000
vt 0.9056 0.0982 0.0000
vt 0.8933 0.0982 0.0000
vt 0.8801 0.0982 0.0000
vt 0.8677 0.0982 0.0000
vt 0.8577 0.0982 0.0000
vt 0.9647 0.1291 0.0000
vt 0.9535 0.0969 0.0000
vt 0.9407 0.0969 0.0000
vt 0.9279 0.0648 0.0000
vt 0.9166 0.0648 0.0000
vt 0.8567 0.0982 0.0000
vt 0.8467 0.0656 0.0000
vt 0.8343 0.0656 0.0000
vt 0.8211 0.0656 0.0000
vt 0.8088 0.0656 0.0000
vt 0.7987 0.0656 0.0000
vt 0.7516 0.7954 0.0000
vt 0.7403 0.7632 0.0000
vt 0.7275 0.7632 0.0000
vt 0.7147 0.7632 0.0000
vt 0.7035 0.7632 0.0000
vt 0.9157 0.0982 0.0000
vt 0.9056 0.0656 0.0000
vt 0.8933 0.0656 0.0000
vt 0.8801 0.0656 0.0000
vt 0.8677 0.0656 0.0000
vt 0.8577 0.0656 0.0000
vt 0.9647 0.0969 0.0000
vt 0.9535 0.0648 0.0000
vt 0.9407 0.0648 0.0000
vt 0.9279 0.0326 0.0000
vt 0.9166 0.0326 0.0000
vt 0.8567 0.0656 0.0000
vt 0.8467 0.0331 0.0000
vt 0.8343 0.0331 0.0000
vt 0.8211 0.0331 0.0000
vt 0.8088 0.0331 0.0000
vt 0.7987 0.0331 0.0000
vt 0.7516 0.7632 0.0000
vt 0.7403 0.7311 0.0000
vt 0.7275 0.7311 0.0000
vt 0.7147 0.7311 0.0000
vt 0.7035 0.7311 0.0000
vt 0.9157 0.0656 0.0000
vt 0.9056 0.0331 0.0000
vt 0.8933 0.0331 0.0000
vt 0.8801 0.0331 0.0000
vt 0.8677 0.0331 0.0000
vt 0.8577 0.0331 0.0000
vt 0.9647 0.0648 0.0000
vt 0.9535 0.0326 0.0000
vt 0.9407 0.0326 0.0000
vt 0.9279 0.0005 0.0000
vt 0.9166 0.0005 0.0000
vt 0.8567 0.0331 0.0000
vt 0.8467 0.0005 0.0000
vt 0.8343 0.0005 0.0000
vt 0.8211 0.0005 0.0000
vt 0.8088 0.0005 0.0000
vt 0.7987 0.0005 0.0000
vt 0.7516 0.7311 0.0000
vt 0.7403 0.6989 0.0000
vt 0.7275 0.6989 0.0000
vt 0.7147 0.6989 0.0000
vt 0.7035 0.6989 0.0000
vt 0.9157 0.0331 0.0000
vt 0.9056 0.0005 0.0000
vt 0.8933 0.0005 0.0000
vt 0.8801 0.0005 0.0000
vt 0.8677 0.0005 0.0000
vt 0.8577 0.0005 0.0000
vt 0.9647 0.0326 0.0000
vt 0.9535 0.0005 0.0000
vt 0.9407 0.0005 0.0000
vt 0.3084 0.9369 0.0000
vt 0.3041 0.9122 0.0000
vt 0.3084 0.9242 0.0000
vt 0.3462 0.6899 0.0000
vt 0.7534 0.6989 0.0000
vt 0.8032 0.2585 0.0000
vt 0.0005 0.9886 0.0000
vt 0.4177 0.9750 0.0000
vt 0.3497 0.9886 0.0000
vt 0.6924 0.8985 0.0000
vt 0.9665 0.0005 0.0000
vt 0.3413 0.8985 0.0000
vt 0.6326 0.8849 0.0000
vt 0.6966 0.8820 0.0000
vt 0.1110 0.9764 0.0000
vt 0.3400 0.9937 0.0000
vt 0.0224 0.7942 0.0000
vt 0.4004 0.9085 0.0000
vt 0.6684 0.6899 0.0000
vt 0.3878 0.9085 0.0000
vt 0.3747 0.6899 0.0000
vt 0.3157 0.7942 0.0000
vt 0.1287 0.8939 0.0000
vt 0.3859 0.8862 0.0000
vt 0.7021 0.7018 0.0000
vt 0.3438 0.8061 0.0000
vt 0.2033 0.9649 0.0000
vt 0.1907 0.9671 0.0000
vt 0.1782 0.9649 0.0000
vt 0.1672 0.9586 0.0000
vt 0.1590 0.9488 0.0000
vt 0.1547 0.9369 0.0000
vt 0.1547 0.9242 0.0000
vt 0.1590 0.9122 0.0000
vt 0.1672 0.9025 0.0000
vt 0.1782 0.8962 0.0000
vt 0.1907 0.8939 0.0000
vt 0.2033 0.8962 0.0000
vt 0.2143 0.9025 0.0000
vt 0.2224 0.9122 0.0000
vt 0.2268 0.9242 0.0000
vt 0.8567 0.0005 0.0000
vt 0.7516 0.6989 0.0000
vt 0.9157 0.0005 0.0000
vt 0.9647 0.0005 0.0000
vt 0.3041 0.9488 0.0000
vt 0.2959 0.9586 0.0000
vt 0.2849 0.9649 0.0000
vt 0.2724 0.9671 0.0000
vt 0.2599 0.9649 0.0000
vt 0.2489 0.9586 0.0000
vt 0.2407 0.9488 0.0000
vt 0.2363 0.9369 0.0000
vt 0.2363 0.9242 0.0000
vt 0.2407 0.9122 0.0000
vt 0.2489 0.9025 0.0000
vt 0.2599 0.8962 0.0000
vt 0.2724 0.8939 0.0000
vt 0.2849 0.8962 0.0000
vt 0.2959 0.9025 0.0000
# 292 texture coords

o Box003
g Box003
usemtl BANCA
s off
f 1/1/1 2/2/1 3/3/1 
f 4/4/2 5/5/2 6/6/2 
f 7/7/3 8/8/3 1/9/3 
f 8/10/4 9/11/4 2/12/4 
f 10/13/5 11/14/5 12/15/5 
f 11/16/6 13/17/6 14/18/6 
f 15/19/3 6/20/3 8/8/3 
f 6/21/4 5/22/4 9/11/4 
f 16/23/5 17/24/5 11/14/5 
f 17/25/6 18/26/6 13/17/6 
f 19/27/1 14/28/1 3/3/1 
f 20/29/4 19/30/4 2/12/4 
f 7/31/6 21/32/6 3/33/6 
f 15/34/6 7/31/6 22/35/6 
f 22/35/6 3/33/6 14/18/6 
f 23/36/1 12/37/1 14/28/1 
f 17/38/2 16/39/2 24/40/2 
f 10/41/4 23/42/4 19/30/4 
f 16/43/4 10/41/4 20/29/4 
f 20/44/3 13/45/3 18/46/3 
f 9/47/7 22/48/7 13/49/7 
f 9/50/5 5/51/5 4/52/5 
f 25/53/8 26/54/8 27/55/8 
f 28/56/8 29/57/8 30/58/8 
f 31/59/9 32/60/9 33/61/9 
f 34/62/10 35/63/10 36/64/10 
f 37/65/8 30/58/8 38/66/8 
f 35/67/11 39/68/11 40/69/11 
f 41/70/10 42/71/10 43/72/10 
f 44/73/8 45/74/8 27/55/8 
f 42/75/11 46/76/11 47/77/11 
f 48/78/9 49/79/9 50/80/9 
f 51/81/8 38/66/8 45/74/8 
f 25/82/3 52/83/3 53/84/3 
f 26/85/11 25/86/11 54/87/11 
f 29/88/5 28/89/5 55/90/5 
f 30/91/9 29/92/9 56/93/9 
f 28/94/11 37/95/11 39/68/11 
f 38/96/9 30/91/9 33/61/9 
f 37/95/11 51/97/11 40/69/11 
f 45/98/9 38/96/9 32/60/9 
f 44/99/11 26/85/11 47/77/11 
f 52/100/9 27/101/9 49/79/9 
f 27/101/9 45/98/9 50/80/9 
f 51/97/11 44/99/11 46/76/11 
f 57/102/1 58/103/1 59/104/1 
f 60/105/4 61/106/12 62/107/12 
f 61/106/12 57/108/13 63/109/13 
f 57/110/13 59/111/14 64/112/14 
f 59/111/14 58/113/15 65/114/15 
f 58/113/15 66/115/16 67/116/16 
f 66/115/16 68/117/17 69/118/17 
f 68/117/17 70/119/18 71/120/18 
f 70/121/18 72/122/19 73/123/19 
f 72/122/19 74/124/20 75/125/20 
f 74/124/20 76/126/21 77/127/21 
f 76/126/21 78/128/22 79/129/22 
f 78/130/22 80/131/23 81/132/23 
f 80/131/23 82/133/24 83/134/24 
f 82/133/24 84/135/25 85/136/25 
f 84/135/25 86/137/26 87/138/26 
f 86/137/26 88/139/27 89/140/27 
f 88/141/27 90/142/28 91/143/28 
f 90/142/28 60/105/4 92/144/4 
f 92/144/4 62/107/12 93/145/12 
f 62/107/12 63/109/13 94/146/13 
f 63/147/13 64/112/14 95/148/14 
f 64/112/14 65/114/15 96/149/15 
f 65/114/15 67/116/16 97/150/16 
f 67/116/16 69/118/17 98/151/17 
f 69/118/17 71/120/18 99/152/18 
f 71/153/18 73/123/19 100/154/19 
f 73/123/19 75/125/20 101/155/20 
f 75/125/20 77/127/21 102/156/21 
f 77/127/21 79/129/22 103/157/22 
f 79/158/22 81/132/23 104/159/23 
f 81/132/23 83/134/24 105/160/24 
f 83/134/24 85/136/25 106/161/25 
f 85/136/25 87/138/26 107/162/26 
f 87/138/26 89/140/27 108/163/27 
f 89/164/27 91/143/28 109/165/28 
f 91/143/28 92/144/4 110/166/4 
f 110/166/4 93/145/12 111/167/12 
f 93/145/12 94/146/13 112/168/13 
f 94/169/13 95/148/14 113/170/14 
f 95/148/14 96/149/15 114/171/15 
f 96/149/15 97/150/16 115/172/16 
f 97/150/16 98/151/17 116/173/17 
f 98/151/17 99/152/18 117/174/18 
f 99/175/18 100/154/19 118/176/19 
f 100/154/19 101/155/20 119/177/20 
f 101/155/20 102/156/21 120/178/21 
f 102/156/21 103/157/22 121/179/22 
f 103/180/22 104/159/23 122/181/23 
f 104/159/23 105/160/24 123/182/24 
f 105/160/24 106/161/25 124/183/25 
f 106/161/25 107/162/26 125/184/26 
f 107/162/26 108/163/27 126/185/27 
f 108/186/27 109/165/28 127/187/28 
f 109/165/28 110/166/4 128/188/4 
f 128/188/4 111/167/12 129/189/12 
f 111/167/12 112/168/13 130/190/13 
f 112/191/13 113/170/14 131/192/14 
f 113/170/14 114/171/15 132/193/15 
f 114/171/15 115/172/16 133/194/16 
f 115/172/16 116/173/17 134/195/17 
f 116/173/17 117/174/18 135/196/18 
f 117/197/18 118/176/19 136/198/19 
f 118/176/19 119/177/20 137/199/20 
f 119/177/20 120/178/21 138/200/21 
f 120/178/21 121/179/22 139/201/22 
f 121/202/22 122/181/23 140/203/23 
f 122/181/23 123/182/24 141/204/24 
f 123/182/24 124/183/25 142/205/25 
f 124/183/25 125/184/26 143/206/26 
f 125/184/26 126/185/27 144/207/27 
f 126/208/27 127/187/28 145/209/28 
f 127/187/28 128/188/4 146/210/4 
f 146/210/4 129/189/12 147/211/12 
f 129/189/12 130/190/13 148/212/13 
f 130/213/13 131/192/14 149/214/14 
f 131/192/14 132/193/15 150/215/15 
f 132/193/15 133/194/16 151/216/16 
f 133/194/16 134/195/17 152/217/17 
f 134/195/17 135/196/18 153/218/18 
f 135/219/18 136/198/19 154/220/19 
f 136/198/19 137/199/20 155/221/20 
f 137/199/20 138/200/21 156/222/21 
f 138/200/21 139/201/22 157/223/22 
f 139/224/22 140/203/23 158/225/23 
f 140/203/23 141/204/24 159/226/24 
f 141/204/24 142/205/25 160/227/25 
f 142/205/25 143/206/26 161/228/26 
f 143/206/26 144/207/27 162/229/27 
f 144/230/27 145/209/28 163/231/28 
f 145/209/28 146/210/4 164/232/4 
f 160/233/2 158/234/2 159/235/2 
f 3/3/1 21/236/1 1/1/1 
f 6/6/2 15/237/2 4/4/2 
f 1/9/3 21/238/3 7/7/3 
f 2/12/4 1/239/4 8/10/4 
f 12/15/5 23/240/5 10/13/5 
f 14/18/6 12/241/6 11/16/6 
f 8/8/3 7/7/3 15/19/3 
f 9/11/4 8/10/4 6/21/4 
f 11/14/5 10/13/5 16/23/5 
f 13/17/6 11/16/6 17/25/6 
f 3/3/1 2/2/1 19/27/1 
f 2/12/4 9/11/4 20/29/4 
f 3/33/6 22/35/6 7/31/6 
f 22/35/6 4/242/6 15/34/6 
f 14/18/6 13/17/6 22/35/6 
f 14/28/1 19/27/1 23/36/1 
f 24/40/2 18/243/2 17/38/2 
f 19/30/4 20/29/4 10/41/4 
f 20/29/4 24/244/4 16/43/4 
f 18/46/3 24/245/3 20/44/3 
f 13/49/7 20/246/2 9/47/7 
f 4/52/5 22/247/5 9/50/5 
f 27/55/8 52/248/8 25/53/8 
f 30/58/8 37/65/8 28/56/8 
f 33/61/9 34/249/9 31/59/9 
f 36/64/10 31/250/10 34/62/10 
f 38/66/8 51/81/8 37/65/8 
f 40/69/11 36/251/11 35/67/11 
f 43/72/10 48/252/10 41/70/10 
f 27/55/8 26/54/8 44/73/8 
f 47/77/11 43/253/11 42/75/11 
f 50/80/9 41/254/9 48/78/9 
f 45/74/8 44/73/8 51/81/8 
f 53/84/3 54/255/3 25/82/3 
f 54/87/11 47/77/11 26/85/11 
f 55/90/5 56/256/5 29/88/5 
f 56/93/9 33/61/9 30/91/9 
f 39/68/11 55/257/11 28/94/11 
f 33/61/9 32/60/9 38/96/9 
f 40/69/11 39/68/11 37/95/11 
f 32/60/9 50/80/9 45/98/9 
f 47/77/11 46/76/11 44/99/11 
f 49/79/9 53/258/9 52/100/9 
f 50/80/9 49/79/9 27/101/9 
f 46/76/11 40/69/11 51/97/11 
f 57/102/1 61/259/1 60/260/1 
f 60/260/1 90/261/1 88/262/1 
f 88/262/1 86/263/1 84/264/1 
f 60/260/1 88/262/1 84/264/1 
f 57/102/1 60/260/1 84/264/1 
f 84/264/1 82/265/1 80/266/1 
f 80/266/1 78/267/1 76/268/1 
f 84/264/1 80/266/1 76/268/1 
f 57/102/1 84/264/1 76/268/1 
f 76/268/1 74/269/1 72/270/1 
f 72/270/1 70/271/1 68/272/1 
f 76/268/1 72/270/1 68/272/1 
f 57/102/1 76/268/1 68/272/1 
f 68/272/1 66/273/1 58/103/1 
f 57/102/1 68/272/1 58/103/1 
f 62/107/12 92/144/4 60/105/4 
f 63/109/13 62/107/12 61/106/12 
f 64/112/14 63/147/13 57/110/13 
f 65/114/15 64/112/14 59/111/14 
f 67/116/16 65/114/15 58/113/15 
f 69/118/17 67/116/16 66/115/16 
f 71/120/18 69/118/17 68/117/17 
f 73/123/19 71/153/18 70/121/18 
f 75/125/20 73/123/19 72/122/19 
f 77/127/21 75/125/20 74/124/20 
f 79/129/22 77/127/21 76/126/21 
f 81/132/23 79/158/22 78/130/22 
f 83/134/24 81/132/23 80/131/23 
f 85/136/25 83/134/24 82/133/24 
f 87/138/26 85/136/25 84/135/25 
f 89/140/27 87/138/26 86/137/26 
f 91/143/28 89/164/27 88/141/27 
f 92/144/4 91/143/28 90/142/28 
f 93/145/12 110/166/4 92/144/4 
f 94/146/13 93/145/12 62/107/12 
f 95/148/14 94/169/13 63/147/13 
f 96/149/15 95/148/14 64/112/14 
f 97/150/16 96/149/15 65/114/15 
f 98/151/17 97/150/16 67/116/16 
f 99/152/18 98/151/17 69/118/17 
f 100/154/19 99/175/18 71/153/18 
f 101/155/20 100/154/19 73/123/19 
f 102/156/21 101/155/20 75/125/20 
f 103/157/22 102/156/21 77/127/21 
f 104/159/23 103/180/22 79/158/22 
f 105/160/24 104/159/23 81/132/23 
f 106/161/25 105/160/24 83/134/24 
f 107/162/26 106/161/25 85/136/25 
f 108/163/27 107/162/26 87/138/26 
f 109/165/28 108/186/27 89/164/27 
f 110/166/4 109/165/28 91/143/28 
f 111/167/12 128/188/4 110/166/4 
f 112/168/13 111/167/12 93/145/12 
f 113/170/14 112/191/13 94/169/13 
f 114/171/15 113/170/14 95/148/14 
f 115/172/16 114/171/15 96/149/15 
f 116/173/17 115/172/16 97/150/16 
f 117/174/18 116/173/17 98/151/17 
f 118/176/19 117/197/18 99/175/18 
f 119/177/20 118/176/19 100/154/19 
f 120/178/21 119/177/20 101/155/20 
f 121/179/22 120/178/21 102/156/21 
f 122/181/23 121/202/22 103/180/22 
f 123/182/24 122/181/23 104/159/23 
f 124/183/25 123/182/24 105/160/24 
f 125/184/26 124/183/25 106/161/25 
f 126/185/27 125/184/26 107/162/26 
f 127/187/28 126/208/27 108/186/27 
f 128/188/4 127/187/28 109/165/28 
f 129/189/12 146/210/4 128/188/4 
f 130/190/13 129/189/12 111/167/12 
f 131/192/14 130/213/13 112/191/13 
f 132/193/15 131/192/14 113/170/14 
f 133/194/16 132/193/15 114/171/15 
f 134/195/17 133/194/16 115/172/16 
f 135/196/18 134/195/17 116/173/17 
f 136/198/19 135/219/18 117/197/18 
f 137/199/20 136/198/19 118/176/19 
f 138/200/21 137/199/20 119/177/20 
f 139/201/22 138/200/21 120/178/21 
f 140/203/23 139/224/22 121/202/22 
f 141/204/24 140/203/23 122/181/23 
f 142/205/25 141/204/24 123/182/24 
f 143/206/26 142/205/25 124/183/25 
f 144/207/27 143/206/26 125/184/26 
f 145/209/28 144/230/27 126/208/27 
f 146/210/4 145/209/28 127/187/28 
f 147/211/12 164/232/4 146/210/4 
f 148/212/13 147/211/12 129/189/12 
f 149/214/14 148/274/13 130/213/13 
f 150/215/15 149/214/14 131/192/14 
f 151/216/16 150/215/15 132/193/15 
f 152/217/17 151/216/16 133/194/16 
f 153/218/18 152/217/17 134/195/17 
f 154/220/19 153/275/18 135/219/18 
f 155/221/20 154/220/19 136/198/19 
f 156/222/21 155/221/20 137/199/20 
f 157/223/22 156/222/21 138/200/21 
f 158/225/23 157/276/22 139/224/22 
f 159/226/24 158/225/23 140/203/23 
f 160/227/25 159/226/24 141/204/24 
f 161/228/26 160/227/25 142/205/25 
f 162/229/27 161/228/26 143/206/26 
f 163/231/28 162/277/27 144/230/27 
f 164/232/4 163/231/28 145/209/28 
f 160/233/2 161/278/2 162/279/2 
f 162/279/2 163/280/2 164/281/2 
f 164/281/2 147/282/2 148/283/2 
f 162/279/2 164/281/2 148/283/2 
f 160/233/2 162/279/2 148/283/2 
f 148/283/2 149/284/2 150/285/2 
f 150/285/2 151/286/2 152/287/2 
f 148/283/2 150/285/2 152/287/2 
f 160/233/2 148/283/2 152/287/2 
f 152/287/2 153/288/2 154/289/2 
f 154/289/2 155/290/2 156/291/2 
f 152/287/2 154/289/2 156/291/2 
f 160/233/2 152/287/2 156/291/2 
f 156/291/2 157/292/2 158/234/2 
f 160/233/2 156/291/2 158/234/2 
# 0 polygons - 302 triangles

#
# object piso
#

v  -7.5454 0.0000 17.9261
v  7.5454 0.0000 17.9261
v  7.5454 0.0000 -17.9261
v  -7.5454 -0.2329 17.9261
v  -7.5454 -0.2329 -17.9261
v  7.5454 -0.2329 -17.9261
v  7.5454 -0.2329 17.9261
v  -7.5454 0.0000 -17.9261
# 8 vertices

vn 0.0000 1.0000 -0.0000
vn 0.0000 -1.0000 -0.0000
vn 0.0000 0.0000 1.0000
vn 1.0000 0.0000 -0.0000
vn 0.0000 0.0000 -1.0000
vn -1.0000 0.0000 -0.0000
# 6 vertex normals

vt 0.7933 0.3452 0.0000
vt 0.7933 0.6789 0.0000
vt 0.0005 0.6789 0.0000
vt 0.0005 0.0005 0.0000
vt 0.7933 0.0005 0.0000
vt 0.7933 0.3342 0.0000
vt 0.0005 0.8900 0.0000
vt 0.0005 0.8849 0.0000
vt 0.3342 0.8849 0.0000
vt 0.0005 0.6859 0.0000
vt 0.0005 0.6808 0.0000
vt 0.7933 0.6808 0.0000
vt 0.3588 0.9989 0.0000
vt 0.3588 0.9937 0.0000
vt 0.6925 0.9937 0.0000
vt 0.0005 0.3413 0.0000
vt 0.0005 0.3361 0.0000
vt 0.7933 0.3361 0.0000
vt 0.0005 0.3452 0.0000
vt 0.0005 0.3342 0.0000
vt 0.3342 0.8900 0.0000
vt 0.7933 0.6859 0.0000
vt 0.6925 0.9989 0.0000
vt 0.7933 0.3413 0.0000
# 24 texture coords

o piso
g piso
usemtl 15___Default
s off
f 165/293/29 166/294/29 167/295/29 
f 168/296/30 169/297/30 170/298/30 
f 165/299/31 168/300/31 171/301/31 
f 166/302/32 171/303/32 170/304/32 
f 167/305/33 170/306/33 169/307/33 
f 172/308/34 169/309/34 168/310/34 
f 167/295/29 172/311/29 165/293/29 
f 170/298/30 171/312/30 168/296/30 
f 171/301/31 166/313/31 165/299/31 
f 170/304/32 167/314/32 166/302/32 
f 169/307/33 172/315/33 167/305/33 
f 168/310/34 165/316/34 172/308/34 
# 0 polygons - 12 triangles

