# 3ds Max Wavefront OBJ Exporter v0.99 - (c)2007 guruware
# File Created: 07.05.2025 23:08:34

mtllib Brazo_derechoFerb.mtl

#
# object BrazoDerecho001
#

v  3.8921 -0.1537 10.3618
v  3.8931 -0.1589 10.3657
v  3.8929 -0.1592 10.3618
v  3.9313 -0.1726 10.3195
v  3.9139 -0.1747 10.3340
v  3.9313 -0.1680 10.3309
v  3.9139 -0.1727 10.3472
v  3.9003 -0.1712 10.3364
v  3.8870 -0.1653 10.3388
v  3.9003 -0.1697 10.3470
v  3.9092 -0.1614 10.3569
v  3.9101 -0.1544 10.3570
v  3.9115 -0.1546 10.3527
v  3.9092 -0.1463 10.3571
v  3.9139 -0.1727 10.3194
v  3.9003 -0.1702 10.3194
v  3.8870 -0.1656 10.3194
v  3.8917 -0.1602 10.3572
v  3.8908 -0.1537 10.3565
v  3.9004 -0.1624 10.3570
v  3.9004 -0.1614 10.3618
v  3.9080 -0.1603 10.3618
v  3.9087 -0.1544 10.3618
v  3.8725 -0.1634 10.3335
v  3.8724 -0.1638 10.3194
v  3.8722 -0.1630 10.3050
v  3.8870 -0.1649 10.2992
v  3.8640 -0.1628 10.3404
v  4.0530 -0.1451 10.2987
v  4.0657 -0.1565 10.2948
v  4.0657 -0.1451 10.2995
v  4.0530 -0.1565 10.2940
v  4.0530 -0.1680 10.2987
v  4.1655 -0.1565 10.3033
v  4.0657 -0.1680 10.2995
v  4.2044 -0.1997 10.3192
v  4.2090 -0.1834 10.3418
v  4.2134 -0.1846 10.3524
v  4.2112 -0.1561 10.3506
v  4.2044 -0.1146 10.3192
v  4.2101 -0.1304 10.3418
v  4.2028 -0.1186 10.3192
v  4.2141 -0.1270 10.3524
v  4.2146 -0.1551 10.3588
v  4.1482 -0.2018 10.3193
v  4.1823 -0.1960 10.3192
v  4.1482 -0.1887 10.2967
v  4.1482 -0.1119 10.3193
v  4.1823 -0.1179 10.3192
v  4.1482 -0.1251 10.3418
v  4.1482 -0.1887 10.3418
v  4.1857 -0.1841 10.3406
v  4.1482 -0.1568 10.3511
v  4.1869 -0.1565 10.3491
v  4.1863 -0.1297 10.3406
v  4.1482 -0.1251 10.2967
v  4.1857 -0.1297 10.2980
v  4.1853 -0.1841 10.2980
v  4.1705 -0.1939 10.3192
v  4.1877 -0.1939 10.2551
v  4.1852 -0.1948 10.3194
v  3.8815 -0.1425 10.2981
v  3.8815 -0.1449 10.2919
v  3.8989 -0.1411 10.2922
v  3.8992 -0.1528 10.2886
v  3.8845 -0.1546 10.2883
v  4.0530 -0.1726 10.3102
v  4.0657 -0.1726 10.3110
v  3.8870 -0.1642 10.2919
v  3.9003 -0.1697 10.2925
v  3.9003 -0.1709 10.3021
v  4.0657 -0.1680 10.3224
v  4.0530 -0.1680 10.3216
v  4.0530 -0.1565 10.3264
v  4.0404 -0.1680 10.3224
v  3.9429 -0.1565 10.3024
v  3.9429 -0.1451 10.3071
v  3.9313 -0.1565 10.3033
v  3.9313 -0.1451 10.3080
v  3.9429 -0.1403 10.3186
v  3.9313 -0.1403 10.3195
v  3.9429 -0.1451 10.3300
v  3.9313 -0.1451 10.3309
v  3.9429 -0.1565 10.3348
v  3.8989 -0.1389 10.2993
v  3.8815 -0.1407 10.3194
v  3.8753 -0.1432 10.3050
v  4.0404 -0.1565 10.2948
v  4.0404 -0.1451 10.2995
v  4.0404 -0.1403 10.3110
v  4.0404 -0.1451 10.3224
v  3.9429 -0.1680 10.3300
v  4.0530 -0.1403 10.3102
v  4.0530 -0.1451 10.3216
v  3.9429 -0.1726 10.3186
v  4.0657 -0.1565 10.3272
v  4.0657 -0.1451 10.3224
v  4.0657 -0.1403 10.3110
v  3.9429 -0.1680 10.3071
v  3.9313 -0.1680 10.3080
v  3.9166 -0.1410 10.3363
v  3.8815 -0.1421 10.3403
v  3.8989 -0.1385 10.3395
v  3.8815 -0.1431 10.3468
v  3.9166 -0.1435 10.2945
v  3.9166 -0.1416 10.3026
v  3.9174 -0.1576 10.2909
v  3.9166 -0.1400 10.3194
v  3.8989 -0.1372 10.3194
v  3.9139 -0.1727 10.2951
v  3.9139 -0.1747 10.3051
v  3.8753 -0.1430 10.3328
v  3.8612 -0.1452 10.2981
v  3.8527 -0.1460 10.2932
v  3.8612 -0.1458 10.2928
v  3.8527 -0.1543 10.2898
v  3.8479 -0.1543 10.2900
v  3.8527 -0.1614 10.2932
v  3.8479 -0.1614 10.2934
v  3.8527 -0.1618 10.2980
v  3.8479 -0.1618 10.2980
v  3.8479 -0.1614 10.3037
v  3.8435 -0.1616 10.3036
v  3.8435 -0.1537 10.3057
v  3.8527 -0.1614 10.3038
v  3.8479 -0.1537 10.3058
v  3.8479 -0.1459 10.3030
v  3.8435 -0.1459 10.3028
v  3.8479 -0.1455 10.2981
v  3.8435 -0.1453 10.2981
v  3.8435 -0.1459 10.2934
v  3.8353 -0.1459 10.2936
v  3.8353 -0.1543 10.2902
v  3.8527 -0.1537 10.3059
v  3.8527 -0.1460 10.3031
v  3.8527 -0.1456 10.2981
v  3.8479 -0.1459 10.2934
v  3.8435 -0.1544 10.2900
v  3.8435 -0.1616 10.2934
v  3.8353 -0.1614 10.2936
v  3.8435 -0.1621 10.2980
v  3.8353 -0.1618 10.2980
v  3.8353 -0.1614 10.3034
v  3.8612 -0.1458 10.3035
v  3.8353 -0.1537 10.3055
v  3.8353 -0.1459 10.3026
v  3.8353 -0.1455 10.2981
v  3.8386 -0.1537 10.3111
v  3.8386 -0.1462 10.3132
v  3.8298 -0.1463 10.3133
v  3.8386 -0.1537 10.3277
v  3.8386 -0.1613 10.3257
v  3.8298 -0.1613 10.3255
v  3.8297 -0.1611 10.3350
v  3.8261 -0.1611 10.3351
v  3.8297 -0.1620 10.3404
v  3.8334 -0.1613 10.3349
v  3.8334 -0.1621 10.3404
v  3.9062 -0.1542 10.3897
v  3.9074 -0.1543 10.3878
v  3.9056 -0.1582 10.3897
v  3.8840 -0.1553 10.3489
v  3.8893 -0.1537 10.3521
v  3.8903 -0.1611 10.3530
v  3.8197 -0.1462 10.3456
v  3.8197 -0.1533 10.3471
v  3.8156 -0.1476 10.3445
v  3.9181 -0.1558 10.3472
v  3.9105 -0.1627 10.3525
v  3.8640 -0.1533 10.3489
v  3.8156 -0.1533 10.3457
v  3.8156 -0.1593 10.3445
v  3.8156 -0.1535 10.3404
v  3.8156 -0.1600 10.3404
v  3.8386 -0.1452 10.3194
v  3.8298 -0.1452 10.3194
v  3.8298 -0.1463 10.3255
v  3.8386 -0.1621 10.3194
v  3.8298 -0.1621 10.3194
v  3.8298 -0.1613 10.3133
v  3.8297 -0.1451 10.3404
v  3.8297 -0.1459 10.3459
v  3.8261 -0.1459 10.3458
v  3.8261 -0.1533 10.3473
v  3.8297 -0.1533 10.3474
v  3.8334 -0.1451 10.3404
v  3.8334 -0.1459 10.3460
v  3.8334 -0.1533 10.3476
v  3.9003 -0.1473 10.3881
v  3.8940 -0.1486 10.3878
v  3.9003 -0.1472 10.3809
v  3.8937 -0.1484 10.3808
v  3.8931 -0.1537 10.3808
v  3.8197 -0.1537 10.3338
v  3.8197 -0.1607 10.3352
v  3.8261 -0.1537 10.3336
v  3.8261 -0.1620 10.3404
v  3.8156 -0.1469 10.3404
v  3.8197 -0.1453 10.3404
v  3.8261 -0.1451 10.3404
v  3.8640 -0.1445 10.3404
v  3.8640 -0.1455 10.3473
v  3.8297 -0.1611 10.3459
v  3.8261 -0.1611 10.3458
v  3.8334 -0.1613 10.3460
v  3.9004 -0.1592 10.3900
v  3.9004 -0.1543 10.3900
v  3.9057 -0.1495 10.3897
v  3.9068 -0.1487 10.3878
v  3.8870 -0.1642 10.3468
v  3.9004 -0.1635 10.3528
v  3.8297 -0.1537 10.3335
v  3.8297 -0.1459 10.3350
v  3.8261 -0.1459 10.3351
v  3.8334 -0.1537 10.3334
v  3.8334 -0.1459 10.3349
v  3.9003 -0.1486 10.3900
v  3.8951 -0.1495 10.3897
v  3.8934 -0.1537 10.3878
v  3.8940 -0.1582 10.3878
v  3.8938 -0.1583 10.3808
v  3.9004 -0.1604 10.3809
v  3.8156 -0.1537 10.3353
v  3.8156 -0.1593 10.3365
v  3.8197 -0.1616 10.3404
v  3.8197 -0.1607 10.3456
v  3.8902 -0.1451 10.3510
v  3.9070 -0.1484 10.3808
v  3.9077 -0.1543 10.3808
v  3.9068 -0.1590 10.3878
v  3.9004 -0.1603 10.3881
v  3.8952 -0.1574 10.3897
v  3.8947 -0.1537 10.3897
v  3.8156 -0.1476 10.3365
v  3.8197 -0.1462 10.3352
v  3.8640 -0.1455 10.3334
v  3.9070 -0.1593 10.3808
v  3.9106 -0.1451 10.3528
v  3.9003 -0.1438 10.3519
v  3.9003 -0.1451 10.3564
v  3.8916 -0.1463 10.3557
v  3.8434 -0.1614 10.3130
v  3.8386 -0.1613 10.3132
v  3.8434 -0.1623 10.3194
v  3.8434 -0.1537 10.3109
v  3.8386 -0.1462 10.3257
v  3.8298 -0.1537 10.3275
v  3.8434 -0.1537 10.3280
v  3.8434 -0.1614 10.3258
v  3.8298 -0.1537 10.3113
v  3.8640 -0.1455 10.2927
v  3.8640 -0.1449 10.2981
v  3.8640 -0.1630 10.3194
v  3.8640 -0.1620 10.3105
v  3.8607 -0.1618 10.3122
v  3.8127 -0.1610 10.3253
v  3.8127 -0.1618 10.3194
v  3.8088 -0.1596 10.3242
v  3.8640 -0.1544 10.2891
v  3.8640 -0.1620 10.2927
v  3.8612 -0.1544 10.2894
v  3.8612 -0.1617 10.2928
v  3.8610 -0.1456 10.3472
v  3.8640 -0.1537 10.3321
v  3.8610 -0.1456 10.3338
v  3.8640 -0.1620 10.3473
v  3.8610 -0.1618 10.3472
v  3.8080 -0.1537 10.3131
v  3.8076 -0.1537 10.3194
v  3.8088 -0.1596 10.3147
v  3.8088 -0.1603 10.3194
v  3.8640 -0.1620 10.3046
v  3.8640 -0.1537 10.3074
v  3.8640 -0.1537 10.3088
v  3.8080 -0.1537 10.3258
v  3.8120 -0.1537 10.3272
v  3.8216 -0.1537 10.3274
v  3.8640 -0.1537 10.3295
v  3.8080 -0.1470 10.3194
v  3.8080 -0.1477 10.3147
v  3.8120 -0.1455 10.3194
v  3.8120 -0.1465 10.3135
v  3.8120 -0.1537 10.3116
v  3.8216 -0.1537 10.3114
v  3.8127 -0.1610 10.3135
v  3.8216 -0.1611 10.3134
v  3.8216 -0.1620 10.3194
v  3.8080 -0.1477 10.3242
v  3.8120 -0.1465 10.3253
v  3.8640 -0.1455 10.3043
v  3.8640 -0.1624 10.2981
v  3.8610 -0.1533 10.3487
v  3.8216 -0.1611 10.3254
v  3.8612 -0.1537 10.3064
v  3.8612 -0.1621 10.2981
v  3.8612 -0.1617 10.3043
v  3.8610 -0.1446 10.3404
v  3.8640 -0.1444 10.3194
v  3.8753 -0.1417 10.3194
v  3.8640 -0.1455 10.3275
v  3.8640 -0.1620 10.3334
v  3.8610 -0.1618 10.3338
v  3.8506 -0.1459 10.3467
v  3.8506 -0.1533 10.3483
v  3.8459 -0.1533 10.3482
v  3.8506 -0.1614 10.3342
v  3.8506 -0.1537 10.3328
v  3.8459 -0.1537 10.3329
v  3.8412 -0.1533 10.3479
v  3.8412 -0.1614 10.3463
v  3.8412 -0.1537 10.3332
v  3.8412 -0.1459 10.3346
v  3.8607 -0.1456 10.3266
v  3.8607 -0.1537 10.3290
v  3.8607 -0.1537 10.3099
v  3.8506 -0.1614 10.3467
v  3.8506 -0.1623 10.3404
v  3.8459 -0.1614 10.3466
v  3.8459 -0.1623 10.3404
v  3.8459 -0.1614 10.3344
v  3.8412 -0.1614 10.3346
v  3.8640 -0.1620 10.3275
v  3.8640 -0.1455 10.3105
v  3.8610 -0.1628 10.3404
v  3.8610 -0.1537 10.3324
v  3.8506 -0.1459 10.3342
v  3.8506 -0.1449 10.3404
v  3.8412 -0.1459 10.3463
v  3.8412 -0.1621 10.3404
v  3.8607 -0.1456 10.3122
v  3.8607 -0.1445 10.3194
v  3.8607 -0.1618 10.3266
v  3.8607 -0.1628 10.3194
v  3.8997 -0.1399 10.3470
v  4.1003 -0.1242 10.3392
v  4.1003 -0.1568 10.3474
v  4.1868 -0.1568 10.3193
v  4.1003 -0.1895 10.3392
v  4.1003 -0.1108 10.3193
v  4.1003 -0.1203 10.3416
v  4.1003 -0.1568 10.3508
v  4.1003 -0.1568 10.2877
v  4.1003 -0.1895 10.2993
v  4.1003 -0.1933 10.2969
v  4.1003 -0.2028 10.3193
v  4.1003 -0.2084 10.3193
v  4.1003 -0.1052 10.3193
v  4.1003 -0.1242 10.2993
v  4.1003 -0.1933 10.3416
v  4.1003 -0.1203 10.2969
v  4.1482 -0.1568 10.2874
v  3.9080 -0.1474 10.3618
v  3.9003 -0.1462 10.3618
v  3.8928 -0.1474 10.3617
v  3.8930 -0.1477 10.3656
v  3.9077 -0.1477 10.3657
v  3.9003 -0.1465 10.3656
v  3.8930 -0.1537 10.3773
v  3.8936 -0.1483 10.3773
v  3.9003 -0.1470 10.3773
v  3.9004 -0.1607 10.3773
v  3.8937 -0.1585 10.3773
v  3.9078 -0.1543 10.3773
v  3.9072 -0.1595 10.3773
v  3.9072 -0.1483 10.3773
v  3.8929 -0.1537 10.3743
v  3.8935 -0.1480 10.3742
v  3.9003 -0.1469 10.3743
v  3.9004 -0.1607 10.3743
v  3.8936 -0.1586 10.3743
v  3.9080 -0.1543 10.3743
v  3.9073 -0.1596 10.3743
v  3.9073 -0.1481 10.3743
v  3.8459 -0.1449 10.3404
v  3.8459 -0.1459 10.3466
v  3.8459 -0.1459 10.3344
v  3.9004 -0.1611 10.3656
v  3.9077 -0.1600 10.3656
v  3.9084 -0.1544 10.3656
v  3.8412 -0.1451 10.3404
v  3.8924 -0.1537 10.3656
v  3.8486 -0.1614 10.3129
v  3.8486 -0.1623 10.3194
v  3.8486 -0.1460 10.3259
v  3.8434 -0.1459 10.3258
v  3.8486 -0.1451 10.3194
v  3.8486 -0.1537 10.3281
v  3.8486 -0.1614 10.3259
v  3.8434 -0.1459 10.3130
v  3.8434 -0.1449 10.3194
v  3.8486 -0.1537 10.3108
v  3.8486 -0.1460 10.3129
v  3.9313 -0.1565 10.3357
v  4.1655 -0.1726 10.3195
v  4.1655 -0.1680 10.3080
v  4.1655 -0.1680 10.3309
v  4.1655 -0.1565 10.3357
v  4.1655 -0.1451 10.3309
v  4.1655 -0.1403 10.3195
v  4.1655 -0.1451 10.3080
v  4.2028 -0.1957 10.3192
v  4.2091 -0.1304 10.2967
v  4.1869 -0.1565 10.2893
v  4.2112 -0.1561 10.2878
v  4.2083 -0.1834 10.2967
v  3.8259 -0.1463 10.3255
v  3.8259 -0.1452 10.3194
v  3.8259 -0.1463 10.3134
v  3.9143 -0.1425 10.3472
v  3.8258 -0.1611 10.3134
v  3.8258 -0.1620 10.3194
v  3.8259 -0.1537 10.3114
v  3.8258 -0.1611 10.3255
v  3.8259 -0.1537 10.3275
v  4.0404 -0.1726 10.3110
v  4.0404 -0.1565 10.3272
v  4.0404 -0.1680 10.2995
v  3.8216 -0.1453 10.3194
v  3.8216 -0.1463 10.3134
v  3.8216 -0.1463 10.3254
v  3.8280 -0.1543 10.2905
v  3.8317 -0.1460 10.2937
v  3.8280 -0.1462 10.2938
v  3.8317 -0.1456 10.2981
v  3.8317 -0.1543 10.2903
v  3.8179 -0.1473 10.2981
v  3.8179 -0.1540 10.2981
v  3.8179 -0.1477 10.2952
v  3.8179 -0.1542 10.2924
v  3.8219 -0.1543 10.2906
v  3.8219 -0.1463 10.2940
v  3.8280 -0.1456 10.2981
v  3.8179 -0.1597 10.2952
v  3.8219 -0.1611 10.2940
v  3.8219 -0.1617 10.2980
v  3.8179 -0.1602 10.2980
v  3.8179 -0.1537 10.3036
v  3.8179 -0.1477 10.3012
v  3.8219 -0.1537 10.3051
v  3.8219 -0.1463 10.3023
v  3.8219 -0.1458 10.2981
v  3.8280 -0.1613 10.2938
v  3.8280 -0.1617 10.2980
v  3.8280 -0.1613 10.3032
v  3.8317 -0.1617 10.2980
v  3.8317 -0.1614 10.2937
v  3.8317 -0.1614 10.3033
v  3.8219 -0.1611 10.3030
v  3.8179 -0.1597 10.3019
v  3.8317 -0.1537 10.3054
v  3.8280 -0.1537 10.3052
v  3.8317 -0.1460 10.3025
v  3.8280 -0.1462 10.3024
v  4.1003 -0.1568 10.2911
# 454 vertices

vn 0.9860 0.0120 -0.1662
vn 0.7566 0.6497 -0.0742
vn 0.7347 0.6452 -0.2095
vn -0.1292 0.9916 -0.0090
vn -0.0295 0.9977 -0.0611
vn -0.3308 0.7059 -0.6263
vn -0.2663 0.7460 -0.6104
vn 0.3072 0.9502 -0.0527
vn 0.2558 0.9642 -0.0695
vn 0.2234 0.8580 -0.4625
vn -0.6490 0.6722 -0.3564
vn -0.9546 0.0118 -0.2977
vn -0.8322 -0.0153 -0.5542
vn -0.6581 -0.6592 -0.3638
vn 0.0887 0.9961 -0.0017
vn 0.2809 0.9597 0.0053
vn 0.2487 0.9685 0.0100
vn 0.7039 0.6250 -0.3374
vn 0.9602 -0.0121 -0.2789
vn 0.0684 0.9678 -0.2424
vn 0.0723 0.9869 -0.1439
vn -0.6923 0.6876 -0.2188
vn -0.9847 0.0086 -0.1738
vn 0.1373 0.9902 0.0256
vn 0.1259 0.9920 0.0065
vn 0.1244 0.9922 -0.0030
vn 0.2562 0.9649 0.0578
vn 0.0834 0.9965 -0.0079
vn 0.0004 -0.6994 0.7147
vn -0.0740 0.0000 0.9973
vn -0.0526 -0.7051 0.7072
vn 0.0005 0.0000 1.0000
vn 0.0004 0.6994 0.7147
vn -0.0851 0.0000 0.9964
vn -0.0526 0.7051 0.7072
vn 0.9574 0.2887 -0.0060
vn 0.6453 0.4071 -0.6464
vn 0.9333 0.1090 -0.3423
vn 0.6506 -0.0130 -0.7593
vn 0.9576 -0.2880 -0.0103
vn 0.6903 -0.3683 -0.6228
vn 0.5614 -0.8275 -0.0116
vn 0.9511 -0.0677 -0.3013
vn 0.9346 -0.0109 -0.3555
vn -0.1367 0.9906 -0.0001
vn -0.0916 0.9958 0.0006
vn -0.0777 0.6124 0.7867
vn -0.1410 -0.9900 -0.0001
vn -0.0988 -0.9951 0.0009
vn -0.0785 -0.6134 -0.7859
vn -0.0775 0.6125 -0.7867
vn -0.0381 0.6297 -0.7759
vn -0.0274 0.0003 -0.9996
vn 0.0018 -0.0050 -1.0000
vn -0.0376 -0.6383 -0.7689
vn -0.0788 -0.6132 0.7860
vn -0.0385 -0.6376 0.7694
vn -0.0385 0.6292 0.7763
vn 0.9021 -0.4316 -0.0003
vn 0.7827 -0.4287 0.4513
vn -0.4769 -0.8789 -0.0071
vn 0.1555 -0.9679 0.1976
vn 0.0844 -0.6819 0.7266
vn -0.0233 -0.7240 0.6894
vn -0.0534 -0.0551 0.9971
vn 0.0203 0.0235 0.9995
vn 0.0000 0.9999 0.0156
vn -0.0004 1.0000 0.0027
vn 0.1483 0.7400 0.6560
vn 0.1613 0.7282 0.6661
vn 0.3108 0.9484 0.0624
vn 0.0524 0.7077 -0.7045
vn -0.0004 0.7149 -0.6992
vn -0.0005 0.0000 -1.0000
vn -0.0503 0.7073 -0.7051
vn 0.0778 0.0000 0.9970
vn 0.0551 -0.7063 0.7057
vn -0.3637 0.0031 0.9315
vn -0.2491 -0.7409 0.6237
vn 0.0000 -1.0000 -0.0000
vn -0.0978 -0.9952 -0.0055
vn -0.0551 -0.7063 -0.7057
vn -0.3121 -0.7142 -0.6265
vn -0.0778 0.0000 -0.9970
vn 0.0102 -0.9826 0.1852
vn 0.1904 -0.9817 0.0093
vn 0.1870 -0.9810 0.0510
vn 0.0710 0.0000 0.9975
vn 0.0504 -0.7057 0.7068
vn 0.0002 -1.0000 0.0016
vn -0.0503 -0.7073 -0.7052
vn -0.0551 0.7063 -0.7057
vn 0.0000 -0.9999 0.0156
vn -0.0004 -0.7149 -0.6992
vn 0.0000 1.0000 -0.0000
vn 0.0744 0.0000 -0.9972
vn 0.0524 -0.7077 -0.7045
vn -0.0004 -1.0000 0.0027
vn 0.0551 0.7063 0.7057
vn -0.2702 0.7279 0.6302
vn -0.2174 -0.9637 -0.1550
vn 0.1748 -0.9785 -0.1096
vn 0.0177 -0.9923 -0.1222
vn 0.1952 -0.7275 -0.6578
vn -0.3772 -0.6420 0.6675
vn -0.2071 -0.9604 0.1866
vn -0.4193 0.0547 0.9062
vn -0.0865 -0.9961 0.0148
vn 0.0186 -0.9997 0.0126
vn -0.2158 0.7604 0.6126
vn -0.0267 0.9962 0.0832
vn 0.2012 -0.9791 -0.0288
vn 0.0858 -0.9963 0.0018
vn 0.0318 -0.7964 0.6040
vn 0.0852 -0.7888 0.6088
vn 0.0456 0.0276 0.9986
vn 0.0151 0.0279 0.9995
vn 0.0308 0.8168 0.5760
vn -0.0039 0.8196 0.5730
vn 0.0097 0.9999 0.0073
vn -0.0210 0.9997 0.0082
vn 0.0002 0.7658 -0.6431
vn 0.0123 0.7718 -0.6358
vn 0.0253 -0.0438 -0.9987
vn 0.0291 0.7694 -0.6381
vn 0.0192 -0.0448 -0.9988
vn -0.0007 -0.7861 -0.6181
vn 0.0105 -0.7908 -0.6120
vn -0.0208 -0.9998 0.0022
vn -0.0065 -1.0000 0.0013
vn 0.0030 -0.7982 0.6024
vn 0.0301 -0.7968 0.6035
vn 0.0307 0.0281 0.9991
vn 0.0384 -0.0448 -0.9983
vn 0.0281 -0.7900 -0.6125
vn 0.0099 -1.0000 0.0014
vn -0.0028 -0.7991 0.6011
vn 0.0102 0.0283 0.9995
vn 0.0026 0.8185 0.5745
vn 0.0300 0.8175 0.5751
vn -0.0065 0.9999 0.0078
vn 0.0203 0.9998 0.0084
vn 0.0308 0.7672 -0.6406
vn 0.1673 -0.7965 -0.5810
vn 0.0292 -0.0438 -0.9986
vn 0.0302 -0.7871 -0.6161
vn 0.0201 -0.9998 0.0014
vn 0.0339 -0.0006 0.9994
vn 0.0301 -0.7451 0.6662
vn 0.0179 -0.7432 0.6688
vn 0.0339 0.0006 -0.9994
vn 0.0301 0.7519 -0.6586
vn 0.0183 0.7499 -0.6613
vn 0.0292 0.7228 0.6905
vn 0.0430 0.7256 0.6867
vn 0.0173 0.9998 0.0015
vn 0.0297 0.7228 0.6904
vn 0.0177 0.9998 0.0018
vn -0.5170 0.0035 -0.8560
vn -0.9541 0.0096 -0.2994
vn -0.4161 0.3902 -0.8213
vn 0.3013 0.0527 -0.9521
vn 0.7788 -0.0716 -0.6232
vn 0.5978 0.5607 -0.5729
vn 0.2173 -0.7074 -0.6726
vn 0.1796 -0.0053 -0.9837
vn 0.7504 -0.4672 -0.4676
vn -0.6779 -0.0119 -0.7350
vn -0.5057 0.4781 -0.7181
vn 0.0291 -0.0141 -0.9995
vn 0.7785 -0.0008 -0.6276
vn 0.7486 0.4722 -0.4654
vn 1.0000 0.0000 -0.0000
vn 0.8001 0.5998 0.0018
vn 0.0197 -0.9998 0.0002
vn 0.0127 -0.9999 0.0003
vn 0.0179 -0.7434 -0.6686
vn 0.0197 0.9998 0.0002
vn 0.0129 0.9999 0.0002
vn 0.0182 0.7499 0.6613
vn 0.0002 -1.0000 0.0017
vn 0.0223 -0.7216 -0.6920
vn 0.0360 -0.7233 -0.6896
vn 0.0388 -0.0063 -0.9992
vn 0.0374 -0.0076 -0.9993
vn 0.0001 -1.0000 0.0021
vn 0.0226 -0.7233 -0.6901
vn 0.0384 -0.0086 -0.9992
vn -0.0017 -0.9572 -0.2894
vn 0.7025 -0.6406 -0.3101
vn -0.0022 -0.9993 -0.0374
vn 0.7304 -0.6812 -0.0502
vn 0.9990 0.0178 -0.0398
vn 0.1870 0.0061 0.9823
vn 0.2272 0.7059 0.6709
vn 0.0291 0.0048 0.9996
vn 0.0377 0.9993 0.0012
vn 0.7958 -0.6055 0.0022
vn 0.2044 -0.9789 0.0015
vn 0.0213 -0.9998 0.0014
vn 0.1096 -0.9939 -0.0135
vn 0.0684 -0.7136 -0.6972
vn 0.0345 0.7235 -0.6895
vn 0.0482 0.7255 -0.6865
vn 0.0353 0.7244 -0.6885
vn 0.0395 0.5315 -0.8461
vn 0.0004 0.0006 -1.0000
vn -0.4238 -0.3846 -0.8201
vn -0.7049 -0.6387 -0.3084
vn 0.3364 0.7997 -0.4974
vn 0.0527 0.8497 -0.5246
vn 0.0272 0.0038 0.9996
vn 0.0173 -0.7136 0.7003
vn 0.0312 -0.7161 0.6973
vn 0.0280 0.0030 0.9996
vn 0.0175 -0.7145 0.6994
vn -0.0017 -0.5196 -0.8544
vn 0.4210 -0.3847 -0.8215
vn 0.9542 0.0168 -0.2986
vn 0.7370 0.6072 -0.2968
vn 0.7628 0.6450 -0.0457
vn 0.0702 0.9969 -0.0353
vn 0.7878 0.0048 0.6159
vn 0.7556 0.4720 0.4542
vn 0.2111 0.9775 0.0013
vn 0.2224 0.7082 -0.6700
vn 0.4316 -0.6067 -0.6676
vn -0.7327 -0.6787 -0.0500
vn -0.9992 0.0092 -0.0400
vn -0.6956 0.6484 -0.3094
vn 0.0646 0.9562 -0.2854
vn 0.4424 0.3705 -0.8167
vn 0.5194 0.0106 -0.8545
vn 0.7559 -0.4618 0.4641
vn 0.2219 -0.6981 0.6808
vn 0.4222 -0.8393 0.3424
vn -0.7221 0.6900 -0.0500
vn -0.5834 -0.6017 -0.5455
vn 0.0353 -0.8842 -0.4658
vn 0.0117 -0.9699 -0.2433
vn 0.6691 -0.6690 -0.3237
vn 0.0252 0.7526 0.6579
vn 0.0308 0.7522 0.6583
vn 0.0119 0.9999 0.0002
vn 0.0346 -0.0006 0.9994
vn 0.0306 -0.7456 -0.6656
vn 0.0189 0.0001 -0.9998
vn 0.0346 0.0006 -0.9994
vn 0.0258 0.7524 -0.6582
vn 0.0187 -0.0000 0.9998
vn 0.1099 -0.7919 0.6006
vn 0.1473 -0.9890 0.0149
vn 0.0908 0.9959 -0.0033
vn 0.4755 0.8249 0.3057
vn 0.1965 0.7921 0.5778
vn 0.1957 0.7408 -0.6426
vn 0.1873 0.9823 0.0006
vn 0.7057 0.5454 -0.4522
vn 0.0663 0.0311 0.9973
vn 0.1044 0.8134 0.5723
vn 0.0693 0.0269 0.9972
vn 0.0860 0.8096 0.5807
vn 0.0604 -0.7258 -0.6853
vn 0.7757 -0.0000 0.6311
vn 0.0841 -0.7160 0.6931
vn 0.0669 0.7182 -0.6926
vn 0.0621 0.7236 -0.6874
vn 0.7700 0.0410 0.6367
vn 0.9983 0.0576 0.0001
vn 0.7103 0.5449 0.4456
vn 0.7523 0.6588 -0.0004
vn 0.3747 0.8808 -0.2895
vn 0.8759 -0.0058 -0.4825
vn 0.8427 -0.0000 0.5384
vn 0.7639 0.0406 -0.6441
vn 0.1819 0.0095 -0.9833
vn 0.0184 0.0002 -0.9998
vn 0.8098 -0.0000 -0.5867
vn 0.7804 -0.6253 -0.0005
vn 0.7431 -0.4927 0.4528
vn 0.1874 -0.9823 0.0007
vn 0.2053 -0.7273 0.6549
vn 0.1911 0.0099 0.9815
vn 0.0184 0.0002 0.9998
vn 0.2004 0.7389 0.6433
vn 0.0186 0.7490 0.6623
vn 0.0133 0.9999 0.0002
vn 0.7386 -0.4936 -0.4591
vn 0.2001 -0.7295 -0.6541
vn 0.4412 -0.8504 -0.2868
vn 0.1238 0.9922 0.0111
vn 0.0497 -0.0098 -0.9987
vn 0.0186 0.7491 -0.6622
vn 0.1947 -0.0310 -0.9804
vn 0.0855 0.9963 0.0068
vn 0.1164 0.7624 -0.6366
vn 0.0474 -0.9989 0.0017
vn 0.1496 -0.9887 -0.0038
vn 0.2054 -0.9787 0.0036
vn 0.4488 -0.8314 -0.3277
vn 0.3929 0.8560 0.3360
vn 0.0857 0.7212 0.6874
vn 0.0322 -0.7266 -0.6863
vn 0.0359 -0.0101 -0.9993
vn 0.0431 -0.0102 -0.9990
vn 0.0357 0.7195 0.6936
vn 0.0316 0.0010 0.9995
vn 0.0412 0.0010 0.9992
vn 0.0478 -0.0101 -0.9988
vn 0.0438 0.7263 -0.6860
vn 0.0407 0.0014 0.9992
vn 0.0349 -0.7153 0.6979
vn 0.1377 -0.7686 -0.6248
vn 0.1318 -0.0000 -0.9913
vn 0.2208 -0.0000 0.9753
vn 0.0362 0.7242 -0.6886
vn 0.0197 0.9998 0.0022
vn 0.0343 0.7276 -0.6852
vn 0.0112 0.9999 0.0023
vn 0.0355 0.7240 0.6889
vn 0.0413 0.7242 0.6884
vn 0.4144 0.8533 -0.3165
vn 0.5126 -0.7996 0.3128
vn 0.0446 0.9990 0.0007
vn 0.0699 0.0002 0.9976
vn 0.0323 -0.7139 0.6995
vn 0.0136 -0.9999 0.0024
vn 0.0378 -0.7251 -0.6876
vn 0.0224 0.9997 0.0023
vn 0.1979 -0.7864 0.5851
vn 0.0512 -0.9987 0.0002
vn 0.1371 0.7742 -0.6179
vn 0.0509 0.9987 0.0002
vn 0.0122 -0.9192 -0.3935
vn 0.8903 0.2736 0.3641
vn 0.8541 0.0000 0.5201
vn 1.0000 -0.0000 0.0000
vn 0.8903 -0.2736 0.3641
vn 0.9388 0.3446 0.0000
vn 0.6096 -0.4739 -0.6355
vn 0.6525 -0.0000 -0.7578
vn 0.6525 -0.0000 0.7578
vn 0.8903 -0.2736 -0.3641
vn 0.6096 0.4739 0.6355
vn 0.9388 -0.3446 0.0000
vn 0.5483 0.8363 -0.0000
vn 0.5483 -0.8363 -0.0000
vn 0.8903 0.2736 -0.3641
vn 0.6096 0.4739 -0.6355
vn 0.6096 -0.4739 0.6355
vn -0.0274 0.0002 0.9996
vn -0.7047 -0.6741 -0.2214
vn -0.0021 -0.9897 -0.1433
vn 0.7081 -0.6788 -0.1946
vn 0.7245 -0.6845 -0.0817
vn -0.7269 -0.6819 -0.0814
vn -0.0022 -0.9981 -0.0608
vn 0.9988 0.0177 -0.0449
vn 0.7292 -0.6820 -0.0567
vn -0.0022 -0.9991 -0.0421
vn 0.0705 0.9967 -0.0395
vn 0.7616 0.6460 -0.0519
vn -0.9989 0.0092 -0.0452
vn -0.7205 0.6911 -0.0566
vn -0.7316 -0.6794 -0.0567
vn 0.9986 0.0176 -0.0495
vn 0.7279 -0.6829 -0.0618
vn -0.0022 -0.9989 -0.0460
vn 0.0709 0.9965 -0.0432
vn 0.7602 0.6472 -0.0562
vn -0.9987 0.0092 -0.0498
vn -0.7187 0.6927 -0.0614
vn -0.7302 -0.6804 -0.0617
vn 0.0115 -0.9999 0.0026
vn 0.0342 -0.7283 -0.6844
vn 0.0357 -0.7168 0.6963
vn 0.0717 0.9958 -0.0568
vn -0.7140 0.6954 -0.0813
vn -0.9979 0.0091 -0.0646
vn 0.0135 -0.9999 0.0026
vn 0.9978 0.0172 -0.0641
vn 0.0357 0.7545 0.6553
vn 0.0183 0.9998 0.0002
vn 0.0356 -0.7484 -0.6623
vn 0.0252 -0.7465 -0.6649
vn 0.0183 -0.9998 0.0002
vn 0.0451 -0.0000 -0.9990
vn 0.0357 0.7547 -0.6551
vn 0.0259 -0.7459 0.6655
vn 0.0121 -0.9999 0.0002
vn 0.0451 -0.0000 0.9990
vn 0.0356 -0.7482 0.6625
vn -0.4166 0.0051 -0.9091
vn 0.0018 0.9998 -0.0207
vn -0.0594 0.7164 0.6952
vn 0.0611 0.6956 -0.7158
vn 0.0851 0.0000 -0.9964
vn 0.0611 -0.6956 -0.7158
vn 0.0018 -0.9998 -0.0207
vn -0.0594 -0.7164 0.6952
vn 0.5867 0.8098 -0.0073
vn 0.6638 -0.3958 0.6346
vn 0.0031 -0.0049 1.0000
vn 0.6618 -0.0099 0.7496
vn 0.6264 0.4255 0.6531
vn 0.0179 -0.7429 -0.6692
vn 0.0127 -0.9999 0.0002
vn 0.0179 -0.7428 0.6693
vn -0.4919 -0.6966 -0.5223
vn 0.0183 0.7494 0.6618
vn 0.0130 0.9999 0.0002
vn 0.0188 0.0000 0.9998
vn 0.0181 0.7495 -0.6618
vn 0.0187 0.0002 -0.9998
vn 0.0002 1.0000 0.0016
vn -0.0712 0.0000 -0.9975
vn 0.0504 0.7057 0.7068
vn 0.0126 -0.9999 0.0002
vn 0.0176 -0.7422 0.6699
vn 0.0176 -0.7424 -0.6698
vn 0.0309 0.0283 0.9991
vn 0.0330 -0.7968 0.6034
vn 0.0305 -0.7975 0.6026
vn 0.0220 -0.9998 0.0014
vn 0.0329 0.0283 0.9991
vn 0.7983 -0.6022 0.0034
vn 0.7652 -0.5151 0.3861
vn 0.7789 0.0155 0.6269
vn 0.2164 0.0290 0.9759
vn 0.2141 -0.7780 0.5906
vn 0.0205 -0.9998 0.0015
vn 0.7675 0.5290 0.3620
vn 0.2142 0.7979 0.5635
vn 0.1852 0.9826 0.0102
vn 0.8035 0.5952 0.0095
vn 0.7664 -0.0389 -0.6412
vn 0.7571 -0.5142 -0.4031
vn 0.1839 -0.0462 -0.9819
vn 0.2068 -0.7721 -0.6009
vn 0.1863 -0.9825 0.0021
vn 0.0305 0.8185 0.5737
vn 0.0207 0.9997 0.0090
vn 0.0316 0.7681 -0.6396
vn 0.0222 0.9997 0.0087
vn 0.0329 0.8177 0.5747
vn 0.0340 0.7674 -0.6403
vn 0.2056 0.7542 -0.6236
vn 0.7497 0.5054 -0.4272
vn 0.0316 -0.0443 -0.9985
vn 0.0295 -0.0447 -0.9986
vn 0.0331 -0.7872 -0.6158
vn 0.0306 -0.7879 -0.6150
vn 0.8541 0.0000 -0.5201
# 453 vertex normals

vt 0.2477 0.1258 0.0000
vt 0.2457 0.1184 0.0000
vt 0.2462 0.1257 0.0000
vt 0.2375 0.1550 0.0000
vt 0.2558 0.1767 0.0000
vt 0.2540 0.1549 0.0000
vt 0.2694 0.1775 0.0000
vt 0.2592 0.1923 0.0000
vt 0.2639 0.2120 0.0000
vt 0.2714 0.1916 0.0000
vt 0.2154 0.1350 0.0000
vt 0.2138 0.1348 0.0000
vt 0.2110 0.1429 0.0000
vt 0.2154 0.1346 0.0000
vt 0.2387 0.1767 0.0000
vt 0.2392 0.1934 0.0000
vt 0.2392 0.2125 0.0000
vt 0.2485 0.1343 0.0000
vt 0.2502 0.1357 0.0000
vt 0.2321 0.1347 0.0000
vt 0.2321 0.1257 0.0000
vt 0.2177 0.1257 0.0000
vt 0.2163 0.1257 0.0000
vt 0.2571 0.2312 0.0000
vt 0.2390 0.2313 0.0000
vt 0.2206 0.2312 0.0000
vt 0.2141 0.2119 0.0000
vt 0.2659 0.2423 0.0000
vt 0.1671 0.2333 0.0000
vt 0.1509 0.2720 0.0000
vt 0.1671 0.2720 0.0000
vt 0.1509 0.2333 0.0000
vt 0.1346 0.2333 0.0000
vt 0.1509 0.4014 0.0000
vt 0.1346 0.2720 0.0000
vt 0.8203 0.6483 0.0000
vt 0.7945 0.6305 0.0000
vt 0.7817 0.6322 0.0000
vt 0.7844 0.6005 0.0000
vt 0.8199 0.5551 0.0000
vt 0.7938 0.5719 0.0000
vt 0.8200 0.5598 0.0000
vt 0.7812 0.5682 0.0000
vt 0.7747 0.5994 0.0000
vt 0.5731 0.5559 0.0000
vt 0.5232 0.5634 0.0000
vt 0.5752 0.5938 0.0000
vt 0.5737 0.7278 0.0000
vt 0.5755 0.6899 0.0000
vt 0.5239 0.7208 0.0000
vt 0.5204 0.6846 0.0000
vt 0.5754 0.6419 0.0000
vt 0.5185 0.6419 0.0000
vt 0.5190 0.5996 0.0000
vt 0.7216 0.2653 0.0000
vt 0.7296 0.3403 0.0000
vt 0.7382 0.2677 0.0000
vt 0.1686 0.2208 0.0000
vt 0.1763 0.2205 0.0000
vt 0.1751 0.2005 0.0000
vt 0.1890 0.1980 0.0000
vt 0.1887 0.2163 0.0000
vt 0.1184 0.2333 0.0000
vt 0.1184 0.2720 0.0000
vt 0.2046 0.2110 0.0000
vt 0.2098 0.1932 0.0000
vt 0.2196 0.1933 0.0000
vt 0.2320 0.2720 0.0000
vt 0.2320 0.2333 0.0000
vt 0.2158 0.2333 0.0000
vt 0.2320 0.1930 0.0000
vt 0.2482 0.2720 0.0000
vt 0.2482 0.2333 0.0000
vt 0.1509 0.0665 0.0000
vt 0.1671 0.0665 0.0000
vt 0.1509 0.0514 0.0000
vt 0.1671 0.0514 0.0000
vt 0.1833 0.0665 0.0000
vt 0.1833 0.0514 0.0000
vt 0.1995 0.0665 0.0000
vt 0.1995 0.0514 0.0000
vt 0.2158 0.0665 0.0000
vt 0.1668 0.2007 0.0000
vt 0.1431 0.2210 0.0000
vt 0.1605 0.2286 0.0000
vt 0.1509 0.1930 0.0000
vt 0.1671 0.1930 0.0000
vt 0.1833 0.1930 0.0000
vt 0.1995 0.1930 0.0000
vt 0.2320 0.0665 0.0000
vt 0.2320 0.0514 0.0000
vt 0.2482 0.0514 0.0000
vt 0.1833 0.2333 0.0000
vt 0.1995 0.2333 0.0000
vt 0.2482 0.0665 0.0000
vt 0.1908 0.1972 0.0000
vt 0.1916 0.2163 0.0000
vt 0.2158 0.2720 0.0000
vt 0.1995 0.2720 0.0000
vt 0.1833 0.2720 0.0000
vt 0.1346 0.0665 0.0000
vt 0.1346 0.0514 0.0000
vt 0.1184 0.0665 0.0000
vt 0.1184 0.0514 0.0000
vt 0.1288 0.1586 0.0000
vt 0.1218 0.1775 0.0000
vt 0.1431 0.1611 0.0000
vt 0.1175 0.2207 0.0000
vt 0.1183 0.1994 0.0000
vt 0.1093 0.2206 0.0000
vt 0.1730 0.1812 0.0000
vt 0.1640 0.1804 0.0000
vt 0.2058 0.1531 0.0000
vt 0.1963 0.1741 0.0000
vt 0.2210 0.1567 0.0000
vt 0.1431 0.1790 0.0000
vt 0.1431 0.2003 0.0000
vt 0.2127 0.1800 0.0000
vt 0.2225 0.1784 0.0000
vt 0.1882 0.1751 0.0000
vt 0.1265 0.2287 0.0000
vt 0.1612 0.1618 0.0000
vt 0.1752 0.1569 0.0000
vt 0.1080 0.1344 0.0000
vt 0.1166 0.1193 0.0000
vt 0.1172 0.1344 0.0000
vt 0.1224 0.1193 0.0000
vt 0.1221 0.1109 0.0000
vt 0.1162 0.1109 0.0000
vt 0.1080 0.1193 0.0000
vt 0.1080 0.1109 0.0000
vt 0.0980 0.1109 0.0000
vt 0.0982 0.1033 0.0000
vt 0.0945 0.1033 0.0000
vt 0.0978 0.1193 0.0000
vt 0.0944 0.1109 0.0000
vt 0.0993 0.1109 0.0000
vt 0.0996 0.1033 0.0000
vt 0.1080 0.1033 0.0000
vt 0.1162 0.1033 0.0000
vt 0.1158 0.0889 0.0000
vt 0.1218 0.0889 0.0000
vt 0.0942 0.1193 0.0000
vt 0.0992 0.1193 0.0000
vt 0.1222 0.1033 0.0000
vt 0.1080 0.0889 0.0000
vt 0.0986 0.0889 0.0000
vt 0.0984 0.1344 0.0000
vt 0.0949 0.0889 0.0000
vt 0.0999 0.0889 0.0000
vt 0.1619 0.0935 0.0000
vt 0.1582 0.0935 0.0000
vt 0.1580 0.0777 0.0000
vt 0.1320 0.0935 0.0000
vt 0.1357 0.0935 0.0000
vt 0.1359 0.0777 0.0000
vt 0.1995 0.0722 0.0000
vt 0.1993 0.0650 0.0000
vt 0.1890 0.0722 0.0000
vt 0.1997 0.0793 0.0000
vt 0.1890 0.0793 0.0000
vt 0.2212 0.0730 0.0000
vt 0.2188 0.0766 0.0000
vt 0.2221 0.0730 0.0000
vt 0.2859 0.2180 0.0000
vt 0.2865 0.2113 0.0000
vt 0.2816 0.2055 0.0000
vt 0.1789 0.0525 0.0000
vt 0.1759 0.0525 0.0000
vt 0.1810 0.0447 0.0000
vt 0.2902 0.1716 0.0000
vt 0.2825 0.1635 0.0000
vt 0.2821 0.1784 0.0000
vt 0.0939 0.2185 0.0000
vt 0.0985 0.2431 0.0000
vt 0.1786 0.0447 0.0000
vt 0.1890 0.0447 0.0000
vt 0.1470 0.0935 0.0000
vt 0.1470 0.0777 0.0000
vt 0.1782 0.0722 0.0000
vt 0.1784 0.0650 0.0000
vt 0.1755 0.0650 0.0000
vt 0.1752 0.0722 0.0000
vt 0.1779 0.0793 0.0000
vt 0.1749 0.0793 0.0000
vt 0.2322 0.0760 0.0000
vt 0.2442 0.0766 0.0000
vt 0.2322 0.0897 0.0000
vt 0.2446 0.0898 0.0000
vt 0.2457 0.0898 0.0000
vt 0.2019 0.0525 0.0000
vt 0.1990 0.0525 0.0000
vt 0.2022 0.0650 0.0000
vt 0.1890 0.0650 0.0000
vt 0.1890 0.0525 0.0000
vt 0.1170 0.2426 0.0000
vt 0.1084 0.2425 0.0000
vt 0.2321 0.0725 0.0000
vt 0.2199 0.0766 0.0000
vt 0.2749 0.2118 0.0000
vt 0.2816 0.1923 0.0000
vt 0.2024 0.0722 0.0000
vt 0.2026 0.0793 0.0000
vt 0.2420 0.0730 0.0000
vt 0.2452 0.0766 0.0000
vt 0.2440 0.0766 0.0000
vt 0.2444 0.0898 0.0000
vt 0.2321 0.0897 0.0000
vt 0.1989 0.0447 0.0000
vt 0.1966 0.0447 0.0000
vt 0.1011 0.2095 0.0000
vt 0.0904 0.2113 0.0000
vt 0.2195 0.0898 0.0000
vt 0.2183 0.0898 0.0000
vt 0.2321 0.0760 0.0000
vt 0.2418 0.0730 0.0000
vt 0.2429 0.0730 0.0000
vt 0.1256 0.2428 0.0000
vt 0.2321 0.1427 0.0000
vt 0.2129 0.1432 0.0000
vt 0.2129 0.1426 0.0000
vt 0.2322 0.1443 0.0000
vt 0.2322 0.1359 0.0000
vt 0.2487 0.1372 0.0000
vt 0.2512 0.1460 0.0000
vt 0.2529 0.1440 0.0000
vt 0.2510 0.1423 0.0000
vt 0.1585 0.1021 0.0000
vt 0.1470 0.1021 0.0000
vt 0.1623 0.1021 0.0000
vt 0.1323 0.0777 0.0000
vt 0.1316 0.1021 0.0000
vt 0.1354 0.1021 0.0000
vt 0.1616 0.0777 0.0000
vt 0.1173 0.1392 0.0000
vt 0.1080 0.1392 0.0000
vt 0.1470 0.1392 0.0000
vt 0.1631 0.1392 0.0000
vt 0.1599 0.1333 0.0000
vt 0.1364 0.0469 0.0000
vt 0.1470 0.0469 0.0000
vt 0.1383 0.0398 0.0000
vt 0.1939 0.2424 0.0000
vt 0.2046 0.2413 0.0000
vt 0.1236 0.1392 0.0000
vt 0.1232 0.1344 0.0000
vt 0.1890 0.1389 0.0000
vt 0.1755 0.1389 0.0000
vt 0.1758 0.1331 0.0000
vt 0.2050 0.1389 0.0000
vt 0.2025 0.1389 0.0000
vt 0.2019 0.1331 0.0000
vt 0.1724 0.1389 0.0000
vt 0.1583 0.0384 0.0000
vt 0.1469 0.0377 0.0000
vt 0.1554 0.0398 0.0000
vt 0.1469 0.0398 0.0000
vt 0.2198 0.2419 0.0000
vt 0.2234 0.2526 0.0000
vt 0.2274 0.2420 0.0000
vt 0.2253 0.2526 0.0000
vt 0.1355 0.0384 0.0000
vt 0.1329 0.0456 0.0000
vt 0.1326 0.0628 0.0000
vt 0.1272 0.2534 0.0000
vt 0.1306 0.2534 0.0000
vt 0.1469 0.0384 0.0000
vt 0.1554 0.0384 0.0000
vt 0.1470 0.0456 0.0000
vt 0.1575 0.0456 0.0000
vt 0.1610 0.0456 0.0000
vt 0.1613 0.0628 0.0000
vt 0.1575 0.0469 0.0000
vt 0.1578 0.0629 0.0000
vt 0.1470 0.0629 0.0000
vt 0.1383 0.0384 0.0000
vt 0.1364 0.0456 0.0000
vt 0.1881 0.2415 0.0000
vt 0.1763 0.2417 0.0000
vt 0.1697 0.2420 0.0000
vt 0.1619 0.2425 0.0000
vt 0.2115 0.2415 0.0000
vt 0.1727 0.1331 0.0000
vt 0.1361 0.0629 0.0000
vt 0.0965 0.1392 0.0000
vt 0.0933 0.1344 0.0000
vt 0.0916 0.1392 0.0000
vt 0.0969 0.1392 0.0000
vt 0.0970 0.1344 0.0000
vt 0.1890 0.1331 0.0000
vt 0.1431 0.2427 0.0000
vt 0.1431 0.2286 0.0000
vt 0.1331 0.2429 0.0000
vt 0.1766 0.1128 0.0000
vt 0.1735 0.1128 0.0000
vt 0.1738 0.1036 0.0000
vt 0.2010 0.1128 0.0000
vt 0.2037 0.1128 0.0000
vt 0.2035 0.1036 0.0000
vt 0.1743 0.0944 0.0000
vt 0.1774 0.0944 0.0000
vt 0.2030 0.0944 0.0000
vt 0.2002 0.0944 0.0000
vt 0.1324 0.1392 0.0000
vt 0.1340 0.1333 0.0000
vt 0.1288 0.1392 0.0000
vt 0.1297 0.1333 0.0000
vt 0.1660 0.1392 0.0000
vt 0.1641 0.1333 0.0000
vt 0.1890 0.1128 0.0000
vt 0.1769 0.1036 0.0000
vt 0.1890 0.1036 0.0000
vt 0.2007 0.1036 0.0000
vt 0.2493 0.2425 0.0000
vt 0.2388 0.2421 0.0000
vt 0.1543 0.2427 0.0000
vt 0.2553 0.2532 0.0000
vt 0.2569 0.2425 0.0000
vt 0.2519 0.2532 0.0000
vt 0.1889 0.1331 0.0000
vt 0.2045 0.1331 0.0000
vt 0.1890 0.0944 0.0000
vt 0.1470 0.1333 0.0000
vt 0.1090 0.1980 0.0000
vt 0.2367 0.7472 0.0000
vt 0.2017 0.7383 0.0000
vt 0.2017 0.7686 0.0000
vt 0.1667 0.7472 0.0000
vt 0.2591 0.7632 0.0000
vt 0.2476 0.7339 0.0000
vt 0.2429 0.7370 0.0000
vt 0.2037 0.7217 0.0000
vt 0.1646 0.7370 0.0000
vt 0.1599 0.7339 0.0000
vt 0.1484 0.7632 0.0000
vt 0.6453 0.6419 0.0000
vt 0.6453 0.5868 0.0000
vt 0.6453 0.5475 0.0000
vt 0.2512 0.7686 0.0000
vt 0.1522 0.7686 0.0000
vt 0.2037 0.7261 0.0000
vt 0.1417 0.7632 0.0000
vt 0.2658 0.7632 0.0000
vt 0.6453 0.6965 0.0000
vt 0.6453 0.7358 0.0000
vt 0.2322 0.1258 0.0000
vt 0.2464 0.1258 0.0000
vt 0.2459 0.1185 0.0000
vt 0.2182 0.1184 0.0000
vt 0.2322 0.1185 0.0000
vt 0.2460 0.0964 0.0000
vt 0.2449 0.0964 0.0000
vt 0.2322 0.0964 0.0000
vt 0.2321 0.0964 0.0000
vt 0.2447 0.0964 0.0000
vt 0.2180 0.0964 0.0000
vt 0.2192 0.0964 0.0000
vt 0.2463 0.1022 0.0000
vt 0.2451 0.1022 0.0000
vt 0.2322 0.1021 0.0000
vt 0.2321 0.1021 0.0000
vt 0.2449 0.1022 0.0000
vt 0.2178 0.1022 0.0000
vt 0.2190 0.1022 0.0000
vt 0.2321 0.1184 0.0000
vt 0.2169 0.1184 0.0000
vt 0.2471 0.1185 0.0000
vt 0.1587 0.1115 0.0000
vt 0.1470 0.1115 0.0000
vt 0.1352 0.1115 0.0000
vt 0.1314 0.1115 0.0000
vt 0.1625 0.1115 0.0000
vt 0.2676 0.1481 0.0000
vt 0.1184 0.4014 0.0000
vt 0.1346 0.4014 0.0000
vt 0.1162 0.1493 0.0000
vt 0.0998 0.1641 0.0000
vt 0.2482 0.4014 0.0000
vt 0.2320 0.4014 0.0000
vt 0.2158 0.4014 0.0000
vt 0.1995 0.4014 0.0000
vt 0.1833 0.4014 0.0000
vt 0.1671 0.4014 0.0000
vt 0.1582 0.2527 0.0000
vt 0.1564 0.2527 0.0000
vt 0.2861 0.2438 0.0000
vt 0.2748 0.2425 0.0000
vt 0.4945 0.7197 0.0000
vt 0.4862 0.6827 0.0000
vt 0.4827 0.6419 0.0000
vt 0.4839 0.6019 0.0000
vt 0.4936 0.5647 0.0000
vt 0.1360 0.0705 0.0000
vt 0.1470 0.0705 0.0000
vt 0.1579 0.0705 0.0000
vt 0.1081 0.1794 0.0000
vt 0.1615 0.0705 0.0000
vt 0.1003 0.1966 0.0000
vt 0.0997 0.1831 0.0000
vt 0.0921 0.1725 0.0000
vt 0.1324 0.0705 0.0000
vt 0.2482 0.1930 0.0000
vt 0.2158 0.0514 0.0000
vt 0.2158 0.1930 0.0000
vt 0.1346 0.1930 0.0000
vt 0.1184 0.1930 0.0000
vt 0.1470 0.0628 0.0000
vt 0.1578 0.0628 0.0000
vt 0.1361 0.0628 0.0000
vt 0.1213 0.0760 0.0000
vt 0.1156 0.0824 0.0000
vt 0.1154 0.0760 0.0000
vt 0.1080 0.0824 0.0000
vt 0.1216 0.0824 0.0000
vt 0.1080 0.0582 0.0000
vt 0.1130 0.0582 0.0000
vt 0.1178 0.0582 0.0000
vt 0.1211 0.0653 0.0000
vt 0.1152 0.0653 0.0000
vt 0.1080 0.0760 0.0000
vt 0.1080 0.0653 0.0000
vt 0.0982 0.0582 0.0000
vt 0.1025 0.0582 0.0000
vt 0.0956 0.0653 0.0000
vt 0.1006 0.0653 0.0000
vt 0.0990 0.0760 0.0000
vt 0.0988 0.0824 0.0000
vt 0.0992 0.0653 0.0000
vt 0.1011 0.0582 0.0000
vt 0.0951 0.0824 0.0000
vt 0.0953 0.0760 0.0000
vt 0.1001 0.0824 0.0000
vt 0.1003 0.0760 0.0000
# 433 texture coords

o BrazoDerecho001
g BrazoDerecho001
usemtl peluches_Conejo_peluche_pasted__aiStandardSurface2SG
s off
f 1/1/1 2/2/2 3/3/3 
f 4/4/4 5/5/5 6/6/6 
f 5/5/5 7/7/7 6/6/6 
f 5/5/5 8/8/8 7/7/7 
f 8/8/8 9/9/9 10/10/10 
f 11/11/11 12/12/12 13/13/13 
f 12/12/12 14/14/14 13/13/13 
f 15/15/15 5/5/5 4/4/4 
f 15/15/15 16/16/16 5/5/5 
f 16/16/16 8/8/8 5/5/5 
f 17/17/17 9/9/9 8/8/8 
f 1/1/1 18/18/18 19/19/19 
f 1/1/1 3/3/3 18/18/18 
f 3/3/3 20/20/20 18/18/18 
f 3/3/3 21/21/21 20/20/20 
f 21/21/21 22/22/22 20/20/20 
f 20/20/20 22/22/22 11/11/11 
f 22/22/22 12/12/12 11/11/11 
f 22/22/22 23/23/23 12/12/12 
f 24/24/24 17/17/17 25/25/25 
f 17/17/17 26/26/26 25/25/25 
f 17/17/17 27/27/27 26/26/26 
f 24/24/24 28/28/28 9/9/9 
f 29/29/29 30/30/30 31/31/31 
f 29/29/29 32/32/32 30/30/30 
f 32/32/32 33/33/33 30/30/30 
f 31/31/31 30/30/30 34/34/34 
f 30/30/30 35/35/35 34/34/34 
f 30/30/30 33/33/33 35/35/35 
f 36/36/36 37/37/37 38/38/38 
f 37/37/37 39/39/39 38/38/38 
f 40/40/40 41/41/41 42/42/42 
f 40/40/40 43/43/43 41/41/41 
f 43/43/43 39/39/39 41/41/41 
f 43/43/43 44/44/44 39/39/39 
f 44/44/44 38/38/38 39/39/39 
f 45/45/45 46/46/46 47/47/47 
f 48/45/48 49/46/49 50/47/50 
f 45/48/45 51/49/51 46/50/46 
f 51/49/51 52/51/52 46/50/46 
f 51/49/51 53/52/53 52/51/52 
f 53/52/53 54/53/54 52/51/52 
f 53/52/53 55/54/55 54/53/54 
f 48/48/48 56/49/56 49/50/49 
f 56/49/56 57/51/57 49/50/49 
f 58/54/58 47/47/47 46/46/46 
f 55/54/55 50/47/50 49/46/49 
f 55/54/55 53/52/53 50/47/50 
f 59/55/59 60/56/60 61/57/61 
f 62/58/62 63/59/63 64/60/64 
f 63/59/63 65/61/65 64/60/64 
f 63/59/63 66/62/66 65/61/65 
f 35/35/35 67/63/67 68/64/68 
f 69/65/69 27/27/27 70/66/70 
f 27/27/27 71/67/71 70/66/70 
f 27/27/27 17/17/17 71/67/71 
f 72/68/72 73/69/73 74/70/74 
f 73/69/73 75/71/75 74/70/74 
f 68/72/68 73/69/73 72/68/72 
f 68/72/68 67/73/67 73/69/73 
f 76/74/76 77/75/77 78/76/78 
f 77/75/77 79/77/79 78/76/78 
f 77/75/77 80/78/80 79/77/79 
f 80/78/80 81/79/81 79/77/79 
f 80/78/80 82/80/82 81/79/81 
f 82/80/82 83/81/83 81/79/81 
f 82/80/82 84/82/84 83/81/83 
f 85/83/85 62/58/62 64/60/64 
f 85/83/85 86/84/86 62/58/62 
f 86/84/86 87/85/87 62/58/62 
f 88/86/88 89/87/89 76/74/76 
f 89/87/89 77/75/77 76/74/76 
f 89/87/89 90/88/90 77/75/77 
f 90/88/90 80/78/80 77/75/77 
f 90/88/90 91/89/91 80/78/80 
f 91/89/91 82/80/82 80/78/80 
f 92/90/92 6/91/6 84/82/84 
f 92/90/92 4/92/4 6/91/6 
f 32/32/32 29/29/29 88/86/88 
f 29/29/29 89/87/89 88/86/88 
f 29/29/29 93/93/93 89/87/89 
f 93/93/93 90/88/90 89/87/89 
f 93/93/93 94/94/94 90/88/90 
f 94/94/94 91/89/91 90/88/90 
f 94/94/94 74/70/74 91/89/91 
f 75/71/75 95/95/95 92/90/92 
f 95/95/95 4/92/4 92/90/92 
f 69/65/69 65/96/65 66/97/66 
f 69/65/69 70/66/70 65/96/65 
f 72/68/72 74/70/74 96/98/96 
f 74/70/74 97/99/97 96/98/96 
f 74/70/74 94/94/94 97/99/97 
f 94/94/94 98/100/98 97/99/97 
f 94/94/94 93/93/93 98/100/98 
f 93/93/93 31/31/31 98/100/98 
f 93/93/93 29/29/29 31/31/31 
f 32/32/32 88/86/88 33/33/33 
f 76/74/76 78/76/78 99/101/99 
f 78/76/78 100/102/100 99/101/99 
f 33/33/33 67/63/67 35/35/35 
f 99/101/99 100/102/100 95/103/95 
f 100/102/100 4/104/4 95/103/95 
f 83/105/83 101/106/101 81/107/81 
f 102/108/102 103/109/103 104/110/104 
f 105/111/105 106/112/106 85/83/85 
f 78/113/78 107/114/107 100/115/100 
f 108/116/108 109/117/109 106/112/106 
f 109/117/109 85/83/85 106/112/106 
f 109/117/109 86/84/86 85/83/85 
f 17/17/17 16/16/16 71/67/71 
f 70/66/70 71/67/71 110/118/110 
f 71/67/71 111/119/111 110/118/110 
f 71/67/71 16/16/16 111/119/111 
f 16/16/16 15/15/15 111/119/111 
f 107/120/107 105/111/105 65/61/65 
f 105/111/105 64/60/64 65/61/65 
f 105/111/105 85/83/85 64/60/64 
f 112/121/112 86/84/86 102/108/102 
f 86/84/86 103/109/103 102/108/102 
f 86/84/86 109/117/109 103/109/103 
f 109/117/109 101/106/101 103/109/103 
f 109/117/109 108/116/108 101/106/101 
f 108/116/108 81/107/81 101/106/101 
f 108/116/108 106/112/106 81/107/81 
f 106/112/106 79/122/79 81/107/81 
f 106/112/106 105/111/105 79/122/79 
f 105/111/105 78/123/78 79/122/79 
f 105/111/105 107/120/107 78/123/78 
f 70/66/70 107/114/107 65/96/65 
f 70/66/70 110/118/110 107/114/107 
f 110/118/110 100/115/100 107/114/107 
f 110/118/110 111/119/111 100/115/100 
f 111/119/111 4/4/4 100/115/100 
f 111/119/111 15/15/15 4/4/4 
f 16/16/16 17/17/17 8/8/8 
f 113/124/113 114/125/114 115/126/115 
f 114/125/114 116/127/116 115/126/115 
f 114/125/114 117/128/117 116/127/116 
f 117/128/117 118/125/118 116/127/116 
f 117/128/117 119/129/119 118/125/118 
f 119/129/119 120/130/120 118/125/118 
f 119/129/119 121/131/121 120/130/120 
f 121/131/121 122/132/122 120/130/120 
f 121/131/121 123/133/123 122/132/122 
f 123/133/123 124/134/124 122/132/122 
f 120/130/120 122/132/122 125/135/125 
f 122/132/122 126/136/126 125/135/125 
f 122/132/122 124/134/124 126/136/126 
f 124/134/124 127/137/127 126/136/126 
f 124/134/124 128/138/128 127/137/127 
f 128/138/128 129/131/129 127/137/127 
f 128/138/128 130/139/130 129/131/129 
f 130/139/130 131/140/131 129/131/129 
f 130/139/130 132/141/132 131/140/131 
f 132/141/132 133/142/133 131/140/131 
f 125/135/125 126/136/126 134/143/134 
f 126/136/126 135/144/135 134/143/134 
f 126/136/126 127/137/127 135/144/135 
f 127/137/127 136/130/136 135/144/135 
f 127/137/127 129/131/129 136/130/136 
f 129/131/129 137/129/137 136/130/136 
f 129/131/129 131/140/131 137/129/137 
f 131/140/131 138/145/138 137/129/137 
f 131/140/131 133/142/133 138/145/138 
f 133/142/133 139/140/139 138/145/138 
f 133/142/133 140/141/140 139/140/139 
f 140/141/140 141/139/141 139/140/139 
f 140/141/140 142/146/142 141/139/141 
f 142/146/142 143/147/143 141/139/141 
f 134/143/134 135/144/135 144/148/144 
f 135/144/135 113/124/113 144/148/144 
f 135/144/135 136/130/136 113/124/113 
f 136/130/136 114/125/114 113/124/113 
f 136/130/136 137/129/137 114/125/114 
f 137/129/137 117/128/117 114/125/114 
f 137/129/137 138/145/138 117/128/117 
f 138/145/138 119/129/119 117/128/117 
f 138/145/138 139/140/139 119/129/119 
f 139/140/139 121/131/121 119/129/119 
f 139/140/139 141/139/141 121/131/121 
f 141/139/141 123/133/123 121/131/121 
f 141/139/141 143/147/143 123/133/123 
f 143/147/143 124/134/124 123/133/123 
f 143/147/143 145/149/145 124/134/124 
f 145/149/145 128/138/128 124/134/124 
f 145/149/145 146/150/146 128/138/128 
f 146/150/146 130/139/130 128/138/128 
f 146/150/146 147/146/147 130/139/130 
f 147/146/147 132/141/132 130/139/130 
f 148/151/148 149/152/149 150/153/150 
f 151/154/151 152/155/152 153/156/153 
f 154/157/154 155/158/155 156/159/156 
f 157/160/157 154/157/154 158/161/158 
f 159/162/159 160/163/160 161/164/161 
f 162/165/162 163/166/163 164/167/164 
f 165/168/165 166/169/166 167/170/167 
f 13/171/13 168/172/168 169/173/169 
f 104/110/104 162/174/162 170/175/170 
f 171/176/171 172/170/172 173/177/173 
f 172/170/172 174/177/174 173/177/173 
f 149/152/149 175/178/175 150/153/150 
f 175/178/175 176/179/176 150/153/150 
f 175/178/175 177/156/177 176/179/176 
f 152/155/152 178/178/178 153/156/153 
f 178/178/178 179/179/179 153/156/153 
f 178/178/178 180/153/180 179/179/179 
f 181/159/181 182/180/182 183/181/183 
f 182/180/182 184/182/184 183/181/183 
f 182/180/182 185/183/185 184/182/184 
f 186/161/186 187/184/187 182/180/182 
f 187/184/187 185/183/185 182/180/182 
f 187/184/187 188/185/188 185/183/185 
f 189/186/189 190/187/190 191/188/191 
f 190/187/190 192/189/192 191/188/191 
f 190/187/190 193/190/193 192/189/192 
f 194/191/194 195/192/195 196/193/196 
f 195/192/195 155/158/155 196/193/196 
f 195/192/195 197/194/197 155/158/155 
f 198/177/198 199/195/199 167/170/167 
f 199/195/199 165/168/165 167/170/167 
f 199/195/199 200/194/200 165/168/165 
f 102/108/102 104/110/104 201/196/201 
f 104/110/104 202/197/202 201/196/201 
f 104/110/104 170/175/170 202/197/202 
f 185/183/185 203/180/203 184/182/184 
f 203/180/203 204/181/204 184/182/184 
f 203/180/203 156/159/156 204/181/204 
f 156/159/156 197/194/197 204/181/204 
f 156/159/156 155/158/155 197/194/197 
f 188/185/188 205/184/205 185/183/185 
f 205/184/205 203/180/203 185/183/185 
f 205/184/205 158/161/158 203/180/203 
f 158/161/158 156/159/156 203/180/203 
f 158/161/158 154/157/154 156/159/156 
f 206/198/206 207/198/207 161/164/161 
f 207/198/207 159/162/159 161/164/161 
f 207/198/207 208/164/208 159/162/159 
f 208/164/208 160/163/160 159/162/159 
f 208/164/208 209/199/209 160/163/160 
f 162/165/162 164/167/164 210/200/210 
f 164/167/164 10/10/10 210/200/210 
f 164/167/164 211/201/211 10/10/10 
f 211/201/211 169/173/169 10/10/10 
f 154/157/154 212/202/212 155/158/155 
f 212/202/212 196/193/196 155/158/155 
f 212/202/212 213/157/213 196/193/196 
f 213/157/213 214/158/214 196/193/196 
f 213/157/213 181/159/181 214/158/214 
f 181/159/181 200/194/200 214/158/214 
f 181/159/181 183/181/183 200/194/200 
f 157/160/157 215/203/215 154/157/154 
f 215/203/215 212/202/212 154/157/154 
f 215/203/215 216/160/216 212/202/212 
f 216/160/216 213/157/213 212/202/212 
f 216/160/216 186/161/186 213/157/213 
f 186/161/186 181/159/181 213/157/213 
f 186/161/186 182/180/182 181/159/181 
f 217/198/217 218/204/218 189/186/189 
f 218/204/218 190/187/190 189/186/189 
f 218/204/218 219/205/219 190/187/190 
f 219/205/219 193/190/193 190/187/190 
f 219/205/219 220/206/220 193/190/193 
f 220/206/220 221/207/221 193/190/193 
f 220/206/220 222/208/222 221/207/221 
f 223/209/223 224/210/224 194/191/194 
f 224/210/224 195/192/195 194/191/194 
f 224/210/224 225/195/225 195/192/195 
f 225/195/225 197/194/197 195/192/195 
f 225/195/225 226/168/226 197/194/197 
f 226/168/226 204/181/204 197/194/197 
f 226/168/226 184/182/184 204/181/204 
f 227/211/227 162/174/162 104/110/104 
f 227/211/227 163/212/163 162/174/162 
f 9/9/9 210/200/210 10/10/10 
f 228/213/228 229/214/229 209/199/209 
f 229/214/229 160/163/160 209/199/209 
f 229/214/229 230/199/230 160/163/160 
f 230/199/230 161/164/161 160/163/160 
f 230/199/230 231/215/231 161/164/161 
f 231/215/231 206/198/206 161/164/161 
f 231/215/231 232/216/232 206/198/206 
f 232/216/232 207/198/207 206/198/206 
f 232/216/232 233/217/233 207/198/207 
f 172/170/172 171/176/171 166/169/166 
f 171/176/171 167/170/167 166/169/166 
f 171/176/171 173/177/173 167/170/167 
f 173/177/173 198/177/198 167/170/167 
f 173/177/173 234/210/234 198/177/198 
f 234/210/234 199/195/199 198/177/198 
f 234/210/234 235/192/235 199/195/199 
f 235/192/235 200/194/200 199/195/199 
f 235/192/235 214/158/214 200/194/200 
f 236/218/236 112/121/112 201/196/201 
f 112/121/112 102/108/102 201/196/201 
f 228/213/228 209/199/209 191/188/191 
f 209/199/209 189/186/189 191/188/191 
f 209/199/209 208/164/208 189/186/189 
f 208/164/208 217/198/217 189/186/189 
f 208/164/208 207/198/207 217/198/217 
f 207/198/207 218/204/218 217/198/217 
f 207/198/207 233/217/233 218/204/218 
f 233/217/233 219/205/219 218/204/218 
f 233/217/233 232/216/232 219/205/219 
f 232/216/232 220/206/220 219/205/219 
f 232/216/232 231/215/231 220/206/220 
f 231/215/231 222/208/222 220/206/220 
f 231/215/231 230/199/230 222/208/222 
f 230/199/230 237/213/237 222/208/222 
f 230/199/230 229/214/229 237/213/237 
f 214/158/214 235/192/235 196/193/196 
f 235/192/235 194/191/194 196/193/196 
f 235/192/235 234/210/234 194/191/194 
f 234/210/234 223/209/223 194/191/194 
f 234/210/234 173/177/173 223/209/223 
f 173/177/173 224/210/224 223/209/223 
f 173/177/173 174/177/174 224/210/224 
f 174/177/174 225/195/225 224/210/224 
f 174/177/174 172/170/172 225/195/225 
f 172/170/172 226/168/226 225/195/225 
f 172/170/172 166/169/166 226/168/226 
f 166/169/166 184/182/184 226/168/226 
f 166/169/166 165/168/165 184/182/184 
f 165/168/165 183/181/183 184/182/184 
f 165/168/165 200/194/200 183/181/183 
f 211/219/211 11/11/11 169/220/169 
f 11/11/11 13/13/13 169/220/169 
f 13/13/13 14/14/14 238/221/238 
f 14/14/14 239/222/239 238/221/238 
f 14/14/14 240/223/240 239/222/239 
f 240/223/240 241/224/241 239/222/239 
f 239/222/239 241/224/241 227/225/227 
f 241/224/241 163/226/163 227/225/227 
f 241/224/241 19/19/19 163/226/163 
f 19/19/19 164/227/164 163/226/163 
f 19/19/19 18/18/18 164/227/164 
f 18/18/18 211/219/211 164/227/164 
f 18/18/18 20/20/20 211/219/211 
f 20/20/20 11/11/11 211/219/211 
f 242/228/242 243/152/243 244/229/244 
f 242/228/242 245/230/245 243/152/243 
f 245/230/245 148/151/148 243/152/243 
f 246/155/246 177/156/177 175/178/175 
f 246/155/246 151/154/151 177/156/177 
f 151/154/151 247/231/247 177/156/177 
f 151/154/151 153/156/153 247/231/247 
f 248/232/248 151/154/151 246/155/246 
f 248/232/248 249/233/249 151/154/151 
f 249/233/249 152/155/152 151/154/151 
f 249/233/249 244/229/244 152/155/152 
f 244/229/244 178/178/178 152/155/152 
f 244/229/244 243/152/243 178/178/178 
f 243/152/243 180/153/180 178/178/178 
f 243/152/243 148/151/148 180/153/180 
f 148/151/148 250/234/250 180/153/180 
f 148/151/148 150/153/150 250/234/250 
f 251/235/251 252/236/252 115/126/115 
f 253/237/253 254/238/254 255/239/255 
f 256/240/256 257/241/257 258/242/258 
f 66/97/66 259/243/259 260/244/260 
f 259/245/259 261/246/261 262/126/262 
f 201/247/201 202/248/202 263/249/263 
f 264/250/264 236/251/236 265/252/265 
f 170/253/170 266/248/266 267/249/267 
f 268/254/268 269/255/269 270/256/270 
f 269/255/269 271/257/271 270/256/270 
f 272/258/272 273/259/273 254/260/254 
f 273/259/273 274/261/274 254/260/254 
f 275/262/275 276/263/276 258/242/258 
f 276/263/276 256/240/256 258/242/258 
f 276/263/276 277/264/277 256/240/256 
f 236/218/236 264/265/264 278/266/278 
f 279/267/279 280/268/280 281/269/281 
f 280/268/280 282/270/282 281/269/281 
f 280/268/280 283/271/283 282/270/282 
f 283/271/283 284/272/284 282/270/282 
f 283/271/283 285/273/285 284/272/284 
f 285/273/285 286/274/286 284/272/284 
f 285/273/285 287/275/287 286/274/286 
f 270/256/270 271/257/271 257/241/257 
f 271/257/271 258/242/258 257/241/257 
f 271/257/271 269/255/269 258/242/258 
f 269/255/269 275/262/275 258/242/258 
f 269/255/269 288/276/288 275/262/275 
f 288/276/288 276/263/276 275/262/275 
f 288/276/288 289/277/289 276/263/276 
f 289/277/289 277/264/277 276/263/276 
f 66/62/66 63/59/63 259/278/259 
f 63/59/63 251/279/251 259/278/259 
f 63/59/63 62/58/62 251/279/251 
f 62/58/62 252/280/252 251/279/251 
f 62/58/62 87/85/87 252/280/252 
f 87/85/87 290/281/290 252/280/252 
f 27/27/27 69/65/69 291/282/291 
f 69/65/69 260/244/260 291/282/291 
f 202/248/202 170/253/170 263/249/263 
f 170/253/170 292/283/292 263/249/263 
f 170/253/170 267/249/267 292/283/292 
f 289/277/289 288/276/288 281/269/281 
f 288/276/288 279/267/279 281/269/281 
f 288/276/288 269/255/269 279/267/279 
f 269/255/269 280/268/280 279/267/279 
f 269/255/269 268/254/268 280/268/280 
f 268/254/268 283/271/283 280/268/280 
f 268/254/268 270/256/270 283/271/283 
f 270/256/270 285/273/285 283/271/283 
f 270/256/270 257/241/257 285/273/285 
f 257/241/257 287/275/287 285/273/285 
f 257/241/257 256/240/256 287/275/287 
f 256/240/256 293/284/293 287/275/287 
f 256/240/256 277/264/277 293/284/293 
f 272/285/272 294/286/294 273/287/273 
f 294/286/294 290/288/290 273/287/273 
f 294/286/294 144/148/144 290/288/290 
f 144/148/144 252/236/252 290/288/290 
f 144/148/144 113/124/113 252/236/252 
f 113/124/113 115/126/115 252/236/252 
f 260/244/260 69/65/69 66/97/66 
f 251/235/251 115/126/115 259/245/259 
f 115/126/115 261/246/261 259/245/259 
f 115/126/115 116/127/116 261/246/261 
f 116/127/116 262/126/262 261/246/261 
f 116/127/116 118/125/118 262/126/262 
f 118/125/118 295/124/295 262/126/262 
f 118/125/118 120/130/120 295/124/295 
f 120/130/120 125/135/125 295/124/295 
f 259/245/259 262/126/262 260/235/260 
f 262/126/262 291/236/291 260/235/260 
f 262/126/262 295/124/295 291/236/291 
f 295/124/295 296/289/296 291/236/291 
f 295/124/295 125/135/125 296/289/296 
f 125/135/125 134/143/134 296/289/296 
f 236/251/236 201/247/201 265/252/265 
f 201/247/201 297/290/297 265/252/265 
f 201/247/201 263/249/263 297/290/297 
f 291/236/291 296/289/296 272/285/272 
f 296/289/296 294/286/294 272/285/272 
f 296/289/296 134/143/134 294/286/294 
f 134/143/134 144/148/144 294/286/294 
f 298/291/298 299/292/299 300/293/300 
f 28/247/28 301/251/301 302/252/302 
f 303/294/303 304/295/304 305/296/305 
f 306/297/306 307/298/307 308/299/308 
f 309/300/309 305/296/305 310/301/310 
f 311/302/311 308/299/308 312/303/312 
f 298/237/298 300/304/300 313/305/313 
f 300/304/300 278/306/278 314/307/314 
f 254/238/254 274/308/274 315/309/315 
f 316/294/316 317/310/317 318/311/318 
f 317/310/317 319/312/319 318/311/318 
f 317/310/317 320/313/320 319/312/319 
f 320/313/320 321/303/321 319/312/319 
f 322/314/322 25/25/25 253/315/253 
f 25/25/25 254/260/254 253/315/253 
f 300/304/300 314/307/314 313/305/313 
f 254/238/254 315/309/315 255/239/255 
f 299/292/299 298/291/298 323/316/323 
f 264/317/264 301/318/301 278/319/278 
f 301/318/301 322/314/322 278/319/278 
f 301/318/301 24/24/24 322/314/322 
f 24/24/24 25/25/25 322/314/322 
f 267/249/267 316/294/316 292/283/292 
f 267/249/267 324/320/324 316/294/316 
f 324/320/324 317/310/317 316/294/316 
f 324/320/324 306/297/306 317/310/317 
f 306/297/306 320/313/320 317/310/317 
f 306/297/306 308/299/308 320/313/320 
f 308/299/308 321/303/321 320/313/320 
f 308/299/308 311/302/311 321/303/321 
f 266/248/266 28/247/28 267/249/267 
f 28/247/28 324/320/324 267/249/267 
f 28/247/28 302/252/302 324/320/324 
f 302/252/302 306/297/306 324/320/324 
f 302/252/302 325/321/325 306/297/306 
f 325/321/325 307/298/307 306/297/306 
f 325/321/325 326/297/326 307/298/307 
f 326/297/326 308/299/308 307/298/307 
f 24/24/24 301/318/301 28/28/28 
f 301/251/301 264/250/264 302/252/302 
f 264/250/264 325/321/325 302/252/302 
f 264/250/264 265/252/265 325/321/325 
f 265/252/265 326/297/326 325/321/325 
f 265/252/265 297/290/297 326/297/326 
f 297/290/297 327/310/327 326/297/326 
f 297/290/297 303/294/303 327/310/327 
f 305/296/305 309/300/309 328/301/328 
f 263/249/263 303/294/303 297/290/297 
f 263/249/263 292/283/292 303/294/303 
f 292/283/292 304/295/304 303/294/303 
f 292/283/292 316/294/316 304/295/304 
f 316/294/316 305/296/305 304/295/304 
f 316/294/316 318/311/318 305/296/305 
f 318/311/318 310/301/310 305/296/305 
f 318/311/318 319/312/319 310/301/310 
f 319/312/319 329/322/329 310/301/310 
f 319/312/319 321/303/321 329/322/329 
f 274/308/274 323/238/323 315/309/315 
f 323/238/323 330/239/330 315/309/315 
f 323/238/323 298/237/298 330/239/330 
f 298/237/298 331/323/331 330/239/330 
f 298/237/298 313/305/313 331/323/331 
f 278/306/278 322/304/322 314/307/314 
f 322/304/322 332/305/332 314/307/314 
f 322/304/322 253/237/253 332/305/332 
f 253/237/253 333/323/333 332/305/332 
f 253/237/253 255/239/255 333/323/333 
f 334/324/334 227/211/227 104/110/104 
f 335/325/335 336/326/336 337/327/337 
f 336/326/336 338/328/338 337/327/337 
f 339/329/339 340/330/340 335/331/335 
f 340/330/340 341/332/341 335/331/335 
f 342/332/342 343/333/343 344/334/344 
f 343/333/343 345/335/345 344/334/344 
f 342/336/342 344/337/344 47/47/47 
f 344/337/344 45/45/45 47/47/47 
f 344/337/344 346/338/346 45/45/45 
f 341/336/341 340/337/340 50/47/50 
f 340/337/340 48/45/48 50/47/50 
f 340/337/340 347/338/347 48/45/48 
f 335/325/335 337/327/337 339/339/339 
f 337/327/337 348/325/348 339/339/339 
f 337/327/337 345/340/345 343/328/343 
f 337/327/337 338/328/338 345/340/345 
f 335/331/335 341/332/341 336/341/336 
f 341/332/341 338/333/338 336/341/336 
f 341/332/341 349/334/349 338/333/338 
f 349/334/349 345/335/345 338/333/338 
f 349/334/349 346/342/346 345/335/345 
f 346/342/346 344/334/344 345/335/345 
f 342/332/342 350/330/350 348/331/348 
f 350/330/350 339/329/339 348/331/348 
f 350/330/350 347/343/347 339/329/339 
f 347/343/347 340/330/340 339/329/339 
f 351/52/351 342/336/342 47/47/47 
f 351/52/351 56/49/56 342/336/342 
f 56/49/56 350/344/350 342/336/342 
f 56/49/56 48/48/48 350/344/350 
f 48/48/48 347/345/347 350/344/350 
f 53/52/53 341/336/341 50/47/50 
f 53/52/53 51/49/51 341/336/341 
f 51/49/51 349/344/349 341/336/341 
f 51/49/51 45/48/45 349/344/349 
f 45/48/45 346/345/346 349/344/349 
f 12/12/12 352/22/352 14/14/14 
f 352/22/352 240/223/240 14/14/14 
f 352/22/352 353/346/353 240/223/240 
f 353/346/353 354/347/354 240/223/240 
f 353/346/353 355/348/355 354/347/354 
f 355/348/355 1/1/1 354/347/354 
f 240/223/240 354/347/354 241/224/241 
f 354/347/354 19/19/19 241/224/241 
f 354/347/354 1/1/1 19/19/19 
f 23/23/23 352/22/352 12/12/12 
f 23/23/23 356/349/356 352/22/352 
f 356/349/356 353/346/353 352/22/352 
f 356/349/356 357/350/357 353/346/353 
f 357/350/357 355/348/355 353/346/353 
f 221/207/221 358/351/358 193/190/193 
f 358/351/358 192/189/192 193/190/193 
f 358/351/358 359/352/359 192/189/192 
f 359/352/359 360/353/360 192/189/192 
f 237/213/237 361/354/361 222/208/222 
f 361/354/361 221/207/221 222/208/222 
f 361/354/361 362/355/362 221/207/221 
f 362/355/362 358/351/358 221/207/221 
f 228/213/228 363/356/363 229/214/229 
f 363/356/363 237/213/237 229/214/229 
f 363/356/363 364/357/364 237/213/237 
f 364/357/364 361/354/361 237/213/237 
f 363/356/363 228/213/228 365/357/365 
f 228/213/228 360/353/360 365/357/365 
f 228/213/228 191/188/191 360/353/360 
f 191/188/191 192/189/192 360/353/360 
f 362/355/362 366/358/366 358/351/358 
f 366/358/366 359/352/359 358/351/358 
f 366/358/366 367/359/367 359/352/359 
f 367/359/367 368/360/368 359/352/359 
f 364/357/364 369/361/369 361/354/361 
f 369/361/369 362/355/362 361/354/361 
f 369/361/369 370/362/370 362/355/362 
f 370/362/370 366/358/366 362/355/362 
f 365/357/365 371/363/371 363/356/363 
f 371/363/371 364/357/364 363/356/363 
f 371/363/371 372/364/372 364/357/364 
f 372/364/372 369/361/369 364/357/364 
f 371/363/371 365/357/365 373/364/373 
f 365/357/365 368/360/368 373/364/373 
f 365/357/365 360/353/360 368/360/368 
f 360/353/360 359/352/359 368/360/368 
f 328/301/328 374/312/374 375/311/375 
f 374/312/374 327/310/327 375/311/375 
f 374/312/374 376/313/376 327/310/327 
f 376/313/376 326/297/326 327/310/327 
f 2/2/2 21/21/21 3/3/3 
f 2/2/2 377/365/377 21/21/21 
f 377/365/377 378/349/378 21/21/21 
f 377/365/377 372/364/372 378/349/378 
f 372/364/372 379/366/379 378/349/378 
f 372/364/372 371/363/371 379/366/379 
f 371/363/371 373/364/373 379/366/379 
f 376/313/376 374/312/374 312/303/312 
f 374/312/374 380/322/380 312/303/312 
f 374/312/374 328/301/328 380/322/380 
f 355/348/355 381/367/381 1/1/1 
f 381/367/381 2/2/2 1/1/1 
f 381/367/381 370/362/370 2/2/2 
f 370/362/370 377/365/377 2/2/2 
f 370/362/370 369/361/369 377/365/377 
f 369/361/369 372/364/372 377/365/377 
f 303/294/303 375/311/375 327/310/327 
f 21/21/21 378/349/378 22/22/22 
f 378/349/378 23/23/23 22/22/22 
f 378/349/378 379/366/379 23/23/23 
f 379/366/379 356/349/356 23/23/23 
f 379/366/379 373/364/373 356/349/356 
f 373/364/373 357/350/357 356/349/356 
f 373/364/373 368/360/368 357/350/357 
f 368/360/368 367/359/367 357/350/357 
f 357/350/357 367/359/367 355/348/355 
f 367/359/367 381/367/381 355/348/355 
f 367/359/367 366/358/366 381/367/381 
f 366/358/366 370/362/370 381/367/381 
f 382/368/382 242/228/242 383/369/383 
f 382/368/382 245/230/245 242/228/242 
f 384/370/384 385/233/385 386/369/386 
f 384/370/384 248/232/248 385/233/385 
f 87/85/87 323/316/323 290/281/290 
f 86/84/86 299/292/299 87/85/87 
f 299/292/299 323/316/323 87/85/87 
f 387/371/387 248/232/248 384/370/384 
f 387/371/387 388/370/388 248/232/248 
f 388/370/388 249/233/249 248/232/248 
f 388/370/388 383/369/383 249/233/249 
f 383/369/383 244/229/244 249/233/249 
f 383/369/383 242/228/242 244/229/244 
f 245/230/245 389/228/389 148/151/148 
f 389/228/389 149/152/149 148/151/148 
f 389/228/389 390/229/390 149/152/149 
f 390/229/390 175/178/175 149/152/149 
f 390/229/390 246/155/246 175/178/175 
f 391/372/391 245/230/245 382/368/382 
f 391/372/391 392/368/392 245/230/245 
f 392/368/392 389/228/389 245/230/245 
f 392/368/392 386/369/386 389/228/389 
f 386/369/386 390/229/390 389/228/389 
f 386/369/386 385/233/385 390/229/390 
f 385/233/385 246/155/246 390/229/390 
f 385/233/385 248/232/248 246/155/246 
f 17/17/17 24/24/24 9/9/9 
f 393/373/393 6/6/6 168/172/168 
f 394/374/394 395/375/395 68/64/68 
f 393/376/393 168/377/168 83/105/83 
f 34/34/34 35/35/35 395/375/395 
f 35/35/35 68/64/68 395/375/395 
f 394/378/394 68/72/68 72/68/72 
f 394/378/394 72/68/72 396/379/396 
f 72/68/72 96/98/96 396/379/396 
f 396/379/396 96/98/96 397/380/397 
f 96/98/96 398/381/398 397/380/397 
f 96/98/96 97/99/97 398/381/398 
f 97/99/97 399/382/399 398/381/398 
f 97/99/97 98/100/98 399/382/399 
f 98/100/98 400/383/400 399/382/399 
f 98/100/98 31/31/31 400/383/400 
f 31/31/31 34/34/34 400/383/400 
f 326/297/326 376/313/376 308/299/308 
f 376/313/376 312/303/312 308/299/308 
f 328/301/328 187/184/187 380/322/380 
f 328/301/328 188/185/188 187/184/187 
f 303/294/303 305/296/305 375/311/375 
f 305/296/305 328/301/328 375/311/375 
f 309/300/309 188/185/188 328/301/328 
f 309/300/309 310/301/310 188/185/188 
f 310/301/310 205/184/205 188/185/188 
f 310/301/310 329/322/329 205/184/205 
f 329/322/329 158/161/158 205/184/205 
f 329/322/329 157/160/157 158/161/158 
f 321/303/321 157/160/157 329/322/329 
f 321/303/321 311/302/311 157/160/157 
f 311/302/311 215/203/215 157/160/157 
f 311/302/311 312/303/312 215/203/215 
f 312/303/312 216/160/216 215/203/215 
f 312/303/312 380/322/380 216/160/216 
f 380/322/380 186/161/186 216/160/216 
f 380/322/380 187/184/187 186/161/186 
f 334/324/334 104/110/104 103/109/103 
f 112/121/112 300/293/300 299/292/299 
f 112/121/112 236/218/236 300/293/300 
f 236/218/236 278/266/278 300/293/300 
f 25/25/25 26/26/26 254/260/254 
f 26/26/26 272/258/272 254/260/254 
f 26/26/26 291/282/291 272/258/272 
f 314/307/314 387/371/387 313/305/313 
f 314/307/314 332/305/332 387/371/387 
f 332/305/332 388/370/388 387/371/387 
f 332/305/332 333/323/333 388/370/388 
f 333/323/333 383/369/383 388/370/388 
f 333/323/333 382/368/382 383/369/383 
f 315/309/315 391/372/391 255/239/255 
f 315/309/315 330/239/330 391/372/391 
f 330/239/330 392/368/392 391/372/391 
f 330/239/330 331/323/331 392/368/392 
f 331/323/331 386/369/386 392/368/392 
f 331/323/331 384/370/384 386/369/386 
f 323/316/323 273/384/273 290/281/290 
f 323/316/323 274/385/274 273/384/273 
f 313/305/313 384/370/384 331/323/331 
f 313/305/313 387/371/387 384/370/384 
f 255/239/255 382/368/382 333/323/333 
f 255/239/255 391/372/391 382/368/382 
f 170/386/170 162/165/162 266/387/266 
f 162/165/162 210/200/210 266/387/266 
f 9/9/9 28/28/28 210/200/210 
f 28/28/28 266/387/266 210/200/210 
f 46/50/46 52/51/52 401/388/401 
f 52/51/52 37/389/37 401/388/401 
f 52/51/52 54/53/54 37/389/37 
f 54/53/54 39/390/39 37/389/37 
f 54/53/54 41/391/41 39/390/39 
f 49/50/49 57/51/57 42/388/42 
f 57/51/57 402/389/402 42/388/42 
f 57/51/57 403/53/403 402/389/402 
f 403/53/403 404/390/404 402/389/402 
f 403/53/403 405/391/405 404/390/404 
f 55/54/55 41/391/41 54/53/54 
f 55/54/55 42/392/42 41/391/41 
f 56/49/56 351/52/351 57/51/57 
f 351/52/351 403/53/403 57/51/57 
f 351/52/351 58/54/58 403/53/403 
f 58/54/58 405/391/405 403/53/403 
f 58/54/58 401/392/401 405/391/405 
f 401/392/401 58/54/58 46/46/46 
f 58/54/58 351/52/351 47/47/47 
f 42/392/42 55/54/55 49/46/49 
f 406/393/406 407/394/407 176/179/176 
f 407/394/407 408/395/408 176/179/176 
f 168/377/168 409/396/409 83/105/83 
f 250/234/250 410/395/410 180/153/180 
f 410/395/410 179/179/179 180/153/180 
f 410/395/410 411/394/411 179/179/179 
f 6/6/6 7/7/7 168/172/168 
f 7/7/7 169/173/169 168/172/168 
f 7/7/7 10/10/10 169/173/169 
f 410/395/410 250/234/250 412/397/412 
f 250/234/250 408/395/408 412/397/412 
f 250/234/250 150/153/150 408/395/408 
f 150/153/150 176/179/176 408/395/408 
f 227/211/227 334/324/334 239/398/239 
f 334/324/334 238/399/238 239/398/239 
f 334/324/334 409/396/409 238/399/238 
f 409/396/409 13/400/13 238/399/238 
f 409/396/409 168/377/168 13/400/13 
f 411/394/411 413/393/413 179/179/179 
f 413/393/413 153/156/153 179/179/179 
f 413/393/413 414/401/414 153/156/153 
f 414/401/414 247/231/247 153/156/153 
f 414/401/414 406/393/406 247/231/247 
f 406/393/406 177/156/177 247/231/247 
f 406/393/406 176/179/176 177/156/177 
f 83/105/83 409/396/409 101/106/101 
f 409/396/409 103/109/103 101/106/101 
f 409/396/409 334/324/334 103/109/103 
f 8/8/8 10/10/10 7/7/7 
f 73/69/73 415/402/415 75/71/75 
f 415/402/415 95/95/95 75/71/75 
f 67/73/67 415/402/415 73/69/73 
f 84/82/84 393/403/393 83/81/83 
f 84/82/84 6/91/6 393/403/393 
f 91/89/91 416/404/416 82/80/82 
f 416/404/416 84/82/84 82/80/82 
f 416/404/416 92/90/92 84/82/84 
f 74/70/74 416/404/416 91/89/91 
f 74/70/74 75/71/75 416/404/416 
f 75/71/75 92/90/92 416/404/416 
f 88/86/88 417/405/417 33/33/33 
f 88/86/88 76/74/76 417/405/417 
f 76/74/76 99/101/99 417/405/417 
f 33/33/33 417/405/417 67/63/67 
f 417/405/417 415/406/415 67/63/67 
f 417/405/417 99/101/99 415/406/415 
f 99/101/99 95/103/95 415/406/415 
f 281/269/281 282/270/282 418/407/418 
f 282/270/282 419/408/419 418/407/418 
f 282/270/282 284/272/284 419/408/419 
f 286/274/286 412/397/412 284/272/284 
f 412/397/412 419/408/419 284/272/284 
f 412/397/412 408/395/408 419/408/419 
f 408/395/408 407/394/407 419/408/419 
f 293/284/293 411/394/411 287/275/287 
f 411/394/411 286/274/286 287/275/287 
f 411/394/411 410/395/410 286/274/286 
f 410/395/410 412/397/412 286/274/286 
f 420/409/420 414/401/414 277/264/277 
f 414/401/414 293/284/293 277/264/277 
f 414/401/414 413/393/413 293/284/293 
f 413/393/413 411/394/411 293/284/293 
f 414/401/414 420/409/420 406/393/406 
f 420/409/420 407/394/407 406/393/406 
f 420/409/420 418/407/418 407/394/407 
f 418/407/418 419/408/419 407/394/407 
f 289/277/289 420/409/420 277/264/277 
f 420/409/420 289/277/289 418/407/418 
f 289/277/289 281/269/281 418/407/418 
f 421/410/421 422/411/422 423/412/423 
f 422/411/422 424/413/424 423/412/423 
f 425/414/425 132/141/132 422/411/422 
f 132/141/132 147/146/147 422/411/422 
f 426/415/426 427/415/173 428/416/427 
f 427/415/173 429/417/428 428/416/427 
f 430/418/429 423/412/423 431/419/430 
f 423/412/423 432/420/431 431/419/430 
f 430/418/429 433/416/432 434/419/433 
f 433/416/432 435/421/434 434/419/433 
f 433/416/432 436/415/435 435/421/434 
f 437/422/436 438/423/437 439/424/438 
f 438/423/437 440/425/439 439/424/438 
f 438/423/437 441/421/440 440/425/439 
f 423/412/423 430/418/429 421/410/421 
f 430/418/429 442/412/441 421/410/421 
f 430/418/429 434/419/433 442/412/441 
f 434/419/433 443/420/442 442/412/441 
f 434/419/433 435/421/434 443/420/442 
f 444/426/443 445/413/444 443/420/442 
f 445/413/444 442/412/441 443/420/442 
f 445/413/444 446/411/445 442/412/441 
f 446/411/445 421/410/421 442/412/441 
f 446/411/445 425/414/425 421/410/421 
f 425/414/425 422/411/422 421/410/421 
f 447/427/446 142/146/142 445/413/444 
f 142/146/142 446/411/445 445/413/444 
f 142/146/142 140/141/140 446/411/445 
f 140/141/140 425/414/425 446/411/445 
f 140/141/140 133/142/133 425/414/425 
f 133/142/133 132/141/132 425/414/425 
f 448/428/447 449/429/448 439/424/438 
f 449/429/448 437/422/436 439/424/438 
f 449/429/448 427/415/173 437/422/436 
f 427/415/173 438/423/437 437/422/436 
f 427/415/173 426/415/426 438/423/437 
f 426/415/426 441/421/440 438/423/437 
f 426/415/426 428/416/427 441/421/440 
f 445/413/444 444/426/443 447/427/446 
f 444/426/443 450/430/449 447/427/446 
f 444/426/443 451/431/450 450/430/449 
f 451/431/450 452/432/451 450/430/449 
f 451/431/450 453/433/452 452/432/451 
f 453/433/452 424/413/424 452/432/451 
f 453/433/452 432/420/431 424/413/424 
f 432/420/431 423/412/423 424/413/424 
f 142/146/142 447/427/446 143/147/143 
f 447/427/446 145/149/145 143/147/143 
f 447/427/446 450/430/449 145/149/145 
f 450/430/449 146/150/146 145/149/145 
f 450/430/449 452/432/451 146/150/146 
f 452/432/451 147/146/147 146/150/146 
f 452/432/451 424/413/424 147/146/147 
f 424/413/424 422/411/422 147/146/147 
f 443/420/442 448/428/447 444/426/443 
f 448/428/447 451/431/450 444/426/443 
f 448/428/447 439/424/438 451/431/450 
f 439/424/438 453/433/452 451/431/450 
f 439/424/438 440/425/439 453/433/452 
f 440/425/439 432/420/431 453/433/452 
f 440/425/439 441/421/440 432/420/431 
f 441/421/440 431/419/430 432/420/431 
f 441/421/440 428/416/427 431/419/430 
f 428/416/427 430/418/429 431/419/430 
f 428/416/427 429/417/428 430/418/429 
f 429/417/428 433/416/432 430/418/429 
f 429/417/428 427/415/173 433/416/432 
f 427/415/173 436/415/435 433/416/432 
f 427/415/173 449/429/448 436/415/435 
f 449/429/448 435/421/434 436/415/435 
f 449/429/448 448/428/447 435/421/434 
f 448/428/447 443/420/442 435/421/434 
f 337/327/337 454/326/453 348/325/348 
f 454/326/453 337/327/337 343/328/343 
f 343/333/343 342/332/342 454/341/453 
f 342/332/342 348/331/348 454/341/453 
f 27/27/27 291/282/291 26/26/26 
f 86/84/86 112/121/112 299/292/299 
# 0 polygons - 880 triangles

