# 3ds Max Wavefront OBJ Exporter v0.99 - (c)2007 guruware
# File Created: 07.05.2025 23:26:58

mtllib Brazo_izquierdoPerry.mtl

#
# object BrazoIzq
#

v  1.3279 -0.3210 18.7716
v  1.3279 -0.3210 18.7550
v  1.2772 -0.2879 18.7606
v  1.3575 -0.3005 18.7686
v  1.3481 -0.2937 18.7633
v  1.3364 -0.3269 18.7736
v  1.3279 -0.3210 18.8325
v  1.2772 -0.2879 18.7120
v  1.3279 -0.3210 18.7055
v  1.3358 -0.3263 18.7528
v  1.3568 -0.3001 18.7579
v  1.2176 -0.2532 18.7744
v  1.2196 -0.2547 18.7253
v  1.2772 -0.2879 18.8473
v  1.3279 -0.3210 18.8503
v  1.3481 -0.2937 18.8414
v  1.3575 -0.3005 18.8362
v  1.3364 -0.3269 18.8305
v  1.3741 -0.3569 18.8303
v  1.3741 -0.3569 18.7731
v  1.3961 -0.3283 18.7685
v  1.4161 -0.3013 18.7736
v  1.3784 -0.2723 18.7738
v  1.3703 -0.2638 18.7716
v  1.3703 -0.2638 18.7550
v  1.3777 -0.2718 18.7528
v  1.3689 -0.3522 18.7529
v  1.4104 -0.2974 18.7529
v  1.3904 -0.3244 18.7579
v  1.3689 -0.3522 18.7051
v  1.3358 -0.3263 18.7046
v  1.2996 -0.2576 18.7017
v  1.3481 -0.2937 18.6985
v  1.2436 -0.2161 18.7144
v  1.1688 -0.2078 18.7685
v  1.1909 -0.1779 18.7457
v  1.1688 -0.2078 18.8295
v  1.2144 -0.2495 18.8440
v  1.2772 -0.2879 18.8940
v  1.1964 -0.2456 18.8971
v  1.1514 -0.1971 18.8296
v  1.1888 -0.1763 18.8555
v  1.1514 -0.1971 18.7673
v  1.2163 -0.1436 18.7682
v  1.2006 -0.1303 18.7670
v  1.2682 -0.1830 18.7243
v  1.1745 -0.1657 18.7440
v  1.3184 -0.2215 18.7110
v  1.3703 -0.2638 18.7067
v  1.3777 -0.2718 18.7057
v  1.3568 -0.3001 18.6982
v  1.3935 -0.3664 18.7047
v  1.3904 -0.3244 18.6988
v  1.3935 -0.3664 18.7533
v  1.4317 -0.3147 18.7533
v  1.4124 -0.3408 18.7584
v  1.4008 -0.3714 18.7530
v  1.4008 -0.3714 18.7049
v  1.4124 -0.3408 18.6983
v  1.4104 -0.2974 18.7062
v  1.4317 -0.3147 18.7058
v  1.3196 -0.2198 18.7662
v  1.2694 -0.1813 18.7681
v  1.2163 -0.1436 18.8298
v  1.2006 -0.1303 18.8299
v  1.1844 -0.1167 18.8301
v  1.1844 -0.1167 18.7657
v  1.1336 -0.1860 18.7660
v  1.1576 -0.1532 18.7422
v  1.0681 -0.0158 18.8292
v  1.0345 -0.0624 18.7261
v  1.0681 -0.0158 18.7548
v  1.1726 -0.1643 18.8559
v  1.0335 -0.0616 18.8594
v  1.1558 -0.1519 18.8563
v  1.2694 -0.1813 18.8416
v  1.2509 -0.1697 18.9008
v  1.3196 -0.2198 18.8420
v  1.3703 -0.2638 18.8325
v  1.3190 -0.2207 18.8925
v  1.3314 -0.2308 18.8997
v  1.3703 -0.2638 18.8503
v  1.2633 -0.1752 18.9233
v  1.2189 -0.1994 18.9054
v  1.2273 -0.2037 18.9274
v  1.1336 -0.1860 18.8297
v  1.0025 -0.1068 18.8287
v  0.8833 -0.0264 18.8320
v  0.9205 0.0258 18.8635
v  0.9576 0.0779 18.8325
v  0.9205 0.0258 18.7147
v  0.9576 0.0779 18.7476
v  0.8833 -0.0264 18.7480
v  1.0025 -0.1068 18.7552
v  0.8561 -0.0089 18.8324
v  0.8945 0.0451 18.8662
v  0.9328 0.0988 18.8329
v  0.9328 0.0988 18.7451
v  0.8945 0.0451 18.7118
v  0.8561 -0.0089 18.7456
v  0.8292 0.0102 18.8358
v  0.8292 0.0102 18.7442
v  0.9067 0.1191 18.8363
v  0.8680 0.0647 18.8701
v  0.9067 0.1191 18.7438
v  0.8680 0.0647 18.7100
v  0.6843 0.1074 18.7430
v  0.7352 0.1593 18.7068
v  0.7352 0.1593 18.8788
v  0.6843 0.1074 18.8431
v  0.7852 0.2116 18.8436
v  0.7852 0.2116 18.7424
v  0.6552 0.2188 18.7060
v  0.7082 0.2793 18.7418
v  0.6022 0.1622 18.7424
v  0.6552 0.2188 18.8834
v  0.6022 0.1622 18.8449
v  0.7082 0.2793 18.8454
v  0.6385 0.3424 18.7401
v  0.6030 0.2563 18.6997
v  0.5682 0.1777 18.7407
v  0.5682 0.1777 18.8502
v  0.6030 0.2563 18.8912
v  0.6385 0.3424 18.8508
v  0.5272 0.2768 18.6952
v  0.5399 0.3733 18.7375
v  0.5399 0.3733 18.8534
v  0.5137 0.1801 18.7381
v  0.5272 0.2768 18.8957
v  0.5137 0.1801 18.8528
v  1.2051 -0.2572 18.9223
v  1.2806 -0.2935 18.9214
v  1.2172 -0.2584 18.9399
v  1.2927 -0.2974 18.9086
v  1.3114 -0.2659 18.9341
v  1.3173 -0.2707 18.9174
v  1.2771 -0.2890 18.9387
v  1.2359 -0.2102 18.9435
v  1.2782 -0.2773 18.9537
v  1.2305 -0.2454 18.9544
v  1.2675 -0.1839 18.9409
v  1.2704 -0.1915 18.9553
v  1.2429 -0.2154 18.9599
v  1.2361 -0.2453 18.9946
v  1.2774 -0.2751 18.9943
v  1.2990 -0.2570 18.9573
v  1.3052 -0.2614 18.9382
v  1.3338 -0.2365 18.9096
v  1.3180 -0.2227 18.9397
v  1.3248 -0.2223 18.9225
v  1.3703 -0.2638 18.9026
v  1.3481 -0.2937 18.9104
v  1.3279 -0.3210 18.9016
v  1.3361 -0.3266 18.8520
v  1.3572 -0.3004 18.8462
v  1.3572 -0.3004 18.9083
v  1.3361 -0.3266 18.9001
v  1.3782 -0.2721 18.9010
v  1.3782 -0.2721 18.8520
v  1.3115 -0.2231 18.9546
v  1.2725 -0.1962 18.9953
v  1.2474 -0.2190 19.0027
v  1.2368 -0.2458 19.0048
v  1.2777 -0.2756 19.0052
v  1.2962 -0.2552 19.0031
v  1.3091 -0.2243 18.9951
v  1.2731 -0.1967 19.0055
v  1.2481 -0.2197 19.0127
v  1.2345 -0.2465 19.0448
v  1.2780 -0.2784 19.0448
v  1.2965 -0.2556 19.0137
v  1.3097 -0.2247 19.0059
v  1.2696 -0.1990 19.0449
v  1.2465 -0.2189 19.0449
v  1.2771 -0.2687 19.0722
v  1.2436 -0.2439 19.0712
v  1.2980 -0.2570 19.0449
v  1.3085 -0.2288 19.0449
v  1.2738 -0.2031 19.0826
v  1.2551 -0.2196 19.0895
v  1.2949 -0.2491 19.0911
v  1.3038 -0.2262 19.0836
v  1.3784 -0.2723 18.8304
v  1.4161 -0.3013 18.8298
v  1.4139 -0.3000 18.8523
v  1.3939 -0.3270 18.8465
v  1.3724 -0.3549 18.8523
v  1.4354 -0.3166 18.8514
v  1.4139 -0.3000 18.9008
v  1.3963 -0.3694 18.8514
v  1.4157 -0.3432 18.8454
v  1.3724 -0.3549 18.8998
v  1.3963 -0.3694 18.9007
v  1.3939 -0.3270 18.9079
v  1.4157 -0.3432 18.9089
v  1.4050 -0.3755 18.9005
v  1.4050 -0.3755 18.8517
v  1.4242 -0.3495 18.8457
v  1.4437 -0.3232 18.8517
v  1.4354 -0.3166 18.9016
v  1.4242 -0.3495 18.9087
v  1.4437 -0.3232 18.9015
v  1.4453 -0.3651 18.9068
v  1.4260 -0.3911 18.8991
v  1.4260 -0.3911 18.8532
v  1.4453 -0.3651 18.8476
v  1.4646 -0.3389 18.8532
v  1.4646 -0.3389 18.9001
v  1.4515 -0.4080 18.8995
v  1.4698 -0.3833 18.9072
v  1.4891 -0.3573 18.9005
v  1.4515 -0.4080 18.8528
v  1.4698 -0.3833 18.8472
v  1.4891 -0.3573 18.8528
v  1.4963 -0.3630 18.9003
v  1.4963 -0.3630 18.8531
v  1.4772 -0.3888 18.9070
v  1.4591 -0.4132 18.8993
v  1.4591 -0.4132 18.8531
v  1.4772 -0.3888 18.8474
v  1.5404 -0.3965 18.8569
v  1.5404 -0.3965 18.8967
v  1.5247 -0.4240 18.9022
v  1.4925 -0.4316 18.8959
v  1.4925 -0.4316 18.8569
v  1.5247 -0.4240 18.8521
v  1.3961 -0.3283 18.8355
v  1.4397 -0.3201 18.8302
v  1.4397 -0.3201 18.7732
v  1.4205 -0.3461 18.8360
v  1.4006 -0.3729 18.8310
v  1.4006 -0.3729 18.7723
v  1.4085 -0.3785 18.8308
v  1.4283 -0.3518 18.8357
v  1.4473 -0.3261 18.8299
v  1.4473 -0.3261 18.7735
v  1.4205 -0.3461 18.7680
v  1.4731 -0.3466 18.7761
v  1.4283 -0.3518 18.7684
v  1.4731 -0.3466 18.8273
v  1.4549 -0.3713 18.8326
v  1.4353 -0.3976 18.8286
v  1.4353 -0.3976 18.7748
v  1.4085 -0.3785 18.7725
v  1.4549 -0.3713 18.7715
v  1.4817 -0.3908 18.7708
v  1.5000 -0.3661 18.7755
v  1.4817 -0.3908 18.8333
v  1.5000 -0.3661 18.8279
v  1.4625 -0.4166 18.8296
v  1.4625 -0.4166 18.7738
v  1.4695 -0.4215 18.7740
v  1.4886 -0.3958 18.7712
v  1.5066 -0.3715 18.7759
v  1.5066 -0.3715 18.8276
v  1.4695 -0.4215 18.8294
v  1.4886 -0.3958 18.8329
v  1.5110 -0.4462 18.7769
v  1.5409 -0.4342 18.7751
v  1.5556 -0.4087 18.7792
v  1.5556 -0.4087 18.8244
v  1.5110 -0.4462 18.8266
v  1.5409 -0.4342 18.8290
v  1.4386 -0.3203 18.7060
v  1.4386 -0.3203 18.7530
v  1.4602 -0.3374 18.7510
v  1.4196 -0.3461 18.7581
v  1.4417 -0.3624 18.7010
v  1.4602 -0.3374 18.7078
v  1.4196 -0.3461 18.6986
v  1.4804 -0.3523 18.7072
v  1.4618 -0.3774 18.7004
v  1.4442 -0.4011 18.7062
v  1.4232 -0.3873 18.7068
v  1.4804 -0.3523 18.7516
v  1.4417 -0.3624 18.7557
v  1.4232 -0.3873 18.7510
v  1.4442 -0.4011 18.7516
v  1.4618 -0.3774 18.7563
v  1.4866 -0.3574 18.7512
v  1.4866 -0.3574 18.7075
v  1.4509 -0.4056 18.7066
v  1.4683 -0.3822 18.7008
v  1.4509 -0.4056 18.7512
v  1.4683 -0.3822 18.7559
v  1.5299 -0.3909 18.7471
v  1.5123 -0.4148 18.7510
v  1.5123 -0.4148 18.7057
v  1.5299 -0.3909 18.7112
v  1.4863 -0.4248 18.7104
v  1.4863 -0.4248 18.7471
# 291 vertices

vn 0.2382 0.9291 0.2830
vn 0.2229 0.9342 -0.2785
vn 0.5245 0.8514 -0.0006
vn -0.1521 0.1340 0.9792
vn -0.7669 0.6415 0.0168
vn 0.4146 0.6569 0.6297
vn 0.2448 0.9277 -0.2817
vn 0.4932 0.6081 0.6221
vn 0.4724 0.6169 0.6295
vn 0.3953 0.6739 -0.6242
vn -0.1673 0.1497 -0.9745
vn 0.5965 0.8026 -0.0037
vn 0.6158 0.5220 0.5902
vn 0.5322 0.8466 -0.0026
vn 0.2521 0.9266 0.2790
vn -0.7656 0.6432 0.0125
vn -0.1563 0.1374 -0.9781
vn 0.4144 0.6619 -0.6247
vn 0.4428 0.6320 -0.6360
vn 0.4431 0.6227 0.6449
vn -0.0014 -0.0153 0.9999
vn -0.4645 -0.6022 0.6493
vn -0.5764 -0.5264 0.6250
vn -0.8417 -0.4766 0.2539
vn -0.8459 -0.4733 -0.2460
vn -0.5905 -0.5139 -0.6223
vn 0.4345 0.6349 -0.6388
vn -0.4689 -0.5983 -0.6497
vn 0.0036 -0.0055 -1.0000
vn 0.4378 0.6478 0.6235
vn 0.4626 0.5983 0.6542
vn 0.1091 -0.0526 0.9926
vn 0.0297 -0.0320 0.9990
vn 0.2570 -0.1709 0.9512
vn 0.6278 0.6596 0.4133
vn 0.2219 -0.1266 0.9668
vn 0.7017 0.6458 -0.3010
vn 0.5767 0.8153 0.0510
vn 0.4904 0.8694 0.0612
vn 0.8971 0.3924 -0.2030
vn 0.4651 0.7518 -0.4675
vn 0.4501 -0.3007 -0.8408
vn 0.4347 0.7562 0.4890
vn -0.4684 -0.7711 0.4313
vn -0.5757 -0.6347 0.5154
vn -0.2634 -0.7335 0.6266
vn -0.0540 0.0742 0.9958
vn -0.4036 -0.6449 0.6490
vn -0.5090 -0.6058 0.6114
vn -0.4914 -0.5720 0.6568
vn -0.0020 -0.0129 0.9999
vn 0.4049 0.6450 0.6482
vn -0.0124 -0.0135 0.9998
vn 0.3965 0.6352 -0.6628
vn -0.4777 -0.5843 -0.6560
vn -0.0070 0.0069 -1.0000
vn 0.4009 0.6405 -0.6550
vn 0.4101 0.6490 0.6408
vn -0.0161 -0.0057 0.9999
vn -0.4864 -0.6133 0.6223
vn -0.4904 -0.6031 0.6291
vn -0.6300 -0.7763 0.0190
vn -0.5938 -0.8043 0.0236
vn -0.4419 -0.8325 -0.3342
vn -0.5613 -0.6632 -0.4950
vn -0.5578 -0.6601 -0.5031
vn -0.5805 -0.6292 0.5169
vn 0.4275 0.7581 0.4925
vn -0.0661 0.0767 0.9949
vn -0.5593 -0.6505 -0.5138
vn -0.0669 0.0660 0.9956
vn -0.5788 -0.6253 0.5235
vn -0.0016 0.0371 -0.9993
vn -0.0209 0.0274 -0.9994
vn -0.0081 0.0332 -0.9994
vn -0.5938 -0.8045 -0.0127
vn -0.0395 -0.9537 -0.2983
vn -0.6307 -0.7760 -0.0079
vn -0.8394 -0.4811 -0.2529
vn -0.6194 -0.7847 0.0227
vn -0.6885 -0.7241 -0.0406
vn -0.8348 -0.4901 0.2506
vn -0.0965 -0.9546 -0.2817
vn 0.7065 -0.5008 -0.5001
vn 0.7037 -0.5217 -0.4822
vn 0.4612 0.7486 -0.4763
vn 0.4681 0.7314 -0.4959
vn 0.4642 0.7105 -0.5290
vn -0.0467 0.0340 -0.9983
vn -0.5579 -0.6402 -0.5280
vn -0.0700 0.0486 0.9964
vn -0.5770 -0.6332 0.5159
vn 0.4453 0.7319 0.5158
vn 0.4399 0.7388 0.5106
vn 0.4550 0.7307 -0.5090
vn -0.0768 0.0612 -0.9952
vn -0.5652 -0.6505 -0.5074
vn -0.5599 -0.6430 0.5226
vn -0.0588 0.0434 0.9973
vn 0.4534 0.7233 0.5208
vn 0.4484 0.7198 -0.5300
vn 0.4710 0.7069 0.5277
vn -0.5490 -0.6483 -0.5275
vn -0.0690 0.0504 -0.9963
vn -0.5287 -0.6659 0.5264
vn -0.0304 0.0218 0.9993
vn 0.4731 0.7063 0.5266
vn -0.0088 0.0220 0.9997
vn -0.0347 0.0410 -0.9986
vn 0.4597 0.7149 -0.5268
vn -0.5458 -0.6417 -0.5388
vn -0.5381 -0.6531 0.5329
vn -0.0393 0.0456 0.9982
vn -0.5645 -0.6259 0.5381
vn 0.3942 0.7467 0.5358
vn -0.0685 0.0596 -0.9959
vn 0.3752 0.7748 -0.5088
vn -0.5794 -0.6199 -0.5292
vn -0.4333 -0.7412 0.5128
vn -0.0808 0.0070 0.9967
vn 0.1766 0.8044 0.5672
vn 0.1581 0.8063 -0.5699
vn -0.0945 0.0109 -0.9955
vn -0.4393 -0.7351 -0.5164
vn -0.0703 -0.0037 0.9975
vn -0.2673 -0.8101 0.5218
vn -0.2673 -0.8101 -0.5218
vn 0.0106 0.8414 0.5402
vn -0.0703 -0.0037 -0.9975
vn 0.0106 0.8414 -0.5402
vn 0.8544 0.4423 -0.2727
vn 0.0320 0.9776 -0.2081
vn 0.7009 0.4066 -0.5860
vn 0.2079 0.8821 -0.4227
vn -0.6302 0.4380 -0.6410
vn -0.4704 0.3749 -0.7989
vn -0.0500 0.8999 -0.4332
vn 0.6956 -0.4954 -0.5203
vn -0.1472 0.9004 -0.4095
vn 0.8435 0.1659 -0.5108
vn -0.0474 -0.8917 -0.4502
vn -0.0309 -0.9475 -0.3183
vn 0.7798 -0.5512 -0.2970
vn 0.9551 0.2826 -0.0886
vn -0.0775 0.9968 -0.0174
vn -0.8175 0.5354 -0.2123
vn -0.5972 0.3895 -0.7012
vn -0.7674 -0.3581 -0.5318
vn -0.8679 -0.3035 -0.3931
vn -0.8461 -0.4645 -0.2616
vn -0.6025 -0.5194 -0.6060
vn -0.1297 0.1264 -0.9835
vn 0.3639 0.7099 -0.6030
vn 0.4141 0.6613 0.6255
vn -0.1423 0.1308 0.9811
vn -0.0627 0.0720 -0.9954
vn 0.4317 0.6718 -0.6019
vn -0.5596 -0.5444 -0.6249
vn -0.5721 -0.5316 0.6246
vn -0.9217 -0.2977 -0.2487
vn 0.0293 -0.9956 -0.0886
vn 0.8108 -0.5745 -0.1122
vn 0.9603 0.2789 -0.0016
vn -0.1068 0.9926 0.0573
vn -0.8390 0.5441 -0.0017
vn -0.9625 -0.2704 -0.0241
vn 0.0095 -0.9982 -0.0586
vn 0.8120 -0.5833 -0.0188
vn 0.9578 0.2572 -0.1281
vn -0.0924 0.9882 -0.1224
vn -0.8415 0.5383 0.0454
vn -0.9659 -0.2588 -0.0075
vn 0.0716 -0.9945 -0.0760
vn 0.8128 -0.5785 -0.0692
vn 0.0040 0.8584 -0.5129
vn 0.8104 0.2886 -0.5098
vn -0.8386 0.5417 -0.0577
vn -0.9698 -0.2342 -0.0675
vn -0.0454 -0.8500 -0.5248
vn 0.5624 -0.2923 -0.7734
vn -0.4446 0.4159 -0.7933
vn -0.7901 -0.3066 -0.5308
vn -0.5806 -0.5273 -0.6204
vn -0.4735 -0.6050 -0.6401
vn -0.4645 -0.6114 0.6407
vn 0.0084 -0.0096 0.9999
vn 0.4453 0.6360 0.6303
vn -0.4643 -0.6041 0.6477
vn -0.4720 -0.6207 -0.6260
vn 0.4186 0.6291 0.6550
vn 0.0063 -0.0028 1.0000
vn 0.4551 0.6521 -0.6064
vn 0.4320 0.6467 -0.6286
vn 0.0146 0.0019 -0.9999
vn 0.0153 0.0089 -0.9998
vn 0.4390 0.6482 -0.6222
vn 0.4237 0.6331 0.6479
vn -0.0381 0.0301 0.9988
vn -0.4860 -0.5872 0.6473
vn -0.4710 -0.6145 -0.6329
vn -0.0293 0.0419 -0.9987
vn -0.4912 -0.5981 -0.6332
vn -0.0118 0.0292 -0.9995
vn 0.4479 0.6568 -0.6066
vn 0.4350 0.6441 0.6292
vn -0.0215 0.0182 0.9996
vn -0.4757 -0.6077 0.6360
vn -0.4798 -0.6172 -0.6235
vn 0.4391 0.6478 -0.6225
vn 0.0059 0.0205 -0.9998
vn -0.4738 -0.6129 -0.6324
vn 0.4259 0.6324 0.6470
vn -0.0034 0.0083 1.0000
vn -0.4687 -0.6037 0.6449
vn -0.4930 -0.5925 -0.6372
vn -0.4892 -0.5824 0.6493
vn -0.0306 0.0569 -0.9979
vn 0.3905 0.6883 -0.6114
vn 0.3754 0.6749 0.6353
vn -0.0408 0.0452 0.9981
vn -0.8416 -0.1828 0.5082
vn -0.8453 -0.1872 -0.5004
vn -0.4701 0.6027 -0.6447
vn 0.1380 0.8536 -0.5023
vn 0.1263 0.8423 0.5241
vn -0.4753 0.6060 0.6378
vn -0.0085 -0.0104 -0.9999
vn -0.4763 -0.5944 -0.6479
vn -0.4725 -0.5891 0.6555
vn -0.0172 -0.0072 -0.9998
vn 0.4112 0.6229 -0.6655
vn 0.4072 0.6173 0.6732
vn 0.4111 0.6297 -0.6591
vn -0.0617 0.0204 -0.9979
vn -0.5017 -0.5759 -0.6455
vn -0.4977 -0.5714 0.6525
vn -0.0173 -0.0073 0.9998
vn -0.4798 -0.5969 0.6430
vn -0.0604 0.0207 0.9980
vn -0.4813 -0.6024 -0.6368
vn -0.0430 -0.0012 -0.9991
vn 0.4265 0.6316 -0.6475
vn 0.4228 0.6268 0.6545
vn 0.4063 0.6247 0.6668
vn -0.0431 0.0002 0.9991
vn -0.0284 -0.0174 0.9994
vn -0.4655 -0.5978 0.6526
vn -0.0282 -0.0170 -0.9995
vn -0.4692 -0.6030 -0.6451
vn 0.4248 0.6072 -0.6714
vn 0.4207 0.6017 0.6789
vn 0.3779 0.6397 0.6693
vn -0.0623 0.0072 0.9980
vn -0.4900 -0.5765 0.6538
vn -0.4932 -0.5822 -0.6464
vn 0.3823 0.6448 -0.6619
vn -0.0619 0.0076 -0.9981
vn 0.0631 0.8197 0.5693
vn -0.5217 0.5562 0.6469
vn -0.8361 -0.1804 0.5181
vn -0.8391 -0.1834 -0.5122
vn 0.0674 0.8246 -0.5617
vn -0.5203 0.5526 -0.6511
vn -0.5093 -0.5881 0.6283
vn -0.4982 -0.5694 -0.6538
vn -0.4788 -0.5970 -0.6437
vn -0.0473 0.0380 -0.9982
vn -0.0314 0.0065 0.9995
vn -0.4866 -0.6146 0.6208
vn -0.0580 0.0253 0.9980
vn -0.4840 -0.6094 0.6280
vn -0.0168 -0.0003 0.9999
vn 0.4180 0.6421 0.6427
vn 0.4290 0.6527 0.6245
vn -0.4727 -0.5917 -0.6530
vn -0.0233 0.0208 -0.9995
vn 0.4215 0.6456 -0.6368
vn 0.4100 0.6334 -0.6563
vn -0.0085 0.0116 -0.9999
vn -0.5038 -0.5595 -0.6582
vn -0.5130 -0.5783 0.6344
vn 0.3636 0.6863 0.6299
vn -0.0647 0.0409 0.9971
vn 0.3545 0.6791 -0.6427
vn -0.0563 0.0530 -0.9970
vn -0.8495 -0.1253 -0.5125
vn -0.4702 0.5935 -0.6532
vn -0.4737 0.5785 0.6640
vn -0.8570 -0.1340 0.4976
vn 0.0718 0.8559 0.5121
vn 0.0655 0.8495 -0.5235
# 291 vertex normals

vt 0.5466 0.0192 0.0000
vt 0.5466 0.0161 0.0000
vt 0.5581 0.0171 0.0000
vt 0.5445 0.0187 0.0000
vt 0.5466 0.0176 0.0000
vt 0.5447 0.0196 0.0000
vt 0.5466 0.0307 0.0000
vt 0.5581 0.0079 0.0000
vt 0.5466 0.0067 0.0000
vt 0.5448 0.0157 0.0000
vt 0.5446 0.0166 0.0000
vt 0.5710 0.0198 0.0000
vt 0.5706 0.0105 0.0000
vt 0.5581 0.0335 0.0000
vt 0.5466 0.0341 0.0000
vt 0.5466 0.0324 0.0000
vt 0.5445 0.0314 0.0000
vt 0.5447 0.0304 0.0000
vt 0.5356 0.0303 0.0000
vt 0.5356 0.0195 0.0000
vt 0.7776 0.0185 0.0000
vt 0.7686 0.0185 0.0000
vt 0.7686 0.0195 0.0000
vt 0.7776 0.0195 0.0000
vt 0.7797 0.0175 0.0000
vt 0.5355 0.0186 0.0000
vt 0.7797 0.0191 0.0000
vt 0.7797 0.0159 0.0000
vt 0.7777 0.0155 0.0000
vt 0.7777 0.0165 0.0000
vt 0.5369 0.0157 0.0000
vt 0.7699 0.0155 0.0000
vt 0.7699 0.0165 0.0000
vt 0.5368 0.0166 0.0000
vt 0.5369 0.0066 0.0000
vt 0.5448 0.0065 0.0000
vt 0.5581 0.0060 0.0000
vt 0.5466 0.0054 0.0000
vt 0.5713 0.0084 0.0000
vt 0.5836 0.0186 0.0000
vt 0.5836 0.0143 0.0000
vt 0.5836 0.0302 0.0000
vt 0.5719 0.0329 0.0000
vt 0.5581 0.0424 0.0000
vt 0.5751 0.0430 0.0000
vt 0.5874 0.0302 0.0000
vt 0.5841 0.0351 0.0000
vt 0.5874 0.0184 0.0000
vt 0.8167 0.0184 0.0000
vt 0.8206 0.0182 0.0000
vt 0.8167 0.0142 0.0000
vt 0.8044 0.0101 0.0000
vt 0.8206 0.0138 0.0000
vt 0.8044 0.0083 0.0000
vt 0.5874 0.0140 0.0000
vt 0.7912 0.0059 0.0000
vt 0.7924 0.0076 0.0000
vt 0.7797 0.0068 0.0000
vt 0.7797 0.0052 0.0000
vt 0.7777 0.0066 0.0000
vt 0.7777 0.0052 0.0000
vt 0.5446 0.0053 0.0000
vt 0.5316 0.0066 0.0000
vt 0.5368 0.0054 0.0000
vt 0.5316 0.0157 0.0000
vt 0.7647 0.0156 0.0000
vt 0.5316 0.0167 0.0000
vt 0.7647 0.0166 0.0000
vt 0.5299 0.0157 0.0000
vt 0.5299 0.0066 0.0000
vt 0.5316 0.0053 0.0000
vt 0.7699 0.0067 0.0000
vt 0.7699 0.0053 0.0000
vt 0.7647 0.0066 0.0000
vt 0.7647 0.0052 0.0000
vt 0.7924 0.0180 0.0000
vt 0.8044 0.0184 0.0000
vt 0.8167 0.0301 0.0000
vt 0.8206 0.0301 0.0000
vt 0.8246 0.0301 0.0000
vt 0.8246 0.0179 0.0000
vt 0.5914 0.0182 0.0000
vt 0.5914 0.0136 0.0000
vt 0.8245 0.0135 0.0000
vt 0.8536 0.0300 0.0000
vt 0.8535 0.0105 0.0000
vt 0.8536 0.0159 0.0000
vt 0.8210 0.0350 0.0000
vt 0.8537 0.0357 0.0000
vt 0.8250 0.0351 0.0000
vt 0.8172 0.0349 0.0000
vt 0.8044 0.0323 0.0000
vt 0.8085 0.0435 0.0000
vt 0.7924 0.0324 0.0000
vt 0.7797 0.0306 0.0000
vt 0.7924 0.0419 0.0000
vt 0.7894 0.0433 0.0000
vt 0.7797 0.0340 0.0000
vt 0.8060 0.0478 0.0000
vt 0.8100 0.0444 0.0000
vt 0.8083 0.0486 0.0000
vt 0.5879 0.0352 0.0000
vt 0.5769 0.0445 0.0000
vt 0.5914 0.0302 0.0000
vt 0.5919 0.0352 0.0000
vt 0.6202 0.0300 0.0000
vt 0.6206 0.0358 0.0000
vt 0.6521 0.0307 0.0000
vt 0.6523 0.0366 0.0000
vt 0.8854 0.0364 0.0000
vt 0.8856 0.0306 0.0000
vt 0.8854 0.0083 0.0000
vt 0.8856 0.0145 0.0000
vt 0.6521 0.0148 0.0000
vt 0.6202 0.0161 0.0000
vt 0.6204 0.0106 0.0000
vt 0.6523 0.0085 0.0000
vt 0.6582 0.0307 0.0000
vt 0.8915 0.0370 0.0000
vt 0.6584 0.0371 0.0000
vt 0.8918 0.0307 0.0000
vt 0.8918 0.0141 0.0000
vt 0.8915 0.0078 0.0000
vt 0.6582 0.0143 0.0000
vt 0.6584 0.0079 0.0000
vt 0.6644 0.0314 0.0000
vt 0.6644 0.0140 0.0000
vt 0.8980 0.0313 0.0000
vt 0.8978 0.0377 0.0000
vt 0.6647 0.0378 0.0000
vt 0.8980 0.0138 0.0000
vt 0.8978 0.0074 0.0000
vt 0.6647 0.0076 0.0000
vt 0.6927 0.0138 0.0000
vt 0.6908 0.0069 0.0000
vt 0.6908 0.0395 0.0000
vt 0.6927 0.0327 0.0000
vt 0.9222 0.0327 0.0000
vt 0.9239 0.0393 0.0000
vt 0.9222 0.0136 0.0000
vt 0.9239 0.0068 0.0000
vt 0.7097 0.0068 0.0000
vt 0.9394 0.0134 0.0000
vt 0.9428 0.0067 0.0000
vt 0.7136 0.0137 0.0000
vt 0.7097 0.0404 0.0000
vt 0.7136 0.0331 0.0000
vt 0.9394 0.0330 0.0000
vt 0.9428 0.0402 0.0000
vt 0.9511 0.0137 0.0000
vt 0.9524 0.0064 0.0000
vt 0.7210 0.0139 0.0000
vt 0.7193 0.0066 0.0000
vt 0.7210 0.0336 0.0000
vt 0.7193 0.0409 0.0000
vt 0.9524 0.0408 0.0000
vt 0.9511 0.0335 0.0000
vt 0.9599 0.0056 0.0000
vt 0.9602 0.0132 0.0000
vt 0.9602 0.0340 0.0000
vt 0.7268 0.0057 0.0000
vt 0.7266 0.0134 0.0000
vt 0.7268 0.0417 0.0000
vt 0.7266 0.0340 0.0000
vt 0.9599 0.0416 0.0000
vt 0.5725 0.0477 0.0000
vt 0.5751 0.0487 0.0000
vt 0.5569 0.0476 0.0000
vt 0.5705 0.0511 0.0000
vt 0.5547 0.0451 0.0000
vt 0.5554 0.0499 0.0000
vt 0.5539 0.0468 0.0000
vt 0.5580 0.0508 0.0000
vt 0.5731 0.0517 0.0000
vt 0.5591 0.0537 0.0000
vt 0.5700 0.0538 0.0000
vt 0.8044 0.0511 0.0000
vt 0.8062 0.0516 0.0000
vt 0.8031 0.0538 0.0000
vt 0.5715 0.0548 0.0000
vt 0.8046 0.0547 0.0000
vt 0.5691 0.0614 0.0000
vt 0.5595 0.0613 0.0000
vt 0.5583 0.0544 0.0000
vt 0.5568 0.0507 0.0000
vt 0.7885 0.0498 0.0000
vt 0.7884 0.0452 0.0000
vt 0.7870 0.0467 0.0000
vt 0.7923 0.0509 0.0000
vt 0.7899 0.0506 0.0000
vt 0.7913 0.0476 0.0000
vt 0.7797 0.0439 0.0000
vt 0.7797 0.0453 0.0000
vt 0.5466 0.0455 0.0000
vt 0.5466 0.0438 0.0000
vt 0.5448 0.0344 0.0000
vt 0.5445 0.0333 0.0000
vt 0.5445 0.0451 0.0000
vt 0.5448 0.0435 0.0000
vt 0.7776 0.0436 0.0000
vt 0.7776 0.0449 0.0000
vt 0.7776 0.0343 0.0000
vt 0.7933 0.0537 0.0000
vt 0.8022 0.0614 0.0000
vt 0.5704 0.0629 0.0000
vt 0.8035 0.0628 0.0000
vt 0.5690 0.0633 0.0000
vt 0.5594 0.0634 0.0000
vt 0.5589 0.0630 0.0000
vt 0.7935 0.0613 0.0000
vt 0.7914 0.0542 0.0000
vt 0.7920 0.0629 0.0000
vt 0.8021 0.0633 0.0000
vt 0.8033 0.0647 0.0000
vt 0.5702 0.0648 0.0000
vt 0.5692 0.0709 0.0000
vt 0.5590 0.0709 0.0000
vt 0.5588 0.0650 0.0000
vt 0.7934 0.0634 0.0000
vt 0.7919 0.0649 0.0000
vt 0.8023 0.0708 0.0000
vt 0.8036 0.0708 0.0000
vt 0.5705 0.0709 0.0000
vt 0.5602 0.0761 0.0000
vt 0.5681 0.0759 0.0000
vt 0.5584 0.0709 0.0000
vt 0.7931 0.0708 0.0000
vt 0.7915 0.0708 0.0000
vt 0.8012 0.0779 0.0000
vt 0.5691 0.0794 0.0000
vt 0.8022 0.0792 0.0000
vt 0.5598 0.0797 0.0000
vt 0.7941 0.0781 0.0000
vt 0.7929 0.0795 0.0000
vt 0.7797 0.0323 0.0000
vt 0.7776 0.0302 0.0000
vt 0.7686 0.0301 0.0000
vt 0.7776 0.0313 0.0000
vt 0.7776 0.0332 0.0000
vt 0.7690 0.0343 0.0000
vt 0.7690 0.0332 0.0000
vt 0.5361 0.0345 0.0000
vt 0.5359 0.0334 0.0000
vt 0.7639 0.0342 0.0000
vt 0.7690 0.0435 0.0000
vt 0.5308 0.0343 0.0000
vt 0.5308 0.0332 0.0000
vt 0.7639 0.0330 0.0000
vt 0.5361 0.0435 0.0000
vt 0.5308 0.0436 0.0000
vt 0.5359 0.0450 0.0000
vt 0.5308 0.0452 0.0000
vt 0.5288 0.0436 0.0000
vt 0.5288 0.0344 0.0000
vt 0.5288 0.0332 0.0000
vt 0.7619 0.0342 0.0000
vt 0.7619 0.0331 0.0000
vt 0.7639 0.0437 0.0000
vt 0.7690 0.0448 0.0000
vt 0.7639 0.0451 0.0000
vt 0.5288 0.0451 0.0000
vt 0.7619 0.0436 0.0000
vt 0.7619 0.0450 0.0000
vt 0.5238 0.0448 0.0000
vt 0.5238 0.0433 0.0000
vt 0.5238 0.0346 0.0000
vt 0.5238 0.0336 0.0000
vt 0.7569 0.0334 0.0000
vt 0.7569 0.0345 0.0000
vt 0.7569 0.0446 0.0000
vt 0.7569 0.0434 0.0000
vt 0.5181 0.0434 0.0000
vt 0.5181 0.0449 0.0000
vt 0.7512 0.0447 0.0000
vt 0.7512 0.0434 0.0000
vt 0.5181 0.0346 0.0000
vt 0.5181 0.0335 0.0000
vt 0.7512 0.0344 0.0000
vt 0.7512 0.0334 0.0000
vt 0.7494 0.0434 0.0000
vt 0.7494 0.0345 0.0000
vt 0.7494 0.0447 0.0000
vt 0.5163 0.0434 0.0000
vt 0.5163 0.0448 0.0000
vt 0.5163 0.0346 0.0000
vt 0.7494 0.0334 0.0000
vt 0.5163 0.0336 0.0000
vt 0.7389 0.0352 0.0000
vt 0.7389 0.0427 0.0000
vt 0.7382 0.0438 0.0000
vt 0.5092 0.0427 0.0000
vt 0.5051 0.0439 0.0000
vt 0.5092 0.0354 0.0000
vt 0.7382 0.0343 0.0000
vt 0.5051 0.0345 0.0000
vt 0.7686 0.0312 0.0000
vt 0.5355 0.0313 0.0000
vt 0.7628 0.0302 0.0000
vt 0.7628 0.0194 0.0000
vt 0.7628 0.0313 0.0000
vt 0.5297 0.0305 0.0000
vt 0.5297 0.0314 0.0000
vt 0.5297 0.0194 0.0000
vt 0.5279 0.0304 0.0000
vt 0.5279 0.0313 0.0000
vt 0.7610 0.0301 0.0000
vt 0.7610 0.0312 0.0000
vt 0.7610 0.0194 0.0000
vt 0.7628 0.0184 0.0000
vt 0.7548 0.0199 0.0000
vt 0.7610 0.0185 0.0000
vt 0.7548 0.0296 0.0000
vt 0.7548 0.0306 0.0000
vt 0.5217 0.0300 0.0000
vt 0.5217 0.0308 0.0000
vt 0.5217 0.0198 0.0000
vt 0.5279 0.0194 0.0000
vt 0.5297 0.0185 0.0000
vt 0.5279 0.0186 0.0000
vt 0.5217 0.0192 0.0000
vt 0.7548 0.0190 0.0000
vt 0.7485 0.0189 0.0000
vt 0.7485 0.0198 0.0000
vt 0.7485 0.0307 0.0000
vt 0.7485 0.0297 0.0000
vt 0.5154 0.0302 0.0000
vt 0.5154 0.0309 0.0000
vt 0.5154 0.0196 0.0000
vt 0.5154 0.0191 0.0000
vt 0.5138 0.0197 0.0000
vt 0.7469 0.0190 0.0000
vt 0.7469 0.0199 0.0000
vt 0.5138 0.0191 0.0000
vt 0.7469 0.0297 0.0000
vt 0.5138 0.0302 0.0000
vt 0.7469 0.0307 0.0000
vt 0.5138 0.0308 0.0000
vt 0.5047 0.0202 0.0000
vt 0.5015 0.0199 0.0000
vt 0.7353 0.0205 0.0000
vt 0.7346 0.0197 0.0000
vt 0.7353 0.0291 0.0000
vt 0.5047 0.0296 0.0000
vt 0.5015 0.0301 0.0000
vt 0.7346 0.0299 0.0000
vt 0.7630 0.0067 0.0000
vt 0.7630 0.0156 0.0000
vt 0.7578 0.0152 0.0000
vt 0.7630 0.0165 0.0000
vt 0.7578 0.0057 0.0000
vt 0.7578 0.0070 0.0000
vt 0.7630 0.0053 0.0000
vt 0.5299 0.0054 0.0000
vt 0.5247 0.0059 0.0000
vt 0.7530 0.0069 0.0000
vt 0.5199 0.0057 0.0000
vt 0.5199 0.0068 0.0000
vt 0.5247 0.0069 0.0000
vt 0.7530 0.0056 0.0000
vt 0.7530 0.0153 0.0000
vt 0.7578 0.0161 0.0000
vt 0.5299 0.0167 0.0000
vt 0.5247 0.0162 0.0000
vt 0.5247 0.0153 0.0000
vt 0.5199 0.0154 0.0000
vt 0.5199 0.0163 0.0000
vt 0.7530 0.0162 0.0000
vt 0.7515 0.0152 0.0000
vt 0.7515 0.0069 0.0000
vt 0.5184 0.0069 0.0000
vt 0.7515 0.0057 0.0000
vt 0.5184 0.0058 0.0000
vt 0.5184 0.0154 0.0000
vt 0.5184 0.0162 0.0000
vt 0.7515 0.0161 0.0000
vt 0.7412 0.0144 0.0000
vt 0.7412 0.0152 0.0000
vt 0.7412 0.0066 0.0000
vt 0.7412 0.0076 0.0000
vt 0.5109 0.0076 0.0000
vt 0.5081 0.0068 0.0000
vt 0.5109 0.0146 0.0000
vt 0.5081 0.0153 0.0000
# 383 texture coords

o BrazoIzq
g BrazoIzq
usemtl peluches_09___Default
s off
f 1/1/1 2/2/2 3/3/3 
f 1/1/1 4/4/4 5/5/5 
f 6/6/6 4/4/4 1/1/1 
f 7/7/7 1/1/1 3/3/3 
f 7/7/7 6/6/6 1/1/1 
f 2/2/2 1/1/1 5/5/5 
f 3/3/3 2/2/2 8/8/8 
f 2/2/2 9/9/9 8/8/8 
f 2/2/2 10/10/10 9/9/9 
f 10/10/10 2/2/2 11/11/11 
f 2/2/2 5/5/5 11/11/11 
f 12/12/12 3/3/3 13/13/13 
f 3/3/3 8/8/8 13/13/13 
f 14/14/14 3/3/3 12/12/12 
f 14/14/14 7/7/7 3/3/3 
f 7/7/7 15/15/15 16/16/16 
f 7/7/7 14/14/14 15/15/15 
f 17/17/17 7/7/7 16/16/16 
f 18/18/18 7/7/7 17/17/17 
f 18/18/18 6/6/6 7/7/7 
f 18/18/18 19/19/19 6/6/6 
f 19/19/19 20/20/20 6/6/6 
f 6/6/6 20/20/20 4/4/4 
f 4/21/4 21/22/21 22/23/22 
f 23/24/23 4/21/4 22/23/22 
f 23/24/23 5/25/5 4/21/4 
f 20/20/20 21/26/21 4/4/4 
f 5/25/5 23/24/23 24/27/24 
f 25/28/25 5/25/5 24/27/24 
f 25/28/25 26/29/26 5/25/5 
f 26/29/26 11/30/11 5/25/5 
f 10/10/10 11/11/11 27/31/27 
f 28/32/28 29/33/29 11/30/11 
f 26/29/26 28/32/28 11/30/11 
f 11/11/11 29/34/29 27/31/27 
f 10/10/10 30/35/30 31/36/31 
f 30/35/30 10/10/10 27/31/27 
f 10/10/10 31/36/31 9/9/9 
f 8/8/8 9/9/9 32/37/32 
f 9/9/9 33/38/33 32/37/32 
f 9/9/9 31/36/31 33/38/33 
f 13/13/13 8/8/8 34/39/34 
f 8/8/8 32/37/32 34/39/34 
f 12/12/12 13/13/13 35/40/35 
f 35/40/35 13/13/13 36/41/36 
f 13/13/13 34/39/34 36/41/36 
f 37/42/37 12/12/12 35/40/35 
f 38/43/38 12/12/12 37/42/37 
f 38/43/38 14/14/14 12/12/12 
f 14/14/14 39/44/39 15/15/15 
f 14/14/14 38/43/38 39/44/39 
f 40/45/40 38/43/38 37/42/37 
f 38/43/38 40/45/40 39/44/39 
f 37/42/37 41/46/41 42/47/42 
f 40/45/40 37/42/37 42/47/42 
f 41/46/41 37/42/37 35/40/35 
f 41/46/41 35/40/35 43/48/43 
f 43/48/43 35/40/35 36/41/36 
f 44/49/44 45/50/45 36/51/36 
f 46/52/46 44/49/44 36/51/36 
f 45/50/45 47/53/47 36/51/36 
f 34/54/34 46/52/46 36/51/36 
f 43/48/43 36/41/36 47/55/47 
f 32/56/32 48/57/48 34/54/34 
f 48/57/48 46/52/46 34/54/34 
f 49/58/49 48/57/48 32/56/32 
f 49/58/49 32/56/32 33/59/33 
f 50/60/50 33/59/33 51/61/51 
f 50/60/50 49/58/49 33/59/33 
f 31/36/31 51/62/51 33/38/33 
f 31/36/31 30/35/30 51/62/51 
f 30/35/30 52/63/52 53/64/53 
f 52/63/52 30/35/30 54/65/54 
f 30/35/30 27/31/27 54/65/54 
f 30/35/30 53/64/53 51/62/51 
f 29/34/29 54/65/54 27/31/27 
f 28/32/28 55/66/55 29/33/29 
f 29/34/29 56/67/56 54/65/54 
f 55/66/55 56/68/56 29/33/29 
f 52/63/52 54/65/54 57/69/57 
f 56/67/56 57/69/57 54/65/54 
f 52/63/52 58/70/58 59/71/59 
f 58/70/58 52/63/52 57/69/57 
f 52/63/52 59/71/59 53/64/53 
f 60/72/60 51/61/51 53/73/53 
f 61/74/61 60/72/60 53/73/53 
f 61/74/61 53/73/53 59/75/59 
f 60/72/60 50/60/50 51/61/51 
f 60/72/60 26/29/26 50/60/50 
f 26/29/26 49/58/49 50/60/50 
f 25/28/25 48/57/48 49/58/49 
f 26/29/26 25/28/25 49/58/49 
f 25/28/25 62/76/62 48/57/48 
f 48/57/48 62/76/62 46/52/46 
f 46/52/46 63/77/63 44/49/44 
f 62/76/62 63/77/63 46/52/46 
f 63/77/63 64/78/64 44/49/44 
f 64/78/64 65/79/65 44/49/44 
f 65/79/65 45/50/45 44/49/44 
f 65/79/65 66/80/66 45/50/45 
f 45/50/45 67/81/67 47/53/47 
f 66/80/66 67/81/67 45/50/45 
f 68/82/68 47/55/47 69/83/69 
f 68/82/68 43/48/43 47/55/47 
f 69/84/69 47/53/47 67/81/67 
f 66/80/66 70/85/70 67/81/67 
f 71/86/71 67/81/67 72/87/72 
f 71/86/71 69/84/69 67/81/67 
f 70/85/70 72/87/72 67/81/67 
f 66/80/66 65/79/65 73/88/73 
f 70/85/70 66/80/66 74/89/74 
f 66/80/66 75/90/75 74/89/74 
f 66/80/66 73/88/73 75/90/75 
f 65/79/65 64/78/64 42/91/42 
f 65/79/65 42/91/42 73/88/73 
f 63/77/63 76/92/76 64/78/64 
f 76/92/76 77/93/77 64/78/64 
f 64/78/64 77/93/77 42/91/42 
f 62/76/62 78/94/78 63/77/63 
f 78/94/78 76/92/76 63/77/63 
f 78/94/78 62/76/62 79/95/79 
f 62/76/62 24/27/24 79/95/79 
f 62/76/62 25/28/25 24/27/24 
f 80/96/80 78/94/78 81/97/81 
f 78/94/78 80/96/80 76/92/76 
f 81/97/81 78/94/78 82/98/82 
f 78/94/78 79/95/79 82/98/82 
f 80/96/80 77/93/77 76/92/76 
f 80/96/80 83/99/83 77/93/77 
f 77/93/77 84/100/84 42/91/42 
f 77/93/77 85/101/85 84/100/84 
f 83/99/83 85/101/85 77/93/77 
f 41/46/41 73/102/73 42/47/42 
f 84/103/84 40/45/40 42/47/42 
f 41/46/41 86/104/86 73/102/73 
f 86/104/86 75/105/75 73/102/73 
f 87/106/87 74/107/74 75/105/75 
f 86/104/86 87/106/87 75/105/75 
f 87/106/87 88/108/88 74/107/74 
f 88/108/88 89/109/89 74/107/74 
f 70/85/70 74/89/74 89/110/89 
f 90/111/90 70/85/70 89/110/89 
f 70/85/70 90/111/90 72/87/72 
f 91/112/91 71/86/71 72/87/72 
f 91/112/91 72/87/72 92/113/92 
f 90/111/90 92/113/92 72/87/72 
f 93/114/93 94/115/94 71/116/71 
f 93/114/93 71/116/71 91/117/91 
f 94/115/94 69/83/69 71/116/71 
f 94/115/94 68/82/68 69/83/69 
f 88/108/88 94/115/94 93/114/93 
f 88/108/88 87/106/87 94/115/94 
f 87/106/87 68/82/68 94/115/94 
f 87/106/87 86/104/86 68/82/68 
f 86/104/86 41/46/41 43/48/43 
f 86/104/86 43/48/43 68/82/68 
f 95/118/95 88/108/88 93/114/93 
f 88/108/88 95/118/95 89/109/89 
f 90/111/90 89/110/89 96/119/96 
f 95/118/95 96/120/96 89/109/89 
f 97/121/97 90/111/90 96/119/96 
f 90/111/90 97/121/97 92/113/92 
f 97/121/97 98/122/98 92/113/92 
f 99/123/99 92/113/92 98/122/98 
f 99/123/99 91/112/91 92/113/92 
f 93/114/93 91/117/91 100/124/100 
f 100/124/100 91/117/91 99/125/99 
f 95/118/95 93/114/93 100/124/100 
f 95/118/95 101/126/101 96/120/96 
f 95/118/95 100/124/100 102/127/102 
f 101/126/101 95/118/95 102/127/102 
f 103/128/103 96/119/96 104/129/104 
f 97/121/97 96/119/96 103/128/103 
f 101/126/101 104/130/104 96/120/96 
f 105/131/105 97/121/97 103/128/103 
f 97/121/97 105/131/105 98/122/98 
f 106/132/106 99/123/99 98/122/98 
f 105/131/105 106/132/106 98/122/98 
f 102/127/102 99/125/99 106/133/106 
f 102/127/102 100/124/100 99/125/99 
f 107/134/107 102/127/102 108/135/108 
f 101/126/101 102/127/102 107/134/107 
f 102/127/102 106/133/106 108/135/108 
f 109/136/109 101/126/101 110/137/110 
f 101/126/101 109/136/109 104/130/104 
f 110/137/110 101/126/101 107/134/107 
f 111/138/111 104/129/104 109/139/109 
f 111/138/111 103/128/103 104/129/104 
f 112/140/112 103/128/103 111/138/111 
f 112/140/112 105/131/105 103/128/103 
f 105/131/105 112/140/112 106/132/106 
f 112/140/112 108/141/108 106/132/106 
f 107/134/107 108/135/108 113/142/113 
f 112/140/112 114/143/114 108/141/108 
f 114/143/114 113/144/113 108/141/108 
f 115/145/115 107/134/107 113/142/113 
f 110/137/110 107/134/107 115/145/115 
f 116/146/116 110/137/110 117/147/117 
f 116/146/116 109/136/109 110/137/110 
f 117/147/117 110/137/110 115/145/115 
f 118/148/118 109/139/109 116/149/116 
f 118/148/118 111/138/111 109/139/109 
f 114/143/114 111/138/111 118/148/118 
f 114/143/114 112/140/112 111/138/111 
f 119/150/119 120/151/120 114/143/114 
f 119/150/119 114/143/114 118/148/118 
f 114/143/114 120/151/120 113/144/113 
f 121/152/121 115/145/115 113/142/113 
f 121/152/121 113/142/113 120/153/120 
f 117/147/117 115/145/115 121/152/121 
f 122/154/122 116/146/116 117/147/117 
f 122/154/122 117/147/117 121/152/121 
f 116/146/116 122/154/122 123/155/123 
f 123/156/123 118/148/118 116/149/116 
f 124/157/124 118/148/118 123/156/123 
f 119/150/119 118/148/118 124/157/124 
f 120/151/120 119/150/119 125/158/125 
f 119/150/119 126/159/126 125/158/125 
f 119/150/119 127/160/127 126/159/126 
f 127/160/127 119/150/119 124/157/124 
f 121/152/121 120/153/120 125/161/125 
f 128/162/128 121/152/121 125/161/125 
f 122/154/122 121/152/121 128/162/128 
f 122/154/122 129/163/129 123/155/123 
f 122/154/122 130/164/130 129/163/129 
f 130/164/130 122/154/122 128/162/128 
f 124/157/124 123/156/123 129/165/129 
f 127/160/127 124/157/124 129/165/129 
f 40/45/40 131/166/131 39/44/39 
f 84/103/84 85/167/85 40/45/40 
f 40/45/40 85/167/85 131/166/131 
f 39/44/39 131/166/131 132/168/132 
f 131/166/131 133/169/133 132/168/132 
f 85/167/85 133/169/133 131/166/131 
f 39/44/39 132/168/132 134/170/134 
f 15/15/15 39/44/39 134/170/134 
f 135/171/135 136/172/136 132/168/132 
f 136/172/136 134/170/134 132/168/132 
f 132/168/132 133/169/133 137/173/137 
f 135/171/135 132/168/132 137/173/137 
f 85/167/85 138/174/138 133/169/133 
f 139/175/139 133/169/133 140/176/140 
f 138/174/138 140/176/140 133/169/133 
f 133/169/133 139/175/139 137/173/137 
f 83/99/83 141/177/141 85/101/85 
f 141/177/141 138/178/138 85/101/85 
f 141/177/141 142/179/142 138/178/138 
f 138/174/138 143/180/143 140/176/140 
f 142/179/142 143/181/143 138/178/138 
f 139/175/139 140/176/140 144/182/144 
f 143/180/143 144/182/144 140/176/140 
f 145/183/145 139/175/139 144/182/144 
f 146/184/146 139/175/139 145/183/145 
f 146/184/146 147/185/147 139/175/139 
f 147/185/147 137/173/137 139/175/139 
f 147/185/147 135/171/135 137/173/137 
f 135/186/135 148/187/148 136/188/136 
f 149/189/149 135/186/135 147/190/147 
f 149/189/149 150/191/150 135/186/135 
f 150/191/150 148/187/148 135/186/135 
f 151/192/151 152/193/152 136/188/136 
f 136/172/136 152/194/152 153/195/153 
f 148/187/148 151/192/151 136/188/136 
f 136/172/136 153/195/153 134/170/134 
f 153/195/153 15/15/15 134/170/134 
f 153/195/153 154/196/154 15/15/15 
f 154/196/154 155/197/155 15/15/15 
f 16/16/16 15/15/15 155/197/155 
f 152/194/152 156/198/156 153/195/153 
f 156/198/156 157/199/157 153/195/153 
f 157/199/157 154/196/154 153/195/153 
f 151/192/151 158/200/158 152/193/152 
f 158/200/158 156/201/156 152/193/152 
f 158/200/158 151/192/151 159/202/159 
f 148/187/148 81/97/81 151/192/151 
f 151/192/151 82/98/82 159/202/159 
f 81/97/81 82/98/82 151/192/151 
f 150/191/150 81/97/81 148/187/148 
f 150/191/150 80/96/80 81/97/81 
f 80/96/80 150/191/150 83/99/83 
f 150/191/150 141/177/141 83/99/83 
f 150/191/150 149/189/149 141/177/141 
f 149/189/149 142/179/142 141/177/141 
f 149/189/149 160/203/160 142/179/142 
f 142/179/142 161/204/161 143/181/143 
f 160/203/160 161/204/161 142/179/142 
f 143/180/143 162/205/162 144/182/144 
f 161/204/161 162/206/162 143/181/143 
f 145/183/145 144/182/144 163/207/163 
f 162/205/162 163/207/163 144/182/144 
f 164/208/164 145/183/145 163/207/163 
f 165/209/165 145/183/145 164/208/164 
f 165/209/165 146/184/146 145/183/145 
f 166/210/166 146/211/146 165/212/165 
f 166/210/166 160/203/160 146/211/146 
f 160/203/160 147/190/147 146/211/146 
f 160/203/160 149/189/149 147/190/147 
f 160/203/160 166/210/166 161/204/161 
f 166/210/166 167/213/167 161/204/161 
f 161/204/161 167/213/167 162/206/162 
f 167/213/167 168/214/168 162/206/162 
f 162/205/162 168/215/168 163/207/163 
f 164/208/164 163/207/163 169/216/169 
f 168/215/168 169/216/169 163/207/163 
f 170/217/170 164/208/164 169/216/169 
f 171/218/171 164/208/164 170/217/170 
f 171/218/171 165/209/165 164/208/164 
f 172/219/172 165/212/165 171/220/171 
f 172/219/172 166/210/166 165/212/165 
f 166/210/166 172/219/172 167/213/167 
f 172/219/172 173/221/173 167/213/167 
f 167/213/167 173/221/173 168/214/168 
f 173/221/173 174/222/174 168/214/168 
f 168/215/168 174/223/174 169/216/169 
f 170/217/170 169/216/169 175/224/175 
f 169/216/169 176/225/176 175/224/175 
f 174/223/174 176/225/176 169/216/169 
f 177/226/177 170/217/170 175/224/175 
f 177/226/177 171/218/171 170/217/170 
f 178/227/178 171/220/171 177/228/177 
f 178/227/178 172/219/172 171/220/171 
f 172/219/172 178/227/178 173/221/173 
f 178/227/178 179/229/179 173/221/173 
f 173/221/173 179/229/179 174/222/174 
f 174/223/174 180/230/180 176/225/176 
f 179/229/179 180/231/180 174/222/174 
f 181/232/181 175/224/175 176/225/176 
f 180/230/180 181/232/181 176/225/176 
f 181/232/181 177/226/177 175/224/175 
f 182/233/182 178/227/178 177/228/177 
f 182/233/182 177/228/177 181/234/181 
f 178/227/178 182/233/182 179/229/179 
f 179/229/179 182/233/182 180/231/180 
f 182/233/182 181/234/181 180/231/180 
f 16/235/16 159/202/159 82/98/82 
f 79/95/79 16/235/16 82/98/82 
f 23/24/23 79/95/79 24/27/24 
f 23/24/23 183/236/183 79/95/79 
f 79/95/79 183/236/183 16/235/16 
f 183/236/183 23/24/23 184/237/184 
f 184/237/184 23/24/23 22/23/22 
f 183/236/183 17/238/17 16/235/16 
f 183/236/183 184/237/184 17/238/17 
f 16/235/16 155/239/155 159/202/159 
f 155/239/155 185/240/185 159/202/159 
f 155/239/155 186/241/186 185/240/185 
f 154/196/154 187/242/187 155/197/155 
f 187/242/187 186/243/186 155/197/155 
f 158/200/158 159/202/159 185/240/185 
f 186/241/186 188/244/188 185/240/185 
f 189/245/189 185/240/185 188/244/188 
f 189/245/189 158/200/158 185/240/185 
f 190/246/190 191/247/191 186/243/186 
f 187/242/187 190/246/190 186/243/186 
f 186/241/186 191/248/191 188/244/188 
f 192/249/192 193/250/193 187/242/187 
f 193/250/193 190/246/190 187/242/187 
f 192/249/192 187/242/187 154/196/154 
f 157/199/157 192/249/192 154/196/154 
f 192/249/192 156/198/156 194/251/194 
f 192/249/192 157/199/157 156/198/156 
f 193/250/193 192/249/192 194/251/194 
f 193/250/193 195/252/195 196/253/196 
f 193/250/193 194/251/194 195/252/195 
f 197/254/197 193/250/193 196/253/196 
f 193/250/193 197/254/197 190/246/190 
f 190/246/190 197/254/197 191/247/191 
f 197/254/197 198/255/198 191/247/191 
f 191/248/191 199/256/199 188/244/188 
f 191/248/191 198/257/198 199/256/199 
f 200/258/200 189/245/189 188/244/188 
f 200/258/200 188/244/188 199/256/199 
f 158/200/158 189/245/189 156/201/156 
f 189/245/189 194/259/194 156/201/156 
f 189/245/189 200/258/200 194/259/194 
f 200/258/200 195/260/195 194/259/194 
f 195/252/195 201/261/201 196/253/196 
f 200/258/200 202/262/202 195/260/195 
f 202/262/202 201/263/201 195/260/195 
f 201/261/201 203/264/203 196/253/196 
f 196/253/196 203/264/203 204/265/204 
f 196/253/196 204/265/204 205/266/205 
f 197/254/197 196/253/196 205/266/205 
f 206/267/206 197/254/197 205/266/205 
f 197/254/197 206/267/206 198/255/198 
f 198/257/198 206/268/206 199/256/199 
f 199/256/199 206/268/206 207/269/207 
f 202/262/202 199/256/199 207/269/207 
f 202/262/202 200/258/200 199/256/199 
f 203/270/203 202/262/202 208/271/208 
f 202/262/202 203/270/203 201/263/201 
f 208/271/208 202/262/202 207/269/207 
f 203/264/203 209/272/209 204/265/204 
f 203/264/203 210/273/210 209/272/209 
f 210/274/210 203/270/203 211/275/211 
f 203/270/203 208/271/208 211/275/211 
f 204/265/204 212/276/212 205/266/205 
f 204/265/204 209/272/209 212/276/212 
f 206/267/206 205/266/205 212/276/212 
f 213/277/213 206/267/206 212/276/212 
f 206/268/206 214/278/214 207/269/207 
f 206/268/206 213/279/213 214/278/214 
f 208/271/208 207/269/207 214/278/214 
f 211/275/211 208/271/208 214/278/214 
f 210/274/210 211/275/211 215/280/215 
f 215/280/215 211/275/211 216/281/216 
f 211/275/211 214/278/214 216/281/216 
f 217/282/217 210/274/210 215/280/215 
f 210/273/210 218/283/218 209/272/209 
f 210/273/210 217/284/217 218/283/218 
f 209/272/209 219/285/219 212/276/212 
f 209/272/209 218/283/218 219/285/219 
f 213/277/213 212/276/212 219/285/219 
f 213/279/213 216/281/216 214/278/214 
f 213/279/213 220/286/220 216/281/216 
f 220/287/220 213/277/213 219/285/219 
f 220/286/220 221/288/221 216/281/216 
f 215/280/215 216/281/216 221/288/221 
f 217/282/217 215/280/215 222/289/222 
f 222/289/222 215/280/215 221/288/221 
f 223/290/223 217/282/217 222/289/222 
f 217/284/217 224/291/224 218/283/218 
f 217/284/217 223/292/223 224/291/224 
f 218/283/218 225/293/225 219/285/219 
f 218/283/218 224/291/224 225/293/225 
f 220/287/220 219/285/219 225/293/225 
f 220/286/220 226/294/226 221/288/221 
f 226/295/226 220/287/220 225/293/225 
f 222/289/222 221/288/221 226/294/226 
f 223/290/223 222/289/222 226/294/226 
f 223/292/223 226/295/226 224/291/224 
f 226/295/226 225/293/225 224/291/224 
f 184/237/184 227/296/227 17/238/17 
f 19/19/19 17/17/17 227/297/227 
f 19/19/19 18/18/18 17/17/17 
f 184/237/184 228/298/228 227/296/227 
f 228/298/228 184/237/184 229/299/229 
f 184/237/184 22/23/22 229/299/229 
f 228/298/228 230/300/230 227/296/227 
f 231/301/231 227/297/227 230/302/230 
f 231/301/231 19/19/19 227/297/227 
f 19/19/19 231/301/231 20/20/20 
f 231/301/231 232/303/232 20/20/20 
f 231/301/231 233/304/233 232/303/232 
f 233/304/233 231/301/231 230/302/230 
f 233/304/233 230/302/230 234/305/234 
f 228/298/228 235/306/235 230/300/230 
f 235/306/235 234/307/234 230/300/230 
f 235/306/235 228/298/228 236/308/236 
f 228/298/228 229/299/229 236/308/236 
f 21/22/21 229/299/229 22/23/22 
f 21/22/21 237/309/237 229/299/229 
f 237/309/237 236/308/236 229/299/229 
f 235/306/235 236/308/236 238/310/238 
f 239/311/239 238/310/238 236/308/236 
f 237/309/237 239/311/239 236/308/236 
f 235/306/235 240/312/240 241/313/241 
f 235/306/235 241/313/241 234/307/234 
f 240/312/240 235/306/235 238/310/238 
f 242/314/242 234/305/234 241/315/241 
f 242/314/242 233/304/233 234/305/234 
f 243/316/243 233/304/233 242/314/242 
f 233/304/233 243/316/243 244/317/244 
f 233/304/233 244/317/244 232/303/232 
f 20/20/20 232/303/232 21/26/21 
f 232/303/232 237/318/237 21/26/21 
f 232/303/232 244/317/244 237/318/237 
f 244/317/244 239/319/239 237/318/237 
f 244/317/244 243/316/243 239/319/239 
f 243/316/243 245/320/245 239/319/239 
f 239/311/239 245/321/245 238/310/238 
f 245/321/245 246/322/246 238/310/238 
f 238/310/238 246/322/246 247/323/247 
f 240/312/240 238/310/238 247/323/247 
f 240/312/240 248/324/248 241/313/241 
f 248/324/248 240/312/240 249/325/249 
f 249/325/249 240/312/240 247/323/247 
f 250/326/250 241/315/241 248/327/248 
f 250/326/250 242/314/242 241/315/241 
f 243/316/243 242/314/242 250/326/250 
f 251/328/251 243/316/243 250/326/250 
f 243/316/243 251/328/251 245/320/245 
f 251/328/251 246/329/246 245/320/245 
f 251/328/251 252/330/252 246/329/246 
f 246/322/246 253/331/253 254/332/254 
f 252/330/252 253/333/253 246/329/246 
f 246/322/246 254/332/254 247/323/247 
f 249/325/249 247/323/247 254/332/254 
f 248/324/248 249/325/249 255/334/255 
f 255/334/255 249/325/249 254/332/254 
f 256/335/256 250/326/250 248/327/248 
f 257/336/257 248/324/248 255/334/255 
f 256/335/256 248/327/248 257/337/257 
f 251/328/251 250/326/250 256/335/256 
f 252/330/252 251/328/251 256/335/256 
f 252/330/252 256/335/256 258/338/258 
f 252/330/252 258/338/258 253/333/253 
f 258/338/258 259/339/259 253/333/253 
f 253/331/253 260/340/260 254/332/254 
f 253/331/253 259/341/259 260/340/260 
f 255/334/255 254/332/254 260/340/260 
f 257/336/257 255/334/255 261/342/261 
f 261/342/261 255/334/255 260/340/260 
f 262/343/262 256/335/256 257/337/257 
f 262/343/262 257/337/257 263/344/263 
f 263/345/263 257/336/257 261/342/261 
f 256/335/256 262/343/262 258/338/258 
f 258/338/258 262/343/262 259/339/259 
f 262/343/262 263/344/263 259/339/259 
f 263/345/263 261/342/261 259/341/259 
f 261/342/261 260/340/260 259/341/259 
f 26/29/26 60/72/60 28/32/28 
f 60/72/60 61/74/61 28/32/28 
f 28/32/28 61/74/61 55/66/55 
f 264/346/264 61/74/61 59/75/59 
f 61/74/61 265/347/265 55/66/55 
f 61/74/61 264/346/264 265/347/265 
f 55/66/55 265/347/265 56/68/56 
f 264/346/264 266/348/266 265/347/265 
f 265/347/265 266/348/266 267/349/267 
f 265/347/265 267/349/267 56/68/56 
f 268/350/268 269/351/269 264/346/264 
f 268/350/268 264/346/264 270/352/270 
f 264/346/264 269/351/269 266/348/266 
f 264/346/264 59/75/59 270/352/270 
f 58/70/58 270/353/270 59/71/59 
f 58/70/58 268/354/268 270/353/270 
f 269/351/269 268/350/268 271/355/271 
f 272/356/272 268/354/268 273/357/273 
f 268/354/268 274/358/274 273/357/273 
f 268/354/268 58/70/58 274/358/274 
f 271/355/271 268/350/268 272/359/272 
f 269/351/269 271/355/271 266/348/266 
f 275/360/275 266/348/266 271/355/271 
f 266/348/266 276/361/276 267/349/267 
f 266/348/266 275/360/275 276/361/276 
f 56/67/56 267/362/267 57/69/57 
f 267/362/267 276/363/276 57/69/57 
f 57/69/57 276/363/276 277/364/277 
f 276/363/276 278/365/278 277/364/277 
f 276/363/276 279/366/279 278/365/278 
f 275/360/275 279/367/279 276/361/276 
f 280/368/280 275/360/275 271/355/271 
f 275/360/275 280/368/280 279/367/279 
f 271/355/271 272/359/272 281/369/281 
f 280/368/280 271/355/271 281/369/281 
f 272/356/272 273/357/273 282/370/282 
f 272/359/272 283/371/283 281/369/281 
f 283/372/283 272/356/272 282/370/282 
f 273/357/273 274/358/274 278/365/278 
f 282/370/282 273/357/273 284/373/284 
f 273/357/273 278/365/278 284/373/284 
f 274/358/274 58/70/58 277/364/277 
f 274/358/274 277/364/277 278/365/278 
f 58/70/58 57/69/57 277/364/277 
f 279/366/279 284/373/284 278/365/278 
f 279/366/279 285/374/285 284/373/284 
f 280/368/280 285/375/285 279/367/279 
f 280/368/280 281/369/281 286/376/286 
f 287/377/287 280/368/280 286/376/286 
f 280/368/280 287/377/287 285/375/285 
f 283/371/283 288/378/288 281/369/281 
f 281/369/281 289/379/289 286/376/286 
f 288/378/288 289/379/289 281/369/281 
f 283/372/283 282/370/282 290/380/290 
f 288/381/288 283/372/283 290/380/290 
f 282/370/282 284/373/284 291/382/291 
f 290/380/290 282/370/282 291/382/291 
f 285/374/285 291/382/291 284/373/284 
f 285/374/285 287/383/287 291/382/291 
f 290/380/290 291/382/291 287/383/287 
f 288/381/288 290/380/290 287/383/287 
f 288/378/288 287/377/287 289/379/289 
f 287/377/287 286/376/286 289/379/289 
# 0 polygons - 574 triangles

