# 3ds Max Wavefront OBJ Exporter v0.99 - (c)2007 guruware
# File Created: 07.05.2025 23:26:36

mtllib Brazo_derechoPerry.mtl

#
# object BrazoDer
#

v  -0.7922 -0.2102 18.9162
v  -0.8235 -0.1839 18.9120
v  -0.7828 -0.2037 18.9006
v  -0.7732 -0.2584 18.9135
v  -0.7873 -0.2454 18.9274
v  -0.8271 -0.1915 18.9263
v  -0.7999 -0.2154 18.9322
v  -0.8185 -0.1752 18.8947
v  -0.8799 -0.2223 18.8908
v  -0.8740 -0.2227 18.9083
v  -0.8051 -0.1697 18.8728
v  -0.7604 -0.2572 18.8966
v  -0.7504 -0.2456 18.8718
v  -0.7733 -0.1994 18.8790
v  -0.8349 -0.2773 18.9243
v  -0.8331 -0.2890 18.9094
v  -0.8357 -0.2935 18.8919
v  -0.7949 -0.2453 18.9672
v  -0.8066 -0.2190 18.9748
v  -0.8312 -0.1962 18.9661
v  -0.8683 -0.2231 18.9235
v  -0.8670 -0.2659 18.9031
v  -0.8610 -0.2614 18.9075
v  -0.8726 -0.2207 18.8611
v  -0.8853 -0.2308 18.8677
v  -0.8882 -0.2365 18.8775
v  -0.8206 -0.1813 18.8128
v  -0.7407 -0.1763 18.8307
v  -0.7670 -0.1436 18.8036
v  -0.8309 -0.2879 18.8647
v  -0.7658 -0.2495 18.8179
v  -0.7194 -0.2078 18.8057
v  -0.8721 -0.2707 18.8861
v  -0.8471 -0.2974 18.8785
v  -0.8558 -0.2570 18.9269
v  -0.8361 -0.2751 18.9649
v  -0.7960 -0.2458 18.9774
v  -0.8078 -0.2197 18.9847
v  -0.8323 -0.1967 18.9763
v  -0.8678 -0.2243 18.9641
v  -0.8554 -0.2552 18.9727
v  -0.8370 -0.2756 18.9758
v  -0.7958 -0.2465 19.0175
v  -0.8309 -0.1990 19.0158
v  -0.8078 -0.2189 19.0170
v  -0.8689 -0.2247 18.9749
v  -0.8562 -0.2556 18.9833
v  -0.8392 -0.2784 19.0153
v  -0.8062 -0.2439 19.0434
v  -0.8397 -0.2687 19.0427
v  -0.8185 -0.2196 19.0611
v  -0.8370 -0.2031 19.0533
v  -0.8697 -0.2288 19.0139
v  -0.8592 -0.2570 19.0144
v  -0.8585 -0.2491 19.0607
v  -0.8670 -0.2262 19.0528
v  -0.9026 -0.2937 18.8776
v  -0.9243 -0.2638 18.8687
v  -0.8820 -0.3210 18.8698
v  -0.8795 -0.3210 18.8186
v  -0.8877 -0.3266 18.8198
v  -0.9116 -0.3004 18.8750
v  -0.8901 -0.3266 18.8679
v  -0.9321 -0.2721 18.8667
v  -0.9217 -0.2638 18.8165
v  -0.9297 -0.2721 18.8178
v  -0.9679 -0.3000 18.8647
v  -0.9655 -0.3000 18.8163
v  -0.9264 -0.3549 18.8658
v  -0.9481 -0.3270 18.8728
v  -0.9085 -0.3004 18.8130
v  -0.9240 -0.3549 18.8183
v  -0.8992 -0.2937 18.8087
v  -0.8786 -0.3210 18.8008
v  -0.8286 -0.2879 18.8181
v  -0.8243 -0.2879 18.7315
v  -0.7655 -0.2532 18.7482
v  -0.9082 -0.3005 18.8030
v  -0.8869 -0.3269 18.7984
v  -0.8840 -0.3269 18.7415
v  -0.8756 -0.3210 18.7400
v  -0.9289 -0.2723 18.7962
v  -0.9208 -0.2638 18.7987
v  -0.8708 -0.2198 18.8107
v  -0.8670 -0.2198 18.7350
v  -0.8170 -0.1813 18.7394
v  -0.9261 -0.2723 18.7396
v  -0.9178 -0.2638 18.7379
v  -0.9665 -0.3013 18.7937
v  -0.9467 -0.3283 18.8004
v  -0.9246 -0.3569 18.7963
v  -0.9218 -0.3569 18.7392
v  -0.9049 -0.3005 18.7355
v  -0.8953 -0.2937 18.7307
v  -0.8747 -0.3210 18.7234
v  -0.7651 -0.2547 18.6991
v  -0.8219 -0.2879 18.6829
v  -0.7164 -0.2078 18.7448
v  -0.7885 -0.2161 18.6870
v  -0.7374 -0.1779 18.7209
v  -0.8437 -0.2576 18.6715
v  -0.8723 -0.3210 18.6739
v  -0.8825 -0.3263 18.7208
v  -0.9036 -0.3001 18.7248
v  -0.9170 -0.2638 18.7213
v  -0.9243 -0.2718 18.7187
v  -0.9637 -0.3013 18.7376
v  -0.9901 -0.3201 18.7929
v  -0.9873 -0.3201 18.7360
v  -0.9511 -0.3729 18.7957
v  -0.9711 -0.3461 18.7997
v  -0.9482 -0.3729 18.7370
v  -0.9434 -0.3283 18.7335
v  -0.9678 -0.3461 18.7318
v  -0.9949 -0.3261 18.7359
v  -0.9977 -0.3261 18.7923
v  -0.9789 -0.3518 18.7990
v  -0.9590 -0.3785 18.7951
v  -0.9561 -0.3785 18.7369
v  -0.9756 -0.3518 18.7318
v  -1.0208 -0.3466 18.7372
v  -1.0233 -0.3466 18.7884
v  -1.0053 -0.3713 18.7946
v  -0.9856 -0.3976 18.7916
v  -0.9830 -0.3976 18.7378
v  -1.0023 -0.3713 18.7336
v  -1.0290 -0.3908 18.7315
v  -1.0475 -0.3661 18.7353
v  -1.0501 -0.3661 18.7876
v  -1.0321 -0.3908 18.7939
v  -1.0129 -0.4166 18.7912
v  -1.0101 -0.4166 18.7355
v  -1.0359 -0.3958 18.7316
v  -1.0542 -0.3715 18.7354
v  -1.0171 -0.4215 18.7353
v  -1.0568 -0.3715 18.7870
v  -1.0198 -0.4215 18.7907
v  -1.0390 -0.3958 18.7932
v  -1.0587 -0.4462 18.7362
v  -1.0885 -0.4342 18.7329
v  -1.1033 -0.4087 18.7362
v  -1.1055 -0.4087 18.7814
v  -1.0612 -0.4462 18.7858
v  -1.0911 -0.4342 18.7867
v  -0.9569 -0.2974 18.7172
v  -0.9546 -0.2974 18.6705
v  -0.9146 -0.2638 18.6730
v  -0.9219 -0.2718 18.6717
v  -0.9760 -0.3147 18.6691
v  -0.9783 -0.3147 18.7165
v  -0.9372 -0.3244 18.7232
v  -0.9343 -0.3244 18.6641
v  -0.9007 -0.3001 18.6652
v  -0.8921 -0.2937 18.6659
v  -0.8630 -0.2215 18.6799
v  -0.8135 -0.1830 18.6957
v  -0.8801 -0.3263 18.6726
v  -0.9132 -0.3522 18.6715
v  -0.9377 -0.3664 18.6699
v  -0.9563 -0.3408 18.6625
v  -0.9829 -0.3203 18.6689
v  -0.9852 -0.3203 18.7159
v  -0.9593 -0.3408 18.7226
v  -0.9401 -0.3664 18.7184
v  -0.9156 -0.3522 18.7192
v  -0.9451 -0.3714 18.6697
v  -0.9474 -0.3714 18.7178
v  -0.9634 -0.3461 18.6625
v  -1.0045 -0.3374 18.6697
v  -1.0067 -0.3374 18.7128
v  -0.9856 -0.3624 18.6638
v  -0.9664 -0.3461 18.7219
v  -0.9883 -0.3624 18.7184
v  -0.9697 -0.3873 18.7146
v  -0.9675 -0.3873 18.6705
v  -0.9885 -0.4011 18.6689
v  -1.0057 -0.3774 18.6622
v  -1.0246 -0.3523 18.6681
v  -1.0268 -0.3523 18.7124
v  -1.0084 -0.3774 18.7180
v  -0.9907 -0.4011 18.7142
v  -0.9974 -0.4056 18.7135
v  -0.9952 -0.4056 18.6689
v  -1.0308 -0.3574 18.6681
v  -1.0122 -0.3822 18.6623
v  -1.0329 -0.3574 18.7117
v  -1.0149 -0.3822 18.7173
v  -1.0324 -0.4248 18.7076
v  -1.0306 -0.4248 18.6710
v  -1.0564 -0.4148 18.6650
v  -1.0761 -0.3909 18.7055
v  -1.0743 -0.3909 18.6696
v  -1.0586 -0.4148 18.7102
v  -0.7639 -0.1436 18.7421
v  -0.7482 -0.1303 18.7417
v  -0.7210 -0.1657 18.7200
v  -0.6991 -0.1971 18.7444
v  -0.7513 -0.1303 18.8045
v  -0.7351 -0.1167 18.8055
v  -0.7245 -0.1643 18.8319
v  -0.7319 -0.1167 18.7412
v  -0.6811 -0.1860 18.7440
v  -0.7040 -0.1532 18.7190
v  -0.7021 -0.1971 18.8066
v  -0.6843 -0.1860 18.8076
v  -0.7079 -0.1519 18.8331
v  -0.5858 -0.0616 18.8423
v  -0.6188 -0.0158 18.8104
v  -0.6151 -0.0158 18.7361
v  -0.5803 -0.0624 18.7091
v  -0.5497 -0.1068 18.7397
v  -0.5534 -0.1068 18.8131
v  -0.4344 -0.0264 18.8223
v  -0.4732 0.0258 18.8520
v  -0.5087 0.0779 18.8192
v  -0.4658 0.0258 18.7033
v  -0.5045 0.0779 18.7344
v  -0.4302 -0.0264 18.7385
v  -0.4074 -0.0089 18.8241
v  -0.4474 0.0451 18.8559
v  -0.4840 0.0988 18.8208
v  -0.4796 0.0988 18.7331
v  -0.4397 0.0451 18.7017
v  -0.4030 -0.0089 18.7374
v  -0.3760 0.0102 18.7373
v  -0.3806 0.0102 18.8288
v  -0.4581 0.1191 18.8255
v  -0.4211 0.0647 18.8612
v  -0.4535 0.1191 18.7331
v  -0.4132 0.0647 18.7013
v  -0.2804 0.1593 18.7046
v  -0.2313 0.1074 18.7433
v  -0.2889 0.1593 18.8764
v  -0.2363 0.1074 18.8433
v  -0.3370 0.2116 18.8388
v  -0.3320 0.2116 18.7377
v  -0.2551 0.2793 18.7409
v  -0.2004 0.2188 18.7078
v  -0.1493 0.1622 18.7468
v  -0.2092 0.2188 18.8850
v  -0.1544 0.1622 18.8492
v  -0.2603 0.2793 18.8444
v  -0.1480 0.2563 18.7041
v  -0.1853 0.3424 18.7427
v  -0.1152 0.1777 18.7468
v  -0.1206 0.1777 18.8562
v  -0.1575 0.2563 18.8954
v  -0.1908 0.3424 18.8533
v  -0.0719 0.2768 18.7034
v  -0.0867 0.3733 18.7450
v  -0.0925 0.3733 18.8608
v  -0.0606 0.1801 18.7469
v  -0.0663 0.1801 18.8615
v  -0.0819 0.2768 18.9036
v  -0.9451 -0.3270 18.8115
v  -0.9868 -0.3166 18.8143
v  -0.9478 -0.3694 18.8163
v  -0.9668 -0.3432 18.8093
v  -0.9952 -0.3232 18.8142
v  -0.9893 -0.3166 18.8645
v  -0.9700 -0.3432 18.8727
v  -0.9977 -0.3232 18.8639
v  -0.9965 -0.3651 18.8100
v  -1.0161 -0.3389 18.8147
v  -0.9754 -0.3495 18.8092
v  -0.9565 -0.3755 18.8161
v  -0.9503 -0.3694 18.8655
v  -0.9590 -0.3755 18.8649
v  -0.9785 -0.3495 18.8721
v  -0.9994 -0.3651 18.8692
v  -1.0185 -0.3389 18.8615
v  -1.0405 -0.3573 18.8131
v  -1.0030 -0.4080 18.8149
v  -1.0210 -0.3833 18.8084
v  -0.9775 -0.3911 18.8166
v  -0.9798 -0.3911 18.8624
v  -1.0053 -0.4080 18.8616
v  -1.0240 -0.3833 18.8683
v  -1.0429 -0.3573 18.8607
v  -1.0478 -0.3630 18.8130
v  -1.0283 -0.3888 18.8083
v  -1.0105 -0.4132 18.8148
v  -1.0128 -0.4132 18.8610
v  -1.0501 -0.3630 18.8601
v  -1.0314 -0.3888 18.8678
v  -1.0919 -0.3965 18.8146
v  -1.0760 -0.4240 18.8106
v  -1.0442 -0.4316 18.8170
v  -1.0461 -0.4316 18.8559
v  -1.0939 -0.3965 18.8544
v  -1.0785 -0.4240 18.8606
# 291 vertices

vn -0.6956 -0.4954 -0.5203
vn 0.0474 -0.8917 -0.4502
vn -0.7037 -0.5217 -0.4822
vn -0.7009 0.4066 -0.5860
vn -0.8435 0.1659 -0.5108
vn 0.0309 -0.9475 -0.3183
vn -0.7798 -0.5512 -0.2970
vn 0.0965 -0.9546 -0.2817
vn 0.8461 -0.4645 -0.2616
vn 0.8679 -0.3035 -0.3931
vn 0.0395 -0.9537 -0.2983
vn -0.8544 0.4423 -0.2727
vn -0.8971 0.3924 -0.2030
vn -0.7065 -0.5008 -0.5001
vn 0.1472 0.9004 -0.4095
vn 0.0500 0.8999 -0.4332
vn -0.0320 0.9776 -0.2081
vn -0.9551 0.2826 -0.0886
vn -0.8108 -0.5745 -0.1122
vn -0.0293 -0.9956 -0.0886
vn 0.9217 -0.2977 -0.2487
vn 0.6302 0.4380 -0.6410
vn 0.5972 0.3895 -0.7012
vn 0.6194 -0.7847 0.0227
vn 0.6885 -0.7241 -0.0406
vn 0.7674 -0.3581 -0.5318
vn 0.5938 -0.8045 -0.0127
vn -0.4501 -0.3007 -0.8408
vn 0.4419 -0.8325 -0.3342
vn -0.4904 0.8694 0.0612
vn -0.5767 0.8153 0.0510
vn -0.7017 0.6458 -0.3010
vn 0.4704 0.3749 -0.7989
vn -0.2079 0.8821 -0.4227
vn 0.8175 0.5354 -0.2123
vn 0.0775 0.9968 -0.0174
vn -0.9603 0.2789 -0.0016
vn -0.8120 -0.5833 -0.0188
vn -0.0095 -0.9982 -0.0586
vn 0.9625 -0.2704 -0.0241
vn 0.8390 0.5441 -0.0017
vn 0.1068 0.9926 0.0573
vn -0.9578 0.2572 -0.1281
vn -0.0716 -0.9945 -0.0760
vn -0.8128 -0.5785 -0.0692
vn 0.9659 -0.2588 -0.0075
vn 0.8415 0.5383 0.0454
vn 0.0924 0.9882 -0.1224
vn -0.8104 0.2886 -0.5098
vn -0.0040 0.8584 -0.5129
vn -0.5624 -0.2923 -0.7734
vn 0.0454 -0.8500 -0.5248
vn 0.9698 -0.2342 -0.0675
vn 0.8386 0.5417 -0.0577
vn 0.4446 0.4159 -0.7933
vn 0.7901 -0.3066 -0.5308
vn 0.1297 0.1264 -0.9835
vn 0.6025 -0.5194 -0.6060
vn -0.3639 0.7099 -0.6030
vn -0.2521 0.9266 0.2790
vn -0.4141 0.6613 0.6255
vn 0.0627 0.0720 -0.9954
vn -0.4317 0.6718 -0.6019
vn 0.5596 -0.5444 -0.6249
vn 0.8348 -0.4901 0.2506
vn 0.5721 -0.5316 0.6246
vn 0.4720 -0.6207 -0.6260
vn 0.4645 -0.6114 0.6407
vn -0.4551 0.6521 -0.6064
vn -0.0146 0.0019 -0.9999
vn 0.1423 0.1308 0.9811
vn -0.4453 0.6360 0.6303
vn 0.7656 0.6432 0.0125
vn -0.2448 0.9277 -0.2817
vn -0.5322 0.8466 -0.0026
vn -0.5245 0.8514 -0.0006
vn -0.5965 0.8026 -0.0037
vn 0.1563 0.1374 -0.9781
vn -0.4144 0.6619 -0.6247
vn -0.4146 0.6569 0.6297
vn -0.2382 0.9291 0.2830
vn 0.5806 -0.5273 -0.6204
vn 0.8394 -0.4811 -0.2529
vn 0.6307 -0.7760 -0.0079
vn 0.6300 -0.7763 0.0190
vn 0.5938 -0.8043 0.0236
vn 0.5764 -0.5264 0.6250
vn 0.8417 -0.4766 0.2539
vn 0.4735 -0.6050 -0.6401
vn 0.0085 -0.0104 -0.9999
vn -0.4428 0.6320 -0.6360
vn -0.4431 0.6227 0.6449
vn 0.1521 0.1340 0.9792
vn 0.7669 0.6415 0.0168
vn -0.2229 0.9342 -0.2785
vn -0.6158 0.5220 0.5902
vn -0.4932 0.6081 0.6221
vn -0.6278 0.6596 0.4133
vn -0.2570 -0.1709 0.9512
vn -0.2219 -0.1266 0.9668
vn -0.1091 -0.0526 0.9926
vn -0.4724 0.6169 0.6295
vn -0.3953 0.6739 -0.6242
vn 0.1673 0.1497 -0.9745
vn 0.8459 -0.4733 -0.2460
vn 0.5905 -0.5139 -0.6223
vn 0.4645 -0.6022 0.6493
vn 0.4763 -0.5944 -0.6479
vn 0.4725 -0.5891 0.6555
vn -0.4112 0.6229 -0.6655
vn 0.0172 -0.0072 -0.9998
vn -0.4072 0.6173 0.6732
vn 0.0014 -0.0153 0.9999
vn 0.0173 -0.0073 0.9998
vn 0.4977 -0.5714 0.6525
vn 0.5017 -0.5759 -0.6455
vn 0.0617 0.0204 -0.9979
vn -0.4111 0.6297 -0.6591
vn -0.4063 0.6247 0.6668
vn 0.0604 0.0207 0.9980
vn 0.4798 -0.5969 0.6430
vn 0.4813 -0.6024 -0.6368
vn 0.0430 -0.0012 -0.9991
vn -0.4265 0.6316 -0.6475
vn -0.4228 0.6268 0.6545
vn 0.0431 0.0002 0.9991
vn 0.0284 -0.0174 0.9994
vn 0.4655 -0.5978 0.6526
vn 0.4692 -0.6030 -0.6451
vn 0.0282 -0.0170 -0.9995
vn -0.4248 0.6072 -0.6714
vn -0.4207 0.6017 0.6789
vn 0.0623 0.0072 0.9980
vn 0.4900 -0.5765 0.6538
vn -0.3779 0.6397 0.6693
vn 0.4932 -0.5822 -0.6464
vn -0.3823 0.6448 -0.6619
vn 0.0619 0.0076 -0.9981
vn -0.0631 0.8197 0.5693
vn 0.5217 0.5562 0.6469
vn 0.8361 -0.1804 0.5181
vn 0.8391 -0.1834 -0.5122
vn -0.0674 0.8246 -0.5617
vn 0.5203 0.5526 -0.6511
vn 0.4689 -0.5983 -0.6497
vn 0.4864 -0.6133 0.6223
vn 0.5090 -0.6058 0.6114
vn 0.4914 -0.5720 0.6568
vn 0.4904 -0.6031 0.6291
vn 0.4777 -0.5843 -0.6560
vn -0.0036 -0.0055 -1.0000
vn 0.0124 -0.0135 0.9998
vn 0.0020 -0.0129 0.9999
vn -0.0297 -0.0320 0.9990
vn 0.4036 -0.6449 0.6490
vn 0.2634 -0.7335 0.6266
vn -0.4626 0.5983 0.6542
vn -0.4378 0.6478 0.6235
vn -0.4049 0.6450 0.6482
vn 0.0161 -0.0057 0.9999
vn 0.5093 -0.5881 0.6283
vn 0.4982 -0.5694 -0.6538
vn 0.0070 0.0069 -1.0000
vn -0.3965 0.6352 -0.6628
vn -0.4345 0.6349 -0.6388
vn -0.4101 0.6490 0.6408
vn -0.4009 0.6405 -0.6550
vn 0.0580 0.0253 0.9980
vn 0.4866 -0.6146 0.6208
vn 0.4788 -0.5970 -0.6437
vn 0.0314 0.0065 0.9995
vn 0.0473 0.0380 -0.9982
vn 0.0233 0.0208 -0.9995
vn -0.4215 0.6456 -0.6368
vn -0.4290 0.6527 0.6245
vn -0.4180 0.6421 0.6427
vn 0.0168 -0.0003 0.9999
vn 0.4840 -0.6094 0.6280
vn 0.4727 -0.5917 -0.6530
vn 0.0085 0.0116 -0.9999
vn -0.4100 0.6334 -0.6563
vn -0.3545 0.6791 -0.6427
vn -0.3636 0.6863 0.6299
vn 0.5130 -0.5783 0.6344
vn 0.0647 0.0409 0.9971
vn 0.5038 -0.5595 -0.6582
vn 0.0563 0.0530 -0.9970
vn -0.0655 0.8495 -0.5235
vn -0.0718 0.8559 0.5121
vn 0.4737 0.5785 0.6640
vn 0.8495 -0.1253 -0.5125
vn 0.8570 -0.1340 0.4976
vn 0.4702 0.5935 -0.6532
vn 0.4684 -0.7711 0.4313
vn 0.5757 -0.6347 0.5154
vn 0.0540 0.0742 0.9958
vn -0.4347 0.7562 0.4890
vn 0.5613 -0.6632 -0.4950
vn 0.5578 -0.6601 -0.5031
vn 0.0016 0.0371 -0.9993
vn 0.5805 -0.6292 0.5169
vn -0.4275 0.7581 0.4925
vn 0.0661 0.0767 0.9949
vn -0.4651 0.7518 -0.4675
vn -0.4612 0.7486 -0.4763
vn 0.0081 0.0332 -0.9994
vn 0.0209 0.0274 -0.9994
vn 0.5593 -0.6505 -0.5138
vn 0.5788 -0.6253 0.5235
vn 0.0669 0.0660 0.9956
vn -0.4399 0.7388 0.5106
vn -0.4681 0.7314 -0.4959
vn -0.4642 0.7105 -0.5290
vn 0.0467 0.0340 -0.9983
vn 0.5579 -0.6402 -0.5280
vn 0.0700 0.0486 0.9964
vn 0.5770 -0.6332 0.5159
vn -0.4453 0.7319 0.5158
vn -0.4550 0.7307 -0.5090
vn 0.0768 0.0612 -0.9952
vn 0.5652 -0.6505 -0.5074
vn 0.5599 -0.6430 0.5226
vn 0.0588 0.0434 0.9973
vn -0.4534 0.7233 0.5208
vn -0.4710 0.7069 0.5277
vn -0.4484 0.7198 -0.5300
vn 0.5490 -0.6483 -0.5275
vn 0.0690 0.0504 -0.9963
vn 0.5287 -0.6659 0.5264
vn 0.0304 0.0218 0.9993
vn 0.0088 0.0220 0.9997
vn -0.4731 0.7063 0.5266
vn 0.0347 0.0410 -0.9986
vn -0.4597 0.7149 -0.5268
vn 0.5458 -0.6417 -0.5388
vn 0.5381 -0.6531 0.5329
vn 0.5645 -0.6259 0.5381
vn 0.0393 0.0456 0.9982
vn -0.3942 0.7467 0.5358
vn 0.0685 0.0596 -0.9959
vn -0.3752 0.7748 -0.5088
vn 0.5794 -0.6199 -0.5292
vn 0.0808 0.0070 0.9967
vn 0.4333 -0.7412 0.5128
vn -0.1766 0.8044 0.5672
vn -0.1581 0.8063 -0.5699
vn 0.0945 0.0109 -0.9955
vn 0.4393 -0.7351 -0.5164
vn 0.0703 -0.0037 0.9975
vn 0.2673 -0.8101 0.5218
vn 0.2673 -0.8101 -0.5218
vn -0.0106 0.8414 0.5402
vn -0.0106 0.8414 -0.5402
vn 0.0703 -0.0037 -0.9975
vn -0.0084 -0.0096 0.9999
vn 0.4643 -0.6041 0.6477
vn -0.4186 0.6291 0.6550
vn -0.0063 -0.0028 1.0000
vn 0.4860 -0.5872 0.6473
vn 0.4710 -0.6145 -0.6329
vn -0.0153 0.0089 -0.9998
vn 0.4912 -0.5981 -0.6332
vn 0.0215 0.0182 0.9996
vn 0.4757 -0.6077 0.6360
vn 0.0381 0.0301 0.9988
vn -0.4237 0.6331 0.6479
vn -0.4320 0.6467 -0.6286
vn -0.4390 0.6482 -0.6222
vn 0.0293 0.0419 -0.9987
vn 0.0118 0.0292 -0.9995
vn 0.4798 -0.6172 -0.6235
vn 0.4687 -0.6037 0.6449
vn -0.4259 0.6324 0.6470
vn 0.0034 0.0083 1.0000
vn -0.4350 0.6441 0.6292
vn -0.4479 0.6568 -0.6066
vn -0.4391 0.6478 -0.6225
vn -0.0059 0.0205 -0.9998
vn 0.4738 -0.6129 -0.6324
vn 0.4892 -0.5824 0.6493
vn 0.0408 0.0452 0.9981
vn -0.3754 0.6749 0.6353
vn -0.3905 0.6883 -0.6114
vn 0.4930 -0.5925 -0.6372
vn 0.0306 0.0569 -0.9979
vn 0.8416 -0.1828 0.5082
vn 0.4753 0.6060 0.6378
vn -0.1263 0.8423 0.5241
vn -0.1380 0.8536 -0.5023
vn 0.8453 -0.1872 -0.5004
vn 0.4701 0.6027 -0.6447
# 291 vertex normals

vt 0.8062 0.0516 0.0000
vt 0.8044 0.0511 0.0000
vt 0.8083 0.0486 0.0000
vt 0.5705 0.0511 0.0000
vt 0.5731 0.0517 0.0000
vt 0.5751 0.0487 0.0000
vt 0.5700 0.0538 0.0000
vt 0.8031 0.0538 0.0000
vt 0.5715 0.0548 0.0000
vt 0.8046 0.0547 0.0000
vt 0.8060 0.0478 0.0000
vt 0.7913 0.0476 0.0000
vt 0.7923 0.0509 0.0000
vt 0.8085 0.0435 0.0000
vt 0.5725 0.0477 0.0000
vt 0.5751 0.0430 0.0000
vt 0.5769 0.0445 0.0000
vt 0.8100 0.0444 0.0000
vt 0.5591 0.0537 0.0000
vt 0.5580 0.0508 0.0000
vt 0.5569 0.0476 0.0000
vt 0.5691 0.0614 0.0000
vt 0.5704 0.0629 0.0000
vt 0.8022 0.0614 0.0000
vt 0.8035 0.0628 0.0000
vt 0.7933 0.0537 0.0000
vt 0.7885 0.0498 0.0000
vt 0.7899 0.0506 0.0000
vt 0.7924 0.0419 0.0000
vt 0.7894 0.0433 0.0000
vt 0.7884 0.0452 0.0000
vt 0.8044 0.0323 0.0000
vt 0.8172 0.0349 0.0000
vt 0.8167 0.0301 0.0000
vt 0.5841 0.0351 0.0000
vt 0.5581 0.0424 0.0000
vt 0.5719 0.0329 0.0000
vt 0.5836 0.0302 0.0000
vt 0.5554 0.0499 0.0000
vt 0.5539 0.0468 0.0000
vt 0.5547 0.0451 0.0000
vt 0.5568 0.0507 0.0000
vt 0.5583 0.0544 0.0000
vt 0.5595 0.0613 0.0000
vt 0.5690 0.0633 0.0000
vt 0.5702 0.0648 0.0000
vt 0.8021 0.0633 0.0000
vt 0.8033 0.0647 0.0000
vt 0.7935 0.0613 0.0000
vt 0.7914 0.0542 0.0000
vt 0.5589 0.0630 0.0000
vt 0.7920 0.0629 0.0000
vt 0.5594 0.0634 0.0000
vt 0.5692 0.0709 0.0000
vt 0.8023 0.0708 0.0000
vt 0.8036 0.0708 0.0000
vt 0.5705 0.0709 0.0000
vt 0.7934 0.0634 0.0000
vt 0.5588 0.0650 0.0000
vt 0.7919 0.0649 0.0000
vt 0.5590 0.0709 0.0000
vt 0.5681 0.0759 0.0000
vt 0.5602 0.0761 0.0000
vt 0.8022 0.0792 0.0000
vt 0.8012 0.0779 0.0000
vt 0.5691 0.0794 0.0000
vt 0.7931 0.0708 0.0000
vt 0.5584 0.0709 0.0000
vt 0.7915 0.0708 0.0000
vt 0.5598 0.0797 0.0000
vt 0.7929 0.0795 0.0000
vt 0.7941 0.0781 0.0000
vt 0.7870 0.0467 0.0000
vt 0.7797 0.0453 0.0000
vt 0.7797 0.0439 0.0000
vt 0.5466 0.0438 0.0000
vt 0.5466 0.0455 0.0000
vt 0.5466 0.0341 0.0000
vt 0.5448 0.0344 0.0000
vt 0.5445 0.0451 0.0000
vt 0.5448 0.0435 0.0000
vt 0.7776 0.0449 0.0000
vt 0.7776 0.0436 0.0000
vt 0.7797 0.0340 0.0000
vt 0.7776 0.0343 0.0000
vt 0.7690 0.0435 0.0000
vt 0.7690 0.0343 0.0000
vt 0.5361 0.0435 0.0000
vt 0.5359 0.0450 0.0000
vt 0.7690 0.0448 0.0000
vt 0.5445 0.0333 0.0000
vt 0.5361 0.0345 0.0000
vt 0.5466 0.0324 0.0000
vt 0.5466 0.0307 0.0000
vt 0.5581 0.0335 0.0000
vt 0.5581 0.0171 0.0000
vt 0.5710 0.0198 0.0000
vt 0.5445 0.0314 0.0000
vt 0.5447 0.0304 0.0000
vt 0.5447 0.0196 0.0000
vt 0.5466 0.0192 0.0000
vt 0.7797 0.0323 0.0000
vt 0.7776 0.0302 0.0000
vt 0.7797 0.0306 0.0000
vt 0.7776 0.0313 0.0000
vt 0.7776 0.0332 0.0000
vt 0.7924 0.0324 0.0000
vt 0.7924 0.0180 0.0000
vt 0.8044 0.0184 0.0000
vt 0.7776 0.0195 0.0000
vt 0.7797 0.0191 0.0000
vt 0.7686 0.0301 0.0000
vt 0.7686 0.0312 0.0000
vt 0.5356 0.0303 0.0000
vt 0.5355 0.0313 0.0000
vt 0.5356 0.0195 0.0000
vt 0.5445 0.0187 0.0000
vt 0.5466 0.0176 0.0000
vt 0.5466 0.0161 0.0000
vt 0.5706 0.0105 0.0000
vt 0.5581 0.0079 0.0000
vt 0.5836 0.0186 0.0000
vt 0.5713 0.0084 0.0000
vt 0.5836 0.0143 0.0000
vt 0.5581 0.0060 0.0000
vt 0.5466 0.0067 0.0000
vt 0.5448 0.0157 0.0000
vt 0.5446 0.0166 0.0000
vt 0.7797 0.0175 0.0000
vt 0.7776 0.0185 0.0000
vt 0.7797 0.0159 0.0000
vt 0.7777 0.0155 0.0000
vt 0.7777 0.0165 0.0000
vt 0.7686 0.0195 0.0000
vt 0.7628 0.0302 0.0000
vt 0.7628 0.0194 0.0000
vt 0.5297 0.0305 0.0000
vt 0.5297 0.0314 0.0000
vt 0.7628 0.0313 0.0000
vt 0.5297 0.0194 0.0000
vt 0.5355 0.0186 0.0000
vt 0.7686 0.0185 0.0000
vt 0.7628 0.0184 0.0000
vt 0.7610 0.0194 0.0000
vt 0.7610 0.0301 0.0000
vt 0.7610 0.0312 0.0000
vt 0.5279 0.0304 0.0000
vt 0.5279 0.0313 0.0000
vt 0.5297 0.0185 0.0000
vt 0.5279 0.0194 0.0000
vt 0.7610 0.0185 0.0000
vt 0.5279 0.0186 0.0000
vt 0.7548 0.0199 0.0000
vt 0.7548 0.0296 0.0000
vt 0.7548 0.0306 0.0000
vt 0.5217 0.0300 0.0000
vt 0.5217 0.0308 0.0000
vt 0.5217 0.0198 0.0000
vt 0.7548 0.0190 0.0000
vt 0.5217 0.0192 0.0000
vt 0.7485 0.0189 0.0000
vt 0.7485 0.0198 0.0000
vt 0.7485 0.0297 0.0000
vt 0.7485 0.0307 0.0000
vt 0.5154 0.0302 0.0000
vt 0.5154 0.0309 0.0000
vt 0.5154 0.0196 0.0000
vt 0.5154 0.0191 0.0000
vt 0.7469 0.0190 0.0000
vt 0.7469 0.0199 0.0000
vt 0.5138 0.0197 0.0000
vt 0.5138 0.0191 0.0000
vt 0.7469 0.0297 0.0000
vt 0.5138 0.0302 0.0000
vt 0.5138 0.0308 0.0000
vt 0.7469 0.0307 0.0000
vt 0.5047 0.0202 0.0000
vt 0.7346 0.0197 0.0000
vt 0.7353 0.0205 0.0000
vt 0.5015 0.0199 0.0000
vt 0.7353 0.0291 0.0000
vt 0.5047 0.0296 0.0000
vt 0.7346 0.0299 0.0000
vt 0.5015 0.0301 0.0000
vt 0.7699 0.0155 0.0000
vt 0.7699 0.0067 0.0000
vt 0.7797 0.0068 0.0000
vt 0.7777 0.0066 0.0000
vt 0.7647 0.0066 0.0000
vt 0.7647 0.0156 0.0000
vt 0.7699 0.0165 0.0000
vt 0.7699 0.0053 0.0000
vt 0.7777 0.0052 0.0000
vt 0.7797 0.0052 0.0000
vt 0.7924 0.0076 0.0000
vt 0.7912 0.0059 0.0000
vt 0.8044 0.0101 0.0000
vt 0.8044 0.0083 0.0000
vt 0.5466 0.0054 0.0000
vt 0.5448 0.0065 0.0000
vt 0.5446 0.0053 0.0000
vt 0.5369 0.0066 0.0000
vt 0.5368 0.0054 0.0000
vt 0.5316 0.0066 0.0000
vt 0.5316 0.0053 0.0000
vt 0.7647 0.0052 0.0000
vt 0.7630 0.0067 0.0000
vt 0.7630 0.0156 0.0000
vt 0.7647 0.0166 0.0000
vt 0.5316 0.0167 0.0000
vt 0.5368 0.0166 0.0000
vt 0.5316 0.0157 0.0000
vt 0.5369 0.0157 0.0000
vt 0.5299 0.0066 0.0000
vt 0.5299 0.0157 0.0000
vt 0.5299 0.0054 0.0000
vt 0.7630 0.0053 0.0000
vt 0.7578 0.0070 0.0000
vt 0.7578 0.0152 0.0000
vt 0.7578 0.0057 0.0000
vt 0.7630 0.0165 0.0000
vt 0.5299 0.0167 0.0000
vt 0.5247 0.0162 0.0000
vt 0.5247 0.0153 0.0000
vt 0.5247 0.0069 0.0000
vt 0.5247 0.0059 0.0000
vt 0.5199 0.0068 0.0000
vt 0.5199 0.0057 0.0000
vt 0.7530 0.0069 0.0000
vt 0.7530 0.0056 0.0000
vt 0.7578 0.0161 0.0000
vt 0.7530 0.0153 0.0000
vt 0.5199 0.0163 0.0000
vt 0.5199 0.0154 0.0000
vt 0.7530 0.0162 0.0000
vt 0.5184 0.0154 0.0000
vt 0.5184 0.0069 0.0000
vt 0.7515 0.0069 0.0000
vt 0.5184 0.0058 0.0000
vt 0.7515 0.0057 0.0000
vt 0.7515 0.0152 0.0000
vt 0.5184 0.0162 0.0000
vt 0.7515 0.0161 0.0000
vt 0.5109 0.0146 0.0000
vt 0.5109 0.0076 0.0000
vt 0.7412 0.0066 0.0000
vt 0.5081 0.0068 0.0000
vt 0.7412 0.0144 0.0000
vt 0.7412 0.0076 0.0000
vt 0.7412 0.0152 0.0000
vt 0.5081 0.0153 0.0000
vt 0.8167 0.0142 0.0000
vt 0.8167 0.0184 0.0000
vt 0.8206 0.0182 0.0000
vt 0.8206 0.0138 0.0000
vt 0.5874 0.0184 0.0000
vt 0.5874 0.0140 0.0000
vt 0.8206 0.0301 0.0000
vt 0.8246 0.0301 0.0000
vt 0.8210 0.0350 0.0000
vt 0.8246 0.0179 0.0000
vt 0.5914 0.0182 0.0000
vt 0.5914 0.0136 0.0000
vt 0.8245 0.0135 0.0000
vt 0.5874 0.0302 0.0000
vt 0.5914 0.0302 0.0000
vt 0.5879 0.0352 0.0000
vt 0.8250 0.0351 0.0000
vt 0.5919 0.0352 0.0000
vt 0.8537 0.0357 0.0000
vt 0.8536 0.0300 0.0000
vt 0.8536 0.0159 0.0000
vt 0.8535 0.0105 0.0000
vt 0.6202 0.0161 0.0000
vt 0.6204 0.0106 0.0000
vt 0.6202 0.0300 0.0000
vt 0.6206 0.0358 0.0000
vt 0.6521 0.0307 0.0000
vt 0.8854 0.0364 0.0000
vt 0.6523 0.0366 0.0000
vt 0.8856 0.0306 0.0000
vt 0.8854 0.0083 0.0000
vt 0.8856 0.0145 0.0000
vt 0.6521 0.0148 0.0000
vt 0.6523 0.0085 0.0000
vt 0.6582 0.0307 0.0000
vt 0.8915 0.0370 0.0000
vt 0.6584 0.0371 0.0000
vt 0.8918 0.0307 0.0000
vt 0.8918 0.0141 0.0000
vt 0.8915 0.0078 0.0000
vt 0.6582 0.0143 0.0000
vt 0.6584 0.0079 0.0000
vt 0.6644 0.0140 0.0000
vt 0.6644 0.0314 0.0000
vt 0.8980 0.0313 0.0000
vt 0.6647 0.0378 0.0000
vt 0.8978 0.0377 0.0000
vt 0.8980 0.0138 0.0000
vt 0.8978 0.0074 0.0000
vt 0.6647 0.0076 0.0000
vt 0.6908 0.0069 0.0000
vt 0.6927 0.0138 0.0000
vt 0.6908 0.0395 0.0000
vt 0.6927 0.0327 0.0000
vt 0.9222 0.0327 0.0000
vt 0.9239 0.0393 0.0000
vt 0.9222 0.0136 0.0000
vt 0.9239 0.0068 0.0000
vt 0.9394 0.0134 0.0000
vt 0.7097 0.0068 0.0000
vt 0.9428 0.0067 0.0000
vt 0.7136 0.0137 0.0000
vt 0.7097 0.0404 0.0000
vt 0.7136 0.0331 0.0000
vt 0.9394 0.0330 0.0000
vt 0.9428 0.0402 0.0000
vt 0.9524 0.0064 0.0000
vt 0.9511 0.0137 0.0000
vt 0.7210 0.0139 0.0000
vt 0.7193 0.0066 0.0000
vt 0.7210 0.0336 0.0000
vt 0.9524 0.0408 0.0000
vt 0.7193 0.0409 0.0000
vt 0.9511 0.0335 0.0000
vt 0.9599 0.0056 0.0000
vt 0.9602 0.0132 0.0000
vt 0.9602 0.0340 0.0000
vt 0.7268 0.0057 0.0000
vt 0.7266 0.0134 0.0000
vt 0.7266 0.0340 0.0000
vt 0.7268 0.0417 0.0000
vt 0.9599 0.0416 0.0000
vt 0.7690 0.0332 0.0000
vt 0.7639 0.0342 0.0000
vt 0.5359 0.0334 0.0000
vt 0.5308 0.0343 0.0000
vt 0.5308 0.0332 0.0000
vt 0.7639 0.0330 0.0000
vt 0.7619 0.0342 0.0000
vt 0.7639 0.0437 0.0000
vt 0.7639 0.0451 0.0000
vt 0.7619 0.0436 0.0000
vt 0.7569 0.0334 0.0000
vt 0.7569 0.0345 0.0000
vt 0.7619 0.0331 0.0000
vt 0.5288 0.0344 0.0000
vt 0.5288 0.0332 0.0000
vt 0.5308 0.0436 0.0000
vt 0.5288 0.0436 0.0000
vt 0.5308 0.0452 0.0000
vt 0.5288 0.0451 0.0000
vt 0.7619 0.0450 0.0000
vt 0.7569 0.0446 0.0000
vt 0.7569 0.0434 0.0000
vt 0.7512 0.0344 0.0000
vt 0.5181 0.0346 0.0000
vt 0.5238 0.0336 0.0000
vt 0.5181 0.0335 0.0000
vt 0.5238 0.0346 0.0000
vt 0.7512 0.0334 0.0000
vt 0.5238 0.0448 0.0000
vt 0.5238 0.0433 0.0000
vt 0.5181 0.0434 0.0000
vt 0.5181 0.0449 0.0000
vt 0.7512 0.0434 0.0000
vt 0.7512 0.0447 0.0000
vt 0.7494 0.0345 0.0000
vt 0.7494 0.0334 0.0000
vt 0.5163 0.0346 0.0000
vt 0.5163 0.0336 0.0000
vt 0.5163 0.0434 0.0000
vt 0.7494 0.0434 0.0000
vt 0.7494 0.0447 0.0000
vt 0.5163 0.0448 0.0000
vt 0.7389 0.0352 0.0000
vt 0.7382 0.0343 0.0000
vt 0.5092 0.0354 0.0000
vt 0.5051 0.0345 0.0000
vt 0.5092 0.0427 0.0000
vt 0.7389 0.0427 0.0000
vt 0.7382 0.0438 0.0000
vt 0.5051 0.0439 0.0000
# 383 texture coords

o BrazoDer
g BrazoDer
usemtl peluches_09___Default
s off
f 1/1/1 2/2/2 3/3/3 
f 4/4/4 1/5/1 3/6/3 
f 4/4/4 5/7/5 1/5/1 
f 6/8/6 2/2/2 1/1/1 
f 5/7/5 7/9/7 1/5/1 
f 7/10/7 6/8/6 1/1/1 
f 2/2/2 8/11/8 3/3/3 
f 2/2/2 9/12/9 8/11/8 
f 10/13/10 9/12/9 2/2/2 
f 6/8/6 10/13/10 2/2/2 
f 11/14/11 3/3/3 8/11/8 
f 12/15/12 4/4/4 3/6/3 
f 12/15/12 3/6/3 13/16/13 
f 14/17/14 13/16/13 3/6/3 
f 11/14/11 14/18/14 3/3/3 
f 15/19/15 4/4/4 16/20/16 
f 4/4/4 17/21/17 16/20/16 
f 4/4/4 12/15/12 17/21/17 
f 4/4/4 15/19/15 5/7/5 
f 15/19/15 18/22/18 5/7/5 
f 5/7/5 18/22/18 7/9/7 
f 18/22/18 19/23/19 7/9/7 
f 20/24/20 7/10/7 19/25/19 
f 20/24/20 6/8/6 7/10/7 
f 21/26/21 10/13/10 6/8/6 
f 21/26/21 6/8/6 20/24/20 
f 10/13/10 22/27/22 9/12/9 
f 23/28/23 10/13/10 21/26/21 
f 23/28/23 22/27/22 10/13/10 
f 24/29/24 8/11/8 9/12/9 
f 25/30/25 24/29/24 9/12/9 
f 25/30/25 9/12/9 26/31/26 
f 22/27/22 26/31/26 9/12/9 
f 24/29/24 11/14/11 8/11/8 
f 11/14/11 24/29/24 27/32/27 
f 28/33/28 11/14/11 29/34/29 
f 11/14/11 27/32/27 29/34/29 
f 28/33/28 14/18/14 11/14/11 
f 13/16/13 14/17/14 28/35/28 
f 30/36/30 12/15/12 13/16/13 
f 31/37/31 13/16/13 32/38/32 
f 13/16/13 28/35/28 32/38/32 
f 30/36/30 13/16/13 31/37/31 
f 12/15/12 30/36/30 17/21/17 
f 16/20/16 17/21/17 22/39/22 
f 17/21/17 33/40/33 22/39/22 
f 17/21/17 34/41/34 33/40/33 
f 34/41/34 17/21/17 30/36/30 
f 15/19/15 16/20/16 23/42/23 
f 16/20/16 22/39/22 23/42/23 
f 15/19/15 23/42/23 35/43/35 
f 15/19/15 36/44/36 18/22/18 
f 36/44/36 15/19/15 35/43/35 
f 36/44/36 37/45/37 18/22/18 
f 18/22/18 37/45/37 19/23/19 
f 37/45/37 38/46/38 19/23/19 
f 39/47/39 19/25/19 38/48/38 
f 39/47/39 20/24/20 19/25/19 
f 40/49/40 20/24/20 39/47/39 
f 40/49/40 21/26/21 20/24/20 
f 35/50/35 23/28/23 21/26/21 
f 35/50/35 21/26/21 40/49/40 
f 36/44/36 35/43/35 41/51/41 
f 41/52/41 35/50/35 40/49/40 
f 36/44/36 42/53/42 37/45/37 
f 42/53/42 36/44/36 41/51/41 
f 42/53/42 43/54/43 37/45/37 
f 37/45/37 43/54/43 38/46/38 
f 44/55/44 38/48/38 45/56/45 
f 43/54/43 45/57/45 38/46/38 
f 44/55/44 39/47/39 38/48/38 
f 46/58/46 39/47/39 44/55/44 
f 46/58/46 40/49/40 39/47/39 
f 41/52/41 40/49/40 46/58/46 
f 42/53/42 41/51/41 47/59/47 
f 47/60/47 41/52/41 46/58/46 
f 42/53/42 48/61/48 43/54/43 
f 48/61/48 42/53/42 47/59/47 
f 43/54/43 49/62/49 45/57/45 
f 49/62/49 43/54/43 50/63/50 
f 48/61/48 50/63/50 43/54/43 
f 45/56/45 51/64/51 52/65/52 
f 52/65/52 44/55/44 45/56/45 
f 45/57/45 49/62/49 51/66/51 
f 53/67/53 44/55/44 52/65/52 
f 53/67/53 46/58/46 44/55/44 
f 47/60/47 46/58/46 53/67/53 
f 48/61/48 47/59/47 54/68/54 
f 54/69/54 47/60/47 53/67/53 
f 50/63/50 48/61/48 54/68/54 
f 49/62/49 50/63/50 55/70/55 
f 50/63/50 54/68/54 55/70/55 
f 49/62/49 55/70/55 51/66/51 
f 55/71/55 56/72/56 51/64/51 
f 56/72/56 52/65/52 51/64/51 
f 56/72/56 53/67/53 52/65/52 
f 54/69/54 53/67/53 56/72/56 
f 55/71/55 54/69/54 56/72/56 
f 22/27/22 33/73/33 26/31/26 
f 33/73/33 57/74/57 58/75/58 
f 34/41/34 59/76/59 33/40/33 
f 57/77/57 33/40/33 59/76/59 
f 33/73/33 58/75/58 26/31/26 
f 60/78/60 34/41/34 30/36/30 
f 34/41/34 60/78/60 59/76/59 
f 60/78/60 61/79/61 59/76/59 
f 57/77/57 59/76/59 62/80/62 
f 59/76/59 63/81/63 62/80/62 
f 59/76/59 61/79/61 63/81/63 
f 57/74/57 62/82/62 64/83/64 
f 57/74/57 64/83/64 58/75/58 
f 58/75/58 25/30/25 26/31/26 
f 25/30/25 58/75/58 65/84/65 
f 58/75/58 66/85/66 65/84/65 
f 58/75/58 64/83/64 66/85/66 
f 62/82/62 67/86/67 64/83/64 
f 64/83/64 67/86/67 68/87/68 
f 64/83/64 68/87/68 66/85/66 
f 63/81/63 69/88/69 62/80/62 
f 69/88/69 70/89/70 62/80/62 
f 62/82/62 70/90/70 67/86/67 
f 61/79/61 69/88/69 63/81/63 
f 60/78/60 71/91/71 61/79/61 
f 61/79/61 72/92/72 69/88/69 
f 71/91/71 72/92/72 61/79/61 
f 73/93/73 60/78/60 74/94/74 
f 73/93/73 71/91/71 60/78/60 
f 74/94/74 60/78/60 75/95/75 
f 60/78/60 30/36/30 75/95/75 
f 75/95/75 30/36/30 31/37/31 
f 74/94/74 75/95/75 76/96/76 
f 75/95/75 77/97/77 76/96/76 
f 75/95/75 31/37/31 77/97/77 
f 78/98/78 73/93/73 74/94/74 
f 79/99/79 78/98/78 74/94/74 
f 80/100/80 79/99/79 74/94/74 
f 80/100/80 74/94/74 81/101/81 
f 74/94/74 76/96/76 81/101/81 
f 73/102/73 82/103/82 83/104/83 
f 73/102/73 78/105/78 82/103/82 
f 66/85/66 71/106/71 73/102/73 
f 65/84/65 66/85/66 73/102/73 
f 65/84/65 73/102/73 83/104/83 
f 25/30/25 65/84/65 84/107/84 
f 65/84/65 83/104/83 84/107/84 
f 24/29/24 25/30/25 84/107/84 
f 24/29/24 84/107/84 27/32/27 
f 83/104/83 85/108/85 84/107/84 
f 85/108/85 86/109/86 84/107/84 
f 86/109/86 27/32/27 84/107/84 
f 82/103/82 87/110/87 83/104/83 
f 87/110/87 88/111/88 83/104/83 
f 83/104/83 88/111/88 85/108/85 
f 87/110/87 82/103/82 89/112/89 
f 78/105/78 89/112/89 82/103/82 
f 78/105/78 90/113/90 89/112/89 
f 79/99/79 91/114/91 78/98/78 
f 91/114/91 90/115/90 78/98/78 
f 91/114/91 79/99/79 80/100/80 
f 91/114/91 80/100/80 92/116/92 
f 92/116/92 80/100/80 93/117/93 
f 80/100/80 81/101/81 93/117/93 
f 94/118/94 93/117/93 81/101/81 
f 94/118/94 81/101/81 95/119/95 
f 81/101/81 76/96/76 95/119/95 
f 76/96/76 96/120/96 97/121/97 
f 76/96/76 77/97/77 96/120/96 
f 95/119/95 76/96/76 97/121/97 
f 77/97/77 98/122/98 96/120/96 
f 77/97/77 32/38/32 98/122/98 
f 31/37/31 32/38/32 77/97/77 
f 97/121/97 96/120/96 99/123/99 
f 96/120/96 100/124/100 99/123/99 
f 96/120/96 98/122/98 100/124/100 
f 97/121/97 99/123/99 101/125/101 
f 95/119/95 97/121/97 102/126/102 
f 102/126/102 97/121/97 101/125/101 
f 103/127/103 95/119/95 102/126/102 
f 104/128/104 95/119/95 103/127/103 
f 104/128/104 94/118/94 95/119/95 
f 87/110/87 94/129/94 88/111/88 
f 94/129/94 87/110/87 93/130/93 
f 88/111/88 94/129/94 105/131/105 
f 94/129/94 106/132/106 105/131/105 
f 94/129/94 104/133/104 106/132/106 
f 87/110/87 107/134/107 93/130/93 
f 87/110/87 89/112/89 107/134/107 
f 90/113/90 108/135/108 89/112/89 
f 89/112/89 109/136/109 107/134/107 
f 89/112/89 108/135/108 109/136/109 
f 91/114/91 110/137/110 90/115/90 
f 110/137/110 111/138/111 90/115/90 
f 90/113/90 111/139/111 108/135/108 
f 110/137/110 91/114/91 92/116/92 
f 110/137/110 92/116/92 112/140/112 
f 112/140/112 92/116/92 113/141/113 
f 92/116/92 93/117/93 113/141/113 
f 113/142/113 93/130/93 107/134/107 
f 113/142/113 107/134/107 109/136/109 
f 114/143/114 109/136/109 115/144/115 
f 114/143/114 113/142/113 109/136/109 
f 108/135/108 115/144/115 109/136/109 
f 111/139/111 116/145/116 108/135/108 
f 108/135/108 116/145/116 115/144/115 
f 111/139/111 117/146/117 116/145/116 
f 110/137/110 118/147/118 111/138/111 
f 118/147/118 117/148/117 111/138/111 
f 118/147/118 110/137/110 112/140/112 
f 112/140/112 113/141/113 114/149/114 
f 118/147/118 112/140/112 119/150/119 
f 119/150/119 112/140/112 114/149/114 
f 120/151/120 114/143/114 115/144/115 
f 119/150/119 114/149/114 120/152/120 
f 120/151/120 115/144/115 121/153/121 
f 116/145/116 121/153/121 115/144/115 
f 116/145/116 122/154/122 121/153/121 
f 116/145/116 123/155/123 122/154/122 
f 117/146/117 123/155/123 116/145/116 
f 124/156/124 123/157/123 117/148/117 
f 118/147/118 124/156/124 117/148/117 
f 124/156/124 118/147/118 125/158/125 
f 125/158/125 118/147/118 119/150/119 
f 125/158/125 119/150/119 120/152/120 
f 126/159/126 120/151/120 121/153/121 
f 125/158/125 120/152/120 126/160/126 
f 126/159/126 121/153/121 127/161/127 
f 127/161/127 121/153/121 128/162/128 
f 122/154/122 128/162/128 121/153/121 
f 122/154/122 129/163/129 128/162/128 
f 123/155/123 130/164/130 122/154/122 
f 122/154/122 130/164/130 129/163/129 
f 124/156/124 131/165/131 123/157/123 
f 131/165/131 130/166/130 123/157/123 
f 131/165/131 124/156/124 125/158/125 
f 132/167/132 125/158/125 126/160/126 
f 131/165/131 125/158/125 132/167/132 
f 132/167/132 126/160/126 127/168/127 
f 133/169/133 127/161/127 134/170/134 
f 127/161/127 128/162/128 134/170/134 
f 135/171/135 127/168/127 133/172/133 
f 135/171/135 132/167/132 127/168/127 
f 129/163/129 134/170/134 128/162/128 
f 129/163/129 136/173/136 134/170/134 
f 130/164/130 136/173/136 129/163/129 
f 131/165/131 137/174/137 130/166/130 
f 137/174/137 138/175/138 130/166/130 
f 130/164/130 138/176/138 136/173/136 
f 137/174/137 131/165/131 132/167/132 
f 137/174/137 132/167/132 135/171/135 
f 139/177/139 137/174/137 135/171/135 
f 139/177/139 135/171/135 133/172/133 
f 140/178/140 133/169/133 141/179/141 
f 133/169/133 134/170/134 141/179/141 
f 139/177/139 133/172/133 140/180/140 
f 136/173/136 141/179/141 134/170/134 
f 138/176/138 142/181/142 136/173/136 
f 136/173/136 142/181/142 141/179/141 
f 137/174/137 143/182/143 138/175/138 
f 138/176/138 144/183/144 142/181/142 
f 138/175/138 143/182/143 144/184/144 
f 143/182/143 137/174/137 139/177/139 
f 143/182/143 139/177/139 140/180/140 
f 143/182/143 140/180/140 144/184/144 
f 142/181/142 140/178/140 141/179/141 
f 142/181/142 144/183/144 140/178/140 
f 106/132/106 145/185/145 146/186/146 
f 104/133/104 145/185/145 106/132/106 
f 105/131/105 106/132/106 147/187/147 
f 106/132/106 148/188/148 147/187/147 
f 106/132/106 146/186/146 148/188/148 
f 145/185/145 149/189/149 146/186/146 
f 149/189/149 145/185/145 150/190/150 
f 104/133/104 151/191/151 145/185/145 
f 151/191/151 150/190/150 145/185/145 
f 146/186/146 152/192/152 153/193/153 
f 146/186/146 149/189/149 152/192/152 
f 148/188/148 146/186/146 153/193/153 
f 147/187/147 148/188/148 154/194/154 
f 148/188/148 153/193/153 154/194/154 
f 105/131/105 147/187/147 155/195/155 
f 155/195/155 147/187/147 101/196/101 
f 147/187/147 154/194/154 101/196/101 
f 88/111/88 105/131/105 85/108/85 
f 85/108/85 105/131/105 155/195/155 
f 85/108/85 155/195/155 156/197/156 
f 156/197/156 155/195/155 99/198/99 
f 155/195/155 101/196/101 99/198/99 
f 102/126/102 101/125/101 154/199/154 
f 157/200/157 154/199/154 153/201/153 
f 157/200/157 102/126/102 154/199/154 
f 158/202/158 153/201/153 152/203/152 
f 158/202/158 157/200/157 153/201/153 
f 159/204/159 152/203/152 160/205/160 
f 159/204/159 158/202/158 152/203/152 
f 149/189/149 160/206/160 152/192/152 
f 161/207/161 149/189/149 162/208/162 
f 149/189/149 150/190/150 162/208/162 
f 149/189/149 161/207/161 160/206/160 
f 151/191/151 163/209/163 150/190/150 
f 163/209/163 162/208/162 150/190/150 
f 163/210/163 151/211/151 164/212/164 
f 151/211/151 165/213/165 164/212/164 
f 151/211/151 104/128/104 165/213/165 
f 165/213/165 104/128/104 103/127/103 
f 164/212/164 165/213/165 158/202/158 
f 165/213/165 103/127/103 158/202/158 
f 158/202/158 103/127/103 157/200/157 
f 164/212/164 158/202/158 159/204/159 
f 103/127/103 102/126/102 157/200/157 
f 166/214/166 159/204/159 160/205/160 
f 167/215/167 159/204/159 166/214/166 
f 167/215/167 164/212/164 159/204/159 
f 166/214/166 160/205/160 168/216/168 
f 161/207/161 168/217/168 160/206/160 
f 169/218/169 161/207/161 170/219/170 
f 161/207/161 162/208/162 170/219/170 
f 161/207/161 169/218/169 171/220/171 
f 161/207/161 171/220/171 168/217/168 
f 163/209/163 172/221/172 162/208/162 
f 172/221/172 170/219/170 162/208/162 
f 163/210/163 164/212/164 167/215/167 
f 172/222/172 163/210/163 167/215/167 
f 172/222/172 167/215/167 173/223/173 
f 173/223/173 167/215/167 174/224/174 
f 174/224/174 167/215/167 166/214/166 
f 174/224/174 166/214/166 175/225/175 
f 175/225/175 166/214/166 171/226/171 
f 171/226/171 166/214/166 168/216/168 
f 176/227/176 175/225/175 171/226/171 
f 176/227/176 171/226/171 177/228/177 
f 171/220/171 169/218/169 178/229/178 
f 177/230/177 171/220/171 178/229/178 
f 169/218/169 170/219/170 178/229/178 
f 172/221/172 173/231/173 170/219/170 
f 173/231/173 179/232/179 170/219/170 
f 178/229/178 170/219/170 179/232/179 
f 180/233/180 173/223/173 181/234/181 
f 173/223/173 174/224/174 181/234/181 
f 173/231/173 180/235/180 179/232/179 
f 181/234/181 174/224/174 175/225/175 
f 181/234/181 175/225/175 176/227/176 
f 182/236/182 181/234/181 176/227/176 
f 183/237/183 176/227/176 177/228/177 
f 182/236/182 176/227/176 183/237/183 
f 184/238/184 177/230/177 178/229/178 
f 183/237/183 177/228/177 185/239/185 
f 177/230/177 184/238/184 185/240/185 
f 186/241/186 178/229/178 179/232/179 
f 184/238/184 178/229/178 186/241/186 
f 180/235/180 186/241/186 179/232/179 
f 187/242/187 180/233/180 182/236/182 
f 180/233/180 181/234/181 182/236/182 
f 180/235/180 187/243/187 186/241/186 
f 187/242/187 182/236/182 188/244/188 
f 188/244/188 182/236/182 183/237/183 
f 189/245/189 183/237/183 185/239/185 
f 188/244/188 183/237/183 189/245/189 
f 184/238/184 190/246/190 185/240/185 
f 189/245/189 185/239/185 190/247/190 
f 191/248/191 184/238/184 186/241/186 
f 192/249/192 184/238/184 191/248/191 
f 184/238/184 192/249/192 190/246/190 
f 187/243/187 193/250/193 186/241/186 
f 191/248/191 186/241/186 193/250/193 
f 193/251/193 187/242/187 188/244/188 
f 193/251/193 188/244/188 189/245/189 
f 193/251/193 189/245/189 190/247/190 
f 192/249/192 193/250/193 190/246/190 
f 192/249/192 191/248/191 193/250/193 
f 156/197/156 99/198/99 100/252/100 
f 86/109/86 156/197/156 194/253/194 
f 194/253/194 156/197/156 100/252/100 
f 86/109/86 85/108/85 156/197/156 
f 195/254/195 194/253/194 100/252/100 
f 195/254/195 100/252/100 196/255/196 
f 98/122/98 197/256/197 100/124/100 
f 197/256/197 196/257/196 100/124/100 
f 29/34/29 86/109/86 194/253/194 
f 198/258/198 194/253/194 195/254/195 
f 198/258/198 29/34/29 194/253/194 
f 86/109/86 29/34/29 27/32/27 
f 29/34/29 198/258/198 28/33/28 
f 199/259/199 198/258/198 195/254/195 
f 198/258/198 199/259/199 200/260/200 
f 198/258/198 200/260/200 28/33/28 
f 201/261/201 195/254/195 196/255/196 
f 199/259/199 195/254/195 201/261/201 
f 197/256/197 202/262/202 196/257/196 
f 202/262/202 203/263/203 196/257/196 
f 201/261/201 196/255/196 203/264/203 
f 204/265/204 197/256/197 98/122/98 
f 204/265/204 205/266/205 197/256/197 
f 205/266/205 202/262/202 197/256/197 
f 32/38/32 204/265/204 98/122/98 
f 205/266/205 204/265/204 200/267/200 
f 204/265/204 28/35/28 200/267/200 
f 204/265/204 32/38/32 28/35/28 
f 200/260/200 199/259/199 206/268/206 
f 205/266/205 200/267/200 206/269/206 
f 199/259/199 207/270/207 206/268/206 
f 199/259/199 208/271/208 207/270/207 
f 208/271/208 199/259/199 201/261/201 
f 209/272/209 201/261/201 210/273/210 
f 201/261/201 203/264/203 210/273/210 
f 208/271/208 201/261/201 209/272/209 
f 202/262/202 211/274/211 203/263/203 
f 211/274/211 210/275/210 203/263/203 
f 205/266/205 212/276/212 202/262/202 
f 212/276/212 211/274/211 202/262/202 
f 212/276/212 205/266/205 206/269/206 
f 212/276/212 206/269/206 207/277/207 
f 213/278/213 212/276/212 207/277/207 
f 208/271/208 214/279/214 207/270/207 
f 213/278/213 207/277/207 214/280/214 
f 208/271/208 209/272/209 215/281/215 
f 214/279/214 208/271/208 215/281/215 
f 209/272/209 210/273/210 216/282/216 
f 209/272/209 216/282/216 217/283/217 
f 215/281/215 209/272/209 217/283/217 
f 211/274/211 218/284/218 210/275/210 
f 216/285/216 210/275/210 218/284/218 
f 218/284/218 211/274/211 213/278/213 
f 213/278/213 211/274/211 212/276/212 
f 219/286/219 218/284/218 213/278/213 
f 219/286/219 213/278/213 214/280/214 
f 215/281/215 220/287/220 214/279/214 
f 219/286/219 214/280/214 220/288/220 
f 215/281/215 217/283/217 221/289/221 
f 215/281/215 221/289/221 220/287/220 
f 217/283/217 222/290/222 221/289/221 
f 217/283/217 216/282/216 223/291/223 
f 217/283/217 223/291/223 222/290/222 
f 224/292/224 216/285/216 218/284/218 
f 223/293/223 216/285/216 224/292/224 
f 224/292/224 218/284/218 219/286/219 
f 225/294/225 224/292/224 219/286/219 
f 219/286/219 226/295/226 225/294/225 
f 226/295/226 219/286/219 220/288/220 
f 220/287/220 221/289/221 227/296/227 
f 226/295/226 220/288/220 228/297/228 
f 220/287/220 227/296/227 228/298/228 
f 221/289/221 222/290/222 229/299/229 
f 221/289/221 229/299/229 227/296/227 
f 223/291/223 230/300/230 222/290/222 
f 229/299/229 222/290/222 230/300/230 
f 223/293/223 225/294/225 230/301/230 
f 223/293/223 224/292/224 225/294/225 
f 230/301/230 225/294/225 231/302/231 
f 231/302/231 225/294/225 232/303/232 
f 226/295/226 232/303/232 225/294/225 
f 226/295/226 228/297/228 233/304/233 
f 232/303/232 226/295/226 234/305/234 
f 234/305/234 226/295/226 233/304/233 
f 228/298/228 227/296/227 235/306/235 
f 233/307/233 228/298/228 235/306/235 
f 227/296/227 229/299/229 236/308/236 
f 235/306/235 227/296/227 236/308/236 
f 229/299/229 230/300/230 236/308/236 
f 236/308/236 230/300/230 231/309/231 
f 236/308/236 231/309/231 237/310/237 
f 231/302/231 232/303/232 238/311/238 
f 231/309/231 238/312/238 237/310/237 
f 239/313/239 232/303/232 234/305/234 
f 238/311/238 232/303/232 239/313/239 
f 234/305/234 233/304/233 240/314/240 
f 234/305/234 241/315/241 239/313/239 
f 241/315/241 234/305/234 240/314/240 
f 233/307/233 235/306/235 242/316/242 
f 240/317/240 233/307/233 242/316/242 
f 235/306/235 236/308/236 237/310/237 
f 235/306/235 237/310/237 242/316/242 
f 237/310/237 238/312/238 243/318/243 
f 242/316/242 237/310/237 244/319/244 
f 237/310/237 243/318/243 244/319/244 
f 238/311/238 239/313/239 245/320/245 
f 238/311/238 245/320/245 243/321/243 
f 241/315/241 245/320/245 239/313/239 
f 245/320/245 241/315/241 246/322/246 
f 246/322/246 241/315/241 240/314/240 
f 240/317/240 242/316/242 247/323/247 
f 246/322/246 240/314/240 247/324/247 
f 242/316/242 244/319/244 248/325/248 
f 247/323/247 242/316/242 248/325/248 
f 244/319/244 243/318/243 249/326/249 
f 244/319/244 249/326/249 250/327/250 
f 250/327/250 251/328/251 244/319/244 
f 248/325/248 244/319/244 251/328/251 
f 243/321/243 245/320/245 249/329/249 
f 249/329/249 245/320/245 252/330/252 
f 252/330/252 245/320/245 246/322/246 
f 253/331/253 252/330/252 246/322/246 
f 253/331/253 246/322/246 254/332/254 
f 246/322/246 247/324/247 254/332/254 
f 247/323/247 248/325/248 254/333/254 
f 254/333/254 248/325/248 251/328/251 
f 66/85/66 68/87/68 71/106/71 
f 68/87/68 255/334/255 71/106/71 
f 67/86/67 256/335/256 68/87/68 
f 68/87/68 256/335/256 255/334/255 
f 71/91/71 255/336/255 72/92/72 
f 255/336/255 257/337/257 72/92/72 
f 255/336/255 258/338/258 257/337/257 
f 256/335/256 258/339/258 255/334/255 
f 256/335/256 259/340/259 258/339/258 
f 67/86/67 260/341/260 256/335/256 
f 260/341/260 259/340/259 256/335/256 
f 70/90/70 260/341/260 67/86/67 
f 70/90/70 261/342/261 260/341/260 
f 261/342/261 262/343/262 260/341/260 
f 260/341/260 262/343/262 259/340/259 
f 263/344/263 259/340/259 264/345/264 
f 259/340/259 265/346/265 258/339/258 
f 259/340/259 263/344/263 265/346/265 
f 262/343/262 264/345/264 259/340/259 
f 258/338/258 266/347/266 257/337/257 
f 258/338/258 265/348/265 266/347/266 
f 257/337/257 266/347/266 267/349/267 
f 72/92/72 257/337/257 267/349/267 
f 72/92/72 267/349/267 69/88/69 
f 69/88/69 267/349/267 70/89/70 
f 268/350/268 267/349/267 266/347/266 
f 268/350/268 261/351/261 267/349/267 
f 261/351/261 70/89/70 267/349/267 
f 261/351/261 268/350/268 269/352/269 
f 261/342/261 269/353/269 262/343/262 
f 262/343/262 270/354/270 271/355/271 
f 269/353/269 270/354/270 262/343/262 
f 262/343/262 271/355/271 264/345/264 
f 263/344/263 264/345/264 272/356/272 
f 271/355/271 272/356/272 264/345/264 
f 273/357/273 263/358/263 274/359/274 
f 273/357/273 275/360/275 263/358/263 
f 275/360/275 266/347/266 263/358/263 
f 265/348/265 263/358/263 266/347/266 
f 274/361/274 263/344/263 272/356/272 
f 275/360/275 268/350/268 266/347/266 
f 268/350/268 270/362/270 269/352/269 
f 275/360/275 276/363/276 268/350/268 
f 276/363/276 270/362/270 268/350/268 
f 276/363/276 277/364/277 270/362/270 
f 277/364/277 278/365/278 270/362/270 
f 270/354/270 279/366/279 271/355/271 
f 270/354/270 278/367/278 279/366/279 
f 271/355/271 279/366/279 272/356/272 
f 274/361/274 272/356/272 280/368/280 
f 279/366/279 280/368/280 272/356/272 
f 281/369/281 274/361/274 280/368/280 
f 282/370/282 274/359/274 281/371/281 
f 282/370/282 273/357/273 274/359/274 
f 277/364/277 276/363/276 273/357/273 
f 276/363/276 275/360/275 273/357/273 
f 277/364/277 273/357/273 282/370/282 
f 283/372/283 277/364/277 282/370/282 
f 277/364/277 283/372/283 278/365/278 
f 278/367/278 284/373/284 279/366/279 
f 278/367/278 285/374/285 284/373/284 
f 283/372/283 285/375/285 278/365/278 
f 279/366/279 284/373/284 280/368/280 
f 281/369/281 280/368/280 286/376/286 
f 284/373/284 286/376/286 280/368/280 
f 287/377/287 281/369/281 286/376/286 
f 288/378/288 281/371/281 287/379/287 
f 288/378/288 282/370/282 281/371/281 
f 283/372/283 282/370/282 288/378/288 
f 289/380/289 283/372/283 288/378/288 
f 283/372/283 289/380/289 285/375/285 
f 285/374/285 290/381/290 284/373/284 
f 285/374/285 291/382/291 290/381/290 
f 285/375/285 289/380/289 291/383/291 
f 284/373/284 290/381/290 286/376/286 
f 290/381/290 287/377/287 286/376/286 
f 289/380/289 287/379/287 291/383/291 
f 289/380/289 288/378/288 287/379/287 
f 290/381/290 291/382/291 287/377/287 
# 0 polygons - 574 triangles

