# 3ds Max Wavefront OBJ Exporter v0.99 - (c)2007 guruware
# File Created: 07.05.2025 17:13:47

mtllib Brazo_derecho.mtl

#
# object Brazoderecho
#

v  -1.2878 7.2645 0.0088
v  -1.3204 7.2894 0.0212
v  -1.9872 6.4567 0.2232
v  -2.0189 6.4762 0.2292
v  -1.4096 7.3574 0.0552
v  -2.0776 6.3430 0.2572
v  -2.1176 6.5367 0.2459
v  -1.4907 7.4192 0.0861
v  -2.1071 6.3654 0.2617
v  -2.1419 6.2621 0.2814
v  -2.1701 6.2863 0.2849
v  -2.8313 5.3705 0.5327
v  -2.2001 6.4358 0.2742
v  -2.2076 6.5917 0.2609
v  -1.5808 7.4700 0.0526
v  -2.3838 6.6891 0.2336
v  -1.6427 7.4971 -0.0286
v  -2.2845 6.4997 0.2856
v  -2.2595 6.3630 0.2946
v  -2.8634 5.3968 0.5469
v  -2.8700 5.3204 0.5468
v  -2.9022 5.3470 0.5615
v  -2.9880 5.4509 0.5530
v  -2.3406 6.4326 0.3036
v  -2.4544 6.6172 0.2541
v  -2.4676 6.7219 0.1468
v  -1.6679 7.5081 -0.0616
v  -2.4909 6.7308 0.1219
v  -2.5324 6.6585 0.1640
v  -2.5060 6.5647 0.2691
v  -3.1648 5.5219 0.5585
v  -3.0275 5.4014 0.5670
v  -2.9316 5.2988 0.5794
v  -2.8993 5.2723 0.5651
v  -3.0373 5.0458 0.6512
v  -3.0743 5.0651 0.6661
v  -3.1580 4.8244 0.7781
v  -3.0620 5.3568 0.5857
v  -3.2075 5.4747 0.5717
v  -3.3589 5.5852 0.5265
v  -2.5812 6.6107 0.1770
v  -2.5537 6.6694 0.1388
v  -2.5570 6.6632 0.0788
v  -2.4961 6.7231 0.0635
v  -1.6729 7.5057 -0.1062
v  -1.6938 7.4958 -0.2930
v  -2.5176 6.6882 -0.1945
v  -1.6819 7.4675 -0.4806
v  -2.5710 6.6345 -0.1862
v  -2.5034 6.6285 -0.4742
v  -1.6165 7.4005 -0.6635
v  -2.4487 6.5588 -0.7086
v  -1.6017 7.3853 -0.7049
v  -2.5510 6.5787 -0.4725
v  -2.6239 6.5812 -0.1781
v  -2.6056 6.6154 0.0910
v  -2.6013 6.6229 0.1517
v  -3.4916 5.6385 0.4779
v  -3.4007 5.5372 0.5391
v  -3.2428 5.4310 0.5909
v  -3.2305 5.1390 0.6842
v  -3.1955 4.8433 0.7943
v  -3.2798 4.6640 0.9306
v  -3.3230 4.6823 0.9685
v  -3.3762 4.9405 0.8120
v  -3.4162 5.2164 0.6852
v  -3.4367 5.4938 0.5579
v  -3.5350 5.5922 0.4922
v  -3.5151 5.6471 0.4551
v  -3.5299 5.6370 0.3837
v  -3.5438 5.5903 0.0365
v  -3.5171 5.5219 -0.3131
v  -2.6106 6.5163 -0.4702
v  -2.5643 6.4393 -0.7025
v  -2.4960 6.5099 -0.7061
v  -2.4389 6.5394 -0.7629
v  -2.4860 6.4905 -0.7612
v  -2.5562 6.4178 -0.7588
v  -3.4641 5.4410 -0.6395
v  -3.5076 5.3928 -0.6365
v  -3.5605 5.4742 -0.3055
v  -3.5875 5.5433 0.0467
v  -3.5735 5.5908 0.3975
v  -3.5584 5.6009 0.4695
v  -3.5715 5.5481 0.5081
v  -3.6264 5.2650 0.6568
v  -3.5639 5.0165 0.7900
v  -3.5100 4.7405 0.9983
v  -3.3734 4.5875 1.0068
v  -3.3381 4.5740 0.9948
v  -3.3325 4.5087 0.8949
v  -3.2914 4.5926 0.8172
v  -3.3435 4.5343 0.7511
v  -3.3713 4.4595 0.8295
v  -3.4004 4.3227 1.0163
v  -3.4417 4.2666 0.9437
v  -3.3952 4.4260 1.1238
v  -3.4305 4.4398 1.1358
v  -3.5532 4.6331 1.0329
v  -3.6557 4.7575 1.0020
v  -3.8138 4.9774 0.7771
v  -3.7586 5.0710 0.7411
v  -3.7904 5.2837 0.6032
v  -3.9455 5.0836 0.6860
v  -3.9990 5.0045 0.6907
v  -3.8287 4.9534 0.7857
v  -3.6940 4.7492 1.0000
v  -3.6881 4.6485 1.0223
v  -3.6048 4.4863 1.1617
v  -3.4363 4.4239 1.1513
v  -3.4010 4.4101 1.1395
v  -3.4059 4.3066 1.0304
v  -3.4470 4.2506 0.9562
v  -3.5531 3.9906 1.1847
v  -3.5146 4.0496 1.3247
v  -3.5864 3.9911 1.2686
v  -3.4995 4.1426 1.4516
v  -3.5557 4.0207 1.3805
v  -3.5937 4.0247 1.3842
v  -3.6242 3.9957 1.2699
v  -3.5414 4.1041 1.4722
v  -3.5344 4.1584 1.4619
v  -3.6055 4.4691 1.1759
v  -3.7328 4.5008 1.1521
v  -3.7293 4.6528 1.0194
v  -3.7559 4.7422 0.9836
v  -3.7644 4.6514 1.0117
v  -3.7706 4.5051 1.1493
v  -3.7668 4.4868 1.1624
v  -3.7389 4.4838 1.1648
v  -3.7603 4.2162 1.4625
v  -3.6567 4.2020 1.4797
v  -3.5789 4.1093 1.4809
v  -3.6966 4.0520 1.3827
v  -3.7144 4.0194 1.2750
v  -3.7880 4.0839 1.3814
v  -3.7940 4.0487 1.2731
v  -3.8223 4.0648 1.2730
v  -3.8240 4.1024 1.3767
v  -3.8530 4.1453 1.3271
v  -3.8450 4.0805 1.1841
v  -3.8583 4.3948 1.0105
v  -3.8599 4.3134 0.9087
v  -3.8558 4.4084 0.9929
v  -3.8617 4.3313 0.8945
v  -3.8243 4.5114 0.8229
v  -3.8112 4.5566 0.9021
v  -3.8352 4.5951 0.7988
v  -3.8035 4.5044 1.1400
v  -3.8035 4.4868 1.1531
v  -3.8022 4.2178 1.4493
v  -3.7854 4.1693 1.4717
v  -3.7597 4.1576 1.4804
v  -3.6738 4.1339 1.4821
v  -3.7753 4.2183 1.4601
v  -3.8386 4.6688 0.8710
v  -3.8665 4.6448 0.7613
v  -3.9017 4.7262 0.7976
v  -3.9482 4.6517 0.7311
v  -3.8442 4.9053 0.7755
v  -3.9860 4.7212 0.7320
v  -4.0429 4.9406 0.6960
v  -4.0166 4.9785 0.6923
v  -4.0262 5.0318 0.6741
v  -4.0610 4.9907 0.6745
v  -4.0955 4.9500 0.6749
v  -4.2889 4.7429 0.6843
v  -4.1482 4.5840 0.7327
v  -4.0541 4.3785 0.6741
v  -3.8407 4.4952 0.6793
v  -4.1932 4.5317 0.7318
v  -4.0998 4.3478 0.6697
v  -4.3284 4.6966 0.6896
v  -4.3117 4.7260 0.6104
v  -4.1216 4.9282 0.5940
v  -4.0711 4.9870 0.5928
v  -4.0018 5.0679 0.5912
v  -3.9777 5.0891 0.6735
v  -3.8259 5.2863 0.5888
v  -3.8432 5.2651 0.5108
v  -3.9159 5.1700 0.1509
v  -4.0995 4.9712 0.2168
v  -4.1708 4.8982 0.2377
v  -4.2308 4.8368 0.2553
v  -4.4074 4.6553 0.3012
v  -4.3458 4.6759 0.6134
v  -4.3529 4.6715 0.6881
v  -4.2197 4.4947 0.7302
v  -4.1251 4.3207 0.6590
v  -4.4838 4.1664 0.7165
v  -4.3301 4.0391 0.6645
v  -4.3597 4.0131 0.6662
v  -4.4959 4.1453 0.7190
v  -4.5081 4.1237 0.7196
v  -4.3857 3.9849 0.6684
v  -4.7020 3.7463 0.7198
v  -4.5494 3.7091 0.6721
v  -4.6163 3.6833 0.6703
v  -4.7330 3.6878 0.6799
v  -4.7337 3.6766 0.6254
v  -4.6165 3.6737 0.6202
v  -4.6172 3.6415 0.4526
v  -4.7362 3.6375 0.4356
v  -4.6174 3.6334 0.4104
v  -4.7367 3.6296 0.3973
v  -4.6994 3.6779 0.3625
v  -4.5502 3.6580 0.4129
v  -4.8637 3.7064 0.4148
v  -4.8641 3.7140 0.4530
v  -4.8428 3.7841 0.4034
v  -4.8656 3.7437 0.6034
v  -4.8661 3.7526 0.6485
v  -4.8447 3.8384 0.6994
v  -4.6394 4.2529 0.6915
v  -4.6275 4.2756 0.6905
v  -4.6158 4.2987 0.6872
v  -4.3650 4.6481 0.6133
v  -4.6207 4.2853 0.6157
v  -4.6323 4.2630 0.6192
v  -4.6442 4.2408 0.6204
v  -4.8442 3.8266 0.6349
v  -4.6616 4.1966 0.3611
v  -4.6498 4.2171 0.3591
v  -4.6384 4.2364 0.3543
v  -4.4099 4.5613 0.3369
v  -4.4100 4.5993 0.3311
v  -4.4184 4.5894 0.2943
v  -4.4159 4.5498 0.3002
v  -4.6410 4.2293 0.3160
v  -4.6524 4.2103 0.3208
v  -4.6642 4.1900 0.3227
v  -4.8425 3.7771 0.3650
v  -4.5105 4.0375 0.3373
v  -4.3895 3.9277 0.3888
v  -4.3644 3.9558 0.3827
v  -4.4968 4.0548 0.3348
v  -4.4823 4.0688 0.3289
v  -4.2714 4.3774 0.2925
v  -4.4188 4.5450 0.2844
v  -4.4217 4.5401 0.2686
v  -4.4176 4.5776 0.2485
v  -4.3920 4.5260 -0.1890
v  -4.2188 4.7379 -0.2067
v  -4.1588 4.8074 -0.2122
v  -4.0988 4.8768 -0.2177
v  -3.9100 5.0975 -0.2394
v  -4.0415 4.8128 -0.5856
v  -4.1008 4.7406 -0.5797
v  -4.1536 4.6760 -0.5744
v  -4.3174 4.4802 -0.5293
v  -4.3005 4.4699 -0.6063
v  -4.1389 4.6624 -0.6556
v  -4.0901 4.7227 -0.6606
v  -3.9233 4.4644 -0.6132
v  -4.0770 4.2841 -0.5772
v  -4.3138 4.4175 -0.5973
v  -4.3315 4.4267 -0.5205
v  -4.4015 4.4632 -0.2184
v  -4.4101 4.4677 -0.1810
v  -4.4109 4.4787 -0.1380
v  -4.4206 4.5292 0.2225
v  -4.4118 4.4471 -0.1239
v  -4.4107 4.4368 -0.1671
v  -4.4105 4.4344 -0.1773
v  -4.4099 4.4312 -0.1903
v  -4.4017 4.4264 -0.2278
v  -4.3407 4.3911 -0.5067
v  -4.3251 4.3802 -0.5884
v  -4.1076 4.2470 -0.5711
v  -3.9482 4.1497 -0.5543
v  -3.9026 4.1769 -0.5566
v  -3.7313 4.3413 -0.5835
v  -3.8568 4.5304 -0.6269
v  -3.6407 4.4074 -0.6016
v  -4.0286 4.7987 -0.6668
v  -3.7581 4.6281 -0.6474
v  -3.5065 4.5051 -0.6285
v  -3.4718 4.8360 -0.6884
v  -3.1888 4.6997 -0.6700
v  -3.8404 5.0067 -0.6996
v  -3.5252 5.3336 -0.7042
v  -3.1521 5.1980 -0.6847
v  -2.8488 5.0289 -0.6821
v  -3.1127 5.2426 -0.6842
v  -2.8060 5.0704 -0.6836
v  -3.4839 5.3765 -0.7048
v  -3.5482 5.3493 -0.6343
v  -3.8532 5.0228 -0.6180
v  -3.6006 5.4309 -0.2979
v  -3.6259 5.4996 0.0589
v  -3.6101 5.5466 0.4128
v  -3.5954 5.5574 0.4860
v  -3.4407 5.4250 -0.7074
v  -3.0724 5.2932 -0.6883
v  -2.7684 5.1231 -0.6868
v  -2.3379 6.2161 -0.7631
v  -2.1127 6.0435 -0.7426
v  -2.0449 6.1387 -0.7449
v  -2.2682 6.3105 -0.7681
v  -2.2019 6.4004 -0.7728
v  -1.9591 6.2593 -0.7478
v  -1.4550 7.2643 -0.7487
v  -1.3059 7.1325 -0.6818
v  -4.3362 3.9817 0.3746
v  -4.1074 4.2402 0.2910
v  -4.2685 4.3740 0.2774
v  -4.2665 4.3657 0.2613
v  -4.1056 4.2338 0.2683
v  -4.0748 4.2536 0.2723
v  -4.0979 4.2247 0.2501
v  -4.3147 3.9144 0.2350
v  -4.5122 4.0236 0.2640
v  -4.3543 3.8880 0.2343
v  -4.7119 4.1526 0.2536
v  -4.7076 4.1438 0.2073
v  -4.6820 4.0900 -0.0740
v  -4.6947 4.0750 -0.0708
v  -4.7212 4.1300 0.2089
v  -4.7255 4.1391 0.2552
v  -4.5192 4.0069 0.2654
v  -4.3812 3.8609 0.2387
v  -4.5265 3.9919 0.2671
v  -4.5766 3.6297 0.2577
v  -4.7362 4.1271 0.2569
v  -4.7354 3.6391 0.3168
v  -4.6152 3.5782 0.2451
v  -4.7628 3.5754 0.2961
v  -4.7588 3.5671 0.2496
v  -4.6091 3.5696 0.1990
v  -4.9346 3.6433 0.2686
v  -4.9556 3.7276 0.3043
v  -4.7317 4.1178 0.2106
v  -4.7048 4.0617 -0.0682
v  -4.7007 4.0530 -0.1115
v  -4.6905 4.0665 -0.1142
v  -4.6780 4.0816 -0.1174
v  -4.2232 4.2727 -0.1444
v  -4.2209 4.2674 -0.1623
v  -4.0507 4.1508 -0.1294
v  -4.2862 3.8515 -0.0562
v  -4.4733 3.9494 -0.0948
v  -4.3229 3.8256 -0.0568
v  -4.4844 3.9334 -0.0941
v  -4.4938 3.9200 -0.0929
v  -4.3529 3.8004 -0.0532
v  -4.5385 3.5744 -0.0273
v  -4.7001 3.5751 -0.0708
v  -4.9344 3.6729 -0.0349
v  -4.9372 3.6800 0.0088
v  -4.9527 3.7201 0.2576
v  -4.9313 3.6361 0.2219
v  -4.9183 3.6071 0.0338
v  -4.9153 3.6003 -0.0100
v  -4.7340 3.5156 -0.0381
v  -4.5818 3.5308 -0.0079
v  -4.7377 3.5234 0.0055
v  -4.5875 3.5389 0.0354
v  -4.0468 4.1486 -0.1586
v  -4.0241 4.1648 -0.1646
v  -4.0435 4.1470 -0.1881
v  -4.2202 4.2650 -0.1814
v  -4.4704 3.9658 -0.1394
v  -4.2532 3.8826 -0.1441
v  -4.2875 3.8549 -0.1432
v  -4.4787 3.9536 -0.1391
v  -4.3148 3.8250 -0.1428
v  -4.6680 4.0898 -0.1661
v  -4.6615 4.0851 -0.2040
v  -4.6179 4.0528 -0.4585
v  -4.6066 4.0445 -0.5247
v  -4.6176 4.0317 -0.5236
v  -4.6285 4.0399 -0.4576
v  -4.6706 4.0714 -0.2034
v  -4.6769 4.0761 -0.1655
v  -4.6846 4.0634 -0.1657
v  -4.4859 3.9417 -0.1394
v  -4.4933 3.6407 -0.1328
v  -4.6691 3.6753 -0.1076
v  -4.5514 3.6088 -0.1555
v  -4.6959 3.6156 -0.1405
v  -4.6904 3.6088 -0.1782
v  -4.5454 3.6006 -0.1965
v  -4.6640 3.5758 -0.3601
v  -4.5231 3.5701 -0.3491
v  -4.6568 3.5668 -0.4098
v  -4.5167 3.5614 -0.3929
v  -4.6191 3.6151 -0.4472
v  -4.4512 3.5896 -0.4191
v  -4.8269 3.6636 -0.4264
v  -4.8334 3.6716 -0.3771
v  -4.8570 3.7008 -0.1969
v  -4.8620 3.7069 -0.1590
v  -4.8674 3.7876 -0.1195
v  -4.8627 3.7818 -0.1575
v  -4.6784 4.0588 -0.2036
v  -4.8323 3.7444 -0.4040
v  -4.8244 3.7346 -0.4683
v  -4.6374 4.0279 -0.4561
v  -4.6267 4.0199 -0.5218
v  -4.4379 3.9204 -0.4894
v  -4.2604 3.7976 -0.4486
v  -4.4286 3.9332 -0.4917
v  -4.2323 3.8281 -0.4516
v  -4.4170 3.9470 -0.4963
v  -4.1950 3.8562 -0.4566
v  -4.1270 4.2277 -0.5664
v  -3.9589 4.1332 -0.5507
# 407 vertices

vn 0.3313 -0.0365 0.9428
vn 0.3288 -0.0374 0.9437
vn 0.2311 0.0751 0.9700
vn 0.2235 0.0771 0.9717
vn 0.3196 -0.0441 0.9465
vn 0.2286 0.1050 0.9678
vn 0.2086 0.0721 0.9753
vn 0.1000 0.1330 0.9861
vn 0.2213 0.1068 0.9693
vn 0.2167 0.1094 0.9701
vn 0.2136 0.1125 0.9704
vn 0.3813 -0.0297 0.9240
vn 0.2086 0.1023 0.9726
vn 0.0935 0.1649 0.9819
vn -0.3131 0.4877 0.8149
vn -0.2375 0.4633 0.8538
vn -0.4866 0.6441 0.5902
vn 0.1014 0.1812 0.9782
vn 0.2027 0.1122 0.9728
vn 0.2609 0.0749 0.9625
vn 0.4200 0.0117 0.9074
vn 0.2813 0.1189 0.9522
vn 0.1156 0.1813 0.9766
vn 0.1019 0.1859 0.9773
vn -0.2255 0.4657 0.8557
vn -0.4406 0.6212 0.6481
vn -0.6094 0.7194 0.3332
vn -0.6140 0.7205 0.3224
vn -0.4356 0.6220 0.6506
vn -0.2371 0.4582 0.8566
vn 0.0245 0.2447 0.9693
vn 0.1330 0.2306 0.9639
vn 0.3080 0.1642 0.9371
vn 0.4491 0.0651 0.8911
vn 0.4400 0.1514 0.8851
vn 0.3444 0.2383 0.9081
vn 0.4944 0.2795 0.8231
vn 0.1610 0.2785 0.9469
vn 0.0420 0.3047 0.9515
vn -0.1175 0.3607 0.9253
vn -0.4394 0.6086 0.6607
vn -0.6146 0.7177 0.3273
vn -0.7054 0.7078 -0.0372
vn -0.7005 0.7129 -0.0333
vn -0.6844 0.7281 0.0380
vn -0.6970 0.7144 -0.0612
vn -0.7090 0.6967 -0.1091
vn -0.6789 0.6674 -0.3060
vn -0.7133 0.6922 -0.1098
vn -0.6916 0.6696 -0.2709
vn -0.6310 0.6327 -0.4488
vn -0.6675 0.6553 -0.3537
vn -0.4178 0.4357 -0.7973
vn -0.7012 0.6611 -0.2669
vn -0.7271 0.6776 -0.1102
vn -0.7196 0.6934 -0.0374
vn -0.6255 0.7088 0.3260
vn -0.2960 0.5214 0.8003
vn -0.0918 0.4011 0.9114
vn 0.0637 0.3604 0.9306
vn 0.2081 0.3393 0.9174
vn 0.4256 0.3680 0.8267
vn 0.8106 -0.0040 0.5856
vn 0.4698 0.3016 0.8297
vn 0.2240 0.4921 0.8412
vn 0.0574 0.4101 0.9102
vn -0.0730 0.4438 0.8932
vn -0.2942 0.5309 0.7947
vn -0.6111 0.6918 0.3848
vn -0.7288 0.6847 -0.0057
vn -0.7397 0.6619 -0.1217
vn -0.7346 0.6382 -0.2301
vn -0.7173 0.6438 -0.2664
vn -0.6987 0.6286 -0.3416
vn -0.6820 0.6423 -0.3498
vn -0.4107 0.4063 -0.8162
vn -0.4313 0.3881 -0.8145
vn -0.4488 0.3706 -0.8132
vn -0.7120 0.6199 -0.3298
vn -0.7036 0.6308 -0.3272
vn -0.7349 0.6391 -0.2267
vn -0.7505 0.6499 -0.1203
vn -0.7488 0.6628 0.0016
vn -0.6223 0.6824 0.3836
vn -0.2856 0.5384 0.7928
vn -0.1245 0.4723 0.8726
vn -0.0051 0.5291 0.8485
vn 0.1667 0.4358 0.8845
vn 0.3296 0.3771 0.8655
vn 0.7897 0.0077 0.6134
vn 0.9203 -0.3908 0.0204
vn 0.8903 -0.4550 -0.0194
vn 0.8382 -0.5223 -0.1569
vn 0.8726 -0.4583 -0.1689
vn 0.9406 -0.3392 -0.0105
vn 0.8875 -0.4279 -0.1712
vn 0.8333 0.1692 0.5262
vn 0.3599 0.5570 0.7485
vn 0.1245 0.4388 0.8899
vn -0.0546 0.4620 0.8852
vn -0.2508 0.4972 0.8306
vn -0.1617 0.4620 0.8720
vn -0.2510 0.5230 0.8146
vn -0.2772 0.4190 0.8646
vn -0.3402 0.2890 0.8948
vn -0.4767 0.3531 0.8050
vn -0.1869 0.4386 0.8790
vn -0.0206 0.4453 0.8951
vn 0.1352 0.6285 0.7660
vn 0.3671 0.6118 0.7007
vn 0.8480 0.1988 0.4913
vn 0.9391 -0.3437 0.0054
vn 0.8812 -0.4489 -0.1483
vn 0.8127 -0.5825 0.0126
vn 0.8291 -0.5480 0.1105
vn 0.2897 -0.9311 0.2217
vn 0.7850 0.0066 0.6195
vn 0.3722 -0.8391 0.3966
vn -0.1311 -0.8612 0.4910
vn -0.1785 -0.9395 0.2923
vn 0.4045 -0.4035 0.8207
vn 0.3440 0.4185 0.8406
vn 0.1557 0.6750 0.7212
vn 0.0095 0.6279 0.7782
vn -0.1226 0.4773 0.8702
vn -0.5346 0.3775 0.7561
vn -0.6579 0.3999 0.6381
vn -0.1147 0.6223 0.7744
vn -0.0831 0.6612 0.7456
vn 0.0120 0.6732 0.7393
vn -0.0637 0.5390 0.8399
vn 0.1037 0.4507 0.8866
vn 0.0549 -0.3517 0.9345
vn -0.2525 -0.8361 0.4869
vn -0.2774 -0.9075 0.3155
vn -0.3805 -0.7926 0.4765
vn -0.4012 -0.8645 0.3028
vn -0.7504 -0.6245 0.2168
vn -0.7328 -0.5278 0.4294
vn -0.9742 -0.0939 0.2053
vn -0.9882 -0.1511 0.0236
vn -0.9848 0.1580 0.0726
vn -0.9984 -0.0213 0.0527
vn -0.9727 0.2312 0.0198
vn -0.9981 0.0600 0.0124
vn -0.9914 0.1095 0.0723
vn -0.9781 0.1163 0.1727
vn -0.9486 -0.2205 0.2271
vn -0.6845 0.5108 0.5202
vn -0.6794 0.4881 0.5478
vn -0.6913 0.3565 0.6285
vn -0.5763 -0.1398 0.8052
vn -0.2750 -0.2747 0.9214
vn -0.1071 -0.3892 0.9149
vn -0.1906 0.5331 0.8243
vn -0.8833 -0.1538 0.4428
vn -0.7069 -0.4772 0.5220
vn -0.7183 -0.0564 0.6934
vn -0.1573 -0.2594 0.9529
vn -0.6447 0.1396 0.7516
vn -0.3044 0.0316 0.9520
vn -0.2866 0.2249 0.9313
vn -0.3223 0.2765 0.9053
vn -0.6211 0.5330 0.5746
vn -0.6198 0.5369 0.5724
vn -0.6108 0.5608 0.5589
vn -0.5486 0.5370 0.6408
vn -0.0199 -0.0100 0.9998
vn 0.1052 -0.2508 0.9623
vn 0.1096 -0.2436 0.9637
vn 0.0081 -0.0442 0.9990
vn 0.0578 -0.3241 0.9442
vn -0.5588 0.4998 0.6618
vn -0.7655 0.6396 0.0708
vn -0.7407 0.6696 0.0540
vn -0.7567 0.6518 0.0513
vn -0.7616 0.6469 0.0388
vn -0.5830 0.5694 0.5795
vn -0.6032 0.6621 0.4448
vn -0.7774 0.6290 -0.0005
vn -0.7590 0.6469 -0.0732
vn -0.7345 0.6759 -0.0611
vn -0.7250 0.6862 -0.0592
vn -0.7251 0.6864 -0.0549
vn -0.8973 0.4413 0.0128
vn -0.8237 0.5656 0.0402
vn -0.6286 0.4986 0.5969
vn 0.0333 -0.0705 0.9970
vn 0.1576 -0.2774 0.9477
vn 0.0745 0.0025 0.9972
vn 0.2049 -0.1478 0.9676
vn 0.2216 -0.1471 0.9640
vn 0.0978 0.0173 0.9951
vn 0.0649 -0.0195 0.9977
vn 0.2484 -0.1373 0.9589
vn -0.0515 -0.2844 0.9573
vn 0.2378 -0.2335 0.9428
vn 0.0816 -0.7434 0.6639
vn -0.2484 -0.7781 0.5769
vn -0.2498 -0.9490 0.1923
vn -0.0157 -0.9819 0.1885
vn 0.0014 -0.9812 0.1932
vn -0.2491 -0.9483 0.1967
vn 0.1461 -0.8355 -0.5297
vn -0.2567 -0.8794 -0.4010
vn 0.0010 -0.3597 -0.9331
vn 0.2599 -0.2821 -0.9235
vn -0.8396 -0.4484 -0.3067
vn -0.9201 -0.3853 0.0705
vn -0.9438 0.3239 -0.0659
vn -0.9201 -0.3854 0.0693
vn -0.8609 -0.3551 0.3644
vn -0.7554 0.1333 0.6416
vn -0.6712 0.3663 0.6445
vn -0.6382 0.3973 0.6594
vn -0.6665 0.4381 0.6032
vn -0.8262 0.5630 -0.0202
vn -0.8550 0.5173 -0.0373
vn -0.8846 0.4657 -0.0231
vn -0.8898 0.4558 -0.0204
vn -0.9360 0.3462 -0.0638
vn -0.8899 0.4556 -0.0242
vn -0.8666 0.4981 -0.0289
vn -0.8427 0.5368 -0.0411
vn -0.9494 0.3068 0.0667
vn -0.9790 0.0945 0.1807
vn -0.9927 0.0880 0.0824
vn -0.9978 0.0126 -0.0658
vn -0.6229 0.2846 -0.7287
vn -0.6658 0.2593 -0.6996
vn -0.6523 0.2580 -0.7127
vn -0.7055 0.0344 -0.7079
vn 0.0777 -0.1710 -0.9822
vn 0.1704 -0.2578 -0.9511
vn 0.0937 -0.3399 -0.9358
vn -0.0020 -0.2561 -0.9666
vn 0.0065 -0.2541 -0.9672
vn -0.5076 -0.5416 -0.6700
vn -0.8977 -0.3489 0.2690
vn -0.9495 -0.0254 0.3126
vn -0.9891 0.1353 -0.0583
vn -0.8796 0.4348 -0.1931
vn -0.7557 0.6222 -0.2043
vn -0.7500 0.6325 -0.1935
vn -0.7521 0.6325 -0.1849
vn -0.7489 0.6362 -0.1855
vn -0.7537 0.6162 -0.2284
vn -0.7616 0.6053 -0.2315
vn -0.7661 0.5975 -0.2370
vn -0.8773 0.4105 -0.2487
vn -0.6255 0.1839 -0.7582
vn -0.4881 0.2671 -0.8309
vn -0.4799 0.3142 -0.8192
vn 0.0008 -0.1976 -0.9803
vn -0.0051 -0.1722 -0.9851
vn -0.6114 0.0145 -0.7912
vn -0.9535 0.1902 -0.2337
vn -0.9588 0.1572 -0.2366
vn -0.9805 0.1430 -0.1348
vn -0.9866 0.1520 -0.0589
vn -0.9299 0.3525 -0.1053
vn -0.9435 0.3156 -0.1013
vn -0.9598 -0.0563 -0.2751
vn -0.9149 -0.3982 0.0666
vn -0.9877 -0.0074 0.1563
vn -0.9092 0.3390 -0.2418
vn -0.8907 0.3898 -0.2337
vn -0.5610 0.0911 -0.8228
vn -0.0179 -0.1832 -0.9829
vn 0.0076 -0.1674 -0.9859
vn 0.0203 -0.1713 -0.9850
vn 0.0039 -0.2157 -0.9765
vn -0.0082 -0.1942 -0.9809
vn -0.0236 -0.2237 -0.9744
vn -0.5049 0.3275 -0.7986
vn -0.0225 -0.1746 -0.9844
vn -0.0225 -0.1915 -0.9812
vn 0.0064 -0.0979 -0.9952
vn 0.0107 -0.0814 -0.9966
vn -0.4715 0.3489 -0.8099
vn -0.3943 0.3696 -0.8414
vn 0.0274 -0.0230 -0.9994
vn -0.0089 -0.0248 -0.9997
vn 0.0094 -0.0467 -0.9989
vn -0.0174 -0.0373 -0.9992
vn -0.3977 0.3434 -0.8508
vn -0.6980 0.6430 -0.3153
vn -0.7298 0.6396 -0.2414
vn -0.7321 0.6445 -0.2204
vn -0.7580 0.6430 -0.1098
vn -0.7630 0.6464 0.0065
vn -0.6196 0.6736 0.4029
vn -0.4143 0.3241 -0.8505
vn -0.0063 -0.0683 -0.9976
vn -0.0201 -0.0544 -0.9983
vn -0.0085 -0.0538 -0.9985
vn 0.0376 -0.0695 -0.9969
vn 0.0510 -0.0677 -0.9964
vn -0.0016 -0.0490 -0.9988
vn 0.0136 -0.0114 -0.9998
vn 0.0841 -0.0601 -0.9946
vn 0.0547 0.0154 -0.9984
vn 0.2933 -0.1480 -0.9445
vn 0.0666 -0.2822 -0.9570
vn -0.2920 -0.9022 -0.3173
vn -0.6892 -0.7082 0.1535
vn -0.3827 -0.4509 0.8064
vn -0.1641 -0.9324 0.3220
vn 0.4602 -0.7934 0.3984
vn -0.0573 -0.5629 0.8246
vn 0.0762 -0.0935 0.9927
vn 0.0574 0.0114 0.9983
vn 0.1185 -0.0802 0.9897
vn -0.5743 0.5343 0.6202
vn -0.7522 0.6315 -0.1881
vn -0.7835 0.5931 -0.1856
vn -0.7830 0.5923 -0.1899
vn -0.7328 0.6512 -0.1973
vn -0.5433 0.5911 0.5961
vn 0.1036 0.0495 0.9934
vn 0.1643 -0.0290 0.9860
vn 0.1179 0.0469 0.9919
vn 0.2992 -0.1904 0.9350
vn -0.6209 0.5184 0.5881
vn 0.0968 -0.1749 0.9798
vn 0.2131 -0.7765 0.5930
vn -0.1071 -0.7409 0.6630
vn -0.1583 -0.9746 0.1586
vn 0.0759 -0.9791 0.1886
vn -0.6791 -0.5975 0.4265
vn -0.7742 0.0734 0.6286
vn -0.8140 0.5511 -0.1838
vn -0.8269 0.5311 -0.1848
vn -0.5785 0.2705 -0.7695
vn -0.5529 0.2783 -0.7854
vn -0.5311 0.2774 -0.8006
vn -0.4401 -0.6606 -0.6082
vn -0.6147 -0.7808 0.1121
vn -0.2381 -0.8118 -0.5331
vn 0.0762 -0.1879 -0.9792
vn 0.0712 -0.1481 -0.9864
vn 0.1033 -0.1814 -0.9780
vn 0.0837 -0.1289 -0.9881
vn 0.0831 -0.1421 -0.9864
vn 0.0902 -0.2118 -0.9731
vn 0.2183 -0.3233 -0.9208
vn 0.0112 -0.3293 -0.9442
vn -0.7989 -0.0147 -0.6013
vn -0.9884 0.1233 -0.0885
vn -0.9886 0.1262 -0.0826
vn -0.7604 -0.6475 0.0500
vn -0.7583 -0.6499 0.0509
vn -0.6671 -0.6400 -0.3813
vn -0.1579 -0.8718 -0.4637
vn 0.1771 -0.8731 -0.4542
vn -0.1733 -0.9717 0.1603
vn 0.0626 -0.9794 0.1920
vn 0.0285 -0.9970 0.0714
vn 0.5981 -0.7921 0.1221
vn -0.0478 -0.7490 0.6608
vn -0.3876 -0.4927 0.7791
vn -0.0090 0.0710 0.9974
vn 0.0528 0.0600 0.9968
vn 0.0216 0.0008 0.9998
vn -0.0408 0.0272 0.9988
vn 0.0255 0.0063 0.9997
vn -0.6513 0.4908 0.5787
vn -0.8012 0.5613 -0.2073
vn -0.7698 0.6026 -0.2104
vn -0.4894 0.3016 -0.8182
vn -0.4854 0.2942 -0.8233
vn -0.7825 0.5886 -0.2033
vn -0.8258 0.5267 -0.2017
vn -0.6797 0.4360 0.5898
vn -0.6759 0.4636 0.5729
vn -0.0171 0.0442 0.9989
vn 0.0813 -0.1553 0.9845
vn -0.0389 -0.2135 0.9762
vn -0.0047 -0.8024 0.5967
vn -0.2446 -0.7868 0.5666
vn -0.2689 -0.9539 0.1334
vn -0.0378 -0.9821 0.1843
vn -0.2812 -0.9503 0.1336
vn -0.0568 -0.9810 0.1855
vn -0.2188 -0.8982 -0.3812
vn -0.0082 -0.9033 -0.4290
vn -0.0002 -0.4231 -0.9061
vn 0.0901 -0.3485 -0.9330
vn -0.7140 -0.5667 -0.4112
vn -0.8557 -0.5168 -0.0270
vn -0.8586 -0.5119 -0.0267
vn -0.7946 -0.4906 0.3577
vn -0.7655 0.1620 0.6228
vn -0.9504 0.2675 -0.1588
vn -0.8313 0.5199 -0.1968
vn -0.9517 0.2614 -0.1610
vn -0.6967 0.0083 -0.7173
vn -0.8115 0.5493 -0.1994
vn -0.5236 0.2573 -0.8122
vn 0.0724 -0.2068 -0.9757
vn 0.0888 -0.1989 -0.9760
vn 0.0325 -0.2655 -0.9636
vn 0.0784 -0.2322 -0.9695
vn 0.0159 -0.2799 -0.9599
vn 0.0370 -0.2767 -0.9602
vn -0.0341 -0.2235 -0.9741
vn -0.0408 -0.2357 -0.9710
# 407 vertex normals

vt 0.5029 0.8646 0.0000
vt 0.5039 0.8641 0.0000
vt 0.4775 0.8290 0.0000
vt 0.4780 0.8284 0.0000
vt 0.5063 0.8624 0.0000
vt 0.4746 0.8269 0.0000
vt 0.4802 0.8264 0.0000
vt 0.5088 0.8607 0.0000
vt 0.4753 0.8263 0.0000
vt 0.4744 0.8241 0.0000
vt 0.4749 0.8237 0.0000
vt 0.4529 0.7960 0.0000
vt 0.4778 0.8243 0.0000
vt 0.4822 0.8245 0.0000
vt 0.5112 0.8588 0.0000
vt 0.4861 0.8207 0.0000
vt 0.5142 0.8569 0.0000
vt 0.4802 0.8225 0.0000
vt 0.4773 0.8223 0.0000
vt 0.4536 0.7953 0.0000
vt 0.4517 0.7944 0.0000
vt 0.4524 0.7937 0.0000
vt 0.4558 0.7931 0.0000
vt 0.4795 0.8208 0.0000
vt 0.4851 0.8187 0.0000
vt 0.4893 0.8181 0.0000
vt 0.5156 0.8561 0.0000
vt 0.4900 0.8175 0.0000
vt 0.4880 0.8164 0.0000
vt 0.4841 0.8175 0.0000
vt 0.4578 0.7909 0.0000
vt 0.4546 0.7915 0.0000
vt 0.4514 0.7928 0.0000
vt 0.4504 0.7935 0.0000
vt 0.4456 0.7892 0.0000
vt 0.4458 0.7885 0.0000
vt 0.4397 0.7855 0.0000
vt 0.4534 0.7904 0.0000
vt 0.4565 0.7893 0.0000
vt 0.4629 0.7859 0.0000
vt 0.4875 0.8153 0.0000
vt 0.4888 0.8159 0.0000
vt 0.4905 0.8149 0.0000
vt 0.4915 0.8166 0.0000
vt 0.5171 0.8555 0.0000
vt 0.5239 0.8523 0.0000
vt 0.4988 0.8121 0.0000
vt 0.5288 0.8494 0.0000
vt 0.4976 0.8110 0.0000
vt 0.5059 0.8077 0.0000
vt 0.5361 0.8452 0.0000
vt 0.5137 0.8038 0.0000
vt 0.5371 0.8446 0.0000
vt 0.5063 0.8062 0.0000
vt 0.4973 0.8094 0.0000
vt 0.4897 0.8138 0.0000
vt 0.4883 0.8147 0.0000
vt 0.4663 0.7836 0.0000
vt 0.4619 0.7844 0.0000
vt 0.4556 0.7881 0.0000
vt 0.4480 0.7852 0.0000
vt 0.4399 0.7847 0.0000
vt 0.4343 0.7823 0.0000
vt 0.4343 0.7814 0.0000
vt 0.4417 0.7809 0.0000
vt 0.4500 0.7822 0.0000
vt 0.4604 0.7830 0.0000
vt 0.4653 0.7821 0.0000
vt 0.4673 0.7830 0.0000
vt 0.4688 0.7816 0.0000
vt 0.4763 0.7765 0.0000
vt 0.4851 0.7715 0.0000
vt 0.5049 0.8048 0.0000
vt 0.5117 0.8010 0.0000
vt 0.5127 0.8025 0.0000
vt 0.5146 0.8030 0.0000
vt 0.5142 0.8015 0.0000
vt 0.5132 0.8000 0.0000
vt 0.4927 0.7679 0.0000
vt 0.4917 0.7664 0.0000
vt 0.4841 0.7699 0.0000
vt 0.4753 0.7749 0.0000
vt 0.4678 0.7800 0.0000
vt 0.4661 0.7815 0.0000
vt 0.4639 0.7805 0.0000
vt 0.4529 0.7755 0.0000
vt 0.4429 0.7775 0.0000
vt 0.4346 0.7766 0.0000
vt 0.4314 0.7806 0.0000
vt 0.4312 0.7817 0.0000
vt 0.4304 0.7848 0.0000
vt 0.4331 0.7860 0.0000
vt 0.4319 0.7881 0.0000
vt 0.4294 0.7867 0.0000
vt 0.4246 0.7836 0.0000
vt 0.4236 0.7860 0.0000
vt 0.4260 0.7800 0.0000
vt 0.4260 0.7791 0.0000
vt 0.4316 0.7758 0.0000
vt 0.4355 0.7729 0.0000
vt 0.4436 0.7687 0.0000
vt 0.4460 0.7703 0.0000
vt 0.4543 0.7709 0.0000
vt 0.4480 0.7651 0.0000
vt 0.4460 0.7631 0.0000
vt 0.4429 0.7681 0.0000
vt 0.4348 0.7720 0.0000
vt 0.4319 0.7723 0.0000
vt 0.4263 0.7748 0.0000
vt 0.4253 0.7789 0.0000
vt 0.4253 0.7799 0.0000
vt 0.4241 0.7834 0.0000
vt 0.4231 0.7859 0.0000
vt 0.4136 0.7826 0.0000
vt 0.4148 0.7791 0.0000
vt 0.4119 0.7789 0.0000
vt 0.4160 0.7767 0.0000
vt 0.4138 0.7772 0.0000
vt 0.4136 0.7765 0.0000
vt 0.4109 0.7773 0.0000
vt 0.4153 0.7762 0.0000
vt 0.4163 0.7761 0.0000
vt 0.4258 0.7748 0.0000
vt 0.4265 0.7717 0.0000
vt 0.4319 0.7712 0.0000
vt 0.4348 0.7704 0.0000
vt 0.4321 0.7700 0.0000
vt 0.4265 0.7708 0.0000
vt 0.4260 0.7709 0.0000
vt 0.4260 0.7716 0.0000
vt 0.4170 0.7719 0.0000
vt 0.4167 0.7738 0.0000
vt 0.4153 0.7755 0.0000
vt 0.4136 0.7733 0.0000
vt 0.4109 0.7726 0.0000
vt 0.4146 0.7706 0.0000
vt 0.4128 0.7686 0.0000
vt 0.4138 0.7677 0.0000
vt 0.4153 0.7699 0.0000
vt 0.4165 0.7684 0.0000
vt 0.4165 0.7646 0.0000
vt 0.4260 0.7656 0.0000
vt 0.4260 0.7623 0.0000
vt 0.4268 0.7655 0.0000
vt 0.4265 0.7625 0.0000
vt 0.4312 0.7637 0.0000
vt 0.4312 0.7659 0.0000
vt 0.4331 0.7640 0.0000
vt 0.4265 0.7700 0.0000
vt 0.4260 0.7700 0.0000
vt 0.4170 0.7711 0.0000
vt 0.4160 0.7714 0.0000
vt 0.4158 0.7719 0.0000
vt 0.4155 0.7736 0.0000
vt 0.4170 0.7716 0.0000
vt 0.4346 0.7662 0.0000
vt 0.4346 0.7634 0.0000
vt 0.4370 0.7644 0.0000
vt 0.4358 0.7620 0.0000
vt 0.4419 0.7671 0.0000
vt 0.4377 0.7616 0.0000
vt 0.4443 0.7614 0.0000
vt 0.4453 0.7623 0.0000
vt 0.4470 0.7623 0.0000
vt 0.4460 0.7611 0.0000
vt 0.4451 0.7598 0.0000
vt 0.4395 0.7532 0.0000
vt 0.4346 0.7570 0.0000
vt 0.4294 0.7592 0.0000
vt 0.4319 0.7642 0.0000
vt 0.4333 0.7557 0.0000
vt 0.4285 0.7581 0.0000
vt 0.4380 0.7520 0.0000
vt 0.4404 0.7509 0.0000
vt 0.4465 0.7574 0.0000
vt 0.4480 0.7594 0.0000
vt 0.4500 0.7622 0.0000
vt 0.4485 0.7642 0.0000
vt 0.4548 0.7698 0.0000
vt 0.4563 0.7682 0.0000
vt 0.4641 0.7605 0.0000
vt 0.4575 0.7527 0.0000
vt 0.4548 0.7498 0.0000
vt 0.4526 0.7473 0.0000
vt 0.4451 0.7393 0.0000
vt 0.4390 0.7495 0.0000
vt 0.4373 0.7511 0.0000
vt 0.4324 0.7550 0.0000
vt 0.4280 0.7574 0.0000
vt 0.4236 0.7500 0.0000
vt 0.4214 0.7538 0.0000
vt 0.4204 0.7533 0.0000
vt 0.4231 0.7498 0.0000
vt 0.4226 0.7495 0.0000
vt 0.4197 0.7527 0.0000
vt 0.4131 0.7459 0.0000
vt 0.4121 0.7498 0.0000
vt 0.4099 0.7463 0.0000
vt 0.4119 0.7441 0.0000
vt 0.4114 0.7429 0.0000
vt 0.4082 0.7439 0.0000
vt 0.4094 0.7361 0.0000
vt 0.4121 0.7375 0.0000
vt 0.4114 0.7346 0.0000
vt 0.4124 0.7368 0.0000
vt 0.4136 0.7356 0.0000
vt 0.4133 0.7319 0.0000
vt 0.4138 0.7385 0.0000
vt 0.4138 0.7393 0.0000
vt 0.4153 0.7388 0.0000
vt 0.4138 0.7422 0.0000
vt 0.4138 0.7429 0.0000
vt 0.4153 0.7439 0.0000
vt 0.4248 0.7461 0.0000
vt 0.4255 0.7461 0.0000
vt 0.4263 0.7463 0.0000
vt 0.4380 0.7488 0.0000
vt 0.4265 0.7446 0.0000
vt 0.4258 0.7446 0.0000
vt 0.4250 0.7444 0.0000
vt 0.4153 0.7429 0.0000
vt 0.4253 0.7393 0.0000
vt 0.4260 0.7393 0.0000
vt 0.4268 0.7390 0.0000
vt 0.4414 0.7373 0.0000
vt 0.4426 0.7383 0.0000
vt 0.4431 0.7366 0.0000
vt 0.4417 0.7356 0.0000
vt 0.4265 0.7383 0.0000
vt 0.4258 0.7383 0.0000
vt 0.4250 0.7385 0.0000
vt 0.4153 0.7380 0.0000
vt 0.4229 0.7339 0.0000
vt 0.4211 0.7305 0.0000
vt 0.4219 0.7300 0.0000
vt 0.4236 0.7336 0.0000
vt 0.4241 0.7334 0.0000
vt 0.4346 0.7295 0.0000
vt 0.4424 0.7349 0.0000
vt 0.4431 0.7339 0.0000
vt 0.4453 0.7351 0.0000
vt 0.4644 0.7258 0.0000
vt 0.4678 0.7380 0.0000
vt 0.4688 0.7415 0.0000
vt 0.4702 0.7446 0.0000
vt 0.4746 0.7545 0.0000
vt 0.4819 0.7417 0.0000
vt 0.4810 0.7388 0.0000
vt 0.4805 0.7363 0.0000
vt 0.4790 0.7280 0.0000
vt 0.4819 0.7285 0.0000
vt 0.4832 0.7361 0.0000
vt 0.4836 0.7383 0.0000
vt 0.4915 0.7341 0.0000
vt 0.4905 0.7278 0.0000
vt 0.4822 0.7268 0.0000
vt 0.4792 0.7261 0.0000
vt 0.4656 0.7229 0.0000
vt 0.4639 0.7224 0.0000
vt 0.4619 0.7236 0.0000
vt 0.4453 0.7329 0.0000
vt 0.4612 0.7227 0.0000
vt 0.4631 0.7212 0.0000
vt 0.4636 0.7207 0.0000
vt 0.4644 0.7207 0.0000
vt 0.4663 0.7214 0.0000
vt 0.4792 0.7249 0.0000
vt 0.4822 0.7256 0.0000
vt 0.4905 0.7266 0.0000
vt 0.4944 0.7268 0.0000
vt 0.4949 0.7280 0.0000
vt 0.4963 0.7336 0.0000
vt 0.4919 0.7366 0.0000
vt 0.4976 0.7363 0.0000
vt 0.4841 0.7412 0.0000
vt 0.4929 0.7402 0.0000
vt 0.4995 0.7400 0.0000
vt 0.4976 0.7488 0.0000
vt 0.5049 0.7478 0.0000
vt 0.4868 0.7493 0.0000
vt 0.4932 0.7634 0.0000
vt 0.5029 0.7604 0.0000
vt 0.5098 0.7579 0.0000
vt 0.5039 0.7618 0.0000
vt 0.5103 0.7592 0.0000
vt 0.4941 0.7654 0.0000
vt 0.4910 0.7644 0.0000
vt 0.4851 0.7502 0.0000
vt 0.4832 0.7681 0.0000
vt 0.4739 0.7732 0.0000
vt 0.4663 0.7784 0.0000
vt 0.4646 0.7799 0.0000
vt 0.4949 0.7670 0.0000
vt 0.5044 0.7637 0.0000
vt 0.5112 0.7610 0.0000
vt 0.5210 0.7959 0.0000
vt 0.5269 0.7928 0.0000
vt 0.5293 0.7946 0.0000
vt 0.5210 0.7983 0.0000
vt 0.5229 0.8002 0.0000
vt 0.5288 0.7983 0.0000
vt 0.5439 0.8408 0.0000
vt 0.5474 0.8389 0.0000
vt 0.4229 0.7295 0.0000
vt 0.4297 0.7261 0.0000
vt 0.4346 0.7292 0.0000
vt 0.4348 0.7285 0.0000
vt 0.4297 0.7256 0.0000
vt 0.4285 0.7256 0.0000
vt 0.4294 0.7253 0.0000
vt 0.4294 0.7173 0.0000
vt 0.4346 0.7161 0.0000
vt 0.4294 0.7163 0.0000
vt 0.4404 0.7146 0.0000
vt 0.4414 0.7141 0.0000
vt 0.4463 0.7107 0.0000
vt 0.4458 0.7104 0.0000
vt 0.4412 0.7134 0.0000
vt 0.4402 0.7139 0.0000
vt 0.4343 0.7156 0.0000
vt 0.4294 0.7153 0.0000
vt 0.4341 0.7151 0.0000
vt 0.4280 0.7068 0.0000
vt 0.4399 0.7134 0.0000
vt 0.4314 0.7051 0.0000
vt 0.4290 0.7026 0.0000
vt 0.4319 0.7031 0.0000
vt 0.4324 0.7024 0.0000
vt 0.4299 0.6997 0.0000
vt 0.4343 0.7034 0.0000
vt 0.4346 0.7043 0.0000
vt 0.4409 0.7129 0.0000
vt 0.4453 0.7100 0.0000
vt 0.4460 0.7092 0.0000
vt 0.4465 0.7097 0.0000
vt 0.4470 0.7100 0.0000
vt 0.4626 0.7100 0.0000
vt 0.4631 0.7097 0.0000
vt 0.4624 0.7036 0.0000
vt 0.4539 0.7007 0.0000
vt 0.4507 0.7051 0.0000
vt 0.4529 0.7004 0.0000
vt 0.4502 0.7046 0.0000
vt 0.4497 0.7043 0.0000
vt 0.4519 0.7002 0.0000
vt 0.4446 0.6953 0.0000
vt 0.4414 0.6980 0.0000
vt 0.4390 0.7012 0.0000
vt 0.4387 0.7017 0.0000
vt 0.4353 0.7041 0.0000
vt 0.4348 0.7026 0.0000
vt 0.4377 0.7004 0.0000
vt 0.4385 0.7000 0.0000
vt 0.4395 0.6975 0.0000
vt 0.4407 0.6948 0.0000
vt 0.4385 0.6980 0.0000
vt 0.4380 0.6941 0.0000
vt 0.4626 0.7031 0.0000
vt 0.4626 0.7021 0.0000
vt 0.4631 0.7031 0.0000
vt 0.4636 0.7097 0.0000
vt 0.4746 0.7041 0.0000
vt 0.4707 0.7007 0.0000
vt 0.4717 0.7002 0.0000
vt 0.4751 0.7039 0.0000
vt 0.4724 0.6997 0.0000
vt 0.4788 0.7085 0.0000
vt 0.4792 0.7092 0.0000
vt 0.4839 0.7122 0.0000
vt 0.4854 0.7129 0.0000
vt 0.4854 0.7124 0.0000
vt 0.4839 0.7117 0.0000
vt 0.4797 0.7087 0.0000
vt 0.4790 0.7080 0.0000
vt 0.4795 0.7078 0.0000
vt 0.4756 0.7036 0.0000
vt 0.4792 0.6956 0.0000
vt 0.4827 0.6985 0.0000
vt 0.4834 0.6951 0.0000
vt 0.4846 0.6982 0.0000
vt 0.4854 0.6982 0.0000
vt 0.4861 0.6943 0.0000
vt 0.4910 0.7012 0.0000
vt 0.4949 0.6990 0.0000
vt 0.4922 0.7021 0.0000
vt 0.4956 0.7021 0.0000
vt 0.4929 0.7041 0.0000
vt 0.4971 0.7063 0.0000
vt 0.4895 0.7034 0.0000
vt 0.4888 0.7029 0.0000
vt 0.4856 0.7009 0.0000
vt 0.4849 0.7007 0.0000
vt 0.4839 0.7014 0.0000
vt 0.4844 0.7019 0.0000
vt 0.4800 0.7083 0.0000
vt 0.4880 0.7041 0.0000
vt 0.4890 0.7046 0.0000
vt 0.4841 0.7112 0.0000
vt 0.4856 0.7119 0.0000
vt 0.4905 0.7141 0.0000
vt 0.4954 0.7153 0.0000
vt 0.4902 0.7146 0.0000
vt 0.4951 0.7166 0.0000
vt 0.4902 0.7151 0.0000
vt 0.4951 0.7175 0.0000
vt 0.4902 0.7258 0.0000
vt 0.4946 0.7263 0.0000
# 407 texture coords

o Brazoderecho
g Brazoderecho
usemtl Phineas_4_model__001
s 1
f 1/1/1 2/2/2 3/3/3 
f 3/3/3 2/2/2 4/4/4 
f 2/2/2 5/5/5 4/4/4 
f 3/3/3 4/4/4 6/6/6 
f 4/4/4 5/5/5 7/7/7 
f 5/5/5 8/8/8 7/7/7 
f 4/4/4 7/7/7 9/9/9 
f 4/4/4 9/9/9 6/6/6 
f 6/6/6 9/9/9 10/10/10 
f 10/10/10 9/9/9 11/11/11 
f 10/10/10 11/11/11 12/12/12 
f 9/9/9 13/13/13 11/11/11 
f 13/13/13 9/9/9 7/7/7 
f 13/13/13 7/7/7 14/14/14 
f 7/7/7 8/8/8 14/14/14 
f 8/8/8 15/15/15 14/14/14 
f 14/14/14 15/15/15 16/16/16 
f 16/16/16 15/15/15 17/17/17 
f 14/14/14 16/16/16 18/18/18 
f 14/14/14 18/18/18 13/13/13 
f 13/13/13 18/18/18 19/19/19 
f 13/13/13 19/19/19 11/11/11 
f 19/19/19 20/20/20 11/11/11 
f 20/20/20 12/12/12 11/11/11 
f 12/12/12 20/20/20 21/21/21 
f 21/21/21 20/20/20 22/22/22 
f 22/22/22 20/20/20 23/23/23 
f 23/23/23 20/20/20 19/19/19 
f 23/23/23 19/19/19 24/24/24 
f 19/19/19 18/18/18 24/24/24 
f 18/18/18 25/25/25 24/24/24 
f 25/25/25 18/18/18 16/16/16 
f 25/25/25 16/16/16 26/26/26 
f 26/26/26 16/16/16 17/17/17 
f 26/26/26 17/17/17 27/27/27 
f 26/26/26 27/27/27 28/28/28 
f 26/26/26 28/28/28 29/29/29 
f 26/26/26 29/29/29 25/25/25 
f 25/25/25 29/29/29 30/30/30 
f 25/25/25 30/30/30 24/24/24 
f 30/30/30 31/31/31 24/24/24 
f 31/31/31 23/23/23 24/24/24 
f 23/23/23 31/31/31 32/32/32 
f 23/23/23 32/32/32 22/22/22 
f 22/22/22 32/32/32 33/33/33 
f 22/22/22 33/33/33 21/21/21 
f 21/21/21 33/33/33 34/34/34 
f 34/34/34 33/33/33 35/35/35 
f 35/35/35 33/33/33 36/36/36 
f 35/35/35 36/36/36 37/37/37 
f 33/33/33 38/38/38 36/36/36 
f 38/38/38 33/33/33 32/32/32 
f 38/38/38 32/32/32 39/39/39 
f 39/39/39 32/32/32 31/31/31 
f 39/39/39 31/31/31 40/40/40 
f 40/40/40 31/31/31 30/30/30 
f 40/40/40 30/30/30 41/41/41 
f 30/30/30 29/29/29 41/41/41 
f 29/29/29 42/42/42 41/41/41 
f 42/42/42 29/29/29 28/28/28 
f 42/42/42 28/28/28 43/43/43 
f 43/43/43 28/28/28 44/44/44 
f 28/28/28 27/27/27 44/44/44 
f 44/44/44 27/27/27 45/45/45 
f 44/44/44 45/45/45 46/46/46 
f 44/44/44 46/46/46 47/47/47 
f 46/46/46 48/48/48 47/47/47 
f 44/44/44 47/47/47 49/49/49 
f 44/44/44 49/49/49 43/43/43 
f 47/47/47 50/50/50 49/49/49 
f 50/50/50 47/47/47 48/48/48 
f 50/50/50 48/48/48 51/51/51 
f 50/50/50 51/51/51 52/52/52 
f 51/51/51 53/53/53 52/52/52 
f 50/50/50 52/52/52 54/54/54 
f 50/50/50 54/54/54 49/49/49 
f 49/49/49 54/54/54 55/55/55 
f 49/49/49 55/55/55 43/43/43 
f 43/43/43 55/55/55 56/56/56 
f 43/43/43 56/56/56 42/42/42 
f 42/42/42 56/56/56 57/57/57 
f 42/42/42 57/57/57 41/41/41 
f 57/57/57 58/58/58 41/41/41 
f 58/58/58 40/40/40 41/41/41 
f 40/40/40 58/58/58 59/59/59 
f 40/40/40 59/59/59 39/39/39 
f 39/39/39 59/59/59 60/60/60 
f 39/39/39 60/60/60 38/38/38 
f 38/38/38 60/60/60 61/61/61 
f 38/38/38 61/61/61 36/36/36 
f 61/61/61 62/62/62 36/36/36 
f 62/62/62 37/37/37 36/36/36 
f 37/37/37 62/62/62 63/63/63 
f 63/63/63 62/62/62 64/64/64 
f 62/62/62 65/65/65 64/64/64 
f 65/65/65 62/62/62 61/61/61 
f 65/65/65 61/61/61 66/66/66 
f 61/61/61 60/60/60 66/66/66 
f 60/60/60 67/67/67 66/66/66 
f 67/67/67 60/60/60 59/59/59 
f 67/67/67 59/59/59 68/68/68 
f 68/68/68 59/59/59 58/58/58 
f 68/68/68 58/58/58 69/69/69 
f 69/69/69 58/58/58 57/57/57 
f 69/69/69 57/57/57 70/70/70 
f 70/70/70 57/57/57 56/56/56 
f 70/70/70 56/56/56 71/71/71 
f 71/71/71 56/56/56 55/55/55 
f 71/71/71 55/55/55 72/72/72 
f 72/72/72 55/55/55 73/73/73 
f 55/55/55 54/54/54 73/73/73 
f 72/72/72 73/73/73 74/74/74 
f 54/54/54 75/75/75 73/73/73 
f 74/74/74 73/73/73 75/75/75 
f 54/54/54 52/52/52 75/75/75 
f 52/52/52 76/76/76 75/75/75 
f 76/76/76 52/52/52 53/53/53 
f 75/75/75 76/76/76 77/77/77 
f 75/75/75 77/77/77 74/74/74 
f 74/74/74 77/77/77 78/78/78 
f 74/74/74 78/78/78 79/79/79 
f 74/74/74 79/79/79 72/72/72 
f 79/79/79 80/80/80 72/72/72 
f 72/72/72 80/80/80 81/81/81 
f 72/72/72 81/81/81 71/71/71 
f 71/71/71 81/81/81 82/82/82 
f 71/71/71 82/82/82 70/70/70 
f 70/70/70 82/82/82 83/83/83 
f 70/70/70 83/83/83 84/84/84 
f 70/70/70 84/84/84 69/69/69 
f 84/84/84 68/68/68 69/69/69 
f 68/68/68 84/84/84 85/85/85 
f 68/68/68 85/85/85 67/67/67 
f 67/67/67 85/85/85 86/86/86 
f 67/67/67 86/86/86 66/66/66 
f 86/86/86 87/87/87 66/66/66 
f 87/87/87 65/65/65 66/66/66 
f 65/65/65 87/87/87 88/88/88 
f 65/65/65 88/88/88 64/64/64 
f 88/88/88 89/89/89 64/64/64 
f 89/89/89 90/90/90 64/64/64 
f 64/64/64 90/90/90 63/63/63 
f 63/63/63 90/90/90 91/91/91 
f 63/63/63 91/91/91 92/92/92 
f 91/91/91 93/93/93 92/92/92 
f 93/93/93 91/91/91 94/94/94 
f 94/94/94 91/91/91 95/95/95 
f 94/94/94 95/95/95 96/96/96 
f 91/91/91 97/97/97 95/95/95 
f 97/97/97 91/91/91 90/90/90 
f 97/97/97 90/90/90 89/89/89 
f 97/97/97 89/89/89 98/98/98 
f 98/98/98 89/89/89 99/99/99 
f 99/99/99 89/89/89 88/88/88 
f 99/99/99 88/88/88 100/100/100 
f 88/88/88 87/87/87 100/100/100 
f 100/100/100 87/87/87 101/101/101 
f 101/101/101 87/87/87 102/102/102 
f 102/102/102 87/87/87 86/86/86 
f 102/102/102 86/86/86 103/103/103 
f 86/86/86 85/85/85 103/103/103 
f 102/102/102 103/103/103 104/104/104 
f 102/102/102 104/104/104 101/101/101 
f 101/101/101 104/104/104 105/105/105 
f 101/101/101 105/105/105 106/106/106 
f 101/101/101 106/106/106 100/100/100 
f 100/100/100 106/106/106 107/107/107 
f 100/100/100 107/107/107 108/108/108 
f 100/100/100 108/108/108 99/99/99 
f 108/108/108 109/109/109 99/99/99 
f 109/109/109 98/98/98 99/99/99 
f 98/98/98 109/109/109 110/110/110 
f 98/98/98 110/110/110 111/111/111 
f 98/98/98 111/111/111 97/97/97 
f 97/97/97 111/111/111 95/95/95 
f 95/95/95 111/111/111 112/112/112 
f 95/95/95 112/112/112 96/96/96 
f 96/96/96 112/112/112 113/113/113 
f 112/112/112 114/114/114 113/113/113 
f 114/114/114 112/112/112 115/115/115 
f 112/112/112 111/111/111 115/115/115 
f 114/114/114 115/115/115 116/116/116 
f 115/115/115 111/111/111 117/117/117 
f 111/111/111 110/110/110 117/117/117 
f 115/115/115 117/117/117 118/118/118 
f 115/115/115 118/118/118 116/116/116 
f 118/118/118 119/119/119 116/116/116 
f 116/116/116 119/119/119 120/120/120 
f 119/119/119 118/118/118 121/121/121 
f 118/118/118 117/117/117 121/121/121 
f 121/121/121 117/117/117 122/122/122 
f 117/117/117 110/110/110 122/122/122 
f 110/110/110 123/123/123 122/122/122 
f 123/123/123 110/110/110 109/109/109 
f 123/123/123 109/109/109 124/124/124 
f 124/124/124 109/109/109 108/108/108 
f 124/124/124 108/108/108 125/125/125 
f 125/125/125 108/108/108 107/107/107 
f 125/125/125 107/107/107 126/126/126 
f 107/107/107 106/106/106 126/126/126 
f 125/125/125 126/126/126 127/127/127 
f 125/125/125 127/127/127 128/128/128 
f 125/125/125 128/128/128 124/124/124 
f 124/124/124 128/128/128 129/129/129 
f 124/124/124 129/129/129 130/130/130 
f 124/124/124 130/130/130 123/123/123 
f 130/130/130 131/131/131 123/123/123 
f 123/123/123 131/131/131 132/132/132 
f 123/123/123 132/132/132 122/122/122 
f 122/122/122 132/132/132 133/133/133 
f 122/122/122 133/133/133 121/121/121 
f 133/133/133 119/119/119 121/121/121 
f 119/119/119 133/133/133 134/134/134 
f 119/119/119 134/134/134 120/120/120 
f 120/120/120 134/134/134 135/135/135 
f 134/134/134 136/136/136 135/135/135 
f 135/135/135 136/136/136 137/137/137 
f 136/136/136 138/138/138 137/137/137 
f 138/138/138 136/136/136 139/139/139 
f 138/138/138 139/139/139 140/140/140 
f 138/138/138 140/140/140 141/141/141 
f 140/140/140 142/142/142 141/141/141 
f 141/141/141 142/142/142 143/143/143 
f 142/142/142 144/144/144 143/143/143 
f 143/143/143 144/144/144 145/145/145 
f 144/144/144 146/146/146 145/145/145 
f 146/146/146 144/144/144 147/147/147 
f 146/146/146 147/147/147 148/148/148 
f 144/144/144 149/149/149 147/147/147 
f 149/149/149 144/144/144 142/142/142 
f 149/149/149 142/142/142 150/150/150 
f 150/150/150 142/142/142 140/140/140 
f 150/150/150 140/140/140 151/151/151 
f 151/151/151 140/140/140 139/139/139 
f 151/151/151 139/139/139 152/152/152 
f 152/152/152 139/139/139 136/136/136 
f 152/152/152 136/136/136 153/153/153 
f 153/153/153 136/136/136 134/134/134 
f 153/153/153 134/134/134 154/154/154 
f 154/154/154 134/134/134 133/133/133 
f 154/154/154 133/133/133 132/132/132 
f 154/154/154 132/132/132 153/153/153 
f 153/153/153 132/132/132 131/131/131 
f 153/153/153 131/131/131 155/155/155 
f 153/153/153 155/155/155 152/152/152 
f 152/152/152 155/155/155 151/151/151 
f 151/151/151 155/155/155 129/129/129 
f 151/151/151 129/129/129 150/150/150 
f 129/129/129 128/128/128 150/150/150 
f 150/150/150 128/128/128 149/149/149 
f 149/149/149 128/128/128 127/127/127 
f 149/149/149 127/127/127 147/147/147 
f 147/147/147 127/127/127 156/156/156 
f 147/147/147 156/156/156 148/148/148 
f 148/148/148 156/156/156 157/157/157 
f 157/157/157 156/156/156 158/158/158 
f 157/157/157 158/158/158 159/159/159 
f 156/156/156 126/126/126 158/158/158 
f 126/126/126 156/156/156 127/127/127 
f 158/158/158 126/126/126 160/160/160 
f 126/126/126 106/106/106 160/160/160 
f 158/158/158 160/160/160 161/161/161 
f 158/158/158 161/161/161 159/159/159 
f 161/161/161 160/160/160 162/162/162 
f 160/160/160 163/163/163 162/162/162 
f 163/163/163 160/160/160 106/106/106 
f 163/163/163 106/106/106 105/105/105 
f 163/163/163 105/105/105 164/164/164 
f 163/163/163 164/164/164 165/165/165 
f 163/163/163 165/165/165 162/162/162 
f 162/162/162 165/165/165 166/166/166 
f 162/162/162 166/166/166 167/167/167 
f 162/162/162 167/167/167 161/161/161 
f 161/161/161 167/167/167 168/168/168 
f 161/161/161 168/168/168 159/159/159 
f 159/159/159 168/168/168 169/169/169 
f 159/159/159 169/169/169 170/170/170 
f 169/169/169 168/168/168 171/171/171 
f 169/169/169 171/171/171 172/172/172 
f 168/168/168 173/173/173 171/171/171 
f 173/173/173 168/168/168 167/167/167 
f 173/173/173 167/167/167 174/174/174 
f 174/174/174 167/167/167 175/175/175 
f 175/175/175 167/167/167 166/166/166 
f 175/175/175 166/166/166 176/176/176 
f 176/176/176 166/166/166 165/165/165 
f 176/176/176 165/165/165 164/164/164 
f 176/176/176 164/164/164 177/177/177 
f 177/177/177 164/164/164 178/178/178 
f 164/164/164 105/105/105 178/178/178 
f 178/178/178 105/105/105 104/104/104 
f 178/178/178 104/104/104 179/179/179 
f 179/179/179 104/104/104 103/103/103 
f 178/178/178 179/179/179 180/180/180 
f 178/178/178 180/180/180 177/177/177 
f 177/177/177 180/180/180 181/181/181 
f 177/177/177 181/181/181 182/182/182 
f 177/177/177 182/182/182 176/176/176 
f 176/176/176 182/182/182 183/183/183 
f 176/176/176 183/183/183 175/175/175 
f 175/175/175 183/183/183 184/184/184 
f 175/175/175 184/184/184 174/174/174 
f 174/174/174 184/184/184 185/185/185 
f 174/174/174 185/185/185 186/186/186 
f 174/174/174 186/186/186 173/173/173 
f 186/186/186 187/187/187 173/173/173 
f 173/173/173 187/187/187 171/171/171 
f 171/171/171 187/187/187 188/188/188 
f 171/171/171 188/188/188 172/172/172 
f 172/172/172 188/188/188 189/189/189 
f 189/189/189 188/188/188 190/190/190 
f 189/189/189 190/190/190 191/191/191 
f 190/190/190 192/192/192 191/191/191 
f 192/192/192 190/190/190 193/193/193 
f 192/192/192 193/193/193 194/194/194 
f 192/192/192 194/194/194 195/195/195 
f 195/195/195 194/194/194 196/196/196 
f 195/195/195 196/196/196 197/197/197 
f 196/196/196 198/198/198 197/197/197 
f 198/198/198 196/196/196 199/199/199 
f 198/198/198 199/199/199 200/200/200 
f 198/198/198 200/200/200 201/201/201 
f 200/200/200 202/202/202 201/201/201 
f 202/202/202 200/200/200 203/203/203 
f 202/202/202 203/203/203 204/204/204 
f 204/204/204 203/203/203 205/205/205 
f 204/204/204 205/205/205 206/206/206 
f 204/204/204 206/206/206 207/207/207 
f 205/205/205 208/208/208 206/206/206 
f 208/208/208 205/205/205 203/203/203 
f 208/208/208 203/203/203 209/209/209 
f 209/209/209 203/203/203 200/200/200 
f 208/208/208 209/209/209 210/210/210 
f 209/209/209 200/200/200 211/211/211 
f 210/210/210 209/209/209 211/211/211 
f 200/200/200 212/212/212 211/211/211 
f 212/212/212 200/200/200 199/199/199 
f 212/212/212 199/199/199 196/196/196 
f 212/212/212 196/196/196 213/213/213 
f 213/213/213 196/196/196 194/194/194 
f 213/213/213 194/194/194 214/214/214 
f 214/214/214 194/194/194 193/193/193 
f 214/214/214 193/193/193 215/215/215 
f 215/215/215 193/193/193 190/190/190 
f 215/215/215 190/190/190 216/216/216 
f 216/216/216 190/190/190 188/188/188 
f 216/216/216 188/188/188 187/187/187 
f 216/216/216 187/187/187 217/217/217 
f 217/217/217 187/187/187 186/186/186 
f 216/216/216 217/217/217 218/218/218 
f 216/216/216 218/218/218 215/215/215 
f 215/215/215 218/218/218 219/219/219 
f 215/215/215 219/219/219 214/214/214 
f 214/214/214 219/219/219 220/220/220 
f 214/214/214 220/220/220 213/213/213 
f 213/213/213 220/220/220 221/221/221 
f 213/213/213 221/221/221 212/212/212 
f 212/212/212 221/221/221 211/211/211 
f 221/221/221 210/210/210 211/211/211 
f 210/210/210 221/221/221 222/222/222 
f 222/222/222 221/221/221 220/220/220 
f 222/222/222 220/220/220 223/223/223 
f 223/223/223 220/220/220 219/219/219 
f 223/223/223 219/219/219 224/224/224 
f 224/224/224 219/219/219 218/218/218 
f 224/224/224 218/218/218 225/225/225 
f 225/225/225 218/218/218 217/217/217 
f 225/225/225 217/217/217 226/226/226 
f 226/226/226 217/217/217 186/186/186 
f 226/226/226 186/186/186 185/185/185 
f 226/226/226 185/185/185 227/227/227 
f 226/226/226 227/227/227 225/225/225 
f 225/225/225 227/227/227 228/228/228 
f 225/225/225 228/228/228 224/224/224 
f 224/224/224 228/228/228 229/229/229 
f 224/224/224 229/229/229 230/230/230 
f 224/224/224 230/230/230 223/223/223 
f 223/223/223 230/230/230 222/222/222 
f 222/222/222 230/230/230 231/231/231 
f 222/222/222 231/231/231 210/210/210 
f 210/210/210 231/231/231 232/232/232 
f 210/210/210 232/232/232 208/208/208 
f 208/208/208 232/232/232 206/206/206 
f 206/206/206 232/232/232 233/233/233 
f 233/233/233 232/232/232 231/231/231 
f 206/206/206 233/233/233 207/207/207 
f 207/207/207 233/233/233 234/234/234 
f 233/233/233 235/235/235 234/234/234 
f 235/235/235 233/233/233 236/236/236 
f 233/233/233 231/231/231 236/236/236 
f 236/236/236 231/231/231 230/230/230 
f 236/236/236 230/230/230 237/237/237 
f 237/237/237 230/230/230 229/229/229 
f 236/236/236 237/237/237 235/235/235 
f 237/237/237 229/229/229 238/238/238 
f 238/238/238 229/229/229 228/228/228 
f 238/238/238 228/228/228 239/239/239 
f 239/239/239 228/228/228 227/227/227 
f 239/239/239 227/227/227 240/240/240 
f 227/227/227 241/241/241 240/240/240 
f 241/241/241 227/227/227 185/185/185 
f 241/241/241 185/185/185 242/242/242 
f 242/242/242 185/185/185 243/243/243 
f 243/243/243 185/185/185 184/184/184 
f 243/243/243 184/184/184 244/244/244 
f 244/244/244 184/184/184 183/183/183 
f 244/244/244 183/183/183 245/245/245 
f 245/245/245 183/183/183 182/182/182 
f 245/245/245 182/182/182 181/181/181 
f 245/245/245 181/181/181 246/246/246 
f 245/245/245 246/246/246 247/247/247 
f 245/245/245 247/247/247 248/248/248 
f 245/245/245 248/248/248 244/244/244 
f 248/248/248 249/249/249 244/244/244 
f 244/244/244 249/249/249 243/243/243 
f 249/249/249 250/250/250 243/243/243 
f 243/243/243 250/250/250 242/242/242 
f 249/249/249 251/251/251 250/250/250 
f 251/251/251 249/249/249 252/252/252 
f 252/252/252 249/249/249 248/248/248 
f 252/252/252 248/248/248 253/253/253 
f 253/253/253 248/248/248 247/247/247 
f 252/252/252 253/253/253 254/254/254 
f 252/252/252 254/254/254 251/251/251 
f 251/251/251 254/254/254 255/255/255 
f 251/251/251 255/255/255 256/256/256 
f 251/251/251 256/256/256 250/250/250 
f 250/250/250 256/256/256 257/257/257 
f 250/250/250 257/257/257 258/258/258 
f 250/250/250 258/258/258 242/242/242 
f 258/258/258 259/259/259 242/242/242 
f 259/259/259 260/260/260 242/242/242 
f 260/260/260 241/241/241 242/242/242 
f 241/241/241 260/260/260 261/261/261 
f 241/241/241 261/261/261 240/240/240 
f 261/261/261 260/260/260 262/262/262 
f 260/260/260 263/263/263 262/262/262 
f 263/263/263 260/260/260 259/259/259 
f 263/263/263 259/259/259 264/264/264 
f 259/259/259 265/265/265 264/264/264 
f 265/265/265 259/259/259 258/258/258 
f 265/265/265 258/258/258 266/266/266 
f 266/266/266 258/258/258 257/257/257 
f 266/266/266 257/257/257 267/267/267 
f 257/257/257 268/268/268 267/267/267 
f 268/268/268 257/257/257 256/256/256 
f 268/268/268 256/256/256 269/269/269 
f 269/269/269 256/256/256 255/255/255 
f 269/269/269 255/255/255 270/270/270 
f 270/270/270 255/255/255 271/271/271 
f 271/271/271 255/255/255 254/254/254 
f 271/271/271 254/254/254 272/272/272 
f 272/272/272 254/254/254 273/273/273 
f 254/254/254 253/253/253 273/273/273 
f 272/272/272 273/273/273 274/274/274 
f 253/253/253 275/275/275 273/273/273 
f 274/274/274 273/273/273 276/276/276 
f 275/275/275 276/276/276 273/273/273 
f 274/274/274 276/276/276 277/277/277 
f 277/277/277 276/276/276 278/278/278 
f 277/277/277 278/278/278 279/279/279 
f 276/276/276 280/280/280 278/278/278 
f 280/280/280 276/276/276 275/275/275 
f 278/278/278 280/280/280 281/281/281 
f 278/278/278 281/281/281 282/282/282 
f 278/278/278 282/282/282 279/279/279 
f 279/279/279 282/282/282 283/283/283 
f 283/283/283 282/282/282 284/284/284 
f 283/283/283 284/284/284 285/285/285 
f 282/282/282 286/286/286 284/284/284 
f 286/286/286 282/282/282 281/281/281 
f 286/286/286 281/281/281 80/80/80 
f 80/80/80 281/281/281 287/287/287 
f 287/287/287 281/281/281 280/280/280 
f 287/287/287 280/280/280 288/288/288 
f 288/288/288 280/280/280 275/275/275 
f 288/288/288 275/275/275 247/247/247 
f 275/275/275 253/253/253 247/247/247 
f 288/288/288 247/247/247 246/246/246 
f 288/288/288 246/246/246 289/289/289 
f 288/288/288 289/289/289 287/287/287 
f 289/289/289 81/81/81 287/287/287 
f 287/287/287 81/81/81 80/80/80 
f 289/289/289 82/82/82 81/81/81 
f 82/82/82 289/289/289 290/290/290 
f 290/290/290 289/289/289 246/246/246 
f 290/290/290 246/246/246 181/181/181 
f 290/290/290 181/181/181 291/291/291 
f 291/291/291 181/181/181 180/180/180 
f 291/291/291 180/180/180 179/179/179 
f 291/291/291 179/179/179 292/292/292 
f 292/292/292 179/179/179 103/103/103 
f 292/292/292 103/103/103 85/85/85 
f 292/292/292 85/85/85 84/84/84 
f 292/292/292 84/84/84 291/291/291 
f 291/291/291 84/84/84 83/83/83 
f 291/291/291 83/83/83 290/290/290 
f 290/290/290 83/83/83 82/82/82 
f 79/79/79 286/286/286 80/80/80 
f 286/286/286 79/79/79 293/293/293 
f 286/286/286 293/293/293 284/284/284 
f 293/293/293 79/79/79 78/78/78 
f 284/284/284 293/293/293 294/294/294 
f 78/78/78 294/294/294 293/293/293 
f 284/284/284 294/294/294 285/285/285 
f 285/285/285 294/294/294 295/295/295 
f 295/295/295 294/294/294 296/296/296 
f 294/294/294 78/78/78 296/296/296 
f 295/295/295 296/296/296 297/297/297 
f 297/297/297 296/296/296 298/298/298 
f 298/298/298 296/296/296 299/299/299 
f 296/296/296 78/78/78 299/299/299 
f 299/299/299 78/78/78 77/77/77 
f 299/299/299 77/77/77 76/76/76 
f 299/299/299 76/76/76 300/300/300 
f 299/299/299 300/300/300 298/298/298 
f 298/298/298 300/300/300 301/301/301 
f 301/301/301 300/300/300 302/302/302 
f 301/301/301 302/302/302 303/303/303 
f 300/300/300 53/53/53 302/302/302 
f 53/53/53 300/300/300 76/76/76 
f 304/304/304 235/235/235 237/237/237 
f 304/304/304 237/237/237 238/238/238 
f 304/304/304 238/238/238 305/305/305 
f 305/305/305 238/238/238 306/306/306 
f 238/238/238 239/239/239 306/306/306 
f 239/239/239 240/240/240 306/306/306 
f 306/306/306 240/240/240 307/307/307 
f 306/306/306 307/307/307 308/308/308 
f 306/306/306 308/308/308 305/305/305 
f 308/308/308 309/309/309 305/305/305 
f 309/309/309 308/308/308 310/310/310 
f 310/310/310 308/308/308 307/307/307 
f 310/310/310 307/307/307 311/311/311 
f 311/311/311 307/307/307 312/312/312 
f 311/311/311 312/312/312 313/313/313 
f 307/307/307 314/314/314 312/312/312 
f 314/314/314 307/307/307 240/240/240 
f 314/314/314 240/240/240 261/261/261 
f 314/314/314 261/261/261 315/315/315 
f 261/261/261 262/262/262 315/315/315 
f 315/315/315 262/262/262 316/316/316 
f 262/262/262 263/263/263 316/316/316 
f 315/315/315 316/316/316 317/317/317 
f 315/315/315 317/317/317 318/318/318 
f 315/315/315 318/318/318 314/314/314 
f 314/314/314 318/318/318 319/319/319 
f 314/314/314 319/319/319 320/320/320 
f 314/314/314 320/320/320 312/312/312 
f 320/320/320 313/313/313 312/312/312 
f 313/313/313 320/320/320 321/321/321 
f 321/321/321 320/320/320 322/322/322 
f 320/320/320 319/319/319 322/322/322 
f 321/321/321 322/322/322 323/323/323 
f 322/322/322 319/319/319 324/324/324 
f 323/323/323 322/322/322 325/325/325 
f 324/324/324 325/325/325 322/322/322 
f 323/323/323 325/325/325 326/326/326 
f 326/326/326 325/325/325 327/327/327 
f 326/326/326 327/327/327 328/328/328 
f 326/326/326 328/328/328 329/329/329 
f 328/328/328 327/327/327 330/330/330 
f 330/330/330 327/327/327 325/325/325 
f 330/330/330 325/325/325 331/331/331 
f 325/325/325 324/324/324 331/331/331 
f 324/324/324 332/332/332 331/331/331 
f 332/332/332 324/324/324 319/319/319 
f 332/332/332 319/319/319 318/318/318 
f 332/332/332 318/318/318 333/333/333 
f 333/333/333 318/318/318 317/317/317 
f 333/333/333 317/317/317 334/334/334 
f 334/334/334 317/317/317 335/335/335 
f 317/317/317 316/316/316 335/335/335 
f 335/335/335 316/316/316 336/336/336 
f 316/316/316 263/263/263 336/336/336 
f 336/336/336 263/263/263 337/337/337 
f 263/263/263 264/264/264 337/337/337 
f 337/337/337 264/264/264 338/338/338 
f 264/264/264 265/265/265 338/338/338 
f 337/337/337 338/338/338 339/339/339 
f 337/337/337 339/339/339 340/340/340 
f 337/337/337 340/340/340 341/341/341 
f 337/337/337 341/341/341 336/336/336 
f 340/340/340 342/342/342 341/341/341 
f 336/336/336 341/341/341 343/343/343 
f 342/342/342 343/343/343 341/341/341 
f 336/336/336 343/343/343 335/335/335 
f 335/335/335 343/343/343 344/344/344 
f 335/335/335 344/344/344 334/334/334 
f 343/343/343 345/345/345 344/344/344 
f 345/345/345 343/343/343 342/342/342 
f 344/344/344 345/345/345 346/346/346 
f 344/344/344 346/346/346 347/347/347 
f 344/344/344 347/347/347 334/334/334 
f 334/334/334 347/347/347 348/348/348 
f 334/334/334 348/348/348 333/333/333 
f 333/333/333 348/348/348 349/349/349 
f 333/333/333 349/349/349 332/332/332 
f 332/332/332 349/349/349 350/350/350 
f 332/332/332 350/350/350 331/331/331 
f 331/331/331 350/350/350 330/330/330 
f 330/330/330 350/350/350 351/351/351 
f 350/350/350 349/349/349 351/351/351 
f 330/330/330 351/351/351 328/328/328 
f 351/351/351 349/349/349 352/352/352 
f 328/328/328 351/351/351 352/352/352 
f 349/349/349 353/353/353 352/352/352 
f 353/353/353 349/349/349 348/348/348 
f 353/353/353 348/348/348 347/347/347 
f 353/353/353 347/347/347 354/354/354 
f 347/347/347 355/355/355 354/354/354 
f 355/355/355 347/347/347 346/346/346 
f 354/354/354 355/355/355 356/356/356 
f 354/354/354 356/356/356 353/353/353 
f 353/353/353 356/356/356 352/352/352 
f 352/352/352 356/356/356 328/328/328 
f 356/356/356 329/329/329 328/328/328 
f 329/329/329 356/356/356 357/357/357 
f 356/356/356 355/355/355 357/357/357 
f 358/358/358 339/339/339 338/338/338 
f 339/339/339 358/358/358 359/359/359 
f 358/358/358 360/360/360 359/359/359 
f 360/360/360 358/358/358 361/361/361 
f 361/361/361 358/358/358 338/338/338 
f 361/361/361 338/338/338 265/265/265 
f 361/361/361 265/265/265 362/362/362 
f 361/361/361 362/362/362 363/363/363 
f 361/361/361 363/363/363 360/360/360 
f 362/362/362 364/364/364 363/363/363 
f 364/364/364 362/362/362 365/365/365 
f 364/364/364 365/365/365 366/366/366 
f 362/362/362 367/367/367 365/365/365 
f 367/367/367 362/362/362 265/265/265 
f 367/367/367 265/265/265 368/368/368 
f 368/368/368 265/265/265 266/266/266 
f 368/368/368 266/266/266 369/369/369 
f 369/369/369 266/266/266 267/267/267 
f 369/369/369 267/267/267 370/370/370 
f 370/370/370 267/267/267 268/268/268 
f 369/369/369 370/370/370 371/371/371 
f 369/369/369 371/371/371 372/372/372 
f 369/369/369 372/372/372 368/368/368 
f 368/368/368 372/372/372 373/373/373 
f 368/368/368 373/373/373 367/367/367 
f 367/367/367 373/373/373 374/374/374 
f 367/367/367 374/374/374 365/365/365 
f 374/374/374 375/375/375 365/365/365 
f 375/375/375 374/374/374 373/373/373 
f 365/365/365 375/375/375 376/376/376 
f 365/365/365 376/376/376 366/366/366 
f 376/376/376 377/377/377 366/366/366 
f 377/377/377 376/376/376 378/378/378 
f 376/376/376 375/375/375 378/378/378 
f 377/377/377 378/378/378 379/379/379 
f 379/379/379 378/378/378 380/380/380 
f 379/379/379 380/380/380 381/381/381 
f 379/379/379 381/381/381 382/382/382 
f 382/382/382 381/381/381 383/383/383 
f 382/382/382 383/383/383 384/384/384 
f 384/384/384 383/383/383 385/385/385 
f 384/384/384 385/385/385 386/386/386 
f 386/386/386 385/385/385 387/387/387 
f 386/386/386 387/387/387 388/388/388 
f 385/385/385 389/389/389 387/387/387 
f 389/389/389 385/385/385 383/383/383 
f 389/389/389 383/383/383 390/390/390 
f 390/390/390 383/383/383 381/381/381 
f 390/390/390 381/381/381 391/391/391 
f 391/391/391 381/381/381 380/380/380 
f 391/391/391 380/380/380 392/392/392 
f 392/392/392 380/380/380 378/378/378 
f 392/392/392 378/378/378 393/393/393 
f 378/378/378 375/375/375 393/393/393 
f 392/392/392 393/393/393 394/394/394 
f 392/392/392 394/394/394 391/391/391 
f 394/394/394 393/393/393 375/375/375 
f 394/394/394 375/375/375 395/395/395 
f 375/375/375 373/373/373 395/395/395 
f 394/394/394 395/395/395 396/396/396 
f 394/394/394 396/396/396 391/391/391 
f 391/391/391 396/396/396 390/390/390 
f 396/396/396 389/389/389 390/390/390 
f 389/389/389 396/396/396 397/397/397 
f 389/389/389 397/397/397 387/387/387 
f 397/397/397 396/396/396 398/398/398 
f 398/398/398 396/396/396 395/395/395 
f 398/398/398 395/395/395 373/373/373 
f 398/398/398 373/373/373 372/372/372 
f 398/398/398 372/372/372 399/399/399 
f 398/398/398 399/399/399 397/397/397 
f 397/397/397 399/399/399 387/387/387 
f 387/387/387 399/399/399 400/400/400 
f 387/387/387 400/400/400 388/388/388 
f 388/388/388 400/400/400 401/401/401 
f 401/401/401 400/400/400 402/402/402 
f 401/401/401 402/402/402 403/403/403 
f 400/400/400 371/371/371 402/402/402 
f 371/371/371 400/400/400 399/399/399 
f 371/371/371 399/399/399 372/372/372 
f 371/371/371 370/370/370 402/402/402 
f 402/402/402 370/370/370 404/404/404 
f 402/402/402 404/404/404 403/403/403 
f 403/403/403 404/404/404 405/405/405 
f 405/405/405 404/404/404 406/406/406 
f 405/405/405 406/406/406 407/407/407 
f 404/404/404 268/268/268 406/406/406 
f 268/268/268 404/404/404 370/370/370 
f 406/406/406 268/268/268 269/269/269 
f 406/406/406 269/269/269 407/407/407 
f 407/407/407 269/269/269 270/270/270 
f 129/129/129 155/155/155 130/130/130 
f 130/130/130 155/155/155 131/131/131 
# 0 polygons - 712 triangles

