# 3ds Max Wavefront OBJ Exporter v0.99 - (c)2007 guruware
# File Created: 07.05.2025 17:52:29

mtllib Brazo_izquierdo.mtl

#
# object Brazoizquierdo
#

v  1.9872 6.4567 0.2232
v  1.3204 7.2894 0.0212
v  1.2878 7.2645 0.0088
v  2.0189 6.4762 0.2292
v  2.0776 6.3430 0.2572
v  1.4096 7.3574 0.0552
v  2.1071 6.3654 0.2617
v  2.1419 6.2621 0.2814
v  2.1176 6.5367 0.2459
v  1.4907 7.4192 0.0861
v  2.2076 6.5917 0.2609
v  1.5808 7.4700 0.0526
v  2.2001 6.4358 0.2742
v  2.1701 6.2863 0.2849
v  2.8313 5.3705 0.5327
v  2.8634 5.3968 0.5469
v  2.8700 5.3204 0.5468
v  2.2595 6.3630 0.2946
v  2.2845 6.4997 0.2856
v  2.3838 6.6891 0.2336
v  1.6427 7.4971 -0.0286
v  2.4676 6.7219 0.1468
v  1.6679 7.5081 -0.0616
v  2.4544 6.6172 0.2541
v  2.3406 6.4326 0.3036
v  2.9880 5.4509 0.5530
v  2.9022 5.3470 0.5615
v  2.9316 5.2988 0.5794
v  2.8993 5.2723 0.5651
v  3.0373 5.0458 0.6512
v  3.0743 5.0651 0.6661
v  3.1580 4.8244 0.7781
v  3.1955 4.8433 0.7943
v  3.2798 4.6640 0.9306
v  3.2305 5.1390 0.6842
v  3.0620 5.3568 0.5857
v  3.0275 5.4014 0.5670
v  3.1648 5.5219 0.5585
v  2.5060 6.5647 0.2691
v  2.5324 6.6585 0.1640
v  2.4909 6.7308 0.1219
v  2.4961 6.7231 0.0635
v  1.6729 7.5057 -0.1062
v  1.6938 7.4958 -0.2930
v  2.5176 6.6882 -0.1945
v  1.6819 7.4675 -0.4806
v  2.5034 6.6285 -0.4742
v  1.6165 7.4005 -0.6635
v  2.5710 6.6345 -0.1862
v  2.5570 6.6632 0.0788
v  2.5537 6.6694 0.1388
v  2.5812 6.6107 0.1770
v  3.3589 5.5852 0.5265
v  3.2075 5.4747 0.5717
v  3.2428 5.4310 0.5909
v  3.4007 5.5372 0.5391
v  3.4916 5.6385 0.4779
v  2.6013 6.6229 0.1517
v  2.6056 6.6154 0.0910
v  2.6239 6.5812 -0.1781
v  2.5510 6.5787 -0.4725
v  2.4487 6.5588 -0.7086
v  1.6017 7.3853 -0.7049
v  2.4389 6.5394 -0.7629
v  2.4960 6.5099 -0.7061
v  2.6106 6.5163 -0.4702
v  3.5171 5.5219 -0.3131
v  3.5438 5.5903 0.0365
v  3.5299 5.6370 0.3837
v  3.5151 5.6471 0.4551
v  3.5350 5.5922 0.4922
v  3.4367 5.4938 0.5579
v  3.4162 5.2164 0.6852
v  3.3762 4.9405 0.8120
v  3.3230 4.6823 0.9685
v  3.5100 4.7405 0.9983
v  3.5639 5.0165 0.7900
v  3.6264 5.2650 0.6568
v  3.5715 5.5481 0.5081
v  3.5584 5.6009 0.4695
v  3.5735 5.5908 0.3975
v  3.5875 5.5433 0.0467
v  3.5605 5.4742 -0.3055
v  3.6006 5.4309 -0.2979
v  3.6259 5.4996 0.0589
v  3.6101 5.5466 0.4128
v  3.5954 5.5574 0.4860
v  3.7904 5.2837 0.6032
v  3.7586 5.0710 0.7411
v  3.8138 4.9774 0.7771
v  3.6557 4.7575 1.0020
v  3.5532 4.6331 1.0329
v  3.3734 4.5875 1.0068
v  3.3381 4.5740 0.9948
v  3.3325 4.5087 0.8949
v  3.2914 4.5926 0.8172
v  3.3435 4.5343 0.7511
v  3.3713 4.4595 0.8295
v  3.4004 4.3227 1.0163
v  3.4417 4.2666 0.9437
v  3.3952 4.4260 1.1238
v  3.4305 4.4398 1.1358
v  3.4010 4.4101 1.1395
v  3.4059 4.3066 1.0304
v  3.4470 4.2506 0.9562
v  3.5531 3.9906 1.1847
v  3.5146 4.0496 1.3247
v  3.5864 3.9911 1.2686
v  3.4995 4.1426 1.4516
v  3.5557 4.0207 1.3805
v  3.5937 4.0247 1.3842
v  3.6242 3.9957 1.2699
v  3.5414 4.1041 1.4722
v  3.5789 4.1093 1.4809
v  3.5344 4.1584 1.4619
v  3.4363 4.4239 1.1513
v  3.6048 4.4863 1.1617
v  3.6055 4.4691 1.1759
v  3.6567 4.2020 1.4797
v  3.6738 4.1339 1.4821
v  3.6966 4.0520 1.3827
v  3.7144 4.0194 1.2750
v  3.7880 4.0839 1.3814
v  3.7940 4.0487 1.2731
v  3.8223 4.0648 1.2730
v  3.8240 4.1024 1.3767
v  3.8530 4.1453 1.3271
v  3.8450 4.0805 1.1841
v  3.8584 4.3948 1.0105
v  3.8599 4.3134 0.9087
v  3.8558 4.4084 0.9929
v  3.8617 4.3313 0.8945
v  3.8243 4.5114 0.8229
v  3.8112 4.5566 0.9021
v  3.8352 4.5951 0.7988
v  3.8035 4.5044 1.1400
v  3.8035 4.4868 1.1531
v  3.8022 4.2178 1.4493
v  3.7854 4.1693 1.4717
v  3.7597 4.1576 1.4804
v  3.7603 4.2162 1.4625
v  3.7753 4.2183 1.4601
v  3.7668 4.4868 1.1624
v  3.7706 4.5051 1.1493
v  3.7644 4.6514 1.0117
v  3.8386 4.6688 0.8710
v  3.8665 4.6448 0.7613
v  3.9017 4.7262 0.7976
v  3.9482 4.6517 0.7311
v  3.7559 4.7422 0.9836
v  3.7293 4.6528 1.0194
v  3.7328 4.5008 1.1521
v  3.7389 4.4838 1.1648
v  3.6881 4.6485 1.0223
v  3.6940 4.7492 1.0000
v  3.8287 4.9534 0.7857
v  3.9990 5.0045 0.6907
v  3.9455 5.0836 0.6860
v  3.8259 5.2863 0.5888
v  3.8432 5.2651 0.5108
v  3.9777 5.0891 0.6735
v  4.0262 5.0318 0.6741
v  4.0166 4.9785 0.6923
v  3.8442 4.9053 0.7755
v  3.9860 4.7212 0.7320
v  4.0429 4.9406 0.6960
v  4.0610 4.9907 0.6745
v  4.0711 4.9870 0.5928
v  4.0018 5.0679 0.5912
v  3.9159 5.1700 0.1509
v  3.9100 5.0975 -0.2394
v  4.0988 4.8768 -0.2177
v  4.0995 4.9712 0.2168
v  4.1708 4.8982 0.2377
v  4.1216 4.9282 0.5940
v  4.0955 4.9500 0.6749
v  4.2889 4.7429 0.6843
v  4.1482 4.5840 0.7327
v  4.0541 4.3785 0.6741
v  3.8407 4.4952 0.6793
v  4.1932 4.5317 0.7318
v  4.0998 4.3478 0.6697
v  4.3284 4.6966 0.6896
v  4.3117 4.7260 0.6105
v  4.2308 4.8368 0.2553
v  4.1588 4.8074 -0.2122
v  4.1008 4.7406 -0.5797
v  4.0415 4.8128 -0.5856
v  3.8532 5.0228 -0.6180
v  3.5482 5.3493 -0.6343
v  3.5076 5.3928 -0.6365
v  3.5252 5.3336 -0.7042
v  3.8404 5.0067 -0.6996
v  4.0286 4.7987 -0.6668
v  4.0901 4.7227 -0.6606
v  4.1389 4.6624 -0.6556
v  4.1536 4.6760 -0.5744
v  4.2188 4.7379 -0.2067
v  4.4074 4.6553 0.3012
v  4.3458 4.6759 0.6134
v  4.3529 4.6715 0.6881
v  4.2197 4.4947 0.7302
v  4.1251 4.3207 0.6590
v  4.4838 4.1664 0.7165
v  4.3301 4.0391 0.6645
v  4.3597 4.0131 0.6662
v  4.4959 4.1453 0.7190
v  4.5081 4.1237 0.7196
v  4.3857 3.9849 0.6684
v  4.7020 3.7463 0.7198
v  4.5494 3.7091 0.6721
v  4.6163 3.6833 0.6703
v  4.7330 3.6878 0.6799
v  4.7337 3.6766 0.6254
v  4.6165 3.6737 0.6202
v  4.6172 3.6415 0.4526
v  4.7362 3.6375 0.4356
v  4.6174 3.6334 0.4104
v  4.7367 3.6296 0.3973
v  4.6994 3.6779 0.3625
v  4.5502 3.6580 0.4129
v  4.8637 3.7064 0.4148
v  4.8641 3.7140 0.4530
v  4.8428 3.7841 0.4034
v  4.8656 3.7437 0.6034
v  4.8661 3.7526 0.6485
v  4.8447 3.8384 0.6994
v  4.6394 4.2529 0.6915
v  4.6275 4.2756 0.6905
v  4.6158 4.2987 0.6872
v  4.3650 4.6481 0.6133
v  4.6207 4.2853 0.6157
v  4.6323 4.2630 0.6192
v  4.6442 4.2407 0.6204
v  4.8442 3.8266 0.6349
v  4.6616 4.1966 0.3611
v  4.6498 4.2171 0.3591
v  4.6384 4.2364 0.3543
v  4.4099 4.5613 0.3369
v  4.4100 4.5993 0.3311
v  4.4184 4.5894 0.2943
v  4.4159 4.5498 0.3002
v  4.6410 4.2293 0.3160
v  4.6524 4.2103 0.3208
v  4.6642 4.1900 0.3227
v  4.8425 3.7771 0.3650
v  4.5105 4.0375 0.3373
v  4.3895 3.9277 0.3888
v  4.3644 3.9558 0.3827
v  4.4968 4.0548 0.3348
v  4.4823 4.0688 0.3289
v  4.2714 4.3774 0.2925
v  4.4188 4.5450 0.2844
v  4.4217 4.5401 0.2686
v  4.4176 4.5776 0.2485
v  4.3920 4.5260 -0.1890
v  4.3174 4.4802 -0.5293
v  4.3005 4.4699 -0.6063
v  3.9233 4.4644 -0.6132
v  3.8568 4.5304 -0.6269
v  3.7581 4.6281 -0.6474
v  3.4718 4.8360 -0.6884
v  3.5065 4.5051 -0.6285
v  3.6407 4.4074 -0.6016
v  3.7313 4.3413 -0.5835
v  3.9026 4.1769 -0.5566
v  4.0770 4.2841 -0.5772
v  4.3138 4.4175 -0.5973
v  4.3315 4.4267 -0.5205
v  4.4015 4.4632 -0.2184
v  4.4101 4.4677 -0.1810
v  4.4109 4.4787 -0.1380
v  4.4206 4.5292 0.2225
v  4.4118 4.4471 -0.1239
v  4.4107 4.4368 -0.1671
v  4.4105 4.4344 -0.1773
v  4.4099 4.4312 -0.1903
v  4.4017 4.4264 -0.2278
v  4.3407 4.3911 -0.5067
v  4.3251 4.3802 -0.5884
v  4.1076 4.2470 -0.5711
v  3.9483 4.1497 -0.5543
v  3.9589 4.1332 -0.5507
v  4.1270 4.2277 -0.5664
v  4.1950 3.8562 -0.4566
v  4.4170 3.9470 -0.4963
v  4.2323 3.8281 -0.4516
v  4.4286 3.9332 -0.4917
v  4.2604 3.7976 -0.4486
v  4.6066 4.0445 -0.5247
v  4.6179 4.0528 -0.4585
v  4.6615 4.0851 -0.2040
v  4.6285 4.0399 -0.4576
v  4.6176 4.0317 -0.5236
v  4.4379 3.9204 -0.4894
v  4.4512 3.5896 -0.4191
v  4.6191 3.6151 -0.4472
v  4.5167 3.5614 -0.3929
v  4.6267 4.0199 -0.5218
v  4.6374 4.0279 -0.4561
v  4.6706 4.0714 -0.2034
v  4.6680 4.0898 -0.1661
v  4.6769 4.0761 -0.1655
v  4.6846 4.0634 -0.1657
v  4.6784 4.0588 -0.2036
v  4.8323 3.7444 -0.4040
v  4.8244 3.7346 -0.4683
v  4.8269 3.6636 -0.4264
v  4.6568 3.5668 -0.4098
v  4.5231 3.5701 -0.3491
v  4.6640 3.5758 -0.3601
v  4.5454 3.6006 -0.1965
v  4.8334 3.6716 -0.3771
v  4.6904 3.6088 -0.1782
v  4.5514 3.6088 -0.1555
v  4.6959 3.6156 -0.1405
v  4.8570 3.7008 -0.1969
v  4.8627 3.7818 -0.1575
v  4.8674 3.7876 -0.1195
v  4.8620 3.7069 -0.1590
v  4.6691 3.6753 -0.1076
v  4.4859 3.9417 -0.1394
v  4.4787 3.9536 -0.1391
v  4.4704 3.9658 -0.1394
v  4.2875 3.8549 -0.1432
v  4.3148 3.8250 -0.1428
v  4.4933 3.6407 -0.1328
v  4.2532 3.8826 -0.1441
v  4.2202 4.2650 -0.1814
v  4.0435 4.1470 -0.1881
v  4.2209 4.2674 -0.1623
v  4.0468 4.1486 -0.1586
v  4.0241 4.1648 -0.1646
v  4.0507 4.1508 -0.1294
v  4.2232 4.2727 -0.1444
v  4.6780 4.0816 -0.1174
v  4.6820 4.0900 -0.0740
v  4.7076 4.1438 0.2073
v  4.7119 4.1526 0.2536
v  4.7212 4.1300 0.2089
v  4.6947 4.0750 -0.0708
v  4.6905 4.0665 -0.1142
v  4.4844 3.9334 -0.0941
v  4.4733 3.9494 -0.0948
v  4.2862 3.8515 -0.0562
v  4.3229 3.8256 -0.0568
v  4.3529 3.8004 -0.0532
v  4.4938 3.9200 -0.0929
v  4.5385 3.5744 -0.0273
v  4.7007 4.0530 -0.1115
v  4.7048 4.0617 -0.0682
v  4.7317 4.1178 0.2106
v  4.7255 4.1391 0.2552
v  4.5192 4.0069 0.2654
v  4.5122 4.0236 0.2640
v  4.2665 4.3657 0.2613
v  4.2685 4.3740 0.2774
v  4.1074 4.2402 0.2910
v  4.1056 4.2338 0.2683
v  4.0979 4.2247 0.2501
v  4.3147 3.9144 0.2350
v  4.3543 3.8880 0.2343
v  4.3812 3.8608 0.2387
v  4.5265 3.9919 0.2671
v  4.7362 4.1271 0.2569
v  4.7354 3.6391 0.3168
v  4.5766 3.6297 0.2577
v  4.6152 3.5782 0.2451
v  4.7628 3.5754 0.2961
v  4.7588 3.5671 0.2496
v  4.6091 3.5696 0.1990
v  4.9346 3.6433 0.2686
v  4.9556 3.7276 0.3043
v  4.9526 3.7201 0.2576
v  4.9313 3.6361 0.2219
v  4.9372 3.6800 0.0088
v  4.9344 3.6729 -0.0349
v  4.7001 3.5751 -0.0708
v  4.5818 3.5308 -0.0079
v  4.7340 3.5156 -0.0381
v  4.9153 3.6003 -0.0100
v  4.9183 3.6071 0.0338
v  4.7377 3.5234 0.0055
v  4.5875 3.5389 0.0354
v  4.0748 4.2536 0.2723
v  4.3362 3.9817 0.3746
v  3.1888 4.6997 -0.6700
v  3.1521 5.1980 -0.6847
v  2.8488 5.0289 -0.6821
v  3.4839 5.3765 -0.7048
v  3.1127 5.2426 -0.6842
v  2.8060 5.0704 -0.6836
v  3.0724 5.2932 -0.6883
v  2.7684 5.1231 -0.6868
v  3.4407 5.4250 -0.7074
v  3.4641 5.4410 -0.6395
v  2.5643 6.4393 -0.7025
v  2.4860 6.4905 -0.7612
v  2.5562 6.4178 -0.7588
v  2.3379 6.2161 -0.7631
v  2.1127 6.0435 -0.7426
v  2.0449 6.1387 -0.7449
v  2.2682 6.3105 -0.7681
v  2.2019 6.4004 -0.7728
v  1.9591 6.2593 -0.7478
v  1.4550 7.2643 -0.7487
v  1.3059 7.1325 -0.6818
v  3.2970 4.8244 1.0900
v  3.4304 4.5926 1.1291
v  3.4188 4.6640 1.2425
v  3.2788 4.6773 0.8847
v  3.1763 5.0458 0.9631
v  3.4101 4.5577 0.8567
v  3.4825 4.5343 1.0630
v  3.5722 4.4594 0.8388
v  3.6241 4.4683 1.0131
v  3.5103 4.4595 1.1414
v  3.6859 4.4272 1.0598
v  3.5807 4.2666 1.2556
v  3.7022 4.2307 1.1885
v  3.5860 4.2506 1.2682
v  3.7048 4.2172 1.2016
v  3.7535 4.0243 1.4211
v  3.6921 3.9906 1.4966
v  3.7673 4.0001 1.4930
v  3.7254 3.9911 1.5805
v  3.7632 3.9957 1.5818
v  3.8498 4.0200 1.4928
v  3.8534 4.0194 1.5869
v  3.8389 4.0471 1.4108
v  3.8202 4.2244 1.1769
v  3.8210 4.2383 1.1636
v  3.7989 4.4235 1.0518
v  3.7913 4.4674 1.0136
v  3.8501 4.4862 0.9796
v  3.9057 4.5130 1.0491
v  3.8980 4.4465 1.0756
v  3.9253 4.2716 1.1720
v  3.9214 4.2573 1.1856
v  3.9170 4.0749 1.4188
v  3.9219 4.0477 1.4927
v  3.9330 4.0487 1.5850
v  3.9613 4.0648 1.5850
v  3.9840 4.0805 1.4960
v  3.9989 4.3134 1.2206
v  4.0007 4.3313 1.2064
v  3.9633 4.5114 1.1348
v  3.9742 4.5951 1.1107
v  3.9117 4.5093 1.0204
v  4.0055 4.6448 1.0732
v  3.9064 4.4867 0.9051
v  3.9797 4.4952 0.9912
v  4.0872 4.6517 1.0430
v  3.9724 4.4788 0.8880
v  4.1874 4.3592 0.9104
v  4.1931 4.3785 0.9860
v  4.2388 4.3478 0.9816
v  4.2340 4.3297 0.9050
v  4.2641 4.3207 0.9709
v  4.2607 4.3052 0.9000
v  4.4691 4.0391 0.9764
v  4.4703 4.0280 0.9205
v  4.4988 4.0131 0.9781
v  4.4997 4.0021 0.9234
v  4.5247 3.9849 0.9803
v  4.4744 3.9893 0.7248
v  4.2482 4.2485 0.6410
v  4.2162 4.2626 0.6222
v  4.1636 4.2783 0.5938
v  3.9417 4.4102 0.4561
v  3.7604 4.4159 0.6410
v  3.5568 4.4650 0.6310
v  3.6295 4.4477 0.4387
v  3.4463 4.5435 0.3415
v  3.3764 4.5463 0.6110
v  3.1935 4.7305 0.5888
v  3.1188 5.0064 0.7895
v  3.0383 5.2723 0.8770
v  3.0204 5.2396 0.7629
v  3.0090 5.3204 0.8587
v  3.0430 5.0571 0.5708
v  3.1745 4.7483 0.3296
v  3.0112 5.1325 0.3673
v  2.9890 5.2110 0.5652
v  2.9867 5.2764 0.5604
v  3.0147 5.3034 0.7542
v  2.9703 5.3705 0.8446
v  2.9589 5.3436 0.7415
v  2.2809 6.2621 0.5933
v  2.2710 6.2303 0.4651
v  2.2166 6.3430 0.5691
v  2.9307 5.3176 0.5521
v  2.9444 5.2361 0.3608
v  3.0000 5.1941 0.3660
v  3.0502 5.0811 0.1830
v  3.0611 5.0219 0.1683
v  3.2196 4.7424 0.0694
v  3.0665 5.0059 0.0746
v  3.0330 5.0535 0.0875
v  2.9946 5.1231 0.1780
v  2.2470 6.1292 0.0250
v  2.2548 6.1667 0.2160
v  2.2588 6.2004 0.3586
v  2.2063 6.3134 0.4451
v  2.1262 6.4567 0.5351
v  2.1161 6.4291 0.4172
v  1.4268 7.2645 0.3207
v  1.4094 7.2426 0.2449
v  1.4057 7.2198 0.1729
v  2.1028 6.4035 0.3198
v  1.4023 7.1957 0.0975
v  2.1869 6.2930 0.3388
v  2.1774 6.2713 0.2069
v  2.1779 6.2225 0.0168
v  2.1800 6.2005 -0.1105
v  2.2487 6.1078 -0.0993
v  2.9947 5.1050 0.0784
v  2.9483 5.0861 -0.2795
v  2.9897 5.0432 -0.2812
v  3.2455 4.7512 0.0057
v  3.5949 4.5675 0.0952
v  3.7804 4.4867 0.2410
v  3.9239 4.3650 0.2330
v  3.8083 4.4587 0.1169
v  3.6396 4.5698 0.0399
v  3.3126 4.7085 -0.2945
v  2.9878 5.0289 -0.3702
v  2.9450 5.0704 -0.3717
v  2.9074 5.1231 -0.3749
v  2.9106 5.1386 -0.2840
v  2.2485 6.0587 -0.3615
v  2.1816 6.1513 -0.3670
v  2.1839 6.1387 -0.4330
v  2.2517 6.0435 -0.4307
v  3.3278 4.6997 -0.3581
v  3.6444 4.5168 -0.2525
v  3.7899 4.4112 -0.2068
v  3.8802 4.3457 -0.1785
v  4.1173 4.1877 0.1553
v  4.2085 4.2443 0.5381
v  4.2138 4.2536 0.5843
v  4.2369 4.2247 0.5620
v  4.2464 4.2402 0.6029
v  4.4752 3.9817 0.6866
v  4.5034 3.9558 0.6946
v  4.5028 3.9636 0.7329
v  4.5280 3.9355 0.7389
v  4.5285 3.9277 0.7007
v  4.5254 3.9738 0.9264
v  4.6884 3.7091 0.9840
v  4.6886 3.6993 0.9340
v  4.7553 3.6833 0.9822
v  4.7555 3.6737 0.9321
v  4.6891 3.6650 0.7606
v  4.6893 3.6580 0.7248
v  4.7562 3.6415 0.7645
v  4.7564 3.6334 0.7223
v  4.2312 4.2157 0.5159
v  4.4537 3.9144 0.5470
v  4.4492 3.9044 0.5009
v  4.4933 3.8880 0.5462
v  4.1951 4.1592 0.2258
v  4.1681 4.1736 0.1906
v  4.1631 4.1648 0.1473
v  4.1897 4.1508 0.1826
v  4.4253 3.8515 0.2557
v  4.4295 3.8609 0.2989
v  4.4883 3.8781 0.5001
v  4.4666 3.8348 0.2983
v  4.4619 3.8256 0.2551
v  4.4919 3.8004 0.2587
v  4.4961 3.8093 0.3020
v  4.6775 3.5744 0.2846
v  4.5157 3.8513 0.5045
v  4.5202 3.8608 0.5506
v  4.7156 3.6297 0.5696
v  4.7095 3.6208 0.5235
v  4.7542 3.5782 0.5571
v  4.7481 3.5696 0.5109
v  4.6833 3.5828 0.3278
v  4.7208 3.5308 0.3041
v  4.7265 3.5389 0.3473
v  4.1557 4.1633 0.1095
v  4.1825 4.1470 0.1238
v  4.0551 4.1785 -0.1750
v  4.1001 4.1523 -0.1763
v  4.1738 4.1456 0.0862
v  4.3851 3.8794 0.1299
v  4.3922 3.8826 0.1678
v  4.4197 3.8516 0.1308
v  4.4265 3.8549 0.1687
v  4.4471 3.8216 0.1312
v  4.4538 3.8250 0.1691
v  4.6267 3.6340 0.1414
v  4.6323 3.6407 0.1791
v  4.6904 3.6088 0.1564
v  4.6844 3.6006 0.1154
v  4.5979 3.5990 -0.0543
v  4.6621 3.5701 -0.0372
v  4.6557 3.5614 -0.0810
v  4.5902 3.5896 -0.1072
v  4.4095 3.8027 -0.0803
v  4.3815 3.8330 -0.0828
v  4.3447 3.8611 -0.0871
v  4.1135 4.1357 -0.1719
v  4.3340 3.8562 -0.1447
v  4.0979 4.1332 -0.2388
v  4.0873 4.1497 -0.2424
v  4.0416 4.1769 -0.2446
v  3.8703 4.3413 -0.2715
v  3.7797 4.4074 -0.2897
v  3.6455 4.5051 -0.3165
v  4.3994 3.7976 -0.1367
v  4.3713 3.8281 -0.1397
v  2.0981 6.2593 -0.4359
v  2.0942 6.2724 -0.3741
v  1.4449 7.1325 -0.3699
v  1.4387 7.1322 -0.3410
v  2.0924 6.3160 -0.1232
v  2.0899 6.3388 0.0084
v  1.4111 7.1309 -0.2136
v  1.4050 7.1630 -0.0190
v  2.0992 6.3771 0.1978
# 623 vertices

vn -0.2311 0.0751 0.9700
vn -0.3288 -0.0374 0.9437
vn -0.3313 -0.0365 0.9428
vn -0.2235 0.0771 0.9717
vn -0.2286 0.1050 0.9678
vn -0.3196 -0.0441 0.9465
vn -0.2213 0.1068 0.9693
vn -0.2167 0.1094 0.9701
vn -0.2086 0.0721 0.9753
vn -0.1000 0.1330 0.9861
vn -0.0935 0.1649 0.9819
vn 0.3131 0.4877 0.8149
vn -0.2086 0.1023 0.9726
vn -0.2136 0.1125 0.9704
vn -0.3813 -0.0297 0.9240
vn -0.2609 0.0749 0.9625
vn -0.4200 0.0117 0.9074
vn -0.2027 0.1122 0.9728
vn -0.1014 0.1812 0.9782
vn 0.2376 0.4633 0.8538
vn 0.4866 0.6441 0.5902
vn 0.4406 0.6212 0.6481
vn 0.6094 0.7194 0.3332
vn 0.2255 0.4657 0.8557
vn -0.1019 0.1859 0.9773
vn -0.1156 0.1813 0.9766
vn -0.2813 0.1189 0.9522
vn -0.3080 0.1642 0.9371
vn -0.4491 0.0651 0.8911
vn -0.4400 0.1514 0.8851
vn -0.3444 0.2383 0.9081
vn -0.4944 0.2795 0.8231
vn -0.4256 0.3680 0.8267
vn -0.8106 -0.0040 0.5856
vn -0.2081 0.3393 0.9174
vn -0.1610 0.2785 0.9469
vn -0.1330 0.2306 0.9639
vn -0.0245 0.2447 0.9693
vn 0.2371 0.4582 0.8566
vn 0.4356 0.6220 0.6506
vn 0.6140 0.7205 0.3224
vn 0.7005 0.7129 -0.0333
vn 0.6844 0.7281 0.0380
vn 0.6970 0.7144 -0.0612
vn 0.7090 0.6967 -0.1091
vn 0.6789 0.6674 -0.3060
vn 0.6916 0.6696 -0.2709
vn 0.6310 0.6327 -0.4488
vn 0.7133 0.6922 -0.1098
vn 0.7054 0.7078 -0.0372
vn 0.6146 0.7177 0.3273
vn 0.4394 0.6086 0.6607
vn 0.1175 0.3607 0.9253
vn -0.0421 0.3047 0.9515
vn -0.0637 0.3604 0.9306
vn 0.0918 0.4011 0.9114
vn 0.2960 0.5214 0.8003
vn 0.6255 0.7088 0.3261
vn 0.7196 0.6934 -0.0374
vn 0.7271 0.6776 -0.1102
vn 0.7012 0.6611 -0.2669
vn 0.6675 0.6553 -0.3537
vn 0.4178 0.4357 -0.7973
vn 0.4107 0.4063 -0.8162
vn 0.6820 0.6423 -0.3498
vn 0.7173 0.6438 -0.2664
vn 0.7346 0.6382 -0.2301
vn 0.7397 0.6619 -0.1217
vn 0.7288 0.6847 -0.0057
vn 0.6111 0.6918 0.3848
vn 0.2942 0.5309 0.7947
vn 0.0730 0.4438 0.8932
vn -0.0574 0.4101 0.9102
vn -0.2240 0.4921 0.8412
vn -0.4698 0.3016 0.8297
vn -0.1667 0.4358 0.8845
vn 0.0051 0.5291 0.8485
vn 0.1245 0.4723 0.8726
vn 0.2856 0.5384 0.7928
vn 0.6223 0.6824 0.3836
vn 0.7488 0.6628 0.0016
vn 0.7505 0.6499 -0.1203
vn 0.7349 0.6391 -0.2267
vn 0.7321 0.6445 -0.2204
vn 0.7580 0.6430 -0.1098
vn 0.7630 0.6464 0.0065
vn 0.6196 0.6736 0.4029
vn 0.2510 0.5230 0.8146
vn 0.1617 0.4620 0.8720
vn 0.2508 0.4972 0.8306
vn 0.0546 0.4620 0.8852
vn -0.1245 0.4388 0.8899
vn -0.3296 0.3771 0.8655
vn -0.7897 0.0077 0.6134
vn -0.9203 -0.3908 0.0204
vn -0.8903 -0.4550 -0.0194
vn -0.8382 -0.5223 -0.1570
vn -0.8726 -0.4583 -0.1689
vn -0.9406 -0.3392 -0.0105
vn -0.8874 -0.4280 -0.1712
vn -0.8333 0.1693 0.5262
vn -0.3599 0.5570 0.7485
vn -0.8480 0.1988 0.4913
vn -0.9391 -0.3437 0.0054
vn -0.8812 -0.4489 -0.1483
vn -0.8127 -0.5825 0.0126
vn -0.8291 -0.5480 0.1105
vn -0.2897 -0.9311 0.2218
vn -0.7850 0.0066 0.6195
vn -0.3722 -0.8391 0.3966
vn 0.1311 -0.8612 0.4910
vn 0.1785 -0.9395 0.2923
vn -0.4045 -0.4035 0.8207
vn -0.0549 -0.3517 0.9345
vn -0.3440 0.4185 0.8406
vn -0.3671 0.6117 0.7007
vn -0.1352 0.6286 0.7659
vn -0.1558 0.6751 0.7211
vn -0.1037 0.4507 0.8866
vn 0.1071 -0.3892 0.9149
vn 0.2525 -0.8361 0.4869
vn 0.2774 -0.9075 0.3155
vn 0.3805 -0.7926 0.4765
vn 0.4012 -0.8645 0.3028
vn 0.7504 -0.6245 0.2168
vn 0.7328 -0.5278 0.4294
vn 0.9742 -0.0939 0.2053
vn 0.9882 -0.1511 0.0236
vn 0.9848 0.1580 0.0726
vn 0.9984 -0.0213 0.0527
vn 0.9727 0.2312 0.0198
vn 0.9981 0.0600 0.0124
vn 0.9914 0.1095 0.0723
vn 0.9781 0.1163 0.1727
vn 0.9486 -0.2205 0.2271
vn 0.6845 0.5108 0.5202
vn 0.6794 0.4881 0.5478
vn 0.6913 0.3565 0.6285
vn 0.5763 -0.1398 0.8052
vn 0.2750 -0.2747 0.9214
vn 0.0637 0.5389 0.8399
vn 0.1906 0.5331 0.8243
vn 0.0831 0.6612 0.7456
vn 0.1147 0.6223 0.7744
vn 0.6579 0.4000 0.6381
vn 0.8833 -0.1538 0.4428
vn 0.7069 -0.4772 0.5220
vn 0.7183 -0.0564 0.6934
vn 0.1573 -0.2594 0.9529
vn 0.5346 0.3775 0.7561
vn 0.1226 0.4773 0.8702
vn -0.0095 0.6279 0.7782
vn -0.0120 0.6732 0.7393
vn 0.0206 0.4453 0.8951
vn 0.1869 0.4386 0.8790
vn 0.4767 0.3531 0.8050
vn 0.3402 0.2890 0.8948
vn 0.2772 0.4190 0.8646
vn 0.6032 0.6621 0.4448
vn 0.7774 0.6290 -0.0005
vn 0.5830 0.5694 0.5795
vn 0.6211 0.5330 0.5746
vn 0.3223 0.2765 0.9053
vn 0.6447 0.1395 0.7516
vn 0.3044 0.0316 0.9520
vn 0.2866 0.2249 0.9313
vn 0.6198 0.5369 0.5723
vn 0.7567 0.6518 0.0513
vn 0.7616 0.6469 0.0389
vn 0.7590 0.6469 -0.0732
vn 0.7489 0.6362 -0.1855
vn 0.7521 0.6325 -0.1849
vn 0.7345 0.6759 -0.0611
vn 0.7250 0.6862 -0.0592
vn 0.7407 0.6696 0.0540
vn 0.6108 0.5608 0.5589
vn 0.5486 0.5370 0.6408
vn 0.0199 -0.0100 0.9998
vn -0.1052 -0.2508 0.9623
vn -0.1096 -0.2436 0.9637
vn -0.0081 -0.0442 0.9990
vn -0.0578 -0.3241 0.9442
vn 0.5588 0.4998 0.6618
vn 0.7655 0.6396 0.0708
vn 0.7251 0.6864 -0.0549
vn 0.7500 0.6325 -0.1935
vn 0.7616 0.6053 -0.2315
vn 0.7537 0.6162 -0.2284
vn 0.7298 0.6396 -0.2414
vn 0.6980 0.6430 -0.3153
vn 0.7036 0.6308 -0.3272
vn 0.3943 0.3696 -0.8414
vn 0.4715 0.3489 -0.8099
vn 0.5049 0.3275 -0.7986
vn 0.4799 0.3142 -0.8192
vn 0.4881 0.2671 -0.8309
vn 0.7661 0.5975 -0.2370
vn 0.7557 0.6222 -0.2043
vn 0.8973 0.4413 0.0128
vn 0.8237 0.5656 0.0402
vn 0.6286 0.4986 0.5969
vn -0.0333 -0.0705 0.9970
vn -0.1576 -0.2774 0.9477
vn -0.0745 0.0025 0.9972
vn -0.2049 -0.1478 0.9676
vn -0.2216 -0.1471 0.9640
vn -0.0978 0.0173 0.9951
vn -0.0649 -0.0195 0.9977
vn -0.2484 -0.1373 0.9589
vn 0.0515 -0.2844 0.9573
vn -0.2378 -0.2335 0.9428
vn -0.0816 -0.7434 0.6639
vn 0.2484 -0.7781 0.5770
vn 0.2498 -0.9490 0.1923
vn 0.0157 -0.9819 0.1885
vn -0.0014 -0.9812 0.1932
vn 0.2491 -0.9483 0.1968
vn -0.1461 -0.8355 -0.5297
vn 0.2567 -0.8794 -0.4010
vn -0.0010 -0.3597 -0.9331
vn -0.2599 -0.2821 -0.9235
vn 0.8396 -0.4484 -0.3067
vn 0.9201 -0.3852 0.0705
vn 0.9438 0.3239 -0.0659
vn 0.9201 -0.3854 0.0693
vn 0.8609 -0.3551 0.3644
vn 0.7554 0.1332 0.6416
vn 0.6712 0.3663 0.6445
vn 0.6382 0.3973 0.6594
vn 0.6665 0.4381 0.6032
vn 0.8262 0.5630 -0.0202
vn 0.8550 0.5173 -0.0373
vn 0.8846 0.4657 -0.0231
vn 0.8898 0.4558 -0.0203
vn 0.9360 0.3462 -0.0638
vn 0.8899 0.4555 -0.0242
vn 0.8666 0.4981 -0.0289
vn 0.8427 0.5368 -0.0411
vn 0.9494 0.3068 0.0667
vn 0.9790 0.0945 0.1807
vn 0.9927 0.0880 0.0824
vn 0.9978 0.0126 -0.0658
vn 0.6230 0.2846 -0.7287
vn 0.6658 0.2593 -0.6996
vn 0.6523 0.2580 -0.7127
vn 0.7055 0.0344 -0.7079
vn -0.0777 -0.1710 -0.9822
vn -0.1704 -0.2578 -0.9511
vn -0.0937 -0.3399 -0.9358
vn 0.0020 -0.2561 -0.9666
vn -0.0065 -0.2541 -0.9672
vn 0.5076 -0.5416 -0.6701
vn 0.8977 -0.3489 0.2690
vn 0.9495 -0.0254 0.3127
vn 0.9891 0.1353 -0.0583
vn 0.8796 0.4348 -0.1931
vn 0.8773 0.4105 -0.2487
vn 0.6255 0.1839 -0.7582
vn -0.0008 -0.1976 -0.9803
vn 0.0082 -0.1942 -0.9809
vn 0.0225 -0.1746 -0.9844
vn -0.0064 -0.0979 -0.9952
vn 0.0225 -0.1915 -0.9812
vn 0.0236 -0.2237 -0.9744
vn -0.0039 -0.2157 -0.9765
vn -0.0203 -0.1713 -0.9850
vn 0.0051 -0.1722 -0.9851
vn 0.6113 0.0145 -0.7912
vn 0.9535 0.1902 -0.2337
vn 0.9588 0.1572 -0.2366
vn 0.9805 0.1430 -0.1348
vn 0.9866 0.1520 -0.0589
vn 0.9299 0.3525 -0.1053
vn 0.9435 0.3156 -0.1013
vn 0.9598 -0.0563 -0.2751
vn 0.9149 -0.3982 0.0666
vn 0.9877 -0.0074 0.1562
vn 0.9092 0.3390 -0.2418
vn 0.8907 0.3898 -0.2337
vn 0.5610 0.0911 -0.8228
vn 0.0179 -0.1832 -0.9829
vn -0.0076 -0.1674 -0.9859
vn 0.0408 -0.2357 -0.9710
vn 0.0341 -0.2235 -0.9741
vn -0.0370 -0.2767 -0.9602
vn -0.0159 -0.2799 -0.9599
vn -0.0784 -0.2322 -0.9695
vn -0.0325 -0.2655 -0.9636
vn -0.0888 -0.1989 -0.9760
vn 0.4894 0.3016 -0.8182
vn 0.7698 0.6026 -0.2104
vn 0.8012 0.5613 -0.2073
vn 0.7825 0.5886 -0.2033
vn 0.4854 0.2941 -0.8233
vn -0.0724 -0.2068 -0.9757
vn -0.0901 -0.3485 -0.9330
vn 0.0001 -0.4231 -0.9061
vn 0.0082 -0.9033 -0.4290
vn 0.5236 0.2573 -0.8122
vn 0.8115 0.5493 -0.1994
vn 0.8258 0.5267 -0.2017
vn 0.6513 0.4908 0.5787
vn 0.6797 0.4360 0.5898
vn 0.6759 0.4636 0.5729
vn 0.8313 0.5199 -0.1968
vn 0.9517 0.2614 -0.1610
vn 0.6967 0.0083 -0.7173
vn 0.7140 -0.5667 -0.4112
vn 0.2188 -0.8982 -0.3812
vn 0.0568 -0.9810 0.1855
vn 0.2812 -0.9503 0.1336
vn 0.0378 -0.9821 0.1843
vn 0.8557 -0.5168 -0.0270
vn 0.2689 -0.9539 0.1334
vn 0.0047 -0.8024 0.5967
vn 0.2446 -0.7868 0.5666
vn 0.8586 -0.5119 -0.0267
vn 0.9504 0.2675 -0.1588
vn 0.7655 0.1620 0.6228
vn 0.7946 -0.4906 0.3577
vn 0.0390 -0.2135 0.9762
vn 0.0171 0.0442 0.9989
vn 0.0407 0.0272 0.9988
vn 0.0090 0.0710 0.9974
vn -0.0216 0.0008 0.9998
vn -0.0255 0.0063 0.9997
vn -0.0813 -0.1553 0.9845
vn -0.0528 0.0600 0.9968
vn 0.3876 -0.4927 0.7791
vn 0.0478 -0.7490 0.6608
vn 0.6147 -0.7808 0.1121
vn -0.0285 -0.9970 0.0714
vn -0.5981 -0.7921 0.1221
vn 0.2381 -0.8118 -0.5331
vn 0.4401 -0.6606 -0.6082
vn 0.5311 0.2774 -0.8006
vn 0.7835 0.5931 -0.1856
vn 0.7522 0.6315 -0.1881
vn 0.5743 0.5343 0.6202
vn 0.7328 0.6512 -0.1973
vn 0.7830 0.5923 -0.1899
vn 0.5529 0.2783 -0.7854
vn -0.0837 -0.1289 -0.9881
vn -0.0712 -0.1481 -0.9864
vn -0.0762 -0.1879 -0.9792
vn -0.1033 -0.1814 -0.9780
vn -0.0902 -0.2118 -0.9731
vn -0.0831 -0.1421 -0.9864
vn -0.2183 -0.3233 -0.9208
vn 0.5785 0.2705 -0.7695
vn 0.8270 0.5310 -0.1848
vn 0.8140 0.5511 -0.1838
vn 0.5433 0.5911 0.5961
vn -0.1036 0.0495 0.9934
vn -0.0574 0.0114 0.9983
vn 0.3827 -0.4509 0.8064
vn 0.6892 -0.7082 0.1534
vn 0.2920 -0.9022 -0.3173
vn 0.1641 -0.9324 0.3220
vn 0.0573 -0.5628 0.8246
vn -0.0762 -0.0935 0.9927
vn -0.1185 -0.0802 0.9897
vn -0.1643 -0.0290 0.9860
vn -0.1179 0.0469 0.9919
vn 0.6209 0.5184 0.5881
vn -0.0968 -0.1749 0.9798
vn -0.2992 -0.1904 0.9350
vn -0.2131 -0.7765 0.5929
vn 0.1071 -0.7409 0.6630
vn 0.1583 -0.9746 0.1586
vn -0.0758 -0.9791 0.1886
vn 0.6791 -0.5975 0.4265
vn 0.7742 0.0734 0.6286
vn 0.9886 0.1262 -0.0826
vn 0.7604 -0.6475 0.0500
vn 0.9884 0.1233 -0.0885
vn 0.7989 -0.0147 -0.6013
vn -0.0112 -0.3293 -0.9442
vn -0.1771 -0.8731 -0.4542
vn 0.1579 -0.8718 -0.4637
vn 0.6671 -0.6400 -0.3813
vn 0.7583 -0.6499 0.0509
vn 0.1733 -0.9717 0.1603
vn -0.0626 -0.9794 0.1920
vn -0.4603 -0.7934 0.3984
vn -0.0666 -0.2822 -0.9570
vn -0.0107 -0.0815 -0.9966
vn -0.0274 -0.0230 -0.9994
vn 0.0089 -0.0248 -0.9997
vn 0.3977 0.3434 -0.8508
vn -0.0094 -0.0467 -0.9989
vn 0.0174 -0.0373 -0.9992
vn 0.0063 -0.0683 -0.9976
vn 0.0201 -0.0544 -0.9983
vn 0.4143 0.3241 -0.8505
vn 0.7120 0.6199 -0.3298
vn 0.6987 0.6286 -0.3416
vn 0.4313 0.3881 -0.8145
vn 0.4488 0.3706 -0.8132
vn 0.0085 -0.0538 -0.9985
vn -0.0376 -0.0695 -0.9969
vn -0.0510 -0.0677 -0.9964
vn 0.0016 -0.0490 -0.9988
vn -0.0136 -0.0114 -0.9998
vn -0.0841 -0.0601 -0.9946
vn -0.0547 0.0154 -0.9984
vn -0.2933 -0.1480 -0.9445
vn -0.8719 -0.3753 0.3146
vn -0.7835 -0.5786 0.2266
vn -0.8632 -0.4624 0.2027
vn -0.8042 -0.5514 0.2219
vn -0.8709 -0.3425 0.3525
vn -0.5801 -0.8078 0.1043
vn -0.5696 -0.8212 -0.0361
vn -0.2777 -0.9572 0.0820
vn -0.2178 -0.9563 -0.1951
vn -0.4501 -0.6831 -0.5751
vn -0.2018 -0.6918 -0.6933
vn -0.4985 -0.5747 -0.6490
vn -0.3275 -0.6167 -0.7159
vn -0.4901 -0.6660 -0.5624
vn -0.2919 -0.7312 -0.6166
vn -0.0573 -0.8375 -0.5435
vn -0.0496 -0.9418 -0.3324
vn 0.1730 -0.9659 -0.1925
vn 0.1226 -0.9915 -0.0429
vn 0.1837 -0.9824 -0.0344
vn 0.2958 -0.9379 -0.1811
vn 0.3051 -0.9521 -0.0208
vn 0.2354 -0.8346 -0.4980
vn 0.0928 -0.7430 -0.6628
vn 0.0787 -0.6131 -0.7861
vn 0.1162 -0.5655 -0.8165
vn 0.1168 -0.8016 -0.5863
vn 0.1972 -0.9786 0.0581
vn 0.6827 -0.6833 -0.2588
vn 0.5401 -0.3487 -0.7660
vn 0.4705 -0.5442 -0.6946
vn 0.4638 -0.6857 -0.5610
vn 0.4542 -0.7590 -0.4666
vn 0.4064 -0.8939 -0.1891
vn 0.4245 -0.9045 -0.0411
vn 0.4830 -0.8745 -0.0447
vn 0.5271 -0.8059 -0.2696
vn 0.6512 -0.5594 -0.5128
vn 0.6515 -0.3638 -0.6657
vn 0.7736 -0.2146 -0.5963
vn 0.8471 -0.4940 -0.1959
vn 0.2985 -0.8936 0.3353
vn 0.5312 -0.5787 0.6188
vn 0.0066 -0.9812 0.1931
vn -0.0967 -0.8826 0.4600
vn 0.3379 -0.4967 0.7994
vn -0.2776 -0.9385 0.2054
vn -0.4900 -0.8387 0.2377
vn -0.4894 -0.8354 0.2503
vn -0.5810 -0.7808 0.2296
vn -0.5742 -0.7902 0.2142
vn -0.7247 -0.6624 0.1897
vn -0.7203 -0.6713 0.1746
vn -0.7370 -0.6650 0.1207
vn -0.7334 -0.6695 0.1182
vn -0.6965 -0.7059 0.1292
vn -0.7027 -0.6997 0.1290
vn -0.7957 -0.5957 0.1095
vn -0.7324 -0.6691 0.1264
vn -0.6459 -0.7372 0.1981
vn -0.4487 -0.8622 0.2352
vn -0.4824 -0.8471 0.2231
vn -0.3980 -0.9120 0.0989
vn -0.0560 -0.9953 0.0790
vn -0.3519 -0.9360 -0.0102
vn -0.2589 -0.9488 -0.1810
vn -0.4485 -0.8730 -0.1914
vn -0.5759 -0.8173 -0.0203
vn -0.8165 -0.5738 0.0633
vn -0.8879 -0.3658 0.2788
vn -0.8766 -0.3936 0.2770
vn -0.9538 -0.2456 0.1733
vn -0.8774 -0.4649 0.1185
vn -0.9217 -0.3703 0.1158
vn -0.7870 -0.6152 -0.0457
vn -0.9600 -0.2737 -0.0591
vn -0.9813 -0.1747 0.0805
vn -0.8593 -0.4797 0.1774
vn -0.8917 -0.4326 0.1332
vn -0.7684 -0.6140 0.1803
vn -0.7057 -0.6724 0.2233
vn -0.7993 -0.5655 0.2031
vn -0.7971 -0.5608 0.2238
vn -0.7952 -0.5714 0.2029
vn -0.7194 -0.6609 0.2135
vn -0.7155 -0.6634 0.2188
vn -0.8457 -0.5183 0.1272
vn -0.8797 -0.4593 0.1230
vn -0.9255 -0.3782 0.0210
vn -0.6821 -0.6856 -0.2544
vn -0.8237 -0.5636 0.0618
vn -0.8074 -0.5738 0.1374
vn -0.7134 -0.6688 0.2092
vn -0.8047 -0.5820 0.1170
vn -0.8024 -0.5769 0.1531
vn -0.7979 -0.5676 0.2030
vn -0.7937 -0.5647 0.2263
vn -0.7817 -0.5889 0.2052
vn -0.7777 -0.5841 0.2326
vn -0.7468 -0.5782 0.3286
vn -0.7528 -0.5936 0.2846
vn -0.7591 -0.6083 0.2317
vn -0.7778 -0.5932 0.2074
vn -0.7613 -0.6188 0.1939
vn -0.7954 -0.5714 0.2020
vn -0.7995 -0.5809 0.1527
vn -0.7997 -0.5886 0.1182
vn -0.8026 -0.5887 0.0965
vn -0.8069 -0.5821 0.1003
vn -0.8067 -0.5788 0.1196
vn -0.7681 -0.6274 0.1281
vn -0.7250 -0.6812 0.1018
vn -0.6214 -0.7689 -0.1507
vn -0.3572 -0.8923 -0.2761
vn -0.4123 -0.9076 -0.0788
vn -0.6403 -0.7534 0.1496
vn -0.6004 -0.7958 0.0793
vn -0.4855 -0.8692 -0.0934
vn -0.5982 -0.8013 -0.0050
vn -0.7020 -0.7021 0.1194
vn -0.7555 -0.6419 0.1314
vn -0.8113 -0.5709 0.1259
vn -0.8095 -0.5728 0.1287
vn -0.8111 -0.5765 0.0983
vn -0.8101 -0.5787 0.0940
vn -0.8120 -0.5776 0.0835
vn -0.8123 -0.5762 0.0903
vn -0.5909 -0.8065 -0.0201
vn -0.5626 -0.8160 0.1329
vn -0.6048 -0.7864 0.1258
vn -0.6523 -0.7480 0.1229
vn -0.5272 -0.8331 0.1672
vn -0.5409 -0.8099 0.2269
vn -0.4679 -0.8531 0.2308
vn -0.7249 -0.6536 0.2176
vn -0.6148 -0.7621 0.2029
vn -0.7302 -0.6725 0.1203
vn -0.7197 -0.6828 0.1254
vn -0.7184 -0.6839 0.1270
vn -0.8083 -0.5790 0.1072
vn -0.8111 -0.5751 0.1066
vn -0.8023 -0.5870 0.1082
vn -0.6602 -0.7373 0.1430
vn -0.6387 -0.7555 0.1458
vn -0.3482 -0.9205 0.1772
vn -0.3453 -0.9215 0.1775
vn -0.6349 -0.7586 0.1464
vn -0.6165 -0.7730 0.1494
vn -0.3340 -0.9258 0.1770
vn -0.3324 -0.9265 0.1764
vn -0.7374 -0.6399 0.2162
vn -0.6871 -0.6934 0.2172
vn -0.6786 -0.7010 0.2193
vn -0.6262 -0.7471 0.2230
vn -0.7343 -0.6435 0.2160
vn -0.5423 -0.8088 0.2273
vn -0.4906 -0.8539 0.1738
vn -0.7176 -0.6613 0.2182
vn -0.6857 -0.6944 0.2184
vn -0.6837 -0.6964 0.2182
vn -0.6229 -0.7496 0.2240
vn -0.6053 -0.7631 0.2265
vn -0.6025 -0.7647 0.2288
vn -0.7105 -0.6712 0.2113
vn -0.7126 -0.6685 0.2128
vn -0.7536 -0.6195 0.2200
vn -0.7305 -0.6505 0.2079
vn -0.7340 -0.6473 0.2054
vn -0.7550 -0.6178 0.2199
vn -0.7558 -0.6173 0.2184
vn -0.7536 -0.6201 0.2179
vn -0.7514 -0.6227 0.2185
vn -0.7534 -0.6198 0.2196
vn -0.7414 -0.6343 0.2189
vn -0.7422 -0.6341 0.2169
vn -0.5105 -0.8496 0.1323
vn -0.6771 -0.7140 0.1784
vn -0.5950 -0.7917 0.1385
vn -0.6554 -0.7361 0.1695
vn -0.6941 -0.6970 0.1800
vn -0.7063 -0.6823 0.1887
vn -0.6994 -0.6896 0.1878
vn -0.6754 -0.7143 0.1835
vn -0.6786 -0.7112 0.1835
vn -0.7231 -0.6635 0.1918
vn -0.7198 -0.6678 0.1896
vn -0.5679 -0.7916 0.2256
vn -0.5789 -0.7837 0.2249
vn -0.4046 -0.8851 0.2302
vn -0.4147 -0.8811 0.2275
vn -0.5963 -0.7705 0.2255
vn -0.4513 -0.8601 0.2377
vn -0.4542 -0.8603 0.2314
vn -0.6269 -0.7466 0.2228
vn -0.7320 -0.6544 0.1896
vn -0.6727 -0.7168 0.1835
vn -0.7007 -0.6879 0.1892
vn -0.7823 -0.5883 0.2047
vn -0.7122 -0.6757 0.1901
vn -0.8129 -0.5490 0.1944
vn -0.6709 -0.7254 0.1538
vn -0.6158 -0.7768 0.1318
vn -0.6458 -0.7561 0.1061
vn -0.6028 -0.7898 0.1135
vn -0.5657 -0.8130 0.1378
vn -0.7332 -0.6533 0.1886
vn -0.6660 -0.7232 0.1829
vn -0.8047 -0.5889 0.0756
vn -0.8005 -0.5930 0.0868
vn -0.7871 -0.5934 -0.1684
vn -0.7701 -0.6195 -0.1524
vn -0.7886 -0.6082 0.0900
vn -0.7816 -0.6113 0.1240
vn -0.7639 -0.6442 -0.0394
vn -0.7649 -0.6321 0.1239
vn -0.7812 -0.6041 0.1575
# 623 vertex normals

vt 0.4775 0.8290 0.0000
vt 0.5039 0.8641 0.0000
vt 0.5029 0.8646 0.0000
vt 0.4780 0.8284 0.0000
vt 0.4746 0.8269 0.0000
vt 0.5063 0.8624 0.0000
vt 0.4753 0.8263 0.0000
vt 0.4744 0.8241 0.0000
vt 0.4802 0.8264 0.0000
vt 0.5088 0.8607 0.0000
vt 0.4822 0.8245 0.0000
vt 0.5112 0.8588 0.0000
vt 0.4778 0.8243 0.0000
vt 0.4749 0.8237 0.0000
vt 0.4529 0.7960 0.0000
vt 0.4536 0.7953 0.0000
vt 0.4517 0.7944 0.0000
vt 0.4773 0.8223 0.0000
vt 0.4802 0.8225 0.0000
vt 0.4861 0.8207 0.0000
vt 0.5142 0.8569 0.0000
vt 0.4893 0.8181 0.0000
vt 0.5156 0.8561 0.0000
vt 0.4851 0.8187 0.0000
vt 0.4795 0.8208 0.0000
vt 0.4558 0.7931 0.0000
vt 0.4524 0.7937 0.0000
vt 0.4514 0.7928 0.0000
vt 0.4504 0.7935 0.0000
vt 0.4456 0.7892 0.0000
vt 0.4458 0.7885 0.0000
vt 0.4397 0.7855 0.0000
vt 0.4399 0.7847 0.0000
vt 0.4343 0.7823 0.0000
vt 0.4480 0.7852 0.0000
vt 0.4534 0.7904 0.0000
vt 0.4546 0.7915 0.0000
vt 0.4578 0.7909 0.0000
vt 0.4841 0.8175 0.0000
vt 0.4880 0.8164 0.0000
vt 0.4900 0.8175 0.0000
vt 0.4915 0.8166 0.0000
vt 0.5171 0.8555 0.0000
vt 0.5239 0.8523 0.0000
vt 0.4988 0.8121 0.0000
vt 0.5288 0.8494 0.0000
vt 0.5059 0.8077 0.0000
vt 0.5361 0.8452 0.0000
vt 0.4976 0.8110 0.0000
vt 0.4905 0.8149 0.0000
vt 0.4888 0.8159 0.0000
vt 0.4875 0.8153 0.0000
vt 0.4629 0.7859 0.0000
vt 0.4565 0.7893 0.0000
vt 0.4556 0.7881 0.0000
vt 0.4619 0.7844 0.0000
vt 0.4663 0.7836 0.0000
vt 0.4883 0.8147 0.0000
vt 0.4897 0.8138 0.0000
vt 0.4973 0.8094 0.0000
vt 0.5063 0.8062 0.0000
vt 0.5137 0.8038 0.0000
vt 0.5371 0.8446 0.0000
vt 0.5146 0.8030 0.0000
vt 0.5127 0.8025 0.0000
vt 0.5049 0.8048 0.0000
vt 0.4851 0.7715 0.0000
vt 0.4763 0.7765 0.0000
vt 0.4688 0.7816 0.0000
vt 0.4673 0.7830 0.0000
vt 0.4653 0.7821 0.0000
vt 0.4604 0.7830 0.0000
vt 0.4500 0.7822 0.0000
vt 0.4417 0.7809 0.0000
vt 0.4343 0.7814 0.0000
vt 0.4346 0.7766 0.0000
vt 0.4429 0.7775 0.0000
vt 0.4529 0.7755 0.0000
vt 0.4639 0.7805 0.0000
vt 0.4661 0.7815 0.0000
vt 0.4678 0.7800 0.0000
vt 0.4753 0.7749 0.0000
vt 0.4841 0.7699 0.0000
vt 0.4832 0.7681 0.0000
vt 0.4739 0.7732 0.0000
vt 0.4663 0.7784 0.0000
vt 0.4646 0.7799 0.0000
vt 0.4543 0.7709 0.0000
vt 0.4460 0.7703 0.0000
vt 0.4436 0.7687 0.0000
vt 0.4355 0.7729 0.0000
vt 0.4316 0.7758 0.0000
vt 0.4314 0.7806 0.0000
vt 0.4312 0.7817 0.0000
vt 0.4304 0.7848 0.0000
vt 0.4331 0.7860 0.0000
vt 0.4319 0.7881 0.0000
vt 0.4294 0.7867 0.0000
vt 0.4246 0.7836 0.0000
vt 0.4236 0.7860 0.0000
vt 0.4260 0.7800 0.0000
vt 0.4260 0.7791 0.0000
vt 0.4253 0.7799 0.0000
vt 0.4241 0.7834 0.0000
vt 0.4231 0.7859 0.0000
vt 0.4136 0.7826 0.0000
vt 0.4148 0.7791 0.0000
vt 0.4119 0.7789 0.0000
vt 0.4160 0.7767 0.0000
vt 0.4138 0.7772 0.0000
vt 0.4136 0.7765 0.0000
vt 0.4109 0.7773 0.0000
vt 0.4153 0.7762 0.0000
vt 0.4153 0.7755 0.0000
vt 0.4163 0.7761 0.0000
vt 0.4253 0.7789 0.0000
vt 0.4263 0.7748 0.0000
vt 0.4258 0.7748 0.0000
vt 0.4167 0.7738 0.0000
vt 0.4155 0.7736 0.0000
vt 0.4136 0.7733 0.0000
vt 0.4109 0.7726 0.0000
vt 0.4146 0.7706 0.0000
vt 0.4128 0.7686 0.0000
vt 0.4138 0.7677 0.0000
vt 0.4153 0.7699 0.0000
vt 0.4165 0.7684 0.0000
vt 0.4165 0.7646 0.0000
vt 0.4260 0.7656 0.0000
vt 0.4260 0.7623 0.0000
vt 0.4268 0.7655 0.0000
vt 0.4265 0.7625 0.0000
vt 0.4312 0.7637 0.0000
vt 0.4312 0.7659 0.0000
vt 0.4331 0.7640 0.0000
vt 0.4265 0.7700 0.0000
vt 0.4260 0.7700 0.0000
vt 0.4170 0.7711 0.0000
vt 0.4160 0.7714 0.0000
vt 0.4158 0.7719 0.0000
vt 0.4170 0.7719 0.0000
vt 0.4170 0.7716 0.0000
vt 0.4260 0.7709 0.0000
vt 0.4265 0.7708 0.0000
vt 0.4321 0.7700 0.0000
vt 0.4346 0.7662 0.0000
vt 0.4346 0.7634 0.0000
vt 0.4370 0.7644 0.0000
vt 0.4358 0.7620 0.0000
vt 0.4348 0.7704 0.0000
vt 0.4319 0.7712 0.0000
vt 0.4265 0.7717 0.0000
vt 0.4260 0.7716 0.0000
vt 0.4319 0.7723 0.0000
vt 0.4348 0.7720 0.0000
vt 0.4429 0.7681 0.0000
vt 0.4460 0.7631 0.0000
vt 0.4480 0.7651 0.0000
vt 0.4548 0.7698 0.0000
vt 0.4563 0.7682 0.0000
vt 0.4485 0.7642 0.0000
vt 0.4470 0.7623 0.0000
vt 0.4453 0.7623 0.0000
vt 0.4419 0.7671 0.0000
vt 0.4377 0.7616 0.0000
vt 0.4443 0.7614 0.0000
vt 0.4460 0.7611 0.0000
vt 0.4480 0.7594 0.0000
vt 0.4500 0.7622 0.0000
vt 0.4641 0.7605 0.0000
vt 0.4746 0.7545 0.0000
vt 0.4702 0.7446 0.0000
vt 0.4575 0.7527 0.0000
vt 0.4548 0.7498 0.0000
vt 0.4465 0.7574 0.0000
vt 0.4451 0.7598 0.0000
vt 0.4395 0.7532 0.0000
vt 0.4346 0.7570 0.0000
vt 0.4294 0.7592 0.0000
vt 0.4319 0.7642 0.0000
vt 0.4333 0.7557 0.0000
vt 0.4285 0.7581 0.0000
vt 0.4380 0.7520 0.0000
vt 0.4404 0.7509 0.0000
vt 0.4526 0.7473 0.0000
vt 0.4688 0.7415 0.0000
vt 0.4810 0.7388 0.0000
vt 0.4819 0.7417 0.0000
vt 0.4851 0.7502 0.0000
vt 0.4910 0.7644 0.0000
vt 0.4917 0.7664 0.0000
vt 0.4932 0.7634 0.0000
vt 0.4868 0.7493 0.0000
vt 0.4841 0.7412 0.0000
vt 0.4836 0.7383 0.0000
vt 0.4832 0.7361 0.0000
vt 0.4805 0.7363 0.0000
vt 0.4678 0.7380 0.0000
vt 0.4451 0.7393 0.0000
vt 0.4390 0.7495 0.0000
vt 0.4373 0.7511 0.0000
vt 0.4324 0.7550 0.0000
vt 0.4280 0.7574 0.0000
vt 0.4236 0.7500 0.0000
vt 0.4214 0.7538 0.0000
vt 0.4204 0.7533 0.0000
vt 0.4231 0.7498 0.0000
vt 0.4226 0.7495 0.0000
vt 0.4197 0.7527 0.0000
vt 0.4131 0.7459 0.0000
vt 0.4121 0.7498 0.0000
vt 0.4099 0.7463 0.0000
vt 0.4119 0.7441 0.0000
vt 0.4114 0.7429 0.0000
vt 0.4082 0.7439 0.0000
vt 0.4094 0.7361 0.0000
vt 0.4121 0.7375 0.0000
vt 0.4114 0.7346 0.0000
vt 0.4124 0.7368 0.0000
vt 0.4136 0.7356 0.0000
vt 0.4133 0.7319 0.0000
vt 0.4138 0.7385 0.0000
vt 0.4138 0.7393 0.0000
vt 0.4153 0.7388 0.0000
vt 0.4138 0.7422 0.0000
vt 0.4138 0.7429 0.0000
vt 0.4153 0.7439 0.0000
vt 0.4248 0.7461 0.0000
vt 0.4255 0.7461 0.0000
vt 0.4263 0.7463 0.0000
vt 0.4380 0.7488 0.0000
vt 0.4265 0.7446 0.0000
vt 0.4258 0.7446 0.0000
vt 0.4250 0.7444 0.0000
vt 0.4153 0.7429 0.0000
vt 0.4253 0.7393 0.0000
vt 0.4260 0.7393 0.0000
vt 0.4268 0.7390 0.0000
vt 0.4414 0.7373 0.0000
vt 0.4426 0.7383 0.0000
vt 0.4431 0.7366 0.0000
vt 0.4417 0.7356 0.0000
vt 0.4265 0.7383 0.0000
vt 0.4258 0.7383 0.0000
vt 0.4250 0.7385 0.0000
vt 0.4153 0.7380 0.0000
vt 0.4229 0.7339 0.0000
vt 0.4211 0.7305 0.0000
vt 0.4219 0.7300 0.0000
vt 0.4236 0.7336 0.0000
vt 0.4241 0.7334 0.0000
vt 0.4346 0.7295 0.0000
vt 0.4424 0.7349 0.0000
vt 0.4431 0.7339 0.0000
vt 0.4453 0.7351 0.0000
vt 0.4644 0.7258 0.0000
vt 0.4790 0.7280 0.0000
vt 0.4819 0.7285 0.0000
vt 0.4915 0.7341 0.0000
vt 0.4919 0.7366 0.0000
vt 0.4929 0.7402 0.0000
vt 0.4976 0.7488 0.0000
vt 0.4995 0.7400 0.0000
vt 0.4976 0.7363 0.0000
vt 0.4963 0.7336 0.0000
vt 0.4949 0.7280 0.0000
vt 0.4905 0.7278 0.0000
vt 0.4822 0.7268 0.0000
vt 0.4792 0.7261 0.0000
vt 0.4656 0.7229 0.0000
vt 0.4639 0.7224 0.0000
vt 0.4619 0.7236 0.0000
vt 0.4453 0.7329 0.0000
vt 0.4612 0.7227 0.0000
vt 0.4631 0.7212 0.0000
vt 0.4636 0.7207 0.0000
vt 0.4644 0.7207 0.0000
vt 0.4663 0.7214 0.0000
vt 0.4792 0.7249 0.0000
vt 0.4822 0.7256 0.0000
vt 0.4905 0.7266 0.0000
vt 0.4944 0.7268 0.0000
vt 0.4946 0.7263 0.0000
vt 0.4902 0.7258 0.0000
vt 0.4951 0.7175 0.0000
vt 0.4902 0.7151 0.0000
vt 0.4951 0.7166 0.0000
vt 0.4902 0.7146 0.0000
vt 0.4954 0.7153 0.0000
vt 0.4854 0.7129 0.0000
vt 0.4839 0.7122 0.0000
vt 0.4792 0.7092 0.0000
vt 0.4839 0.7117 0.0000
vt 0.4854 0.7124 0.0000
vt 0.4905 0.7141 0.0000
vt 0.4971 0.7063 0.0000
vt 0.4929 0.7041 0.0000
vt 0.4956 0.7021 0.0000
vt 0.4856 0.7119 0.0000
vt 0.4841 0.7112 0.0000
vt 0.4797 0.7087 0.0000
vt 0.4788 0.7085 0.0000
vt 0.4790 0.7080 0.0000
vt 0.4795 0.7078 0.0000
vt 0.4800 0.7083 0.0000
vt 0.4880 0.7041 0.0000
vt 0.4890 0.7046 0.0000
vt 0.4895 0.7034 0.0000
vt 0.4922 0.7021 0.0000
vt 0.4949 0.6990 0.0000
vt 0.4910 0.7012 0.0000
vt 0.4861 0.6943 0.0000
vt 0.4888 0.7029 0.0000
vt 0.4854 0.6982 0.0000
vt 0.4834 0.6951 0.0000
vt 0.4846 0.6982 0.0000
vt 0.4856 0.7009 0.0000
vt 0.4844 0.7019 0.0000
vt 0.4839 0.7014 0.0000
vt 0.4849 0.7007 0.0000
vt 0.4827 0.6985 0.0000
vt 0.4756 0.7036 0.0000
vt 0.4751 0.7039 0.0000
vt 0.4746 0.7041 0.0000
vt 0.4717 0.7002 0.0000
vt 0.4724 0.6997 0.0000
vt 0.4792 0.6956 0.0000
vt 0.4707 0.7007 0.0000
vt 0.4636 0.7097 0.0000
vt 0.4631 0.7031 0.0000
vt 0.4631 0.7097 0.0000
vt 0.4626 0.7031 0.0000
vt 0.4626 0.7021 0.0000
vt 0.4624 0.7036 0.0000
vt 0.4626 0.7100 0.0000
vt 0.4470 0.7100 0.0000
vt 0.4463 0.7107 0.0000
vt 0.4414 0.7141 0.0000
vt 0.4404 0.7146 0.0000
vt 0.4412 0.7134 0.0000
vt 0.4458 0.7104 0.0000
vt 0.4465 0.7097 0.0000
vt 0.4502 0.7046 0.0000
vt 0.4507 0.7051 0.0000
vt 0.4539 0.7007 0.0000
vt 0.4529 0.7004 0.0000
vt 0.4519 0.7002 0.0000
vt 0.4497 0.7043 0.0000
vt 0.4446 0.6953 0.0000
vt 0.4460 0.7092 0.0000
vt 0.4453 0.7100 0.0000
vt 0.4409 0.7129 0.0000
vt 0.4402 0.7139 0.0000
vt 0.4343 0.7156 0.0000
vt 0.4346 0.7161 0.0000
vt 0.4348 0.7285 0.0000
vt 0.4346 0.7292 0.0000
vt 0.4297 0.7261 0.0000
vt 0.4297 0.7256 0.0000
vt 0.4294 0.7253 0.0000
vt 0.4294 0.7173 0.0000
vt 0.4294 0.7163 0.0000
vt 0.4294 0.7153 0.0000
vt 0.4341 0.7151 0.0000
vt 0.4399 0.7134 0.0000
vt 0.4314 0.7051 0.0000
vt 0.4280 0.7068 0.0000
vt 0.4290 0.7026 0.0000
vt 0.4319 0.7031 0.0000
vt 0.4324 0.7024 0.0000
vt 0.4299 0.6997 0.0000
vt 0.4343 0.7034 0.0000
vt 0.4346 0.7043 0.0000
vt 0.4353 0.7041 0.0000
vt 0.4348 0.7026 0.0000
vt 0.4387 0.7017 0.0000
vt 0.4390 0.7012 0.0000
vt 0.4414 0.6980 0.0000
vt 0.4407 0.6948 0.0000
vt 0.4395 0.6975 0.0000
vt 0.4385 0.7000 0.0000
vt 0.4377 0.7004 0.0000
vt 0.4385 0.6980 0.0000
vt 0.4380 0.6941 0.0000
vt 0.4285 0.7256 0.0000
vt 0.4229 0.7295 0.0000
vt 0.5049 0.7478 0.0000
vt 0.5029 0.7604 0.0000
vt 0.5098 0.7579 0.0000
vt 0.4941 0.7654 0.0000
vt 0.5039 0.7618 0.0000
vt 0.5103 0.7592 0.0000
vt 0.5044 0.7637 0.0000
vt 0.5112 0.7610 0.0000
vt 0.4949 0.7670 0.0000
vt 0.4927 0.7679 0.0000
vt 0.5117 0.8010 0.0000
vt 0.5142 0.8015 0.0000
vt 0.5132 0.8000 0.0000
vt 0.5210 0.7959 0.0000
vt 0.5269 0.7928 0.0000
vt 0.5293 0.7946 0.0000
vt 0.5210 0.7983 0.0000
vt 0.5229 0.8002 0.0000
vt 0.5288 0.7983 0.0000
vt 0.5439 0.8408 0.0000
vt 0.5474 0.8389 0.0000
vt 0.9712 0.7183 0.0000
vt 0.9692 0.7126 0.0000
vt 0.9727 0.7126 0.0000
vt 0.9658 0.7178 0.0000
vt 0.9712 0.7249 0.0000
vt 0.9639 0.7144 0.0000
vt 0.9673 0.7114 0.0000
vt 0.9619 0.7107 0.0000
vt 0.9653 0.7085 0.0000
vt 0.9688 0.7100 0.0000
vt 0.9663 0.7068 0.0000
vt 0.9717 0.7068 0.0000
vt 0.9702 0.7046 0.0000
vt 0.9722 0.7065 0.0000
vt 0.9707 0.7043 0.0000
vt 0.9746 0.7019 0.0000
vt 0.9766 0.7024 0.0000
vt 0.9761 0.7009 0.0000
vt 0.9780 0.7009 0.0000
vt 0.9775 0.7000 0.0000
vt 0.9751 0.6995 0.0000
vt 0.9771 0.6985 0.0000
vt 0.9736 0.7004 0.0000
vt 0.9697 0.7026 0.0000
vt 0.9692 0.7029 0.0000
vt 0.9653 0.7046 0.0000
vt 0.9644 0.7051 0.0000
vt 0.9629 0.7041 0.0000
vt 0.9639 0.7024 0.0000
vt 0.9648 0.7026 0.0000
vt 0.9683 0.7012 0.0000
vt 0.9688 0.7009 0.0000
vt 0.9731 0.6992 0.0000
vt 0.9741 0.6985 0.0000
vt 0.9756 0.6970 0.0000
vt 0.9756 0.6965 0.0000
vt 0.9736 0.6973 0.0000
vt 0.9678 0.6995 0.0000
vt 0.9673 0.6995 0.0000
vt 0.9644 0.7007 0.0000
vt 0.9634 0.7002 0.0000
vt 0.9629 0.7026 0.0000
vt 0.9629 0.6997 0.0000
vt 0.9609 0.7036 0.0000
vt 0.9619 0.7017 0.0000
vt 0.9619 0.6995 0.0000
vt 0.9600 0.7024 0.0000
vt 0.9585 0.6973 0.0000
vt 0.9600 0.6968 0.0000
vt 0.9595 0.6956 0.0000
vt 0.9580 0.6963 0.0000
vt 0.9590 0.6951 0.0000
vt 0.9575 0.6956 0.0000
vt 0.9556 0.6882 0.0000
vt 0.9546 0.6885 0.0000
vt 0.9551 0.6875 0.0000
vt 0.9541 0.6877 0.0000
vt 0.9551 0.6865 0.0000
vt 0.9502 0.6899 0.0000
vt 0.9521 0.6973 0.0000
vt 0.9521 0.6982 0.0000
vt 0.9521 0.6997 0.0000
vt 0.9517 0.7061 0.0000
vt 0.9556 0.7095 0.0000
vt 0.9585 0.7126 0.0000
vt 0.9541 0.7131 0.0000
vt 0.9531 0.7166 0.0000
vt 0.9595 0.7153 0.0000
vt 0.9609 0.7219 0.0000
vt 0.9668 0.7251 0.0000
vt 0.9717 0.7314 0.0000
vt 0.9688 0.7322 0.0000
vt 0.9717 0.7329 0.0000
vt 0.9629 0.7297 0.0000
vt 0.9556 0.7246 0.0000
vt 0.9595 0.7334 0.0000
vt 0.9644 0.7334 0.0000
vt 0.9648 0.7349 0.0000
vt 0.9692 0.7334 0.0000
vt 0.9717 0.7344 0.0000
vt 0.9692 0.7349 0.0000
vt 0.9746 0.7620 0.0000
vt 0.9717 0.7626 0.0000
vt 0.9751 0.7644 0.0000
vt 0.9648 0.7363 0.0000
vt 0.9604 0.7361 0.0000
vt 0.9600 0.7346 0.0000
vt 0.9551 0.7334 0.0000
vt 0.9541 0.7322 0.0000
vt 0.9497 0.7258 0.0000
vt 0.9521 0.7327 0.0000
vt 0.9531 0.7339 0.0000
vt 0.9556 0.7349 0.0000
vt 0.9614 0.7644 0.0000
vt 0.9658 0.7635 0.0000
vt 0.9692 0.7629 0.0000
vt 0.9722 0.7650 0.0000
vt 0.9756 0.7679 0.0000
vt 0.9727 0.7684 0.0000
vt 0.9805 0.8048 0.0000
vt 0.9790 0.8052 0.0000
vt 0.9771 0.8054 0.0000
vt 0.9707 0.7689 0.0000
vt 0.9751 0.8057 0.0000
vt 0.9697 0.7657 0.0000
vt 0.9668 0.7665 0.0000
vt 0.9624 0.7670 0.0000
vt 0.9595 0.7676 0.0000
vt 0.9590 0.7649 0.0000
vt 0.9531 0.7354 0.0000
vt 0.9453 0.7383 0.0000
vt 0.9448 0.7371 0.0000
vt 0.9482 0.7261 0.0000
vt 0.9473 0.7170 0.0000
vt 0.9492 0.7119 0.0000
vt 0.9468 0.7078 0.0000
vt 0.9463 0.7122 0.0000
vt 0.9458 0.7166 0.0000
vt 0.9414 0.7268 0.0000
vt 0.9429 0.7373 0.0000
vt 0.9434 0.7388 0.0000
vt 0.9438 0.7402 0.0000
vt 0.9458 0.7397 0.0000
vt 0.9526 0.7660 0.0000
vt 0.9536 0.7686 0.0000
vt 0.9521 0.7687 0.0000
vt 0.9512 0.7661 0.0000
vt 0.9399 0.7268 0.0000
vt 0.9395 0.7183 0.0000
vt 0.9390 0.7141 0.0000
vt 0.9385 0.7114 0.0000
vt 0.9429 0.7029 0.0000
vt 0.9502 0.6987 0.0000
vt 0.9512 0.6985 0.0000
vt 0.9507 0.6980 0.0000
vt 0.9512 0.6975 0.0000
vt 0.9497 0.6902 0.0000
vt 0.9492 0.6892 0.0000
vt 0.9502 0.6890 0.0000
vt 0.9497 0.6882 0.0000
vt 0.9492 0.6885 0.0000
vt 0.9536 0.6870 0.0000
vt 0.9517 0.6804 0.0000
vt 0.9507 0.6807 0.0000
vt 0.9512 0.6790 0.0000
vt 0.9502 0.6792 0.0000
vt 0.9473 0.6819 0.0000
vt 0.9463 0.6821 0.0000
vt 0.9468 0.6804 0.0000
vt 0.9458 0.6807 0.0000
vt 0.9497 0.6982 0.0000
vt 0.9468 0.6904 0.0000
vt 0.9458 0.6909 0.0000
vt 0.9463 0.6895 0.0000
vt 0.9438 0.7007 0.0000
vt 0.9434 0.7014 0.0000
vt 0.9424 0.7019 0.0000
vt 0.9429 0.7009 0.0000
vt 0.9404 0.6926 0.0000
vt 0.9414 0.6924 0.0000
vt 0.9453 0.6899 0.0000
vt 0.9409 0.6914 0.0000
vt 0.9399 0.6919 0.0000
vt 0.9399 0.6909 0.0000
vt 0.9409 0.6907 0.0000
vt 0.9375 0.6851 0.0000
vt 0.9448 0.6890 0.0000
vt 0.9458 0.6887 0.0000
vt 0.9434 0.6826 0.0000
vt 0.9424 0.6829 0.0000
vt 0.9424 0.6814 0.0000
vt 0.9414 0.6816 0.0000
vt 0.9385 0.6846 0.0000
vt 0.9375 0.6836 0.0000
vt 0.9385 0.6831 0.0000
vt 0.9414 0.7021 0.0000
vt 0.9419 0.7014 0.0000
vt 0.9365 0.7063 0.0000
vt 0.9360 0.7053 0.0000
vt 0.9409 0.7019 0.0000
vt 0.9390 0.6943 0.0000
vt 0.9395 0.6941 0.0000
vt 0.9385 0.6934 0.0000
vt 0.9395 0.6931 0.0000
vt 0.9380 0.6926 0.0000
vt 0.9390 0.6921 0.0000
vt 0.9360 0.6870 0.0000
vt 0.9370 0.6868 0.0000
vt 0.9360 0.6855 0.0000
vt 0.9351 0.6858 0.0000
vt 0.9321 0.6885 0.0000
vt 0.9321 0.6870 0.0000
vt 0.9312 0.6873 0.0000
vt 0.9312 0.6890 0.0000
vt 0.9341 0.6946 0.0000
vt 0.9341 0.6956 0.0000
vt 0.9346 0.6965 0.0000
vt 0.9360 0.7048 0.0000
vt 0.9336 0.6970 0.0000
vt 0.9346 0.7056 0.0000
vt 0.9346 0.7058 0.0000
vt 0.9351 0.7070 0.0000
vt 0.9365 0.7124 0.0000
vt 0.9370 0.7148 0.0000
vt 0.9380 0.7185 0.0000
vt 0.9326 0.6951 0.0000
vt 0.9331 0.6960 0.0000
vt 0.9531 0.7721 0.0000
vt 0.9546 0.7720 0.0000
vt 0.9644 0.8074 0.0000
vt 0.9648 0.8073 0.0000
vt 0.9600 0.7709 0.0000
vt 0.9634 0.7703 0.0000
vt 0.9678 0.8066 0.0000
vt 0.9727 0.8059 0.0000
vt 0.9678 0.7694 0.0000
# 623 texture coords

o Brazoizquierdo
g Brazoizquierdo
usemtl Phineas_4_model__001
s 1
f 1/1/1 2/2/2 3/3/3 
f 2/2/2 1/1/1 4/4/4 
f 4/4/4 1/1/1 5/5/5 
f 2/2/2 4/4/4 6/6/6 
f 4/4/4 5/5/5 7/7/7 
f 7/7/7 5/5/5 8/8/8 
f 4/4/4 7/7/7 9/9/9 
f 4/4/4 9/9/9 6/6/6 
f 9/9/9 10/10/10 6/6/6 
f 10/10/10 9/9/9 11/11/11 
f 10/10/10 11/11/11 12/12/12 
f 11/11/11 9/9/9 13/13/13 
f 13/13/13 9/9/9 7/7/7 
f 13/13/13 7/7/7 14/14/14 
f 14/14/14 7/7/7 8/8/8 
f 14/14/14 8/8/8 15/15/15 
f 14/14/14 15/15/15 16/16/16 
f 15/15/15 17/17/17 16/16/16 
f 14/14/14 16/16/16 18/18/18 
f 14/14/14 18/18/18 13/13/13 
f 18/18/18 19/19/19 13/13/13 
f 19/19/19 11/11/11 13/13/13 
f 11/11/11 19/19/19 20/20/20 
f 11/11/11 20/20/20 12/12/12 
f 12/12/12 20/20/20 21/21/21 
f 21/21/21 20/20/20 22/22/22 
f 21/21/21 22/22/22 23/23/23 
f 20/20/20 24/24/24 22/22/22 
f 24/24/24 20/20/20 19/19/19 
f 24/24/24 19/19/19 25/25/25 
f 25/25/25 19/19/19 18/18/18 
f 25/25/25 18/18/18 26/26/26 
f 18/18/18 16/16/16 26/26/26 
f 16/16/16 27/27/27 26/26/26 
f 27/27/27 16/16/16 17/17/17 
f 27/27/27 17/17/17 28/28/28 
f 28/28/28 17/17/17 29/29/29 
f 28/28/28 29/29/29 30/30/30 
f 28/28/28 30/30/30 31/31/31 
f 30/30/30 32/32/32 31/31/31 
f 31/31/31 32/32/32 33/33/33 
f 33/33/33 32/32/32 34/34/34 
f 31/31/31 33/33/33 35/35/35 
f 31/31/31 35/35/35 36/36/36 
f 31/31/31 36/36/36 28/28/28 
f 36/36/36 37/37/37 28/28/28 
f 28/28/28 37/37/37 27/27/27 
f 27/27/27 37/37/37 26/26/26 
f 26/26/26 37/37/37 38/38/38 
f 26/26/26 38/38/38 25/25/25 
f 25/25/25 38/38/38 39/39/39 
f 25/25/25 39/39/39 24/24/24 
f 24/24/24 39/39/39 40/40/40 
f 24/24/24 40/40/40 22/22/22 
f 40/40/40 41/41/41 22/22/22 
f 41/41/41 23/23/23 22/22/22 
f 23/23/23 41/41/41 42/42/42 
f 23/23/23 42/42/42 43/43/43 
f 43/43/43 42/42/42 44/44/44 
f 44/44/44 42/42/42 45/45/45 
f 44/44/44 45/45/45 46/46/46 
f 46/46/46 45/45/45 47/47/47 
f 46/46/46 47/47/47 48/48/48 
f 47/47/47 45/45/45 49/49/49 
f 45/45/45 42/42/42 49/49/49 
f 49/49/49 42/42/42 50/50/50 
f 50/50/50 42/42/42 41/41/41 
f 50/50/50 41/41/41 51/51/51 
f 51/51/51 41/41/41 40/40/40 
f 51/51/51 40/40/40 52/52/52 
f 40/40/40 39/39/39 52/52/52 
f 52/52/52 39/39/39 53/53/53 
f 39/39/39 38/38/38 53/53/53 
f 38/38/38 54/54/54 53/53/53 
f 54/54/54 38/38/38 37/37/37 
f 54/54/54 37/37/37 36/36/36 
f 54/54/54 36/36/36 55/55/55 
f 55/55/55 36/36/36 35/35/35 
f 54/54/54 55/55/55 56/56/56 
f 54/54/54 56/56/56 53/53/53 
f 56/56/56 57/57/57 53/53/53 
f 57/57/57 52/52/52 53/53/53 
f 52/52/52 57/57/57 58/58/58 
f 52/52/52 58/58/58 51/51/51 
f 58/58/58 59/59/59 51/51/51 
f 51/51/51 59/59/59 50/50/50 
f 59/59/59 60/60/60 50/50/50 
f 50/50/50 60/60/60 49/49/49 
f 60/60/60 61/61/61 49/49/49 
f 61/61/61 47/47/47 49/49/49 
f 47/47/47 61/61/61 62/62/62 
f 47/47/47 62/62/62 48/48/48 
f 62/62/62 63/63/63 48/48/48 
f 63/63/63 62/62/62 64/64/64 
f 64/64/64 62/62/62 65/65/65 
f 65/65/65 62/62/62 61/61/61 
f 65/65/65 61/61/61 66/66/66 
f 66/66/66 61/61/61 60/60/60 
f 66/66/66 60/60/60 67/67/67 
f 67/67/67 60/60/60 68/68/68 
f 60/60/60 59/59/59 68/68/68 
f 68/68/68 59/59/59 69/69/69 
f 59/59/59 58/58/58 69/69/69 
f 69/69/69 58/58/58 70/70/70 
f 58/58/58 57/57/57 70/70/70 
f 57/57/57 71/71/71 70/70/70 
f 71/71/71 57/57/57 56/56/56 
f 71/71/71 56/56/56 72/72/72 
f 72/72/72 56/56/56 55/55/55 
f 72/72/72 55/55/55 73/73/73 
f 73/73/73 55/55/55 35/35/35 
f 73/73/73 35/35/35 74/74/74 
f 35/35/35 33/33/33 74/74/74 
f 33/33/33 75/75/75 74/74/74 
f 75/75/75 33/33/33 34/34/34 
f 74/74/74 75/75/75 76/76/76 
f 74/74/74 76/76/76 77/77/77 
f 74/74/74 77/77/77 73/73/73 
f 73/73/73 77/77/77 78/78/78 
f 73/73/73 78/78/78 72/72/72 
f 78/78/78 79/79/79 72/72/72 
f 79/79/79 71/71/71 72/72/72 
f 71/71/71 79/79/79 80/80/80 
f 71/71/71 80/80/80 70/70/70 
f 70/70/70 80/80/80 69/69/69 
f 69/69/69 80/80/80 81/81/81 
f 69/69/69 81/81/81 82/82/82 
f 69/69/69 82/82/82 68/68/68 
f 68/68/68 82/82/82 83/83/83 
f 68/68/68 83/83/83 67/67/67 
f 82/82/82 84/84/84 83/83/83 
f 84/84/84 82/82/82 85/85/85 
f 85/85/85 82/82/82 81/81/81 
f 85/85/85 81/81/81 86/86/86 
f 86/86/86 81/81/81 80/80/80 
f 86/86/86 80/80/80 87/87/87 
f 87/87/87 80/80/80 79/79/79 
f 87/87/87 79/79/79 88/88/88 
f 88/88/88 79/79/79 78/78/78 
f 88/88/88 78/78/78 89/89/89 
f 78/78/78 77/77/77 89/89/89 
f 77/77/77 90/90/90 89/89/89 
f 90/90/90 77/77/77 91/91/91 
f 91/91/91 77/77/77 76/76/76 
f 91/91/91 76/76/76 92/92/92 
f 92/92/92 76/76/76 93/93/93 
f 93/93/93 76/76/76 75/75/75 
f 93/93/93 75/75/75 94/94/94 
f 94/94/94 75/75/75 34/34/34 
f 94/94/94 34/34/34 95/95/95 
f 95/95/95 34/34/34 96/96/96 
f 95/95/95 96/96/96 97/97/97 
f 95/95/95 97/97/97 98/98/98 
f 95/95/95 98/98/98 99/99/99 
f 99/99/99 98/98/98 100/100/100 
f 95/95/95 99/99/99 101/101/101 
f 95/95/95 101/101/101 94/94/94 
f 101/101/101 93/93/93 94/94/94 
f 93/93/93 101/101/101 102/102/102 
f 93/93/93 102/102/102 92/92/92 
f 102/102/102 101/101/101 103/103/103 
f 103/103/103 101/101/101 99/99/99 
f 103/103/103 99/99/99 104/104/104 
f 99/99/99 100/100/100 104/104/104 
f 104/104/104 100/100/100 105/105/105 
f 104/104/104 105/105/105 106/106/106 
f 104/104/104 106/106/106 107/107/107 
f 104/104/104 107/107/107 103/103/103 
f 106/106/106 108/108/108 107/107/107 
f 103/103/103 107/107/107 109/109/109 
f 107/107/107 108/108/108 110/110/110 
f 109/109/109 107/107/107 110/110/110 
f 108/108/108 111/111/111 110/110/110 
f 111/111/111 108/108/108 112/112/112 
f 110/110/110 111/111/111 113/113/113 
f 110/110/110 113/113/113 109/109/109 
f 113/113/113 111/111/111 114/114/114 
f 109/109/109 113/113/113 115/115/115 
f 114/114/114 115/115/115 113/113/113 
f 109/109/109 115/115/115 116/116/116 
f 109/109/109 116/116/116 103/103/103 
f 116/116/116 102/102/102 103/103/103 
f 102/102/102 116/116/116 117/117/117 
f 102/102/102 117/117/117 92/92/92 
f 117/117/117 116/116/116 118/118/118 
f 116/116/116 115/115/115 118/118/118 
f 118/118/118 115/115/115 119/119/119 
f 119/119/119 115/115/115 114/114/114 
f 119/119/119 114/114/114 120/120/120 
f 114/114/114 121/121/121 120/120/120 
f 121/121/121 114/114/114 111/111/111 
f 121/121/121 111/111/111 112/112/112 
f 121/121/121 112/112/112 122/122/122 
f 121/121/121 122/122/122 123/123/123 
f 123/123/123 122/122/122 124/124/124 
f 123/123/123 124/124/124 125/125/125 
f 123/123/123 125/125/125 126/126/126 
f 126/126/126 125/125/125 127/127/127 
f 127/127/127 125/125/125 128/128/128 
f 127/127/127 128/128/128 129/129/129 
f 129/129/129 128/128/128 130/130/130 
f 129/129/129 130/130/130 131/131/131 
f 131/131/131 130/130/130 132/132/132 
f 131/131/131 132/132/132 133/133/133 
f 131/131/131 133/133/133 134/134/134 
f 134/134/134 133/133/133 135/135/135 
f 131/131/131 134/134/134 136/136/136 
f 131/131/131 136/136/136 129/129/129 
f 129/129/129 136/136/136 137/137/137 
f 129/129/129 137/137/137 127/127/127 
f 127/127/127 137/137/137 138/138/138 
f 127/127/127 138/138/138 126/126/126 
f 126/126/126 138/138/138 139/139/139 
f 126/126/126 139/139/139 123/123/123 
f 123/123/123 139/139/139 140/140/140 
f 123/123/123 140/140/140 121/121/121 
f 121/121/121 140/140/140 120/120/120 
f 140/140/140 119/119/119 120/120/120 
f 119/119/119 140/140/140 141/141/141 
f 119/119/119 141/141/141 118/118/118 
f 140/140/140 142/142/142 141/141/141 
f 142/142/142 140/140/140 139/139/139 
f 142/142/142 139/139/139 138/138/138 
f 142/142/142 138/138/138 143/143/143 
f 143/143/143 138/138/138 137/137/137 
f 143/143/143 137/137/137 144/144/144 
f 144/144/144 137/137/137 136/136/136 
f 144/144/144 136/136/136 145/145/145 
f 136/136/136 134/134/134 145/145/145 
f 134/134/134 146/146/146 145/145/145 
f 146/146/146 134/134/134 135/135/135 
f 146/146/146 135/135/135 147/147/147 
f 146/146/146 147/147/147 148/148/148 
f 148/148/148 147/147/147 149/149/149 
f 146/146/146 148/148/148 150/150/150 
f 146/146/146 150/150/150 145/145/145 
f 145/145/145 150/150/150 151/151/151 
f 145/145/145 151/151/151 144/144/144 
f 144/144/144 151/151/151 152/152/152 
f 144/144/144 152/152/152 143/143/143 
f 143/143/143 152/152/152 153/153/153 
f 143/143/143 153/153/153 142/142/142 
f 142/142/142 153/153/153 141/141/141 
f 141/141/141 153/153/153 118/118/118 
f 153/153/153 152/152/152 118/118/118 
f 118/118/118 152/152/152 117/117/117 
f 152/152/152 154/154/154 117/117/117 
f 154/154/154 152/152/152 151/151/151 
f 117/117/117 154/154/154 92/92/92 
f 154/154/154 91/91/91 92/92/92 
f 91/91/91 154/154/154 155/155/155 
f 155/155/155 154/154/154 151/151/151 
f 155/155/155 151/151/151 150/150/150 
f 155/155/155 150/150/150 156/156/156 
f 155/155/155 156/156/156 91/91/91 
f 91/91/91 156/156/156 90/90/90 
f 156/156/156 157/157/157 90/90/90 
f 90/90/90 157/157/157 158/158/158 
f 90/90/90 158/158/158 89/89/89 
f 89/89/89 158/158/158 88/88/88 
f 88/88/88 158/158/158 159/159/159 
f 88/88/88 159/159/159 87/87/87 
f 159/159/159 86/86/86 87/87/87 
f 86/86/86 159/159/159 160/160/160 
f 160/160/160 159/159/159 161/161/161 
f 159/159/159 158/158/158 161/161/161 
f 158/158/158 157/157/157 161/161/161 
f 161/161/161 157/157/157 162/162/162 
f 157/157/157 163/163/163 162/162/162 
f 163/163/163 157/157/157 156/156/156 
f 163/163/163 156/156/156 164/164/164 
f 156/156/156 150/150/150 164/164/164 
f 150/150/150 148/148/148 164/164/164 
f 148/148/148 165/165/165 164/164/164 
f 165/165/165 148/148/148 149/149/149 
f 164/164/164 165/165/165 166/166/166 
f 164/164/164 166/166/166 163/163/163 
f 166/166/166 167/167/167 163/163/163 
f 163/163/163 167/167/167 162/162/162 
f 162/162/162 167/167/167 168/168/168 
f 162/162/162 168/168/168 169/169/169 
f 162/162/162 169/169/169 161/161/161 
f 169/169/169 160/160/160 161/161/161 
f 160/160/160 169/169/169 170/170/170 
f 160/160/160 170/170/170 86/86/86 
f 86/86/86 170/170/170 85/85/85 
f 170/170/170 171/171/171 85/85/85 
f 85/85/85 171/171/171 84/84/84 
f 171/171/171 170/170/170 172/172/172 
f 172/172/172 170/170/170 173/173/173 
f 173/173/173 170/170/170 169/169/169 
f 173/173/173 169/169/169 168/168/168 
f 173/173/173 168/168/168 174/174/174 
f 173/173/173 174/174/174 172/172/172 
f 168/168/168 175/175/175 174/174/174 
f 175/175/175 168/168/168 176/176/176 
f 176/176/176 168/168/168 167/167/167 
f 176/176/176 167/167/167 166/166/166 
f 176/176/176 166/166/166 177/177/177 
f 166/166/166 165/165/165 177/177/177 
f 176/176/176 177/177/177 175/175/175 
f 177/177/177 165/165/165 178/178/178 
f 178/178/178 165/165/165 149/149/149 
f 178/178/178 149/149/149 179/179/179 
f 179/179/179 149/149/149 180/180/180 
f 178/178/178 179/179/179 181/181/181 
f 181/181/181 179/179/179 182/182/182 
f 178/178/178 181/181/181 183/183/183 
f 178/178/178 183/183/183 177/177/177 
f 183/183/183 184/184/184 177/177/177 
f 177/177/177 184/184/184 175/175/175 
f 175/175/175 184/184/184 185/185/185 
f 175/175/175 185/185/185 174/174/174 
f 174/174/174 185/185/185 186/186/186 
f 174/174/174 186/186/186 172/172/172 
f 186/186/186 187/187/187 172/172/172 
f 172/172/172 187/187/187 188/188/188 
f 172/172/172 188/188/188 171/171/171 
f 171/171/171 188/188/188 189/189/189 
f 171/171/171 189/189/189 84/84/84 
f 84/84/84 189/189/189 190/190/190 
f 84/84/84 190/190/190 83/83/83 
f 83/83/83 190/190/190 191/191/191 
f 83/83/83 191/191/191 67/67/67 
f 190/190/190 192/192/192 191/191/191 
f 192/192/192 190/190/190 193/193/193 
f 193/193/193 190/190/190 189/189/189 
f 193/193/193 189/189/189 194/194/194 
f 194/194/194 189/189/189 188/188/188 
f 194/194/194 188/188/188 195/195/195 
f 195/195/195 188/188/188 187/187/187 
f 195/195/195 187/187/187 196/196/196 
f 196/196/196 187/187/187 197/197/197 
f 187/187/187 186/186/186 197/197/197 
f 197/197/197 186/186/186 198/198/198 
f 186/186/186 185/185/185 198/198/198 
f 185/185/185 199/199/199 198/198/198 
f 199/199/199 185/185/185 184/184/184 
f 199/199/199 184/184/184 200/200/200 
f 200/200/200 184/184/184 183/183/183 
f 200/200/200 183/183/183 201/201/201 
f 201/201/201 183/183/183 181/181/181 
f 201/201/201 181/181/181 202/202/202 
f 181/181/181 182/182/182 202/202/202 
f 202/202/202 182/182/182 203/203/203 
f 202/202/202 203/203/203 204/204/204 
f 204/204/204 203/203/203 205/205/205 
f 204/204/204 205/205/205 206/206/206 
f 204/204/204 206/206/206 207/207/207 
f 207/207/207 206/206/206 208/208/208 
f 208/208/208 206/206/206 209/209/209 
f 208/208/208 209/209/209 210/210/210 
f 210/210/210 209/209/209 211/211/211 
f 210/210/210 211/211/211 212/212/212 
f 210/210/210 212/212/212 213/213/213 
f 213/213/213 212/212/212 214/214/214 
f 214/214/214 212/212/212 215/215/215 
f 214/214/214 215/215/215 216/216/216 
f 214/214/214 216/216/216 217/217/217 
f 217/217/217 216/216/216 218/218/218 
f 217/217/217 218/218/218 219/219/219 
f 219/219/219 218/218/218 220/220/220 
f 220/220/220 218/218/218 221/221/221 
f 219/219/219 220/220/220 222/222/222 
f 219/219/219 222/222/222 217/217/217 
f 217/217/217 222/222/222 223/223/223 
f 217/217/217 223/223/223 214/214/214 
f 223/223/223 222/222/222 224/224/224 
f 214/214/214 223/223/223 225/225/225 
f 224/224/224 225/225/225 223/223/223 
f 214/214/214 225/225/225 226/226/226 
f 214/214/214 226/226/226 213/213/213 
f 213/213/213 226/226/226 210/210/210 
f 210/210/210 226/226/226 227/227/227 
f 210/210/210 227/227/227 208/208/208 
f 208/208/208 227/227/227 228/228/228 
f 208/208/208 228/228/228 207/207/207 
f 207/207/207 228/228/228 229/229/229 
f 207/207/207 229/229/229 204/204/204 
f 204/204/204 229/229/229 230/230/230 
f 204/204/204 230/230/230 202/202/202 
f 202/202/202 230/230/230 201/201/201 
f 230/230/230 231/231/231 201/201/201 
f 201/201/201 231/231/231 200/200/200 
f 231/231/231 230/230/230 232/232/232 
f 230/230/230 229/229/229 232/232/232 
f 232/232/232 229/229/229 233/233/233 
f 229/229/229 228/228/228 233/233/233 
f 233/233/233 228/228/228 234/234/234 
f 228/228/228 227/227/227 234/234/234 
f 234/234/234 227/227/227 235/235/235 
f 227/227/227 226/226/226 235/235/235 
f 235/235/235 226/226/226 225/225/225 
f 235/235/235 225/225/225 224/224/224 
f 235/235/235 224/224/224 236/236/236 
f 235/235/235 236/236/236 234/234/234 
f 234/234/234 236/236/236 237/237/237 
f 234/234/234 237/237/237 233/233/233 
f 233/233/233 237/237/237 238/238/238 
f 233/233/233 238/238/238 232/232/232 
f 238/238/238 239/239/239 232/232/232 
f 232/232/232 239/239/239 231/231/231 
f 239/239/239 240/240/240 231/231/231 
f 231/231/231 240/240/240 200/200/200 
f 240/240/240 199/199/199 200/200/200 
f 199/199/199 240/240/240 241/241/241 
f 240/240/240 239/239/239 241/241/241 
f 241/241/241 239/239/239 242/242/242 
f 242/242/242 239/239/239 238/238/238 
f 242/242/242 238/238/238 243/243/243 
f 238/238/238 244/244/244 243/243/243 
f 244/244/244 238/238/238 237/237/237 
f 244/244/244 237/237/237 236/236/236 
f 244/244/244 236/236/236 245/245/245 
f 236/236/236 224/224/224 245/245/245 
f 245/245/245 224/224/224 246/246/246 
f 224/224/224 222/222/222 246/246/246 
f 222/222/222 220/220/220 246/246/246 
f 220/220/220 247/247/247 246/246/246 
f 246/246/246 247/247/247 245/245/245 
f 220/220/220 221/221/221 247/247/247 
f 247/247/247 221/221/221 248/248/248 
f 247/247/247 248/248/248 249/249/249 
f 247/247/247 249/249/249 250/250/250 
f 247/247/247 250/250/250 245/245/245 
f 245/245/245 250/250/250 244/244/244 
f 250/250/250 251/251/251 244/244/244 
f 244/244/244 251/251/251 243/243/243 
f 250/250/250 249/249/249 251/251/251 
f 243/243/243 251/251/251 252/252/252 
f 243/243/243 252/252/252 242/242/242 
f 252/252/252 253/253/253 242/242/242 
f 242/242/242 253/253/253 241/241/241 
f 241/241/241 253/253/253 254/254/254 
f 241/241/241 254/254/254 255/255/255 
f 241/241/241 255/255/255 199/199/199 
f 199/199/199 255/255/255 256/256/256 
f 199/199/199 256/256/256 198/198/198 
f 198/198/198 256/256/256 257/257/257 
f 198/198/198 257/257/257 197/197/197 
f 197/197/197 257/257/257 258/258/258 
f 197/197/197 258/258/258 196/196/196 
f 196/196/196 258/258/258 259/259/259 
f 196/196/196 259/259/259 195/195/195 
f 195/195/195 259/259/259 260/260/260 
f 195/195/195 260/260/260 194/194/194 
f 194/194/194 260/260/260 261/261/261 
f 194/194/194 261/261/261 193/193/193 
f 193/193/193 261/261/261 262/262/262 
f 193/193/193 262/262/262 192/192/192 
f 261/261/261 263/263/263 262/262/262 
f 263/263/263 261/261/261 264/264/264 
f 264/264/264 261/261/261 260/260/260 
f 264/264/264 260/260/260 265/265/265 
f 265/265/265 260/260/260 259/259/259 
f 265/265/265 259/259/259 266/266/266 
f 266/266/266 259/259/259 267/267/267 
f 259/259/259 258/258/258 267/267/267 
f 267/267/267 258/258/258 268/268/268 
f 258/258/258 257/257/257 268/268/268 
f 268/268/268 257/257/257 269/269/269 
f 257/257/257 270/270/270 269/269/269 
f 270/270/270 257/257/257 256/256/256 
f 270/270/270 256/256/256 271/271/271 
f 271/271/271 256/256/256 272/272/272 
f 256/256/256 255/255/255 272/272/272 
f 255/255/255 273/273/273 272/272/272 
f 273/273/273 255/255/255 254/254/254 
f 272/272/272 273/273/273 274/274/274 
f 272/272/272 274/274/274 275/275/275 
f 272/272/272 275/275/275 271/271/271 
f 275/275/275 276/276/276 271/271/271 
f 271/271/271 276/276/276 277/277/277 
f 271/271/271 277/277/277 270/270/270 
f 270/270/270 277/277/277 278/278/278 
f 270/270/270 278/278/278 269/269/269 
f 269/269/269 278/278/278 279/279/279 
f 269/269/269 279/279/279 280/280/280 
f 269/269/269 280/280/280 268/268/268 
f 280/280/280 281/281/281 268/268/268 
f 281/281/281 267/267/267 268/268/268 
f 267/267/267 281/281/281 282/282/282 
f 267/267/267 282/282/282 266/266/266 
f 281/281/281 283/283/283 282/282/282 
f 283/283/283 281/281/281 284/284/284 
f 284/284/284 281/281/281 280/280/280 
f 283/283/283 284/284/284 285/285/285 
f 284/284/284 280/280/280 286/286/286 
f 285/285/285 284/284/284 286/286/286 
f 285/285/285 286/286/286 287/287/287 
f 287/287/287 286/286/286 288/288/288 
f 287/287/287 288/288/288 289/289/289 
f 286/286/286 290/290/290 288/288/288 
f 290/290/290 286/286/286 280/280/280 
f 290/290/290 280/280/280 279/279/279 
f 290/290/290 279/279/279 291/291/291 
f 291/291/291 279/279/279 278/278/278 
f 291/291/291 278/278/278 292/292/292 
f 292/292/292 278/278/278 277/277/277 
f 291/291/291 292/292/292 293/293/293 
f 291/291/291 293/293/293 294/294/294 
f 291/291/291 294/294/294 290/290/290 
f 290/290/290 294/294/294 288/288/288 
f 288/288/288 294/294/294 295/295/295 
f 288/288/288 295/295/295 289/289/289 
f 295/295/295 296/296/296 289/289/289 
f 296/296/296 295/295/295 297/297/297 
f 296/296/296 297/297/297 298/298/298 
f 295/295/295 299/299/299 297/297/297 
f 299/299/299 295/295/295 294/294/294 
f 299/299/299 294/294/294 293/293/293 
f 299/299/299 293/293/293 300/300/300 
f 300/300/300 293/293/293 301/301/301 
f 293/293/293 292/292/292 301/301/301 
f 292/292/292 302/302/302 301/301/301 
f 302/302/302 292/292/292 277/277/277 
f 301/301/301 302/302/302 303/303/303 
f 301/301/301 303/303/303 304/304/304 
f 301/301/301 304/304/304 305/305/305 
f 301/301/301 305/305/305 300/300/300 
f 305/305/305 306/306/306 300/300/300 
f 306/306/306 307/307/307 300/300/300 
f 300/300/300 307/307/307 299/299/299 
f 299/299/299 307/307/307 297/297/297 
f 297/297/297 307/307/307 308/308/308 
f 308/308/308 307/307/307 306/306/306 
f 297/297/297 308/308/308 309/309/309 
f 297/297/297 309/309/309 298/298/298 
f 309/309/309 310/310/310 298/298/298 
f 310/310/310 309/309/309 311/311/311 
f 309/309/309 308/308/308 311/311/311 
f 310/310/310 311/311/311 312/312/312 
f 311/311/311 308/308/308 313/313/313 
f 313/313/313 308/308/308 306/306/306 
f 311/311/311 313/313/313 314/314/314 
f 311/311/311 314/314/314 312/312/312 
f 314/314/314 315/315/315 312/312/312 
f 315/315/315 314/314/314 316/316/316 
f 316/316/316 314/314/314 317/317/317 
f 314/314/314 313/313/313 317/317/317 
f 317/317/317 313/313/313 306/306/306 
f 317/317/317 306/306/306 318/318/318 
f 318/318/318 306/306/306 305/305/305 
f 318/318/318 305/305/305 304/304/304 
f 318/318/318 304/304/304 319/319/319 
f 318/318/318 319/319/319 320/320/320 
f 318/318/318 320/320/320 317/317/317 
f 320/320/320 316/316/316 317/317/317 
f 316/316/316 320/320/320 321/321/321 
f 316/316/316 321/321/321 315/315/315 
f 321/321/321 320/320/320 319/319/319 
f 321/321/321 319/319/319 304/304/304 
f 321/321/321 304/304/304 322/322/322 
f 322/322/322 304/304/304 323/323/323 
f 323/323/323 304/304/304 303/303/303 
f 323/323/323 303/303/303 302/302/302 
f 323/323/323 302/302/302 324/324/324 
f 324/324/324 302/302/302 277/277/277 
f 323/323/323 324/324/324 325/325/325 
f 323/323/323 325/325/325 326/326/326 
f 323/323/323 326/326/326 322/322/322 
f 322/322/322 326/326/326 327/327/327 
f 322/322/322 327/327/327 321/321/321 
f 321/321/321 327/327/327 315/315/315 
f 325/325/325 324/324/324 328/328/328 
f 324/324/324 329/329/329 328/328/328 
f 329/329/329 324/324/324 277/277/277 
f 328/328/328 329/329/329 330/330/330 
f 329/329/329 277/277/277 331/331/331 
f 331/331/331 277/277/277 276/276/276 
f 329/329/329 331/331/331 332/332/332 
f 329/329/329 332/332/332 330/330/330 
f 332/332/332 333/333/333 330/330/330 
f 333/333/333 332/332/332 334/334/334 
f 334/334/334 332/332/332 331/331/331 
f 334/334/334 331/331/331 335/335/335 
f 331/331/331 276/276/276 335/335/335 
f 335/335/335 276/276/276 275/275/275 
f 335/335/335 275/275/275 336/336/336 
f 275/275/275 337/337/337 336/336/336 
f 337/337/337 275/275/275 274/274/274 
f 337/337/337 274/274/274 338/338/338 
f 338/338/338 274/274/274 273/273/273 
f 338/338/338 273/273/273 339/339/339 
f 339/339/339 273/273/273 254/254/254 
f 338/338/338 339/339/339 340/340/340 
f 338/338/338 340/340/340 341/341/341 
f 338/338/338 341/341/341 337/337/337 
f 337/337/337 341/341/341 342/342/342 
f 337/337/337 342/342/342 336/336/336 
f 336/336/336 342/342/342 343/343/343 
f 336/336/336 343/343/343 344/344/344 
f 336/336/336 344/344/344 335/335/335 
f 344/344/344 345/345/345 335/335/335 
f 335/335/335 345/345/345 334/334/334 
f 344/344/344 346/346/346 345/345/345 
f 346/346/346 344/344/344 343/343/343 
f 346/346/346 343/343/343 347/347/347 
f 347/347/347 343/343/343 348/348/348 
f 343/343/343 342/342/342 348/348/348 
f 347/347/347 348/348/348 349/349/349 
f 348/348/348 342/342/342 350/350/350 
f 342/342/342 341/341/341 350/350/350 
f 350/350/350 341/341/341 351/351/351 
f 341/341/341 340/340/340 351/351/351 
f 351/351/351 340/340/340 352/352/352 
f 340/340/340 353/353/353 352/352/352 
f 353/353/353 340/340/340 339/339/339 
f 353/353/353 339/339/339 354/354/354 
f 354/354/354 339/339/339 355/355/355 
f 355/355/355 339/339/339 356/356/356 
f 356/356/356 339/339/339 254/254/254 
f 356/356/356 254/254/254 357/357/357 
f 357/357/357 254/254/254 253/253/253 
f 357/357/357 253/253/253 252/252/252 
f 357/357/357 252/252/252 358/358/358 
f 357/357/357 358/358/358 359/359/359 
f 357/357/357 359/359/359 356/356/356 
f 356/356/356 359/359/359 360/360/360 
f 356/356/356 360/360/360 361/361/361 
f 356/356/356 361/361/361 355/355/355 
f 355/355/355 361/361/361 362/362/362 
f 355/355/355 362/362/362 354/354/354 
f 354/354/354 362/362/362 363/363/363 
f 354/354/354 363/363/363 364/364/364 
f 354/354/354 364/364/364 353/353/353 
f 353/353/353 364/364/364 365/365/365 
f 353/353/353 365/365/365 352/352/352 
f 364/364/364 366/366/366 365/365/365 
f 366/366/366 364/364/364 367/367/367 
f 367/367/367 364/364/364 363/363/363 
f 366/366/366 367/367/367 368/368/368 
f 366/366/366 368/368/368 369/369/369 
f 369/369/369 368/368/368 370/370/370 
f 370/370/370 368/368/368 371/371/371 
f 369/369/369 370/370/370 372/372/372 
f 369/369/369 372/372/372 366/366/366 
f 366/366/366 372/372/372 373/373/373 
f 366/366/366 373/373/373 365/365/365 
f 365/365/365 373/373/373 352/352/352 
f 352/352/352 373/373/373 374/374/374 
f 373/373/373 372/372/372 374/374/374 
f 374/374/374 372/372/372 375/375/375 
f 372/372/372 370/370/370 375/375/375 
f 374/374/374 375/375/375 376/376/376 
f 374/374/374 376/376/376 352/352/352 
f 352/352/352 376/376/376 351/351/351 
f 376/376/376 377/377/377 351/351/351 
f 351/351/351 377/377/377 350/350/350 
f 350/350/350 377/377/377 378/378/378 
f 350/350/350 378/378/378 348/348/348 
f 378/378/378 349/349/349 348/348/348 
f 349/349/349 378/378/378 379/379/379 
f 379/379/379 378/378/378 380/380/380 
f 380/380/380 378/378/378 381/381/381 
f 381/381/381 378/378/378 377/377/377 
f 381/381/381 377/377/377 376/376/376 
f 381/381/381 376/376/376 382/382/382 
f 376/376/376 375/375/375 382/382/382 
f 375/375/375 370/370/370 382/382/382 
f 382/382/382 370/370/370 383/383/383 
f 370/370/370 371/371/371 383/383/383 
f 383/383/383 371/371/371 384/384/384 
f 383/383/383 384/384/384 379/379/379 
f 383/383/383 379/379/379 380/380/380 
f 383/383/383 380/380/380 381/381/381 
f 383/383/383 381/381/381 382/382/382 
f 359/359/359 385/385/385 360/360/360 
f 385/385/385 359/359/359 358/358/358 
f 358/358/358 252/252/252 386/386/386 
f 386/386/386 252/252/252 251/251/251 
f 386/386/386 251/251/251 249/249/249 
f 262/262/262 263/263/263 387/387/387 
f 262/262/262 387/387/387 388/388/388 
f 262/262/262 388/388/388 192/192/192 
f 388/388/388 387/387/387 389/389/389 
f 192/192/192 388/388/388 390/390/390 
f 389/389/389 391/391/391 388/388/388 
f 390/390/390 388/388/388 391/391/391 
f 389/389/389 392/392/392 391/391/391 
f 391/391/391 392/392/392 393/393/393 
f 393/393/393 392/392/392 394/394/394 
f 391/391/391 393/393/393 395/395/395 
f 391/391/391 395/395/395 390/390/390 
f 395/395/395 396/396/396 390/390/390 
f 390/390/390 396/396/396 191/191/191 
f 390/390/390 191/191/191 192/192/192 
f 396/396/396 67/67/67 191/191/191 
f 67/67/67 396/396/396 397/397/397 
f 67/67/67 397/397/397 66/66/66 
f 397/397/397 65/65/65 66/66/66 
f 65/65/65 397/397/397 398/398/398 
f 65/65/65 398/398/398 64/64/64 
f 398/398/398 397/397/397 399/399/399 
f 397/397/397 396/396/396 399/399/399 
f 399/399/399 396/396/396 395/395/395 
f 399/399/399 395/395/395 393/393/393 
f 399/399/399 393/393/393 400/400/400 
f 400/400/400 393/393/393 394/394/394 
f 400/400/400 394/394/394 401/401/401 
f 400/400/400 401/401/401 402/402/402 
f 400/400/400 402/402/402 403/403/403 
f 400/400/400 403/403/403 399/399/399 
f 399/399/399 403/403/403 398/398/398 
f 398/398/398 403/403/403 64/64/64 
f 64/64/64 403/403/403 404/404/404 
f 404/404/404 403/403/403 402/402/402 
f 64/64/64 404/404/404 63/63/63 
f 404/404/404 402/402/402 405/405/405 
f 63/63/63 404/404/404 406/406/406 
f 405/405/405 406/406/406 404/404/404 
f 406/406/406 405/405/405 407/407/407 
f 408/408/408 409/409/409 410/410/410 
f 409/409/409 408/408/408 411/411/411 
f 411/411/411 408/408/408 412/412/412 
f 409/409/409 411/411/411 413/413/413 
f 409/409/409 413/413/413 414/414/414 
f 414/414/414 413/413/413 415/415/415 
f 414/414/414 415/415/415 416/416/416 
f 414/414/414 416/416/416 417/417/417 
f 417/417/417 416/416/416 418/418/418 
f 417/417/417 418/418/418 419/419/419 
f 419/419/419 418/418/418 420/420/420 
f 419/419/419 420/420/420 421/421/421 
f 421/421/421 420/420/420 422/422/422 
f 421/421/421 422/422/422 423/423/423 
f 421/421/421 423/423/423 424/424/424 
f 424/424/424 423/423/423 425/425/425 
f 424/424/424 425/425/425 426/426/426 
f 426/426/426 425/425/425 427/427/427 
f 425/425/425 428/428/428 427/427/427 
f 427/427/427 428/428/428 429/429/429 
f 425/425/425 430/430/430 428/428/428 
f 430/430/430 425/425/425 423/423/423 
f 430/430/430 423/423/423 422/422/422 
f 430/430/430 422/422/422 431/431/431 
f 431/431/431 422/422/422 420/420/420 
f 431/431/431 420/420/420 432/432/432 
f 420/420/420 418/418/418 432/432/432 
f 432/432/432 418/418/418 433/433/433 
f 418/418/418 434/434/434 433/433/433 
f 434/434/434 418/418/418 416/416/416 
f 434/434/434 416/416/416 435/435/435 
f 435/435/435 416/416/416 415/415/415 
f 434/434/434 435/435/435 436/436/436 
f 434/434/434 436/436/436 437/437/437 
f 434/434/434 437/437/437 433/433/433 
f 433/433/433 437/437/437 438/438/438 
f 433/433/433 438/438/438 432/432/432 
f 432/432/432 438/438/438 439/439/439 
f 432/432/432 439/439/439 431/431/431 
f 431/431/431 439/439/439 440/440/440 
f 431/431/431 440/440/440 430/430/430 
f 430/430/430 440/440/440 428/428/428 
f 428/428/428 440/440/440 441/441/441 
f 428/428/428 441/441/441 429/429/429 
f 429/429/429 441/441/441 442/442/442 
f 442/442/442 441/441/441 443/443/443 
f 443/443/443 441/441/441 444/444/444 
f 441/441/441 440/440/440 444/444/444 
f 440/440/440 445/445/445 444/444/444 
f 445/445/445 440/440/440 439/439/439 
f 445/445/445 439/439/439 438/438/438 
f 445/445/445 438/438/438 446/446/446 
f 446/446/446 438/438/438 437/437/437 
f 446/446/446 437/437/437 447/447/447 
f 447/447/447 437/437/437 436/436/436 
f 447/447/447 436/436/436 448/448/448 
f 448/448/448 436/436/436 449/449/449 
f 436/436/436 435/435/435 449/449/449 
f 448/448/448 449/449/449 450/450/450 
f 435/435/435 451/451/451 449/449/449 
f 451/451/451 435/435/435 415/415/415 
f 449/449/449 451/451/451 452/452/452 
f 449/449/449 452/452/452 450/450/450 
f 450/450/450 452/452/452 453/453/453 
f 452/452/452 451/451/451 454/454/454 
f 452/452/452 454/454/454 455/455/455 
f 452/452/452 455/455/455 456/456/456 
f 455/455/455 457/457/457 456/456/456 
f 457/457/457 455/455/455 458/458/458 
f 457/457/457 458/458/458 459/459/459 
f 459/459/459 458/458/458 460/460/460 
f 459/459/459 460/460/460 461/461/461 
f 461/461/461 460/460/460 462/462/462 
f 461/461/461 462/462/462 463/463/463 
f 463/463/463 462/462/462 464/464/464 
f 463/463/463 464/464/464 465/465/465 
f 464/464/464 462/462/462 466/466/466 
f 462/462/462 460/460/460 466/466/466 
f 466/466/466 460/460/460 467/467/467 
f 467/467/467 460/460/460 458/458/458 
f 467/467/467 458/458/458 468/468/468 
f 468/468/468 458/458/458 455/455/455 
f 468/468/468 455/455/455 469/469/469 
f 469/469/469 455/455/455 454/454/454 
f 469/469/469 454/454/454 470/470/470 
f 470/470/470 454/454/454 471/471/471 
f 471/471/471 454/454/454 451/451/451 
f 471/471/471 451/451/451 415/415/415 
f 471/471/471 415/415/415 472/472/472 
f 415/415/415 413/413/413 472/472/472 
f 471/471/471 472/472/472 473/473/473 
f 471/471/471 473/473/473 470/470/470 
f 473/473/473 472/472/472 474/474/474 
f 474/474/474 472/472/472 475/475/475 
f 472/472/472 413/413/413 475/475/475 
f 413/413/413 411/411/411 475/475/475 
f 475/475/475 411/411/411 476/476/476 
f 475/475/475 476/476/476 474/474/474 
f 476/476/476 411/411/411 477/477/477 
f 477/477/477 411/411/411 412/412/412 
f 477/477/477 412/412/412 478/478/478 
f 477/477/477 478/478/478 479/479/479 
f 479/479/479 478/478/478 480/480/480 
f 477/477/477 479/479/479 481/481/481 
f 477/477/477 481/481/481 476/476/476 
f 481/481/481 482/482/482 476/476/476 
f 476/476/476 482/482/482 474/474/474 
f 482/482/482 481/481/481 483/483/483 
f 483/483/483 481/481/481 484/484/484 
f 481/481/481 479/479/479 484/484/484 
f 484/484/484 479/479/479 485/485/485 
f 485/485/485 479/479/479 486/486/486 
f 486/486/486 479/479/479 480/480/480 
f 486/486/486 480/480/480 487/487/487 
f 486/486/486 487/487/487 488/488/488 
f 486/486/486 488/488/488 485/485/485 
f 488/488/488 487/487/487 489/489/489 
f 488/488/488 489/489/489 490/490/490 
f 490/490/490 489/489/489 491/491/491 
f 488/488/488 490/490/490 492/492/492 
f 488/488/488 492/492/492 485/485/485 
f 492/492/492 493/493/493 485/485/485 
f 485/485/485 493/493/493 494/494/494 
f 485/485/485 494/494/494 484/484/484 
f 484/484/484 494/494/494 483/483/483 
f 483/483/483 494/494/494 495/495/495 
f 483/483/483 495/495/495 496/496/496 
f 483/483/483 496/496/496 482/482/482 
f 482/482/482 496/496/496 497/497/497 
f 482/482/482 497/497/497 474/474/474 
f 497/497/497 496/496/496 498/498/498 
f 498/498/498 496/496/496 499/499/499 
f 499/499/499 496/496/496 495/495/495 
f 499/499/499 495/495/495 500/500/500 
f 500/500/500 495/495/495 494/494/494 
f 500/500/500 494/494/494 493/493/493 
f 500/500/500 493/493/493 501/501/501 
f 501/501/501 493/493/493 502/502/502 
f 502/502/502 493/493/493 492/492/492 
f 502/502/502 492/492/492 503/503/503 
f 503/503/503 492/492/492 490/490/490 
f 503/503/503 490/490/490 504/504/504 
f 504/504/504 490/490/490 491/491/491 
f 504/504/504 491/491/491 505/505/505 
f 504/504/504 505/505/505 506/506/506 
f 506/506/506 505/505/505 507/507/507 
f 506/506/506 507/507/507 508/508/508 
f 506/506/506 508/508/508 509/509/509 
f 506/506/506 509/509/509 510/510/510 
f 510/510/510 509/509/509 511/511/511 
f 506/506/506 510/510/510 512/512/512 
f 506/506/506 512/512/512 504/504/504 
f 504/504/504 512/512/512 503/503/503 
f 503/503/503 512/512/512 513/513/513 
f 503/503/503 513/513/513 502/502/502 
f 502/502/502 513/513/513 514/514/514 
f 502/502/502 514/514/514 501/501/501 
f 501/501/501 514/514/514 515/515/515 
f 501/501/501 515/515/515 516/516/516 
f 501/501/501 516/516/516 500/500/500 
f 500/500/500 516/516/516 517/517/517 
f 500/500/500 517/517/517 499/499/499 
f 517/517/517 518/518/518 499/499/499 
f 499/499/499 518/518/518 519/519/519 
f 499/499/499 519/519/519 498/498/498 
f 519/519/519 520/520/520 498/498/498 
f 520/520/520 497/497/497 498/498/498 
f 497/497/497 520/520/520 521/521/521 
f 497/497/497 521/521/521 474/474/474 
f 474/474/474 521/521/521 522/522/522 
f 474/474/474 522/522/522 473/473/473 
f 522/522/522 470/470/470 473/473/473 
f 470/470/470 522/522/522 523/523/523 
f 523/523/523 522/522/522 524/524/524 
f 522/522/522 521/521/521 524/524/524 
f 524/524/524 521/521/521 525/525/525 
f 525/525/525 521/521/521 520/520/520 
f 525/525/525 520/520/520 526/526/526 
f 526/526/526 520/520/520 519/519/519 
f 526/526/526 519/519/519 527/527/527 
f 527/527/527 519/519/519 528/528/528 
f 528/528/528 519/519/519 518/518/518 
f 528/528/528 518/518/518 529/529/529 
f 529/529/529 518/518/518 530/530/530 
f 530/530/530 518/518/518 517/517/517 
f 530/530/530 517/517/517 516/516/516 
f 530/530/530 516/516/516 531/531/531 
f 531/531/531 516/516/516 532/532/532 
f 532/532/532 516/516/516 515/515/515 
f 531/531/531 532/532/532 533/533/533 
f 531/531/531 533/533/533 534/534/534 
f 531/531/531 534/534/534 530/530/530 
f 530/530/530 534/534/534 529/529/529 
f 535/535/535 526/526/526 527/527/527 
f 526/526/526 535/535/535 536/536/536 
f 526/526/526 536/536/536 525/525/525 
f 536/536/536 537/537/537 525/525/525 
f 525/525/525 537/537/537 524/524/524 
f 524/524/524 537/537/537 538/538/538 
f 524/524/524 538/538/538 523/523/523 
f 523/523/523 538/538/538 539/539/539 
f 523/523/523 539/539/539 470/470/470 
f 470/470/470 539/539/539 469/469/469 
f 469/469/469 539/539/539 540/540/540 
f 469/469/469 540/540/540 541/541/541 
f 469/469/469 541/541/541 468/468/468 
f 541/541/541 540/540/540 542/542/542 
f 468/468/468 541/541/541 543/543/543 
f 468/468/468 543/543/543 467/467/467 
f 467/467/467 543/543/543 544/544/544 
f 467/467/467 544/544/544 466/466/466 
f 544/544/544 545/545/545 466/466/466 
f 466/466/466 545/545/545 546/546/546 
f 466/466/466 546/546/546 464/464/464 
f 545/545/545 547/547/547 546/546/546 
f 547/547/547 545/545/545 548/548/548 
f 546/546/546 547/547/547 549/549/549 
f 546/546/546 549/549/549 464/464/464 
f 549/549/549 465/465/465 464/464/464 
f 465/465/465 549/549/549 550/550/550 
f 550/550/550 549/549/549 551/551/551 
f 551/551/551 549/549/549 547/547/547 
f 550/550/550 551/551/551 552/552/552 
f 552/552/552 551/551/551 553/553/553 
f 553/553/553 551/551/551 554/554/554 
f 554/554/554 551/551/551 547/547/547 
f 554/554/554 547/547/547 548/548/548 
f 554/554/554 548/548/548 555/555/555 
f 554/554/554 555/555/555 556/556/556 
f 554/554/554 556/556/556 553/553/553 
f 556/556/556 555/555/555 557/557/557 
f 542/542/542 540/540/540 558/558/558 
f 542/542/542 558/558/558 559/559/559 
f 559/559/559 558/558/558 560/560/560 
f 559/559/559 560/560/560 561/561/561 
f 560/560/560 558/558/558 562/562/562 
f 558/558/558 540/540/540 562/562/562 
f 562/562/562 540/540/540 563/563/563 
f 540/540/540 539/539/539 563/563/563 
f 563/563/563 539/539/539 564/564/564 
f 563/563/563 564/564/564 565/565/565 
f 563/563/563 565/565/565 562/562/562 
f 565/565/565 566/566/566 562/562/562 
f 562/562/562 566/566/566 567/567/567 
f 562/562/562 567/567/567 560/560/560 
f 560/560/560 567/567/567 568/568/568 
f 560/560/560 568/568/568 561/561/561 
f 568/568/568 567/567/567 569/569/569 
f 567/567/567 566/566/566 569/569/569 
f 569/569/569 566/566/566 570/570/570 
f 569/569/569 570/570/570 571/571/571 
f 569/569/569 571/571/571 572/572/572 
f 569/569/569 572/572/572 568/568/568 
f 572/572/572 571/571/571 573/573/573 
f 568/568/568 572/572/572 574/574/574 
f 568/568/568 574/574/574 561/561/561 
f 561/561/561 574/574/574 575/575/575 
f 575/575/575 574/574/574 576/576/576 
f 576/576/576 574/574/574 577/577/577 
f 574/574/574 572/572/572 577/577/577 
f 576/576/576 577/577/577 578/578/578 
f 578/578/578 577/577/577 579/579/579 
f 579/579/579 577/577/577 580/580/580 
f 577/577/577 572/572/572 580/580/580 
f 580/580/580 572/572/572 573/573/573 
f 580/580/580 573/573/573 581/581/581 
f 580/580/580 581/581/581 582/582/582 
f 580/580/580 582/582/582 579/579/579 
f 539/539/539 583/583/583 564/564/564 
f 564/564/564 583/583/583 584/584/584 
f 539/539/539 585/585/585 583/583/583 
f 585/585/585 539/539/539 538/538/538 
f 583/583/583 585/585/585 586/586/586 
f 583/583/583 586/586/586 587/587/587 
f 583/583/583 587/587/587 584/584/584 
f 587/587/587 588/588/588 584/584/584 
f 584/584/584 588/588/588 589/589/589 
f 589/589/589 588/588/588 590/590/590 
f 589/589/589 590/590/590 591/591/591 
f 591/591/591 590/590/590 592/592/592 
f 591/591/591 592/592/592 593/593/593 
f 592/592/592 594/594/594 593/593/593 
f 593/593/593 594/594/594 595/595/595 
f 594/594/594 596/596/596 595/595/595 
f 596/596/596 594/594/594 597/597/597 
f 597/597/597 594/594/594 598/598/598 
f 598/598/598 594/594/594 592/592/592 
f 597/597/597 598/598/598 599/599/599 
f 598/598/598 600/600/600 599/599/599 
f 600/600/600 598/598/598 601/601/601 
f 601/601/601 598/598/598 602/602/602 
f 602/602/602 598/598/598 592/592/592 
f 602/602/602 592/592/592 590/590/590 
f 602/602/602 590/590/590 603/603/603 
f 590/590/590 588/588/588 603/603/603 
f 603/603/603 588/588/588 604/604/604 
f 604/604/604 588/588/588 587/587/587 
f 604/604/604 587/587/587 605/605/605 
f 587/587/587 586/586/586 605/605/605 
f 604/604/604 605/605/605 606/606/606 
f 605/605/605 586/586/586 607/607/607 
f 606/606/606 605/605/605 607/607/607 
f 586/586/586 608/608/608 607/607/607 
f 608/608/608 586/586/586 585/585/585 
f 608/608/608 585/585/585 609/609/609 
f 585/585/585 538/538/538 609/609/609 
f 609/609/609 538/538/538 610/610/610 
f 538/538/538 537/537/537 610/610/610 
f 610/610/610 537/537/537 611/611/611 
f 537/537/537 536/536/536 611/611/611 
f 611/611/611 536/536/536 612/612/612 
f 536/536/536 535/535/535 612/612/612 
f 613/613/613 601/601/601 602/602/602 
f 613/613/613 602/602/602 603/603/603 
f 613/613/613 603/603/603 614/614/614 
f 603/603/603 604/604/604 614/614/614 
f 614/614/614 604/604/604 606/606/606 
f 533/533/533 532/532/532 615/615/615 
f 615/615/615 532/532/532 616/616/616 
f 532/532/532 515/515/515 616/616/616 
f 615/615/615 616/616/616 617/617/617 
f 617/617/617 616/616/616 618/618/618 
f 616/616/616 619/619/619 618/618/618 
f 619/619/619 616/616/616 515/515/515 
f 619/619/619 515/515/515 514/514/514 
f 619/619/619 514/514/514 620/620/620 
f 514/514/514 513/513/513 620/620/620 
f 619/619/619 620/620/620 621/621/621 
f 619/619/619 621/621/621 618/618/618 
f 621/621/621 620/620/620 622/622/622 
f 620/620/620 623/623/623 622/622/622 
f 623/623/623 620/620/620 513/513/513 
f 623/623/623 513/513/513 512/512/512 
f 623/623/623 512/512/512 510/510/510 
f 623/623/623 510/510/510 511/511/511 
f 623/623/623 511/511/511 622/622/622 
# 0 polygons - 1048 triangles

