# 3ds Max Wavefront OBJ Exporter v0.99 - (c)2007 guruware
# File Created: 07.05.2025 23:09:01

mtllib Brazo_izquierdoFerb.mtl

#
# object Brazo_Izquierda
#

v  4.7126 -0.1431 10.3468
v  4.7126 -0.1421 10.3403
v  4.7301 -0.1445 10.3404
v  4.6952 -0.1385 10.3395
v  4.5537 -0.1726 10.3110
v  4.6512 -0.1726 10.3186
v  4.6512 -0.1680 10.3071
v  4.5411 -0.1680 10.3216
v  4.5411 -0.1726 10.3102
v  4.5537 -0.1680 10.3224
v  4.5284 -0.1680 10.3224
v  4.5411 -0.1565 10.3264
v  4.7188 -0.1430 10.3328
v  4.7126 -0.1407 10.3194
v  4.7188 -0.1417 10.3194
v  4.6512 -0.1565 10.3024
v  4.5537 -0.1680 10.2995
v  4.7301 -0.1455 10.3334
v  4.5411 -0.1680 10.2987
v  4.5537 -0.1565 10.2948
v  4.5411 -0.1565 10.2940
v  4.5411 -0.1451 10.2987
v  4.5537 -0.1451 10.2995
v  4.5411 -0.1403 10.3102
v  4.5537 -0.1403 10.3110
v  4.5411 -0.1451 10.3216
v  4.5537 -0.1451 10.3224
v  4.5537 -0.1565 10.3272
v  4.6512 -0.1680 10.3300
v  4.6512 -0.1451 10.3071
v  4.6512 -0.1403 10.3186
v  4.6512 -0.1451 10.3300
v  4.6512 -0.1565 10.3348
v  4.7661 -0.1543 10.2905
v  4.7661 -0.1462 10.2938
v  4.7624 -0.1460 10.2937
v  4.7624 -0.1456 10.2981
v  4.7661 -0.1456 10.2981
v  4.7624 -0.1543 10.2903
v  4.7588 -0.1459 10.2936
v  4.7588 -0.1455 10.2981
v  4.7661 -0.1462 10.3024
v  4.7624 -0.1460 10.3025
v  4.7661 -0.1537 10.3052
v  4.7624 -0.1537 10.3054
v  4.7588 -0.1459 10.3026
v  4.7301 -0.1533 10.3489
v  4.7331 -0.1618 10.3472
v  4.7301 -0.1620 10.3473
v  4.7301 -0.1628 10.3404
v  4.7331 -0.1618 10.3338
v  4.7301 -0.1620 10.3334
v  4.4954 -0.1568 10.3508
v  4.4954 -0.1933 10.3416
v  4.4474 -0.1887 10.3418
v  4.4954 -0.1568 10.2877
v  4.4954 -0.1203 10.2969
v  4.4474 -0.1251 10.2967
v  4.4954 -0.1895 10.3392
v  4.4089 -0.1568 10.3193
v  4.4954 -0.2028 10.3193
v  4.4954 -0.1895 10.2993
v  4.4954 -0.1242 10.2993
v  4.4954 -0.1108 10.3193
v  4.4954 -0.2084 10.3193
v  4.4474 -0.2018 10.3193
v  4.4954 -0.1052 10.3193
v  4.4474 -0.1119 10.3193
v  4.4954 -0.1242 10.3392
v  4.4954 -0.1568 10.3474
v  4.4954 -0.1568 10.2911
v  4.4954 -0.1203 10.3416
v  4.4954 -0.1933 10.2969
v  4.4474 -0.1568 10.3511
v  4.4474 -0.1251 10.3418
v  4.4474 -0.1568 10.2874
v  4.4474 -0.1887 10.2967
v  4.7039 -0.1451 10.3510
v  4.7101 -0.1553 10.3489
v  4.6944 -0.1399 10.3470
v  4.7661 -0.1613 10.3032
v  4.7661 -0.1617 10.2980
v  4.7624 -0.1617 10.2980
v  4.7624 -0.1614 10.3033
v  4.7588 -0.1618 10.2980
v  4.6836 -0.1451 10.3528
v  4.6849 -0.1463 10.3571
v  4.6826 -0.1546 10.3527
v  4.6938 -0.1486 10.3900
v  4.6990 -0.1495 10.3897
v  4.6938 -0.1543 10.3900
v  4.7012 -0.1592 10.3618
v  4.7010 -0.1589 10.3657
v  4.7020 -0.1537 10.3618
v  4.6836 -0.1627 10.3525
v  4.6849 -0.1614 10.3569
v  4.6938 -0.1635 10.3528
v  4.7762 -0.1477 10.2952
v  4.7762 -0.1542 10.2924
v  4.7762 -0.1540 10.2981
v  4.7762 -0.1537 10.3036
v  4.7762 -0.1597 10.3019
v  4.6761 -0.1558 10.3472
v  4.7722 -0.1543 10.2906
v  4.7722 -0.1463 10.2940
v  4.6628 -0.1451 10.3309
v  4.6798 -0.1425 10.3472
v  4.6937 -0.1604 10.3809
v  4.7001 -0.1582 10.3878
v  4.7003 -0.1583 10.3808
v  4.7010 -0.1537 10.3808
v  4.7007 -0.1537 10.3878
v  4.7762 -0.1602 10.2980
v  4.7762 -0.1597 10.2952
v  4.7722 -0.1617 10.2980
v  4.7722 -0.1611 10.2940
v  4.7762 -0.1473 10.2981
v  4.7762 -0.1477 10.3012
v  4.7722 -0.1458 10.2981
v  4.7722 -0.1463 10.3023
v  4.7722 -0.1537 10.3051
v  4.6937 -0.1607 10.3773
v  4.7004 -0.1585 10.3773
v  4.7011 -0.1537 10.3773
v  4.7004 -0.1484 10.3808
v  4.6863 -0.1543 10.3773
v  4.6871 -0.1593 10.3808
v  4.6869 -0.1595 10.3773
v  4.6871 -0.1484 10.3808
v  4.6864 -0.1543 10.3808
v  4.6938 -0.1607 10.3743
v  4.7006 -0.1586 10.3743
v  4.7013 -0.1537 10.3743
v  4.6862 -0.1543 10.3743
v  4.6868 -0.1596 10.3743
v  4.7661 -0.1613 10.2938
v  4.7624 -0.1614 10.2937
v  4.7588 -0.1614 10.2936
v  4.7588 -0.1543 10.2902
v  4.6938 -0.1438 10.3519
v  4.6880 -0.1542 10.3897
v  4.6885 -0.1495 10.3897
v  4.6938 -0.1473 10.3881
v  4.7001 -0.1486 10.3878
v  4.6628 -0.1565 10.3357
v  4.6628 -0.1680 10.3309
v  4.6802 -0.1727 10.3472
v  4.6938 -0.1697 10.3470
v  4.7038 -0.1611 10.3530
v  4.7588 -0.1537 10.3055
v  4.7588 -0.1614 10.3034
v  4.6938 -0.1614 10.3618
v  4.6938 -0.1611 10.3656
v  4.6864 -0.1600 10.3656
v  4.6857 -0.1544 10.3656
v  4.6868 -0.1481 10.3743
v  4.6873 -0.1590 10.3878
v  4.6937 -0.1603 10.3881
v  4.6989 -0.1574 10.3897
v  4.6995 -0.1537 10.3897
v  4.7722 -0.1611 10.3030
v  4.6775 -0.1410 10.3363
v  4.6937 -0.1592 10.3900
v  4.6885 -0.1582 10.3897
v  4.6867 -0.1543 10.3878
v  4.6873 -0.1487 10.3878
v  4.6938 -0.1472 10.3809
v  4.7017 -0.1537 10.3656
v  4.7011 -0.1477 10.3656
v  4.7506 -0.1459 10.2934
v  4.7506 -0.1453 10.2981
v  4.7024 -0.1602 10.3572
v  4.6938 -0.1624 10.3570
v  4.6861 -0.1603 10.3618
v  4.6841 -0.1544 10.3570
v  4.6854 -0.1544 10.3618
v  4.7006 -0.1480 10.3742
v  4.6938 -0.1465 10.3656
v  4.7033 -0.1537 10.3565
v  4.6864 -0.1477 10.3657
v  4.6938 -0.1469 10.3743
v  4.7506 -0.1544 10.2900
v  4.7506 -0.1616 10.2934
v  4.7506 -0.1621 10.2980
v  4.7506 -0.1616 10.3036
v  4.7506 -0.1537 10.3057
v  4.7506 -0.1459 10.3028
v  4.7785 -0.1599 10.3404
v  4.7785 -0.1533 10.3404
v  4.7785 -0.1592 10.3365
v  4.7483 -0.1533 10.3482
v  4.7435 -0.1533 10.3483
v  4.7435 -0.1459 10.3467
v  4.7436 -0.1614 10.3467
v  4.7483 -0.1614 10.3466
v  4.7436 -0.1623 10.3404
v  4.7483 -0.1537 10.3329
v  4.7435 -0.1537 10.3328
v  4.7436 -0.1614 10.3342
v  4.7529 -0.1459 10.3463
v  4.7482 -0.1459 10.3466
v  4.7482 -0.1449 10.3404
v  4.7530 -0.1533 10.3479
v  4.7530 -0.1613 10.3463
v  4.7530 -0.1537 10.3332
v  4.7529 -0.1459 10.3346
v  4.7861 -0.1470 10.3194
v  4.7861 -0.1477 10.3147
v  4.7865 -0.1537 10.3194
v  4.7301 -0.1620 10.3046
v  4.7329 -0.1617 10.3043
v  4.7301 -0.1624 10.2981
v  4.7301 -0.1537 10.3074
v  4.7329 -0.1537 10.3064
v  4.7784 -0.1474 10.3445
v  4.7784 -0.1467 10.3404
v  4.7680 -0.1459 10.3458
v  4.7680 -0.1532 10.3473
v  4.7643 -0.1459 10.3459
v  4.7301 -0.1620 10.2927
v  4.7329 -0.1617 10.2928
v  4.7301 -0.1544 10.2891
v  4.7329 -0.1544 10.2894
v  4.7329 -0.1458 10.2928
v  4.7301 -0.1455 10.2927
v  4.7301 -0.1449 10.2981
v  4.7725 -0.1620 10.3194
v  4.7814 -0.1610 10.3135
v  4.7725 -0.1611 10.3134
v  4.7726 -0.1537 10.3114
v  4.7821 -0.1537 10.3116
v  4.7435 -0.1449 10.3404
v  4.7482 -0.1459 10.3344
v  4.7435 -0.1459 10.3342
v  4.7483 -0.1623 10.3404
v  4.7483 -0.1614 10.3344
v  4.7530 -0.1613 10.3346
v  4.7744 -0.1536 10.3338
v  4.7744 -0.1460 10.3352
v  4.7680 -0.1536 10.3336
v  4.7680 -0.1459 10.3351
v  4.7680 -0.1449 10.3404
v  4.7861 -0.1537 10.3258
v  4.7861 -0.1477 10.3242
v  4.7821 -0.1455 10.3194
v  4.7821 -0.1465 10.3135
v  4.7644 -0.1532 10.3474
v  4.7644 -0.1610 10.3459
v  4.7681 -0.1610 10.3458
v  4.7644 -0.1618 10.3404
v  4.7681 -0.1618 10.3404
v  4.7681 -0.1610 10.3351
v  4.7785 -0.1533 10.3457
v  4.7785 -0.1592 10.3445
v  4.7745 -0.1614 10.3404
v  4.7745 -0.1607 10.3352
v  4.7726 -0.1537 10.3274
v  4.7814 -0.1610 10.3253
v  4.7725 -0.1611 10.3254
v  4.7814 -0.1618 10.3194
v  4.7853 -0.1596 10.3147
v  4.7861 -0.1537 10.3131
v  4.7745 -0.1607 10.3456
v  4.7744 -0.1532 10.3471
v  4.7785 -0.1536 10.3353
v  4.7784 -0.1474 10.3365
v  4.7744 -0.1452 10.3404
v  4.7744 -0.1460 10.3456
v  4.7643 -0.1449 10.3404
v  4.7643 -0.1459 10.3350
v  4.7644 -0.1537 10.3335
v  4.7644 -0.1610 10.3350
v  4.7853 -0.1603 10.3194
v  4.7853 -0.1596 10.3242
v  4.7821 -0.1537 10.3272
v  4.7821 -0.1465 10.3253
v  4.7301 -0.1455 10.3043
v  4.7329 -0.1458 10.3035
v  4.7329 -0.1452 10.2981
v  4.7415 -0.1460 10.2932
v  4.7415 -0.1543 10.2898
v  4.7462 -0.1543 10.2900
v  4.7415 -0.1614 10.2932
v  4.7462 -0.1614 10.2934
v  4.7415 -0.1618 10.2980
v  4.7462 -0.1618 10.2980
v  4.7462 -0.1614 10.3037
v  4.7529 -0.1449 10.3404
v  4.7329 -0.1621 10.2981
v  4.7415 -0.1614 10.3038
v  4.7462 -0.1537 10.3058
v  4.7415 -0.1537 10.3059
v  4.7415 -0.1460 10.3031
v  4.7530 -0.1621 10.3404
v  4.7415 -0.1456 10.2981
v  4.7607 -0.1449 10.3404
v  4.7607 -0.1459 10.3460
v  4.7301 -0.1455 10.3473
v  4.7126 -0.1425 10.2981
v  4.7126 -0.1449 10.2919
v  4.7219 -0.1630 10.3050
v  4.7188 -0.1432 10.3050
v  4.7071 -0.1653 10.3388
v  4.7071 -0.1642 10.3468
v  4.7096 -0.1546 10.2883
v  4.7071 -0.1649 10.2992
v  4.7071 -0.1642 10.2919
v  4.7216 -0.1634 10.3335
v  4.3845 -0.1561 10.2878
v  4.3826 -0.1846 10.2860
v  4.3873 -0.1834 10.2967
v  4.3912 -0.1146 10.3192
v  4.3866 -0.1304 10.2967
v  4.3929 -0.1186 10.3192
v  4.3822 -0.1270 10.2860
v  4.3810 -0.1551 10.2792
v  4.7331 -0.1456 10.3472
v  4.7331 -0.1533 10.3487
v  4.7331 -0.1628 10.3404
v  4.7331 -0.1537 10.3324
v  4.7331 -0.1456 10.3338
v  4.7331 -0.1446 10.3404
v  4.7462 -0.1459 10.3030
v  4.7462 -0.1455 10.2981
v  4.7462 -0.1459 10.2934
v  4.7301 -0.1455 10.3275
v  4.7301 -0.1620 10.3275
v  4.7507 -0.1537 10.3280
v  4.7455 -0.1460 10.3259
v  4.7507 -0.1459 10.3258
v  4.7455 -0.1451 10.3194
v  4.7455 -0.1623 10.3194
v  4.7507 -0.1614 10.3130
v  4.7455 -0.1614 10.3129
v  4.7507 -0.1537 10.3109
v  4.7455 -0.1537 10.3108
v  4.7455 -0.1460 10.3129
v  4.7507 -0.1459 10.3130
v  4.7507 -0.1449 10.3194
v  4.7555 -0.1462 10.3257
v  4.7455 -0.1537 10.3281
v  4.7455 -0.1614 10.3259
v  4.7507 -0.1614 10.3258
v  4.7507 -0.1623 10.3194
v  4.7555 -0.1537 10.3111
v  4.7555 -0.1462 10.3132
v  4.7555 -0.1452 10.3194
v  4.6628 -0.1680 10.3080
v  4.6628 -0.1565 10.3033
v  4.7026 -0.1463 10.3557
v  4.6767 -0.1576 10.2909
v  4.6775 -0.1435 10.2945
v  4.6949 -0.1528 10.2886
v  4.6628 -0.1726 10.3195
v  4.6952 -0.1372 10.3194
v  4.6952 -0.1389 10.2993
v  4.6952 -0.1411 10.2922
v  4.6802 -0.1727 10.3194
v  4.6938 -0.1702 10.3194
v  4.6802 -0.1747 10.3051
v  4.6938 -0.1709 10.3021
v  4.7071 -0.1656 10.3194
v  4.6802 -0.1727 10.2951
v  4.6938 -0.1697 10.2925
v  4.7048 -0.1537 10.3521
v  4.6938 -0.1712 10.3364
v  4.6802 -0.1747 10.3340
v  4.6628 -0.1403 10.3195
v  4.6775 -0.1416 10.3026
v  4.6775 -0.1400 10.3194
v  4.7218 -0.1638 10.3194
v  4.6628 -0.1451 10.3080
v  4.6938 -0.1451 10.3564
v  4.6861 -0.1474 10.3618
v  4.6938 -0.1462 10.3618
v  4.7013 -0.1474 10.3617
v  4.4103 -0.1841 10.2980
v  4.3929 -0.1957 10.3192
v  4.4088 -0.1565 10.2893
v  4.4134 -0.1179 10.3192
v  4.4094 -0.1297 10.3406
v  4.3855 -0.1304 10.3418
v  4.4088 -0.1565 10.3491
v  4.3845 -0.1561 10.3506
v  4.3867 -0.1834 10.3418
v  4.4099 -0.1297 10.2980
v  4.4100 -0.1841 10.3406
v  4.4134 -0.1960 10.3192
v  4.7607 -0.1533 10.3476
v  4.7607 -0.1611 10.3460
v  4.7607 -0.1620 10.3404
v  4.7607 -0.1459 10.3349
v  4.7607 -0.1537 10.3334
v  4.7607 -0.1611 10.3349
v  4.7555 -0.1537 10.3277
v  4.7643 -0.1613 10.3255
v  4.7555 -0.1613 10.3257
v  4.7555 -0.1621 10.3194
v  4.7643 -0.1621 10.3194
v  4.7643 -0.1613 10.3133
v  4.7643 -0.1463 10.3255
v  4.7643 -0.1452 10.3194
v  4.7643 -0.1463 10.3133
v  4.7683 -0.1620 10.3194
v  4.7683 -0.1611 10.3134
v  4.7683 -0.1537 10.3114
v  4.7726 -0.1463 10.3134
v  4.7683 -0.1537 10.3275
v  4.7683 -0.1611 10.3255
v  4.7726 -0.1463 10.3254
v  4.7683 -0.1452 10.3194
v  4.7726 -0.1453 10.3194
v  4.7683 -0.1463 10.3134
v  4.7683 -0.1463 10.3255
v  4.7643 -0.1537 10.3113
v  4.7643 -0.1537 10.3275
v  4.7555 -0.1613 10.3132
v  4.7301 -0.1537 10.3321
v  4.7301 -0.1537 10.3295
v  4.7301 -0.1537 10.3088
v  4.7301 -0.1455 10.3105
v  4.7301 -0.1620 10.3105
v  4.7334 -0.1445 10.3194
v  4.7334 -0.1456 10.3122
v  4.7334 -0.1537 10.3099
v  4.7334 -0.1618 10.3122
v  4.7301 -0.1630 10.3194
v  4.7301 -0.1444 10.3194
v  4.7334 -0.1456 10.3266
v  4.7334 -0.1537 10.3290
v  4.7334 -0.1618 10.3266
v  4.7334 -0.1628 10.3194
v  4.6938 -0.1470 10.3773
v  4.7005 -0.1483 10.3773
v  4.6869 -0.1483 10.3773
v  4.5284 -0.1726 10.3110
v  4.4287 -0.1726 10.3195
v  4.5284 -0.1565 10.2948
v  4.5284 -0.1451 10.2995
v  4.4287 -0.1565 10.3033
v  4.4287 -0.1451 10.3080
v  4.5284 -0.1403 10.3110
v  4.4287 -0.1403 10.3195
v  4.5284 -0.1451 10.3224
v  4.4287 -0.1451 10.3309
v  4.5284 -0.1565 10.3272
v  4.4287 -0.1565 10.3357
v  4.4287 -0.1680 10.3309
v  4.4287 -0.1680 10.3080
v  4.5284 -0.1680 10.2995
# 450 vertices

vn -0.1953 -0.7274 -0.6578
vn -0.1748 -0.9785 -0.1098
vn -0.1093 -0.9939 -0.0136
vn -0.0178 -0.9923 -0.1222
vn -0.0002 1.0000 0.0016
vn -0.0000 1.0000 -0.0000
vn -0.0551 0.7063 0.7057
vn 0.0004 0.7149 -0.6992
vn -0.0000 0.9999 0.0156
vn 0.0503 0.7073 -0.7051
vn -0.0524 0.7077 -0.7045
vn 0.0005 0.0000 -1.0000
vn -0.2012 -0.9791 -0.0289
vn -0.1904 -0.9817 0.0092
vn -0.2054 -0.9787 0.0035
vn -0.0778 0.0000 0.9970
vn -0.0504 0.7057 0.7068
vn -0.4220 -0.8396 0.3422
vn -0.0004 0.6994 0.7147
vn -0.0710 0.0000 0.9975
vn -0.0005 0.0000 1.0000
vn -0.0004 -0.6994 0.7147
vn -0.0504 -0.7057 0.7068
vn -0.0000 -0.9999 0.0156
vn -0.0002 -1.0000 0.0016
vn 0.0004 -0.7149 -0.6992
vn 0.0503 -0.7073 -0.7052
vn 0.0712 0.0000 -0.9975
vn 0.0551 0.7063 -0.7057
vn -0.0551 -0.7063 0.7057
vn -0.0000 -1.0000 -0.0000
vn 0.0551 -0.7063 -0.7057
vn 0.0778 0.0000 -0.9970
vn -0.0309 0.0283 0.9991
vn -0.0305 -0.7975 0.6026
vn -0.0330 -0.7968 0.6034
vn -0.0220 -0.9998 0.0014
vn -0.0205 -0.9998 0.0015
vn -0.0329 0.0283 0.9991
vn -0.0301 -0.7968 0.6035
vn -0.0201 -0.9998 0.0014
vn -0.0306 -0.7879 -0.6150
vn -0.0331 -0.7872 -0.6158
vn -0.0295 -0.0447 -0.9986
vn -0.0316 -0.0443 -0.9985
vn -0.0302 -0.7871 -0.6161
vn -0.0291 -0.0141 -0.9995
vn -0.0628 0.7237 -0.6872
vn -0.0671 0.7182 -0.6926
vn -0.0837 0.9965 -0.0079
vn -0.0864 0.7212 0.6873
vn -0.3933 0.8557 0.3363
vn -0.6525 -0.0000 -0.7578
vn -0.6096 0.4739 -0.6355
vn 0.0775 0.6125 -0.7867
vn -0.6525 0.0000 0.7578
vn -0.6096 -0.4739 0.6355
vn 0.0788 -0.6132 0.7860
vn -0.8903 -0.2736 0.3641
vn -1.0000 0.0000 0.0000
vn -0.9387 -0.3446 0.0000
vn -0.8903 -0.2736 -0.3641
vn -0.8903 0.2736 -0.3641
vn -0.9388 0.3446 0.0000
vn -0.5483 0.8363 -0.0000
vn 0.1367 0.9906 -0.0001
vn -0.5483 -0.8363 -0.0000
vn 0.1410 -0.9900 -0.0001
vn -0.8903 0.2736 0.3641
vn -0.8541 0.0000 0.5201
vn -0.8541 0.0000 -0.5201
vn -0.6096 -0.4739 -0.6355
vn -0.6096 0.4739 0.6355
vn 0.0274 0.0003 -0.9996
vn 0.0785 -0.6134 -0.7859
vn 0.0274 0.0002 0.9996
vn 0.0777 0.6124 0.7867
vn -0.4317 -0.6068 -0.6674
vn -0.3013 0.0527 -0.9521
vn -0.0123 -0.9193 -0.3935
vn -0.0316 0.7681 -0.6396
vn -0.0207 0.9997 0.0090
vn -0.0222 0.9997 0.0087
vn -0.0340 0.7674 -0.6403
vn -0.0203 0.9998 0.0084
vn 0.5833 -0.6018 -0.5455
vn 0.6582 -0.6591 -0.3638
vn 0.8322 -0.0153 -0.5542
vn 0.0018 -0.5196 -0.8544
vn -0.4210 -0.3847 -0.8215
vn -0.0004 0.0006 -1.0000
vn -0.7347 0.6452 -0.2095
vn -0.7566 0.6496 -0.0742
vn -0.9860 0.0119 -0.1662
vn 0.5057 0.4781 -0.7181
vn 0.6490 0.6722 -0.3564
vn -0.0527 0.8497 -0.5246
vn -0.7653 -0.5151 0.3861
vn -0.7789 0.0155 0.6269
vn -1.0000 0.0000 -0.0000
vn -0.7664 -0.0389 -0.6412
vn -0.7497 0.5054 -0.4271
vn 0.6779 -0.0119 -0.7350
vn -0.2164 0.0290 0.9759
vn -0.2142 -0.7780 0.5906
vn 0.3121 -0.7142 -0.6265
vn 0.4919 -0.6965 -0.5224
vn -0.0702 0.9969 -0.0353
vn -0.7370 0.6072 -0.2968
vn -0.7628 0.6450 -0.0457
vn -0.9990 0.0178 -0.0398
vn -0.9543 0.0168 -0.2985
vn -0.8035 0.5952 0.0095
vn -0.7675 0.5290 0.3620
vn -0.1852 0.9826 0.0102
vn -0.2142 0.7979 0.5635
vn -0.7983 -0.6022 0.0034
vn -0.7571 -0.5141 -0.4031
vn -0.1863 -0.9825 0.0021
vn -0.2068 -0.7721 -0.6009
vn -0.1839 -0.0462 -0.9819
vn -0.0705 0.9967 -0.0395
vn -0.7616 0.6460 -0.0519
vn -0.9988 0.0177 -0.0449
vn -0.7304 -0.6812 -0.0502
vn 0.9989 0.0092 -0.0452
vn 0.7221 0.6900 -0.0500
vn 0.7205 0.6911 -0.0566
vn 0.7328 -0.6787 -0.0500
vn 0.9992 0.0092 -0.0400
vn -0.0709 0.9965 -0.0432
vn -0.7602 0.6472 -0.0562
vn -0.9986 0.0176 -0.0494
vn 0.9987 0.0092 -0.0498
vn 0.7186 0.6927 -0.0615
vn -0.0305 0.8185 0.5737
vn -0.0329 0.8177 0.5747
vn -0.0300 0.8175 0.5751
vn -0.0307 0.0281 0.9991
vn -0.0353 -0.8842 -0.4658
vn 0.5170 0.0035 -0.8560
vn 0.4238 -0.3846 -0.8201
vn 0.0017 -0.9572 -0.2894
vn -0.7025 -0.6406 -0.3101
vn 0.4166 0.0051 -0.9091
vn 0.3308 0.7059 -0.6263
vn 0.2663 0.7460 -0.6104
vn -0.2234 0.8580 -0.4625
vn -0.5978 0.5607 -0.5729
vn -0.0292 -0.0438 -0.9986
vn -0.0308 0.7672 -0.6406
vn -0.0723 0.9869 -0.1439
vn -0.0717 0.9958 -0.0568
vn 0.7140 0.6954 -0.0813
vn 0.9979 0.0090 -0.0646
vn 0.7302 -0.6804 -0.0617
vn 0.6956 0.6484 -0.3094
vn -0.0646 0.9562 -0.2854
vn -0.4424 0.3706 -0.8167
vn -0.5195 0.0106 -0.8544
vn -0.2056 0.7542 -0.6236
vn 0.2174 -0.9637 -0.1550
vn -0.0395 0.5316 -0.8461
vn 0.4161 0.3903 -0.8213
vn 0.9541 0.0096 -0.2994
vn 0.7049 -0.6387 -0.3084
vn 0.0022 -0.9993 -0.0374
vn -0.9978 0.0171 -0.0641
vn -0.7245 -0.6845 -0.0817
vn -0.0030 -0.7982 0.6024
vn 0.0065 -1.0000 0.0013
vn -0.7039 0.6250 -0.3374
vn -0.0684 0.9678 -0.2424
vn 0.6923 0.6876 -0.2188
vn 0.9546 0.0118 -0.2977
vn 0.9848 0.0086 -0.1737
vn -0.7279 -0.6829 -0.0618
vn 0.0022 -0.9982 -0.0607
vn -0.9603 -0.0121 -0.2788
vn 0.7269 -0.6819 -0.0814
vn 0.0022 -0.9989 -0.0460
vn -0.0102 0.0283 0.9995
vn -0.0026 0.8185 0.5745
vn 0.0065 0.9999 0.0078
vn -0.0123 0.7718 -0.6358
vn -0.0253 -0.0438 -0.9987
vn -0.0105 -0.7908 -0.6120
vn -0.8033 0.5956 0.0020
vn -1.0000 -0.0051 0.0000
vn -0.7581 0.4679 0.4543
vn -0.0431 -0.0103 -0.9990
vn -0.0358 -0.0102 -0.9993
vn -0.0308 -0.7265 -0.6865
vn -0.0377 0.7243 -0.6884
vn -0.0362 0.7276 -0.6850
vn -0.0217 0.9998 0.0023
vn -0.0412 0.0008 0.9992
vn -0.0316 0.0009 0.9995
vn -0.0372 0.7195 0.6935
vn -0.0356 -0.7251 -0.6877
vn -0.0322 -0.7283 -0.6845
vn -0.0089 -1.0000 0.0025
vn -0.0478 -0.0101 -0.9988
vn -0.0461 0.7263 -0.6858
vn -0.0407 0.0013 0.9992
vn -0.0327 -0.7155 0.6979
vn -0.7804 -0.6253 -0.0005
vn -0.7431 -0.4927 0.4528
vn -0.9983 0.0576 0.0001
vn -0.3747 0.8808 -0.2895
vn -0.1164 0.7624 -0.6366
vn -0.1238 0.9922 0.0111
vn -0.8759 -0.0058 -0.4825
vn -0.1947 -0.0310 -0.9804
vn -0.7479 -0.4711 -0.4676
vn -0.7925 -0.6098 0.0021
vn -0.0324 -0.7234 -0.6897
vn -0.0388 -0.0065 -0.9992
vn -0.0189 -0.7215 -0.6921
vn -0.1044 0.8134 0.5723
vn -0.0860 0.8096 0.5807
vn -0.0663 0.0311 0.9973
vn -0.0693 0.0269 0.9972
vn -0.0852 -0.7888 0.6088
vn -0.1099 -0.7919 0.6006
vn -0.1473 -0.9890 0.0149
vn -0.0133 0.9999 0.0002
vn -0.2004 0.7389 0.6433
vn -0.0186 0.7490 0.6623
vn -0.0184 0.0002 0.9998
vn -0.1911 0.0099 0.9815
vn -0.0116 -0.9999 0.0022
vn -0.0339 -0.7169 0.6963
vn -0.0308 -0.7139 0.6996
vn -0.0139 0.9999 0.0024
vn -0.0375 0.7239 0.6889
vn -0.0435 0.7241 0.6883
vn -0.1870 0.0051 0.9823
vn -0.2183 -0.6993 0.6807
vn -0.0291 0.0046 0.9996
vn -0.0275 -0.7163 0.6972
vn -0.0162 -0.9999 0.0011
vn -0.7639 0.0406 -0.6441
vn -0.7386 -0.4937 -0.4591
vn -0.1874 -0.9823 0.0007
vn -0.2053 -0.7273 0.6549
vn -0.0374 -0.0077 -0.9993
vn -0.0378 0.7234 -0.6894
vn -0.0518 0.7254 -0.6864
vn -0.0218 0.9998 0.0017
vn -0.0426 0.9991 0.0014
vn -0.0466 0.7253 0.6868
vn -0.7785 -0.0048 -0.6276
vn -0.7511 0.4684 -0.4653
vn -0.2163 0.9763 0.0015
vn -0.2309 0.7046 0.6709
vn -0.0184 0.0002 -0.9998
vn -0.1957 0.7408 -0.6426
vn -0.0186 0.7491 -0.6622
vn -0.1873 0.9823 0.0006
vn -0.7103 0.5449 0.4455
vn -0.7700 0.0410 0.6367
vn -0.2261 0.7072 -0.6699
vn -0.1796 -0.0061 -0.9837
vn -0.7879 0.0007 0.6158
vn -0.7534 -0.4658 0.4641
vn -0.1992 -0.9800 0.0013
vn -0.2136 -0.7084 -0.6727
vn 0.0047 -1.0000 0.0015
vn -0.0138 -0.7137 0.7004
vn -0.0273 0.0037 0.9996
vn -0.0326 0.7227 0.6904
vn -0.7523 0.6588 -0.0004
vn -0.7057 0.5454 -0.4522
vn -0.1819 0.0095 -0.9833
vn -0.2001 -0.7295 -0.6541
vn -0.4412 -0.8504 -0.2868
vn -0.1673 -0.7965 -0.5810
vn -0.0858 -0.9963 0.0018
vn -0.0318 -0.7964 0.6040
vn -0.0456 0.0276 0.9986
vn -0.0151 0.0279 0.9995
vn -0.0308 0.8168 0.5760
vn 0.0039 0.8196 0.5730
vn -0.0097 0.9999 0.0073
vn 0.0210 0.9997 0.0082
vn -0.0002 0.7658 -0.6431
vn -0.0104 -0.9999 0.0025
vn -0.0855 0.9963 0.0068
vn -0.0291 0.7694 -0.6381
vn -0.0192 -0.0448 -0.9988
vn -0.0384 -0.0448 -0.9983
vn -0.0281 -0.7900 -0.6125
vn -0.0257 0.9997 0.0024
vn -0.0099 -1.0000 0.0014
vn 0.0041 -1.0000 0.0019
vn -0.0197 -0.7233 -0.6903
vn -0.0682 -0.7136 -0.6973
vn -0.1555 -0.9679 0.1976
vn -0.0844 -0.6819 0.7265
vn -0.1244 0.9922 -0.0030
vn -0.1870 -0.9810 0.0510
vn -0.2557 0.9642 -0.0696
vn -0.3363 0.7997 -0.4974
vn -0.0203 0.0235 0.9995
vn -0.2563 0.9649 0.0578
vn -0.1484 0.7400 0.6560
vn -0.1374 0.9902 0.0256
vn -0.6618 -0.0099 0.7496
vn -0.9250 0.1277 0.3578
vn -0.6264 0.4255 0.6531
vn -0.9576 -0.2880 -0.0103
vn -0.6639 -0.3958 0.6345
vn -0.5614 -0.8275 -0.0116
vn -0.9417 -0.0990 0.3217
vn -0.9405 -0.0019 0.3398
vn -0.0598 -0.7257 -0.6854
vn -0.0497 -0.0098 -0.9987
vn -0.0458 0.9990 0.0008
vn -0.0699 0.0001 0.9976
vn -0.0834 -0.7160 0.6931
vn -0.0465 -0.9989 0.0016
vn 0.0007 -0.7861 -0.6181
vn 0.0208 -0.9998 0.0022
vn 0.0028 -0.7991 0.6011
vn -0.4486 -0.8314 -0.3280
vn -0.4147 0.8532 -0.3163
vn -0.0346 0.0006 -0.9994
vn -0.0356 -0.7484 -0.6623
vn -0.0252 -0.7465 -0.6649
vn -0.0183 -0.9998 0.0002
vn -0.0183 0.9998 0.0002
vn -0.0252 0.7526 0.6579
vn -0.0357 0.7545 0.6553
vn -0.0346 -0.0006 0.9994
vn -0.0451 -0.0000 0.9990
vn -0.0356 -0.7482 0.6625
vn -0.0259 -0.7459 0.6655
vn -0.0121 -0.9999 0.0002
vn -0.0306 -0.7456 -0.6656
vn -0.0451 0.0000 -0.9990
vn -0.0357 0.7547 -0.6551
vn -0.0258 0.7524 -0.6582
vn -0.0119 0.9999 0.0002
vn -0.0339 -0.0006 0.9994
vn -0.0300 -0.7451 0.6662
vn -0.0197 -0.9998 0.0002
vn 0.2702 0.7279 0.6302
vn 0.3637 0.0031 0.9315
vn -0.6691 -0.6690 -0.3237
vn 0.4193 0.0547 0.9062
vn 0.3772 -0.6420 0.6675
vn 0.0534 -0.0551 0.9971
vn 0.1292 0.9916 -0.0090
vn -0.0187 -0.9997 0.0126
vn -0.0102 -0.9826 0.1852
vn 0.0233 -0.7240 0.6894
vn -0.0887 0.9961 -0.0017
vn -0.2809 0.9597 0.0053
vn 0.0267 0.9962 0.0832
vn -0.3108 0.9484 0.0623
vn -0.2486 0.9686 0.0101
vn 0.2158 0.7604 0.6126
vn -0.1614 0.7282 0.6661
vn -0.7788 -0.0716 -0.6232
vn -0.3072 0.9502 -0.0527
vn 0.0295 0.9977 -0.0611
vn 0.0978 -0.9952 -0.0055
vn 0.2071 -0.9604 0.1866
vn 0.0865 -0.9961 0.0148
vn -0.1259 0.9920 0.0066
vn 0.2491 -0.7409 0.6237
vn -0.0117 -0.9699 -0.2433
vn 0.7047 -0.6741 -0.2214
vn 0.0021 -0.9897 -0.1433
vn -0.7080 -0.6788 -0.1946
vn 0.0385 0.6293 0.7762
vn -0.5867 0.8098 -0.0073
vn -0.0031 -0.0049 1.0000
vn 0.0988 -0.9951 0.0009
vn 0.0376 -0.6383 -0.7689
vn -0.6903 -0.3683 -0.6228
vn -0.0018 -0.0050 -1.0000
vn -0.6506 -0.0130 -0.7593
vn -0.6453 0.4071 -0.6464
vn 0.0385 -0.6376 0.7694
vn 0.0381 0.6297 -0.7759
vn 0.0916 0.9958 0.0006
vn -0.0383 -0.0087 -0.9992
vn -0.0382 0.7243 -0.6884
vn -0.0217 0.9998 0.0019
vn -0.0146 -0.7145 0.6995
vn -0.0280 0.0029 0.9996
vn -0.0326 0.7228 0.6903
vn -0.0339 0.0006 -0.9994
vn -0.0183 0.7499 -0.6613
vn -0.0301 0.7519 -0.6586
vn -0.0197 0.9998 0.0002
vn -0.0129 0.9999 0.0002
vn -0.0182 0.7499 0.6613
vn -0.0179 -0.7434 -0.6686
vn -0.0127 -0.9999 0.0002
vn -0.0179 -0.7432 0.6688
vn -0.0130 0.9999 0.0002
vn -0.0183 0.7494 0.6618
vn -0.0188 0.0000 0.9998
vn -0.0176 -0.7422 0.6699
vn -0.0187 0.0002 -0.9998
vn -0.0181 0.7494 -0.6618
vn -0.0176 -0.7424 -0.6698
vn -0.0126 -0.9999 0.0002
vn -0.0179 -0.7428 0.6693
vn -0.0179 -0.7429 -0.6692
vn -0.0187 -0.0000 0.9998
vn -0.0189 0.0001 -0.9998
vn -0.0308 0.7522 0.6583
vn -0.7757 -0.0006 0.6311
vn -0.8098 -0.0005 -0.5867
vn -0.8427 -0.0000 0.5384
vn -0.5126 -0.7996 0.3128
vn -0.4755 0.8249 0.3057
vn -0.0511 -0.9987 0.0002
vn -0.1979 -0.7864 0.5852
vn -0.2208 -0.0000 0.9753
vn -0.1965 0.7921 0.5778
vn -0.0908 0.9959 -0.0033
vn -0.1495 -0.9888 -0.0038
vn -0.1375 -0.7685 -0.6249
vn -0.1318 -0.0001 -0.9913
vn -0.1372 0.7742 -0.6179
vn -0.0509 0.9987 0.0002
vn 0.0022 -0.9991 -0.0421
vn -0.7292 -0.6820 -0.0567
vn 0.7315 -0.6794 -0.0566
vn 0.0004 1.0000 0.0027
vn -0.0018 0.9998 -0.0207
vn 0.0740 0.0000 0.9973
vn 0.0526 -0.7051 0.7072
vn 0.0851 0.0000 0.9964
vn 0.0594 -0.7164 0.6952
vn 0.0004 -1.0000 0.0027
vn -0.0018 -0.9998 -0.0207
vn -0.0524 -0.7077 -0.7045
vn -0.0611 -0.6956 -0.7158
vn -0.0744 0.0000 -0.9972
vn -0.0851 0.0000 -0.9964
vn -0.0611 0.6956 -0.7158
vn 0.0594 0.7164 0.6952
vn 0.0526 0.7051 0.7072
# 449 vertex normals

vt 0.1093 0.2206 0.0000
vt 0.1175 0.2207 0.0000
vt 0.1170 0.2426 0.0000
vt 0.1183 0.1994 0.0000
vt 0.1184 0.1930 0.0000
vt 0.1184 0.0665 0.0000
vt 0.1346 0.0665 0.0000
vt 0.2320 0.2333 0.0000
vt 0.2482 0.1930 0.0000
vt 0.2482 0.2333 0.0000
vt 0.2320 0.1930 0.0000
vt 0.2482 0.0665 0.0000
vt 0.2320 0.2720 0.0000
vt 0.2158 0.2333 0.0000
vt 0.1265 0.2287 0.0000
vt 0.1431 0.2210 0.0000
vt 0.1431 0.2286 0.0000
vt 0.1509 0.0665 0.0000
vt 0.1346 0.1930 0.0000
vt 0.1184 0.2333 0.0000
vt 0.1256 0.2428 0.0000
vt 0.1346 0.2333 0.0000
vt 0.1509 0.1930 0.0000
vt 0.1509 0.2333 0.0000
vt 0.1671 0.2333 0.0000
vt 0.1671 0.1930 0.0000
vt 0.1833 0.2333 0.0000
vt 0.1833 0.1930 0.0000
vt 0.1995 0.2333 0.0000
vt 0.1995 0.1930 0.0000
vt 0.2158 0.1930 0.0000
vt 0.2320 0.0665 0.0000
vt 0.1671 0.0665 0.0000
vt 0.1833 0.0665 0.0000
vt 0.1995 0.0665 0.0000
vt 0.2158 0.0665 0.0000
vt 0.1213 0.0760 0.0000
vt 0.1154 0.0760 0.0000
vt 0.1156 0.0824 0.0000
vt 0.1080 0.0824 0.0000
vt 0.1080 0.0760 0.0000
vt 0.1216 0.0824 0.0000
vt 0.1158 0.0889 0.0000
vt 0.1080 0.0889 0.0000
vt 0.1003 0.0760 0.0000
vt 0.1001 0.0824 0.0000
vt 0.0953 0.0760 0.0000
vt 0.0951 0.0824 0.0000
vt 0.0999 0.0889 0.0000
vt 0.1724 0.1389 0.0000
vt 0.1758 0.1331 0.0000
vt 0.1755 0.1389 0.0000
vt 0.1890 0.1389 0.0000
vt 0.2019 0.1331 0.0000
vt 0.2025 0.1389 0.0000
vt 0.6453 0.6419 0.0000
vt 0.6453 0.6965 0.0000
vt 0.5755 0.6899 0.0000
vt 0.1667 0.7472 0.0000
vt 0.2017 0.7686 0.0000
vt 0.1522 0.7686 0.0000
vt 0.2037 0.7217 0.0000
vt 0.1646 0.7370 0.0000
vt 0.1599 0.7339 0.0000
vt 0.1484 0.7632 0.0000
vt 0.2429 0.7370 0.0000
vt 0.2476 0.7339 0.0000
vt 0.2591 0.7632 0.0000
vt 0.6453 0.7358 0.0000
vt 0.5737 0.7278 0.0000
vt 0.2512 0.7686 0.0000
vt 0.2367 0.7472 0.0000
vt 0.2017 0.7383 0.0000
vt 0.2658 0.7632 0.0000
vt 0.2037 0.7261 0.0000
vt 0.1417 0.7632 0.0000
vt 0.5754 0.6419 0.0000
vt 0.5752 0.5938 0.0000
vt 0.6453 0.5868 0.0000
vt 0.5731 0.5559 0.0000
vt 0.6453 0.5475 0.0000
vt 0.1011 0.2095 0.0000
vt 0.0939 0.2185 0.0000
vt 0.1090 0.1980 0.0000
vt 0.0990 0.0760 0.0000
vt 0.0988 0.0824 0.0000
vt 0.2129 0.1426 0.0000
vt 0.2154 0.1346 0.0000
vt 0.2110 0.1429 0.0000
vt 0.2321 0.0725 0.0000
vt 0.2420 0.0730 0.0000
vt 0.2462 0.1257 0.0000
vt 0.2457 0.1184 0.0000
vt 0.2477 0.1258 0.0000
vt 0.2129 0.1432 0.0000
vt 0.2154 0.1350 0.0000
vt 0.2321 0.1427 0.0000
vt 0.1130 0.0582 0.0000
vt 0.1178 0.0582 0.0000
vt 0.1080 0.0582 0.0000
vt 0.0982 0.0582 0.0000
vt 0.1011 0.0582 0.0000
vt 0.2825 0.1635 0.0000
vt 0.2902 0.1716 0.0000
vt 0.2821 0.1784 0.0000
vt 0.1211 0.0653 0.0000
vt 0.1152 0.0653 0.0000
vt 0.1288 0.1586 0.0000
vt 0.1081 0.1794 0.0000
vt 0.0998 0.1641 0.0000
vt 0.2321 0.0897 0.0000
vt 0.2440 0.0766 0.0000
vt 0.2444 0.0898 0.0000
vt 0.2457 0.0898 0.0000
vt 0.2452 0.0766 0.0000
vt 0.1080 0.0653 0.0000
vt 0.1025 0.0582 0.0000
vt 0.1006 0.0653 0.0000
vt 0.0956 0.0653 0.0000
vt 0.2321 0.0964 0.0000
vt 0.2447 0.0964 0.0000
vt 0.2460 0.0964 0.0000
vt 0.2446 0.0898 0.0000
vt 0.2180 0.0964 0.0000
vt 0.2195 0.0898 0.0000
vt 0.2192 0.0964 0.0000
vt 0.2183 0.0898 0.0000
vt 0.2321 0.1021 0.0000
vt 0.2449 0.1022 0.0000
vt 0.2463 0.1022 0.0000
vt 0.2178 0.1022 0.0000
vt 0.2190 0.1022 0.0000
vt 0.1218 0.0889 0.0000
vt 0.0921 0.1725 0.0000
vt 0.0997 0.1831 0.0000
vt 0.1003 0.1966 0.0000
vt 0.2212 0.0730 0.0000
vt 0.2221 0.0730 0.0000
vt 0.2322 0.0760 0.0000
vt 0.2442 0.0766 0.0000
vt 0.2676 0.1481 0.0000
vt 0.2540 0.1549 0.0000
vt 0.2694 0.1775 0.0000
vt 0.2714 0.1916 0.0000
vt 0.2816 0.1923 0.0000
vt 0.2816 0.2055 0.0000
vt 0.0949 0.0889 0.0000
vt 0.0986 0.0889 0.0000
vt 0.2321 0.1257 0.0000
vt 0.2321 0.1184 0.0000
vt 0.2182 0.1184 0.0000
vt 0.2169 0.1184 0.0000
vt 0.2199 0.0766 0.0000
vt 0.2321 0.0760 0.0000
vt 0.2418 0.0730 0.0000
vt 0.2429 0.0730 0.0000
vt 0.0992 0.0653 0.0000
vt 0.1218 0.1775 0.0000
vt 0.2188 0.0766 0.0000
vt 0.2322 0.0897 0.0000
vt 0.2471 0.1185 0.0000
vt 0.2459 0.1185 0.0000
vt 0.1162 0.1033 0.0000
vt 0.1080 0.1033 0.0000
vt 0.2510 0.1423 0.0000
vt 0.2485 0.1343 0.0000
vt 0.2321 0.1347 0.0000
vt 0.2177 0.1257 0.0000
vt 0.2138 0.1348 0.0000
vt 0.2163 0.1257 0.0000
vt 0.2451 0.1022 0.0000
vt 0.2322 0.1185 0.0000
vt 0.2502 0.1357 0.0000
vt 0.2322 0.1021 0.0000
vt 0.1222 0.1033 0.0000
vt 0.0982 0.1033 0.0000
vt 0.0945 0.1033 0.0000
vt 0.0996 0.1033 0.0000
vt 0.1890 0.0447 0.0000
vt 0.1966 0.0447 0.0000
vt 0.1738 0.1036 0.0000
vt 0.1735 0.1128 0.0000
vt 0.1766 0.1128 0.0000
vt 0.1769 0.1036 0.0000
vt 0.1890 0.1128 0.0000
vt 0.2035 0.1036 0.0000
vt 0.2037 0.1128 0.0000
vt 0.2010 0.1128 0.0000
vt 0.1774 0.0944 0.0000
vt 0.1890 0.1036 0.0000
vt 0.1743 0.0944 0.0000
vt 0.2030 0.0944 0.0000
vt 0.2002 0.0944 0.0000
vt 0.1469 0.0384 0.0000
vt 0.1554 0.0384 0.0000
vt 0.1469 0.0377 0.0000
vt 0.0965 0.1392 0.0000
vt 0.0970 0.1344 0.0000
vt 0.1080 0.1392 0.0000
vt 0.0916 0.1392 0.0000
vt 0.0933 0.1344 0.0000
vt 0.1810 0.0447 0.0000
vt 0.1784 0.0650 0.0000
vt 0.1755 0.0650 0.0000
vt 0.1782 0.0722 0.0000
vt 0.1173 0.1392 0.0000
vt 0.1172 0.1344 0.0000
vt 0.1236 0.1392 0.0000
vt 0.1232 0.1344 0.0000
vt 0.1470 0.0629 0.0000
vt 0.1575 0.0469 0.0000
vt 0.1578 0.0629 0.0000
vt 0.1613 0.0628 0.0000
vt 0.1610 0.0456 0.0000
vt 0.2007 0.1036 0.0000
vt 0.2019 0.0525 0.0000
vt 0.1990 0.0525 0.0000
vt 0.2022 0.0650 0.0000
vt 0.1993 0.0650 0.0000
vt 0.1890 0.0650 0.0000
vt 0.1355 0.0384 0.0000
vt 0.1383 0.0384 0.0000
vt 0.1470 0.0456 0.0000
vt 0.1575 0.0456 0.0000
vt 0.1752 0.0722 0.0000
vt 0.1890 0.0722 0.0000
vt 0.1786 0.0447 0.0000
vt 0.1890 0.0525 0.0000
vt 0.1326 0.0628 0.0000
vt 0.1364 0.0469 0.0000
vt 0.1361 0.0629 0.0000
vt 0.1470 0.0469 0.0000
vt 0.1554 0.0398 0.0000
vt 0.1583 0.0384 0.0000
vt 0.1789 0.0525 0.0000
vt 0.1759 0.0525 0.0000
vt 0.1989 0.0447 0.0000
vt 0.1995 0.0722 0.0000
vt 0.2024 0.0722 0.0000
vt 0.1469 0.0398 0.0000
vt 0.1383 0.0398 0.0000
vt 0.1329 0.0456 0.0000
vt 0.1364 0.0456 0.0000
vt 0.0969 0.1392 0.0000
vt 0.0984 0.1344 0.0000
vt 0.1080 0.1344 0.0000
vt 0.1166 0.1193 0.0000
vt 0.1224 0.1193 0.0000
vt 0.1221 0.1109 0.0000
vt 0.1162 0.1109 0.0000
vt 0.1080 0.1193 0.0000
vt 0.1080 0.1109 0.0000
vt 0.0980 0.1109 0.0000
vt 0.1890 0.0944 0.0000
vt 0.0978 0.1193 0.0000
vt 0.0944 0.1109 0.0000
vt 0.0942 0.1193 0.0000
vt 0.0992 0.1193 0.0000
vt 0.1890 0.0793 0.0000
vt 0.1779 0.0793 0.0000
vt 0.1162 0.1493 0.0000
vt 0.0985 0.2431 0.0000
vt 0.1084 0.2425 0.0000
vt 0.1763 0.2417 0.0000
vt 0.1686 0.2208 0.0000
vt 0.1763 0.2205 0.0000
vt 0.2115 0.2415 0.0000
vt 0.2206 0.2312 0.0000
vt 0.2198 0.2419 0.0000
vt 0.1605 0.2286 0.0000
vt 0.1697 0.2420 0.0000
vt 0.1619 0.2425 0.0000
vt 0.2659 0.2423 0.0000
vt 0.2639 0.2120 0.0000
vt 0.2749 0.2118 0.0000
vt 0.1881 0.2415 0.0000
vt 0.1887 0.2163 0.0000
vt 0.2141 0.2119 0.0000
vt 0.2046 0.2110 0.0000
vt 0.2046 0.2413 0.0000
vt 0.1939 0.2424 0.0000
vt 0.1916 0.2163 0.0000
vt 0.2571 0.2312 0.0000
vt 0.8555 0.6001 0.0000
vt 0.8584 0.6316 0.0000
vt 0.8455 0.6300 0.0000
vt 0.8199 0.5551 0.0000
vt 0.8456 0.5719 0.0000
vt 0.8200 0.5598 0.0000
vt 0.8583 0.5681 0.0000
vt 0.8657 0.5990 0.0000
vt 0.1727 0.1331 0.0000
vt 0.1889 0.1331 0.0000
vt 0.2045 0.1331 0.0000
vt 0.1890 0.1331 0.0000
vt 0.0993 0.1109 0.0000
vt 0.1331 0.2429 0.0000
vt 0.2493 0.2425 0.0000
vt 0.2569 0.2425 0.0000
vt 0.1316 0.1021 0.0000
vt 0.1352 0.1115 0.0000
vt 0.1354 0.1021 0.0000
vt 0.1470 0.1115 0.0000
vt 0.1585 0.1021 0.0000
vt 0.1587 0.1115 0.0000
vt 0.1623 0.1021 0.0000
vt 0.1625 0.1115 0.0000
vt 0.1470 0.1021 0.0000
vt 0.1357 0.0935 0.0000
vt 0.1314 0.1115 0.0000
vt 0.1619 0.0935 0.0000
vt 0.1582 0.0935 0.0000
vt 0.1470 0.0935 0.0000
vt 0.1346 0.0514 0.0000
vt 0.1509 0.0514 0.0000
vt 0.2512 0.1460 0.0000
vt 0.2487 0.1372 0.0000
vt 0.2322 0.1443 0.0000
vt 0.2058 0.1531 0.0000
vt 0.2210 0.1567 0.0000
vt 0.1963 0.1741 0.0000
vt 0.1730 0.1812 0.0000
vt 0.1882 0.1751 0.0000
vt 0.1890 0.1980 0.0000
vt 0.1184 0.0514 0.0000
vt 0.1431 0.2003 0.0000
vt 0.1668 0.2007 0.0000
vt 0.1751 0.2005 0.0000
vt 0.2387 0.1767 0.0000
vt 0.2392 0.1934 0.0000
vt 0.2225 0.1784 0.0000
vt 0.2196 0.1933 0.0000
vt 0.2392 0.2125 0.0000
vt 0.2127 0.1800 0.0000
vt 0.2098 0.1932 0.0000
vt 0.2859 0.2180 0.0000
vt 0.2865 0.2113 0.0000
vt 0.2592 0.1923 0.0000
vt 0.2558 0.1767 0.0000
vt 0.2375 0.1550 0.0000
vt 0.0904 0.2113 0.0000
vt 0.1431 0.1611 0.0000
vt 0.1640 0.1804 0.0000
vt 0.1431 0.1790 0.0000
vt 0.2390 0.2313 0.0000
vt 0.2320 0.0514 0.0000
vt 0.2158 0.0514 0.0000
vt 0.1995 0.0514 0.0000
vt 0.1833 0.0514 0.0000
vt 0.1671 0.0514 0.0000
vt 0.1752 0.1569 0.0000
vt 0.1612 0.1618 0.0000
vt 0.2482 0.0514 0.0000
vt 0.1908 0.1972 0.0000
vt 0.2529 0.1440 0.0000
vt 0.2322 0.1359 0.0000
vt 0.2322 0.1258 0.0000
vt 0.2464 0.1258 0.0000
vt 0.5190 0.5996 0.0000
vt 0.4839 0.6019 0.0000
vt 0.4936 0.5647 0.0000
vt 0.5185 0.6419 0.0000
vt 0.4827 0.6419 0.0000
vt 0.4862 0.6827 0.0000
vt 0.5232 0.5634 0.0000
vt 0.5204 0.6846 0.0000
vt 0.4945 0.7197 0.0000
vt 0.5239 0.7208 0.0000
vt 0.1749 0.0793 0.0000
vt 0.1997 0.0793 0.0000
vt 0.2026 0.0793 0.0000
vt 0.1320 0.0935 0.0000
vt 0.1359 0.0777 0.0000
vt 0.1470 0.0777 0.0000
vt 0.1580 0.0777 0.0000
vt 0.1470 0.0705 0.0000
vt 0.1579 0.0705 0.0000
vt 0.1615 0.0705 0.0000
vt 0.1578 0.0628 0.0000
vt 0.1324 0.0705 0.0000
vt 0.1360 0.0705 0.0000
vt 0.1361 0.0628 0.0000
vt 0.1470 0.0628 0.0000
vt 0.1616 0.0777 0.0000
vt 0.1323 0.0777 0.0000
vt 0.2553 0.2532 0.0000
vt 0.2519 0.2532 0.0000
vt 0.2861 0.2438 0.0000
vt 0.2748 0.2425 0.0000
vt 0.1564 0.2527 0.0000
vt 0.1543 0.2427 0.0000
vt 0.1582 0.2527 0.0000
vt 0.2253 0.2526 0.0000
vt 0.2234 0.2526 0.0000
vt 0.2274 0.2420 0.0000
vt 0.1272 0.2534 0.0000
vt 0.1306 0.2534 0.0000
vt 0.1470 0.1333 0.0000
vt 0.1599 0.1333 0.0000
vt 0.1641 0.1333 0.0000
vt 0.1631 0.1392 0.0000
vt 0.1470 0.1392 0.0000
vt 0.1340 0.1333 0.0000
vt 0.1324 0.1392 0.0000
vt 0.1297 0.1333 0.0000
vt 0.1288 0.1392 0.0000
vt 0.1660 0.1392 0.0000
vt 0.2050 0.1389 0.0000
vt 0.2322 0.0964 0.0000
vt 0.2449 0.0964 0.0000
vt 0.2482 0.2720 0.0000
vt 0.2482 0.4014 0.0000
vt 0.1509 0.2720 0.0000
vt 0.1671 0.2720 0.0000
vt 0.1509 0.4014 0.0000
vt 0.1671 0.4014 0.0000
vt 0.1833 0.2720 0.0000
vt 0.1833 0.4014 0.0000
vt 0.1995 0.2720 0.0000
vt 0.1995 0.4014 0.0000
vt 0.2158 0.2720 0.0000
vt 0.2158 0.4014 0.0000
vt 0.2320 0.4014 0.0000
vt 0.1346 0.4014 0.0000
vt 0.1346 0.2720 0.0000
vt 0.1184 0.4014 0.0000
vt 0.1184 0.2720 0.0000
vt 0.2388 0.2421 0.0000
vt 0.1431 0.2427 0.0000
# 429 texture coords

o Brazo_Izquierda
g Brazo_Izquierda
usemtl peluches_Conejo_peluche_pasted__aiStandardSurface2SG
s off
f 1/1/1 2/2/2 3/3/3 
f 1/1/1 4/4/4 2/2/2 
f 5/5/5 6/6/6 7/7/7 
f 8/8/8 5/9/5 9/10/9 
f 8/8/8 10/11/10 5/9/5 
f 10/11/10 6/12/6 5/9/5 
f 11/13/11 12/14/12 8/8/8 
f 12/14/12 10/11/10 8/8/8 
f 13/15/13 14/16/14 15/17/15 
f 16/18/16 17/19/17 7/7/7 
f 17/19/17 5/5/5 7/7/7 
f 17/19/17 9/20/9 5/5/5 
f 14/16/14 2/2/2 4/4/4 
f 14/16/14 13/15/13 2/2/2 
f 13/15/13 3/3/3 2/2/2 
f 13/15/13 18/21/18 3/3/3 
f 19/22/19 20/23/20 21/24/21 
f 20/23/20 22/25/22 21/24/21 
f 20/23/20 23/26/23 22/25/22 
f 23/26/23 24/27/24 22/25/22 
f 23/26/23 25/28/25 24/27/24 
f 25/28/25 26/29/26 24/27/24 
f 25/28/25 27/30/27 26/29/26 
f 27/30/27 12/14/12 26/29/26 
f 27/30/27 28/31/28 12/14/12 
f 28/31/28 10/11/10 12/14/12 
f 28/31/28 29/32/29 10/11/10 
f 29/32/29 6/12/6 10/11/10 
f 9/20/9 17/19/17 19/22/19 
f 17/19/17 20/23/20 19/22/19 
f 17/19/17 16/18/16 20/23/20 
f 16/18/16 23/26/23 20/23/20 
f 16/18/16 30/33/30 23/26/23 
f 30/33/30 25/28/25 23/26/23 
f 30/33/30 31/34/31 25/28/25 
f 31/34/31 27/30/27 25/28/25 
f 31/34/31 32/35/32 27/30/27 
f 32/35/32 28/31/28 27/30/27 
f 32/35/32 33/36/33 28/31/28 
f 33/36/33 29/32/29 28/31/28 
f 34/37/34 35/38/35 36/39/36 
f 35/38/35 37/40/37 36/39/36 
f 35/38/35 38/41/38 37/40/37 
f 39/42/39 36/39/36 40/43/40 
f 36/39/36 41/44/41 40/43/40 
f 36/39/36 37/40/37 41/44/41 
f 34/37/34 36/39/36 39/42/39 
f 38/41/38 42/45/42 37/40/37 
f 42/45/42 43/46/43 37/40/37 
f 42/45/42 44/47/44 43/46/43 
f 44/47/44 45/48/45 43/46/43 
f 37/40/37 43/46/43 41/44/41 
f 43/46/43 46/49/46 41/44/41 
f 43/46/43 45/48/45 46/49/46 
f 47/50/47 48/51/48 49/52/49 
f 48/51/48 50/53/50 49/52/49 
f 50/53/50 51/54/51 52/55/52 
f 53/56/53 54/57/54 55/58/55 
f 56/56/56 57/57/57 58/58/58 
f 59/59/59 60/60/60 61/61/61 
f 60/60/60 62/59/62 61/61/61 
f 53/62/53 59/63/59 54/64/54 
f 59/63/59 61/65/61 54/64/54 
f 56/62/56 63/66/63 57/67/57 
f 63/66/63 64/68/64 57/67/57 
f 65/69/65 66/70/66 54/57/54 
f 66/70/66 55/58/55 54/57/54 
f 67/69/67 68/70/68 57/57/57 
f 68/70/68 58/58/58 57/57/57 
f 64/71/64 60/60/60 69/72/69 
f 60/60/60 70/73/70 69/72/69 
f 60/60/60 59/59/59 70/73/70 
f 62/59/62 60/60/60 71/73/71 
f 60/60/60 63/72/63 71/73/71 
f 60/60/60 64/71/64 63/72/63 
f 57/67/57 64/68/64 67/74/67 
f 64/68/64 72/67/72 67/74/67 
f 64/68/64 69/66/69 72/67/72 
f 69/66/69 53/62/53 72/67/72 
f 69/66/69 70/75/70 53/62/53 
f 70/75/70 59/63/59 53/62/53 
f 63/66/63 56/62/56 71/75/71 
f 56/62/56 62/63/62 71/75/71 
f 56/62/56 73/64/73 62/63/62 
f 73/64/73 61/65/61 62/63/62 
f 73/64/73 65/76/65 61/65/61 
f 65/76/65 54/64/54 61/65/61 
f 74/77/74 53/56/53 55/58/55 
f 74/77/74 75/78/75 53/56/53 
f 75/78/75 72/79/72 53/56/53 
f 75/78/75 68/80/68 72/79/72 
f 68/80/68 67/81/67 72/79/72 
f 76/77/76 56/56/56 58/58/58 
f 76/77/76 77/78/77 56/56/56 
f 77/78/77 73/79/73 56/56/56 
f 77/78/77 66/80/66 73/79/73 
f 66/80/66 65/81/65 73/79/73 
f 78/82/78 1/1/1 79/83/79 
f 78/82/78 80/84/80 1/1/1 
f 81/85/81 82/41/82 83/40/83 
f 84/86/84 83/40/83 85/44/85 
f 86/87/86 87/88/87 88/89/88 
f 89/90/89 90/91/90 91/90/91 
f 92/92/92 93/93/93 94/94/94 
f 95/95/95 96/96/96 97/97/97 
f 98/98/98 99/99/99 100/100/100 
f 101/101/101 100/100/100 102/102/102 
f 103/103/103 88/104/88 95/105/95 
f 104/106/104 105/107/105 35/38/35 
f 105/107/105 38/41/38 35/38/35 
f 106/108/106 107/109/107 103/110/103 
f 108/111/108 109/112/109 110/113/110 
f 109/112/109 111/114/111 110/113/110 
f 109/112/109 112/115/112 111/114/111 
f 113/100/113 114/98/114 115/116/115 
f 114/98/114 116/107/116 115/116/115 
f 114/98/114 104/106/104 116/107/116 
f 117/100/117 118/117/118 119/116/119 
f 118/117/118 120/118/120 119/116/119 
f 118/117/118 121/119/121 120/118/120 
f 122/120/122 110/113/110 123/121/123 
f 110/113/110 124/122/124 123/121/123 
f 110/113/110 111/114/111 124/122/124 
f 111/114/111 125/123/125 124/122/124 
f 126/124/126 127/125/127 128/126/128 
f 127/125/127 122/120/122 128/126/128 
f 127/125/127 108/111/108 122/120/122 
f 108/111/108 110/113/110 122/120/122 
f 129/125/129 130/127/130 126/124/126 
f 130/127/130 127/125/127 126/124/126 
f 131/128/131 123/121/123 132/129/132 
f 123/121/123 133/130/133 132/129/132 
f 123/121/123 124/122/124 133/130/133 
f 134/131/134 128/126/128 135/132/135 
f 128/126/128 131/128/131 135/132/135 
f 128/126/128 122/120/122 131/128/131 
f 122/120/122 123/121/123 131/128/131 
f 126/124/126 128/126/128 134/131/134 
f 82/41/82 136/38/136 83/40/83 
f 136/38/136 137/39/137 83/40/83 
f 136/38/136 34/37/34 137/39/137 
f 34/37/34 39/42/39 137/39/137 
f 83/40/83 137/39/137 85/44/85 
f 137/39/137 138/43/138 85/44/85 
f 137/39/137 39/42/39 138/43/138 
f 39/42/39 139/133/139 138/43/138 
f 39/42/39 40/43/40 139/133/139 
f 103/110/103 107/109/107 88/134/88 
f 107/109/107 86/135/86 88/134/88 
f 107/109/107 80/84/80 86/135/86 
f 80/84/80 140/136/140 86/135/86 
f 80/84/80 78/82/78 140/136/140 
f 141/137/141 142/138/142 91/90/91 
f 142/138/142 89/90/89 91/90/91 
f 142/138/142 143/139/143 89/90/89 
f 143/139/143 90/91/90 89/90/89 
f 143/139/143 144/140/144 90/91/90 
f 115/116/115 116/107/116 82/41/82 
f 116/107/116 136/38/136 82/41/82 
f 116/107/116 104/106/104 136/38/136 
f 104/106/104 34/37/34 136/38/136 
f 104/106/104 35/38/35 34/37/34 
f 145/141/145 103/103/103 146/142/146 
f 103/103/103 147/143/147 146/142/146 
f 103/103/103 95/105/95 147/143/147 
f 95/105/95 148/144/148 147/143/147 
f 95/105/95 97/145/97 148/144/148 
f 97/145/97 149/146/149 148/144/148 
f 44/47/44 81/85/81 45/48/45 
f 81/85/81 84/86/84 45/48/45 
f 81/85/81 83/40/83 84/86/84 
f 45/48/45 150/147/150 46/49/46 
f 45/48/45 84/86/84 150/147/150 
f 84/86/84 151/148/151 150/147/150 
f 84/86/84 85/44/85 151/148/151 
f 92/92/92 152/149/152 93/93/93 
f 152/149/152 153/150/153 93/93/93 
f 152/149/152 154/151/154 153/150/153 
f 154/151/154 135/132/135 153/150/153 
f 154/151/154 155/152/155 135/132/135 
f 155/152/155 134/131/134 135/132/135 
f 155/152/155 156/132/156 134/131/134 
f 130/127/130 157/153/157 127/125/127 
f 157/153/157 108/111/108 127/125/127 
f 157/153/157 158/154/158 108/111/108 
f 158/154/158 109/112/109 108/111/108 
f 158/154/158 159/155/159 109/112/109 
f 159/155/159 112/115/112 109/112/109 
f 159/155/159 160/156/160 112/115/112 
f 161/157/161 121/119/121 102/102/102 
f 121/119/121 101/101/101 102/102/102 
f 121/119/121 118/117/118 101/101/101 
f 118/117/118 100/100/100 101/101/101 
f 118/117/118 117/100/117 100/100/100 
f 117/100/117 98/98/98 100/100/100 
f 117/100/117 119/116/119 98/98/98 
f 80/84/80 107/109/107 4/4/4 
f 107/109/107 162/158/162 4/4/4 
f 107/109/107 106/108/106 162/158/162 
f 163/90/163 164/138/164 91/90/91 
f 164/138/164 141/137/141 91/90/91 
f 164/138/164 165/159/165 141/137/141 
f 165/159/165 142/138/142 141/137/141 
f 165/159/165 166/153/166 142/138/142 
f 166/153/166 143/139/143 142/138/142 
f 166/153/166 167/160/167 143/139/143 
f 167/160/167 144/140/144 143/139/143 
f 167/160/167 125/123/125 144/140/144 
f 167/160/167 166/153/166 129/125/129 
f 166/153/166 130/127/130 129/125/129 
f 166/153/166 165/159/165 130/127/130 
f 165/159/165 157/153/157 130/127/130 
f 165/159/165 164/138/164 157/153/157 
f 164/138/164 158/154/158 157/153/157 
f 164/138/164 163/90/163 158/154/158 
f 163/90/163 159/155/159 158/154/158 
f 163/90/163 91/90/91 159/155/159 
f 91/90/91 160/156/160 159/155/159 
f 91/90/91 90/91/90 160/156/160 
f 90/91/90 112/115/112 160/156/160 
f 90/91/90 144/140/144 112/115/112 
f 144/140/144 111/114/111 112/115/112 
f 144/140/144 125/123/125 111/114/111 
f 95/95/95 88/89/88 96/96/96 
f 94/94/94 168/161/168 169/162/169 
f 94/94/94 93/93/93 168/161/168 
f 93/93/93 132/129/132 168/161/168 
f 93/93/93 153/150/153 132/129/132 
f 153/150/153 131/128/131 132/129/132 
f 153/150/153 135/132/135 131/128/131 
f 170/163/170 40/43/40 171/164/171 
f 170/163/170 139/133/139 40/43/40 
f 81/85/81 161/157/161 82/41/82 
f 161/157/161 115/116/115 82/41/82 
f 161/157/161 102/102/102 115/116/115 
f 102/102/102 113/100/113 115/116/115 
f 102/102/102 100/100/100 113/100/113 
f 100/100/100 114/98/114 113/100/113 
f 100/100/100 99/99/99 114/98/114 
f 99/99/99 104/106/104 114/98/114 
f 99/99/99 98/98/98 104/106/104 
f 98/98/98 105/107/105 104/106/104 
f 98/98/98 119/116/119 105/107/105 
f 119/116/119 38/41/38 105/107/105 
f 119/116/119 120/118/120 38/41/38 
f 120/118/120 42/45/42 38/41/38 
f 120/118/120 121/119/121 42/45/42 
f 121/119/121 44/47/44 42/45/42 
f 121/119/121 161/157/161 44/47/44 
f 161/157/161 81/85/81 44/47/44 
f 149/165/149 97/97/97 172/166/172 
f 97/97/97 173/167/173 172/166/172 
f 97/97/97 96/96/96 173/167/173 
f 96/96/96 174/168/174 173/167/173 
f 96/96/96 175/169/175 174/168/174 
f 175/169/175 176/170/176 174/168/174 
f 169/162/169 177/171/177 178/172/178 
f 169/162/169 168/161/168 177/171/177 
f 168/161/168 133/130/133 177/171/177 
f 168/161/168 132/129/132 133/130/133 
f 179/173/179 172/166/172 94/94/94 
f 172/166/172 92/92/92 94/94/94 
f 172/166/172 173/167/173 92/92/92 
f 173/167/173 152/149/152 92/92/92 
f 173/167/173 174/168/174 152/149/152 
f 174/168/174 154/151/154 152/149/152 
f 174/168/174 176/170/176 154/151/154 
f 176/170/176 155/152/155 154/151/154 
f 176/170/176 180/151/180 155/152/155 
f 180/151/180 156/132/156 155/152/155 
f 180/151/180 178/172/178 156/132/156 
f 178/172/178 181/174/181 156/132/156 
f 178/172/178 177/171/177 181/174/181 
f 182/175/182 139/133/139 170/163/170 
f 182/175/182 183/163/183 139/133/139 
f 183/163/183 138/43/138 139/133/139 
f 183/163/183 184/164/184 138/43/138 
f 184/164/184 85/44/85 138/43/138 
f 184/164/184 151/148/151 85/44/85 
f 185/176/185 151/148/151 184/164/184 
f 185/176/185 186/177/186 151/148/151 
f 186/177/186 150/147/150 151/148/151 
f 186/177/186 187/178/187 150/147/150 
f 187/178/187 46/49/46 150/147/150 
f 187/178/187 171/164/171 46/49/46 
f 171/164/171 41/44/41 46/49/46 
f 171/164/171 40/43/40 41/44/41 
f 188/179/188 189/179/189 190/180/190 
f 191/181/191 192/182/192 193/183/193 
f 194/183/194 195/184/195 196/185/196 
f 197/186/197 198/187/198 199/188/199 
f 200/189/200 201/184/201 202/190/202 
f 203/191/203 204/189/204 191/181/191 
f 205/192/205 206/193/206 197/186/197 
f 207/194/207 208/195/208 209/196/209 
f 210/197/210 211/198/211 212/199/212 
f 213/200/213 214/201/214 210/197/210 
f 215/202/215 216/179/216 189/179/189 
f 217/203/217 218/204/218 219/205/219 
f 220/206/220 221/207/221 222/208/222 
f 221/207/221 223/209/223 222/208/222 
f 222/208/222 224/207/224 225/206/225 
f 224/207/224 226/199/226 225/206/225 
f 227/210/227 228/211/228 229/212/229 
f 228/211/228 230/213/230 229/212/229 
f 228/211/228 231/214/231 230/213/230 
f 201/184/201 232/185/232 202/190/202 
f 232/185/232 233/215/233 202/190/202 
f 232/185/232 234/188/234 233/215/233 
f 195/184/195 235/190/235 196/185/196 
f 235/190/235 236/215/236 196/185/196 
f 235/190/235 237/193/237 236/215/236 
f 238/216/238 239/217/239 240/218/240 
f 239/217/239 241/219/241 240/218/240 
f 239/217/239 242/220/242 241/219/241 
f 243/221/243 244/222/244 209/196/209 
f 244/222/244 207/194/207 209/196/209 
f 244/222/244 245/223/245 207/194/207 
f 245/223/245 208/195/208 207/194/207 
f 245/223/245 246/224/246 208/195/208 
f 219/205/219 218/204/218 247/225/247 
f 218/204/218 248/205/248 247/225/247 
f 218/204/218 249/203/249 248/205/248 
f 249/203/249 250/226/250 248/205/248 
f 249/203/249 251/220/251 250/226/250 
f 251/220/251 252/219/252 250/226/250 
f 215/202/215 189/179/189 253/227/253 
f 189/179/189 254/202/254 253/227/253 
f 189/179/189 188/179/188 254/202/254 
f 188/179/188 255/228/255 254/202/254 
f 188/179/188 190/180/190 255/228/255 
f 190/180/190 256/217/256 255/228/255 
f 257/229/257 258/230/258 259/231/259 
f 258/230/258 227/210/227 259/231/259 
f 258/230/258 260/232/260 227/210/227 
f 260/232/260 228/211/228 227/210/227 
f 260/232/260 261/233/261 228/211/228 
f 261/233/261 231/214/231 228/211/228 
f 261/233/261 262/234/262 231/214/231 
f 252/219/252 251/220/251 256/217/256 
f 251/220/251 255/228/255 256/217/256 
f 251/220/251 263/235/263 255/228/255 
f 263/235/263 254/202/254 255/228/255 
f 263/235/263 264/236/264 254/202/254 
f 264/236/264 253/227/253 254/202/254 
f 264/236/264 215/202/215 253/227/253 
f 265/237/265 266/180/266 238/216/238 
f 266/180/266 239/217/239 238/216/238 
f 266/180/266 267/228/267 239/217/239 
f 267/228/267 242/220/242 239/217/239 
f 267/228/267 268/235/268 242/220/242 
f 268/235/268 217/203/217 242/220/242 
f 268/235/268 218/204/218 217/203/217 
f 217/203/217 269/226/269 242/220/242 
f 269/226/269 241/219/241 242/220/242 
f 269/226/269 270/238/270 241/219/241 
f 270/238/270 240/218/240 241/219/241 
f 270/238/270 271/239/271 240/218/240 
f 271/239/271 252/219/252 240/218/240 
f 271/239/271 272/238/272 252/219/252 
f 272/238/272 250/226/250 252/219/252 
f 273/240/273 274/241/274 209/196/209 
f 274/241/274 243/221/243 209/196/209 
f 274/241/274 275/242/275 243/221/243 
f 275/242/275 244/222/244 243/221/243 
f 275/242/275 276/243/276 244/222/244 
f 276/243/276 245/223/245 244/222/244 
f 196/185/196 236/215/236 199/188/199 
f 236/215/236 197/186/197 199/188/199 
f 236/215/236 237/193/237 197/186/197 
f 237/193/237 205/192/205 197/186/197 
f 276/243/276 275/242/275 257/229/257 
f 275/242/275 258/230/258 257/229/257 
f 275/242/275 274/241/274 258/230/258 
f 274/241/274 260/232/260 258/230/258 
f 274/241/274 273/240/273 260/232/260 
f 273/240/273 261/233/261 260/232/260 
f 273/240/273 209/196/209 261/233/261 
f 209/196/209 262/234/262 261/233/261 
f 209/196/209 208/195/208 262/234/262 
f 208/195/208 231/214/231 262/234/262 
f 208/195/208 246/224/246 231/214/231 
f 246/224/246 230/213/230 231/214/231 
f 252/219/252 256/217/256 240/218/240 
f 256/217/256 238/216/238 240/218/240 
f 256/217/256 190/180/190 238/216/238 
f 190/180/190 265/237/265 238/216/238 
f 190/180/190 189/179/189 265/237/265 
f 189/179/189 266/180/266 265/237/265 
f 189/179/189 216/179/216 266/180/266 
f 216/179/216 267/228/267 266/180/266 
f 216/179/216 215/202/215 267/228/267 
f 215/202/215 268/235/268 267/228/267 
f 215/202/215 264/236/264 268/235/268 
f 264/236/264 218/204/218 268/235/268 
f 264/236/264 263/235/263 218/204/218 
f 263/235/263 249/203/249 218/204/218 
f 263/235/263 251/220/251 249/203/249 
f 213/200/213 277/244/277 214/201/214 
f 277/244/277 278/245/278 214/201/214 
f 277/244/277 226/199/226 278/245/278 
f 226/199/226 279/246/279 278/245/278 
f 226/199/226 224/207/224 279/246/279 
f 224/207/224 280/247/280 279/246/279 
f 224/207/224 281/248/281 280/247/280 
f 281/248/281 282/249/282 280/247/280 
f 281/248/281 283/247/283 282/249/282 
f 283/247/283 284/250/284 282/249/282 
f 283/247/283 285/251/285 284/250/284 
f 285/251/285 286/252/286 284/250/284 
f 285/251/285 287/253/287 286/252/286 
f 198/187/198 197/186/197 234/188/234 
f 197/186/197 233/215/233 234/188/234 
f 197/186/197 206/193/206 233/215/233 
f 206/193/206 202/190/202 233/215/233 
f 206/193/206 288/254/288 202/190/202 
f 288/254/288 200/189/200 202/190/202 
f 222/208/222 223/209/223 224/207/224 
f 223/209/223 281/248/281 224/207/224 
f 223/209/223 221/207/221 281/248/281 
f 221/207/221 283/247/283 281/248/281 
f 221/207/221 289/246/289 283/247/283 
f 289/246/289 285/251/285 283/247/283 
f 289/246/289 290/255/290 285/251/285 
f 290/255/290 287/253/287 285/251/285 
f 290/255/290 291/256/291 287/253/287 
f 232/185/232 201/184/201 193/183/193 
f 201/184/201 191/181/191 193/183/193 
f 201/184/201 200/189/200 191/181/191 
f 200/189/200 203/191/203 191/181/191 
f 220/206/220 212/199/212 221/207/221 
f 212/199/212 289/246/289 221/207/221 
f 212/199/212 211/198/211 289/246/289 
f 211/198/211 290/255/290 289/246/289 
f 211/198/211 292/257/292 290/255/290 
f 292/257/292 291/256/291 290/255/290 
f 292/257/292 293/258/293 291/256/291 
f 192/182/192 191/181/191 194/183/194 
f 191/181/191 195/184/195 194/183/194 
f 191/181/191 204/189/204 195/184/195 
f 204/189/204 235/190/235 195/184/195 
f 204/189/204 294/254/294 235/190/235 
f 294/254/294 237/193/237 235/190/235 
f 210/197/210 214/201/214 211/198/211 
f 214/201/214 292/257/292 211/198/211 
f 214/201/214 278/245/278 292/257/292 
f 278/245/278 293/258/293 292/257/292 
f 278/245/278 279/246/279 293/258/293 
f 279/246/279 295/251/295 293/258/293 
f 279/246/279 280/247/280 295/251/295 
f 296/259/296 219/205/219 297/260/297 
f 145/261/145 106/108/106 103/110/103 
f 79/83/79 1/1/1 47/262/47 
f 1/1/1 298/263/298 47/262/47 
f 225/264/225 299/265/299 300/266/300 
f 298/263/298 1/1/1 3/3/3 
f 212/267/212 301/268/301 210/269/210 
f 302/270/302 226/271/226 277/272/277 
f 50/273/50 303/274/303 304/275/304 
f 80/84/80 4/4/4 1/1/1 
f 222/276/222 300/266/300 305/277/305 
f 299/265/299 226/271/226 302/270/302 
f 299/265/299 225/264/225 226/271/226 
f 301/268/301 212/267/212 306/278/306 
f 212/267/212 307/279/307 306/278/306 
f 212/267/212 220/280/220 307/279/307 
f 222/281/222 305/282/305 220/280/220 
f 305/282/305 307/279/307 220/280/220 
f 303/274/303 50/273/50 308/283/308 
f 309/284/309 310/285/310 311/286/311 
f 312/287/312 313/288/313 314/289/314 
f 312/287/312 315/290/315 313/288/313 
f 315/290/315 309/284/309 313/288/313 
f 315/290/315 316/291/316 309/284/309 
f 316/291/316 310/285/310 309/284/309 
f 3/53/3 317/51/317 298/52/298 
f 317/51/317 47/50/47 298/52/298 
f 317/51/317 318/292/318 47/50/47 
f 318/292/318 48/51/48 47/50/47 
f 318/292/318 194/183/194 48/51/48 
f 194/183/194 319/293/319 48/51/48 
f 194/183/194 196/185/196 319/293/319 
f 196/185/196 199/188/199 319/293/319 
f 48/51/48 319/293/319 50/53/50 
f 319/293/319 51/54/51 50/53/50 
f 319/293/319 199/188/199 51/54/51 
f 199/188/199 320/294/320 51/54/51 
f 199/188/199 198/187/198 320/294/320 
f 198/187/198 234/188/234 320/294/320 
f 320/294/320 234/188/234 321/54/321 
f 234/188/234 322/295/322 321/54/321 
f 234/188/234 232/185/232 322/295/322 
f 232/185/232 193/183/193 322/295/322 
f 321/54/321 3/53/3 18/55/18 
f 321/54/321 322/295/322 3/53/3 
f 322/295/322 317/51/317 3/53/3 
f 322/295/322 193/183/193 317/51/317 
f 193/183/193 318/292/318 317/51/317 
f 193/183/193 192/182/192 318/292/318 
f 192/182/192 194/183/194 318/292/318 
f 287/253/287 185/176/185 286/252/286 
f 287/253/287 186/177/186 185/176/185 
f 291/256/291 186/177/186 287/253/287 
f 291/256/291 323/296/323 186/177/186 
f 323/296/323 187/178/187 186/177/186 
f 323/296/323 324/252/324 187/178/187 
f 324/252/324 171/164/171 187/178/187 
f 324/252/324 170/163/170 171/164/171 
f 293/258/293 323/296/323 291/256/291 
f 293/258/293 295/251/295 323/296/323 
f 295/251/295 324/252/324 323/296/323 
f 295/251/295 325/250/325 324/252/324 
f 325/250/325 170/163/170 324/252/324 
f 325/250/325 182/175/182 170/163/170 
f 280/247/280 325/250/325 295/251/295 
f 280/247/280 282/249/282 325/250/325 
f 282/249/282 182/175/182 325/250/325 
f 282/249/282 284/250/284 182/175/182 
f 284/250/284 183/163/183 182/175/182 
f 284/250/284 286/252/286 183/163/183 
f 286/252/286 184/164/184 183/163/183 
f 286/252/286 185/176/185 184/164/184 
f 18/21/18 13/15/13 326/297/326 
f 327/298/327 308/283/308 52/299/52 
f 328/300/328 329/301/329 330/302/330 
f 329/301/329 331/303/331 330/302/330 
f 332/303/332 333/304/333 334/305/334 
f 333/304/333 335/306/335 334/305/334 
f 50/273/50 52/299/52 308/283/308 
f 334/305/334 335/306/335 336/307/336 
f 335/306/335 337/305/337 336/307/336 
f 335/306/335 338/304/338 337/305/337 
f 338/304/338 331/303/331 337/305/337 
f 338/304/338 339/308/339 331/303/331 
f 339/308/339 330/302/330 331/303/331 
f 339/308/339 340/309/340 330/302/330 
f 340/309/340 328/300/328 330/302/330 
f 329/301/329 328/300/328 341/310/341 
f 328/300/328 342/301/342 341/310/341 
f 328/300/328 343/302/343 342/301/342 
f 343/302/343 332/303/332 342/301/342 
f 343/302/343 344/308/344 332/303/332 
f 344/308/344 333/304/333 332/303/332 
f 345/311/345 338/304/338 335/306/335 
f 345/311/345 346/312/346 338/304/338 
f 346/312/346 339/308/339 338/304/338 
f 346/312/346 347/313/347 339/308/339 
f 347/313/347 340/309/340 339/308/339 
f 348/314/348 349/315/349 7/7/7 
f 149/146/149 304/275/304 148/144/148 
f 78/316/78 350/317/350 140/318/140 
f 349/319/349 348/320/348 351/321/351 
f 352/322/352 351/323/351 353/324/353 
f 6/6/6 348/314/348 7/7/7 
f 6/6/6 354/325/354 348/314/348 
f 355/326/355 356/327/356 14/16/14 
f 356/327/356 299/265/299 14/16/14 
f 356/327/356 357/328/357 299/265/299 
f 357/328/357 300/266/300 299/265/299 
f 358/329/358 359/330/359 360/331/360 
f 359/330/359 361/332/361 360/331/360 
f 359/330/359 362/333/362 361/332/361 
f 362/333/362 306/278/306 361/332/361 
f 360/331/360 361/332/361 363/334/363 
f 361/332/361 364/335/364 363/334/363 
f 361/332/361 306/278/306 364/335/364 
f 306/278/306 307/279/307 364/335/364 
f 304/275/304 149/146/149 79/336/79 
f 149/146/149 365/337/365 79/336/79 
f 303/274/303 148/144/148 304/275/304 
f 303/274/303 366/338/366 148/144/148 
f 366/338/366 147/143/147 148/144/148 
f 366/338/366 367/339/367 147/143/147 
f 367/339/367 146/142/146 147/143/147 
f 367/339/367 354/340/354 146/142/146 
f 365/341/365 78/82/78 79/83/79 
f 106/108/106 368/342/368 162/158/162 
f 300/266/300 353/324/353 305/277/305 
f 300/266/300 357/328/357 353/324/353 
f 357/328/357 352/322/352 353/324/353 
f 357/328/357 356/327/356 352/322/352 
f 356/327/356 369/343/369 352/322/352 
f 356/327/356 355/326/355 369/343/369 
f 355/326/355 370/344/370 369/343/369 
f 14/16/14 302/270/302 15/17/15 
f 14/16/14 299/265/299 302/270/302 
f 371/345/371 362/333/362 308/283/308 
f 371/345/371 301/268/301 362/333/362 
f 301/268/301 306/278/306 362/333/362 
f 146/346/146 33/36/33 145/347/145 
f 33/36/33 106/348/106 145/347/145 
f 33/36/33 32/35/32 106/348/106 
f 32/35/32 368/349/368 106/348/106 
f 32/35/32 31/34/31 368/349/368 
f 31/34/31 372/350/372 368/349/368 
f 31/34/31 30/33/30 372/350/372 
f 30/33/30 349/315/349 372/350/372 
f 30/33/30 16/18/16 349/315/349 
f 16/18/16 7/7/7 349/315/349 
f 351/323/351 352/322/352 349/351/349 
f 352/322/352 372/352/372 349/351/349 
f 352/322/352 369/343/369 372/352/372 
f 369/343/369 368/342/368 372/352/372 
f 369/343/369 370/344/370 368/342/368 
f 370/344/370 162/158/162 368/342/368 
f 370/344/370 355/326/355 162/158/162 
f 355/326/355 4/4/4 162/158/162 
f 355/326/355 14/16/14 4/4/4 
f 88/89/88 175/169/175 96/96/96 
f 88/89/88 87/88/87 175/169/175 
f 29/32/29 354/353/354 6/12/6 
f 305/282/305 353/354/353 307/279/307 
f 353/354/353 364/335/364 307/279/307 
f 353/354/353 351/321/351 364/335/364 
f 351/321/351 363/334/363 364/335/364 
f 351/321/351 348/320/348 363/334/363 
f 348/320/348 360/331/360 363/334/363 
f 348/320/348 354/340/354 360/331/360 
f 354/340/354 358/329/358 360/331/360 
f 354/340/354 367/339/367 358/329/358 
f 367/339/367 359/330/359 358/329/358 
f 367/339/367 366/338/366 359/330/359 
f 366/338/366 362/333/362 359/330/359 
f 366/338/366 303/274/303 362/333/362 
f 303/274/303 308/283/308 362/333/362 
f 33/36/33 146/346/146 29/32/29 
f 146/346/146 354/353/354 29/32/29 
f 78/316/78 365/355/365 350/317/350 
f 365/355/365 179/173/179 350/317/350 
f 365/355/365 149/165/149 179/173/179 
f 149/165/149 172/166/172 179/173/179 
f 86/87/86 140/318/140 87/88/87 
f 140/318/140 373/356/373 87/88/87 
f 140/318/140 350/317/350 373/356/373 
f 87/88/87 374/168/374 175/169/175 
f 87/88/87 373/356/373 374/168/374 
f 373/356/373 375/357/375 374/168/374 
f 373/356/373 376/358/376 375/357/375 
f 377/359/377 311/360/311 378/361/378 
f 377/359/377 379/362/379 311/360/311 
f 379/362/379 309/363/309 311/360/311 
f 379/362/379 313/364/313 309/363/309 
f 380/365/380 381/359/381 314/361/314 
f 381/359/381 382/360/382 314/361/314 
f 381/359/381 383/362/383 382/360/382 
f 383/362/383 384/363/384 382/360/382 
f 383/362/383 385/364/385 384/363/384 
f 386/366/386 313/364/313 379/362/379 
f 386/366/386 314/367/314 313/364/313 
f 387/366/387 385/364/385 383/362/383 
f 387/366/387 378/367/378 385/364/385 
f 378/367/378 387/366/387 388/368/388 
f 314/367/314 386/366/386 380/368/380 
f 269/226/269 217/203/217 219/205/219 
f 219/205/219 247/225/247 297/260/297 
f 297/260/297 247/225/247 389/369/389 
f 247/225/247 390/260/390 389/369/389 
f 247/225/247 248/205/248 390/260/390 
f 248/205/248 391/259/391 390/260/390 
f 248/205/248 250/226/250 391/259/391 
f 250/226/250 272/238/272 391/259/391 
f 219/205/219 296/259/296 269/226/269 
f 296/259/296 270/238/270 269/226/269 
f 296/259/296 392/370/392 270/238/270 
f 392/370/392 271/239/271 270/238/270 
f 392/370/392 393/371/393 271/239/271 
f 393/371/393 272/238/272 271/239/271 
f 393/371/393 394/370/394 272/238/272 
f 394/370/394 391/259/391 272/238/272 
f 395/372/395 396/373/396 397/309/397 
f 396/373/396 398/313/398 397/309/397 
f 396/373/396 399/374/399 398/313/398 
f 399/374/399 400/375/400 398/313/398 
f 401/373/401 347/313/347 402/374/402 
f 347/313/347 403/375/403 402/374/402 
f 347/313/347 346/312/346 403/375/403 
f 346/312/346 345/311/345 403/375/403 
f 404/376/404 229/212/229 405/377/405 
f 229/212/229 406/378/406 405/377/405 
f 229/212/229 230/213/230 406/378/406 
f 230/213/230 407/379/407 406/378/406 
f 408/380/408 259/231/259 409/381/409 
f 259/231/259 404/376/404 409/381/409 
f 259/231/259 227/210/227 404/376/404 
f 227/210/227 229/212/229 404/376/404 
f 410/382/410 411/376/402 412/383/411 
f 411/376/402 407/379/407 412/383/411 
f 411/376/402 413/377/412 407/379/407 
f 413/377/412 406/378/406 407/379/407 
f 411/376/402 410/382/410 414/381/413 
f 410/382/410 408/380/408 414/381/413 
f 410/382/410 257/229/257 408/380/408 
f 257/229/257 259/231/259 408/380/408 
f 413/377/412 415/384/414 406/378/406 
f 415/384/414 405/377/405 406/378/406 
f 415/384/414 400/375/400 405/377/405 
f 400/375/400 399/374/399 405/377/405 
f 415/384/414 413/377/412 403/375/403 
f 413/377/412 402/374/402 403/375/403 
f 413/377/412 411/376/402 402/374/402 
f 411/376/402 414/381/413 402/374/402 
f 402/374/402 414/381/413 401/373/401 
f 414/381/413 416/385/415 401/373/401 
f 414/381/413 408/380/408 416/385/415 
f 408/380/408 396/373/396 416/385/415 
f 408/380/408 409/381/409 396/373/396 
f 409/381/409 399/374/399 396/373/396 
f 409/381/409 404/376/404 399/374/399 
f 404/376/404 405/377/405 399/374/399 
f 276/243/276 412/383/411 245/223/245 
f 412/383/411 246/224/246 245/223/245 
f 412/383/411 407/379/407 246/224/246 
f 412/383/411 276/243/276 410/382/410 
f 276/243/276 257/229/257 410/382/410 
f 246/224/246 407/379/407 230/213/230 
f 340/309/340 395/372/395 328/300/328 
f 395/372/395 343/302/343 328/300/328 
f 395/372/395 397/309/397 343/302/343 
f 397/309/397 344/308/344 343/302/343 
f 397/309/397 398/313/398 344/308/344 
f 398/313/398 417/312/416 344/308/344 
f 398/313/398 400/375/400 417/312/416 
f 400/375/400 345/311/345 417/312/416 
f 400/375/400 415/384/414 345/311/345 
f 415/384/414 403/375/403 345/311/345 
f 344/308/344 417/312/416 333/304/333 
f 417/312/416 335/306/335 333/304/333 
f 417/312/416 345/311/345 335/306/335 
f 347/313/347 401/373/401 340/309/340 
f 401/373/401 395/372/395 340/309/340 
f 401/373/401 416/385/415 395/372/395 
f 416/385/415 396/373/396 395/372/395 
f 418/386/417 419/387/418 52/299/52 
f 47/388/47 49/389/49 79/336/79 
f 420/390/419 421/391/420 213/392/213 
f 421/391/420 277/272/277 213/392/213 
f 420/393/419 213/394/213 422/395/421 
f 213/394/213 210/269/210 422/395/421 
f 50/273/50 304/275/304 49/389/49 
f 304/275/304 79/336/79 49/389/49 
f 418/396/417 18/21/18 419/397/418 
f 18/21/18 326/297/326 419/397/418 
f 419/387/418 327/298/327 52/299/52 
f 329/301/329 423/398/422 331/303/331 
f 423/398/422 337/305/337 331/303/331 
f 423/398/422 424/399/423 337/305/337 
f 424/399/423 336/307/336 337/305/337 
f 424/399/423 425/400/424 336/307/336 
f 425/400/424 426/399/425 336/307/336 
f 425/400/424 422/401/421 426/399/425 
f 422/401/421 427/402/426 426/399/425 
f 428/402/427 429/403/428 326/404/326 
f 429/403/428 430/405/429 326/404/326 
f 429/403/428 341/310/341 430/405/429 
f 341/310/341 431/403/430 430/405/429 
f 341/310/341 342/301/342 431/403/430 
f 342/301/342 432/398/431 431/403/430 
f 342/301/342 332/303/332 432/398/431 
f 332/303/332 334/305/334 432/398/431 
f 326/404/326 430/405/429 419/406/418 
f 430/405/429 327/404/327 419/406/418 
f 430/405/429 431/403/430 327/404/327 
f 431/403/430 427/402/426 327/404/327 
f 431/403/430 432/398/431 427/402/426 
f 432/398/431 426/399/425 427/402/426 
f 432/398/431 334/305/334 426/399/425 
f 334/305/334 336/307/336 426/399/425 
f 422/401/421 425/400/424 420/407/419 
f 425/400/424 421/401/420 420/407/419 
f 425/400/424 424/399/423 421/401/420 
f 424/399/423 428/402/427 421/401/420 
f 424/399/423 423/398/422 428/402/427 
f 423/398/422 429/403/428 428/402/427 
f 423/398/422 329/301/329 429/403/428 
f 329/301/329 341/310/341 429/403/428 
f 222/276/222 225/264/225 300/266/300 
f 66/70/66 388/368/388 55/58/55 
f 68/70/68 380/368/380 58/58/58 
f 66/80/66 77/78/77 388/365/388 
f 77/78/77 377/359/377 388/365/388 
f 68/80/68 75/78/75 380/365/380 
f 75/78/75 381/359/381 380/365/380 
f 75/78/75 74/77/74 381/359/381 
f 74/77/74 383/362/383 381/359/381 
f 74/77/74 387/366/387 383/362/383 
f 387/366/387 55/58/55 388/368/388 
f 387/366/387 74/77/74 55/58/55 
f 386/366/386 58/58/58 380/368/380 
f 288/254/288 297/260/297 200/189/200 
f 297/260/297 389/369/389 200/189/200 
f 200/189/200 389/369/389 203/191/203 
f 389/369/389 204/189/204 203/191/203 
f 389/369/389 390/260/390 204/189/204 
f 390/260/390 294/254/294 204/189/204 
f 390/260/390 391/259/391 294/254/294 
f 391/259/391 394/370/394 294/254/294 
f 294/254/294 394/370/394 237/193/237 
f 394/370/394 205/192/205 237/193/237 
f 394/370/394 393/371/393 205/192/205 
f 393/371/393 206/193/206 205/192/205 
f 393/371/393 392/370/392 206/193/206 
f 392/370/392 288/254/288 206/193/206 
f 392/370/392 296/259/296 288/254/288 
f 296/259/296 297/260/297 288/254/288 
f 51/54/51 418/408/417 52/55/52 
f 51/54/51 320/294/320 418/408/417 
f 320/294/320 321/54/321 418/408/417 
f 418/408/417 321/54/321 18/55/18 
f 129/125/129 433/409/432 167/160/167 
f 433/409/432 125/123/125 167/160/167 
f 433/409/432 434/410/433 125/123/125 
f 434/410/433 124/122/124 125/123/125 
f 433/409/432 129/125/129 435/126/434 
f 129/125/129 126/124/126 435/126/434 
f 124/122/124 434/410/433 133/130/133 
f 435/126/434 181/174/181 433/409/432 
f 181/174/181 434/410/433 433/409/432 
f 181/174/181 177/171/177 434/410/433 
f 177/171/177 133/130/133 434/410/433 
f 181/174/181 435/126/434 156/132/156 
f 435/126/434 134/131/134 156/132/156 
f 435/126/434 126/124/126 134/131/134 
f 436/411/435 8/8/8 9/10/9 
f 437/412/436 11/13/11 436/411/435 
f 11/13/11 8/8/8 436/411/435 
f 438/413/437 439/414/438 440/415/439 
f 439/414/438 441/416/440 440/415/439 
f 439/414/438 442/417/441 441/416/440 
f 442/417/441 443/418/442 441/416/440 
f 442/417/441 444/419/443 443/418/442 
f 444/419/443 445/420/444 443/418/442 
f 444/419/443 446/421/445 445/420/444 
f 446/421/445 447/422/446 445/420/444 
f 446/421/445 448/423/447 447/422/446 
f 21/24/21 22/25/22 438/413/437 
f 22/25/22 439/414/438 438/413/437 
f 22/25/22 24/27/24 439/414/438 
f 24/27/24 442/417/441 439/414/438 
f 24/27/24 26/29/26 442/417/441 
f 26/29/26 444/419/443 442/417/441 
f 26/29/26 12/14/12 444/419/443 
f 12/14/12 446/421/445 444/419/443 
f 12/14/12 11/13/11 446/421/445 
f 11/13/11 448/423/447 446/421/445 
f 11/13/11 437/412/436 448/423/447 
f 376/358/376 169/162/169 375/357/375 
f 376/358/376 94/94/94 169/162/169 
f 449/424/448 450/425/449 440/415/439 
f 450/425/449 438/413/437 440/415/439 
f 450/425/449 19/22/19 438/413/437 
f 19/22/19 21/24/21 438/413/437 
f 437/426/436 436/427/435 449/424/448 
f 436/427/435 450/425/449 449/424/448 
f 436/427/435 9/20/9 450/425/449 
f 9/20/9 19/22/19 450/425/449 
f 175/169/175 374/168/374 176/170/176 
f 374/168/374 180/151/180 176/170/176 
f 374/168/374 375/357/375 180/151/180 
f 375/357/375 178/172/178 180/151/180 
f 375/357/375 169/162/169 178/172/178 
f 350/317/350 376/358/376 373/356/373 
f 350/317/350 179/173/179 376/358/376 
f 179/173/179 94/94/94 376/358/376 
f 301/268/301 422/395/421 210/269/210 
f 301/268/301 371/345/371 422/395/421 
f 371/345/371 427/428/426 422/395/421 
f 371/345/371 327/298/327 427/428/426 
f 326/297/326 15/17/15 428/429/427 
f 15/17/15 421/391/420 428/429/427 
f 15/17/15 302/270/302 421/391/420 
f 302/270/302 277/272/277 421/391/420 
f 13/15/13 15/17/15 326/297/326 
f 327/298/327 371/345/371 308/283/308 
f 77/78/77 76/77/76 377/359/377 
f 76/77/76 379/362/379 377/359/377 
f 76/77/76 386/366/386 379/362/379 
f 386/366/386 76/77/76 58/58/58 
# 0 polygons - 877 triangles

