# 3ds Max Wavefront OBJ Exporter v0.99 - (c)2007 guruware
# File Created: 08.05.2025 00:15:17

mtllib dado2.mtl

#
# object Box008
#

v  1.2007 30.0537 -8.0339
v  -1.2007 30.0537 -8.0339
v  -1.2007 30.0537 -10.4352
v  1.2007 30.0537 -10.4352
v  -1.2007 32.4551 -8.0339
v  1.2007 32.4551 -8.0339
v  1.2007 32.4551 -10.4352
v  -1.2007 32.4551 -10.4352
# 8 vertices

vn 0.5774 -0.5774 0.5774
vn -0.5774 -0.5774 0.5774
vn -0.5774 -0.5774 -0.5774
vn 0.5774 -0.5774 -0.5774
vn -0.5774 0.5774 0.5774
vn 0.5774 0.5774 0.5774
vn 0.5774 0.5774 -0.5774
vn -0.5774 0.5774 -0.5774
# 8 vertex normals

vt 0.2651 0.4264 0.0000
vt 0.4248 0.4264 0.0000
vt 0.4248 0.5868 0.0000
vt 0.2651 0.5868 0.0000
vt 0.5890 0.4260 0.0000
vt 0.7500 0.4260 0.0000
vt 0.7500 0.5866 0.0000
vt 0.5890 0.5866 0.0000
vt 0.4269 0.5886 0.0000
vt 0.5875 0.5886 0.0000
vt 0.5875 0.7488 0.0000
vt 0.4269 0.7488 0.0000
vt 0.5878 0.5863 0.0000
vt 0.4266 0.5863 0.0000
vt 0.4266 0.4256 0.0000
vt 0.5878 0.4256 0.0000
vt 0.4268 0.4244 0.0000
vt 0.4268 0.2625 0.0000
vt 0.5875 0.2625 0.0000
vt 0.5875 0.4244 0.0000
vt 0.4294 0.1036 0.0000
vt 0.5860 0.1036 0.0000
vt 0.5860 0.2595 0.0000
vt 0.4294 0.2595 0.0000
# 24 texture coords

o Box008
g Box008
usemtl 21___Default
s 2
f 1/1/1 2/2/2 3/3/3 4/4/4 
s 4
f 5/5/5 6/6/6 7/7/7 8/8/8 
s 8
f 2/9/2 1/10/1 6/11/6 5/12/5 
s 16
f 7/13/7 6/14/6 1/15/1 4/16/4 
s 32
f 7/17/7 4/18/4 3/19/3 8/20/8 
s 64
f 3/21/3 2/22/2 5/23/5 8/24/8 
# 6 polygons

