# 3ds Max Wavefront OBJ Exporter v0.99 - (c)2007 guruware
# File Created: 07.05.2025 18:51:50

mtllib dados.mtl

#
# object Box008
#

v  1.2007 30.0537 -10.4352
v  1.2007 30.0537 -8.0339
v  -1.2007 30.0537 -8.0339
v  -1.2007 30.0537 -10.4352
v  -1.2007 32.4551 -10.4352
v  -1.2007 32.4551 -8.0339
v  1.2007 32.4551 -8.0339
v  1.2007 32.4551 -10.4352
# 8 vertices

vn 0.5774 -0.5774 -0.5774
vn 0.5774 -0.5774 0.5774
vn -0.5774 -0.5774 0.5774
vn -0.5774 -0.5774 -0.5774
vn -0.5774 0.5774 -0.5774
vn -0.5774 0.5774 0.5774
vn 0.5774 0.5774 0.5774
vn 0.5774 0.5774 -0.5774
# 8 vertex normals

vt 0.2651 0.5868 0.0000
vt 0.2651 0.4264 0.0000
vt 0.4248 0.4264 0.0000
vt 0.4248 0.5868 0.0000
vt 0.5890 0.5866 0.0000
vt 0.5890 0.4260 0.0000
vt 0.7500 0.4260 0.0000
vt 0.7500 0.5866 0.0000
vt 0.4269 0.7488 0.0000
vt 0.4269 0.5886 0.0000
vt 0.5875 0.5886 0.0000
vt 0.5875 0.7488 0.0000
vt 0.5878 0.4256 0.0000
vt 0.5878 0.5863 0.0000
vt 0.4266 0.5863 0.0000
vt 0.4266 0.4256 0.0000
vt 0.5875 0.4244 0.0000
vt 0.4268 0.4244 0.0000
vt 0.4268 0.2625 0.0000
vt 0.5875 0.2625 0.0000
vt 0.4294 0.2595 0.0000
vt 0.4294 0.1036 0.0000
vt 0.5860 0.1036 0.0000
vt 0.5860 0.2595 0.0000
# 24 texture coords

o Box008
g Box008
usemtl 21___Default
s 2
f 1/1/1 2/2/2 3/3/3 4/4/4 
s 4
f 5/5/5 6/6/6 7/7/7 8/8/8 
s 8
f 6/9/6 3/10/3 2/11/2 7/12/7 
s 16
f 1/13/1 8/14/8 7/15/7 2/16/2 
s 32
f 5/17/5 8/18/8 1/19/1 4/20/4 
s 64
f 5/21/5 4/22/4 3/23/3 6/24/6 
# 6 polygons

#
# object Box010
#

v  1.2007 30.0537 -1.0340
v  1.2007 30.0537 1.3674
v  -1.2007 30.0537 1.3674
v  -1.2007 30.0537 -1.0340
v  -1.2007 32.4551 -1.0340
v  -1.2007 32.4551 1.3674
v  1.2007 32.4551 1.3674
v  1.2007 32.4551 -1.0340
# 8 vertices

vn 0.5774 -0.5774 -0.5774
vn 0.5774 -0.5774 0.5774
vn -0.5774 -0.5774 0.5774
vn -0.5774 -0.5774 -0.5774
vn -0.5774 0.5774 -0.5774
vn -0.5774 0.5774 0.5774
vn 0.5774 0.5774 0.5774
vn 0.5774 0.5774 -0.5774
# 8 vertex normals

vt 0.2651 0.5868 0.0000
vt 0.2651 0.4264 0.0000
vt 0.4248 0.4264 0.0000
vt 0.4248 0.5868 0.0000
vt 0.5890 0.5866 0.0000
vt 0.5890 0.4260 0.0000
vt 0.7500 0.4260 0.0000
vt 0.7500 0.5866 0.0000
vt 0.4269 0.7488 0.0000
vt 0.4269 0.5886 0.0000
vt 0.5875 0.5886 0.0000
vt 0.5875 0.7488 0.0000
vt 0.5878 0.4256 0.0000
vt 0.5878 0.5863 0.0000
vt 0.4266 0.5863 0.0000
vt 0.4266 0.4256 0.0000
vt 0.5875 0.4244 0.0000
vt 0.4268 0.4244 0.0000
vt 0.4268 0.2625 0.0000
vt 0.5875 0.2625 0.0000
vt 0.4294 0.2595 0.0000
vt 0.4294 0.1036 0.0000
vt 0.5860 0.1036 0.0000
vt 0.5860 0.2595 0.0000
# 24 texture coords

o Box010
g Box010
usemtl 21___Default
s 2
f 9/25/9 10/26/10 11/27/11 12/28/12 
s 4
f 13/29/13 14/30/14 15/31/15 16/32/16 
s 8
f 14/33/14 11/34/11 10/35/10 15/36/15 
s 16
f 9/37/9 16/38/16 15/39/15 10/40/10 
s 32
f 13/41/13 16/42/16 9/43/9 12/44/12 
s 64
f 13/45/13 12/46/12 11/47/11 14/48/14 
# 6 polygons

