# 3ds Max Wavefront OBJ Exporter v0.99 - (c)2007 guruware
# File Created: 07.05.2025 23:09:26

mtllib Pie_derechoFerb.mtl

#
# object PieDerecho
#

v  4.2080 -0.7256 10.4334
v  4.2057 -0.7167 10.4193
v  4.2236 -0.7083 10.4322
v  4.2765 -0.6230 10.2867
v  4.2472 -0.6230 10.2746
v  4.2765 -0.6492 10.2865
v  4.2319 -0.6360 10.2991
v  4.2239 -0.6494 10.2926
v  4.2256 -0.6361 10.3143
v  4.2143 -0.6495 10.3158
v  4.2319 -0.6361 10.3295
v  4.2239 -0.6495 10.3391
v  4.2466 -0.6361 10.3358
v  4.2472 -0.6496 10.3488
v  4.2613 -0.6361 10.3295
v  4.2704 -0.6495 10.3391
v  4.2801 -0.6495 10.3158
v  4.2676 -0.6361 10.3143
v  4.2704 -0.6494 10.2926
v  4.2613 -0.6360 10.2991
v  4.2472 -0.6493 10.2829
v  4.2466 -0.6360 10.2928
v  4.2693 -0.5258 10.2752
v  4.2332 -0.5128 10.2721
v  4.2472 -0.5225 10.2875
v  4.2250 -0.5170 10.2967
v  4.2181 -0.5102 10.2900
v  4.2109 -0.5091 10.3197
v  4.2158 -0.5141 10.3189
v  4.2250 -0.5169 10.3411
v  4.2182 -0.5080 10.3514
v  4.2472 -0.5233 10.3503
v  4.2334 -0.5070 10.3726
v  4.2693 -0.5201 10.3713
v  4.2812 -0.5293 10.3532
v  4.2855 -0.5326 10.3185
v  4.2694 -0.5281 10.3411
v  4.2259 -0.7320 10.4584
v  4.2466 -0.7189 10.4581
v  4.2466 -0.7320 10.4680
v  4.2674 -0.7320 10.4584
v  4.2674 -0.7189 10.4519
v  4.2881 -0.7319 10.4343
v  4.2853 -0.7256 10.4334
v  4.2052 -0.7319 10.4343
v  4.2259 -0.7189 10.4519
v  4.2466 -0.7057 10.4384
v  4.2697 -0.7083 10.4322
v  4.2875 -0.7167 10.4193
v  4.2786 -0.5892 10.3178
v  4.2786 -0.5386 10.3193
v  4.2694 -0.5385 10.2971
v  4.2819 -0.7131 10.3535
v  4.2747 -0.7314 10.3032
v  4.2870 -0.7316 10.3558
v  4.2927 -0.7471 10.4111
v  4.2908 -0.7470 10.3875
v  4.2667 -0.7471 10.4123
v  4.2637 -0.7466 10.2859
v  4.2637 -0.7313 10.2860
v  4.2466 -0.7313 10.2814
v  4.2259 -0.7473 10.4583
v  4.2266 -0.7471 10.4123
v  4.2052 -0.7472 10.4342
v  4.2786 -0.5299 10.3189
v  4.2694 -0.5387 10.3415
v  4.2319 -0.7085 10.3196
v  4.2466 -0.7036 10.3259
v  4.2466 -0.6993 10.3432
v  4.2613 -0.7085 10.3196
v  4.2319 -0.7164 10.2891
v  4.2466 -0.7163 10.2828
v  4.2613 -0.7164 10.2891
v  4.2694 -0.5891 10.2956
v  4.2786 -0.6078 10.3171
v  4.2694 -0.6077 10.2948
v  4.2472 -0.5890 10.2864
v  4.2694 -0.6078 10.3393
v  4.2694 -0.5892 10.3401
v  4.2472 -0.6078 10.3486
v  4.2747 -0.7467 10.3031
v  4.2466 -0.7471 10.4125
v  4.2466 -0.7470 10.3875
v  4.2665 -0.7470 10.3875
v  4.2242 -0.6983 10.3877
v  4.2466 -0.6945 10.3877
v  4.2267 -0.7020 10.3478
v  4.2114 -0.7131 10.3535
v  4.2787 -0.6230 10.3161
v  4.2694 -0.6230 10.3384
v  4.2472 -0.6231 10.3476
v  4.2694 -0.6229 10.2938
v  4.2472 -0.6075 10.2856
v  4.2466 -0.7473 10.4679
v  4.2674 -0.7473 10.4583
v  4.2881 -0.7472 10.4342
v  4.2062 -0.7469 10.3557
v  4.2025 -0.7470 10.3875
v  4.2267 -0.7470 10.3875
v  4.2006 -0.7471 10.4111
v  4.2472 -0.5348 10.3507
v  4.2250 -0.5293 10.3416
v  4.2157 -0.5267 10.3194
v  4.2319 -0.6966 10.3210
v  4.2256 -0.7012 10.3058
v  4.2256 -0.6634 10.3105
v  4.2319 -0.6634 10.2953
v  4.2319 -0.7034 10.2906
v  4.2466 -0.6634 10.2890
v  4.2466 -0.7033 10.2843
v  4.2296 -0.7466 10.2859
v  4.2466 -0.7469 10.3549
v  4.2466 -0.7466 10.2813
v  4.2664 -0.7469 10.3552
v  4.2870 -0.7469 10.3557
v  4.2887 -0.6494 10.3158
v  4.2887 -0.6232 10.3161
v  4.2765 -0.6495 10.3452
v  4.2765 -0.6233 10.3455
v  4.2472 -0.6495 10.3574
v  4.2472 -0.5340 10.2879
v  4.2249 -0.5891 10.2956
v  4.2250 -0.5293 10.2972
v  4.2157 -0.5892 10.3178
v  4.2067 -0.7122 10.3877
v  4.2062 -0.7316 10.3558
v  4.2186 -0.7314 10.3032
v  4.2186 -0.7467 10.3031
v  4.2296 -0.7313 10.2860
v  4.2613 -0.6634 10.2953
v  4.2676 -0.6634 10.3105
v  4.2613 -0.6635 10.3257
v  4.2466 -0.6635 10.3320
v  4.2665 -0.7020 10.3478
v  4.2676 -0.7139 10.3044
v  4.2927 -0.7318 10.4133
v  4.2912 -0.7317 10.3876
v  4.2269 -0.7469 10.3552
v  4.2256 -0.7139 10.3044
v  4.2020 -0.7317 10.3876
v  4.2006 -0.7318 10.4133
v  4.2472 -0.5893 10.3493
v  4.2249 -0.5892 10.3401
v  4.2694 -0.5283 10.2967
v  4.2319 -0.6635 10.3257
v  4.2613 -0.7034 10.2906
v  4.2676 -0.7012 10.3058
v  4.2613 -0.6966 10.3210
v  4.2466 -0.6923 10.3273
v  4.2249 -0.6076 10.3393
v  4.2157 -0.6075 10.3171
v  4.2249 -0.6075 10.2948
v  4.2472 -0.6492 10.2743
v  4.2178 -0.6492 10.2865
v  4.2178 -0.6230 10.2867
v  4.2056 -0.6494 10.3158
v  4.2056 -0.6232 10.3161
v  4.2178 -0.6495 10.3452
v  4.2178 -0.6233 10.3455
v  4.2472 -0.6233 10.3576
v  4.2472 -0.6228 10.2846
v  4.2249 -0.6229 10.2938
v  4.2157 -0.6230 10.3161
v  4.2249 -0.6230 10.3384
v  4.2691 -0.6983 10.3877
v  4.2866 -0.7122 10.3877
v  4.2804 -0.5319 10.2916
# 167 vertices

vn 0.7413 -0.4808 -0.4683
vn 0.7913 -0.5703 -0.2204
vn 0.4134 -0.8422 -0.3461
vn -0.5514 -0.6270 0.5503
vn 0.0000 -0.6277 0.7785
vn -0.5518 0.6243 0.5529
vn 0.1452 0.9888 0.0349
vn -0.2428 0.9410 -0.2359
vn 0.1084 0.9912 -0.0763
vn -0.3180 0.9481 0.0061
vn 0.0394 0.9941 -0.1006
vn -0.2105 0.9537 0.2149
vn -0.0039 0.9965 -0.0830
vn 0.0024 0.9565 0.2918
vn -0.0637 0.9931 -0.0987
vn 0.2033 0.9574 0.2051
vn 0.3010 0.9536 0.0055
vn -0.1330 0.9886 -0.0699
vn 0.2348 0.9458 -0.2243
vn -0.1672 0.9852 0.0379
vn 0.0024 0.9385 -0.3454
vn -0.0179 0.9922 0.1234
vn 0.2214 0.9320 0.2870
vn 0.4945 0.7144 0.4952
vn 0.2429 0.6770 0.6947
vn 0.7005 0.5440 0.4619
vn 0.7265 0.6222 0.2918
vn 0.8254 0.5644 -0.0141
vn 0.9002 0.4353 0.0141
vn 0.7083 0.4830 -0.5148
vn 0.7007 0.6270 -0.3405
vn 0.2168 0.5770 -0.7875
vn 0.4867 0.6641 -0.5676
vn 0.1980 0.8761 -0.4396
vn 0.1818 0.9566 -0.2277
vn 0.1875 0.9817 -0.0337
vn -0.2709 0.7656 -0.5835
vn 0.5598 -0.2117 -0.8011
vn 0.0000 -0.6876 -0.7261
vn 0.0000 -0.2933 -0.9560
vn -0.5598 -0.2117 -0.8011
vn -0.4620 -0.6034 -0.6500
vn -0.8766 -0.1725 -0.4493
vn -0.7413 -0.4808 -0.4683
vn 0.8766 -0.1725 -0.4493
vn 0.4620 -0.6034 -0.6500
vn 0.0000 -0.9209 -0.3897
vn -0.4134 -0.8422 -0.3461
vn -0.7913 -0.5703 -0.2204
vn -1.0000 -0.0008 -0.0019
vn -1.0000 -0.0010 -0.0097
vn -0.7108 0.0060 0.7033
vn -0.8207 -0.5404 0.1854
vn -0.9114 -0.1634 0.3777
vn -0.9773 -0.1182 0.1760
vn -0.7298 0.6824 -0.0405
vn -0.6987 0.7117 0.0731
vn 0.0000 1.0000 -0.0000
vn -0.4567 0.6340 0.6241
vn -0.5866 -0.1227 0.8006
vn 0.0000 -0.0815 0.9967
vn 0.4518 0.6618 -0.5983
vn 0.6764 0.6564 -0.3340
vn -0.4036 0.9149 0.0050
vn -0.7034 -0.0071 -0.7108
vn 0.7368 -0.6367 -0.2274
vn 0.0000 -0.7976 -0.6031
vn -0.0000 -0.9812 0.1930
vn -0.7368 -0.6367 -0.2274
vn 0.6545 -0.1747 0.7356
vn 0.0000 -0.0993 0.9951
vn -0.6545 -0.1747 0.7356
vn -0.7079 -0.0241 0.7059
vn -1.0000 -0.0014 -0.0022
vn -0.7080 -0.0366 0.7053
vn -0.0003 -0.0333 0.9994
vn -0.7057 0.0334 -0.7078
vn -0.7060 0.0223 -0.7078
vn 0.0002 0.0476 -0.9989
vn -0.6831 0.6711 0.2882
vn 0.3915 -0.9196 -0.0311
vn -0.0000 -0.9986 -0.0530
vn 0.4157 -0.8877 0.1981
vn 0.8207 -0.5404 0.1854
vn -0.6013 -0.7990 0.0084
vn -0.4407 -0.7869 -0.4319
vn 0.0001 -0.7819 -0.6234
vn -0.4103 -0.8103 0.4183
vn -0.0002 -0.0511 0.9987
vn 0.0000 0.6242 -0.7813
vn -0.4518 0.6618 -0.5983
vn -0.6764 0.6564 -0.3340
vn 0.7084 0.6948 0.1245
vn 0.6987 0.7117 0.0731
vn 0.7298 0.6824 -0.0405
vn -0.0024 -0.0107 -0.9999
vn 0.7018 -0.0098 -0.7123
vn 1.0000 -0.0009 -0.0079
vn 0.6945 0.0904 -0.7138
vn 1.0000 0.0012 -0.0039
vn 1.0000 0.0010 0.0008
vn 0.7082 -0.0869 0.7006
vn 0.7079 -0.0786 0.7020
vn 0.0000 -0.1220 0.9925
vn -0.0000 -0.1111 0.9938
vn 0.4567 0.6340 0.6241
vn 0.0000 0.6533 0.7571
vn -0.7083 0.6948 0.1245
vn -0.7799 0.6259 0.0011
vn -0.7802 -0.6255 -0.0011
vn -0.5511 0.6274 -0.5501
vn -0.5520 -0.6239 -0.5531
vn 0.0000 0.6281 -0.7782
vn 0.0025 0.0098 0.9999
vn 0.7080 -0.0232 0.7059
vn 0.7120 0.0076 0.7021
vn 1.0000 -0.0007 -0.0024
vn 0.8326 -0.5520 0.0452
vn 0.9773 -0.1182 0.1760
vn 0.9114 -0.1634 0.3777
vn 0.6831 0.6711 0.2882
vn 0.5866 -0.1227 0.8006
vn -0.7082 -0.0869 0.7006
vn -1.0000 0.0010 0.0008
vn -0.7072 0.0981 -0.7002
vn 0.0000 0.1433 -0.9897
vn -0.4157 -0.8877 0.1981
vn -0.9284 -0.2950 0.2259
vn -0.9879 -0.1324 -0.0807
vn -0.9898 -0.1046 0.0972
vn 0.9284 -0.2950 0.2259
vn 0.9898 -0.1046 0.0972
vn 0.9879 -0.1324 -0.0807
vn 0.0003 0.0314 -0.9995
vn 0.7060 0.0215 -0.7079
vn -0.1912 0.8305 0.5232
vn 0.7072 0.0981 -0.7002
vn -0.7079 -0.0786 0.7020
vn -1.0000 0.0012 -0.0039
vn -0.6945 0.0904 -0.7138
vn -0.0000 0.1347 -0.9909
vn 0.7059 0.0333 -0.7075
vn 1.0000 -0.0014 -0.0020
vn 0.7077 -0.0363 0.7056
vn 0.0000 0.6237 0.7817
vn 0.5518 0.6243 0.5529
vn 0.5514 -0.6270 0.5503
vn 0.7799 0.6259 0.0011
vn 0.7802 -0.6255 -0.0011
vn 0.5511 0.6274 -0.5501
vn 0.5520 -0.6239 -0.5531
vn 0.0000 -0.6233 -0.7820
vn 0.0000 -0.8147 0.5798
vn 0.4105 -0.8102 0.4185
vn 0.6013 -0.7990 0.0082
vn 0.4404 -0.7871 -0.4318
vn -0.3915 -0.9196 -0.0311
vn -0.8326 -0.5520 0.0452
vn 0.2109 0.9731 0.0924
# 159 vertex normals

vt 0.8808 0.1821 0.0000
vt 0.8851 0.2071 0.0000
vt 0.9146 0.1902 0.0000
vt 0.6145 0.8462 0.0000
vt 0.6436 0.8462 0.0000
vt 0.6145 0.8750 0.0000
vt 0.1787 0.7001 0.0000
vt 0.1708 0.6922 0.0000
vt 0.1725 0.7150 0.0000
vt 0.1614 0.7150 0.0000
vt 0.1931 0.6939 0.0000
vt 0.1936 0.6828 0.0000
vt 0.2075 0.7001 0.0000
vt 0.2165 0.6922 0.0000
vt 0.2259 0.7150 0.0000
vt 0.2137 0.7150 0.0000
vt 0.3725 0.8880 0.0000
vt 0.4119 0.8829 0.0000
vt 0.3942 0.8660 0.0000
vt 0.4165 0.8562 0.0000
vt 0.4247 0.8598 0.0000
vt 0.4292 0.8355 0.0000
vt 0.4244 0.8358 0.0000
vt 0.4168 0.8154 0.0000
vt 0.4248 0.8110 0.0000
vt 0.3955 0.8053 0.0000
vt 0.4131 0.7854 0.0000
vt 0.3767 0.7824 0.0000
vt 0.3597 0.8045 0.0000
vt 0.3502 0.8333 0.0000
vt 0.3713 0.8120 0.0000
vt 0.9028 0.1377 0.0000
vt 0.9419 0.1431 0.0000
vt 0.9338 0.1180 0.0000
vt 0.9128 0.1578 0.0000
vt 0.8698 0.1770 0.0000
vt 0.9487 0.1799 0.0000
vt 0.6421 0.7956 0.0000
vt 0.6421 0.7666 0.0000
vt 0.6198 0.7666 0.0000
vt 0.8868 0.3029 0.0000
vt 0.8688 0.3809 0.0000
vt 0.8581 0.3006 0.0000
vt 0.7787 0.2532 0.0000
vt 0.7806 0.2761 0.0000
vt 0.8039 0.2520 0.0000
vt 0.9668 0.4163 0.0000
vt 0.9841 0.4163 0.0000
vt 0.9841 0.4307 0.0000
vt 0.8032 0.2074 0.0000
vt 0.7832 0.2308 0.0000
vt 0.4638 0.7576 0.0000
vt 0.4638 0.7666 0.0000
vt 0.4861 0.7576 0.0000
vt 0.4861 0.7666 0.0000
vt 0.9116 0.3565 0.0000
vt 0.9364 0.3505 0.0000
vt 0.9422 0.3239 0.0000
vt 0.9841 0.1954 0.0000
vt 0.9668 0.2203 0.0000
vt 0.9841 0.2203 0.0000
vt 0.9668 0.2478 0.0000
vt 0.8983 0.4030 0.0000
vt 0.8873 0.4347 0.0000
vt 0.9078 0.4250 0.0000
vt 0.6198 0.7956 0.0000
vt 0.6421 0.8202 0.0000
vt 0.6198 0.8202 0.0000
vt 0.5975 0.7932 0.0000
vt 0.4638 0.8202 0.0000
vt 0.4861 0.8202 0.0000
vt 0.4638 0.7956 0.0000
vt 0.4861 0.7956 0.0000
vt 0.5084 0.8201 0.0000
vt 0.9668 0.3967 0.0000
vt 0.9841 0.3967 0.0000
vt 0.9841 0.3369 0.0000
vt 0.8234 0.2518 0.0000
vt 0.8234 0.2761 0.0000
vt 0.8041 0.2761 0.0000
vt 0.9177 0.2555 0.0000
vt 0.9508 0.2574 0.0000
vt 0.9138 0.3130 0.0000
vt 0.4638 0.8350 0.0000
vt 0.4861 0.8350 0.0000
vt 0.5084 0.8350 0.0000
vt 0.6421 0.8350 0.0000
vt 0.6198 0.8350 0.0000
vt 0.5975 0.8201 0.0000
vt 0.3589 0.8342 0.0000
vt 0.8234 0.1982 0.0000
vt 0.7842 0.3076 0.0000
vt 0.5084 0.7619 0.0000
vt 0.5084 0.7522 0.0000
vt 0.5307 0.7575 0.0000
vt 0.5307 0.7471 0.0000
vt 0.5529 0.7565 0.0000
vt 0.5768 0.9643 0.0000
vt 0.5988 0.9703 0.0000
vt 0.5988 0.9180 0.0000
vt 0.6209 0.9180 0.0000
vt 0.6209 0.9731 0.0000
vt 0.6420 0.9180 0.0000
vt 0.6420 0.9731 0.0000
vt 0.9668 0.1954 0.0000
vt 0.9841 0.2478 0.0000
vt 0.8069 0.3745 0.0000
vt 0.8234 0.3076 0.0000
vt 0.8234 0.3790 0.0000
vt 0.8042 0.3076 0.0000
vt 0.7962 0.3578 0.0000
vt 0.5856 0.8750 0.0000
vt 0.5856 0.8462 0.0000
vt 0.5562 0.8750 0.0000
vt 0.5562 0.8462 0.0000
vt 0.5271 0.8750 0.0000
vt 0.5975 0.7616 0.0000
vt 0.5752 0.7913 0.0000
vt 0.5752 0.7575 0.0000
vt 0.5529 0.7908 0.0000
vt 0.8860 0.2530 0.0000
vt 0.9668 0.4307 0.0000
vt 0.4695 0.9180 0.0000
vt 0.4905 0.9180 0.0000
vt 0.4695 0.8832 0.0000
vt 0.4905 0.8832 0.0000
vt 0.5126 0.9180 0.0000
vt 0.5126 0.8832 0.0000
vt 0.5347 0.9180 0.0000
vt 0.5347 0.8832 0.0000
vt 0.5557 0.9180 0.0000
vt 0.8970 0.3780 0.0000
vt 0.8763 0.4106 0.0000
vt 0.9841 0.2716 0.0000
vt 0.9668 0.2740 0.0000
vt 0.9841 0.3009 0.0000
vt 0.9668 0.3009 0.0000
vt 0.9668 0.3369 0.0000
vt 0.5557 0.9732 0.0000
vt 0.5768 0.9795 0.0000
vt 0.5988 0.9864 0.0000
vt 0.6209 0.9895 0.0000
vt 0.6420 0.9895 0.0000
vt 0.5084 0.7934 0.0000
vt 0.5307 0.7913 0.0000
vt 0.5529 0.7459 0.0000
vt 0.5752 0.7471 0.0000
vt 0.5975 0.7518 0.0000
vt 0.6198 0.7576 0.0000
vt 0.6421 0.7576 0.0000
vt 0.5557 0.8832 0.0000
vt 0.5768 0.8832 0.0000
vt 0.5768 0.9180 0.0000
vt 0.5988 0.8832 0.0000
vt 0.6209 0.8832 0.0000
vt 0.6420 0.8832 0.0000
vt 0.4695 0.9731 0.0000
vt 0.4905 0.9731 0.0000
vt 0.5126 0.9703 0.0000
vt 0.5347 0.9643 0.0000
vt 0.5557 0.9589 0.0000
vt 0.8594 0.2115 0.0000
vt 0.5307 0.8200 0.0000
vt 0.5529 0.8200 0.0000
vt 0.5752 0.8200 0.0000
vt 0.6436 0.8750 0.0000
vt 0.5271 0.8462 0.0000
vt 0.5975 0.8350 0.0000
vt 0.5752 0.8350 0.0000
vt 0.5529 0.8350 0.0000
vt 0.5307 0.8350 0.0000
vt 0.4695 0.9895 0.0000
vt 0.4905 0.9895 0.0000
vt 0.5126 0.9864 0.0000
vt 0.5347 0.9795 0.0000
vt 0.8562 0.2516 0.0000
vt 0.2223 0.6720 0.0000
vt 0.2341 0.7005 0.0000
vt 0.2298 0.6645 0.0000
vt 0.2447 0.7005 0.0000
vt 0.1938 0.6602 0.0000
vt 0.1938 0.6496 0.0000
vt 0.1653 0.6720 0.0000
vt 0.1578 0.6645 0.0000
vt 0.1535 0.7005 0.0000
vt 0.1429 0.7005 0.0000
vt 0.2324 0.7005 0.0000
vt 0.2211 0.6732 0.0000
vt 0.1938 0.6619 0.0000
vt 0.1665 0.6732 0.0000
vt 0.1552 0.7005 0.0000
vt 0.3576 0.8642 0.0000
vt 0.3693 0.8578 0.0000
# 193 texture coords

o PieDerecho
g PieDerecho
usemtl peluches_Conejo_peluche_pasted__aiStandardSurface2SG
s off
f 1/1/1 2/2/2 3/3/3 
f 4/4/4 5/5/5 6/6/6 
f 7/7/7 8/8/8 9/9/9 
f 8/8/8 10/10/10 9/9/9 
f 9/9/9 10/10/10 11/7/11 
f 10/10/10 12/8/12 11/7/11 
f 11/7/11 12/8/12 13/11/13 
f 12/8/12 14/12/14 13/11/13 
f 13/11/13 14/12/14 15/13/15 
f 14/12/14 16/14/16 15/13/15 
f 16/14/16 17/15/17 15/13/15 
f 17/15/17 18/16/18 15/13/15 
f 17/15/17 19/14/19 18/16/18 
f 19/14/19 20/13/20 18/16/18 
f 19/14/19 21/12/21 20/13/20 
f 21/12/21 22/11/22 20/13/20 
f 22/11/22 21/12/21 7/7/7 
f 21/12/21 8/8/8 7/7/7 
f 23/17/23 24/18/24 25/19/25 
f 24/18/24 26/20/26 25/19/25 
f 24/18/24 27/21/27 26/20/26 
f 27/21/27 28/22/28 26/20/26 
f 26/20/26 28/22/28 29/23/29 
f 28/22/28 30/24/30 29/23/29 
f 28/22/28 31/25/31 30/24/30 
f 31/25/31 32/26/32 30/24/30 
f 31/25/31 33/27/33 32/26/32 
f 33/27/33 34/28/34 32/26/32 
f 35/29/35 36/30/36 37/31/37 
f 38/32/38 39/33/39 40/34/40 
f 39/33/39 41/32/41 40/34/40 
f 39/33/39 42/35/42 41/32/41 
f 42/35/42 43/36/43 41/32/41 
f 42/35/42 44/1/44 43/36/43 
f 45/36/45 46/35/46 38/32/38 
f 46/35/46 39/33/39 38/32/38 
f 46/35/46 47/37/47 39/33/39 
f 47/37/47 42/35/42 39/33/39 
f 47/37/47 48/3/48 42/35/42 
f 48/3/48 44/1/44 42/35/42 
f 48/3/48 49/2/49 44/1/44 
f 49/2/49 43/36/43 44/1/44 
f 2/2/2 1/1/1 45/36/45 
f 1/1/1 46/35/46 45/36/45 
f 1/1/1 3/3/3 46/35/46 
f 3/3/3 47/37/47 46/35/46 
f 50/38/50 51/39/51 52/40/52 
f 53/41/53 54/42/54 55/43/55 
f 56/44/56 57/45/57 58/46/58 
f 59/47/59 60/48/60 61/49/61 
f 62/50/62 63/46/58 64/51/63 
f 65/52/64 51/53/51 37/54/37 
f 51/53/51 66/55/65 37/54/37 
f 67/56/66 68/57/67 69/58/68 
f 68/57/67 70/56/69 69/58/68 
f 40/59/40 62/60/62 38/61/38 
f 62/60/62 64/62/63 38/61/38 
f 71/63/70 61/64/61 72/65/71 
f 61/64/61 73/63/72 72/65/71 
f 50/38/50 74/66/73 75/67/74 
f 74/66/73 76/68/75 75/67/74 
f 74/66/73 77/69/76 76/68/75 
f 75/70/74 78/71/77 50/72/50 
f 78/71/77 79/73/78 50/72/50 
f 78/71/77 80/74/79 79/73/78 
f 59/47/59 81/75/80 60/48/60 
f 81/75/80 54/76/54 60/48/60 
f 81/75/80 55/77/55 54/76/54 
f 82/78/58 58/46/58 83/79/58 
f 58/46/58 84/80/58 83/79/58 
f 58/46/58 57/45/57 84/80/58 
f 3/3/3 85/81/81 86/82/82 
f 85/81/81 87/83/83 86/82/82 
f 85/81/81 88/41/84 87/83/83 
f 89/84/85 90/85/86 75/70/74 
f 90/85/86 78/71/77 75/70/74 
f 90/85/86 91/86/87 78/71/77 
f 75/67/74 76/68/75 89/87/85 
f 76/68/75 92/88/88 89/87/85 
f 76/68/75 93/89/89 92/88/88 
f 36/30/36 65/90/64 37/31/37 
f 94/91/90 95/50/91 82/78/58 
f 95/50/91 58/46/58 82/78/58 
f 95/50/91 96/51/92 58/46/58 
f 96/51/92 56/44/56 58/46/58 
f 97/92/93 98/45/94 99/80/58 
f 98/45/94 63/46/58 99/80/58 
f 98/45/94 100/44/95 63/46/58 
f 100/44/95 64/51/63 63/46/58 
f 66/55/65 101/93/96 37/54/37 
f 101/93/96 32/94/32 37/54/37 
f 101/93/96 102/95/97 32/94/32 
f 102/95/97 30/96/30 32/94/32 
f 102/95/97 103/97/98 30/96/30 
f 104/98/99 105/99/100 106/100/101 
f 105/99/100 107/101/102 106/100/101 
f 105/99/100 108/102/103 107/101/102 
f 108/102/103 109/103/104 107/101/102 
f 108/102/103 110/104/105 109/103/104 
f 62/60/62 40/59/40 94/105/90 
f 40/59/40 95/60/91 94/105/90 
f 40/59/40 41/61/41 95/60/91 
f 41/61/41 96/62/92 95/60/91 
f 41/61/41 43/106/43 96/62/92 
f 111/107/106 112/108/58 113/109/107 
f 112/108/58 59/107/59 113/109/107 
f 112/108/58 114/110/58 59/107/59 
f 114/110/58 81/111/80 59/107/59 
f 114/110/58 115/92/108 81/111/80 
f 6/6/6 116/112/109 4/4/4 
f 116/112/109 117/113/110 4/4/4 
f 116/112/109 118/114/111 117/113/110 
f 118/114/111 119/115/112 117/113/110 
f 118/114/111 120/116/113 119/115/112 
f 50/38/50 52/40/52 74/66/73 
f 52/40/52 77/69/76 74/66/73 
f 52/40/52 121/117/114 77/69/76 
f 121/117/114 122/118/115 77/69/76 
f 121/117/114 123/119/116 122/118/115 
f 123/119/116 124/120/117 122/118/115 
f 2/2/2 85/81/81 3/3/3 
f 2/2/2 125/121/118 85/81/81 
f 125/121/118 88/41/84 85/81/81 
f 125/121/118 126/43/119 88/41/84 
f 126/43/119 127/42/120 88/41/84 
f 126/77/119 128/75/121 127/76/120 
f 128/75/121 129/48/122 127/76/120 
f 128/75/121 111/47/106 129/48/122 
f 111/47/106 61/49/61 129/48/122 
f 111/47/106 113/122/107 61/49/61 
f 113/122/107 59/47/59 61/49/61 
f 109/123/104 130/124/123 22/125/22 
f 130/124/123 20/126/20 22/125/22 
f 130/124/123 131/127/124 20/126/20 
f 131/127/124 18/128/18 20/126/20 
f 131/127/124 132/129/125 18/128/18 
f 132/129/125 15/130/15 18/128/18 
f 132/129/125 133/131/126 15/130/15 
f 69/58/68 70/56/69 134/83/127 
f 70/56/69 53/41/53 134/83/127 
f 70/56/69 135/132/128 53/41/53 
f 135/132/128 54/42/54 53/41/53 
f 135/132/128 73/63/72 54/42/54 
f 73/63/72 60/133/60 54/42/54 
f 73/63/72 61/64/61 60/133/60 
f 43/106/43 136/134/129 96/62/92 
f 136/134/129 56/135/56 96/62/92 
f 136/134/129 137/136/130 56/135/56 
f 137/136/130 57/137/57 56/135/56 
f 137/136/130 55/77/55 57/137/57 
f 55/77/55 115/138/108 57/137/57 
f 55/77/55 81/75/80 115/138/108 
f 128/111/121 138/110/58 111/107/106 
f 138/110/58 112/108/58 111/107/106 
f 138/110/58 83/79/58 112/108/58 
f 83/79/58 114/110/58 112/108/58 
f 83/79/58 84/80/58 114/110/58 
f 84/80/58 115/92/108 114/110/58 
f 84/80/58 57/45/57 115/92/108 
f 94/91/90 82/78/58 62/50/62 
f 82/78/58 63/46/58 62/50/62 
f 82/78/58 83/79/58 63/46/58 
f 83/79/58 99/80/58 63/46/58 
f 83/79/58 138/110/58 99/80/58 
f 138/110/58 97/92/93 99/80/58 
f 138/110/58 128/111/121 97/92/93 
f 68/139/67 67/140/66 104/98/99 
f 67/140/66 105/99/100 104/98/99 
f 67/140/66 139/141/131 105/99/100 
f 139/141/131 108/102/103 105/99/100 
f 139/141/131 71/142/70 108/102/103 
f 71/142/70 110/104/105 108/102/103 
f 71/142/70 72/143/71 110/104/105 
f 128/75/121 126/77/119 97/138/93 
f 126/77/119 98/137/94 97/138/93 
f 126/77/119 140/136/132 98/137/94 
f 140/136/132 100/135/95 98/137/94 
f 140/136/132 141/134/133 100/135/95 
f 141/134/133 64/62/63 100/135/95 
f 141/134/133 45/106/45 64/62/63 
f 45/106/45 38/61/38 64/62/63 
f 50/72/50 79/73/78 51/53/51 
f 79/73/78 66/55/65 51/53/51 
f 79/73/78 142/144/134 66/55/65 
f 142/144/134 101/93/96 66/55/65 
f 142/144/134 143/145/135 101/93/96 
f 143/145/135 102/95/97 101/93/96 
f 143/145/135 124/120/117 102/95/97 
f 124/120/117 103/97/98 102/95/97 
f 124/120/117 123/119/116 103/97/98 
f 30/96/30 103/97/98 29/146/29 
f 103/97/98 26/147/26 29/146/29 
f 103/97/98 123/119/116 26/147/26 
f 123/119/116 25/148/25 26/147/26 
f 123/119/116 121/117/114 25/148/25 
f 121/117/114 144/149/136 25/148/25 
f 121/117/114 52/40/52 144/149/136 
f 52/40/52 65/150/64 144/149/136 
f 52/40/52 51/39/51 65/150/64 
f 15/130/15 133/131/126 13/151/13 
f 133/131/126 11/152/11 13/151/13 
f 133/131/126 145/153/137 11/152/11 
f 145/153/137 9/154/9 11/152/11 
f 145/153/137 106/100/101 9/154/9 
f 106/100/101 7/155/7 9/154/9 
f 106/100/101 107/101/102 7/155/7 
f 107/101/102 22/156/22 7/155/7 
f 107/101/102 109/103/104 22/156/22 
f 110/157/105 146/158/138 109/123/104 
f 146/158/138 130/124/123 109/123/104 
f 146/158/138 147/159/139 130/124/123 
f 147/159/139 131/127/124 130/124/123 
f 147/159/139 148/160/140 131/127/124 
f 148/160/140 132/129/125 131/127/124 
f 148/160/140 149/161/141 132/129/125 
f 149/161/141 133/131/126 132/129/125 
f 149/161/141 145/153/137 133/131/126 
f 49/2/49 136/162/129 43/36/43 
f 79/73/78 80/74/79 142/144/134 
f 80/74/79 143/145/135 142/144/134 
f 80/74/79 150/163/142 143/145/135 
f 150/163/142 124/120/117 143/145/135 
f 150/163/142 151/164/143 124/120/117 
f 151/164/143 122/118/115 124/120/117 
f 151/164/143 152/165/144 122/118/115 
f 152/165/144 77/69/76 122/118/115 
f 152/165/144 93/89/89 77/69/76 
f 93/89/89 76/68/75 77/69/76 
f 6/6/6 5/5/5 153/166/145 
f 5/5/5 154/6/146 153/166/145 
f 5/5/5 155/4/147 154/6/146 
f 155/4/147 156/112/148 154/6/146 
f 155/4/147 157/113/149 156/112/148 
f 157/113/149 158/114/150 156/112/148 
f 157/113/149 159/115/151 158/114/150 
f 159/115/151 120/116/113 158/114/150 
f 159/115/151 160/167/152 120/116/113 
f 160/167/152 119/115/112 120/116/113 
f 92/88/88 93/89/89 161/168/153 
f 93/89/89 162/169/154 161/168/153 
f 93/89/89 152/165/144 162/169/154 
f 152/165/144 163/170/155 162/169/154 
f 152/165/144 151/164/143 163/170/155 
f 151/164/143 164/171/156 163/170/155 
f 151/164/143 150/163/142 164/171/156 
f 150/163/142 91/86/87 164/171/156 
f 150/163/142 80/74/79 91/86/87 
f 80/74/79 78/71/77 91/86/87 
f 72/172/71 73/173/72 110/157/105 
f 73/173/72 146/158/138 110/157/105 
f 73/173/72 135/174/128 146/158/138 
f 135/174/128 147/159/139 146/158/138 
f 135/174/128 70/175/69 147/159/139 
f 70/175/69 148/160/140 147/159/139 
f 70/175/69 68/139/67 148/160/140 
f 68/139/67 149/161/141 148/160/140 
f 68/139/67 104/98/99 149/161/141 
f 104/98/99 145/153/137 149/161/141 
f 104/98/99 106/100/101 145/153/137 
f 61/64/61 71/63/70 129/133/122 
f 71/63/70 127/42/120 129/133/122 
f 71/63/70 139/132/131 127/42/120 
f 139/132/131 88/41/84 127/42/120 
f 139/132/131 67/56/66 88/41/84 
f 67/56/66 87/83/83 88/41/84 
f 67/56/66 69/58/68 87/83/83 
f 69/58/68 86/82/82 87/83/83 
f 69/58/68 134/83/127 86/82/82 
f 134/83/127 165/81/157 86/82/82 
f 134/83/127 53/41/53 165/81/157 
f 53/41/53 166/121/158 165/81/157 
f 53/41/53 55/43/55 166/121/158 
f 55/43/55 137/176/130 166/121/158 
f 126/43/119 125/121/118 140/176/132 
f 125/121/118 141/162/133 140/176/132 
f 125/121/118 2/2/2 141/162/133 
f 2/2/2 45/36/45 141/162/133 
f 3/3/3 86/82/82 47/37/47 
f 86/82/82 48/3/48 47/37/47 
f 86/82/82 165/81/157 48/3/48 
f 165/81/157 49/2/49 48/3/48 
f 165/81/157 166/121/158 49/2/49 
f 166/121/158 136/162/129 49/2/49 
f 166/121/158 137/176/130 136/162/129 
f 8/177/8 21/178/21 154/179/146 
f 21/178/21 153/180/145 154/179/146 
f 21/178/21 19/177/19 153/180/145 
f 19/177/19 6/179/6 153/180/145 
f 19/177/19 17/181/17 6/179/6 
f 17/181/17 116/182/109 6/179/6 
f 17/181/17 16/183/16 116/182/109 
f 16/183/16 118/184/111 116/182/109 
f 16/183/16 14/185/14 118/184/111 
f 14/185/14 120/186/113 118/184/111 
f 14/185/14 12/183/12 120/186/113 
f 12/183/12 158/184/150 120/186/113 
f 12/183/12 10/181/10 158/184/150 
f 10/181/10 156/182/148 158/184/150 
f 10/181/10 8/177/8 156/182/148 
f 8/177/8 154/179/146 156/182/148 
f 161/187/153 162/188/154 5/180/5 
f 162/188/154 155/179/147 5/180/5 
f 162/188/154 163/189/155 155/179/147 
f 163/189/155 157/182/149 155/179/147 
f 163/189/155 164/190/156 157/182/149 
f 164/190/156 159/184/151 157/182/149 
f 164/190/156 91/191/87 159/184/151 
f 91/191/87 160/186/152 159/184/151 
f 91/191/87 90/190/86 160/186/152 
f 90/190/86 119/184/112 160/186/152 
f 90/190/86 89/189/85 119/184/112 
f 89/189/85 117/182/110 119/184/112 
f 89/189/85 92/188/88 117/182/110 
f 92/188/88 4/179/4 117/182/110 
f 92/188/88 161/187/153 4/179/4 
f 161/187/153 5/180/5 4/179/4 
f 167/192/159 144/193/136 36/30/36 
f 23/17/23 25/19/25 144/193/136 
f 35/29/35 37/31/37 34/28/34 
f 37/31/37 32/26/32 34/28/34 
# 0 polygons - 320 triangles

