# 3ds Max Wavefront OBJ Exporter v0.99 - (c)2007 guruware
# File Created: 07.05.2025 23:27:38

mtllib Pie_derechoPerry.mtl

#
# object PieDer
#

v  -0.1208 -0.9602 18.7452
v  -0.1322 -0.8452 18.6588
v  -0.1424 -0.8206 18.8019
v  -0.0462 -0.9947 18.6666
v  0.0960 -1.0014 18.6611
v  0.0668 -1.0847 18.9193
v  -0.0338 -1.0659 18.7547
v  0.1568 -1.0847 18.9201
v  0.1305 -1.0108 19.0863
v  0.1781 -1.0108 19.0884
v  0.0745 -1.1306 18.9419
v  0.1236 -1.0828 19.0932
v  -0.1119 -1.0491 18.8121
v  -0.0243 -1.1260 18.8229
v  0.0765 -1.1662 18.9596
v  0.1149 -1.1385 19.0986
v  0.1020 -1.0716 19.1695
v  0.1103 -0.9728 19.1500
v  0.1212 -0.8450 19.1249
v  -0.0043 -0.8496 19.1582
v  -0.0161 -0.9770 19.1787
v  -0.1247 -0.9231 19.1386
v  -0.1230 -0.7847 19.1136
v  -0.0167 -1.1023 19.1845
v  -0.1129 -1.0765 19.1466
v  -0.1510 -0.9211 19.0037
v  -0.1314 -1.0755 19.0411
v  -0.1406 -0.7707 18.9614
v  -0.1477 -0.9622 18.8659
v  -0.1188 -1.0952 18.9234
v  -0.0924 -1.2172 18.9762
v  -0.1135 -1.2172 19.0754
v  -0.1021 -1.2172 19.1540
v  -0.0172 -1.2172 19.1899
v  0.0806 -1.1475 19.1749
v  -0.1092 -1.2668 19.0785
v  -0.0984 -1.2740 19.1486
v  -0.0893 -1.2627 18.9845
v  -0.0838 -1.1368 18.8705
v  -0.0581 -1.2171 18.9241
v  -0.0569 -1.2603 18.9362
v  -0.0090 -1.1735 18.8717
v  0.0049 -1.2171 18.9165
v  -0.0549 -1.2953 18.9354
v  0.0082 -1.2603 18.9292
v  -0.0858 -1.3034 18.9822
v  -0.1047 -1.3187 19.0686
v  -0.0945 -1.3324 19.1306
v  -0.0172 -1.3381 19.1629
v  -0.0172 -1.2805 19.1855
v  0.0553 -1.2789 19.1763
v  0.0609 -1.2172 19.1798
v  0.1000 -1.1795 19.1018
v  0.0791 -1.2700 19.1023
v  0.0862 -1.2172 19.1047
v  0.0519 -1.3364 19.1539
v  -0.0165 -1.4495 19.0587
v  -0.0755 -1.4467 19.0349
v  -0.0835 -1.4399 18.9875
v  -0.0688 -1.4322 18.9236
v  0.0068 -1.2952 18.9286
v  -0.0449 -1.4282 18.8890
v  0.0810 -1.2636 19.0102
v  0.0785 -1.2172 18.9993
v  0.0775 -1.1928 18.9803
v  0.0746 -1.3235 19.0917
v  0.0763 -1.3074 19.0120
v  0.0379 -1.4487 19.0521
v  -0.0157 -1.5603 18.9552
v  -0.0568 -1.5603 18.9397
v  -0.0624 -1.5603 18.9070
v  -0.0520 -1.5603 18.8653
v  0.0044 -1.4282 18.8839
v  -0.0350 -1.5602 18.8428
v  0.0568 -1.4343 18.9456
v  0.0555 -1.4423 19.0047
v  0.0240 -1.5603 18.9509
v  -0.0153 -1.5838 18.9435
v  -0.0537 -1.5838 18.9290
v  -0.0589 -1.5838 18.8986
v  -0.0492 -1.5838 18.8599
v  0.0020 -1.5602 18.8395
v  -0.0334 -1.5838 18.8389
v  0.0374 -1.5603 18.8797
v  0.0365 -1.5603 18.9182
v  0.0214 -1.5838 18.9395
v  0.0185 -1.6105 18.9306
v  -0.0148 -1.6105 18.9343
v  -0.0501 -1.6105 18.9211
v  -0.0549 -1.6105 18.8933
v  -0.0460 -1.6105 18.8579
v  0.0014 -1.5838 18.8358
v  -0.0316 -1.6105 18.8387
v  0.0339 -1.5838 18.8733
v  0.0331 -1.5838 18.9090
v  0.0292 -1.6105 18.9028
v  0.0300 -1.6105 18.8701
v  0.0008 -1.6105 18.8359
v  0.1725 -1.6340 19.1263
v  0.1674 -1.6090 19.1246
v  0.1609 -1.6340 19.0540
v  0.1674 -1.6590 19.1246
v  0.1795 -1.6340 19.1987
v  0.1742 -1.6090 19.1951
v  0.1742 -1.6590 19.1951
v  0.0517 -1.6090 19.1951
v  0.0474 -1.6090 19.1246
v  0.1562 -1.6090 19.0543
v  0.1562 -1.6590 19.0543
v  0.1231 -1.6590 18.9135
v  0.1270 -1.6340 18.9093
v  0.1231 -1.6090 18.9135
v  0.0474 -1.6590 19.1246
v  0.0517 -1.6590 19.1951
v  0.1089 -1.6590 19.3495
v  0.1629 -1.6590 19.3391
v  0.1788 -1.6590 19.3186
v  0.1842 -1.6340 19.3255
v  0.1788 -1.6090 19.3186
v  0.1089 -1.6090 19.3495
v  0.1629 -1.6090 19.3391
v  -0.0829 -1.6090 19.1951
v  -0.0787 -1.6090 19.1246
v  -0.0435 -1.6090 19.3636
v  0.0122 -1.6090 19.3636
v  0.0598 -1.6090 19.3260
v  -0.0729 -1.6090 19.0543
v  0.0416 -1.6090 19.0543
v  0.0306 -1.6090 18.9135
v  0.0831 -1.6090 18.8154
v  0.0831 -1.6590 18.8154
v  0.0858 -1.6340 18.8085
v  0.0306 -1.6590 18.9135
v  0.0416 -1.6590 19.0543
v  -0.0787 -1.6590 19.1246
v  -0.0829 -1.6590 19.1951
v  -0.0435 -1.6590 19.3636
v  0.0122 -1.6590 19.3636
v  0.0598 -1.6590 19.3260
v  0.0619 -1.6340 19.3332
v  0.1123 -1.6340 19.3573
v  0.1678 -1.6340 19.3467
v  0.0130 -1.6340 19.3718
v  -0.0442 -1.6340 19.3718
v  -0.0932 -1.6340 19.3332
v  -0.0911 -1.6090 19.3260
v  -0.0911 -1.6590 19.3260
v  -0.1987 -1.6590 19.1246
v  -0.1401 -1.6590 19.3495
v  -0.2055 -1.6590 19.1951
v  -0.1874 -1.6590 19.0543
v  -0.0729 -1.6590 19.0543
v  -0.0619 -1.6590 18.9135
v  -0.0486 -1.6590 18.7688
v  0.0173 -1.6590 18.7688
v  0.0182 -1.6340 18.7606
v  0.0173 -1.6090 18.7688
v  -0.0486 -1.6090 18.7688
v  -0.0495 -1.6340 18.7606
v  -0.1144 -1.6590 18.8154
v  -0.1171 -1.6340 18.8085
v  -0.1544 -1.6590 18.9135
v  -0.1922 -1.6340 19.0540
v  -0.2038 -1.6340 19.1263
v  -0.2108 -1.6340 19.1987
v  -0.1942 -1.6590 19.3391
v  -0.2101 -1.6590 19.3186
v  -0.1436 -1.6340 19.3573
v  -0.1401 -1.6090 19.3495
v  -0.1942 -1.6090 19.3391
v  -0.2055 -1.6090 19.1951
v  -0.1991 -1.6340 19.3467
v  -0.2155 -1.6340 19.3255
v  -0.2101 -1.6090 19.3186
v  -0.1987 -1.6090 19.1246
v  -0.1874 -1.6090 19.0543
v  -0.1544 -1.6090 18.9135
v  -0.1583 -1.6340 18.9093
v  -0.1144 -1.6090 18.8154
v  -0.0619 -1.6090 18.9135
# 180 vertices

vn 0.8706 0.3471 0.3487
vn 0.9522 0.1876 0.2413
vn 0.9988 0.0045 0.0490
vn 0.4141 0.7938 0.4454
vn 0.0216 0.9338 0.3572
vn -0.6546 0.6670 0.3558
vn -0.0846 0.7249 0.6836
vn 0.0004 0.9987 -0.0506
vn -0.6997 0.4600 -0.5466
vn 0.0307 0.6346 -0.7722
vn -0.8810 0.1501 0.4488
vn -0.9938 0.1109 -0.0040
vn 0.7811 0.4633 0.4186
vn -0.1169 0.6971 0.7073
vn -0.8503 0.2625 0.4561
vn -0.9692 0.2358 -0.0716
vn -0.6518 0.0154 -0.7582
vn -0.6768 -0.0767 -0.7322
vn -0.1635 0.0266 -0.9862
vn 0.0123 -0.1587 -0.9873
vn 0.0734 -0.1046 -0.9918
vn 0.7398 -0.0629 -0.6698
vn 0.7518 -0.1559 -0.6407
vn 0.1282 -0.0412 -0.9909
vn 0.7709 0.0251 -0.6364
vn 0.9972 0.0219 -0.0721
vn 0.9909 0.1293 -0.0373
vn 0.9953 -0.0800 -0.0547
vn 0.9867 0.1294 0.0987
vn 0.9480 0.2801 0.1510
vn 0.9153 0.2296 0.3310
vn 0.9944 0.1043 0.0197
vn 0.7757 0.0621 -0.6281
vn 0.1408 0.0160 -0.9899
vn -0.5981 0.1176 -0.7928
vn 0.9962 0.0845 0.0207
vn 0.7750 0.1691 -0.6090
vn 0.9205 0.0906 0.3800
vn 0.6483 0.5525 0.5239
vn 0.4910 0.4730 0.7315
vn 0.5366 0.1313 0.8335
vn -0.2388 0.6251 0.7431
vn -0.3783 0.4468 0.8107
vn 0.5432 -0.1144 0.8318
vn -0.3867 0.1191 0.9145
vn 0.9281 0.0093 0.3722
vn 0.9920 0.1239 0.0261
vn 0.7411 0.3822 -0.5521
vn 0.1289 0.5168 -0.8463
vn 0.1469 0.2166 -0.9651
vn -0.6076 0.2080 -0.7665
vn -0.5953 0.1091 -0.7960
vn -0.9422 0.3136 -0.1177
vn -0.9779 0.1282 -0.1653
vn -0.9632 0.2265 -0.1449
vn -0.5889 0.4515 -0.6704
vn 0.1100 0.6763 -0.7284
vn 0.7214 0.5115 -0.4669
vn 0.9883 0.1442 0.0503
vn 0.9164 -0.0582 0.3959
vn -0.3834 -0.1431 0.9124
vn 0.5062 -0.2527 0.8246
vn -0.9375 0.0806 0.3385
vn -0.9146 0.1554 0.3732
vn -0.8538 0.3061 0.4212
vn -0.9668 0.1961 -0.1639
vn -0.9561 0.0623 0.2864
vn -0.5657 0.5898 -0.5763
vn 0.1094 0.5737 -0.8117
vn 0.7333 0.4368 -0.5211
vn 0.9905 0.1261 0.0543
vn 0.8981 -0.0374 0.4382
vn -0.3698 -0.2938 0.8815
vn 0.4737 -0.1838 0.8613
vn -0.9428 -0.0240 0.3325
vn -0.9540 0.2626 -0.1448
vn -0.5734 0.5102 -0.6410
vn 0.1173 0.3892 -0.9136
vn 0.7499 0.3174 -0.5804
vn 0.9902 0.1312 0.0479
vn 0.8978 0.0364 0.4388
vn -0.3611 -0.2089 0.9088
vn 0.4774 -0.0435 0.8776
vn -0.9330 -0.0073 0.3599
vn -0.9576 0.2319 -0.1712
vn -0.5909 0.3621 -0.7209
vn -0.6133 0.3067 -0.7279
vn 0.1213 0.3235 -0.9384
vn 0.7706 0.2726 -0.5761
vn 0.9889 0.1344 0.0637
vn 0.8934 0.0717 0.4435
vn -0.3683 -0.0597 0.9278
vn 0.4706 0.0248 0.8820
vn -0.9323 0.0630 0.3562
vn -0.9638 0.1952 -0.1817
vn -0.9687 0.1809 -0.1700
vn -0.9242 0.0906 0.3709
vn -0.3736 0.0105 0.9275
vn -0.9921 -0.0000 0.1255
vn -0.6390 -0.7647 0.0831
vn -0.9812 -0.0000 0.1929
vn -0.6390 0.7647 0.0831
vn -0.9980 -0.0000 0.0639
vn -0.6398 -0.7673 0.0446
vn -0.6398 0.7672 0.0446
vn 0.0000 -1.0000 -0.0000
vn -0.6344 -0.7627 0.1254
vn -0.6344 0.7627 0.1254
vn -0.6237 0.7569 0.1952
vn -0.9510 -0.0000 0.3093
vn -0.6237 -0.7569 0.1952
vn 0.0000 1.0000 -0.0000
vn 0.1099 0.7429 -0.6603
vn -0.3389 0.7593 -0.5555
vn -0.6528 0.7363 -0.1781
vn -0.9397 -0.0000 -0.3421
vn -0.6527 -0.7363 -0.1781
vn 0.1099 -0.7430 -0.6603
vn -0.3389 -0.7593 -0.5555
vn 0.2270 -0.7509 -0.6201
vn -0.2270 -0.7509 -0.6201
vn -0.0532 -0.9040 -0.4243
vn -0.5395 -0.7383 0.4049
vn -0.5395 0.7383 0.4049
vn -0.7681 -0.0000 0.6404
vn 0.2270 0.7509 -0.6202
vn -0.2270 0.7509 -0.6202
vn -0.0532 0.9040 -0.4243
vn -0.0909 -0.0000 -0.9959
vn 0.0975 -0.0000 -0.9952
vn -0.5246 -0.0000 -0.8513
vn -0.3142 -0.0000 -0.9494
vn 0.3141 -0.0000 -0.9494
vn 0.0909 -0.0000 -0.9959
vn 0.0532 -0.9040 -0.4243
vn 0.0532 0.9040 -0.4243
vn 0.6391 0.7647 0.0831
vn -0.1098 0.7429 -0.6603
vn 0.6398 0.7672 0.0447
vn 0.6345 0.7627 0.1254
vn 0.2066 0.7562 0.6209
vn -0.2066 0.7562 0.6209
vn -0.2929 -0.0000 0.9561
vn -0.2066 -0.7562 0.6208
vn 0.2066 -0.7562 0.6208
vn 0.2929 -0.0000 0.9561
vn 0.5395 0.7382 0.4049
vn 0.7681 -0.0000 0.6404
vn 0.6237 0.7569 0.1952
vn 0.9812 -0.0000 0.1929
vn 0.9921 -0.0000 0.1255
vn 0.9980 -0.0000 0.0639
vn 0.3389 0.7593 -0.5555
vn 0.6528 0.7363 -0.1781
vn -0.0975 -0.0000 -0.9952
vn -0.1098 -0.7430 -0.6603
vn 0.3389 -0.7593 -0.5555
vn 0.6398 -0.7673 0.0447
vn 0.5246 -0.0000 -0.8513
vn 0.9396 -0.0000 -0.3422
vn 0.6528 -0.7363 -0.1781
vn 0.6390 -0.7647 0.0831
vn 0.6345 -0.7627 0.1254
vn 0.6237 -0.7569 0.1952
vn 0.9510 -0.0000 0.3093
vn 0.5395 -0.7383 0.4049
# 166 vertex normals

vt 0.2345 0.3368 0.0000
vt 0.2590 0.3809 0.0000
vt 0.2052 0.3798 0.0000
vt 0.2666 0.3215 0.0000
vt 0.2764 0.6338 0.0000
vt 0.2519 0.6356 0.0000
vt 0.2676 0.5891 0.0000
vt 0.2474 0.2938 0.0000
vt 0.2553 0.2345 0.0000
vt 0.2832 0.5877 0.0000
vt 0.1003 0.4987 0.0000
vt 0.0830 0.5574 0.0000
vt 0.0852 0.4944 0.0000
vt 0.0570 0.5509 0.0000
vt 0.0339 0.2215 0.0000
vt 0.0578 0.2563 0.0000
vt 0.0215 0.2271 0.0000
vt 0.0464 0.2714 0.0000
vt 0.2434 0.2245 0.0000
vt 0.2179 0.3049 0.0000
vt 0.2305 0.2696 0.0000
vt 0.2348 0.2175 0.0000
vt 0.0435 0.2172 0.0000
vt 0.0666 0.2456 0.0000
vt 0.0733 0.2669 0.0000
vt 0.0598 0.2879 0.0000
vt 0.0418 0.3204 0.0000
vt 0.0788 0.5922 0.0000
vt 0.0781 0.3304 0.0000
vt 0.0919 0.2983 0.0000
vt 0.1158 0.3207 0.0000
vt 0.1074 0.3591 0.0000
vt 0.1017 0.2696 0.0000
vt 0.1238 0.2819 0.0000
vt 0.1518 0.3323 0.0000
vt 0.1511 0.2873 0.0000
vt 0.1496 0.3801 0.0000
vt 0.1953 0.3299 0.0000
vt 0.1858 0.2859 0.0000
vt 0.1724 0.2472 0.0000
vt 0.1452 0.2499 0.0000
vt 0.1272 0.2495 0.0000
vt 0.1087 0.2458 0.0000
vt 0.0842 0.2528 0.0000
vt 0.1435 0.2385 0.0000
vt 0.1285 0.2384 0.0000
vt 0.1676 0.2344 0.0000
vt 0.2055 0.2727 0.0000
vt 0.1921 0.2428 0.0000
vt 0.1844 0.2291 0.0000
vt 0.2193 0.2498 0.0000
vt 0.2103 0.2308 0.0000
vt 0.1800 0.2185 0.0000
vt 0.2022 0.2184 0.0000
vt 0.1649 0.2234 0.0000
vt 0.1434 0.2268 0.0000
vt 0.1305 0.2275 0.0000
vt 0.1154 0.2247 0.0000
vt 0.1121 0.2347 0.0000
vt 0.0997 0.2304 0.0000
vt 0.0937 0.2405 0.0000
vt 0.0733 0.2378 0.0000
vt 0.0871 0.2218 0.0000
vt 0.0796 0.2310 0.0000
vt 0.1038 0.2206 0.0000
vt 0.1245 0.1969 0.0000
vt 0.1379 0.1984 0.0000
vt 0.1480 0.1952 0.0000
vt 0.1613 0.1892 0.0000
vt 0.1958 0.2100 0.0000
vt 0.1695 0.1849 0.0000
vt 0.2204 0.2001 0.0000
vt 0.2260 0.2062 0.0000
vt 0.2293 0.2111 0.0000
vt 0.0522 0.2152 0.0000
vt 0.0604 0.2135 0.0000
vt 0.0714 0.2068 0.0000
vt 0.0940 0.2126 0.0000
vt 0.0810 0.2003 0.0000
vt 0.1138 0.1929 0.0000
vt 0.1340 0.1662 0.0000
vt 0.1435 0.1670 0.0000
vt 0.1498 0.1640 0.0000
vt 0.1572 0.1597 0.0000
vt 0.1792 0.1805 0.0000
vt 0.1619 0.1569 0.0000
vt 0.2155 0.1947 0.0000
vt 0.1949 0.1758 0.0000
vt 0.1069 0.1845 0.0000
vt 0.0995 0.1739 0.0000
vt 0.1259 0.1630 0.0000
vt 0.1355 0.1610 0.0000
vt 0.1436 0.1615 0.0000
vt 0.1492 0.1590 0.0000
vt 0.1560 0.1551 0.0000
vt 0.1685 0.1543 0.0000
vt 0.1605 0.1526 0.0000
vt 0.1788 0.1527 0.0000
vt 0.1216 0.1566 0.0000
vt 0.1180 0.1494 0.0000
vt 0.1287 0.1580 0.0000
vt 0.1316 0.1535 0.0000
vt 0.1368 0.1559 0.0000
vt 0.1433 0.1562 0.0000
vt 0.1477 0.1539 0.0000
vt 0.1540 0.1501 0.0000
vt 0.1668 0.1501 0.0000
vt 0.1586 0.1476 0.0000
vt 0.1765 0.1481 0.0000
vt 0.1249 0.1526 0.0000
vt 0.1217 0.1464 0.0000
vt 0.1287 0.1491 0.0000
vt 0.1743 0.1429 0.0000
vt 0.1260 0.1436 0.0000
vt 0.1651 0.1450 0.0000
vt 0.2344 0.5464 0.0000
vt 0.2330 0.5468 0.0000
vt 0.2318 0.5662 0.0000
vt 0.2369 0.5265 0.0000
vt 0.2355 0.5275 0.0000
vt 0.2019 0.5275 0.0000
vt 0.2005 0.5468 0.0000
vt 0.2305 0.5661 0.0000
vt 0.2215 0.6047 0.0000
vt 0.2225 0.6058 0.0000
vt 0.0444 0.4402 0.0000
vt 0.0556 0.4402 0.0000
vt 0.0547 0.4468 0.0000
vt 0.0449 0.4336 0.0000
vt 0.0564 0.4336 0.0000
vt 0.0503 0.4190 0.0000
vt 0.0554 0.4200 0.0000
vt 0.2367 0.4937 0.0000
vt 0.2382 0.4918 0.0000
vt 0.2176 0.4852 0.0000
vt 0.2324 0.4880 0.0000
vt 0.1650 0.5275 0.0000
vt 0.1664 0.5468 0.0000
vt 0.1758 0.4813 0.0000
vt 0.1911 0.4813 0.0000
vt 0.2041 0.4916 0.0000
vt 0.1677 0.5661 0.0000
vt 0.1991 0.5661 0.0000
vt 0.1961 0.6047 0.0000
vt 0.2105 0.6315 0.0000
vt 0.2112 0.6334 0.0000
vt 0.0429 0.4601 0.0000
vt 0.0439 0.4468 0.0000
vt 0.0516 0.4601 0.0000
vt 0.0478 0.4694 0.0000
vt 0.0327 0.4402 0.0000
vt 0.0322 0.4336 0.0000
vt 0.0359 0.4177 0.0000
vt 0.0412 0.4177 0.0000
vt 0.0456 0.4212 0.0000
vt 0.2047 0.4897 0.0000
vt 0.2185 0.4830 0.0000
vt 0.2337 0.4860 0.0000
vt 0.1913 0.4791 0.0000
vt 0.1756 0.4791 0.0000
vt 0.1622 0.4897 0.0000
vt 0.1628 0.4916 0.0000
vt 0.0314 0.4212 0.0000
vt 0.0215 0.4402 0.0000
vt 0.0268 0.4190 0.0000
vt 0.0206 0.4336 0.0000
vt 0.0223 0.4468 0.0000
vt 0.0331 0.4468 0.0000
vt 0.0342 0.4601 0.0000
vt 0.0354 0.4738 0.0000
vt 0.0416 0.4738 0.0000
vt 0.1925 0.6443 0.0000
vt 0.1927 0.6466 0.0000
vt 0.1744 0.6443 0.0000
vt 0.1742 0.6466 0.0000
vt 0.0292 0.4694 0.0000
vt 0.1564 0.6315 0.0000
vt 0.1556 0.6334 0.0000
vt 0.0255 0.4601 0.0000
vt 0.1364 0.5661 0.0000
vt 0.1351 0.5662 0.0000
vt 0.1339 0.5468 0.0000
vt 0.1454 0.6047 0.0000
vt 0.1325 0.5464 0.0000
vt 0.1314 0.5275 0.0000
vt 0.1300 0.5265 0.0000
vt 0.0217 0.4200 0.0000
vt 0.0202 0.4219 0.0000
vt 0.1301 0.4937 0.0000
vt 0.1484 0.4830 0.0000
vt 0.1493 0.4852 0.0000
vt 0.1345 0.4880 0.0000
vt 0.1332 0.4860 0.0000
vt 0.1287 0.4918 0.0000
vt 0.1444 0.6058 0.0000
vt 0.1708 0.6047 0.0000
# 196 texture coords

o PieDer
g PieDer
usemtl peluches_09___Default
s off
f 1/1/1 2/2/2 3/3/3 
f 1/1/1 4/4/4 2/2/2 
f 5/5/5 4/6/4 6/7/6 
f 7/8/7 4/4/4 1/1/1 
f 7/8/7 6/9/6 4/4/4 
f 5/5/5 6/7/6 8/10/8 
f 6/11/6 9/12/9 8/13/8 
f 9/12/9 10/14/10 8/13/8 
f 11/15/11 12/16/12 6/17/6 
f 12/16/12 9/18/9 6/17/6 
f 6/9/6 7/8/7 11/19/11 
f 13/20/13 7/8/7 1/1/1 
f 7/8/7 14/21/14 11/19/11 
f 7/8/7 13/20/13 14/21/14 
f 11/19/11 14/21/14 15/22/15 
f 15/23/15 16/24/16 11/15/11 
f 16/24/16 12/16/12 11/15/11 
f 16/24/16 17/25/17 12/16/12 
f 17/25/17 18/26/18 12/16/12 
f 12/16/12 18/26/18 9/18/9 
f 18/26/18 19/27/19 9/18/9 
f 9/12/9 19/28/19 10/14/10 
f 18/26/18 20/29/20 19/27/19 
f 17/25/17 21/30/21 18/26/18 
f 21/30/21 20/29/20 18/26/18 
f 21/30/21 22/31/22 20/29/20 
f 22/31/22 23/32/23 20/29/20 
f 24/33/24 21/30/21 17/25/17 
f 24/33/24 25/34/25 21/30/21 
f 25/34/25 22/31/22 21/30/21 
f 22/31/22 26/35/26 23/32/23 
f 25/34/25 27/36/27 22/31/22 
f 27/36/27 26/35/26 22/31/22 
f 26/35/26 28/37/28 23/32/23 
f 26/35/26 29/38/29 28/37/28 
f 27/36/27 30/39/30 26/35/26 
f 30/39/30 29/38/29 26/35/26 
f 30/39/30 27/36/27 31/40/31 
f 27/36/27 32/41/32 31/40/31 
f 27/36/27 25/34/25 32/41/32 
f 25/34/25 33/42/33 32/41/32 
f 25/34/25 24/33/24 33/42/33 
f 24/33/24 34/43/34 33/42/33 
f 35/44/35 24/33/24 17/25/17 
f 24/33/24 35/44/35 34/43/34 
f 32/41/32 33/42/33 36/45/36 
f 33/42/33 37/46/37 36/45/36 
f 33/42/33 34/43/34 37/46/37 
f 31/40/31 32/41/32 38/47/38 
f 32/41/32 36/45/36 38/47/38 
f 39/48/39 31/40/31 40/49/40 
f 30/39/30 31/40/31 39/48/39 
f 40/49/40 31/40/31 41/50/41 
f 31/40/31 38/47/38 41/50/41 
f 30/39/30 13/20/13 29/38/29 
f 13/20/13 30/39/30 39/48/39 
f 29/38/29 3/3/3 28/37/28 
f 29/38/29 1/1/1 3/3/3 
f 13/20/13 1/1/1 29/38/29 
f 13/20/13 39/48/39 14/21/14 
f 39/48/39 40/49/40 42/51/42 
f 14/21/14 39/48/39 42/51/42 
f 42/51/42 40/49/40 43/52/43 
f 40/49/40 41/50/41 43/52/43 
f 41/50/41 38/47/38 44/53/44 
f 45/54/45 41/50/41 44/53/44 
f 45/54/45 43/52/43 41/50/41 
f 46/55/46 44/53/44 38/47/38 
f 47/56/47 46/55/46 38/47/38 
f 47/56/47 38/47/38 36/45/36 
f 48/57/48 47/56/47 36/45/36 
f 48/57/48 36/45/36 37/46/37 
f 49/58/49 48/57/48 37/46/37 
f 49/58/49 37/46/37 50/59/50 
f 34/43/34 50/59/50 37/46/37 
f 51/60/51 34/43/34 52/61/52 
f 34/43/34 51/60/51 50/59/50 
f 35/44/35 52/61/52 34/43/34 
f 53/62/53 35/44/35 16/24/16 
f 35/44/35 17/25/17 16/24/16 
f 35/44/35 53/62/53 52/61/52 
f 54/63/54 52/61/52 55/64/55 
f 54/63/54 51/60/51 52/61/52 
f 53/62/53 55/64/55 52/61/52 
f 51/60/51 56/65/56 50/59/50 
f 51/60/51 54/63/54 56/65/56 
f 56/65/56 49/58/49 50/59/50 
f 56/65/56 57/66/57 49/58/49 
f 57/66/57 48/57/48 49/58/49 
f 57/66/57 58/67/58 48/57/48 
f 58/67/58 47/56/47 48/57/48 
f 59/68/59 46/55/46 47/56/47 
f 58/67/58 59/68/59 47/56/47 
f 59/68/59 60/69/60 46/55/46 
f 46/55/46 60/69/60 44/53/44 
f 61/70/61 44/53/44 62/71/62 
f 61/70/61 45/54/45 44/53/44 
f 60/69/60 62/71/62 44/53/44 
f 63/72/63 45/54/45 61/70/61 
f 63/72/63 64/73/64 45/54/45 
f 64/73/64 43/52/43 45/54/45 
f 64/73/64 65/74/65 43/52/43 
f 42/51/42 43/52/43 65/74/65 
f 14/21/14 42/51/42 15/22/15 
f 15/22/15 42/51/42 65/74/65 
f 16/24/16 15/23/15 65/75/65 
f 64/76/64 53/62/53 65/75/65 
f 53/62/53 16/24/16 65/75/65 
f 53/62/53 64/76/64 55/64/55 
f 63/77/63 54/63/54 55/64/55 
f 64/76/64 63/77/63 55/64/55 
f 54/63/54 66/78/66 56/65/56 
f 54/63/54 67/79/67 66/78/66 
f 54/63/54 63/77/63 67/79/67 
f 66/78/66 68/80/68 56/65/56 
f 68/80/68 57/66/57 56/65/56 
f 68/80/68 69/81/69 57/66/57 
f 69/81/69 58/67/58 57/66/57 
f 70/82/70 59/68/59 58/67/58 
f 69/81/69 70/82/70 58/67/58 
f 71/83/71 60/69/60 59/68/59 
f 70/82/70 71/83/71 59/68/59 
f 60/69/60 72/84/72 62/71/62 
f 71/83/71 72/84/72 60/69/60 
f 73/85/73 62/71/62 74/86/74 
f 73/85/73 61/70/61 62/71/62 
f 72/84/72 74/86/74 62/71/62 
f 63/72/63 61/70/61 67/87/67 
f 61/70/61 75/88/75 67/87/67 
f 61/70/61 73/85/73 75/88/75 
f 67/79/67 76/89/76 66/78/66 
f 67/79/67 75/90/75 76/89/76 
f 68/80/68 66/78/66 76/89/76 
f 68/80/68 76/89/76 77/91/77 
f 69/81/69 68/80/68 77/91/77 
f 69/81/69 77/91/77 78/92/78 
f 70/82/70 69/81/69 78/92/78 
f 71/83/71 70/82/70 79/93/79 
f 70/82/70 78/92/78 79/93/79 
f 72/84/72 71/83/71 80/94/80 
f 71/83/71 79/93/79 80/94/80 
f 72/84/72 81/95/81 74/86/74 
f 81/95/81 72/84/72 80/94/80 
f 82/96/82 73/85/73 74/86/74 
f 82/96/82 74/86/74 83/97/83 
f 81/95/81 83/97/83 74/86/74 
f 73/85/73 84/98/84 75/88/75 
f 73/85/73 82/96/82 84/98/84 
f 75/90/75 85/99/85 76/89/76 
f 75/90/75 84/100/84 85/99/85 
f 76/89/76 85/99/85 77/91/77 
f 86/101/86 77/91/77 85/99/85 
f 86/101/86 78/92/78 77/91/77 
f 87/102/87 78/92/78 86/101/86 
f 87/102/87 88/103/88 78/92/78 
f 88/103/88 79/93/79 78/92/78 
f 88/103/88 89/104/89 79/93/79 
f 89/104/89 80/94/80 79/93/79 
f 89/104/89 90/105/90 80/94/80 
f 90/105/90 81/95/81 80/94/80 
f 90/105/90 91/106/91 81/95/81 
f 81/95/81 91/106/91 83/97/83 
f 92/107/92 82/96/82 83/97/83 
f 92/107/92 83/97/83 93/108/93 
f 91/106/91 93/108/93 83/97/83 
f 82/96/82 94/109/94 84/98/84 
f 82/96/82 92/107/92 94/109/94 
f 84/100/84 95/110/95 85/99/85 
f 84/100/84 94/111/94 95/110/95 
f 95/110/95 86/101/86 85/99/85 
f 95/110/95 87/102/87 86/101/86 
f 95/110/95 96/112/96 87/102/87 
f 94/111/94 96/112/96 95/110/95 
f 92/107/92 97/113/97 94/109/94 
f 94/111/94 97/114/97 96/112/96 
f 92/107/92 98/115/98 97/113/97 
f 98/115/98 92/107/92 93/108/93 
f 99/116/99 100/117/100 101/118/101 
f 99/116/99 101/118/101 102/117/102 
f 99/116/99 103/119/103 104/120/104 
f 102/117/102 105/120/105 99/116/99 
f 105/120/105 103/119/103 99/116/99 
f 99/116/99 104/120/104 100/117/100 
f 106/121/106 107/122/106 100/117/100 
f 101/118/101 100/117/100 108/123/107 
f 100/117/100 107/122/106 108/123/107 
f 104/120/104 106/121/106 100/117/100 
f 109/123/108 102/117/102 101/118/101 
f 110/124/109 101/118/101 111/125/110 
f 110/124/109 109/123/108 101/118/101 
f 111/125/110 101/118/101 112/124/111 
f 101/118/101 108/123/107 112/124/111 
f 113/126/112 102/127/102 109/128/108 
f 102/127/102 113/126/112 114/129/112 
f 114/129/112 105/130/105 102/127/102 
f 105/130/105 114/129/112 115/131/113 
f 105/130/105 115/131/113 116/132/114 
f 105/120/105 117/133/115 103/119/103 
f 103/119/103 118/134/116 119/133/117 
f 117/133/115 118/134/116 103/119/103 
f 103/119/103 119/133/117 104/120/104 
f 104/120/104 120/135/118 106/121/106 
f 121/136/119 120/135/118 104/120/104 
f 119/133/117 121/136/119 104/120/104 
f 122/137/106 123/138/106 106/121/106 
f 123/138/106 107/122/106 106/121/106 
f 124/139/120 106/121/106 125/140/121 
f 122/137/106 106/121/106 124/139/120 
f 106/121/106 126/141/122 125/140/121 
f 120/135/118 126/141/122 106/121/106 
f 123/138/106 127/142/106 107/122/106 
f 107/122/106 128/143/106 108/123/107 
f 127/142/106 128/143/106 107/122/106 
f 128/143/106 112/124/111 108/123/107 
f 128/143/106 129/144/106 112/124/111 
f 129/144/106 130/145/123 112/124/111 
f 111/125/110 112/124/111 130/145/123 
f 131/145/124 111/125/110 132/146/125 
f 131/145/124 110/124/109 111/125/110 
f 132/146/125 111/125/110 130/145/123 
f 133/147/112 134/148/112 110/149/109 
f 134/148/112 109/128/108 110/149/109 
f 133/147/112 110/149/109 131/150/124 
f 134/148/112 113/126/112 109/128/108 
f 113/126/112 135/151/112 114/129/112 
f 113/126/112 134/148/112 135/151/112 
f 136/152/112 114/129/112 135/151/112 
f 136/152/112 137/153/126 114/129/112 
f 137/153/126 138/154/127 114/129/112 
f 114/129/112 139/155/128 115/131/113 
f 114/129/112 138/154/127 139/155/128 
f 115/135/113 139/141/128 140/156/129 
f 116/136/114 115/135/113 141/157/130 
f 115/135/113 140/156/129 141/157/130 
f 117/133/115 116/136/114 118/134/116 
f 116/136/114 142/158/131 118/134/116 
f 116/136/114 141/157/130 142/158/131 
f 118/134/116 121/136/119 119/133/117 
f 118/134/116 142/158/131 121/136/119 
f 121/136/119 141/157/130 120/135/118 
f 142/158/131 141/157/130 121/136/119 
f 141/157/130 140/156/129 120/135/118 
f 120/135/118 140/156/129 126/141/122 
f 140/156/129 125/140/121 126/141/122 
f 143/159/132 124/139/120 125/140/121 
f 140/156/129 143/159/132 125/140/121 
f 144/160/133 145/161/134 124/139/120 
f 146/162/135 124/139/120 145/161/134 
f 143/159/132 144/160/133 124/139/120 
f 146/162/135 122/137/106 124/139/120 
f 138/140/127 137/139/126 143/159/132 
f 137/139/126 144/160/133 143/159/132 
f 138/140/127 143/159/132 140/156/129 
f 145/161/134 137/139/126 147/162/136 
f 137/139/126 145/161/134 144/160/133 
f 137/153/126 136/152/112 147/163/136 
f 148/164/137 136/152/112 135/151/112 
f 136/152/112 149/165/138 147/163/136 
f 136/152/112 150/166/139 149/165/138 
f 150/166/139 136/152/112 148/164/137 
f 151/167/140 135/151/112 152/168/112 
f 151/167/140 148/164/137 135/151/112 
f 134/148/112 152/168/112 135/151/112 
f 134/148/112 133/147/112 153/169/112 
f 134/148/112 153/169/112 152/168/112 
f 133/147/112 154/170/141 153/169/112 
f 133/147/112 155/171/142 154/170/141 
f 155/171/142 133/147/112 131/150/124 
f 155/172/142 131/145/124 132/146/125 
f 155/172/142 132/146/125 156/173/143 
f 156/173/143 132/146/125 157/172/144 
f 132/146/125 130/145/123 157/172/144 
f 129/144/106 157/172/144 130/145/123 
f 158/174/145 159/175/146 157/172/144 
f 159/175/146 156/173/143 157/172/144 
f 158/174/145 157/172/144 129/144/106 
f 155/172/142 156/173/143 159/175/146 
f 154/174/141 155/172/142 159/175/146 
f 153/169/112 154/170/141 160/176/147 
f 160/177/147 154/174/141 161/178/148 
f 154/174/141 159/175/146 161/178/148 
f 153/169/112 162/179/149 152/168/112 
f 153/169/112 160/176/147 162/179/149 
f 162/179/149 151/167/140 152/168/112 
f 151/180/140 163/181/150 148/182/137 
f 151/180/140 162/183/149 163/181/150 
f 163/181/150 164/184/151 148/182/137 
f 150/185/139 148/182/137 164/184/151 
f 150/185/139 164/184/151 165/186/152 
f 150/166/139 166/187/153 149/165/138 
f 150/166/139 167/188/154 166/187/153 
f 167/189/154 150/185/139 165/186/152 
f 168/190/155 149/191/138 166/192/153 
f 168/190/155 145/161/134 149/191/138 
f 145/161/134 147/162/136 149/191/138 
f 169/191/156 145/161/134 168/190/155 
f 169/191/156 146/162/135 145/161/134 
f 146/162/135 169/191/156 122/137/106 
f 170/192/157 169/191/156 168/190/155 
f 169/191/156 170/192/157 171/185/158 
f 169/191/156 171/185/158 122/137/106 
f 168/190/155 166/192/153 172/193/159 
f 170/192/157 168/190/155 172/193/159 
f 166/192/153 173/194/160 172/193/159 
f 166/192/153 167/189/154 173/194/160 
f 167/189/154 165/186/152 173/194/160 
f 171/185/158 165/186/152 164/184/151 
f 173/194/160 165/186/152 174/189/161 
f 165/186/152 171/185/158 174/189/161 
f 164/184/151 163/181/150 175/182/162 
f 171/185/158 164/184/151 175/182/162 
f 175/182/162 163/181/150 176/180/163 
f 163/181/150 177/183/164 176/180/163 
f 163/181/150 178/195/165 177/183/164 
f 162/183/149 178/195/165 163/181/150 
f 162/183/149 160/177/147 178/195/165 
f 160/177/147 161/178/148 178/195/165 
f 178/195/165 161/178/148 179/177/166 
f 159/175/146 158/174/145 161/178/148 
f 158/174/145 179/177/166 161/178/148 
f 158/174/145 180/196/106 179/177/166 
f 180/196/106 158/174/145 129/144/106 
f 178/195/165 179/177/166 177/183/164 
f 180/196/106 177/183/164 179/177/166 
f 180/196/106 127/142/106 177/183/164 
f 127/142/106 176/180/163 177/183/164 
f 123/138/106 175/182/162 176/180/163 
f 127/142/106 123/138/106 176/180/163 
f 175/182/162 123/138/106 122/137/106 
f 122/137/106 171/185/158 175/182/162 
f 170/192/157 174/189/161 171/185/158 
f 173/194/160 170/192/157 172/193/159 
f 170/192/157 173/194/160 174/189/161 
f 127/142/106 180/196/106 128/143/106 
f 180/196/106 129/144/106 128/143/106 
f 139/141/128 138/140/127 140/156/129 
# 0 polygons - 336 triangles

