# 3ds Max Wavefront OBJ Exporter v0.99 - (c)2007 guruware
# File Created: 07.05.2025 23:27:59

mtllib Pie_izquierdoPerry.mtl

#
# object PieIzq
#

v  0.3381 -1.6340 19.3573
v  0.3415 -1.6590 19.3495
v  0.2875 -1.6590 19.3391
v  0.3884 -1.6340 19.3332
v  0.3415 -1.6090 19.3495
v  0.2875 -1.6090 19.3391
v  0.2825 -1.6340 19.3467
v  0.3905 -1.6590 19.3260
v  0.3987 -1.6590 19.1951
v  0.2761 -1.6090 19.1951
v  0.3905 -1.6090 19.3260
v  0.3987 -1.6090 19.1951
v  0.4374 -1.6340 19.3718
v  0.4381 -1.6090 19.3636
v  0.4381 -1.6590 19.3636
v  0.5333 -1.6590 19.1951
v  0.4029 -1.6590 19.1246
v  0.2829 -1.6590 19.1246
v  0.2661 -1.6340 19.3255
v  0.2709 -1.6340 19.1987
v  0.2715 -1.6090 19.3186
v  0.2829 -1.6090 19.1246
v  0.2779 -1.6340 19.1263
v  0.5333 -1.6090 19.1951
v  0.4029 -1.6090 19.1246
v  0.4938 -1.6090 19.3636
v  0.4946 -1.6340 19.3718
v  0.4938 -1.6590 19.3636
v  0.6559 -1.6590 19.1951
v  0.6491 -1.6590 19.1246
v  0.5290 -1.6590 19.1246
v  0.5905 -1.6590 19.3495
v  0.5414 -1.6590 19.3260
v  0.2942 -1.6590 19.0543
v  0.4087 -1.6590 19.0543
v  0.5232 -1.6590 19.0543
v  0.2894 -1.6340 19.0540
v  0.2942 -1.6090 19.0543
v  0.5290 -1.6090 19.1246
v  0.4087 -1.6090 19.0543
v  0.6491 -1.6090 19.1246
v  0.6559 -1.6090 19.1951
v  0.5905 -1.6090 19.3495
v  0.5414 -1.6090 19.3260
v  0.5435 -1.6340 19.3332
v  0.6445 -1.6590 19.3391
v  0.5939 -1.6340 19.3573
v  0.6541 -1.6340 19.1263
v  0.6611 -1.6340 19.1987
v  0.6605 -1.6590 19.3186
v  0.6425 -1.6340 19.0540
v  0.6378 -1.6590 19.0543
v  0.5122 -1.6590 18.9135
v  0.4197 -1.6590 18.9135
v  0.6048 -1.6590 18.9135
v  0.3272 -1.6590 18.9135
v  0.3272 -1.6090 18.9135
v  0.3234 -1.6340 18.9093
v  0.5232 -1.6090 19.0543
v  0.4197 -1.6090 18.9135
v  0.6378 -1.6090 19.0543
v  0.6605 -1.6090 19.3186
v  0.6445 -1.6090 19.3391
v  0.6494 -1.6340 19.3467
v  0.6658 -1.6340 19.3255
v  0.6048 -1.6090 18.9135
v  0.6086 -1.6340 18.9093
v  0.5647 -1.6590 18.8154
v  0.4331 -1.6590 18.7688
v  0.4989 -1.6590 18.7688
v  0.3672 -1.6590 18.8154
v  0.3645 -1.6340 18.8085
v  0.3672 -1.6090 18.8154
v  0.4331 -1.6090 18.7688
v  0.5122 -1.6090 18.9135
v  0.5647 -1.6090 18.8154
v  0.5675 -1.6340 18.8085
v  0.4322 -1.6340 18.7606
v  0.4998 -1.6340 18.7606
v  0.4989 -1.6090 18.7688
v  0.5917 -0.7707 18.9614
v  0.6021 -0.9211 19.0037
v  0.5742 -0.7847 19.1136
v  0.5936 -0.8206 18.8019
v  0.5988 -0.9622 18.8659
v  0.5719 -0.9602 18.7452
v  0.5834 -0.8452 18.6588
v  0.4974 -0.9947 18.6666
v  0.5181 -0.9443 18.5964
v  0.3763 -0.9620 18.5737
v  0.3551 -1.0014 18.6611
v  0.3844 -1.0847 18.9193
v  0.4850 -1.0659 18.7547
v  0.5631 -1.0491 18.8121
v  0.5700 -1.0952 18.9234
v  0.5826 -1.0755 19.0411
v  0.5759 -0.9231 19.1386
v  0.4555 -0.8496 19.1582
v  0.5641 -1.0765 19.1466
v  0.4673 -0.9770 19.1787
v  0.5647 -1.2172 19.0754
v  0.5435 -1.2172 18.9762
v  0.5350 -1.1368 18.8705
v  0.4754 -1.1260 18.8229
v  0.3767 -1.1306 18.9419
v  0.3206 -1.0108 19.0863
v  0.3275 -1.0828 19.0932
v  0.2944 -1.0847 18.9201
v  0.3408 -0.9728 19.1500
v  0.3362 -1.1385 19.0986
v  0.3492 -1.0716 19.1695
v  0.3747 -1.1662 18.9596
v  0.4602 -1.1735 18.8717
v  0.5092 -1.2171 18.9241
v  0.4462 -1.2171 18.9165
v  0.3736 -1.1928 18.9803
v  0.3706 -1.1475 19.1749
v  0.3512 -1.1795 19.1018
v  0.4678 -1.1023 19.1845
v  0.3300 -0.8450 19.1249
v  0.5532 -1.2172 19.1540
v  0.4683 -1.2172 19.1899
v  0.5495 -1.2740 19.1486
v  0.5603 -1.2668 19.0785
v  0.5404 -1.2627 18.9845
v  0.5456 -1.3324 19.1306
v  0.5559 -1.3187 19.0686
v  0.4683 -1.2805 19.1855
v  0.4683 -1.3381 19.1629
v  0.3902 -1.2172 19.1798
v  0.3959 -1.2789 19.1763
v  0.3649 -1.2172 19.1047
v  0.3720 -1.2700 19.1023
v  0.3993 -1.3364 19.1539
v  0.4676 -1.4495 19.0587
v  0.5267 -1.4467 19.0349
v  0.5369 -1.3034 18.9822
v  0.5346 -1.4399 18.9875
v  0.5061 -1.2953 18.9354
v  0.5080 -1.2603 18.9362
v  0.4429 -1.2603 18.9292
v  0.4443 -1.2952 18.9286
v  0.4961 -1.4282 18.8890
v  0.5200 -1.4322 18.9236
v  0.5079 -1.5603 18.9397
v  0.5136 -1.5603 18.9070
v  0.4669 -1.5603 18.9552
v  0.4133 -1.4487 19.0521
v  0.3765 -1.3235 19.0917
v  0.3702 -1.2636 19.0102
v  0.3748 -1.3074 19.0120
v  0.3726 -1.2172 18.9993
v  0.3943 -1.4343 18.9456
v  0.4467 -1.4282 18.8839
v  0.5031 -1.5603 18.8653
v  0.4861 -1.5602 18.8428
v  0.5101 -1.5838 18.8986
v  0.5048 -1.5838 18.9290
v  0.4665 -1.5838 18.9435
v  0.4272 -1.5603 18.9509
v  0.3957 -1.4423 19.0047
v  0.4147 -1.5603 18.9182
v  0.4137 -1.5603 18.8797
v  0.4492 -1.5602 18.8395
v  0.4845 -1.5838 18.8389
v  0.5003 -1.5838 18.8599
v  0.5061 -1.6105 18.8933
v  0.5013 -1.6105 18.9211
v  0.4660 -1.6105 18.9343
v  0.4297 -1.5838 18.9395
v  0.4327 -1.6105 18.9306
v  0.4181 -1.5838 18.9090
v  0.4172 -1.5838 18.8733
v  0.4497 -1.5838 18.8358
v  0.4827 -1.6105 18.8387
v  0.4972 -1.6105 18.8579
v  0.4504 -1.6105 18.8359
v  0.4212 -1.6105 18.8701
v  0.4220 -1.6105 18.9028
# 179 vertices

vn -0.0975 -0.0000 -0.9952
vn -0.1099 0.7429 -0.6603
vn 0.3389 0.7593 -0.5555
vn 0.0909 -0.0000 -0.9959
vn -0.1099 -0.7430 -0.6603
vn 0.3389 -0.7593 -0.5555
vn 0.5246 -0.0000 -0.8513
vn 0.0532 0.9040 -0.4243
vn 0.0000 1.0000 -0.0000
vn 0.6398 -0.7673 0.0446
vn 0.0532 -0.9040 -0.4243
vn 0.0000 -1.0000 -0.0000
vn 0.3141 -0.0000 -0.9494
vn 0.2271 -0.7509 -0.6201
vn 0.2271 0.7509 -0.6202
vn 0.6390 0.7647 0.0831
vn 0.9397 -0.0000 -0.3421
vn 0.9980 -0.0000 0.0639
vn 0.6527 -0.7363 -0.1781
vn 0.6390 -0.7647 0.0831
vn 0.9921 -0.0000 0.1255
vn -0.2270 -0.7509 -0.6201
vn -0.3141 -0.0000 -0.9494
vn -0.2270 0.7509 -0.6202
vn -0.6398 0.7672 0.0447
vn -0.6390 0.7647 0.0831
vn 0.1098 0.7429 -0.6603
vn -0.0532 0.9040 -0.4243
vn 0.6344 0.7627 0.1254
vn 0.9812 -0.0000 0.1929
vn 0.6344 -0.7627 0.1254
vn -0.6390 -0.7647 0.0831
vn -0.6398 -0.7672 0.0447
vn 0.1098 -0.7430 -0.6603
vn -0.0532 -0.9040 -0.4243
vn -0.0909 -0.0000 -0.9959
vn -0.3389 0.7593 -0.5555
vn 0.0975 -0.0000 -0.9952
vn -0.9921 -0.0000 0.1255
vn -0.9980 -0.0000 0.0639
vn -0.6528 0.7363 -0.1781
vn -0.9812 -0.0000 0.1929
vn -0.6344 0.7627 0.1254
vn -0.6237 0.7569 0.1952
vn 0.6237 0.7569 0.1952
vn 0.6237 -0.7569 0.1952
vn 0.9510 -0.0000 0.3093
vn -0.6344 -0.7627 0.1254
vn -0.6527 -0.7363 -0.1781
vn -0.3389 -0.7594 -0.5555
vn -0.5246 -0.0000 -0.8513
vn -0.9396 -0.0000 -0.3422
vn -0.6237 -0.7569 0.1952
vn -0.9510 -0.0000 0.3093
vn -0.5395 0.7383 0.4049
vn 0.2066 0.7562 0.6209
vn -0.2066 0.7562 0.6209
vn 0.5395 0.7383 0.4049
vn 0.7681 -0.0000 0.6404
vn 0.5395 -0.7383 0.4049
vn 0.2066 -0.7562 0.6208
vn -0.5395 -0.7383 0.4049
vn -0.7681 -0.0000 0.6404
vn 0.2929 -0.0000 0.9561
vn -0.2929 -0.0000 0.9561
vn -0.2066 -0.7562 0.6208
vn -0.9953 -0.0800 -0.0547
vn -0.9972 0.0219 -0.0721
vn -0.7518 -0.1559 -0.6407
vn -0.9988 0.0045 0.0490
vn -0.9867 0.1294 0.0987
vn -0.8706 0.3471 0.3487
vn -0.9522 0.1876 0.2413
vn -0.4141 0.7938 0.4454
vn -0.6004 0.6372 0.4832
vn -0.0882 0.8087 0.5816
vn -0.0216 0.9338 0.3572
vn 0.6546 0.6670 0.3558
vn 0.0846 0.7249 0.6836
vn -0.7811 0.4633 0.4186
vn -0.9480 0.2801 0.1510
vn -0.9909 0.1293 -0.0373
vn -0.7398 -0.0629 -0.6698
vn -0.0123 -0.1587 -0.9873
vn -0.7709 0.0251 -0.6364
vn -0.0734 -0.1046 -0.9918
vn -0.9944 0.1043 0.0197
vn -0.9153 0.2296 0.3310
vn -0.6483 0.5525 0.5239
vn 0.1169 0.6971 0.7073
vn 0.8810 0.1501 0.4488
vn 0.6997 0.4600 -0.5466
vn 0.9938 0.1109 -0.0040
vn -0.0004 0.9987 -0.0506
vn 0.6768 -0.0767 -0.7322
vn 0.9692 0.2358 -0.0716
vn 0.6518 0.0154 -0.7582
vn 0.8503 0.2625 0.4561
vn 0.2388 0.6251 0.7431
vn -0.4910 0.4730 0.7315
vn 0.3784 0.4468 0.8107
vn 0.8538 0.3061 0.4212
vn 0.5981 0.1176 -0.7928
vn 0.9422 0.3136 -0.1177
vn -0.1282 -0.0412 -0.9909
vn 0.1635 0.0266 -0.9862
vn -0.7757 0.0621 -0.6281
vn -0.1408 0.0160 -0.9899
vn -0.7750 0.1691 -0.6090
vn -0.9962 0.0845 0.0207
vn -0.9205 0.0906 0.3800
vn -0.7411 0.3822 -0.5521
vn -0.9920 0.1239 0.0261
vn -0.1469 0.2166 -0.9651
vn -0.1289 0.5168 -0.8463
vn 0.5953 0.1091 -0.7960
vn 0.6076 0.2080 -0.7665
vn 0.9632 0.2265 -0.1449
vn 0.9779 0.1282 -0.1653
vn 0.5889 0.4515 -0.6704
vn -0.1100 0.6763 -0.7284
vn -0.7214 0.5115 -0.4669
vn -0.9281 0.0093 0.3722
vn -0.9883 0.1442 0.0503
vn -0.5432 -0.1144 0.8318
vn -0.5366 0.1313 0.8335
vn 0.3867 0.1191 0.9145
vn 0.3834 -0.1431 0.9124
vn -0.5062 -0.2527 0.8246
vn -0.9164 -0.0582 0.3959
vn -0.7333 0.4368 -0.5211
vn -0.9905 0.1261 0.0543
vn -0.1094 0.5737 -0.8117
vn 0.5657 0.5898 -0.5763
vn 0.9668 0.1961 -0.1639
vn 0.9375 0.0806 0.3385
vn 0.9561 0.0623 0.2864
vn 0.9146 0.1554 0.3732
vn 0.9428 -0.0240 0.3325
vn 0.3698 -0.2938 0.8814
vn -0.8981 -0.0374 0.4382
vn -0.4737 -0.1838 0.8613
vn -0.9902 0.1312 0.0479
vn -0.7499 0.3174 -0.5804
vn -0.1173 0.3892 -0.9136
vn 0.5734 0.5102 -0.6410
vn 0.9540 0.2626 -0.1448
vn 0.9576 0.2319 -0.1712
vn 0.9330 -0.0073 0.3599
vn 0.3611 -0.2089 0.9088
vn -0.4774 -0.0435 0.8776
vn -0.8978 0.0364 0.4388
vn -0.9889 0.1344 0.0637
vn -0.7706 0.2726 -0.5761
vn -0.1213 0.3235 -0.9384
vn 0.5909 0.3621 -0.7209
vn 0.6133 0.3067 -0.7279
vn 0.9638 0.1952 -0.1817
vn 0.9323 0.0630 0.3562
vn 0.3683 -0.0597 0.9278
vn -0.4706 0.0248 0.8820
vn -0.8934 0.0717 0.4435
vn 0.3736 0.0105 0.9275
vn 0.9242 0.0906 0.3709
vn 0.9687 0.1809 -0.1700
# 165 vertex normals

vt 0.1484 0.4830 0.0000
vt 0.1493 0.4852 0.0000
vt 0.1345 0.4880 0.0000
vt 0.1622 0.4897 0.0000
vt 0.1332 0.4860 0.0000
vt 0.1628 0.4916 0.0000
vt 0.0322 0.4336 0.0000
vt 0.0268 0.4190 0.0000
vt 0.0314 0.4212 0.0000
vt 0.1314 0.5275 0.0000
vt 0.1650 0.5275 0.0000
vt 0.1756 0.4791 0.0000
vt 0.1758 0.4813 0.0000
vt 0.0359 0.4177 0.0000
vt 0.0449 0.4336 0.0000
vt 0.0327 0.4402 0.0000
vt 0.0215 0.4402 0.0000
vt 0.1287 0.4918 0.0000
vt 0.1300 0.5265 0.0000
vt 0.1301 0.4937 0.0000
vt 0.1339 0.5468 0.0000
vt 0.1325 0.5464 0.0000
vt 0.2019 0.5275 0.0000
vt 0.1664 0.5468 0.0000
vt 0.1911 0.4813 0.0000
vt 0.1913 0.4791 0.0000
vt 0.0412 0.4177 0.0000
vt 0.0564 0.4336 0.0000
vt 0.0556 0.4402 0.0000
vt 0.0444 0.4402 0.0000
vt 0.0503 0.4190 0.0000
vt 0.0456 0.4212 0.0000
vt 0.0223 0.4468 0.0000
vt 0.0331 0.4468 0.0000
vt 0.0439 0.4468 0.0000
vt 0.1351 0.5662 0.0000
vt 0.1364 0.5661 0.0000
vt 0.2005 0.5468 0.0000
vt 0.1677 0.5661 0.0000
vt 0.2330 0.5468 0.0000
vt 0.2355 0.5275 0.0000
vt 0.2176 0.4852 0.0000
vt 0.2041 0.4916 0.0000
vt 0.2047 0.4897 0.0000
vt 0.0554 0.4200 0.0000
vt 0.2324 0.4880 0.0000
vt 0.2185 0.4830 0.0000
vt 0.2344 0.5464 0.0000
vt 0.2369 0.5265 0.0000
vt 0.0569 0.4219 0.0000
vt 0.2367 0.4937 0.0000
vt 0.2318 0.5662 0.0000
vt 0.2305 0.5661 0.0000
vt 0.0547 0.4468 0.0000
vt 0.0429 0.4601 0.0000
vt 0.0342 0.4601 0.0000
vt 0.0516 0.4601 0.0000
vt 0.0255 0.4601 0.0000
vt 0.1454 0.6047 0.0000
vt 0.1444 0.6058 0.0000
vt 0.1991 0.5661 0.0000
vt 0.1708 0.6047 0.0000
vt 0.2337 0.4860 0.0000
vt 0.2382 0.4918 0.0000
vt 0.2215 0.6047 0.0000
vt 0.2225 0.6058 0.0000
vt 0.0478 0.4694 0.0000
vt 0.2105 0.6315 0.0000
vt 0.0354 0.4738 0.0000
vt 0.0416 0.4738 0.0000
vt 0.0292 0.4694 0.0000
vt 0.1564 0.6315 0.0000
vt 0.1556 0.6334 0.0000
vt 0.1744 0.6443 0.0000
vt 0.1961 0.6047 0.0000
vt 0.2112 0.6334 0.0000
vt 0.1925 0.6443 0.0000
vt 0.1742 0.6466 0.0000
vt 0.1927 0.6466 0.0000
vt 0.1496 0.3801 0.0000
vt 0.1518 0.3323 0.0000
vt 0.1074 0.3591 0.0000
vt 0.2052 0.3798 0.0000
vt 0.1953 0.3299 0.0000
vt 0.2345 0.3368 0.0000
vt 0.2590 0.3809 0.0000
vt 0.2666 0.3215 0.0000
vt 0.2514 0.6527 0.0000
vt 0.2519 0.6356 0.0000
vt 0.2311 0.6583 0.0000
vt 0.2742 0.6519 0.0000
vt 0.2764 0.6338 0.0000
vt 0.2553 0.2345 0.0000
vt 0.2474 0.2938 0.0000
vt 0.2676 0.5891 0.0000
vt 0.2179 0.3049 0.0000
vt 0.1858 0.2859 0.0000
vt 0.1511 0.2873 0.0000
vt 0.1158 0.3207 0.0000
vt 0.0781 0.3304 0.0000
vt 0.1238 0.2819 0.0000
vt 0.0919 0.2983 0.0000
vt 0.1452 0.2499 0.0000
vt 0.1724 0.2472 0.0000
vt 0.2055 0.2727 0.0000
vt 0.2305 0.2696 0.0000
vt 0.2434 0.2245 0.0000
vt 0.0464 0.2714 0.0000
vt 0.0578 0.2563 0.0000
vt 0.0215 0.2271 0.0000
vt 0.0830 0.5574 0.0000
vt 0.1003 0.4987 0.0000
vt 0.0852 0.4944 0.0000
vt 0.0339 0.2215 0.0000
vt 0.2832 0.5877 0.0000
vt 0.0598 0.2879 0.0000
vt 0.0666 0.2456 0.0000
vt 0.0733 0.2669 0.0000
vt 0.2348 0.2175 0.0000
vt 0.0435 0.2172 0.0000
vt 0.2193 0.2498 0.0000
vt 0.1921 0.2428 0.0000
vt 0.2103 0.2308 0.0000
vt 0.2293 0.2111 0.0000
vt 0.0522 0.2152 0.0000
vt 0.0842 0.2528 0.0000
vt 0.0733 0.2378 0.0000
vt 0.1017 0.2696 0.0000
vt 0.0418 0.3204 0.0000
vt 0.1272 0.2495 0.0000
vt 0.1087 0.2458 0.0000
vt 0.1285 0.2384 0.0000
vt 0.1435 0.2385 0.0000
vt 0.1676 0.2344 0.0000
vt 0.1305 0.2275 0.0000
vt 0.1434 0.2268 0.0000
vt 0.1121 0.2347 0.0000
vt 0.1154 0.2247 0.0000
vt 0.0937 0.2405 0.0000
vt 0.0997 0.2304 0.0000
vt 0.0796 0.2310 0.0000
vt 0.0871 0.2218 0.0000
vt 0.1038 0.2206 0.0000
vt 0.1245 0.1969 0.0000
vt 0.1379 0.1984 0.0000
vt 0.1649 0.2234 0.0000
vt 0.1480 0.1952 0.0000
vt 0.1800 0.2185 0.0000
vt 0.1844 0.2291 0.0000
vt 0.2022 0.2184 0.0000
vt 0.1958 0.2100 0.0000
vt 0.1695 0.1849 0.0000
vt 0.1613 0.1892 0.0000
vt 0.1435 0.1670 0.0000
vt 0.1498 0.1640 0.0000
vt 0.1340 0.1662 0.0000
vt 0.1138 0.1929 0.0000
vt 0.0940 0.2126 0.0000
vt 0.0714 0.2068 0.0000
vt 0.0810 0.2003 0.0000
vt 0.0604 0.2135 0.0000
vt 0.2260 0.2062 0.0000
vt 0.2204 0.2001 0.0000
vt 0.2155 0.1947 0.0000
vt 0.1949 0.1758 0.0000
vt 0.1792 0.1805 0.0000
vt 0.1572 0.1597 0.0000
vt 0.1619 0.1569 0.0000
vt 0.1492 0.1590 0.0000
vt 0.1436 0.1615 0.0000
vt 0.1355 0.1610 0.0000
vt 0.1259 0.1630 0.0000
vt 0.1069 0.1845 0.0000
vt 0.0995 0.1739 0.0000
vt 0.1216 0.1566 0.0000
vt 0.1180 0.1494 0.0000
vt 0.1788 0.1527 0.0000
vt 0.1685 0.1543 0.0000
vt 0.1605 0.1526 0.0000
vt 0.1560 0.1551 0.0000
vt 0.1477 0.1539 0.0000
vt 0.1433 0.1562 0.0000
vt 0.1368 0.1559 0.0000
vt 0.1287 0.1580 0.0000
vt 0.1316 0.1535 0.0000
vt 0.1249 0.1526 0.0000
vt 0.1217 0.1464 0.0000
vt 0.1765 0.1481 0.0000
vt 0.1668 0.1501 0.0000
vt 0.1586 0.1476 0.0000
vt 0.1540 0.1501 0.0000
vt 0.1651 0.1450 0.0000
vt 0.1743 0.1429 0.0000
vt 0.1287 0.1491 0.0000
vt 0.1260 0.1436 0.0000
# 195 texture coords

o PieIzq
g PieIzq
usemtl peluches_09___Default
s off
f 1/1/1 2/2/2 3/3/3 
f 1/1/1 4/4/4 2/2/2 
f 5/2/5 4/4/4 1/1/1 
f 6/3/6 5/2/5 1/1/1 
f 6/3/6 1/1/1 7/5/7 
f 1/1/1 3/3/3 7/5/7 
f 4/4/4 8/6/8 2/2/2 
f 9/7/9 2/8/2 8/9/8 
f 5/2/5 6/3/6 10/10/10 
f 11/6/11 5/2/5 12/11/12 
f 5/2/5 10/10/10 12/11/12 
f 5/2/5 11/6/11 4/4/4 
f 13/12/13 4/4/4 14/13/14 
f 11/6/11 14/13/14 4/4/4 
f 15/13/15 4/4/4 13/12/13 
f 4/4/4 15/13/15 8/6/8 
f 15/14/15 9/7/9 8/9/8 
f 9/7/9 15/14/15 16/15/9 
f 9/7/9 16/15/9 17/16/9 
f 18/17/16 9/7/9 17/16/9 
f 19/18/17 20/19/18 21/20/19 
f 12/11/12 10/10/10 22/21/20 
f 10/10/10 23/22/21 22/21/20 
f 12/11/12 24/23/12 14/13/14 
f 12/11/12 25/24/12 24/23/12 
f 22/21/20 25/24/12 12/11/12 
f 11/6/11 12/11/12 14/13/14 
f 14/13/14 24/23/12 26/25/22 
f 27/26/23 14/13/14 26/25/22 
f 27/26/23 13/12/13 14/13/14 
f 15/13/15 13/12/13 27/26/23 
f 28/25/24 15/13/15 27/26/23 
f 15/14/15 28/27/24 16/15/9 
f 16/15/9 29/28/25 30/29/26 
f 30/29/26 31/30/9 16/15/9 
f 29/28/25 16/15/9 32/31/27 
f 16/15/9 33/32/28 32/31/27 
f 16/15/9 28/27/24 33/32/28 
f 31/30/9 17/16/9 16/15/9 
f 34/33/29 18/17/16 17/16/9 
f 34/33/29 17/16/9 35/34/9 
f 31/30/9 36/35/9 17/16/9 
f 36/35/9 35/34/9 17/16/9 
f 37/36/30 23/22/21 18/21/16 
f 34/37/29 37/36/30 18/21/16 
f 23/22/21 37/36/30 22/21/20 
f 25/24/12 22/21/20 38/37/31 
f 22/21/20 37/36/30 38/37/31 
f 25/24/12 39/38/12 24/23/12 
f 25/24/12 40/39/12 39/38/12 
f 40/39/12 25/24/12 38/37/31 
f 24/23/12 39/38/12 41/40/32 
f 42/41/33 24/23/12 41/40/32 
f 42/41/33 43/42/34 24/23/12 
f 24/23/12 44/43/35 26/25/22 
f 43/42/34 44/43/35 24/23/12 
f 45/44/36 26/25/22 44/43/35 
f 45/44/36 27/26/23 26/25/22 
f 28/25/24 27/26/23 45/44/36 
f 33/43/28 28/25/24 45/44/36 
f 32/42/27 33/43/28 45/44/36 
f 29/28/25 32/31/27 46/45/37 
f 46/46/37 32/42/27 47/47/38 
f 32/42/27 45/44/36 47/47/38 
f 30/40/26 29/41/25 48/48/39 
f 29/41/25 49/49/40 48/48/39 
f 50/50/41 29/28/25 46/45/37 
f 29/41/25 50/51/41 49/49/40 
f 48/48/39 51/52/42 30/40/26 
f 52/53/43 30/40/26 51/52/42 
f 31/30/9 30/29/26 52/54/43 
f 36/35/9 31/30/9 52/54/43 
f 36/35/9 53/55/9 54/56/9 
f 53/55/9 36/35/9 55/57/44 
f 36/35/9 52/54/43 55/57/44 
f 36/35/9 54/56/9 35/34/9 
f 56/58/45 34/33/29 35/34/9 
f 54/56/9 56/58/45 35/34/9 
f 34/37/29 56/59/45 37/36/30 
f 37/36/30 57/59/46 38/37/31 
f 37/36/30 58/60/47 57/59/46 
f 56/59/45 58/60/47 37/36/30 
f 40/39/12 38/37/31 57/59/46 
f 40/39/12 59/61/12 39/38/12 
f 60/62/12 40/39/12 57/59/46 
f 40/39/12 60/62/12 59/61/12 
f 41/40/32 39/38/12 61/53/48 
f 39/38/12 59/61/12 61/53/48 
f 48/48/39 41/40/32 51/52/42 
f 48/48/39 42/41/33 41/40/32 
f 51/52/42 41/40/32 61/53/48 
f 48/48/39 49/49/40 42/41/33 
f 49/49/40 62/51/49 42/41/33 
f 62/51/49 63/46/50 42/41/33 
f 63/46/50 43/42/34 42/41/33 
f 43/42/34 45/44/36 44/43/35 
f 63/46/50 47/47/38 43/42/34 
f 47/47/38 45/44/36 43/42/34 
f 64/63/51 47/47/38 63/46/50 
f 46/46/37 47/47/38 64/63/51 
f 50/51/41 46/46/37 65/64/52 
f 46/46/37 64/63/51 65/64/52 
f 50/51/41 65/64/52 49/49/40 
f 49/49/40 65/64/52 62/51/49 
f 65/64/52 63/46/50 62/51/49 
f 65/64/52 64/63/51 63/46/50 
f 59/61/12 66/65/53 61/53/48 
f 51/52/42 61/53/48 66/65/53 
f 55/65/44 51/52/42 67/66/54 
f 55/65/44 52/53/43 51/52/42 
f 67/66/54 51/52/42 66/65/53 
f 53/55/9 55/57/44 68/67/55 
f 68/68/55 55/65/44 67/66/54 
f 53/55/9 69/69/56 54/56/9 
f 53/55/9 70/70/57 69/69/56 
f 70/70/57 53/55/9 68/67/55 
f 54/56/9 69/69/56 71/71/58 
f 54/56/9 71/71/58 56/58/45 
f 56/59/45 71/72/58 58/60/47 
f 71/72/58 72/73/59 58/60/47 
f 58/60/47 72/73/59 73/72/60 
f 58/60/47 73/72/60 57/59/46 
f 60/62/12 57/59/46 73/72/60 
f 74/74/61 60/62/12 73/72/60 
f 60/62/12 74/74/61 75/75/12 
f 60/62/12 75/75/12 59/61/12 
f 59/61/12 75/75/12 66/65/53 
f 75/75/12 76/68/62 66/65/53 
f 67/66/54 66/65/53 76/68/62 
f 68/68/55 67/66/54 77/76/63 
f 77/76/63 67/66/54 76/68/62 
f 70/77/57 68/68/55 77/76/63 
f 69/74/56 70/77/57 78/78/64 
f 70/77/57 79/79/65 78/78/64 
f 70/77/57 77/76/63 79/79/65 
f 71/72/58 69/74/56 72/73/59 
f 69/74/56 78/78/64 72/73/59 
f 78/78/64 74/74/61 72/73/59 
f 74/74/61 73/72/60 72/73/59 
f 74/74/61 78/78/64 80/77/66 
f 74/74/61 80/77/66 75/75/12 
f 75/75/12 80/77/66 76/68/62 
f 77/76/63 76/68/62 80/77/66 
f 79/79/65 77/76/63 80/77/66 
f 78/78/64 79/79/65 80/77/66 
f 81/80/67 82/81/68 83/82/69 
f 84/83/70 85/84/71 81/80/67 
f 85/84/71 82/81/68 81/80/67 
f 85/84/71 84/83/70 86/85/72 
f 84/83/70 87/86/73 86/85/72 
f 87/86/73 88/87/74 86/85/72 
f 89/88/75 88/89/74 87/90/73 
f 89/88/75 90/91/76 88/89/74 
f 90/91/76 91/92/77 88/89/74 
f 88/87/74 92/93/78 93/94/79 
f 88/89/74 91/92/77 92/95/78 
f 88/87/74 93/94/79 86/85/72 
f 93/94/79 94/96/80 86/85/72 
f 85/84/71 86/85/72 94/96/80 
f 85/84/71 95/97/81 82/81/68 
f 95/97/81 85/84/71 94/96/80 
f 82/81/68 96/98/82 97/99/83 
f 82/81/68 97/99/83 83/82/69 
f 95/97/81 96/98/82 82/81/68 
f 83/82/69 97/99/83 98/100/84 
f 99/101/85 97/99/83 96/98/82 
f 99/101/85 100/102/86 97/99/83 
f 100/102/86 98/100/84 97/99/83 
f 101/103/87 96/98/82 102/104/88 
f 101/103/87 99/101/85 96/98/82 
f 95/97/81 102/104/88 96/98/82 
f 102/104/88 95/97/81 103/105/89 
f 95/97/81 94/96/80 103/105/89 
f 93/94/79 104/106/90 94/96/80 
f 104/106/90 103/105/89 94/96/80 
f 92/93/78 105/107/91 93/94/79 
f 105/107/91 104/106/90 93/94/79 
f 106/108/92 107/109/93 92/110/78 
f 106/111/92 92/112/78 108/113/94 
f 92/110/78 107/109/93 105/114/91 
f 92/95/78 91/92/77 108/115/94 
f 106/108/92 109/116/95 107/109/93 
f 107/109/93 110/117/96 105/114/91 
f 107/109/93 111/118/97 110/117/96 
f 109/116/95 111/118/97 107/109/93 
f 105/107/91 112/119/98 104/106/90 
f 112/120/98 105/114/91 110/117/96 
f 104/106/90 113/121/99 103/105/89 
f 112/119/98 113/121/99 104/106/90 
f 113/121/99 114/122/100 103/105/89 
f 102/104/88 103/105/89 114/122/100 
f 113/121/99 115/123/101 114/122/100 
f 116/124/102 115/123/101 113/121/99 
f 112/119/98 116/124/102 113/121/99 
f 116/125/102 112/120/98 110/117/96 
f 111/118/97 117/126/103 110/117/96 
f 110/117/96 117/126/103 118/127/104 
f 116/125/102 110/117/96 118/127/104 
f 111/118/97 119/128/105 117/126/103 
f 100/102/86 119/128/105 111/118/97 
f 109/116/95 100/102/86 111/118/97 
f 100/102/86 109/116/95 98/100/84 
f 109/116/95 120/129/106 98/100/84 
f 100/102/86 99/101/85 119/128/105 
f 99/101/85 121/130/107 119/128/105 
f 99/101/85 101/103/87 121/130/107 
f 119/128/105 122/131/108 117/126/103 
f 119/128/105 121/130/107 122/131/108 
f 121/130/107 123/132/109 122/131/108 
f 121/130/107 124/133/110 123/132/109 
f 101/103/87 124/133/110 121/130/107 
f 101/103/87 125/134/111 124/133/110 
f 125/134/111 101/103/87 102/104/88 
f 124/133/110 126/135/112 123/132/109 
f 124/133/110 127/136/113 126/135/112 
f 125/134/111 127/136/113 124/133/110 
f 122/131/108 123/132/109 128/137/114 
f 123/132/109 129/138/115 128/137/114 
f 123/132/109 126/135/112 129/138/115 
f 117/126/103 122/131/108 130/139/116 
f 122/131/108 131/140/117 130/139/116 
f 122/131/108 128/137/114 131/140/117 
f 117/126/103 130/139/116 118/127/104 
f 132/141/118 118/127/104 130/139/116 
f 133/142/119 130/139/116 131/140/117 
f 133/142/119 132/141/118 130/139/116 
f 134/143/120 133/142/119 131/140/117 
f 128/137/114 134/143/120 131/140/117 
f 128/137/114 129/138/115 134/143/120 
f 129/138/115 126/135/112 135/144/121 
f 129/138/115 135/144/121 134/143/120 
f 126/135/112 127/136/113 136/145/122 
f 126/135/112 136/145/122 135/144/121 
f 125/134/111 137/146/123 127/136/113 
f 127/136/113 137/146/123 138/147/124 
f 127/136/113 138/147/124 136/145/122 
f 139/148/125 137/146/123 125/134/111 
f 125/134/111 102/104/88 140/149/126 
f 139/148/125 125/134/111 140/149/126 
f 140/149/126 102/104/88 114/122/100 
f 141/150/127 140/149/126 115/123/101 
f 140/149/126 114/122/100 115/123/101 
f 139/148/125 140/149/126 141/150/127 
f 139/148/125 142/151/128 143/152/129 
f 137/146/123 139/148/125 144/153/130 
f 139/148/125 143/152/129 144/153/130 
f 142/151/128 139/148/125 141/150/127 
f 137/146/123 144/153/130 138/147/124 
f 136/145/122 138/147/124 145/154/131 
f 138/147/124 146/155/132 145/154/131 
f 138/147/124 144/153/130 146/155/132 
f 135/144/121 136/145/122 147/156/133 
f 136/145/122 145/154/131 147/156/133 
f 134/143/120 135/144/121 148/157/134 
f 135/144/121 147/156/133 148/157/134 
f 134/143/120 148/157/134 149/158/135 
f 133/142/119 134/143/120 149/158/135 
f 150/159/136 132/141/118 133/142/119 
f 151/160/137 133/142/119 149/158/135 
f 151/160/137 150/159/136 133/142/119 
f 152/161/138 118/127/104 132/141/118 
f 150/159/136 152/161/138 132/141/118 
f 152/161/138 116/125/102 118/127/104 
f 116/124/102 152/162/138 115/123/101 
f 150/163/136 141/150/127 152/162/138 
f 141/150/127 115/123/101 152/162/138 
f 142/151/128 141/150/127 150/163/136 
f 151/164/137 153/165/139 142/151/128 
f 151/164/137 142/151/128 150/163/136 
f 142/151/128 153/165/139 154/166/140 
f 142/151/128 154/166/140 143/152/129 
f 144/153/130 143/152/129 155/167/141 
f 143/152/129 156/168/142 155/167/141 
f 143/152/129 154/166/140 156/168/142 
f 144/153/130 155/167/141 146/155/132 
f 157/169/143 146/155/132 155/167/141 
f 157/169/143 158/170/144 146/155/132 
f 158/170/144 145/154/131 146/155/132 
f 158/170/144 159/171/145 145/154/131 
f 159/171/145 147/156/133 145/154/131 
f 160/172/146 148/157/134 147/156/133 
f 159/171/145 160/172/146 147/156/133 
f 161/173/147 149/158/135 148/157/134 
f 160/172/146 161/173/147 148/157/134 
f 161/173/147 151/160/137 149/158/135 
f 151/160/137 161/173/147 153/174/139 
f 161/173/147 162/175/148 153/174/139 
f 153/174/139 162/175/148 163/176/149 
f 153/165/139 163/177/149 154/166/140 
f 154/166/140 164/178/150 156/168/142 
f 154/166/140 163/177/149 164/178/150 
f 165/179/151 156/168/142 164/178/150 
f 165/179/151 166/180/152 156/168/142 
f 166/180/152 155/167/141 156/168/142 
f 166/180/152 157/169/143 155/167/141 
f 157/169/143 166/180/152 167/181/153 
f 158/170/144 157/169/143 168/182/154 
f 157/169/143 167/181/153 168/182/154 
f 159/171/145 158/170/144 169/183/155 
f 158/170/144 168/182/154 169/183/155 
f 170/184/156 159/171/145 171/185/157 
f 159/171/145 169/183/155 171/185/157 
f 160/172/146 159/171/145 170/184/156 
f 161/173/147 160/172/146 162/175/148 
f 160/172/146 170/184/156 162/175/148 
f 162/175/148 172/186/158 163/176/149 
f 162/175/148 170/184/156 172/186/158 
f 163/176/149 172/186/158 173/187/159 
f 163/177/149 173/188/159 164/178/150 
f 174/189/160 164/178/150 173/188/159 
f 174/189/160 165/179/151 164/178/150 
f 165/179/151 174/189/160 175/190/161 
f 166/180/152 165/179/151 176/191/162 
f 165/179/151 175/190/161 176/191/162 
f 166/180/152 176/191/162 167/181/153 
f 174/189/160 177/192/163 175/190/161 
f 174/189/160 178/193/164 177/192/163 
f 178/193/164 174/189/160 173/188/159 
f 179/194/165 178/195/164 173/187/159 
f 172/186/158 179/194/165 173/187/159 
f 172/186/158 171/185/157 179/194/165 
f 170/184/156 171/185/157 172/186/158 
# 0 polygons - 322 triangles

