# 3ds Max Wavefront OBJ Exporter v0.99 - (c)2007 guruware
# File Created: 07.05.2025 23:10:12

mtllib Pie_izquierdoFerb.mtl

#
# object PiernaIzquierda001
#

v  4.3842 -0.7132 10.3542
v  4.3771 -0.7316 10.3040
v  4.3894 -0.7316 10.3566
v  4.3661 -0.7470 10.2868
v  4.3661 -0.7316 10.2868
v  4.3490 -0.7316 10.2822
v  4.3637 -0.7087 10.3203
v  4.3490 -0.6993 10.3439
v  4.3490 -0.7038 10.3266
v  4.3343 -0.7087 10.3203
v  4.3637 -0.7167 10.2898
v  4.3490 -0.7167 10.2835
v  4.3343 -0.7167 10.2898
v  4.3771 -0.7470 10.3040
v  4.3490 -0.7470 10.2822
v  4.3320 -0.7470 10.2868
v  4.3490 -0.7470 10.3558
v  4.3293 -0.7470 10.3561
v  4.3209 -0.7470 10.3040
v  4.3086 -0.7470 10.3566
v  4.3688 -0.7470 10.3561
v  4.3894 -0.7470 10.3566
v  4.3086 -0.7316 10.3566
v  4.3209 -0.7316 10.3040
v  4.3138 -0.7132 10.3542
v  4.3320 -0.7316 10.2868
v  4.3689 -0.7021 10.3485
v  4.3700 -0.7141 10.3051
v  4.3291 -0.7021 10.3485
v  4.3280 -0.7141 10.3051
v  4.3104 -0.7253 10.4342
v  4.3081 -0.7165 10.4200
v  4.3260 -0.7081 10.4329
v  4.3283 -0.7186 10.4527
v  4.3490 -0.7055 10.4391
v  4.3490 -0.7186 10.4589
v  4.3698 -0.7186 10.4527
v  4.3721 -0.7081 10.4329
v  4.3877 -0.7253 10.4342
v  4.3899 -0.7165 10.4200
v  4.3262 -0.5894 10.2959
v  4.3170 -0.5894 10.3181
v  4.3170 -0.6080 10.3174
v  4.3171 -0.5388 10.3194
v  4.3171 -0.5301 10.3189
v  4.3263 -0.5282 10.3411
v  4.3030 -0.7470 10.4120
v  4.3290 -0.7470 10.4132
v  4.3049 -0.7470 10.3884
v  4.3905 -0.7470 10.4351
v  4.3951 -0.7470 10.4120
v  4.3691 -0.7470 10.4132
v  4.3779 -0.6234 10.3459
v  4.3779 -0.6495 10.3457
v  4.3485 -0.6495 10.3579
v  4.3485 -0.6231 10.2850
v  4.3485 -0.6079 10.2859
v  4.3262 -0.6231 10.2942
v  4.3263 -0.5388 10.2972
v  4.3490 -0.7316 10.4688
v  4.3283 -0.7470 10.4592
v  4.3283 -0.7316 10.4592
v  4.3076 -0.7470 10.4351
v  4.3814 -0.6497 10.3163
v  4.3718 -0.6497 10.2931
v  4.3700 -0.6363 10.3147
v  4.3637 -0.6363 10.2995
v  4.3718 -0.6497 10.3396
v  4.3637 -0.6363 10.3299
v  4.3485 -0.6497 10.3493
v  4.3490 -0.6363 10.3362
v  4.3252 -0.6497 10.3396
v  4.3343 -0.6363 10.3299
v  4.3156 -0.6497 10.3163
v  4.3280 -0.6363 10.3147
v  4.3252 -0.6497 10.2931
v  4.3343 -0.6363 10.2995
v  4.3485 -0.6497 10.2834
v  4.3490 -0.6363 10.2932
v  4.3262 -0.6080 10.2951
v  4.3485 -0.5894 10.2867
v  4.3485 -0.6079 10.3489
v  4.3262 -0.6080 10.3396
v  4.3262 -0.5894 10.3404
v  4.3485 -0.6231 10.3480
v  4.3262 -0.6231 10.3388
v  4.3170 -0.6231 10.3165
v  4.3485 -0.5343 10.2880
v  4.3707 -0.5894 10.2959
v  4.3707 -0.5296 10.2972
v  4.3799 -0.5894 10.3181
v  4.3343 -0.6968 10.3217
v  4.3280 -0.7014 10.3065
v  4.3280 -0.6637 10.3110
v  4.3343 -0.6637 10.2958
v  4.3343 -0.7036 10.2913
v  4.3490 -0.6637 10.2895
v  4.3490 -0.7036 10.2850
v  4.3490 -0.7470 10.4688
v  4.3698 -0.7470 10.4592
v  4.3698 -0.7316 10.4592
v  4.3905 -0.7316 10.4351
v  4.3490 -0.7470 10.4134
v  4.3900 -0.6234 10.3165
v  4.3900 -0.6495 10.3163
v  4.3779 -0.6234 10.2871
v  4.3779 -0.6495 10.2870
v  4.3485 -0.6234 10.2750
v  4.3263 -0.5388 10.3416
v  4.3485 -0.5349 10.3508
v  4.3485 -0.5234 10.3503
v  4.3707 -0.5294 10.3416
v  4.3707 -0.5170 10.3411
v  4.3799 -0.5269 10.3194
v  4.3637 -0.6637 10.2958
v  4.3700 -0.6637 10.3110
v  4.3637 -0.6637 10.3262
v  4.3490 -0.6637 10.3325
v  4.3490 -0.7470 10.3884
v  4.3291 -0.7470 10.3884
v  4.3951 -0.7316 10.4141
v  4.3936 -0.7316 10.3884
v  4.3932 -0.7470 10.3884
v  4.3689 -0.7470 10.3884
v  4.3044 -0.7316 10.3884
v  4.3030 -0.7316 10.4141
v  4.3076 -0.7316 10.4351
v  4.3707 -0.5894 10.3404
v  4.3485 -0.5894 10.3496
v  4.3707 -0.6077 10.2951
v  4.3800 -0.6077 10.3174
v  4.3707 -0.6077 10.3396
v  4.3263 -0.5286 10.2967
v  4.3485 -0.5229 10.2875
v  4.3707 -0.5173 10.2967
v  4.3799 -0.5143 10.3189
v  4.3343 -0.6637 10.3262
v  4.3637 -0.7036 10.2913
v  4.3700 -0.7014 10.3065
v  4.3637 -0.6968 10.3217
v  4.3490 -0.6925 10.3280
v  4.3708 -0.6231 10.2942
v  4.3800 -0.6231 10.3165
v  4.3708 -0.6231 10.3388
v  4.3485 -0.6495 10.2748
v  4.3191 -0.6495 10.2870
v  4.3191 -0.6234 10.2871
v  4.3069 -0.6495 10.3163
v  4.3069 -0.6234 10.3165
v  4.3191 -0.6495 10.3457
v  4.3191 -0.6234 10.3459
v  4.3485 -0.6234 10.3580
v  4.3091 -0.7122 10.3884
v  4.3890 -0.7122 10.3884
v  4.3266 -0.6983 10.3884
v  4.3490 -0.6944 10.3884
v  4.3715 -0.6983 10.3884
# 157 vertices

vn -0.8207 -0.5404 0.1854
vn -0.9114 -0.1634 0.3777
vn -0.9773 -0.1182 0.1760
vn -0.4567 0.6340 0.6241
vn -0.5865 -0.1227 0.8006
vn 0.0000 -0.0815 0.9967
vn -0.7368 -0.6367 -0.2274
vn 0.0000 -0.9812 0.1930
vn 0.0000 -0.7976 -0.6031
vn 0.7368 -0.6367 -0.2274
vn -0.6545 -0.1747 0.7356
vn 0.0000 -0.0993 0.9951
vn 0.6545 -0.1747 0.7356
vn -0.6831 0.6711 0.2882
vn 0.0000 0.6533 0.7571
vn 0.4567 0.6340 0.6241
vn 0.0000 1.0000 -0.0000
vn 0.6831 0.6711 0.2882
vn 0.7083 0.6948 0.1245
vn -0.7084 0.6948 0.1245
vn 0.9773 -0.1182 0.1760
vn 0.9114 -0.1634 0.3777
vn 0.8207 -0.5404 0.1854
vn 0.5866 -0.1227 0.8006
vn -0.4157 -0.8877 0.1981
vn -0.9284 -0.2950 0.2259
vn 0.4157 -0.8877 0.1981
vn 0.9284 -0.2950 0.2259
vn 0.7413 -0.4808 -0.4683
vn 0.7913 -0.5703 -0.2204
vn 0.4134 -0.8422 -0.3461
vn 0.4620 -0.6034 -0.6500
vn -0.0000 -0.9209 -0.3897
vn 0.0000 -0.6876 -0.7261
vn -0.4620 -0.6034 -0.6500
vn -0.4134 -0.8422 -0.3461
vn -0.7413 -0.4808 -0.4683
vn -0.7913 -0.5703 -0.2204
vn 0.7079 -0.0241 0.7059
vn 1.0000 -0.0008 -0.0019
vn 1.0000 -0.0014 -0.0022
vn 1.0000 -0.0010 -0.0097
vn 0.4036 0.9149 0.0050
vn 0.2709 0.7656 -0.5835
vn 0.7298 0.6824 -0.0405
vn 0.6987 0.7117 0.0731
vn -0.6764 0.6564 -0.3340
vn -0.7298 0.6824 -0.0405
vn -0.5520 -0.6239 -0.5531
vn -0.5511 0.6274 -0.5501
vn -0.0000 0.6281 -0.7782
vn -0.0000 -0.8147 0.5798
vn 0.0002 -0.0511 0.9987
vn 0.4103 -0.8103 0.4183
vn 0.7108 0.0060 0.7033
vn 0.0000 -0.2933 -0.9560
vn 0.4518 0.6618 -0.5983
vn 0.5598 -0.2117 -0.8011
vn 0.6764 0.6564 -0.3340
vn 0.3180 0.9481 0.0061
vn 0.2428 0.9410 -0.2359
vn -0.1084 0.9912 -0.0763
vn -0.1452 0.9888 0.0349
vn 0.2105 0.9537 0.2149
vn -0.0394 0.9941 -0.1006
vn -0.0024 0.9565 0.2918
vn 0.0039 0.9965 -0.0830
vn -0.2033 0.9574 0.2051
vn 0.0637 0.9931 -0.0987
vn -0.3010 0.9536 0.0055
vn 0.1330 0.9886 -0.0699
vn -0.2348 0.9458 -0.2243
vn 0.1672 0.9852 0.0379
vn -0.0024 0.9385 -0.3454
vn 0.0179 0.9922 0.1234
vn 0.7080 -0.0366 0.7053
vn 0.0003 -0.0333 0.9994
vn -0.0002 0.0476 -0.9989
vn 0.7057 0.0334 -0.7078
vn 0.7060 0.0223 -0.7078
vn -0.0001 -0.7819 -0.6234
vn 0.4407 -0.7869 -0.4319
vn 0.6013 -0.7990 0.0084
vn -0.0025 0.0098 0.9999
vn -0.7080 -0.0232 0.7059
vn -0.7120 0.0076 0.7021
vn -1.0000 -0.0007 -0.0024
vn 0.6945 0.0904 -0.7138
vn 1.0000 0.0012 -0.0039
vn 1.0000 0.0010 0.0008
vn 0.7082 -0.0869 0.7006
vn 0.7079 -0.0786 0.7020
vn 0.0000 -0.1220 0.9925
vn -0.0000 -0.1111 0.9938
vn 0.0000 0.6242 -0.7813
vn -0.4518 0.6618 -0.5983
vn -0.5598 -0.2117 -0.8011
vn -0.8766 -0.1725 -0.4493
vn -0.7802 -0.6255 -0.0011
vn -0.7799 0.6259 0.0011
vn -0.5514 -0.6270 0.5503
vn -0.5518 0.6243 0.5529
vn -0.0000 -0.6277 0.7785
vn 0.7034 -0.0071 -0.7108
vn 0.0024 -0.0107 -0.9999
vn -0.2168 0.5770 -0.7875
vn -0.7018 -0.0098 -0.7123
vn -0.7083 0.4830 -0.5148
vn -1.0000 -0.0009 -0.0079
vn -0.7082 -0.0869 0.7006
vn -1.0000 0.0010 0.0008
vn -0.7072 0.0981 -0.7002
vn 0.0000 0.1433 -0.9897
vn -0.9879 -0.1324 -0.0807
vn -0.9898 -0.1046 0.0972
vn -0.6987 0.7117 0.0731
vn 0.9898 -0.1045 0.0972
vn 0.9879 -0.1324 -0.0807
vn 0.8766 -0.1725 -0.4493
vn -0.7060 0.0215 -0.7079
vn -0.0003 0.0314 -0.9995
vn -0.7077 -0.0363 0.7056
vn -1.0000 -0.0014 -0.0020
vn -0.7059 0.0333 -0.7075
vn 0.1912 0.8305 0.5232
vn -0.2429 0.6770 0.6947
vn -0.6857 0.5696 0.4532
vn -0.9002 0.4353 0.0141
vn 0.7072 0.0981 -0.7002
vn -0.7079 -0.0786 0.7020
vn -1.0000 0.0012 -0.0039
vn -0.6945 0.0904 -0.7138
vn -0.0000 0.1347 -0.9909
vn -0.4105 -0.8102 0.4185
vn -0.6013 -0.7990 0.0082
vn -0.4404 -0.7871 -0.4318
vn -0.0000 0.6237 0.7817
vn 0.5518 0.6243 0.5529
vn 0.5514 -0.6270 0.5503
vn 0.7799 0.6259 0.0011
vn 0.7802 -0.6255 -0.0011
vn 0.5511 0.6274 -0.5501
vn 0.5520 -0.6239 -0.5531
vn -0.0000 -0.6233 -0.7820
vn 0.8326 -0.5520 0.0453
vn -0.8326 -0.5520 0.0452
vn 0.3915 -0.9196 -0.0311
vn 0.0000 -0.9986 -0.0530
vn -0.3915 -0.9196 -0.0311
# 149 vertex normals

vt 0.8868 0.3029 0.0000
vt 0.8688 0.3809 0.0000
vt 0.8581 0.3006 0.0000
vt 0.9668 0.4163 0.0000
vt 0.9841 0.4163 0.0000
vt 0.9841 0.4307 0.0000
vt 0.9116 0.3565 0.0000
vt 0.9422 0.3239 0.0000
vt 0.9364 0.3505 0.0000
vt 0.8983 0.4030 0.0000
vt 0.9078 0.4250 0.0000
vt 0.8873 0.4347 0.0000
vt 0.9668 0.3967 0.0000
vt 0.9841 0.3967 0.0000
vt 0.9841 0.3369 0.0000
vt 0.8234 0.3790 0.0000
vt 0.8069 0.3745 0.0000
vt 0.8234 0.3076 0.0000
vt 0.8042 0.3076 0.0000
vt 0.7962 0.3578 0.0000
vt 0.7842 0.3076 0.0000
vt 0.9668 0.4307 0.0000
vt 0.9138 0.3130 0.0000
vt 0.8970 0.3780 0.0000
vt 0.8763 0.4106 0.0000
vt 0.9668 0.3369 0.0000
vt 0.8808 0.1821 0.0000
vt 0.8851 0.2071 0.0000
vt 0.9146 0.1902 0.0000
vt 0.9128 0.1578 0.0000
vt 0.9487 0.1799 0.0000
vt 0.9419 0.1431 0.0000
vt 0.6198 0.7956 0.0000
vt 0.6421 0.7956 0.0000
vt 0.6421 0.8202 0.0000
vt 0.4638 0.7666 0.0000
vt 0.4638 0.7576 0.0000
vt 0.4861 0.7576 0.0000
vt 0.7787 0.2532 0.0000
vt 0.8039 0.2520 0.0000
vt 0.7806 0.2761 0.0000
vt 0.7832 0.2308 0.0000
vt 0.5562 0.8462 0.0000
vt 0.5562 0.8750 0.0000
vt 0.5271 0.8750 0.0000
vt 0.5975 0.8350 0.0000
vt 0.5975 0.8201 0.0000
vt 0.6198 0.8350 0.0000
vt 0.6198 0.7666 0.0000
vt 0.6421 0.7666 0.0000
vt 0.9841 0.1954 0.0000
vt 0.9668 0.2203 0.0000
vt 0.9841 0.2203 0.0000
vt 0.9668 0.2478 0.0000
vt 0.1614 0.7150 0.0000
vt 0.1708 0.6922 0.0000
vt 0.1725 0.7150 0.0000
vt 0.1787 0.7001 0.0000
vt 0.1936 0.6828 0.0000
vt 0.1931 0.6939 0.0000
vt 0.2165 0.6922 0.0000
vt 0.2075 0.7001 0.0000
vt 0.2259 0.7150 0.0000
vt 0.2137 0.7150 0.0000
vt 0.6198 0.8202 0.0000
vt 0.5975 0.7932 0.0000
vt 0.5084 0.8201 0.0000
vt 0.4861 0.8202 0.0000
vt 0.4861 0.7956 0.0000
vt 0.4638 0.7956 0.0000
vt 0.4638 0.8202 0.0000
vt 0.5084 0.8350 0.0000
vt 0.4861 0.8350 0.0000
vt 0.4638 0.8350 0.0000
vt 0.6421 0.8350 0.0000
vt 0.5975 0.7616 0.0000
vt 0.5752 0.7913 0.0000
vt 0.5752 0.7575 0.0000
vt 0.5529 0.7908 0.0000
vt 0.5347 0.9643 0.0000
vt 0.5126 0.9703 0.0000
vt 0.5126 0.9180 0.0000
vt 0.4905 0.9180 0.0000
vt 0.4905 0.9731 0.0000
vt 0.4695 0.9180 0.0000
vt 0.4695 0.9731 0.0000
vt 0.9668 0.1954 0.0000
vt 0.9841 0.2478 0.0000
vt 0.8032 0.2074 0.0000
vt 0.8234 0.2518 0.0000
vt 0.8234 0.1982 0.0000
vt 0.5856 0.8462 0.0000
vt 0.5856 0.8750 0.0000
vt 0.6145 0.8462 0.0000
vt 0.6145 0.8750 0.0000
vt 0.6436 0.8462 0.0000
vt 0.4861 0.7666 0.0000
vt 0.5084 0.7619 0.0000
vt 0.5084 0.7522 0.0000
vt 0.5307 0.7575 0.0000
vt 0.5307 0.7471 0.0000
vt 0.5529 0.7565 0.0000
vt 0.6420 0.9180 0.0000
vt 0.6209 0.9180 0.0000
vt 0.6420 0.8832 0.0000
vt 0.6209 0.8832 0.0000
vt 0.5988 0.9180 0.0000
vt 0.5988 0.8832 0.0000
vt 0.5768 0.9180 0.0000
vt 0.5768 0.8832 0.0000
vt 0.5557 0.9180 0.0000
vt 0.8234 0.2761 0.0000
vt 0.8041 0.2761 0.0000
vt 0.9841 0.2716 0.0000
vt 0.9668 0.2740 0.0000
vt 0.9841 0.3009 0.0000
vt 0.9668 0.3009 0.0000
vt 0.5307 0.7913 0.0000
vt 0.5084 0.7934 0.0000
vt 0.5752 0.8200 0.0000
vt 0.5529 0.8200 0.0000
vt 0.5307 0.8200 0.0000
vt 0.6421 0.7576 0.0000
vt 0.6198 0.7576 0.0000
vt 0.5975 0.7518 0.0000
vt 0.5752 0.7471 0.0000
vt 0.5529 0.7459 0.0000
vt 0.5557 0.8832 0.0000
vt 0.5347 0.8832 0.0000
vt 0.5347 0.9180 0.0000
vt 0.5126 0.8832 0.0000
vt 0.4905 0.8832 0.0000
vt 0.4695 0.8832 0.0000
vt 0.6420 0.9731 0.0000
vt 0.6209 0.9731 0.0000
vt 0.5988 0.9703 0.0000
vt 0.5768 0.9643 0.0000
vt 0.5557 0.9589 0.0000
vt 0.5752 0.8350 0.0000
vt 0.5529 0.8350 0.0000
vt 0.5307 0.8350 0.0000
vt 0.6436 0.8750 0.0000
vt 0.5271 0.8462 0.0000
vt 0.8860 0.2530 0.0000
vt 0.8594 0.2115 0.0000
vt 0.8562 0.2516 0.0000
vt 0.2341 0.7005 0.0000
vt 0.2223 0.6720 0.0000
vt 0.2298 0.6645 0.0000
vt 0.1938 0.6496 0.0000
vt 0.1938 0.6602 0.0000
vt 0.1578 0.6645 0.0000
vt 0.1653 0.6720 0.0000
vt 0.1429 0.7005 0.0000
vt 0.1535 0.7005 0.0000
vt 0.2447 0.7005 0.0000
vt 0.2211 0.6732 0.0000
vt 0.2324 0.7005 0.0000
vt 0.1938 0.6619 0.0000
vt 0.1665 0.6732 0.0000
vt 0.1552 0.7005 0.0000
vt 0.8698 0.1770 0.0000
vt 0.9177 0.2555 0.0000
vt 0.9508 0.2574 0.0000
vt 0.9028 0.1377 0.0000
vt 0.9338 0.1180 0.0000
vt 0.5557 0.9732 0.0000
vt 0.5347 0.9795 0.0000
vt 0.5126 0.9864 0.0000
vt 0.4905 0.9895 0.0000
vt 0.4695 0.9895 0.0000
vt 0.6420 0.9895 0.0000
vt 0.6209 0.9895 0.0000
vt 0.5988 0.9864 0.0000
vt 0.5768 0.9795 0.0000
# 175 texture coords

o PiernaIzquierda001
g PiernaIzquierda001
usemtl peluches_Conejo_peluche_pasted__aiStandardSurface2SG
s off
f 1/1/1 2/2/2 3/3/3 
f 4/4/4 5/5/5 6/6/6 
f 7/7/7 8/8/8 9/9/9 
f 8/8/8 10/7/10 9/9/9 
f 11/10/11 12/11/12 6/12/6 
f 12/11/12 13/10/13 6/12/6 
f 4/4/4 14/13/14 5/5/5 
f 14/13/14 2/14/2 5/5/5 
f 14/13/14 3/15/3 2/14/2 
f 15/16/15 16/17/16 17/18/17 
f 16/17/16 18/19/17 17/18/17 
f 16/17/16 19/20/18 18/19/17 
f 19/20/18 20/21/19 18/19/17 
f 4/17/4 21/19/17 14/20/14 
f 21/19/17 22/21/20 14/20/14 
f 23/3/21 24/2/22 25/1/23 
f 4/4/4 6/6/6 15/22/15 
f 6/6/6 16/4/16 15/22/15 
f 6/6/6 26/5/24 16/4/16 
f 26/5/24 19/13/18 16/4/16 
f 26/5/24 24/14/22 19/13/18 
f 24/14/22 23/15/21 19/13/18 
f 8/8/8 7/7/7 27/23/25 
f 7/7/7 1/1/1 27/23/25 
f 7/7/7 28/24/26 1/1/1 
f 28/24/26 2/2/2 1/1/1 
f 28/24/26 11/10/11 2/2/2 
f 11/10/11 5/25/5 2/2/2 
f 11/10/11 6/12/6 5/25/5 
f 3/15/3 14/13/14 22/26/20 
f 15/16/15 17/18/17 4/17/4 
f 17/18/17 21/19/17 4/17/4 
f 19/13/18 23/15/21 20/26/19 
f 29/23/27 10/7/10 8/8/8 
f 29/23/27 25/1/23 10/7/10 
f 25/1/23 30/24/28 10/7/10 
f 25/1/23 24/2/22 30/24/28 
f 24/2/22 13/10/13 30/24/28 
f 24/2/22 26/25/24 13/10/13 
f 26/25/24 6/12/6 13/10/13 
f 31/27/29 32/28/30 33/29/31 
f 34/30/32 35/31/33 36/32/34 
f 35/31/33 37/30/35 36/32/34 
f 35/31/33 38/29/36 37/30/35 
f 38/29/36 39/27/37 37/30/35 
f 38/29/36 40/28/38 39/27/37 
f 31/27/29 33/29/31 34/30/32 
f 33/29/31 35/31/33 34/30/32 
f 41/33/39 42/34/40 43/35/41 
f 44/36/42 45/37/43 46/38/44 
f 47/39/45 48/40/17 49/41/46 
f 50/42/47 51/39/48 52/40/17 
f 53/43/49 54/44/50 55/45/51 
f 56/46/52 57/47/53 58/48/54 
f 41/33/39 59/49/55 42/34/40 
f 59/49/55 44/50/42 42/34/40 
f 60/51/56 61/52/57 62/53/58 
f 61/52/57 63/54/59 62/53/58 
f 64/55/60 65/56/61 66/57/62 
f 65/56/61 67/58/63 66/57/62 
f 68/56/64 64/55/60 69/58/65 
f 64/55/60 66/57/62 69/58/65 
f 70/59/66 68/56/64 71/60/67 
f 68/56/64 69/58/65 71/60/67 
f 72/61/68 70/59/66 73/62/69 
f 70/59/66 71/60/67 73/62/69 
f 72/61/68 73/62/69 74/63/70 
f 73/62/69 75/64/71 74/63/70 
f 74/63/70 75/64/71 76/61/72 
f 75/64/71 77/62/73 76/61/72 
f 76/61/72 77/62/73 78/59/74 
f 77/62/73 79/60/75 78/59/74 
f 65/56/61 78/59/74 67/58/63 
f 78/59/74 79/60/75 67/58/63 
f 43/35/41 80/65/76 41/33/39 
f 80/65/76 81/66/77 41/33/39 
f 80/65/76 57/47/53 81/66/77 
f 82/67/78 83/68/79 84/69/80 
f 83/68/79 42/70/40 84/69/80 
f 83/68/79 43/71/41 42/70/40 
f 85/72/81 86/73/82 83/68/79 
f 86/73/82 43/71/41 83/68/79 
f 86/73/82 87/74/83 43/71/41 
f 57/47/53 80/65/76 58/48/54 
f 80/65/76 87/75/83 58/48/54 
f 80/65/76 43/35/41 87/75/83 
f 41/33/39 81/66/77 59/49/55 
f 81/66/77 88/76/84 59/49/55 
f 81/66/77 89/77/85 88/76/84 
f 89/77/85 90/78/86 88/76/84 
f 89/77/85 91/79/87 90/78/86 
f 92/80/88 93/81/89 94/82/90 
f 93/81/89 95/83/91 94/82/90 
f 93/81/89 96/84/92 95/83/91 
f 96/84/92 97/85/93 95/83/91 
f 96/84/92 98/86/94 97/85/93 
f 61/52/57 60/51/56 99/87/95 
f 60/51/56 100/52/96 99/87/95 
f 60/51/56 101/53/97 100/52/96 
f 101/53/97 50/54/47 100/52/96 
f 101/53/97 102/88/98 50/54/47 
f 100/89/96 103/90/17 99/91/95 
f 103/90/17 61/89/57 99/91/95 
f 103/90/17 48/40/17 61/89/57 
f 48/40/17 63/42/59 61/89/57 
f 48/40/17 47/39/45 63/42/59 
f 53/43/49 104/92/99 54/44/50 
f 104/92/99 105/93/100 54/44/50 
f 104/92/99 106/94/101 105/93/100 
f 106/94/101 107/95/102 105/93/100 
f 106/94/101 108/96/103 107/95/102 
f 44/36/42 46/38/44 109/97/104 
f 46/38/44 110/98/105 109/97/104 
f 46/38/44 111/99/106 110/98/105 
f 111/99/106 112/100/107 110/98/105 
f 111/99/106 113/101/108 112/100/107 
f 113/101/108 114/102/109 112/100/107 
f 97/103/93 115/104/110 79/105/75 
f 115/104/110 67/106/63 79/105/75 
f 115/104/110 116/107/111 67/106/63 
f 116/107/111 66/108/62 67/106/63 
f 116/107/111 117/109/112 66/108/62 
f 117/109/112 69/110/65 66/108/62 
f 117/109/112 118/111/113 69/110/65 
f 50/42/47 52/40/17 100/89/96 
f 52/40/17 103/90/17 100/89/96 
f 52/40/17 119/112/17 103/90/17 
f 119/112/17 48/40/17 103/90/17 
f 119/112/17 120/113/17 48/40/17 
f 120/113/17 49/41/46 48/40/17 
f 102/88/98 121/114/114 50/54/47 
f 121/114/114 51/115/48 50/54/47 
f 121/114/114 122/116/115 51/115/48 
f 122/116/115 123/117/116 51/115/48 
f 119/112/17 52/40/17 124/113/17 
f 52/40/17 123/41/116 124/113/17 
f 52/40/17 51/39/48 123/41/116 
f 125/116/117 47/115/45 49/117/46 
f 125/116/117 126/114/118 47/115/45 
f 126/114/118 63/54/59 47/115/45 
f 126/114/118 127/88/119 63/54/59 
f 127/88/119 62/53/58 63/54/59 
f 90/78/86 91/79/87 114/102/109 
f 91/79/87 112/100/107 114/102/109 
f 91/79/87 128/118/120 112/100/107 
f 128/118/120 110/98/105 112/100/107 
f 128/118/120 129/119/121 110/98/105 
f 129/119/121 109/97/104 110/98/105 
f 129/119/121 84/69/80 109/97/104 
f 84/69/80 44/36/42 109/97/104 
f 84/69/80 42/70/40 44/36/42 
f 57/47/53 130/120/122 81/66/77 
f 130/120/122 89/77/85 81/66/77 
f 130/120/122 131/121/123 89/77/85 
f 131/121/123 91/79/87 89/77/85 
f 131/121/123 132/122/124 91/79/87 
f 132/122/124 128/118/120 91/79/87 
f 132/122/124 82/67/78 128/118/120 
f 82/67/78 129/119/121 128/118/120 
f 82/67/78 84/69/80 129/119/121 
f 44/50/42 59/49/55 45/123/43 
f 59/49/55 133/124/125 45/123/43 
f 59/49/55 88/76/84 133/124/125 
f 88/76/84 134/125/126 133/124/125 
f 88/76/84 90/78/86 134/125/126 
f 90/78/86 135/126/127 134/125/126 
f 90/78/86 114/102/109 135/126/127 
f 114/102/109 136/127/128 135/126/127 
f 114/102/109 113/101/108 136/127/128 
f 69/110/65 118/111/113 71/128/67 
f 118/111/113 73/129/69 71/128/67 
f 118/111/113 137/130/129 73/129/69 
f 137/130/129 75/131/71 73/129/69 
f 137/130/129 94/82/90 75/131/71 
f 94/82/90 77/132/73 75/131/71 
f 94/82/90 95/83/91 77/132/73 
f 95/83/91 79/133/75 77/132/73 
f 95/83/91 97/85/93 79/133/75 
f 98/134/94 138/135/130 97/103/93 
f 138/135/130 115/104/110 97/103/93 
f 138/135/130 139/136/131 115/104/110 
f 139/136/131 116/107/111 115/104/110 
f 139/136/131 140/137/132 116/107/111 
f 140/137/132 117/109/112 116/107/111 
f 140/137/132 141/138/133 117/109/112 
f 141/138/133 118/111/113 117/109/112 
f 141/138/133 137/130/129 118/111/113 
f 56/46/52 142/139/134 57/47/53 
f 142/139/134 130/120/122 57/47/53 
f 142/139/134 143/140/135 130/120/122 
f 143/140/135 131/121/123 130/120/122 
f 143/140/135 144/141/136 131/121/123 
f 144/141/136 132/122/124 131/121/123 
f 144/141/136 85/72/81 132/122/124 
f 85/72/81 82/67/78 132/122/124 
f 85/72/81 83/68/79 82/67/78 
f 107/95/102 108/96/103 145/142/137 
f 108/96/103 146/95/138 145/142/137 
f 108/96/103 147/94/139 146/95/138 
f 147/94/139 148/93/140 146/95/138 
f 147/94/139 149/92/141 148/93/140 
f 149/92/141 150/44/142 148/93/140 
f 149/92/141 151/43/143 150/44/142 
f 151/43/143 55/45/51 150/44/142 
f 151/43/143 152/143/144 55/45/51 
f 152/143/144 53/43/49 55/45/51 
f 92/80/88 137/130/129 141/138/133 
f 92/80/88 94/82/90 137/130/129 
f 153/144/145 126/145/118 125/146/117 
f 154/144/146 122/146/115 121/145/114 
f 78/147/74 65/148/61 107/149/102 
f 65/148/61 105/150/100 107/149/102 
f 65/148/61 64/151/60 105/150/100 
f 64/151/60 54/152/50 105/150/100 
f 64/151/60 68/153/64 54/152/50 
f 68/153/64 55/154/51 54/152/50 
f 68/153/64 70/155/66 55/154/51 
f 70/155/66 150/152/142 55/154/51 
f 70/155/66 72/153/68 150/152/142 
f 72/153/68 148/150/140 150/152/142 
f 72/153/68 74/151/70 148/150/140 
f 74/151/70 146/149/138 148/150/140 
f 74/151/70 76/148/72 146/149/138 
f 76/148/72 145/156/137 146/149/138 
f 76/148/72 78/147/74 145/156/137 
f 78/147/74 107/149/102 145/156/137 
f 142/157/134 56/158/52 108/156/103 
f 56/158/52 147/149/139 108/156/103 
f 56/158/52 58/157/54 147/149/139 
f 58/157/54 149/150/141 147/149/139 
f 58/157/54 87/159/83 149/150/141 
f 87/159/83 151/152/143 149/150/141 
f 87/159/83 86/160/82 151/152/143 
f 86/160/82 152/154/144 151/152/143 
f 86/160/82 85/161/81 152/154/144 
f 85/161/81 53/152/49 152/154/144 
f 85/161/81 144/160/136 53/152/49 
f 144/160/136 104/150/99 53/152/49 
f 144/160/136 143/159/135 104/150/99 
f 143/159/135 106/149/101 104/150/99 
f 143/159/135 142/157/134 106/149/101 
f 142/157/134 108/156/103 106/149/101 
f 153/144/145 32/28/30 126/145/118 
f 154/144/146 121/145/114 40/28/38 
f 40/28/38 102/162/98 39/27/37 
f 40/28/38 121/145/114 102/162/98 
f 32/28/30 127/162/119 126/145/118 
f 32/28/30 31/27/29 127/162/119 
f 33/29/31 155/163/147 156/164/148 
f 155/163/147 29/23/27 156/164/148 
f 155/163/147 25/1/23 29/23/27 
f 17/18/17 18/19/17 119/112/17 
f 18/19/17 120/113/17 119/112/17 
f 18/19/17 20/21/19 120/113/17 
f 21/19/17 124/113/17 22/21/20 
f 124/113/17 123/41/116 22/21/20 
f 32/28/30 155/163/147 33/29/31 
f 32/28/30 153/144/145 155/163/147 
f 153/144/145 25/1/23 155/163/147 
f 153/144/145 23/3/21 25/1/23 
f 120/113/17 20/21/19 49/41/46 
f 122/116/115 3/15/3 123/117/116 
f 3/15/3 22/26/20 123/117/116 
f 17/18/17 119/112/17 21/19/17 
f 119/112/17 124/113/17 21/19/17 
f 23/15/21 49/117/46 20/26/19 
f 23/15/21 125/116/117 49/117/46 
f 122/146/115 154/144/146 3/3/3 
f 154/144/146 1/1/1 3/3/3 
f 154/144/146 157/163/149 1/1/1 
f 157/163/149 27/23/25 1/1/1 
f 157/163/149 156/164/148 27/23/25 
f 156/164/148 8/8/8 27/23/25 
f 156/164/148 29/23/27 8/8/8 
f 23/3/21 153/144/145 125/146/117 
f 33/29/31 156/164/148 35/31/33 
f 156/164/148 38/29/36 35/31/33 
f 156/164/148 157/163/149 38/29/36 
f 157/163/149 40/28/38 38/29/36 
f 157/163/149 154/144/146 40/28/38 
f 62/165/58 36/32/34 60/166/56 
f 36/32/34 101/165/97 60/166/56 
f 36/32/34 37/30/35 101/165/97 
f 37/30/35 102/162/98 101/165/97 
f 37/30/35 39/27/37 102/162/98 
f 127/162/119 34/30/32 62/165/58 
f 34/30/32 36/32/34 62/165/58 
f 31/27/29 34/30/32 127/162/119 
f 9/167/9 10/168/10 92/80/88 
f 10/168/10 93/81/89 92/80/88 
f 10/168/10 30/169/28 93/81/89 
f 30/169/28 96/84/92 93/81/89 
f 30/169/28 13/170/13 96/84/92 
f 13/170/13 98/86/94 96/84/92 
f 13/170/13 12/171/12 98/86/94 
f 12/172/12 11/173/11 98/134/94 
f 11/173/11 138/135/130 98/134/94 
f 11/173/11 28/174/26 138/135/130 
f 28/174/26 139/136/131 138/135/130 
f 28/174/26 7/175/7 139/136/131 
f 7/175/7 140/137/132 139/136/131 
f 7/175/7 9/167/9 140/137/132 
f 9/167/9 141/138/133 140/137/132 
f 9/167/9 92/80/88 141/138/133 
# 0 polygons - 304 triangles

