# 3ds Max Wavefront OBJ Exporter v0.99 - (c)2007 guruware
# File Created: 09.05.2025 00:33:57

mtllib PiernaIzq_Doctor.mtl

#
# object PiernaizD
#

v  -3.7030 -0.3150 10.8267
v  -3.7578 -0.3329 10.7995
v  -3.7590 -0.3039 10.8088
v  -3.8105 -0.3319 10.7866
v  -3.8158 -0.3050 10.7963
v  -3.8596 -0.3319 10.7840
v  -3.8682 -0.3160 10.7895
v  -3.8924 -0.3511 10.7927
v  -3.8549 -0.3547 10.7825
v  -3.8102 -0.3547 10.7855
v  -3.7577 -0.3547 10.7992
v  -3.7020 -0.3547 10.8180
v  -3.7021 -0.3336 10.8190
v  -3.6241 -0.3327 10.8267
v  -3.6171 -0.3049 10.8305
v  -3.5753 -0.3327 10.8240
v  -3.5773 -0.3037 10.8269
v  -3.5799 -0.2846 10.8313
v  -3.6132 -0.2826 10.8359
v  -3.5514 -0.2821 10.8441
v  -3.5390 -0.3039 10.8421
v  -3.5309 -0.3327 10.8390
v  -3.7045 -0.3021 10.8371
v  -3.6338 -0.2755 10.8711
v  -3.7079 -0.2959 10.8614
v  -3.6356 -0.2761 10.8709
v  -3.9039 -0.3511 10.8798
v  -3.9223 -0.3313 10.8592
v  -3.9273 -0.3542 10.8325
v  -3.9332 -0.3314 10.8317
v  -3.8979 -0.2915 10.8364
v  -3.9155 -0.3313 10.8080
v  -3.8860 -0.2993 10.8100
v  -3.8239 -0.2817 10.8180
v  -3.7617 -0.2848 10.8292
v  -3.7108 -0.3021 10.8856
v  -3.6229 -0.2826 10.9105
v  -3.6282 -0.3049 10.9147
v  -3.7122 -0.3150 10.8962
v  -3.7682 -0.2848 10.8785
v  -3.7653 -0.2776 10.8538
v  -3.8305 -0.2732 10.8452
v  -3.8933 -0.2993 10.8648
v  -3.8814 -0.3160 10.8892
v  -3.8311 -0.2817 10.8733
v  -3.8289 -0.3050 10.8962
v  -3.7709 -0.3039 10.8989
v  -3.8746 -0.3319 10.8968
v  -3.8703 -0.3547 10.8995
v  -3.8264 -0.3319 10.9070
v  -3.8264 -0.3547 10.9081
v  -3.7721 -0.3329 10.9082
v  -3.7721 -0.3547 10.9085
v  -3.7134 -0.3547 10.9048
v  -3.7133 -0.3336 10.9038
v  -3.6358 -0.3327 10.9165
v  -3.5895 -0.3327 10.9317
v  -3.5907 -0.3037 10.9284
v  -3.5921 -0.2846 10.9236
v  -3.5612 -0.2821 10.9186
v  -3.5498 -0.3039 10.9238
v  -3.5427 -0.3327 10.9288
v  -3.6302 -0.3327 10.8716
v  -3.7077 -0.3547 10.8615
v  -3.5376 -0.2788 10.8838
v  -3.5226 -0.3058 10.8858
v  -3.5150 -0.3327 10.8868
v  -3.5279 -0.3535 10.8395
v  -3.5120 -0.3535 10.8872
v  -3.5824 -0.3535 10.8779
v  -3.5397 -0.3535 10.9292
v  -3.5895 -0.3535 10.9317
v  -3.6358 -0.3535 10.9165
v  -3.6299 -0.3534 10.8716
v  -3.5753 -0.3535 10.8240
v  -3.6241 -0.3535 10.8267
v  -3.7648 -0.3547 10.8539
v  -3.8184 -0.3547 10.8468
v  -3.8630 -0.3547 10.8409
v  -3.6789 -0.0200 10.8463
v  -3.6938 0.0057 10.8429
v  -3.6724 0.0057 10.8523
v  -3.6193 0.1885 10.8999
v  -3.6027 0.1846 10.8778
v  -3.6077 0.2153 10.9052
v  -3.5891 0.2112 10.8810
v  -3.6002 0.2153 10.8484
v  -3.6126 0.1885 10.8494
v  -3.6278 0.1295 10.8725
v  -3.6360 0.1331 10.8504
v  -3.6540 0.0590 10.8690
v  -3.6634 0.0603 10.8520
v  -3.6639 0.0057 10.8677
v  -3.6576 -0.0125 10.8547
v  -3.6440 -0.0893 10.8444
v  -3.6415 0.1331 10.8916
v  -3.6664 0.0603 10.8832
v  -3.6760 0.0057 10.8805
v  -3.5827 -0.2970 10.8244
v  -3.6333 -0.2881 10.8279
v  -3.6050 -0.1799 10.8392
v  -3.6446 -0.1848 10.8413
v  -3.6688 -0.0960 10.8470
v  -3.7021 -0.0264 10.8489
v  -3.7219 0.0057 10.8458
v  -3.7130 -0.0292 10.8612
v  -3.7346 0.0057 10.8585
v  -3.7256 0.0057 10.8740
v  -3.7057 -0.0264 10.8760
v  -3.6992 0.0057 10.8839
v  -3.6839 -0.0200 10.8846
v  -3.6613 -0.0125 10.8819
v  -3.6511 -0.0100 10.8694
v  -3.6508 -0.0893 10.8955
v  -3.6739 -0.0960 10.8865
v  -3.6816 -0.0996 10.8654
v  -3.6625 -0.1848 10.8679
v  -3.6615 -0.2818 10.8680
v  -3.6447 -0.2881 10.9141
v  -3.5966 -0.2970 10.9307
v  -3.5450 -0.2952 10.9273
v  -3.5731 -0.1704 10.9087
v  -3.5581 -0.1683 10.8817
v  -3.5996 -0.0738 10.8762
v  -3.6144 -0.1799 10.9105
v  -3.6521 -0.1848 10.8983
v  -3.6103 -0.0768 10.8949
v  -3.6052 -0.0768 10.8554
v  -3.5681 -0.1704 10.8514
v  -3.5337 -0.2952 10.8410
v  -3.5184 -0.2933 10.8869
v  -3.6755 0.2138 10.8411
v  -3.6427 0.1998 10.8383
v  -3.6881 0.1463 10.8436
v  -3.6610 0.1391 10.8409
v  -3.6828 0.0629 10.8426
v  -3.7057 0.0664 10.8464
v  -3.7024 0.1499 10.8627
v  -3.7209 0.0676 10.8603
v  -3.7120 0.0664 10.8772
v  -3.6931 0.1463 10.8849
v  -3.6887 0.0629 10.8871
v  -3.6681 0.1391 10.8944
v  -3.6497 0.2019 10.9006
v  -3.6783 0.2138 10.8878
v  -3.6859 0.2190 10.8648
v  -3.6358 0.2234 10.8359
v  -3.6714 0.2473 10.8390
v  -3.6773 0.2535 10.8664
v  -3.6715 0.2473 10.8902
v  -3.6409 0.2327 10.9051
# 151 vertices

vn -0.5062 0.3460 -0.7899
vn -0.4636 0.1680 -0.8700
vn -0.4435 0.3129 -0.8399
vn -0.5827 0.2023 -0.7871
vn -0.5691 0.3584 -0.7400
vn -0.7709 0.1727 -0.6131
vn -0.7687 0.2622 -0.5834
vn -0.8987 0.2251 -0.3765
vn -0.7585 0.0432 -0.6502
vn -0.5880 0.0448 -0.8076
vn -0.4753 0.0163 -0.8797
vn -0.5282 0.0419 -0.8481
vn -0.5236 0.2185 -0.8235
vn -0.6946 0.1480 -0.7040
vn -0.7321 0.2010 -0.6509
vn -0.5906 0.1327 -0.7960
vn -0.5860 0.1750 -0.7912
vn -0.5881 0.2448 -0.7709
vn -0.7634 0.2550 -0.5935
vn -0.3747 0.2743 -0.8856
vn -0.4063 0.2096 -0.8894
vn -0.4363 0.1879 -0.8799
vn -0.3140 0.8297 -0.4614
vn -0.2054 0.9676 0.1468
vn -0.6314 0.6518 -0.4201
vn -0.4234 0.6344 -0.6467
vn -0.3097 0.7191 -0.6221
vn 0.0385 0.9899 -0.1363
vn 0.6086 0.0000 0.7934
vn -0.2855 -0.3208 0.9031
vn -0.2075 0.1910 0.9594
vn -0.7554 -0.3059 0.5795
vn -0.7765 0.2058 0.5956
vn -0.4276 0.8423 0.3280
vn -0.9804 0.1910 -0.0482
vn -0.7014 0.6949 -0.1585
vn -0.7715 0.5566 -0.3082
vn -0.3734 0.8541 -0.3621
vn -0.4661 0.6948 -0.5477
vn -0.1643 0.8638 -0.4762
vn -0.0541 0.9360 0.3478
vn 0.3643 0.8297 0.4229
vn 0.2421 0.6518 0.7187
vn 0.4389 0.2010 0.8758
vn 0.5149 0.6344 0.5765
vn -0.9462 -0.3208 0.0417
vn 0.4174 0.8638 0.2821
vn 0.1421 0.9838 -0.1090
vn -0.0867 0.9940 0.0665
vn -0.0287 0.6949 0.7185
vn 0.1308 0.2251 0.9655
vn 0.0978 0.5566 0.8250
vn 0.2530 0.8541 0.4545
vn 0.4083 0.6948 0.5921
vn 0.5206 0.7191 0.4604
vn 0.3924 0.1727 0.9034
vn 0.5673 0.3584 0.7414
vn 0.3643 0.2622 0.8936
vn 0.4315 0.0432 0.9011
vn 0.6092 0.2023 0.7668
vn 0.6277 0.0448 0.7772
vn 0.7201 0.1680 0.6732
vn 0.7265 0.0163 0.6870
vn 0.6823 0.0419 0.7299
vn 0.6597 0.2185 0.7191
vn 0.6318 0.3460 0.6936
vn 0.5000 0.1480 0.8533
vn 0.6158 0.1327 0.7767
vn 0.6123 0.1750 0.7710
vn 0.6963 0.3129 0.6459
vn 0.5921 0.2448 0.7678
vn 0.3754 0.2550 0.8911
vn 0.7583 0.2743 0.5914
vn 0.7537 0.2096 0.6229
vn 0.7368 0.1879 0.6494
vn 0.1027 -0.9916 -0.0787
vn -0.4743 -0.8016 0.3639
vn -0.0782 -0.5772 0.8129
vn 0.1084 -0.9906 -0.0831
vn 0.6849 0.5049 -0.5254
vn 0.3847 0.3868 -0.8381
vn 0.3460 0.4884 -0.8011
vn 0.7349 0.3771 -0.5637
vn 0.1257 0.1535 -0.9801
vn 0.7762 0.2071 -0.5955
vn 0.0228 -0.5829 -0.8122
vn 0.6552 -0.5639 -0.5026
vn -0.0002 -1.0000 0.0002
vn 0.7904 -0.5829 0.1884
vn 0.4549 -0.6670 0.5901
vn 0.9792 0.1535 0.1325
vn 0.6120 -0.0000 0.7909
vn -0.1799 -0.5879 0.7887
vn -0.5593 -0.7094 0.4290
vn -0.8054 -0.5772 -0.1351
vn 0.9092 0.3868 -0.1544
vn 0.8634 0.4884 -0.1266
vn -0.4521 -0.6670 -0.5922
vn -0.6053 -0.0000 -0.7960
vn -0.8083 -0.5879 -0.0306
vn -0.0000 -1.0000 0.0000
vn -0.0327 -0.9991 0.0254
vn -0.0188 -0.9997 0.0144
vn -0.0195 -0.9979 0.0625
vn -0.0056 -1.0000 0.0043
vn -0.0654 -0.9979 0.0027
vn -0.0330 -0.9991 0.0250
vn -0.6048 0.0359 -0.7955
vn -0.6476 -0.0739 -0.7584
vn -0.0414 0.1533 -0.9873
vn 0.9143 -0.3979 -0.0751
vn 0.7240 -0.4446 -0.5274
vn 0.9057 -0.4187 -0.0662
vn 0.7276 -0.4636 -0.5056
vn 0.3558 -0.3992 -0.8450
vn 0.3526 -0.3827 -0.8539
vn 0.7299 -0.3887 -0.5622
vn 0.3339 -0.3386 -0.8797
vn 0.7471 -0.2880 -0.5991
vn 0.2579 -0.2308 -0.9382
vn 0.7576 0.2904 -0.5845
vn -0.1208 0.3942 -0.9111
vn -0.6540 0.0880 -0.7514
vn 0.9344 -0.3427 -0.0973
vn 0.9714 -0.2330 -0.0461
vn 0.9431 0.1491 0.2971
vn -0.4925 -0.6362 -0.5939
vn -0.8104 -0.5497 -0.2025
vn -0.6144 0.1255 -0.7790
vn -0.9609 -0.0048 -0.2768
vn -0.9479 -0.1358 -0.2881
vn -0.9021 -0.2612 -0.3435
vn -0.9007 -0.3633 -0.2381
vn -0.6966 -0.4789 0.5343
vn -0.6731 -0.5294 0.5164
vn -0.0035 -0.3633 0.9317
vn 0.0980 -0.2611 0.9603
vn 0.5647 -0.0739 0.8220
vn 0.6116 0.0359 0.7903
vn 0.8487 0.3942 0.3527
vn 0.6040 0.6485 -0.4633
vn 0.5562 0.0880 0.8264
vn 0.0326 -0.1358 0.9902
vn -0.7558 -0.3046 0.5797
vn -0.7883 -0.1133 0.6047
vn -0.6844 -0.5060 0.5250
vn -0.0144 -0.5497 0.8352
vn 0.4449 -0.6368 0.6296
vn 0.8370 -0.5158 0.1828
vn 0.9318 0.2753 0.2367
vn 0.7244 0.3489 -0.5946
vn 0.6768 0.5173 -0.5238
vn 0.5898 0.1251 0.7978
vn 0.0183 -0.0048 0.9998
vn 0.8798 0.3780 0.2883
vn -0.0451 0.3730 -0.9267
vn -0.0227 0.2715 -0.9622
vn 0.0393 -0.5144 -0.8567
vn 0.7052 -0.4583 -0.5410
vn -0.9799 0.0603 -0.1900
vn -0.6308 -0.1016 -0.7693
vn -0.9573 0.0710 -0.2804
vn -0.6163 -0.0735 -0.7840
vn -0.6090 -0.0467 -0.7918
vn -0.9375 0.0987 -0.3337
vn -0.7704 0.1915 0.6082
vn -0.7975 0.2210 0.5614
vn 0.0453 0.1017 0.9938
vn 0.0346 0.1018 0.9942
vn 0.6114 -0.0467 0.7899
vn 0.5903 -0.0682 0.8043
vn 0.5286 -0.0545 0.8471
vn -0.0240 0.1122 0.9934
vn -0.7128 0.2044 0.6709
vn -0.6503 -0.1110 -0.7515
vn -0.9940 0.1078 0.0191
vn -0.6714 0.2431 0.7001
vn -0.1018 0.1302 0.9862
vn 0.4904 -0.0533 0.8699
vn 0.6556 -0.1488 0.7403
vn 0.6828 -0.1434 0.7164
vn 0.7438 -0.1561 0.6499
vn 0.7998 -0.1090 0.5903
vn 0.8033 -0.0801 0.5902
vn 0.5999 -0.0214 0.7998
vn 0.0362 0.1169 0.9925
vn -0.7745 0.2173 0.5941
vn -0.9476 0.1233 -0.2947
vn -0.6192 -0.0168 -0.7851
vn -0.3590 -0.0793 -0.9300
vn -0.3507 -0.1089 -0.9301
vn -0.4371 -0.1407 -0.8883
vn -0.4607 -0.1567 -0.8736
vn -0.4593 -0.1668 -0.8725
# 194 vertex normals

vt 0.8232 0.8659 0.0000
vt 0.8152 0.9323 0.0000
vt 0.8152 0.8659 0.0000
vt 0.8062 0.9315 0.0000
vt 0.8062 0.8659 0.0000
vt 0.7874 0.9170 0.0000
vt 0.7874 0.8659 0.0000
vt 0.7726 0.8659 0.0000
vt 0.7874 0.9749 0.0000
vt 0.8062 0.9749 0.0000
vt 0.8152 0.9749 0.0000
vt 0.8232 0.9749 0.0000
vt 0.8232 0.9204 0.0000
vt 0.8561 0.9749 0.0000
vt 0.8561 0.9073 0.0000
vt 0.8689 0.9749 0.0000
vt 0.8689 0.9095 0.0000
vt 0.8689 0.8659 0.0000
vt 0.8561 0.8659 0.0000
vt 0.8816 0.8659 0.0000
vt 0.8816 0.9168 0.0000
vt 0.8816 0.9749 0.0000
vt 0.7403 0.8153 0.0000
vt 0.7114 0.7823 0.0000
vt 0.7726 0.7823 0.0000
vt 0.7726 0.8153 0.0000
vt 0.7726 0.8233 0.0000
vt 0.7121 0.8153 0.0000
vt 0.7121 0.7830 0.0000
vt 0.7726 0.9749 0.0000
vt 0.7403 0.8659 0.0000
vt 0.7403 0.9749 0.0000
vt 0.7114 0.8659 0.0000
vt 0.7114 0.8511 0.0000
vt 0.7403 0.8511 0.0000
vt 0.7726 0.8511 0.0000
vt 0.7403 0.8323 0.0000
vt 0.7726 0.8323 0.0000
vt 0.7403 0.8233 0.0000
vt 0.7114 0.8233 0.0000
vt 0.7114 0.8323 0.0000
vt 0.7452 0.8798 0.0000
vt 0.7782 0.9410 0.0000
vt 0.7782 0.8798 0.0000
vt 0.7452 0.9410 0.0000
vt 0.9127 0.9410 0.0000
vt 0.8617 0.8798 0.0000
vt 0.9127 0.8798 0.0000
vt 0.8582 0.9410 0.0000
vt 0.8037 0.8798 0.0000
vt 0.8037 0.9410 0.0000
vt 0.7909 0.9410 0.0000
vt 0.7909 0.8798 0.0000
vt 0.7372 0.9410 0.0000
vt 0.7372 0.8798 0.0000
vt 0.7282 0.9410 0.0000
vt 0.7282 0.8798 0.0000
vt 0.7094 0.8798 0.0000
vt 0.7094 0.9265 0.0000
vt 0.6946 0.8798 0.0000
vt 0.6946 0.9121 0.0000
vt 0.8601 0.3304 0.0000
vt 0.8982 0.3304 0.0000
vt 0.9690 0.3304 0.0000
vt 0.9690 0.3683 0.0000
vt 0.9802 0.3304 0.0000
vt 0.9802 0.3683 0.0000
vt 0.9463 0.3683 0.0000
vt 0.9463 0.3304 0.0000
vt 0.9149 0.3683 0.0000
vt 0.9149 0.3304 0.0000
vt 0.8982 0.3683 0.0000
vt 0.8163 0.3304 0.0000
vt 0.8163 0.3683 0.0000
vt 0.8699 0.3082 0.0000
vt 0.9137 0.3082 0.0000
vt 0.8699 0.3310 0.0000
vt 0.9137 0.3310 0.0000
vt 0.9137 0.3623 0.0000
vt 0.8699 0.3623 0.0000
vt 0.8319 0.3310 0.0000
vt 0.8319 0.3623 0.0000
vt 0.8319 0.3082 0.0000
vt 0.9137 0.2970 0.0000
vt 0.8699 0.2970 0.0000
vt 0.8319 0.2970 0.0000
vt 0.9518 0.2970 0.0000
vt 0.9518 0.3082 0.0000
vt 0.9518 0.3310 0.0000
vt 0.9518 0.3623 0.0000
vt 0.9518 0.3790 0.0000
vt 0.9137 0.3790 0.0000
vt 0.8699 0.3790 0.0000
vt 0.8319 0.3790 0.0000
# 94 texture coords

o PiernaizD
g PiernaizD
usemtl peluches_10___Default
s 1
f 1/1/1 2/2/2 3/3/3 
f 2/2/2 4/4/4 3/3/3 
f 3/3/3 4/4/4 5/5/5 
f 4/4/4 6/6/6 5/5/5 
f 5/5/5 6/6/6 7/7/7 
f 6/6/6 8/8/8 7/7/7 
f 9/9/9 8/8/8 6/6/6 
f 4/4/4 9/9/9 6/6/6 
f 10/10/10 9/9/9 4/4/4 
f 2/2/2 10/10/10 4/4/4 
f 11/11/11 10/10/10 2/2/2 
f 2/2/2 12/12/12 11/11/11 
f 13/13/13 12/12/12 2/2/2 
f 1/1/1 13/13/13 2/2/2 
f 14/14/14 13/13/13 1/1/1 
f 15/15/15 14/14/14 1/1/1 
f 16/16/16 14/14/14 15/15/15 
f 17/17/17 16/16/16 15/15/15 
f 14/14/14 12/12/12 13/13/13 
f 18/18/18 15/15/15 19/19/19 
f 17/17/17 15/15/15 18/18/18 
f 20/20/20 17/17/17 18/18/18 
f 20/20/20 21/21/21 17/17/17 
f 21/21/21 16/16/16 17/17/17 
f 22/22/22 16/16/16 21/21/21 
s 3
f 23/23/23 24/24/24 19/25/25 
s 1
f 15/15/15 23/23/23 19/25/25 
f 15/15/15 1/26/26 23/23/23 
f 1/26/26 3/27/27 23/23/23 
s off
f 25/28/28 26/29/29 24/24/24 
s 1
f 27/30/30 28/31/31 29/32/32 
f 30/33/33 29/32/32 28/31/31 
f 31/34/34 30/33/33 28/31/31 
f 30/33/33 31/34/34 32/31/35 
f 32/31/35 31/34/34 33/35/36 
f 33/35/36 8/8/8 32/31/35 
f 7/36/37 8/8/8 33/35/36 
f 34/37/38 7/36/37 33/35/36 
f 5/38/39 7/36/37 34/37/38 
f 35/39/40 5/38/39 34/37/38 
f 3/27/27 5/38/39 35/39/40 
f 23/23/23 3/27/27 35/39/40 
s 3
f 35/39/40 25/28/28 23/23/23 
s 2
f 25/28/28 24/24/24 23/23/23 
s 1
f 24/24/41 25/28/41 36/23/42 
f 24/24/24 36/23/42 37/25/43 
f 36/23/42 38/15/44 37/25/43 
f 39/26/45 38/15/44 36/23/42 
f 32/31/35 8/30/46 29/32/32 
f 29/32/32 30/33/33 32/31/35 
f 25/28/28 40/39/47 36/23/42 
f 25/28/28 41/40/48 40/39/47 
f 41/40/48 25/28/28 35/39/40 
f 34/37/38 41/40/48 35/39/40 
f 42/41/49 41/40/48 34/37/38 
f 33/35/36 42/41/49 34/37/38 
f 31/34/34 42/41/49 33/35/36 
f 42/41/49 31/34/34 43/35/50 
f 31/34/34 28/31/31 43/35/50 
f 27/8/51 43/35/50 28/31/31 
f 27/8/51 44/36/52 43/35/50 
f 44/36/52 45/37/53 43/35/50 
f 44/36/52 46/38/54 45/37/53 
f 46/38/54 40/39/47 45/37/53 
f 46/38/54 47/27/55 40/39/47 
f 47/27/55 36/23/42 40/39/47 
f 47/27/55 39/26/45 36/23/42 
f 41/40/48 45/37/53 40/39/47 
f 41/40/48 42/41/49 45/37/53 
f 42/41/49 43/35/50 45/37/53 
f 48/6/56 46/5/57 44/7/58 
f 27/8/51 48/6/56 44/7/58 
f 27/8/51 49/9/59 48/6/56 
f 49/9/59 50/4/60 48/6/56 
f 49/9/59 51/10/61 50/4/60 
f 51/10/61 52/2/62 50/4/60 
f 51/10/61 53/11/63 52/2/62 
f 54/12/64 52/2/62 53/11/63 
f 54/12/64 55/13/65 52/2/62 
f 55/13/65 39/1/66 52/2/62 
f 55/13/65 56/14/67 39/1/66 
f 56/14/67 38/15/44 39/1/66 
f 56/14/67 57/16/68 38/15/44 
f 57/16/68 58/17/69 38/15/44 
f 54/12/64 56/14/67 55/13/65 
f 48/6/56 50/4/60 46/5/57 
f 50/4/60 47/3/70 46/5/57 
f 50/4/60 52/2/62 47/3/70 
f 52/2/62 39/1/66 47/3/70 
f 38/15/44 59/18/71 37/19/72 
f 38/15/44 58/17/69 59/18/71 
f 58/17/69 60/20/73 59/18/71 
f 61/21/74 60/20/73 58/17/69 
f 57/16/68 61/21/74 58/17/69 
f 57/16/68 62/22/75 61/21/74 
f 54/42/76 63/43/77 56/44/78 
f 54/42/76 64/45/79 63/43/77 
f 65/46/80 21/47/81 20/48/82 
f 66/49/83 21/47/81 65/46/80 
f 66/49/83 22/50/84 21/47/81 
f 67/51/85 22/50/84 66/49/83 
f 22/50/84 67/51/85 68/50/86 
f 68/50/86 67/51/85 69/51/87 
f 69/51/87 70/52/88 68/50/86 
f 70/52/88 69/51/87 71/50/89 
f 70/52/88 71/50/89 72/53/90 
f 62/50/91 72/53/90 71/50/89 
f 62/50/91 57/53/92 72/53/90 
f 57/53/92 73/44/93 72/53/90 
f 57/53/92 56/44/78 73/44/93 
f 56/44/78 74/43/94 73/44/93 
f 56/44/78 63/43/77 74/43/94 
f 63/43/77 14/44/95 74/43/94 
f 63/43/77 12/42/76 14/44/95 
f 64/45/79 12/42/76 63/43/77 
f 67/51/85 71/50/89 69/51/87 
f 67/51/85 62/50/91 71/50/89 
f 62/50/91 67/51/85 66/49/83 
f 62/50/91 66/49/83 61/47/96 
f 61/47/96 66/49/83 65/46/80 
f 61/47/96 65/46/80 60/48/97 
f 68/50/86 70/52/88 75/53/98 
f 75/53/98 22/50/84 68/50/86 
f 16/53/99 22/50/84 75/53/98 
f 76/44/100 16/53/99 75/53/98 
f 14/44/95 16/53/99 76/44/100 
f 74/43/94 14/44/95 76/44/100 
f 74/43/94 76/44/100 70/52/88 
f 73/44/93 74/43/94 70/52/88 
f 73/44/93 70/52/88 72/53/90 
f 70/52/88 76/44/100 75/53/98 
f 77/54/101 12/42/76 64/45/79 
f 54/42/76 77/54/101 64/45/79 
f 54/42/76 53/55/101 77/54/101 
f 53/55/101 78/56/101 77/54/101 
f 51/57/101 78/56/101 53/55/101 
f 51/57/101 49/58/102 78/56/101 
f 49/58/102 79/59/103 78/56/101 
f 49/58/102 27/60/104 79/59/103 
f 27/60/104 29/61/105 79/59/103 
f 29/61/105 8/60/106 79/59/103 
f 8/60/106 9/58/107 79/59/103 
f 79/59/103 9/58/107 78/56/101 
f 9/58/107 10/57/101 78/56/101 
f 78/56/101 10/57/101 11/55/101 
f 78/56/101 11/55/101 77/54/101 
f 11/55/101 12/42/76 77/54/101 
f 80/62/108 81/62/109 82/63/110 
f 83/64/111 84/65/112 85/66/113 
f 85/66/113 84/65/112 86/67/114 
f 84/65/112 87/66/115 86/67/114 
f 87/66/115 84/65/112 88/64/116 
f 88/64/116 84/65/112 89/68/117 
f 88/64/116 89/68/117 90/69/118 
f 90/69/118 89/68/117 91/70/119 
f 90/69/118 91/70/119 92/71/120 
f 92/71/120 91/70/119 93/72/121 
f 92/71/120 93/72/121 82/63/110 
f 82/63/110 93/72/121 94/63/122 
f 82/63/110 94/63/122 80/62/108 
f 80/62/108 94/63/122 95/62/123 
f 83/64/111 89/68/117 84/65/112 
f 96/69/124 89/68/117 83/64/111 
f 96/69/124 91/70/119 89/68/117 
f 97/71/125 91/70/119 96/69/124 
f 97/71/125 93/72/121 91/70/119 
f 98/63/126 93/72/121 97/71/125 
f 99/62/127 100/73/128 101/62/129 
f 100/73/128 102/73/130 101/62/129 
f 101/62/129 102/73/130 95/62/123 
f 103/73/131 95/62/123 102/73/130 
f 80/62/108 95/62/123 103/73/131 
f 103/73/131 104/73/132 80/62/108 
f 80/62/108 104/73/132 81/62/109 
f 104/73/132 105/73/133 81/62/109 
f 104/73/132 106/74/134 105/73/133 
f 106/74/134 107/74/135 105/73/133 
f 106/74/134 108/73/136 107/74/135 
f 109/73/137 108/73/136 106/74/134 
f 109/73/137 110/62/138 108/73/136 
f 111/62/139 110/62/138 109/73/137 
f 111/62/139 98/63/126 110/62/138 
f 112/63/140 98/63/126 111/62/139 
f 112/63/140 93/72/121 98/63/126 
f 113/72/141 93/72/121 112/63/140 
f 114/62/142 112/63/140 111/62/139 
f 114/62/142 111/62/139 115/73/143 
f 115/73/143 111/62/139 109/73/137 
f 115/73/143 109/73/137 116/74/144 
f 116/74/144 109/73/137 106/74/134 
f 116/74/144 106/74/134 104/73/132 
f 103/73/131 116/74/144 104/73/132 
f 117/74/145 116/74/144 103/73/131 
f 103/73/131 102/73/130 117/74/145 
f 117/74/145 102/73/130 118/74/146 
f 100/73/128 118/74/146 102/73/130 
f 119/73/147 118/74/146 100/73/128 
f 119/73/147 100/73/128 99/62/127 
f 99/62/127 120/62/148 119/73/147 
f 99/62/127 121/63/149 120/62/148 
f 122/63/150 120/62/148 121/63/149 
f 122/63/150 121/63/149 123/72/151 
f 123/72/151 124/72/152 122/63/150 
f 125/62/153 120/62/148 122/63/150 
f 125/62/153 119/73/147 120/62/148 
f 126/73/154 119/73/147 125/62/153 
f 126/73/154 118/74/146 119/73/147 
f 117/74/145 118/74/146 126/73/154 
f 122/63/150 124/72/152 127/63/155 
f 122/63/150 127/63/155 125/62/153 
f 125/62/153 127/63/155 114/62/142 
f 125/62/153 114/62/142 126/73/154 
f 126/73/154 114/62/142 115/73/143 
f 126/73/154 115/73/143 117/74/145 
f 117/74/145 115/73/143 116/74/144 
f 113/72/141 94/63/122 93/72/121 
f 128/63/156 94/63/122 113/72/141 
f 128/63/156 95/62/123 94/63/122 
f 101/62/129 95/62/123 128/63/156 
f 129/63/157 101/62/129 128/63/156 
f 99/62/127 101/62/129 129/63/157 
f 130/63/158 99/62/127 129/63/157 
f 130/63/158 121/63/149 99/62/127 
f 130/63/158 131/72/159 121/63/149 
f 123/72/151 121/63/149 131/72/159 
f 123/72/151 131/72/159 130/63/158 
f 130/63/158 129/63/157 123/72/151 
f 123/72/151 129/63/157 124/72/152 
f 129/63/157 128/63/156 124/72/152 
f 124/72/152 128/63/156 113/72/141 
f 124/72/152 113/72/141 127/63/155 
f 127/63/155 113/72/141 112/63/140 
f 127/63/155 112/63/140 114/62/142 
f 132/75/160 133/76/161 134/77/162 
f 134/77/162 133/76/161 135/78/163 
f 134/77/162 135/78/163 136/79/164 
f 136/79/164 137/80/165 134/77/162 
f 134/77/162 137/80/165 138/81/166 
f 137/80/165 139/82/167 138/81/166 
f 138/81/166 139/82/167 140/80/168 
f 138/81/166 140/80/168 141/77/169 
f 141/77/169 140/80/168 142/79/170 
f 141/77/169 142/79/170 143/78/171 
f 143/78/171 144/76/172 141/77/169 
f 141/77/169 144/76/172 145/75/173 
f 141/77/169 145/75/173 138/81/166 
f 138/81/166 145/75/173 146/83/174 
f 138/81/166 146/83/174 132/75/160 
f 134/77/162 138/81/166 132/75/160 
f 133/76/161 132/75/160 147/84/175 
f 132/75/160 148/85/176 147/84/175 
f 132/75/160 146/83/174 148/85/176 
f 146/83/174 149/86/177 148/85/176 
f 146/83/174 150/85/178 149/86/177 
f 145/75/173 150/85/178 146/83/174 
f 145/75/173 151/84/179 150/85/178 
f 144/76/172 151/84/179 145/75/173 
f 144/76/172 85/87/180 151/84/179 
f 83/88/181 85/87/180 144/76/172 
f 143/78/171 83/88/181 144/76/172 
f 96/89/182 83/88/181 143/78/171 
f 143/78/171 97/90/183 96/89/182 
f 143/78/171 142/79/170 97/90/183 
f 142/79/170 98/91/184 97/90/183 
f 142/79/170 110/92/185 98/91/184 
f 140/80/168 110/92/185 142/79/170 
f 140/80/168 108/93/186 110/92/185 
f 139/82/167 108/93/186 140/80/168 
f 139/82/167 107/94/187 108/93/186 
f 105/93/188 107/94/187 139/82/167 
f 137/80/165 105/93/188 139/82/167 
f 81/92/189 105/93/188 137/80/165 
f 136/79/164 81/92/189 137/80/165 
f 82/91/190 81/92/189 136/79/164 
f 82/91/190 136/79/164 92/90/191 
f 92/90/191 136/79/164 135/78/163 
f 92/90/191 135/78/163 90/89/192 
f 90/89/192 135/78/163 133/76/161 
f 90/89/192 133/76/161 88/88/193 
f 88/88/193 133/76/161 147/84/175 
f 88/88/193 147/84/175 87/87/194 
# 0 polygons - 281 triangles

