# 3ds Max Wavefront OBJ Exporter v0.99 - (c)2007 guruware
# File Created: 09.05.2025 00:33:22

mtllib PiernaDer_Doctor.mtl

#
# object PiernaDD
#

v  -3.6120 -0.2255 10.6924
v  -3.6845 -0.2453 10.6829
v  -3.6103 -0.2249 10.6926
v  -3.6873 -0.2515 10.7072
v  -3.5995 -0.2320 10.7320
v  -3.7473 -0.2533 10.7205
v  -3.6887 -0.2644 10.7177
v  -3.6046 -0.2543 10.7362
v  -3.8919 -0.2807 10.6295
v  -3.8689 -0.3005 10.6142
v  -3.9038 -0.3036 10.6539
v  -3.9097 -0.2808 10.6532
v  -3.8743 -0.2409 10.6578
v  -3.8987 -0.2807 10.6806
v  -3.8698 -0.2487 10.6864
v  -3.8804 -0.3005 10.7014
v  -3.8578 -0.2654 10.7108
v  -3.8076 -0.2311 10.6948
v  -3.8054 -0.2544 10.7178
v  -3.7446 -0.2342 10.7000
v  -3.6809 -0.2515 10.6587
v  -3.5896 -0.2320 10.6575
v  -3.5935 -0.2543 10.6521
v  -3.6795 -0.2644 10.6481
v  -3.7355 -0.2533 10.6303
v  -3.7381 -0.2342 10.6507
v  -3.7922 -0.2544 10.6179
v  -3.7417 -0.2270 10.6753
v  -3.8003 -0.2311 10.6394
v  -3.8448 -0.2654 10.6110
v  -3.8069 -0.2226 10.6667
v  -3.8625 -0.2487 10.6314
v  -3.8361 -0.2813 10.6055
v  -3.8314 -0.3041 10.6040
v  -3.7870 -0.2813 10.6081
v  -3.7868 -0.3041 10.6070
v  -3.7342 -0.2823 10.6210
v  -3.7342 -0.3041 10.6206
v  -3.6784 -0.3041 10.6396
v  -3.6785 -0.2830 10.6405
v  -3.6004 -0.2821 10.6483
v  -3.5518 -0.2821 10.6456
v  -3.5538 -0.2531 10.6484
v  -3.5564 -0.2340 10.6527
v  -3.5278 -0.2315 10.6656
v  -3.5155 -0.2533 10.6636
v  -3.5074 -0.2821 10.6606
v  -3.8510 -0.2813 10.7183
v  -3.8029 -0.2813 10.7285
v  -3.7485 -0.2823 10.7297
v  -3.8468 -0.3041 10.7210
v  -3.8029 -0.3041 10.7297
v  -3.7486 -0.3041 10.7301
v  -3.6899 -0.3041 10.7263
v  -3.6898 -0.2830 10.7253
v  -3.6123 -0.2821 10.7381
v  -3.5659 -0.2821 10.7532
v  -3.5671 -0.2531 10.7500
v  -3.5686 -0.2340 10.7451
v  -3.5377 -0.2315 10.7400
v  -3.5262 -0.2533 10.7453
v  -3.5192 -0.2821 10.7503
v  -3.6842 -0.3041 10.6829
v  -3.6067 -0.2821 10.6931
v  -3.5141 -0.2282 10.7053
v  -3.4991 -0.2552 10.7073
v  -3.4915 -0.2821 10.7083
v  -3.5162 -0.3029 10.7507
v  -3.4884 -0.3029 10.7087
v  -3.5589 -0.3029 10.6994
v  -3.5044 -0.3029 10.6609
v  -3.5518 -0.3029 10.6456
v  -3.6004 -0.3029 10.6483
v  -3.6065 -0.3028 10.6932
v  -3.5660 -0.3029 10.7533
v  -3.6123 -0.3029 10.7381
v  -3.7412 -0.3041 10.6754
v  -3.7948 -0.3041 10.6683
v  -3.8394 -0.3041 10.6624
v  -3.5419 -0.1198 10.6722
v  -3.5760 -0.0232 10.6966
v  -3.5344 -0.1177 10.7021
v  -3.5815 -0.0262 10.6757
v  -3.5813 -0.1293 10.6596
v  -3.6203 -0.0387 10.6647
v  -3.6209 -0.1342 10.6618
v  -3.6451 -0.0454 10.6674
v  -3.6389 -0.1342 10.6883
v  -3.6578 -0.0490 10.6858
v  -3.6502 -0.0454 10.7070
v  -3.5907 -0.1293 10.7310
v  -3.6210 -0.2375 10.7345
v  -3.5729 -0.2464 10.7510
v  -3.5519 -0.1198 10.7287
v  -3.5214 -0.2446 10.7477
v  -3.5867 -0.0262 10.7153
v  -3.6274 0.0406 10.6898
v  -3.6340 0.0381 10.6751
v  -3.6551 0.0306 10.6667
v  -3.6784 0.0242 10.6693
v  -3.6893 0.0214 10.6817
v  -3.6820 0.0242 10.6964
v  -3.6602 0.0306 10.7049
v  -3.6375 0.0381 10.7023
v  -3.6270 -0.0387 10.7159
v  -3.6402 0.0563 10.6881
v  -3.6487 0.0563 10.6726
v  -3.6702 0.0563 10.6633
v  -3.6982 0.0563 10.6661
v  -3.7109 0.0563 10.6788
v  -3.7019 0.0563 10.6944
v  -3.6755 0.0563 10.7044
v  -3.6524 0.0563 10.7009
v  -3.5762 0.2659 10.6664
v  -3.5785 0.2352 10.6943
v  -3.5889 0.2391 10.6686
v  -3.5645 0.2618 10.6948
v  -3.5837 0.2659 10.7233
v  -3.5954 0.2391 10.7192
v  -3.6041 0.1801 10.6929
v  -3.6178 0.1837 10.7120
v  -3.6304 0.1096 10.6895
v  -3.6438 0.1109 10.7035
v  -3.6284 -0.1342 10.7186
v  -3.6379 -0.2312 10.6884
v  -3.6387 0.1109 10.6725
v  -3.6124 0.1837 10.6708
v  -3.6096 -0.2375 10.6483
v  -3.5589 -0.2464 10.6448
v  -3.5100 -0.2446 10.6615
v  -3.4947 -0.2427 10.7074
v  -3.6699 0.1969 10.7053
v  -3.6273 0.2504 10.7221
v  -3.6583 0.2644 10.7109
v  -3.6444 0.1897 10.7148
v  -3.6650 0.1135 10.7074
v  -3.6861 0.1170 10.6980
v  -3.6788 0.2005 10.6831
v  -3.6972 0.1182 10.6806
v  -3.6842 0.1170 10.6664
v  -3.6640 0.1969 10.6640
v  -3.6591 0.1135 10.6630
v  -3.6374 0.1897 10.6613
v  -3.6180 0.2525 10.6600
v  -3.6490 0.2644 10.6651
v  -3.6622 0.2696 10.6852
v  -3.6214 0.2740 10.7260
v  -3.6549 0.2979 10.7139
v  -3.6536 0.3041 10.6860
v  -3.6418 0.2979 10.6645
v  -3.6084 0.2833 10.6580
# 151 vertices

vn -0.6086 0.0000 -0.7934
vn 0.1416 0.9899 -0.0018
vn -0.1950 0.9676 0.1603
vn 0.3643 0.8297 0.4229
vn 0.2421 0.6518 0.7187
vn 0.5206 0.7191 0.4604
vn 0.5149 0.6344 0.5765
vn 0.4389 0.2010 0.8758
vn -0.9804 0.1910 -0.0482
vn -0.9462 -0.3208 0.0417
vn -0.7554 -0.3059 0.5795
vn -0.7765 0.2058 0.5956
vn -0.4276 0.8423 0.3280
vn -0.2075 0.1910 0.9594
vn -0.0287 0.6949 0.7185
vn 0.1308 0.2251 0.9655
vn 0.0978 0.5566 0.8250
vn 0.2530 0.8541 0.4545
vn 0.4083 0.6948 0.5921
vn 0.4174 0.8638 0.2821
vn -0.3499 0.9360 -0.0378
vn -0.3140 0.8297 -0.4614
vn -0.6314 0.6518 -0.4201
vn -0.7321 0.2010 -0.6509
vn -0.4234 0.6344 -0.6467
vn -0.2855 -0.3208 0.9031
vn -0.3097 0.7191 -0.6221
vn -0.1643 0.8638 -0.4762
vn -0.4661 0.6948 -0.5477
vn 0.1421 0.9838 -0.1090
vn -0.3734 0.8541 -0.3621
vn -0.7715 0.5566 -0.3082
vn -0.0867 0.9940 0.0665
vn -0.7014 0.6949 -0.1585
vn -0.8987 0.2251 -0.3765
vn -0.5691 0.3584 -0.7400
vn -0.7709 0.1727 -0.6131
vn -0.7687 0.2622 -0.5834
vn -0.7585 0.0432 -0.6502
vn -0.5827 0.2023 -0.7871
vn -0.5880 0.0448 -0.8076
vn -0.4636 0.1680 -0.8700
vn -0.4753 0.0163 -0.8797
vn -0.5282 0.0419 -0.8481
vn -0.5236 0.2185 -0.8235
vn -0.5062 0.3460 -0.7899
vn -0.6946 0.1480 -0.7040
vn -0.5906 0.1327 -0.7960
vn -0.5860 0.1750 -0.7912
vn -0.4435 0.3129 -0.8399
vn -0.5881 0.2448 -0.7709
vn -0.7634 0.2550 -0.5935
vn -0.3747 0.2743 -0.8856
vn -0.4063 0.2096 -0.8894
vn -0.4363 0.1879 -0.8799
vn 0.3924 0.1727 0.9034
vn 0.6092 0.2023 0.7668
vn 0.5673 0.3584 0.7414
vn 0.6963 0.3129 0.6459
vn 0.7201 0.1680 0.6732
vn 0.6318 0.3460 0.6936
vn 0.3643 0.2622 0.8936
vn 0.4315 0.0432 0.9011
vn 0.6277 0.0448 0.7772
vn 0.7265 0.0163 0.6870
vn 0.6823 0.0419 0.7299
vn 0.6597 0.2185 0.7191
vn 0.5000 0.1480 0.8533
vn 0.6158 0.1327 0.7767
vn 0.6123 0.1750 0.7710
vn 0.5921 0.2448 0.7678
vn 0.3754 0.2550 0.8911
vn 0.7583 0.2743 0.5914
vn 0.7537 0.2096 0.6229
vn 0.7368 0.1879 0.6494
vn 0.1083 -0.9906 -0.0831
vn 0.1027 -0.9916 -0.0787
vn -0.4743 -0.8016 0.3639
vn -0.8054 -0.5772 -0.1351
vn 0.9092 0.3868 -0.1544
vn 0.6849 0.5049 -0.5254
vn 0.8634 0.4884 -0.1266
vn 0.7349 0.3771 -0.5637
vn 0.9792 0.1535 0.1325
vn 0.7762 0.2071 -0.5955
vn 0.7904 -0.5829 0.1884
vn 0.6552 -0.5639 -0.5026
vn -0.0002 -1.0000 0.0002
vn 0.0228 -0.5829 -0.8122
vn -0.4521 -0.6670 -0.5922
vn 0.1257 0.1535 -0.9801
vn -0.6053 -0.0000 -0.7960
vn -0.8083 -0.5879 -0.0306
vn -0.5593 -0.7094 0.4290
vn -0.0783 -0.5772 0.8128
vn 0.3847 0.3868 -0.8381
vn 0.3460 0.4884 -0.8011
vn 0.4549 -0.6670 0.5901
vn 0.6120 -0.0000 0.7909
vn -0.1799 -0.5879 0.7887
vn -0.0000 -1.0000 0.0000
vn -0.0330 -0.9991 0.0250
vn -0.0188 -0.9997 0.0144
vn -0.0654 -0.9979 0.0027
vn -0.0056 -1.0000 0.0043
vn -0.0195 -0.9979 0.0625
vn -0.0327 -0.9991 0.0254
vn -0.0000 -1.0000 -0.0000
vn 0.0128 0.2753 -0.9613
vn 0.6813 0.5173 -0.5180
vn 0.7620 0.3489 -0.5456
vn -0.0505 0.3780 -0.9244
vn -0.6177 0.1251 -0.7764
vn -0.6540 0.0880 -0.7514
vn -0.9609 -0.0048 -0.2768
vn -0.9479 -0.1358 -0.2881
vn -0.7883 -0.1133 0.6047
vn -0.7558 -0.3046 0.5797
vn 0.0326 -0.1358 0.9902
vn 0.5932 0.1255 0.7952
vn -0.0144 -0.5497 0.8352
vn 0.4460 -0.6362 0.6296
vn 0.9234 0.2715 0.2712
vn 0.8376 -0.5144 0.1840
vn 0.8834 0.3730 0.2837
vn 0.6040 0.6485 -0.4633
vn -0.1208 0.3942 -0.9111
vn -0.6048 0.0359 -0.7955
vn -0.9021 -0.2611 -0.3435
vn -0.6966 -0.4789 0.5343
vn 0.0980 -0.2612 0.9603
vn 0.6116 0.0359 0.7903
vn 0.8487 0.3942 0.3527
vn 0.5562 0.0880 0.8264
vn 0.7608 0.2904 -0.5803
vn -0.0425 0.1491 -0.9879
vn -0.6476 -0.0739 -0.7584
vn -0.9007 -0.3633 -0.2381
vn -0.6731 -0.5294 0.5163
vn -0.0035 -0.3633 0.9317
vn 0.5647 -0.0739 0.8220
vn 0.9429 0.1533 0.2958
vn 0.2986 -0.4187 -0.8576
vn 0.6970 -0.4446 -0.5627
vn 0.3095 -0.3979 -0.8637
vn 0.6769 -0.4636 -0.5717
vn 0.9084 -0.3992 -0.1247
vn 0.9161 -0.3827 -0.1193
vn 0.7321 -0.3887 -0.5593
vn 0.9362 -0.3386 -0.0946
vn 0.7722 -0.2880 -0.5664
vn 0.9730 -0.2308 -0.0060
vn 0.0183 -0.0048 0.9998
vn -0.6844 -0.5060 0.5250
vn 0.2963 -0.2330 -0.9262
vn 0.3361 -0.3427 -0.8773
vn -0.8104 -0.5497 -0.2025
vn -0.4929 -0.6368 -0.5929
vn 0.0403 -0.5158 -0.8557
vn 0.7052 -0.4583 -0.5410
vn 0.0228 0.0710 0.9972
vn 0.5796 -0.1016 0.8086
vn -0.0704 0.0603 0.9957
vn 0.5976 -0.0735 0.7984
vn 0.6069 -0.0467 0.7934
vn 0.0793 0.0987 0.9920
vn -0.7870 0.1915 0.5865
vn -0.7488 0.2210 0.6248
vn -0.9481 0.1017 -0.3013
vn -0.9513 0.1018 -0.2910
vn -0.6046 -0.0467 -0.7952
vn -0.6238 -0.0682 -0.7786
vn -0.6812 -0.0545 -0.7301
vn -0.9657 0.1122 -0.2342
vn -0.8327 0.2044 0.5146
vn 0.5573 -0.1110 0.8228
vn -0.2760 0.1078 0.9551
vn -0.8501 0.2431 0.4671
vn -0.9789 0.1302 -0.1572
vn -0.7131 -0.0533 -0.6991
vn -0.5451 -0.1488 -0.8250
vn -0.5150 -0.1434 -0.8451
vn -0.4350 -0.1561 -0.8868
vn -0.3628 -0.1090 -0.9255
vn -0.3619 -0.0801 -0.9288
vn -0.6170 -0.0214 -0.7867
vn -0.9492 0.1169 -0.2922
vn -0.7745 0.2173 0.5941
vn 0.0391 0.1233 0.9916
vn 0.5978 -0.0168 0.8015
vn 0.8052 -0.0793 0.5877
vn 0.8075 -0.1089 0.5797
vn 0.7447 -0.1407 0.6524
vn 0.7244 -0.1567 0.6713
vn 0.7237 -0.1668 0.6697
# 195 vertex normals

vt 0.7121 0.7830 0.0000
vt 0.7121 0.8153 0.0000
vt 0.7114 0.7823 0.0000
vt 0.7403 0.8153 0.0000
vt 0.7726 0.7823 0.0000
vt 0.7726 0.8233 0.0000
vt 0.7726 0.8153 0.0000
vt 0.8561 0.9073 0.0000
vt 0.7403 0.8659 0.0000
vt 0.7726 0.9749 0.0000
vt 0.7403 0.9749 0.0000
vt 0.7114 0.8659 0.0000
vt 0.7114 0.8511 0.0000
vt 0.7403 0.8511 0.0000
vt 0.7726 0.8659 0.0000
vt 0.7726 0.8511 0.0000
vt 0.7403 0.8323 0.0000
vt 0.7726 0.8323 0.0000
vt 0.7403 0.8233 0.0000
vt 0.7114 0.8233 0.0000
vt 0.7114 0.8323 0.0000
vt 0.8062 0.8659 0.0000
vt 0.7874 0.9170 0.0000
vt 0.7874 0.8659 0.0000
vt 0.7874 0.9749 0.0000
vt 0.8062 0.9315 0.0000
vt 0.8062 0.9749 0.0000
vt 0.8152 0.9323 0.0000
vt 0.8152 0.9749 0.0000
vt 0.8232 0.9749 0.0000
vt 0.8232 0.9204 0.0000
vt 0.8232 0.8659 0.0000
vt 0.8561 0.9749 0.0000
vt 0.8689 0.9749 0.0000
vt 0.8689 0.9095 0.0000
vt 0.8152 0.8659 0.0000
vt 0.8689 0.8659 0.0000
vt 0.8561 0.8659 0.0000
vt 0.8816 0.8659 0.0000
vt 0.8816 0.9168 0.0000
vt 0.8816 0.9749 0.0000
vt 0.7452 0.9410 0.0000
vt 0.7452 0.8798 0.0000
vt 0.7782 0.9410 0.0000
vt 0.7782 0.8798 0.0000
vt 0.8617 0.8798 0.0000
vt 0.9127 0.9410 0.0000
vt 0.9127 0.8798 0.0000
vt 0.8582 0.9410 0.0000
vt 0.8037 0.8798 0.0000
vt 0.8037 0.9410 0.0000
vt 0.7909 0.9410 0.0000
vt 0.7909 0.8798 0.0000
vt 0.7372 0.9410 0.0000
vt 0.7372 0.8798 0.0000
vt 0.7282 0.9410 0.0000
vt 0.7282 0.8798 0.0000
vt 0.7094 0.8798 0.0000
vt 0.7094 0.9265 0.0000
vt 0.6946 0.8798 0.0000
vt 0.6946 0.9121 0.0000
vt 0.8982 0.3304 0.0000
vt 0.8982 0.3683 0.0000
vt 0.8601 0.3304 0.0000
vt 0.8163 0.3304 0.0000
vt 0.8163 0.3683 0.0000
vt 0.9802 0.3304 0.0000
vt 0.9690 0.3683 0.0000
vt 0.9690 0.3304 0.0000
vt 0.9802 0.3683 0.0000
vt 0.9463 0.3683 0.0000
vt 0.9463 0.3304 0.0000
vt 0.9149 0.3683 0.0000
vt 0.9149 0.3304 0.0000
vt 0.8699 0.3310 0.0000
vt 0.9137 0.3082 0.0000
vt 0.8699 0.3082 0.0000
vt 0.9137 0.3310 0.0000
vt 0.9137 0.3623 0.0000
vt 0.8699 0.3623 0.0000
vt 0.8319 0.3310 0.0000
vt 0.8319 0.3623 0.0000
vt 0.8319 0.3082 0.0000
vt 0.9137 0.2970 0.0000
vt 0.8699 0.2970 0.0000
vt 0.8319 0.2970 0.0000
vt 0.9518 0.2970 0.0000
vt 0.9518 0.3082 0.0000
vt 0.9518 0.3310 0.0000
vt 0.9518 0.3623 0.0000
vt 0.9518 0.3790 0.0000
vt 0.9137 0.3790 0.0000
vt 0.8699 0.3790 0.0000
vt 0.8319 0.3790 0.0000
# 94 texture coords

o PiernaDD
g PiernaDD
usemtl peluches_10___Default
s off
f 1/1/1 2/2/2 3/3/3 
s 3
f 3/3/3 4/4/4 5/5/5 
s 1
f 6/6/6 7/7/7 4/4/4 
f 7/7/7 8/8/8 4/4/4 
f 4/4/4 8/8/8 5/5/5 
f 9/9/9 10/10/10 11/11/11 
f 11/11/11 12/12/12 9/9/9 
f 12/12/12 13/13/13 9/9/9 
f 13/13/13 12/12/12 14/9/14 
f 13/13/13 14/9/14 15/14/15 
f 16/15/16 15/14/15 14/9/14 
f 16/15/16 17/16/17 15/14/15 
f 17/16/17 18/17/18 15/14/15 
f 17/16/17 19/18/19 18/17/18 
f 19/18/19 20/19/20 18/17/18 
f 19/18/19 6/6/6 20/19/20 
f 6/6/6 4/4/4 20/19/20 
s 3
f 2/2/2 20/19/20 4/4/4 
s 2
f 3/3/3 2/2/2 4/4/4 
s 1
f 2/2/21 3/3/21 21/4/22 
f 21/4/22 3/3/3 22/5/23 
f 23/8/24 21/4/22 22/5/23 
f 23/8/24 24/7/25 21/4/22 
f 12/12/12 11/11/11 14/9/14 
f 16/10/26 14/9/14 11/11/11 
f 24/7/25 25/6/27 21/4/22 
f 26/19/28 2/2/2 21/4/22 
f 21/4/22 25/6/27 26/19/28 
f 25/6/27 27/18/29 26/19/28 
f 2/2/2 28/20/30 20/19/20 
f 28/20/30 2/2/2 26/19/28 
f 29/17/31 28/20/30 26/19/28 
f 26/19/28 27/18/29 29/17/31 
f 27/18/29 30/16/32 29/17/31 
f 28/20/30 18/17/18 20/19/20 
f 28/20/30 31/21/33 18/17/18 
f 31/21/33 28/20/30 29/17/31 
f 32/14/34 31/21/33 29/17/31 
f 29/17/31 30/16/32 32/14/34 
f 30/16/32 10/15/35 32/14/34 
f 32/14/34 10/15/35 9/9/9 
f 9/9/9 13/13/13 32/14/34 
f 13/13/13 31/21/33 32/14/34 
f 31/21/33 13/13/13 15/14/15 
f 31/21/33 15/14/15 18/17/18 
f 27/22/36 33/23/37 30/24/38 
f 33/23/37 10/15/35 30/24/38 
f 34/25/39 10/15/35 33/23/37 
f 35/26/40 34/25/39 33/23/37 
f 36/27/41 34/25/39 35/26/40 
f 37/28/42 36/27/41 35/26/40 
f 38/29/43 36/27/41 37/28/42 
f 37/28/42 39/30/44 38/29/43 
f 40/31/45 39/30/44 37/28/42 
f 24/32/46 40/31/45 37/28/42 
f 41/33/47 40/31/45 24/32/46 
f 23/8/24 41/33/47 24/32/46 
f 42/34/48 41/33/47 23/8/24 
f 43/35/49 42/34/48 23/8/24 
f 41/33/47 39/30/44 40/31/45 
f 24/32/46 37/28/42 25/36/50 
f 37/28/42 35/26/40 25/36/50 
f 25/36/50 35/26/40 27/22/36 
f 35/26/40 33/23/37 27/22/36 
f 44/37/51 23/8/24 22/38/52 
f 43/35/49 23/8/24 44/37/51 
f 45/39/53 43/35/49 44/37/51 
f 45/39/53 46/40/54 43/35/49 
f 46/40/54 42/34/48 43/35/49 
f 47/41/55 42/34/48 46/40/54 
f 48/23/56 49/26/57 19/22/58 
f 49/26/57 6/36/59 19/22/58 
f 49/26/57 50/28/60 6/36/59 
f 50/28/60 7/32/61 6/36/59 
f 48/23/56 19/22/58 17/24/62 
f 16/15/16 48/23/56 17/24/62 
f 16/15/16 51/25/63 48/23/56 
f 51/25/63 49/26/57 48/23/56 
f 51/25/63 52/27/64 49/26/57 
f 52/27/64 50/28/60 49/26/57 
f 52/27/64 53/29/65 50/28/60 
f 54/30/66 50/28/60 53/29/65 
f 54/30/66 55/31/67 50/28/60 
f 55/31/67 7/32/61 50/28/60 
f 55/31/67 56/33/68 7/32/61 
f 56/33/68 8/8/8 7/32/61 
f 56/33/68 57/34/69 8/8/8 
f 57/34/69 58/35/70 8/8/8 
f 54/30/66 56/33/68 55/31/67 
f 8/8/8 59/37/71 5/38/72 
f 8/8/8 58/35/70 59/37/71 
f 58/35/70 60/39/73 59/37/71 
f 61/40/74 60/39/73 58/35/70 
f 57/34/69 61/40/74 58/35/70 
f 57/34/69 62/41/75 61/40/74 
f 63/42/76 39/43/77 64/44/78 
f 64/44/78 39/43/77 41/45/79 
f 61/46/80 65/47/81 60/48/82 
f 61/46/80 66/49/83 65/47/81 
f 62/50/84 66/49/83 61/46/80 
f 62/50/84 67/51/85 66/49/83 
f 67/51/85 62/50/84 68/50/86 
f 67/51/85 68/50/86 69/51/87 
f 70/52/88 69/51/87 68/50/86 
f 69/51/87 70/52/88 71/50/89 
f 71/50/89 70/52/88 72/53/90 
f 72/53/90 47/50/91 71/50/89 
f 42/53/92 47/50/91 72/53/90 
f 73/45/93 42/53/92 72/53/90 
f 41/45/79 42/53/92 73/45/93 
f 74/44/94 41/45/79 73/45/93 
f 64/44/78 41/45/79 74/44/94 
f 56/45/95 64/44/78 74/44/94 
f 54/43/77 64/44/78 56/45/95 
f 54/43/77 63/42/76 64/44/78 
f 71/50/89 67/51/85 69/51/87 
f 47/50/91 67/51/85 71/50/89 
f 67/51/85 47/50/91 66/49/83 
f 66/49/83 47/50/91 46/46/96 
f 66/49/83 46/46/96 65/47/81 
f 65/47/81 46/46/96 45/48/97 
f 70/52/88 68/50/86 75/53/98 
f 62/50/84 75/53/98 68/50/86 
f 62/50/84 57/53/99 75/53/98 
f 57/53/99 76/45/100 75/53/98 
f 57/53/99 56/45/95 76/45/100 
f 56/45/95 74/44/94 76/45/100 
f 76/45/100 74/44/94 70/52/88 
f 74/44/94 73/45/93 70/52/88 
f 70/52/88 73/45/93 72/53/90 
f 76/45/100 70/52/88 75/53/98 
f 54/43/77 77/54/101 63/42/76 
f 77/54/101 39/43/77 63/42/76 
f 38/55/101 39/43/77 77/54/101 
f 78/56/101 38/55/101 77/54/101 
f 78/56/101 36/57/101 38/55/101 
f 34/58/102 36/57/101 78/56/101 
f 79/59/103 34/58/102 78/56/101 
f 10/60/104 34/58/102 79/59/103 
f 11/61/105 10/60/104 79/59/103 
f 16/60/106 11/61/105 79/59/103 
f 51/58/107 16/60/106 79/59/103 
f 51/58/107 79/59/103 78/56/101 
f 52/57/108 51/58/107 78/56/101 
f 52/57/108 78/56/101 53/55/101 
f 53/55/101 78/56/101 77/54/101 
f 54/43/77 53/55/101 77/54/101 
f 80/62/109 81/63/110 82/63/111 
f 83/62/112 81/63/110 80/62/109 
f 84/64/113 83/62/112 80/62/109 
f 85/64/114 83/62/112 84/64/113 
f 86/65/115 85/64/114 84/64/113 
f 87/65/116 85/64/114 86/65/115 
f 88/66/117 87/65/116 86/65/115 
f 89/66/118 87/65/116 88/66/117 
f 90/65/119 89/66/118 88/66/117 
f 91/64/120 92/65/121 93/64/122 
f 94/62/123 91/64/120 93/64/122 
f 94/62/123 93/64/122 95/62/124 
f 82/63/111 94/62/123 95/62/124 
f 81/63/110 94/62/123 82/63/111 
f 81/63/110 96/62/125 94/62/123 
f 97/63/126 96/62/125 81/63/110 
f 83/62/112 97/63/126 81/63/110 
f 98/62/127 97/63/126 83/62/112 
f 85/64/114 98/62/127 83/62/112 
f 99/64/128 98/62/127 85/64/114 
f 87/65/116 99/64/128 85/64/114 
f 100/65/129 99/64/128 87/65/116 
f 89/66/118 100/65/129 87/65/116 
f 101/66/130 100/65/129 89/66/118 
f 102/65/131 101/66/130 89/66/118 
f 102/65/131 89/66/118 90/65/119 
f 103/64/132 102/65/131 90/65/119 
f 96/62/125 91/64/120 94/62/123 
f 104/62/133 105/64/134 96/62/125 
f 97/63/126 104/62/133 96/62/125 
f 106/63/135 104/62/133 97/63/126 
f 98/62/127 106/63/135 97/63/126 
f 107/62/136 106/63/135 98/62/127 
f 99/64/128 107/62/136 98/62/127 
f 108/64/137 107/62/136 99/64/128 
f 100/65/129 108/64/137 99/64/128 
f 109/65/138 108/64/137 100/65/129 
f 101/66/130 109/65/138 100/65/129 
f 110/66/139 109/65/138 101/66/130 
f 111/65/140 110/66/139 101/66/130 
f 111/65/140 101/66/130 102/65/131 
f 112/64/141 111/65/140 102/65/131 
f 112/64/141 102/65/131 103/64/132 
f 113/62/142 112/64/141 103/64/132 
f 114/67/143 115/68/144 116/69/145 
f 117/70/146 115/68/144 114/67/143 
f 117/70/146 118/67/147 115/68/144 
f 119/69/148 115/68/144 118/67/147 
f 120/71/149 115/68/144 119/69/148 
f 121/72/150 120/71/149 119/69/148 
f 122/73/151 120/71/149 121/72/150 
f 123/74/152 122/73/151 121/72/150 
f 106/63/135 122/73/151 123/74/152 
f 113/62/142 106/63/135 123/74/152 
f 104/62/133 106/63/135 113/62/142 
f 103/64/132 104/62/133 113/62/142 
f 105/64/134 104/62/133 103/64/132 
f 90/65/119 105/64/134 103/64/132 
f 124/65/153 105/64/134 90/65/119 
f 88/66/117 124/65/153 90/65/119 
f 125/66/154 124/65/153 88/66/117 
f 86/65/115 125/66/154 88/66/117 
f 126/74/155 106/63/135 107/62/136 
f 122/73/151 106/63/135 126/74/155 
f 127/72/156 122/73/151 126/74/155 
f 120/71/149 122/73/151 127/72/156 
f 116/69/145 120/71/149 127/72/156 
f 115/68/144 120/71/149 116/69/145 
f 128/65/157 125/66/154 86/65/115 
f 84/64/113 128/65/157 86/65/115 
f 129/64/158 128/65/157 84/64/113 
f 80/62/109 129/64/158 84/64/113 
f 130/62/159 129/64/158 80/62/109 
f 82/63/111 130/62/159 80/62/109 
f 131/63/160 130/62/159 82/63/111 
f 95/62/124 131/63/160 82/63/111 
f 130/62/159 131/63/160 95/62/124 
f 93/64/122 130/62/159 95/62/124 
f 129/64/158 130/62/159 93/64/122 
f 128/65/157 129/64/158 93/64/122 
f 93/64/122 92/65/121 128/65/157 
f 92/65/121 125/66/154 128/65/157 
f 124/65/153 125/66/154 92/65/121 
f 91/64/120 124/65/153 92/65/121 
f 105/64/134 124/65/153 91/64/120 
f 96/62/125 105/64/134 91/64/120 
f 132/75/161 133/76/162 134/77/163 
f 135/78/164 133/76/162 132/75/161 
f 136/79/165 135/78/164 132/75/161 
f 132/75/161 137/80/166 136/79/165 
f 138/81/167 137/80/166 132/75/161 
f 138/81/167 139/82/168 137/80/166 
f 140/80/169 139/82/168 138/81/167 
f 141/75/170 140/80/169 138/81/167 
f 142/79/171 140/80/169 141/75/170 
f 143/78/172 142/79/171 141/75/170 
f 141/75/170 144/76/173 143/78/172 
f 145/77/174 144/76/173 141/75/170 
f 138/81/167 145/77/174 141/75/170 
f 146/83/175 145/77/174 138/81/167 
f 134/77/163 146/83/175 138/81/167 
f 134/77/163 138/81/167 132/75/161 
f 147/84/176 134/77/163 133/76/162 
f 147/84/176 148/85/177 134/77/163 
f 148/85/177 146/83/175 134/77/163 
f 148/85/177 149/86/178 146/83/175 
f 149/86/178 150/85/179 146/83/175 
f 146/83/175 150/85/179 145/77/174 
f 150/85/179 151/84/180 145/77/174 
f 145/77/174 151/84/180 144/76/173 
f 151/84/180 114/87/181 144/76/173 
f 144/76/173 114/87/181 116/88/182 
f 144/76/173 116/88/182 143/78/172 
f 143/78/172 116/88/182 127/89/183 
f 127/89/183 126/90/184 143/78/172 
f 126/90/184 142/79/171 143/78/172 
f 126/90/184 107/91/185 142/79/171 
f 107/91/185 108/92/186 142/79/171 
f 142/79/171 108/92/186 140/80/169 
f 108/92/186 109/93/187 140/80/169 
f 140/80/169 109/93/187 139/82/168 
f 109/93/187 110/94/188 139/82/168 
f 139/82/168 110/94/188 111/93/189 
f 139/82/168 111/93/189 137/80/166 
f 137/80/166 111/93/189 112/92/190 
f 137/80/166 112/92/190 136/79/165 
f 136/79/165 112/92/190 113/91/191 
f 123/90/192 136/79/165 113/91/191 
f 135/78/164 136/79/165 123/90/192 
f 121/89/193 135/78/164 123/90/192 
f 133/76/162 135/78/164 121/89/193 
f 119/88/194 133/76/162 121/89/193 
f 147/84/176 133/76/162 119/88/194 
f 118/87/195 147/84/176 119/88/194 
# 0 polygons - 281 triangles

